<svg xmlns="http://www.w3.org/2000/svg" viewBox="0 0 256 256"><path fill="#87828e" d="M150.67 249.12h-45.34l3.83-103.38h37.68z"/><path fill="#f1f1f1" d="M220.75 184.93H35.24a15.1 15.1 0 0 1-15.11-15.11V53.89a15.1 15.1 0 0 1 15.11-15.12h185.51a15.1 15.1 0 0 1 15.11 15.12v116.03c0 8.26-6.75 15-15.11 15z"/><path fill="#a4a4a5" d="m122.82 184.93-2.38 64.19h-15.11l2.38-64.19z"/><path fill="#ffefee" d="M50.36 184.93H35.25a15.1 15.1 0 0 1-15.12-15.11V53.89a15.1 15.1 0 0 1 15.12-15.12h15.11A15.1 15.1 0 0 0 35.25 53.9v115.93a15.1 15.1 0 0 0 15.11 15.11"/><path fill="#e7e7e7" d="M205.64 184.93h15.11a15.1 15.1 0 0 0 15.12-15.11V53.89a15.1 15.1 0 0 0-15.12-15.12h-15.11a15.1 15.1 0 0 1 15.11 15.12v115.93a15.1 15.1 0 0 1-15.11 15.11"/><path fill="var(--color-navbar-icon-teal, #44c7b6)" d="M139.75 154.91H36.83v-36a15.8 15.8 0 0 1 15.8-15.8h71.31a15.8 15.8 0 0 1 15.8 15.8z"/><path fill="var(--color-navbar-icon-peach, #ffbb98)" d="M88.3 122.42a11.54 11.54 0 0 1-11.54-11.54v-27.9h23.07v27.9c0 6.38-5.16 11.54-11.53 11.54"/><path fill="var(--color-navbar-icon-teal-light, #4bdbc3)" d="M67.65 103.11a15.8 15.8 0 0 0-15.81 15.8v36h-15v-36a15.8 15.8 0 0 1 15.8-15.8z"/><path fill="var(--color-navbar-icon-teal-dark, #3bb2a0)" d="M139.76 118.91v36h-15v-36a15.8 15.8 0 0 0-15.81-15.8h15a15.8 15.8 0 0 1 15.81 15.8"/><path fill="var(--color-navbar-icon-peach, #ffbb98)" d="M69.57 6.89a17 17 0 0 0-17 17v42.83c0 17.4 12.45 32.36 28.88 35.67h.01q3.57.75 7.32.7a35 35 0 0 0 6.45-.7h.02a35.85 35.85 0 0 0 28.77-35.03V23.9a17 17 0 0 0-17-17z"/><path fill="var(--color-navbar-icon-peach-deep, #ffaa80)" d="M124.02 41.98v25.39c0 22.91-21.4 39.44-42.55 35.02a35.9 35.9 0 0 0 28.71-35.04v-22.9a7.2 7.2 0 0 0 6.41.76 58 58 0 0 0 7.43-3.23"/><path fill="var(--color-navbar-icon-peach-light, #ffcaa6)" d="m94.23 102.39-.07.2c-4.14.7-8.47.68-12.7-.2-16.44-3.3-28.89-18.27-28.89-35.68V49.67c3.57-.23 7.35-.96 12.84-2.66v19.7c0 17.37 12.37 32.32 28.82 35.68"/><g fill="var(--color-navbar-icon-gold, #e5e446)"><path d="M124.02 23.9v18.08a58 58 0 0 1-7.44 3.23 7.2 7.2 0 0 1-9-3.8 10.2 10.2 0 0 0-13.1-5.3C69.1 46.32 60.37 49.18 52.57 49.69v-25.8a17 17 0 0 1 17-17h37.45q1.62 0 3.15.3a17 17 0 0 1 13.85 16.71"/><path d="M82.33 6.88q-2.17 0-4.17.52a17 17 0 0 0-12.84 16.5v23.15c-5.45 1.69-9.2 2.4-12.75 2.64v-25.8a17 17 0 0 1 17-17zm41.69 17.02v18.08a58 58 0 0 1-7.44 3.23c-2.2.79-4.56.45-6.4-.75l.01-20.73A17 17 0 0 0 95.5 6.88c12.59 0 12.66-.09 14.67.3a17 17 0 0 1 13.85 16.71"/></g><path d="M220.75 34.77h-92.73V23.9a21 21 0 0 0-21-21H69.57c-11.62 0-21 9.37-21 21v10.88H35.25a19.14 19.14 0 0 0-19.12 19.11v115.93a19.15 19.15 0 0 0 19.12 19.12h68.3l-2.08 56.19H81.45c-5.29 0-5.3 8 0 8h93.2c5.29 0 5.3-8 0-8h-20.13l-2.08-56.19h68.31a19.1 19.1 0 0 0 19.12-19.02V53.88a19.14 19.14 0 0 0-19.12-19.1M80.76 106.34q3.7.74 7.54.74c2.48 0 4.92-.21 7.53-.72v4.52a7.54 7.54 0 0 1-15.07 0zm-8 .77v3.77a15.55 15.55 0 0 0 31.07 0v-3.77h20.12c6.5 0 11.8 5.3 11.8 11.8v32h-94.9v-32c0-6.5 5.3-11.8 11.8-11.8zm15.97-8.03c-17.97.2-32.16-14.92-32.16-32.37V53.25c7.07-1.07 16.42-4.16 39.39-13.42a6.2 6.2 0 0 1 7.84 2.94c3.6 6.5 9.17 7.98 14.12 6.2q1.05-.37 2.1-.78v19.17a31.87 31.87 0 0 1-31.29 31.72m-32.16-75.2a13 13 0 0 1 13-13h37.45c7.24 0 13 5.86 13 13.01v15.6a58 58 0 0 1-4.78 1.95 3.2 3.2 0 0 1-4-1.67 14.23 14.23 0 0 0-18.25-7.37c-16.31 6.56-28.72 11.36-36.42 12.75zm89.95 221.23h-37.04l2.08-56.18h32.88zm85.35-75.2c0 6.08-4.99 11.02-11.12 11.02H35.25a11.13 11.13 0 0 1-11.12-11.12V53.88c0-6.12 4.99-11.1 11.12-11.1h13.32V66.7a40.9 40.9 0 0 0 16.17 32.4h-12.1a19.83 19.83 0 0 0-19.8 19.8v36a4 4 0 0 0 4 4h102.91a4 4 0 0 0 4-4v-36c0-10.92-8.88-19.8-19.8-19.8h-11.88a39.8 39.8 0 0 0 15.95-31.75V42.77h92.73c6.13 0 11.12 5 11.12 11.11z"/><circle cx="70.71" cy="59.75" r="4.79" transform="rotate(-9.218 70.703 59.745)"/><circle cx="105.89" cy="59.75" r="4.79" transform="rotate(-67.5 105.896 59.751)"/><path d="M94.4 70.25a4 4 0 0 0-4 4 2.07 2.07 0 0 1-4.15 0 4 4 0 1 0-8 0 10.08 10.08 0 0 0 20.15 0 4 4 0 0 0-4-4m66.86-4.71h55.98a4 4 0 0 0 0-8h-55.98a4 4 0 0 0 0 8m0 20.27h55.98a4 4 0 0 0 0-8h-55.98a4 4 0 0 0 0 8m0 20.27h55.98a4 4 0 0 0 0-8h-55.98a4 4 0 0 0 0 8m0 20.28h55.98a4 4 0 0 0 0-8h-55.98a4 4 0 0 0 0 8m0 20.27h55.98a4 4 0 0 0 0-8h-55.98a4 4 0 0 0 0 8m37 12.27h-37a4 4 0 1 0 0 8h37a4 4 0 1 0 0-8m18.98 0h-3.98a4 4 0 1 0 0 8h3.98a4 4 0 1 0 0-8"/></svg>