<svg xmlns="http://www.w3.org/2000/svg" viewBox="0 0 256 256"><path fill="#f1f1f1" d="M248.8 38.6v178.9c0 8.2-6.7 14.9-15 14.9H22.2c-8.3 0-15-6.7-15-15V38.6c0-8.3 6.7-15 15-15h211.6c8.3 0 15 6.7 15 15"/><path fill="#f7f7f7" d="M37.2 232.4h-15c-8.3 0-15-6.7-15-15V38.6c0-8.3 6.7-15 15-15h15c-8.3 0-15 6.7-15 15v178.8c0 8.3 6.7 15 15 15"/><path fill="#e7e7e7" d="M248.8 38.6v178.9c0 8.2-6.7 14.9-15 14.9h-15c8.3 0 15-6.7 15-14.9V38.6c0-8.3-6.7-15-15-15h15c8.3 0 15 6.7 15 15"/><path fill="var(--color-navbar-icon-teal, #44c7b6)" d="M248.8 38.6v19.53H7.2V38.6c0-8.3 6.7-15 15-15h211.6c8.3 0 15 6.7 15 15"/><path fill="var(--color-navbar-icon-teal-light, #4bdbc3)" d="M37.2 23.6c-8.3 0-15 6.7-15 15v19.53h-15V38.6c0-8.3 6.7-15 15-15z"/><path fill="var(--color-navbar-icon-teal-dark, #3bb2a0)" d="M248.8 38.6v19.53h-15V38.6c0-8.3-6.7-15-15-15h15c8.3 0 15 6.7 15 15"/><path fill="var(--color-navbar-icon-pencil-1, #fef716)" d="m130.19 163.13-7.32 23.92a2.6 2.6 0 0 0 .54 2.5 2.6 2.6 0 0 0 2.68.79l24.04-6.9-9.98-10.14-.13-.14z"/><path fill="#87828e" d="m150.13 183.45 71.01-69.99-10.31-10.51-9.63-9.8-71.01 70 9.63 9.79z"/><path fill="var(--color-navbar-icon-pencil-2, #ebf619)" d="m227.6 84.52 2.67 2.72a12.3 12.3 0 0 1-.16 17.42l-8.96 8.8-19.94-20.3 8.96-8.8a12.33 12.33 0 0 1 17.43.15"/><path fill="var(--color-navbar-icon-pencil-3, #f5cf1b)" d="m140.02 173.16-16.61 16.4a2.6 2.6 0 0 0 2.68.78l24.04-6.9-9.98-10.14z"/><path fill="#a4a4a5" d="m221.14 113.46-10.31-10.51-71.01 69.99 10.31 10.51z"/><path fill="var(--color-navbar-icon-pencil-4, #f8d21c)" d="M222.89 81.52c1.73.6 3.34 1.6 4.71 3l2.67 2.72a12.3 12.3 0 0 1-.17 17.42l-8.96 8.8-10.3-10.5 8.96-8.8a12.3 12.3 0 0 0 3.09-12.64"/><path d="M57.14 209.52h-29a4 4 0 1 0 0 8h29a4 4 0 1 0 0-8m20.7 0h-5.7a4 4 0 1 0 0 8h5.7a4 4 0 1 0 0-8"/><path d="M233.8 19.6H22.2c-10.48 0-19 8.52-19 19v178.8c0 10.48 8.52 19 19 19h211.6c10.48 0 19-8.48 19-18.9V38.6c0-10.48-8.52-19-19-19m-222.6 19a11 11 0 0 1 11-11h211.6a11 11 0 0 1 11 11v15.53H11.2zm222.6 189.8H22.2a11 11 0 0 1-11-11V62.13h233.6V217.5c0 6.01-4.93 10.9-11 10.9"/><circle cx="165.44" cy="40.87" r="5.94"/><circle cx="191.6" cy="40.87" r="5.94"/><circle cx="217.77" cy="40.87" r="5.94"/><path d="M230.45 81.71c-5.96-6.08-16.12-7.01-23.54.24H28.14a4 4 0 0 0 0 8h170.63l-18.4 18.13H28.14a4 4 0 1 0 0 8h144.11l-18.39 18.12H28.14a4 4 0 1 0 0 8h117.61l-18.39 18.12H28.14a4 4 0 1 0 0 8h96.27c-.1.36-5.43 17.76-5.51 18.12H28.14a4 4 0 0 0 0 8h95.27q.44 0 .85-.1c.14.07.9.1 1.08.1 1.41 0 25.78-7.04 25.89-7.15a4 4 0 0 0 1.76-1.04c77.52-76.4 64.47-63.56 79.92-78.73a16.35 16.35 0 0 0 .21-23.1zM127.43 185.79l4.61-15.05 10.52 10.72zm22.75-8-14.34-14.6 65.32-64.37 14.33 14.6zm77.13-75.98-6.11 6-14.33-14.6 6.1-6a8.3 8.3 0 0 1 11.78.11l2.67 2.72a8.34 8.34 0 0 1-.11 11.77"/></svg>