<svg xmlns="http://www.w3.org/2000/svg" viewBox="0 0 256 256"><path fill="#0d0503" d="M93.53 10.32h-44.2a13.96 13.96 0 0 0-13.96 13.96v2.19a9.48 9.48 0 0 0-14.31 8.16v83.01c0 7.97 6.02 12.22 13.99 12.22h67.79c7.23 0 11.63-5.87 11.63-13.1v-85.5a20.94 20.94 0 0 0-20.94-20.94"/><path fill="#291613" d="M114.47 31.26v85.5c0 7.24-4.4 13.1-11.64 13.1H91.94c7.24 0 11.64-5.86 11.64-13.1v-85.5a20.95 20.95 0 0 0-20.94-20.94h10.89a20.95 20.95 0 0 1 20.94 20.94M60.21 10.32a13.96 13.96 0 0 0-13.96 13.96v2.19a9.48 9.48 0 0 0-14.3 8.16v83.02c0 7.96 6.02 12.2 13.98 12.2H35.04c-7.96 0-13.99-4.24-13.99-12.2V34.63c0-7.34 8-11.9 14.31-8.16v-2.2c0-7.7 6.25-13.95 13.96-13.95z"/><path fill="var(--color-navbar-icon-gold, #e5e446)" d="M127.34 176.54v.76a7.87 7.87 0 0 1-7.86 7.87H16.06a7.87 7.87 0 0 1-7.87-7.87v-.76a59.6 59.6 0 0 1 59.57-59.58h.01a59 59 0 0 1 20.5 3.62 59.6 59.6 0 0 1 39.07 55.96"/><path fill="var(--color-navbar-icon-gold-deep, #d3ca23)" d="M127.34 176.54v.76a7.87 7.87 0 0 1-7.86 7.87h-10.9a7.87 7.87 0 0 0 7.87-7.87c0-21.7-10.63-39.9-26.75-50.48a59 59 0 0 0-27.38-9.61q2.68-.25 5.44-.25h.01c6.6 0 12.94 1.07 18.86 3.05l1.65.58a59.6 59.6 0 0 1 39.06 55.95"/><path fill="var(--color-navbar-icon-gold-pale, #fdf381)" d="M73.2 117.21a59 59 0 0 0-27.37 9.62c-16.01 10.5-26.75 28.6-26.75 50.48a7.87 7.87 0 0 0 7.86 7.87H16.05a7.87 7.87 0 0 1-7.86-7.87v-.77a59.6 59.6 0 0 1 39.06-55.95q.83-.3 1.65-.57a59 59 0 0 1 18.86-3.06h.01q2.76 0 5.44.25"/><path fill="var(--color-navbar-icon-peach, #ffbb98)" d="M57.3 108.55v19.22a10.47 10.47 0 0 0 20.93 0v-19.22z"/><path fill="var(--color-navbar-icon-peach-light, #ffcaa6)" d="M68.19 108.56v29.7a10.9 10.9 0 0 1-10.9-10.9v-18.8z"/><path fill="var(--color-navbar-icon-peach, #ffbb98)" d="M67.76 110.3a32.6 32.6 0 0 1-32.5-32.5V51.63c0-4 3.26-7.26 7.27-7.26h16.22c2.16 0 4.2 1 5.53 2.72 1.93 2.5 3.45 5.13 7.38 5.13H93c4 0 7.26 3.25 7.26 7.26V77.8a32.6 32.6 0 0 1-32.5 32.5"/><path fill="var(--color-navbar-icon-peach-deep, #ffaa80)" d="M100.26 59.47V77.8a32.6 32.6 0 0 1-37.94 32.03A32.6 32.6 0 0 0 89.37 77.8V59.2a7 7 0 0 0-6.98-6.98H93a7.26 7.26 0 0 1 7.26 7.26"/><path fill="var(--color-navbar-icon-peach-light, #ffcaa6)" d="M73.2 109.83q-2.65.46-5.44.47a32.6 32.6 0 0 1-32.5-32.5V51.63c0-4 3.26-7.26 7.27-7.26h10.61a7 7 0 0 0-6.98 6.98V77.8a32.6 32.6 0 0 0 27.05 32.02"/><path fill="#f1f1f1" d="M181.92 106.18a65.9 65.9 0 0 0-59.24 94.77c-3.16 12.77-9.44 29.36-21.67 38.42a3.21 3.21 0 0 0 1.55 5.8c12.57 1.25 35.56 1.18 55.1-11.82a65.9 65.9 0 1 0 24.26-127.17"/><path fill="#f7f7f7" d="M125.29 172.07a65.6 65.6 0 0 0 6.65 28.88c-3.16 12.77-9.44 29.36-21.67 38.42-2.37 1.76-1.4 5.5 1.55 5.8q2.58.26 5.7.41c-5.76.26-10.91 0-14.97-.41-2.94-.3-3.92-4.04-1.55-5.8 12.23-9.06 18.51-25.65 21.68-38.42a65.89 65.89 0 0 1 63.87-94.6 65.9 65.9 0 0 0-61.26 65.72"/><path fill="#e7e7e7" d="M247.81 172.07a65.9 65.9 0 0 1-70.53 65.73 65.89 65.89 0 0 0 0-131.45q2.3-.17 4.64-.17a65.9 65.9 0 0 1 65.89 65.89"/><circle cx="51.76" cy="68.96" r="4.35"/><path d="M83.77 64.6a4.35 4.35 0 1 0 0 8.7 4.35 4.35 0 0 0 0-8.7M73.7 77.15a4 4 0 0 0-4 4c0 2.55-3.87 2.55-3.87 0a4 4 0 0 0-4-4c-7.24 0-4.2 13.93 5.93 13.93a9.94 9.94 0 0 0 9.94-9.93 4 4 0 0 0-4-4m14.5-47.98h8a4 4 0 1 0 0-8h-8a4 4 0 1 0 0 8m-16.56 0h1.56a4 4 0 1 0 0-8h-1.56a4 4 0 1 0 0 8"/><path d="M181.92 102.18a69.9 69.9 0 0 0-62.13 37.91 64 64 0 0 0-7.82-9.18c4.02-2.99 6.5-8.06 6.5-14.15v-85.5A24.97 24.97 0 0 0 93.53 6.32H49.32a18 18 0 0 0-17.69 14.85 13.5 13.5 0 0 0-14.57 13.46v83.02c0 5.67 2.47 10.26 6.68 13.08-12.09 11.64-19.55 27.8-19.55 46.58 0 6.54 5.32 11.86 11.86 11.86h98.08a68 68 0 0 0 4.31 12.19c-3.03 11.68-8.89 26.7-19.82 34.79-5.28 3.91-3.07 12.33 3.54 12.99 19.05 1.92 39.55-1.12 55.96-11.33a69.97 69.97 0 0 0 93.69-65.74 69.97 69.97 0 0 0-69.89-69.89M25.06 117.65V34.63a5.48 5.48 0 0 1 8.27-4.72 4 4 0 0 0 6.03-3.44v-2.19a9.97 9.97 0 0 1 9.96-9.96h44.21c9.34 0 16.94 7.6 16.94 16.94v85.5c0 3.68-1.56 7.39-4.97 8.65a63 63 0 0 0-23.27-10.79v-3.31a36.6 36.6 0 0 0 22.03-33.5V59.47c0-6.2-5.05-11.26-11.26-11.26H71.66c-1.74 0-2.2-.98-4.22-3.57a11 11 0 0 0-8.69-4.28H42.53a11.27 11.27 0 0 0-11.26 11.26v26.2c0 14.13 8.16 27.33 22.02 33.5v3.3c-6.95 1.46-15.54 5.13-22.92 10.52-2.71-.91-5.31-2.97-5.31-7.49m42.7-11.35a28.53 28.53 0 0 1-28.49-28.49V51.62a3.27 3.27 0 0 1 3.26-3.26h16.22c.91 0 1.8.44 2.36 1.16 2.88 4 5.47 6.69 10.55 6.69H93a3.27 3.27 0 0 1 3.26 3.26v18.34a28.6 28.6 0 0 1-28.5 28.49m-6.47 7.43c4.59.8 9.4.7 12.94 0v14.05a6.48 6.48 0 0 1-12.94 0zm-45.24 67.44a3.86 3.86 0 0 1-3.86-3.86c0-26.97 17.97-48.34 41.1-54.43v4.9c0 7.98 6.5 14.47 14.47 14.47s14.47-6.5 14.47-14.47v-4.9c13.4 3.45 26.1 12.73 33.73 26.08a70 70 0 0 0-3.35 32.21zm165.87 52.79a62 62 0 0 1-22.79-4.33 4 4 0 0 0-3.69.39c-17.64 11.74-38.47 12.3-50.49 11.34 12.24-10.02 18.49-26.85 21.61-39.45.23-.92.12-1.88-.29-2.72a61.96 61.96 0 0 1 55.65-89.01c34.13 0 61.89 27.76 61.89 61.89s-27.76 61.89-61.89 61.89"/><path d="M219.62 150.18H145a4 4 0 0 0 0 8h74.62a4 4 0 0 0 0-8m0 21.75H145a4 4 0 0 0 0 8h74.62a4 4 0 0 0 0-8m0 21.75H145a4 4 0 0 0 0 8h74.62a4 4 0 0 0 0-8"/></svg>