<svg xmlns="http://www.w3.org/2000/svg" viewBox="0 0 256 256"><circle cx="128.02" cy="128" r="108.08" fill="var(--color-navbar-icon-cyan, #5fcdff)"/><path fill="var(--color-navbar-icon-cyan-light, #73d7f9)" d="M136.8 235.72q-4.34.37-8.78.36C68.33 236.08 19.94 187.7 19.94 128S68.34 19.92 128.02 19.92q4.44 0 8.78.37C81.22 24.75 37.5 71.27 37.5 128s43.72 103.26 99.3 107.72"/><path fill="var(--color-navbar-icon-cyan-deep, #30b6ff)" d="M236.11 128c0 59.69-48.4 108.08-108.08 108.08q-4.44 0-8.78-.36c55.58-4.46 99.3-50.98 99.3-107.72s-43.72-103.26-99.3-107.72q4.34-.37 8.78-.37c59.69 0 108.08 48.4 108.08 108.08z"/><path fill="var(--color-navbar-icon-teal, #44c7b6)" d="M151.87 233.42a108 108 0 0 1-23.84 2.65c-59.7 0-108.08-48.38-108.08-108.08 0-25.93 9.14-49.74 24.36-68.36l23.75 16.5a19.1 19.1 0 0 1 6.9 22.55l-4.54 11.72a19.1 19.1 0 0 0 4.54 20.62l14.25 13.73a19.1 19.1 0 0 1 3.94 22.02 19 19 0 0 0-1.74 10.77l2.25 17.12c1.1 8.36 7.56 15 15.88 16.34l19.28 3.1c4.3.69 8.25 2.84 11.17 6.08z"/><path fill="var(--color-navbar-icon-teal-light, #4bdbc3)" d="M128.02 234.65q-4.32.72-8.76 1.07c-87.23-7-129.6-108.95-75.04-175.98l.08-.1 11.6 8.06c-43.75 64.9-5.61 154.28 72.13 166.96"/><path fill="var(--color-navbar-icon-teal-dark, #3bb2a0)" d="M224.18 177.37v.02c-.68 1.27-1.37 2.61-2.84 5.14-.02-.02-10.54-14.24-10.56-14.25 5-12.45 7.76-26.04 7.76-40.28 0-47.32-30.4-87.52-72.72-102.15l1.27-4.24c40.32 7.41 72.65 36.05 84.47 75.29l.01.04c7.9 27.29 5.62 54.86-7.39 80.43"/><path fill="var(--color-navbar-icon-teal, #44c7b6)" d="M236.1 128c0 19.9-5.38 38.53-14.76 54.53l-12.36-16.68a23.3 23.3 0 0 0-15.54-9.2 23.3 23.3 0 0 1-20.12-23.06v-6.68c0-5.85-2.2-11.48-6.17-15.78L141.21 83a23.3 23.3 0 0 1-5.32-21.98c3.21-11.63 7.98-28.72 11.2-39.41 50.6 9 89.01 53.2 89.01 106.4z"/><path fill="var(--color-navbar-icon-teal-light, #4bdbc3)" d="M128.02 234.65q-4.32.72-8.76 1.07c-87.21-7-129.66-108.86-75.04-175.98l.08-.1 11.6 8.06c-43.75 64.9-5.61 154.28 72.13 166.96m96.15-57.29v.02c-.68 1.27-1.37 2.61-2.84 5.14-.02-.02-10.54-14.24-10.56-14.25 5-12.45 7.76-26.04 7.76-40.28 0-47.32-30.4-87.52-72.72-102.15l1.27-4.24c39.5 7.26 72.4 35.24 84.47 75.29l.01.04c7.85 27.15 5.72 54.65-7.39 80.43"/><path d="M192.28 87.39a79 79 0 0 1 3.6 8.63 4 4 0 1 0 7.56-2.64 86 86 0 0 0-3.98-9.51 4 4 0 1 0-7.18 3.52m-33.45-35.38c.14.07 14.3 7.2 26.05 23.18a4 4 0 1 0 6.44-4.74c-12.88-17.52-28.29-25.28-28.94-25.6a4 4 0 0 0-3.55 7.16"/><path d="M234.5 92.88c8.64-8.46 22.6-23.86 16.87-34.53-4.3-8-17.56-9.6-39.42-4.74a111.8 111.8 0 0 0-83.92-37.69C53.69 15.92.42 86.84 19.97 157.75c-14.22 14.32-19.4 25.43-15.33 33 5.36 9.98 23.62 7.8 34.72 5.7a112 112 0 0 0 88.67 43.63c76.08 0 130.35-74.52 106.47-147.2m-13.66 82.25c-8.48-11.45-13.23-20.61-26.85-22.45a19.36 19.36 0 0 1-16.53-16.92c20.03-12.47 37.42-25.1 50.53-36.8a104.2 104.2 0 0 1-7.15 76.17m23.48-113c1.56 2.9-1.06 10.32-12.89 22.5-3.6-8.6-8.24-16.67-13.79-24.04 17.19-3.32 25.13-1.36 26.68 1.54m-19.11 28.54c-12.06 11.1-28.7 23.47-47.9 35.7a27.2 27.2 0 0 0-7.21-17.95l-25.94-28.13a19.2 19.2 0 0 1-4.4-18.21c2.9-10.53 7.05-25.38 10.13-35.86a103.8 103.8 0 0 1 75.32 64.45m-83.25-65.83c-3.03 10.3-7.05 24.7-9.92 35.1a27.1 27.1 0 0 0 6.24 25.77l25.94 28.13c5.73 6.2 5.1 12.63 5.1 17.51a581 581 0 0 1-72.84 37.8c4.8-11.23 2.25-20.79-4.49-27.28l-14.25-13.73a15.1 15.1 0 0 1-3.59-16.3l4.55-11.7a23 23 0 0 0-8.35-27.28L50.22 58.87a103.9 103.9 0 0 1 91.74-34.03M45.12 65.07l20.66 14.36a15 15 0 0 1 5.46 17.8l-4.55 11.73a23 23 0 0 0 5.5 24.94l14.25 13.73c9.39 9.04 1.57 18.11.92 25.33-16.58 6.71-31.88 11.76-44.61 14.62A103.5 103.5 0 0 1 23.95 128c0-22.7 7.5-44.9 21.17-62.92M11.7 186.97c-1.49-2.78.8-9.56 11.04-20.57a112 112 0 0 0 11.48 22.84c-14.36 2.27-21.07.43-22.52-2.28m36.39 7.58c11.82-2.9 25.31-7.36 39.81-13.13l1.81 13.77a22.9 22.9 0 0 0 19.21 19.77l19.28 3.1c6.59 1.05 9 5 15.98 12.77a103.9 103.9 0 0 1-96.1-36.28m105.18 34.43c-10.3-11.47-13.9-17.24-23.8-18.83l-19.28-3.1a15 15 0 0 1-12.55-12.9l-2.08-15.86c24.91-10.44 51.18-23.96 74.6-38.06a27.4 27.4 0 0 0 22.76 20.38c9.98 1.34 12.85 7.61 23.63 22.15a104.3 104.3 0 0 1-63.28 46.22"/></svg>