<svg xmlns="http://www.w3.org/2000/svg" viewBox="0 0 256 256"><circle cx="59.36" cy="181.12" r="52.91" fill="var(--color-navbar-icon-yellow-bright, #fffd00)"/><path fill="var(--color-navbar-icon-yellow-pale, #f4f47c)" d="M68.96 233.17q-4.66.87-9.6.87a52.9 52.9 0 1 1 9.6-104.95 52.92 52.92 0 0 0 0 104.08"/><path fill="var(--color-navbar-icon-yellow-olive, #cfcf4b)" d="M112.27 181.12a52.9 52.9 0 0 1-62.5 52.04 52.92 52.92 0 0 0 0-104.07q4.67-.87 9.6-.87a52.9 52.9 0 0 1 52.9 52.9"/><path fill="var(--color-navbar-icon-aqua, #5fffe8)" d="M244.88 68.7h-10.54a45 45 0 0 0-3.75-9.01l7.47-7.47a4.65 4.65 0 0 0 0-6.58l-12.2-12.2a4.67 4.67 0 0 0-6.6 0l-7.44 7.46a46 46 0 0 0-9.02-3.73V26.62c0-2.57-2.1-4.66-4.67-4.66H180.9a4.67 4.67 0 0 0-4.67 4.66v10.55q-4.67 1.36-9.02 3.73l-7.45-7.45a4.66 4.66 0 0 0-6.6 0l-12.18 12.19a4.63 4.63 0 0 0 0 6.58l7.46 7.46a46 46 0 0 0-3.96 9.83h-10.33a4.65 4.65 0 0 0-4.65 4.64v17.26c0 2.56 2.1 4.65 4.65 4.65h10.8a44 44 0 0 0 3.49 8.21l-7.46 7.45a4.65 4.65 0 0 0 0 6.6l12.19 12.2a4.66 4.66 0 0 0 6.59 0l7.45-7.45a47 47 0 0 0 9.02 3.73v10.54a4.66 4.66 0 0 0 4.67 4.66h17.23a4.66 4.66 0 0 0 4.67-4.66V126.8q4.66-1.38 9.02-3.73l7.44 7.45a4.67 4.67 0 0 0 6.6 0l12.2-12.2a4.67 4.67 0 0 0 0-6.6l-7.47-7.44a45 45 0 0 0 3.75-9.02h10.54a4.66 4.66 0 0 0 4.66-4.65V73.36a4.66 4.66 0 0 0-4.66-4.66m-55.36 29.9a16.63 16.63 0 1 1 0-33.25 16.63 16.63 0 0 1 0 33.25"/><path fill="var(--color-navbar-icon-mint, #73f9c8)" d="M155.99 45.64a4.63 4.63 0 0 0 0 6.58l7.45 7.47a46 46 0 0 0-3.96 9.82h-10.32a4.65 4.65 0 0 0-4.65 4.64v17.26a4.66 4.66 0 0 0 4.65 4.65h10.8a44 44 0 0 0 3.48 8.21l-7.45 7.45a4.65 4.65 0 0 0 0 6.6l7.98 7.99-4.2 4.21a4.66 4.66 0 0 1-6.6 0l-12.19-12.2a4.65 4.65 0 0 1 0-6.6l7.46-7.45a44 44 0 0 1-3.48-8.21h-10.8a4.66 4.66 0 0 1-4.66-4.65V74.15c0-2.56 2.1-4.64 4.65-4.64h10.33q1.4-5.1 3.96-9.82l-7.45-7.47a4.63 4.63 0 0 1 0-6.58l12.18-12.2a4.66 4.66 0 0 1 6.6 0l4.2 4.22z"/><path fill="var(--color-navbar-icon-cyan-vivid, #30f4ff)" d="M249.54 73.36v17.25c0 2.57-2.1 4.65-4.66 4.65h-10.55a45 45 0 0 1-3.74 9.02l7.47 7.44a4.67 4.67 0 0 1 0 6.6l-12.2 12.2a4.67 4.67 0 0 1-6.6 0l-4.2-4.2 8-8a4.67 4.67 0 0 0 0-6.6l-7.47-7.44a45 45 0 0 0 3.74-9.02h10.54a4.66 4.66 0 0 0 4.67-4.65V73.36c0-2.58-2.1-4.66-4.67-4.66h-10.54a45 45 0 0 0-3.74-9.01l7.46-7.47a4.65 4.65 0 0 0 0-6.58l-8-8 4.21-4.2a4.67 4.67 0 0 1 6.6 0l12.2 12.2a4.65 4.65 0 0 1 0 6.58l-7.47 7.47q2.38 4.34 3.74 9h10.55a4.66 4.66 0 0 1 4.66 4.67"/><path d="m119.25 59.03-25.9-18.98a4 4 0 1 0-4.73 6.45l16.04 11.75H85.13a29.8 29.8 0 0 0-29.77 29.77v19.84a4 4 0 0 0 8 0V88.02c0-12 9.76-21.77 21.77-21.77h19.53L88.62 78a4 4 0 1 0 4.73 6.46l25.9-18.98a4 4 0 0 0 0-6.45m-59.89 65.19c-31.37 0-56.9 25.53-56.9 56.9s25.52 56.91 56.9 56.91 56.91-25.52 56.91-56.9-25.53-56.91-56.9-56.91m0 105.82c-26.96 0-48.9-21.94-48.9-48.9s21.94-48.91 48.9-48.91 48.91 21.94 48.91 48.9-21.94 48.91-48.9 48.91"/><path d="M64.89 174.36h-1.53v-19.62h1.53a9.7 9.7 0 0 1 7.2 3.14 4 4 0 1 0 5.87-5.43 18 18 0 0 0-13.07-5.71h-1.53v-1.53a4 4 0 0 0-8 0v1.53h-1.52c-9.82 0-17.81 7.99-17.81 17.8s7.99 17.82 17.8 17.82h1.53v25.15h-1.52a9.8 9.8 0 0 1-8.2-4.43 4 4 0 1 0-6.69 4.4 17.8 17.8 0 0 0 14.89 8.03h1.52v1.52a4 4 0 0 0 8 0v-1.52h1.53c9.82 0 17.81-8 17.81-17.81v-5.53c0-9.82-8-17.81-17.81-17.81m-9.53 0h-1.52a9.82 9.82 0 0 1 0-19.62h1.52zM74.7 197.7c0 5.4-4.4 9.8-9.81 9.8h-1.53v-25.14h1.53c5.4 0 9.81 4.4 9.81 9.81zM190.5 154a4 4 0 0 0-4 4v19.84c0 12-9.77 21.77-21.77 21.77H141.2l16.04-11.76a4 4 0 1 0-4.73-6.45l-25.9 18.98a4 4 0 0 0 0 6.45l25.9 18.98a4 4 0 0 0 4.73-6.45L141.2 207.6h23.53a29.8 29.8 0 0 0 29.77-29.77V158a4 4 0 0 0-4-4m54.38-89.3h-7.64a49 49 0 0 0-1.76-4.24l5.41-5.4a8.67 8.67 0 0 0 0-12.25l-12.2-12.19a8.7 8.7 0 0 0-12.25 0l-5.4 5.4a50 50 0 0 0-4.24-1.75v-7.65a8.67 8.67 0 0 0-8.66-8.65H180.9a8.67 8.67 0 0 0-8.67 8.65v7.65a50 50 0 0 0-4.23 1.76l-5.4-5.4a8.64 8.64 0 0 0-12.25 0L138.17 42.8a8.64 8.64 0 0 0-.01 12.25l5.4 5.42a51 51 0 0 0-2.03 5.04h-7.37a8.66 8.66 0 0 0-8.66 8.64v17.26a8.67 8.67 0 0 0 8.66 8.65h7.94q.66 1.74 1.46 3.44l-5.4 5.4a8.65 8.65 0 0 0 0 12.25l12.19 12.2a8.67 8.67 0 0 0 12.24 0l5.41-5.41q2.08.97 4.23 1.75v7.65a8.7 8.7 0 0 0 8.67 8.67h17.24a8.67 8.67 0 0 0 8.66-8.67v-7.65q2.17-.78 4.24-1.75l5.4 5.42a8.7 8.7 0 0 0 12.25 0l12.2-12.21a8.7 8.7 0 0 0 0-12.25l-5.4-5.4q.96-2.07 1.75-4.24h7.64a8.67 8.67 0 0 0 8.67-8.66V73.36a8.7 8.7 0 0 0-8.67-8.66m.67 25.9c0 .36-.3.66-.67.66h-10.54a4 4 0 0 0-3.84 2.87q-1.27 4.34-3.4 8.23a4 4 0 0 0 .68 4.75l7.45 7.44c.26.27.26.69 0 .95l-12.19 12.19a.67.67 0 0 1-.94.01l-7.45-7.46a4 4 0 0 0-4.74-.69 43 43 0 0 1-8.25 3.42 4 4 0 0 0-2.86 3.83v10.54c0 .37-.3.67-.66.67H180.9a.66.66 0 0 1-.67-.67V126.8a4 4 0 0 0-2.86-3.83 42 42 0 0 1-8.23-3.42 4 4 0 0 0-4.75.69l-7.46 7.46a.67.67 0 0 1-.93 0l-12.18-12.2a.66.66 0 0 1 0-.94l7.45-7.46a4 4 0 0 0 .68-4.75 41 41 0 0 1-3.17-7.47 4 4 0 0 0-3.83-2.82h-10.8a.67.67 0 0 1-.65-.65V74.15c0-.35.3-.64.66-.64h10.32a4 4 0 0 0 3.86-2.94 42 42 0 0 1 3.61-8.98 4 4 0 0 0-.68-4.73l-7.46-7.47a.64.64 0 0 1 0-.92l12.2-12.2a.64.64 0 0 1 .92.01l7.46 7.45a4 4 0 0 0 4.75.69 42 42 0 0 1 8.22-3.42 4 4 0 0 0 2.87-3.83V26.62c0-.36.3-.65.67-.65h17.24c.36 0 .66.3.66.65v10.54a4 4 0 0 0 2.87 3.84q4.33 1.29 8.23 3.41a4 4 0 0 0 4.75-.68l7.44-7.45a.66.66 0 0 1 .95 0l12.2 12.19c.25.26.24.68 0 .93l-7.47 7.45a4 4 0 0 0-.68 4.76 41 41 0 0 1 3.4 8.22 4 4 0 0 0 3.85 2.87h10.54c.37 0 .66.3.66.67z"/><path d="M189.52 61.36c-11.37 0-20.63 9.26-20.63 20.63s9.26 20.62 20.63 20.62 20.63-9.25 20.63-20.62-9.26-20.63-20.63-20.63m0 33.25c-6.96 0-12.63-5.66-12.63-12.62s5.67-12.63 12.63-12.63 12.63 5.67 12.63 12.63-5.67 12.62-12.63 12.62m35.72-21.26a4 4 0 1 0-7.92 1.12l.06.46a4 4 0 0 0 7.94-.94zm-7.25-15.48c-8-8.91-19.51-11.61-20-11.73a4 4 0 0 0-1.78 7.8c.1.02 9.57 2.3 15.83 9.27a4 4 0 1 0 5.95-5.34"/></svg>