<svg xmlns="http://www.w3.org/2000/svg" viewBox="0 0 256 256"><path fill="var(--color-navbar-icon-cyan-bright, #1be5f7)" d="M152.66 137.52a39.2 39.2 0 0 0 14.54-33.02 39.44 39.44 0 0 0-36.64-36.73 39.28 39.28 0 0 0-27.23 69.75A56.5 56.5 0 0 0 72.01 181a6.5 6.5 0 0 0 6.45 7.32h99.07a6.5 6.5 0 0 0 6.45-7.32 56.5 56.5 0 0 0-31.32-43.47"/><path fill="var(--color-navbar-icon-cyan-pale, #6bfcf6)" d="M122.82 137.52a56.5 56.5 0 0 0-31.79 50.8H78.47A6.5 6.5 0 0 1 72 181a56.5 56.5 0 0 1 31.32-43.48 39.2 39.2 0 0 1-14.39-34.67 39.36 39.36 0 0 1 33.98-34.83 40 40 0 0 1 14.83.9 39.27 39.27 0 0 0-14.93 68.6"/><path fill="var(--color-navbar-icon-gold, #e5e446)" d="M24.65 72.07a10 10 0 0 1-10-10v-38.3a10 10 0 0 1 10-10h38.3a10 10 0 0 1 0 20h-28.3v28.3a10 10 0 0 1-10 10m158.4-48.3a10 10 0 0 1 10-10h38.3a10 10 0 0 1 10 10v38.3a10 10 0 0 1-20 0v-28.3h-28.3a10 10 0 0 1-10-10m48.3 160.16a10 10 0 0 1 10 10v38.3a10 10 0 0 1-10 10h-38.3a10 10 0 0 1 0-20h28.3v-28.3a10 10 0 0 1 10-10m-158.4 48.3a10 10 0 0 1-10 10h-38.3a10 10 0 0 1-10-10v-38.3a10 10 0 0 1 20 0v28.3h28.3a10 10 0 0 1 10 10"/><path d="M187.95 180.48a60.2 60.2 0 0 0-28.5-43.8 43.26 43.26 0 0 0-28.63-72.9c-25.53-1.63-46.1 18.72-46.1 43.18a43 43 0 0 0 11.82 29.72 60.2 60.2 0 0 0-28.5 43.8 10.5 10.5 0 0 0 10.42 11.83h99.07a10.5 10.5 0 0 0 10.42-11.83m-10.42 3.83H78.46a2.5 2.5 0 0 1-2.48-2.8 52.3 52.3 0 0 1 29.1-40.4 4 4 0 0 0 .77-6.7 35.25 35.25 0 0 1 24.46-62.64 35.25 35.25 0 0 1 19.84 62.64 4 4 0 0 0 .76 6.7 52.3 52.3 0 0 1 29.1 40.4 2.5 2.5 0 0 1-2.48 2.8M24.65 76.07c7.72 0 14-6.28 14-14v-24.3h24.3c7.72 0 14-6.28 14-14s-6.28-14-14-14h-38.3c-7.72 0-14 6.28-14 14v38.3c0 7.72 6.28 14 14 14m-6-52.3a6 6 0 0 1 6-6h38.3a6 6 0 0 1 0 12h-28.3a4 4 0 0 0-4 4v28.3a6 6 0 0 1-12 0zm212.7-14h-38.3c-7.72 0-14 6.28-14 14s6.28 14 14 14h24.3v24.3c0 7.72 6.28 14 14 14s14-6.28 14-14v-38.3c0-7.72-6.28-14-14-14m6 52.3a6 6 0 0 1-12 0v-28.3a4 4 0 0 0-4-4h-28.3a6 6 0 0 1 0-12h38.3a6 6 0 0 1 6 6zm-6 117.86c-7.72 0-14 6.28-14 14v24.3h-24.3c-7.72 0-14 6.28-14 14s6.28 14 14 14h38.3c7.72 0 14-6.28 14-14v-38.3c0-7.72-6.28-14-14-14m6 52.3a6 6 0 0 1-6 6h-38.3a6 6 0 0 1 0-12h28.3a4 4 0 0 0 4-4v-28.3a6 6 0 0 1 12 0zm-174.4-14h-24.3v-24.3c0-7.72-6.28-14-14-14s-14 6.28-14 14v38.3c0 7.72 6.28 14 14 14h38.3c7.72 0 14-6.28 14-14s-6.28-14-14-14m0 20h-38.3a6 6 0 0 1-6-6v-38.3a6 6 0 0 1 12 0v28.3a4 4 0 0 0 4 4h28.3a6 6 0 0 1 0 12"/><path d="M132.25 166h-1a4 4 0 0 0 0 8h1a4 4 0 0 0 0-8m15 0a4 4 0 0 0 0 8h15a4 4 0 0 0 0-8z"/></svg>