<svg xmlns="http://www.w3.org/2000/svg" viewBox="0 0 256 256"><path fill="var(--color-navbar-icon-teal, #44c7b6)" d="M161.41 10.06a70.98 70.98 0 0 1 63.82 102.09c3.4 13.76 10.17 31.63 23.34 41.39 2.56 1.9 1.5 5.93-1.66 6.24-13.55 1.36-38.31 1.28-59.36-12.72a70.98 70.98 0 1 1-26.14-137"/><path fill="var(--color-navbar-icon-teal-dark, #3bb2a0)" d="M222.41 81.04a71 71 0 0 1-7.17 31.1c3.41 13.77 10.18 31.64 23.35 41.4 2.56 1.9 1.5 5.93-1.67 6.25q-2.78.28-6.14.44c6.2.28 11.75 0 16.12-.44 3.17-.32 4.23-4.36 1.67-6.25-13.17-9.76-19.94-27.63-23.35-41.4a70.98 70.98 0 0 0-68.8-101.9 70.97 70.97 0 0 1 65.99 70.8"/><path fill="var(--color-navbar-icon-teal-light, #4bdbc3)" d="M90.43 81.04a71 71 0 0 0 75.97 70.8 70.98 70.98 0 0 1 0-141.6 71 71 0 0 0-75.98 70.8"/><path fill="var(--color-navbar-icon-gold, #e5e446)" d="M94.59 95.66a70.98 70.98 0 0 0-63.82 102.09c-3.4 13.76-10.17 31.63-23.34 41.39-2.56 1.89-1.5 5.93 1.66 6.24 13.55 1.36 38.31 1.28 59.36-12.72a70.98 70.98 0 1 0 26.14-137"/><path fill="var(--color-navbar-icon-gold-tint, #f5f1ab)" d="M33.59 166.64a71 71 0 0 0 7.17 31.1c-3.41 13.77-10.18 31.63-23.35 41.4-2.56 1.9-1.5 5.93 1.67 6.24q2.79.3 6.14.45c-6.2.28-11.75 0-16.12-.45a3.46 3.46 0 0 1-1.67-6.24c13.17-9.77 19.94-27.63 23.35-41.4a70.98 70.98 0 0 1 68.8-101.9 70.97 70.97 0 0 0-65.99 70.8"/><path fill="var(--color-navbar-icon-gold-dark, #c7bd00)" d="M165.57 166.64a71 71 0 0 1-75.98 70.8 70.98 70.98 0 0 0 0-141.6 71 71 0 0 1 75.98 70.8"/><path d="M250.95 150.32c-11.87-8.8-18.21-25.11-21.49-37.75a74 74 0 0 0 6.93-31.53c0-41.34-33.63-74.98-74.98-74.98-45.85 0-80.93 40.99-74.17 85.96-37.91 3.7-67.63 35.75-67.63 74.62a74 74 0 0 0 6.93 31.52c-3.28 12.65-9.62 28.96-21.49 37.76-5.5 4.08-3.14 12.76 3.65 13.44 20.39 2.04 42.45-1.13 60.22-12.25 8.21 3 16.84 4.51 25.67 4.51 45.85 0 80.95-41 74.17-85.95q9.42-.92 18.32-4.16c17.73 11.1 39.76 14.3 60.22 12.25 6.8-.68 9.14-9.37 3.65-13.44m-156.36 83.3a67 67 0 0 1-24.66-4.68 4 4 0 0 0-3.69.39c-19.47 12.95-42.51 13.32-55.36 12.2 13.51-10.68 20.38-29.09 23.78-42.82.22-.92.12-1.88-.29-2.72a66 66 0 0 1-6.76-29.35 67.07 67.07 0 0 1 66.98-66.98c37.01 0 66.98 30.14 66.98 66.98a67.05 67.05 0 0 1-66.98 66.98m95.17-89.89a4 4 0 0 0-3.69-.39 67 67 0 0 1-18.9 4.44 75 75 0 0 0-20.99-35.5l6.45-23.97h17.66l6.64 24.65a4 4 0 1 0 7.73-2.08l-19.34-71.8c-1.05-3.93-6.66-3.93-7.72 0l-18.17 67.49a74.6 74.6 0 0 0-44.16-14.9c-6.5-40.92 25.18-77.61 66.14-77.61a67.06 67.06 0 0 1 66.98 66.98 66 66 0 0 1-6.76 29.35 4 4 0 0 0-.28 2.72c3.39 13.73 10.26 32.14 23.77 42.82-12.85 1.12-35.89.75-55.36-12.2m-34.97-63.42 6.67-24.8 6.68 24.8z"/><path d="M208.8 70.91a4 4 0 0 0 3.1-4.73 47.4 47.4 0 0 0-10.07-20.6 4 4 0 0 0-5.92 5.39c.06.06 6.04 6.78 8.16 16.85a4 4 0 0 0 4.73 3.09m.09 7.06a4 4 0 0 0-4.68 3.17 37 37 0 0 1-1.68 5.92A4 4 0 1 0 210 89.9q1.37-3.59 2.07-7.25a4 4 0 0 0-3.18-4.68m-92.84 115.07a18 18 0 0 0 1.72-7.62v-43.96c0-9.78-7.96-17.74-17.74-17.74h-11a17.76 17.76 0 0 0-17.73 17.74v43.96c0 9.78 7.96 17.74 17.74 17.74h10.99c4.15 0 7.98-1.43 11-3.83l2.66 2.66a4 4 0 1 0 5.65-5.66zm-16.02 2.12h-11a9.75 9.75 0 0 1-9.73-9.74v-43.96a9.75 9.75 0 0 1 9.74-9.74h10.99a9.75 9.75 0 0 1 9.74 9.74c-.03 46.4.07 43.97-.08 45.22l-1.34-1.34a4 4 0 1 0-5.65 5.66l2.6 2.6s-2.12 1.56-5.27 1.56"/></svg>