<svg xmlns="http://www.w3.org/2000/svg" viewBox="0 0 66 66"><path fill="var(--color-navbar-icon-sun, #ffd880)" d="M7.6 27.1c-2.9 7-2.6 15.3.8 22 2.6 5.2 7.1 9.5 12.3 12.1 6.5 3.2 14.2 3.7 21 1.4s12.7-7.3 16-13.6c2.3-4.3 3.3-9.5 2-14.2s-5.5-8.7-10.4-9c-2.5-.1-5 .7-7.5.6s-5.3-1.4-5.7-3.9c-.3-2.3 1.7-4.4 1.9-6.8.3-3.2-3-5.9-6.2-6.1-4.8-.4-10.5 3-14.4 5.5a27.5 27.5 0 0 0-9.8 12"/><path fill="var(--color-navbar-icon-sun-shadow, #fecb4d)" d="M45.7 60.9c-1.3.7-2.6 1.2-4 1.7-6.8 2.3-14.5 1.7-21-1.4A28 28 0 0 1 8.3 49.1c-3.4-6.8-3.7-15-.8-22 2-4.9 5.6-9.1 10.1-12 3.9-2.5 9.6-5.9 14.4-5.5.2 0 .4 0 .6.1-1.4.8-2.8 1.6-4 2.4-4.5 2.9-8.1 7.1-10.1 12-2.9 7-2.6 15.3.8 22 2.7 5.2 7.1 9.5 12.4 12.1 4.4 2.1 9.2 3 14 2.7"/><circle cx="15.7" cy="37" r="4.1" fill="var(--color-navbar-icon-pink, #ff5892)"/><circle cx="15.7" cy="37" r="2.1" fill="var(--color-navbar-icon-pink-deep, #f93580)"/><circle cx="20.2" cy="48.7" r="4.1" fill="var(--color-navbar-icon-purple, #cc87fe)"/><circle cx="20.6" cy="48.8" r="2.1" fill="var(--color-navbar-icon-purple-deep, #b45fff)"/><circle cx="32.4" cy="54.2" r="4.1" fill="var(--color-navbar-icon-blue, #02beff)"/><circle cx="32.4" cy="54.2" r="2.1" fill="var(--color-navbar-icon-blue-deep, #00addb)"/><circle cx="44.2" cy="50.6" r="4.1" fill="var(--color-navbar-icon-green, #1de9b6)"/><circle cx="44.2" cy="50.6" r="2.1" fill="var(--color-navbar-icon-green-deep, #12d69e)"/><circle cx="50.1" cy="39.3" r="4.1" fill="var(--color-navbar-icon-blue-pale, #b0cdf7)"/><circle cx="50.1" cy="39.3" r="2.1" fill="var(--color-navbar-icon-blue-pale-light, #c7d9f9)"/><g fill="none" stroke="#000" stroke-linecap="round" stroke-linejoin="round" stroke-miterlimit="10" stroke-width="2"><path d="M51.9 26.3c3.8 1.2 6.8 4.6 8 8.5 1.3 4.7.3 9.8-2 14.2a27.9 27.9 0 0 1-37 12.2A28 28 0 0 1 8.5 49.1c-3.4-6.8-3.7-15-.8-22 2-4.9 5.6-9.1 10.1-12 3.9-2.5 9.6-5.9 14.4-5.5 2.9.2 5.8 2.4 6.2 5.1"/><circle cx="15.7" cy="37" r="4.1"/><path d="M24.7 48.8a3.93 3.93 0 0 1-4 4c-2.3 0-4.1-1.8-4.1-4.1s1.8-4.1 4.1-4.1a4 4 0 0 1 3 1.3c.6.8 1 1.8 1 2.9"/><circle cx="32.4" cy="54.2" r="4.1"/><circle cx="44.2" cy="50.6" r="4.1"/><circle cx="50.1" cy="39.3" r="4.1"/></g><path fill="var(--color-navbar-icon-blue-pale-lighter, #e3ecff)" d="M36.7 23C38.4 20.6 55.2.4 57.6 2.1S47.2 26.9 45.4 29.3c-1.7 2.4-5.1 3-7.5 1.2a5.4 5.4 0 0 1-1.2-7.5"/><path fill="var(--color-navbar-icon-blue-pale-light, #c7d9f9)" d="M57.6 2.1C60 3.8 47.2 26.9 45.4 29.3c-1.7 2.4-5.1 3-7.5 1.2a5.3 5.3 0 0 1-2.1-5.7c.3.5.8 1 1.4 1.4a5.4 5.4 0 0 0 7.5-1.2c1.3-1.8 8-14.5 11.3-22.5.7-.4 1.3-.6 1.6-.4"/><path fill="var(--color-navbar-icon-pink-light, #ff7daf)" d="M32 31.8a4 4 0 1 1 6.5 4.7C37.3 38.3 28.2 44 28.2 44s2.5-10.4 3.8-12.2"/><path fill="var(--color-navbar-icon-pink, #ff5892)" d="M37.6 30.9c1.8 1.3 2.2 3.8.9 5.6s-10.3 7.4-10.3 7.4l.5-2.2c2.5-1.7 5.4-3.7 6.1-4.7a4 4 0 0 0-.9-5.6c-.3-.2-.7-.4-1.1-.6 1.4-.9 3.4-1 4.8.1"/><path fill="none" stroke="#000" stroke-linecap="round" stroke-linejoin="round" stroke-miterlimit="10" stroke-width="2" d="M32 31.8a4 4 0 1 1 6.5 4.7C37.3 38.3 28.2 44 28.2 44s2.5-10.4 3.8-12.2m3.6-5.2c-.1-1.2.2-2.5 1-3.6 1.7-2.4 18.6-22.5 21-20.8C60 4 47.1 26.9 45.3 29.3c-.8 1.1-1.9 1.8-3.1 2.1"/></svg>