<svg xmlns="http://www.w3.org/2000/svg" id="uuid-c539bdde-cca1-45a2-bb9c-ad2a5df1620a" data-name="&amp;lt;Layer&amp;gt;" viewBox="0 0 1942.6 1567.3"><defs><style>.uuid-b229c7d7-51d1-4b1c-a3a4-36b082fdc6af, .uuid-9f47fd85-2bf7-4942-915b-2b59835d39cb, .uuid-6a6e9140-7a43-43a6-884e-9c322c6d153b, .uuid-e776f3c6-4a81-4de0-bd23-17c1d08a97d5, .uuid-58a78987-7f3b-46e4-ac5a-07fb6a2701bb, .uuid-da6aeeac-4568-47f8-a6c3-09dbf9ef4865, .uuid-a92472fa-2db5-4420-af83-c0364d532bbe, .uuid-48898d97-cd08-46b5-b8a4-024e348c84a4, .uuid-6863423b-c4a8-470d-aceb-5f8a7350e763, .uuid-6dc4e760-95e2-4d8a-8a82-ca8c5b558cb9, .uuid-45d4b0b5-dbda-49cf-9c50-57086f22589d, .uuid-e4679e9b-a698-4c8c-8ab4-0ae3fc35907f, .uuid-1aa5a078-e539-4d83-bcc5-fd1bb3b78f87, .uuid-40d124c7-e854-40f3-aabc-271cf480bfd0, .uuid-2f151a57-3c07-4a26-927d-449247b2a586 {
        stroke-width: 0px;
      }

      .uuid-b229c7d7-51d1-4b1c-a3a4-36b082fdc6af, .uuid-1aa5a078-e539-4d83-bcc5-fd1bb3b78f87 {
        fill: var(--color-character-man-hair, #393127);
      }

      .uuid-9f47fd85-2bf7-4942-915b-2b59835d39cb, .uuid-e776f3c6-4a81-4de0-bd23-17c1d08a97d5, .uuid-45d4b0b5-dbda-49cf-9c50-57086f22589d, .uuid-1aa5a078-e539-4d83-bcc5-fd1bb3b78f87 {
        fill-rule: evenodd;
      }

      .uuid-e776f3c6-4a81-4de0-bd23-17c1d08a97d5 {
        fill: #f26944;
      }

      .uuid-58a78987-7f3b-46e4-ac5a-07fb6a2701bb {
        fill: #536b77;
      }

      .uuid-da6aeeac-4568-47f8-a6c3-09dbf9ef4865 {
        fill: var(--color-character-clothing-2, #76bdb1);
      }

      .uuid-a92472fa-2db5-4420-af83-c0364d532bbe {
        fill: #3f5660;
      }

      .uuid-48898d97-cd08-46b5-b8a4-024e348c84a4, .uuid-45d4b0b5-dbda-49cf-9c50-57086f22589d {
        fill: #fff;
      }

      .uuid-6863423b-c4a8-470d-aceb-5f8a7350e763 {
        fill: #d69a87;
      }

      .uuid-6dc4e760-95e2-4d8a-8a82-ca8c5b558cb9 {
        fill: #e3d6d0;
      }

      .uuid-e4679e9b-a698-4c8c-8ab4-0ae3fc35907f {
        fill: #2d444c;
      }

      .uuid-40d124c7-e854-40f3-aabc-271cf480bfd0 {
        fill: var(--color-character-man-skin, #ffddc0);
      }

      .uuid-2f151a57-3c07-4a26-927d-449247b2a586 {
        fill: #3e5660;
      }</style></defs><path d="m247.45 1368.84 25.18 37.3 23.42 3.7zm128.88-110 .57-.8-19.16 5.8z" class="uuid-48898d97-cd08-46b5-b8a4-024e348c84a4"/><path d="M447.13 1307.54a1.1 1.1 0 0 0-.64-1.31l-5.88-2.44a1.1 1.1 0 0 0-1.53 1.02l-2.65-7.98-11.45-18.18-21.81-14.46 4.98-16.26-15.53-12.59-15.72 22.65 1.12-.34-20.27 6.14 2.83 31.73-10.13 4.03-13.35 14.61 2.82 5.39-38.58-39.14-17.69 13.54c-4.33 1.93-10.57 4.96-13.53 7.61-4.78 4.28 8.56 21.4 9.32 29.46s-31.98 37.77-31.98 37.77l25.43 15.86 23.17 25.18 29.96 1.01-2.77-12.59-10.83-3.02-.66-10.28 46.99 16.58 20.9-1.26 64.21-22.66 19.89-20.65 12.09-25.93z" class="uuid-48898d97-cd08-46b5-b8a4-024e348c84a4"/><path d="M274.03 1344.34a3.05 3.05 0 0 1-3.02-2.67l-4.83-38.11a3.05 3.05 0 0 1 6.05-.77l4.83 38.11a3.05 3.05 0 0 1-2.64 3.41q-.2.03-.39.02zm22.02 68.6q-.24 0-.49-.04l-23.42-3.78a3 3 0 0 1-2.04-1.3l-25.18-37.27a3.04 3.04 0 1 1 5.06-3.41l24.44 36.17 22.12 3.56a3.05 3.05 0 0 1-.48 6.06zm62.7-8.3a3.06 3.06 0 0 1-3-2.49l-7.3-38.9a3.03 3.03 0 0 1 2.44-3.56l7.11-1.3 38.63-19.77q.3-.15.62-.24l18.5-4.85 21.81-12.39a3.05 3.05 0 0 1 4.25 3.98l-22.66 46.83q-.37.76-1.08 1.23l-11.4 7.43-25.02 22.02c-.51.45-1.15.71-1.83.75l-20.9 1.26zm-3.74-39.5 6.24 33.25 17.17-1.03 24.39-21.47.35-.27 10.87-7.09 18.02-37.25-13.64 7.75a3 3 0 0 1-.73.3l-18.56 4.86-38.73 19.83q-.4.2-.84.28l-4.54.83zm-17.92-47.9a3.06 3.06 0 0 1-2.26-5.11l13.35-14.61q.48-.51 1.13-.78l20.9-8.31a3.05 3.05 0 0 1 2.25 5.67l-20.25 8.05-12.87 14.09c-.6.66-1.42.99-2.25.99z" class="uuid-6a6e9140-7a43-43a6-884e-9c322c6d153b"/><path d="m326.01 1413.94-30.07-1.01a3 3 0 0 1-2.14-.98l-22.89-24.88-25.08-15.64a3.04 3.04 0 0 1-.43-4.84c15.11-13.72 31.17-31.15 30.99-35.23-.25-2.71-2.67-7.54-4.81-11.8-4.15-8.29-8.08-16.12-3.5-20.21 4.66-4.18 15.77-8.81 18.54-9.93l12.7-11.23a3.05 3.05 0 0 1 4.19.14l41.14 41.74 17.21-21.73q-.47.22-1.02.28a3.04 3.04 0 0 1-3.31-2.77l-2.83-31.73a3.03 3.03 0 0 1 3.04-3.32h44.82c.6 0 1.19.18 1.69.51l22.41 14.86q.54.36.89.91l12.84 20.39c.57.91.62 2.05.14 3l-11.08 21.91a3.06 3.06 0 0 1-5.07.58l-14.65-17.63-20.19-15.96-16.44 4.6-25.82 32.59a3.06 3.06 0 0 1-4.56.24l-41.53-42.13-10.93 9.67q-.4.36-.9.55c-3.57 1.42-13.63 5.8-17.22 9.01-.78 1.62 2.91 8.98 4.89 12.93 2.61 5.2 5.07 10.11 5.43 13.97.74 7.88-18.83 27.24-30 37.59l22.03 13.74q.35.22.63.52l22.3 24.24 24.76.83-1.53-6.96-9.06-2.53a3.1 3.1 0 0 1-2.23-2.74l-2.01-31.47a3.06 3.06 0 0 1 2.08-3.09l27.95-9.32a3 3 0 0 1 2.58.31l13.09 8.18a3.05 3.05 0 1 1-3.23 5.17l-11.88-7.42-24.36 8.12 1.73 26.97 8.74 2.44a3 3 0 0 1 2.16 2.28l2.77 12.59a3.04 3.04 0 0 1-2.97 3.71zm64.21-130.99c.68 0 1.35.23 1.89.66l21.65 17.12q.26.2.45.44l11.89 14.3 8.2-16.22-11.57-18.38-21.1-13.99h-40.57l2.53 28.41q.03.46-.05.9l5.39-6.8c.4-.5.95-.87 1.57-1.04l18.89-5.29q.41-.11.82-.11z" class="uuid-6a6e9140-7a43-43a6-884e-9c322c6d153b"/><path d="M296.05 1411.14a3.05 3.05 0 0 1-2.98-2.41l-16.62-77.05a3.06 3.06 0 0 1 5.97-1.29l16.62 77.05a3.06 3.06 0 0 1-2.99 3.7m48.85-83.4-45.64-.88a3 3 0 0 1-1.76-.6l-27.7-20.57a3.05 3.05 0 1 1 3.64-4.9l26.92 19.99 33.66.65-20.46-12.92q-.67-.43-1.05-1.12l-13.85-25.43a3.05 3.05 0 1 1 5.36-2.92l13.47 24.74 29.04 18.34a3.05 3.05 0 0 1-1.63 5.63zm51.12 16.6a3 3 0 0 1-2.74-1.7l-24.68-50.02a3.05 3.05 0 0 1 5.47-2.7l24.68 50.02a3.05 3.05 0 0 1-2.74 4.4zm-38.28-77.5a3.05 3.05 0 0 1-.88-5.97l18.14-5.49 15.11-21.78a3.04 3.04 0 0 1 4.43-.63l15.53 12.59a3.06 3.06 0 0 1-.98 5.27l-30.28 9.77a3.1 3.1 0 0 1-3.52 1.07l-16.65 5.04q-.44.13-.88.13zm35.51-27.07-8.72 12.57 17.32-5.59z" class="uuid-6a6e9140-7a43-43a6-884e-9c322c6d153b"/><path d="M403.96 1267.84q-.36 0-.74-.09a3.04 3.04 0 0 1-2.22-3.7l4.18-16.79a3.04 3.04 0 1 1 5.92 1.48l-4.18 16.79a3.05 3.05 0 0 1-2.96 2.31m9.11 72.6a3.05 3.05 0 0 1-2.34-5l13.66-16.36a3.05 3.05 0 1 1 4.69 3.91l-13.66 16.36c-.6.72-1.47 1.1-2.34 1.1z" class="uuid-6a6e9140-7a43-43a6-884e-9c322c6d153b"/><path d="M379.65 1403.34a3.05 3.05 0 0 1-1.02-5.92l63.53-22.42 17.81-18.49-8.26-14.57-12.09-12.83a3 3 0 0 1-.82-2.33 3.05 3.05 0 0 1-2.78-3.04v-18.91a4.15 4.15 0 0 1 5.75-3.84l5.87 2.44a4.2 4.2 0 0 1 2.42 4.93l-4.84 17.81 11.17 11.85q.25.27.43.59l9.57 16.87a3.04 3.04 0 0 1-.46 3.62l-19.89 20.65q-.5.51-1.18.76l-64.21 22.66q-.51.17-1.02.17zm62.48-95.6v6.61l1.61-5.94z" class="uuid-6a6e9140-7a43-43a6-884e-9c322c6d153b"/><path d="M430.17 1317.24a3.05 3.05 0 0 1-2.32-5.03l8.9-10.45a3.05 3.05 0 1 1 4.64 3.95l-8.9 10.46a3 3 0 0 1-2.32 1.07m33.58 42.8q-.65 0-1.29-.29a3.05 3.05 0 0 1-1.48-4.05l11.09-23.78-26.87-21.98a3.05 3.05 0 0 1 3.86-4.72l28.71 23.49a3.05 3.05 0 0 1 .83 3.65l-12.09 25.93a3 3 0 0 1-2.77 1.76zm-105 44.6a3 3 0 0 1-1.01-.17l-46.99-16.58a3.05 3.05 0 1 1 2.03-5.75l40.4 14.25-17.62-40.67a3.05 3.05 0 1 1 5.6-2.42l20.4 47.08a3.04 3.04 0 0 1-2.8 4.26z" class="uuid-6a6e9140-7a43-43a6-884e-9c322c6d153b"/><path d="M1328.98 800.74c-35.35-229.26-5.41-227.99-211.96-295.95l-6.75-2.22C982.5 657.71 972.89 659.36 847.1 500.56a522 522 0 0 1-34.7 12.77c-48.68 16.38-102.94 31.13-132.7 63.88-16.81 19.4-24.57 64.65-29.74 102.79-1.17 14.65-31.49 175.54-32.17 207.59h717.62s0-32.85-6.43-86.86z" class="uuid-da6aeeac-4568-47f8-a6c3-09dbf9ef4865"/><path d="M1059.58 473.93c-12.93-11.64-9.42-53.77-9.42-53.77s9.7-10.34 18.75-27.8 12.28-42.02 12.28-42.02 14.87-1.29 27.15-19.39c11.64-16.81.65-39.44.65-39.44s-6.46-3.23-12.93-5.17c-4.52-1.04-9.38-1.92-13.74-3.39-3.76-1.27-7.14-2.97-9.53-5.66-9.7-10.34-10.34-14.87-14.87-23.27-8.41-15.52-13.58-38.79-18.1-53.01-7.76-23.27-29.09-18.75-42.02-20.69-26.51-3.23-48.49-3.88-59.48 22.63-3.23 9.05-16.16 37.5-29.74 53.01-11.64 12.93-10.99 15.52-21.33 23.27-9.7 8.41-23.27 5.17-31.03 9.05l-.24.13c-5.66 2.74-8.81 12.17-8.81 12.8-4.52 10.99 1.94 25.86 1.94 25.86l14.22 17.45 16.16 7.76s4.53 23.27 12.28 40.73c7.76 17.46 19.39 28.45 19.39 28.45s-1.97 49.08-17.49 56.84c-20.04 10.34-25.58 13.26-52.09 22.96-8.48 3.27-5.39 3.87 5.53-.69 125.8 158.79 135.4 157.15 263.17 2.01l6.75 2.22c-23.96-9.36-42.57-17.88-57.47-30.86z" class="uuid-40d124c7-e854-40f3-aabc-271cf480bfd0"/><path d="M887.18 279.23c10.34-7.76 9.7-10.34 21.33-23.27 13.58-15.52 26.51-43.96 29.74-53.01 10.99-26.51 32.97-25.86 59.48-22.63 12.93 1.94 34.26-2.59 42.02 20.69 4.53 14.22 9.7 37.5 18.1 53.01 4.52 8.41 5.17 12.93 14.87 23.27 2.39 2.69 5.78 4.4 9.53 5.66l20.85-.49c5.47-9.31 2.95-28.96 11.1-35.72 2.22-.77 4.66-.33 7.01-.26 5.97 3.1 28.73-14.3 18.34-15.41-16.94 4.14-29.35-14.79-33.58-28.04 7.18.15 20.33-10.63 20.33-10.63-13.85-14.03-21.4-41.46-31.61-59.29-20.69-36.2-32.32-18.75-60.77-32.32-58.77-42.81-101.1-11.44-149.98 19.39-9.7 6.47-34.3-1.2-32.53 6.47 2.63 11.37 13.14 16.16 13.14 16.16-14.36 27.51-27.68 61.72-55.65 77.88 15.15.04 31.7-.4 43.25-10.2-20.49 13.97-24.22 75.38 3.75 77.9l.24-.13c7.76-3.88 21.33-.65 31.03-9.05z" class="uuid-b229c7d7-51d1-4b1c-a3a4-36b082fdc6af"/><path d="M1052.78 364.94c-12.96 9.14-25.2 19.36-38.94 27.28s-29.41 13.51-45.22 12.25c-14.44-1.15-27.89-7.89-39.84-16.07s-22.83-17.87-34.82-25.99c-2.45-1.66-5.64-3.29-8.2-1.8-3.47 2.01-2.22 7.26-.52 10.89l9.11 19.55c4.62 9.92 9.32 19.95 16.31 28.38 6.79 8.19 15.49 14.55 24.11 20.79C946 448.36 958 456.75 971.81 458c14.42 1.31 28.23-5.38 41.17-11.88 7.57-3.81 15.21-7.65 21.86-12.9 4.61-3.63 8.69-7.88 12.58-12.28 11.19-12.67 21-27.02 26.57-43.09 1.85-5.33 5.15-14.69-.32-19.2-6.13-5.05-15.84 2.73-20.89 6.29" class="uuid-1aa5a078-e539-4d83-bcc5-fd1bb3b78f87"/><path d="M979.68 459.42c-1.03-.03-23.37-.94-55.43-23.84-22.47-15.67-29.69-32.14-33.99-41.99-6.56-13.66-11.98-32.18-17.01-58.18a3.05 3.05 0 1 1 5.99-1.15c4.93 25.48 10.19 43.52 16.56 56.8 4.1 9.35 10.87 24.84 31.97 39.55 30.42 21.73 51.8 22.72 52.01 22.73 1.68.06 3 1.47 2.95 3.15a3.04 3.04 0 0 1-3.04 2.95z" class="uuid-6a6e9140-7a43-43a6-884e-9c322c6d153b"/><path d="M980.28 459.42a3.05 3.05 0 0 1-.01-6.1c.32 0 18.51-.49 48.7-21.44 21.69-15.12 31.33-32.01 35.15-40.74 6.41-13.36 11.68-31.41 16.61-56.89a3.05 3.05 0 1 1 5.98 1.15c-5.04 26.02-10.46 44.53-17.05 58.28-4.03 9.22-14.29 27.23-37.21 43.21-32.1 22.27-51.36 22.53-52.17 22.53m-103.4-106.67q-.2 0-.41-.03c-10.13-1.35-27.27-11.33-32.94-33.29-3.19-12.35-.55-24.42 6.88-31.49 6.15-5.85 14.72-7.46 24.13-4.51a3.05 3.05 0 1 1-1.82 5.82c-7.3-2.28-13.57-1.21-18.11 3.11-5.74 5.46-7.78 15.48-5.18 25.54 4.88 18.91 19.66 27.68 27.84 28.77a3.05 3.05 0 0 1-.4 6.08z" class="uuid-6a6e9140-7a43-43a6-884e-9c322c6d153b"/><path d="M869.08 322.36c-.99 0-1.95-.48-2.54-1.36a279 279 0 0 0-5.72-8.27 3.05 3.05 0 1 1 4.88-3.66c1.97 2.62 5.75 8.3 5.92 8.54a3.05 3.05 0 0 1-2.54 4.74zm214 30.39a3.05 3.05 0 0 1-.4-6.08c8.17-1.09 22.96-9.86 27.84-28.77 2.59-10.06.56-20.08-5.18-25.54-4.54-4.32-10.8-5.39-18.11-3.11a3.05 3.05 0 1 1-1.82-5.82c9.41-2.94 17.98-1.34 24.13 4.51 7.43 7.07 10.07 19.13 6.89 31.49-5.67 21.96-22.8 31.94-32.94 33.29z" class="uuid-6a6e9140-7a43-43a6-884e-9c322c6d153b"/><path d="M1090.18 322.36a3.06 3.06 0 0 1-2.54-4.74c.16-.24 3.95-5.92 5.91-8.54a3.05 3.05 0 1 1 4.88 3.66 279 279 0 0 0-5.72 8.27 3 3 0 0 1-2.54 1.36zm-108.6 32.97a3.05 3.05 0 0 1-2.31-5.04c4.07-4.7 6.05-8.24 5.88-10.52-.13-1.76-1.72-3.19-4.29-5.38-3.26-2.78-7.31-6.23-8.73-12.46-4.12-15.65 6.89-37.95 7.36-38.89a3.04 3.04 0 0 1 4.09-1.36 3.04 3.04 0 0 1 1.36 4.09c-2.92 5.84-9.85 23.46-6.89 34.71.99 4.35 3.79 6.74 6.76 9.27 2.99 2.55 6.08 5.18 6.41 9.56.31 4.13-1.95 8.74-7.35 14.97-.6.7-1.45 1.05-2.31 1.05zm-30.8-91.15c-5.65 0-10.44-2.31-15.08-4.54-5.85-2.82-11.9-5.72-20.57-4.77a3.05 3.05 0 0 1-.68-6.06c10.43-1.15 17.58 2.29 23.9 5.33 4.39 2.11 8.18 3.94 12.43 3.94a3.06 3.06 0 0 1 0 6.1m59.9-4.39a3.05 3.05 0 1 1 0-6.1c4.26 0 8.04-1.83 12.43-3.94 6.32-3.05 13.46-6.5 23.9-5.33a3.04 3.04 0 1 1-.67 6.06c-8.69-.96-14.73 1.95-20.58 4.77-4.64 2.23-9.43 4.54-15.08 4.54" class="uuid-6a6e9140-7a43-43a6-884e-9c322c6d153b"/><path d="M909.18 421.46s38.14 33.62 71.76 34.26c25.86.65 62.71-31.03 62.71-31.03s-37.5 47.19-71.76 53.01c-29.74 5.17-60.77-25.21-60.77-25.21z" class="uuid-9f47fd85-2bf7-4942-915b-2b59835d39cb"/><path d="M1125.78 194.36c-.72 0-1.44-.25-2.02-.76-6.51-5.74-9.02-12.17-12.49-21.06-2.83-7.23-6.34-16.23-13.33-28.17-14.35-25.58-33.59-37.13-55.7-33.44a3.05 3.05 0 1 1-1-6.02c24.52-4.09 46.52 8.85 61.99 36.43 7.2 12.31 10.82 21.55 13.72 28.99 3.28 8.39 5.45 13.94 10.85 18.71a3.05 3.05 0 0 1-2.02 5.34zm-23.3 92.45a3.05 3.05 0 0 1-2.87-4.08c.05-.13 4.83-13.44 8.46-29.69a3.05 3.05 0 0 1 5.95 1.33 274 274 0 0 1-8.67 30.43 3.05 3.05 0 0 1-2.87 2.01m-249-159.51q-1.42 0-2.35-.09a3.05 3.05 0 1 1 .61-6.07c5.8.57 31.12-1.96 44.66-11.81 54.94-41.4 101.97-44.97 128.99-9.73a3.06 3.06 0 0 1-4.85 3.72c-35.04-45.7-95.95-7.58-120.51 10.93-13.7 9.96-37.36 13.07-46.55 13.07zm229.7 146.77c-25.36 0-32.84-26.33-39.49-49.7-6.51-22.9-12.14-42.65-30.83-41.02a3.05 3.05 0 1 1-.54-6.08c23.7-2.1 30.59 22.06 37.23 45.43 6.95 24.43 13.52 47.47 37.07 45.08a3.04 3.04 0 0 1 3.34 2.72 3.06 3.06 0 0 1-2.73 3.35q-2.1.21-4.07.21zm-208.6-2.04q-1.8 0-3.66-.1a3.05 3.05 0 0 1 .33-6.09c35.95 2 48.72-28.81 59.97-55.97 6.82-16.47 12.71-30.69 23.22-34.12 5.17-1.69 10.77-.62 17.14 3.26a3.05 3.05 0 0 1-3.17 5.21c-4.75-2.9-8.7-3.78-12.07-2.67-7.84 2.56-13.23 15.58-19.48 30.66-11.07 26.74-24.78 59.83-62.28 59.83zm135.4-110-.45-.03a3.04 3.04 0 0 1-2.57-3.46c.14-.94 3.5-23.1 14.44-34.04a3.05 3.05 0 0 1 4.31 4.31c-9.5 9.5-12.69 30.4-12.72 30.61a3.04 3.04 0 0 1-3.01 2.6zm-20 23.28h-.16a3.06 3.06 0 0 1-2.89-3.21c.29-5.4-2.32-11.39-6.8-15.64-3.9-3.7-8.66-5.55-13.1-5.08a3.04 3.04 0 1 1-.64-6.06c6.21-.65 12.75 1.8 17.94 6.73 5.83 5.53 9.08 13.15 8.7 20.39a3.05 3.05 0 0 1-3.04 2.89z" class="uuid-6a6e9140-7a43-43a6-884e-9c322c6d153b"/><path d="M927.48 296.79a38 38 0 0 1-7.82-.69q-.15.91-.16 1.87c0 6.46 4.53 11.64 9.7 11.64s9.7-5.17 9.7-11.64q-.01-1.33-.26-2.57c-3.67.84-7.47 1.58-11.15 1.38zm108.2.05a59 59 0 0 1-15.89 2.43c-1.08 0-1.72-.94-1.63-1.89h-.3c-.04.42-.11.82-.11 1.25 0 6.46 3.88 11.64 9.69 11.64 5.17 0 9.7-5.17 9.7-11.64q0-1.11-.19-2.16c-.43.12-.85.28-1.28.38z" class="uuid-9f47fd85-2bf7-4942-915b-2b59835d39cb"/><path d="M811.08 223.44a3.05 3.05 0 0 1-1.25-5.84c9.23-4.11 15.61-13.09 21.79-21.76 1.9-2.67 4.51-7.65 7.28-12.92 8.57-16.36 15.74-29.09 23.31-31.92a3.05 3.05 0 1 1 2.13 5.71c-5.99 2.23-14.45 18.36-20.04 29.03-2.99 5.7-5.57 10.62-7.66 13.56-6.39 8.98-13.58 19.07-24.32 23.86q-.61.27-1.24.27zm36.7 69.86a3 3 0 0 1-2.62-1.49c-14.67-24.68-13.05-60.83 3.79-84.09a3.05 3.05 0 0 1 4.94 3.58c-15.24 21.06-16.77 55.05-3.49 77.39a3.05 3.05 0 0 1-2.62 4.61m272.4-44.65c-6.6 0-13.15-2.51-19.54-7.51a3.05 3.05 0 0 1 3.76-4.81c6.5 5.08 13.06 7.05 19.48 5.87 5.58-1.03 10.24-4.29 13.47-7.75-7-.71-13.87-2.37-19.45-6.77-8.05-6.34-11.22-17-13.54-24.78a3.05 3.05 0 0 1 5.84-1.74c2.7 9.07 5.43 16.97 11.47 21.73 5.75 4.53 13.8 5.5 21.65 5.87 1.07.05 2.04.66 2.54 1.61.51.95.48 2.09-.08 3.01-3.43 5.69-10.93 12.99-20.8 14.81q-2.4.44-4.81.44zm-138.9 143.17h-.21c-20.66-1.41-37.37-8.97-44.7-20.23a3.05 3.05 0 0 1 5.11-3.33c7.4 11.38 25.51 16.49 40 17.47a3.05 3.05 0 0 1-.2 6.09m74.2-36.49h-50.91c-4.65 0-8.62-3.11-9.23-7.23l-4.32-29.31a3.05 3.05 0 0 1 3.02-3.5h71.94a3.07 3.07 0 0 1 3.03 3.39l-3.13 28.29c-.53 4.77-5 8.37-10.4 8.37zm-57.92-33.94 3.81 25.82c.16 1.12 1.6 2.02 3.2 2.02h50.91c2.21 0 4.16-1.32 4.33-2.94l2.75-24.9zm-45.38 33.94h-50.91c-5.4 0-9.87-3.6-10.4-8.37l-3.13-28.29a3.05 3.05 0 0 1 3.03-3.39h71.94a3.06 3.06 0 0 1 3.02 3.5l-4.32 29.31c-.61 4.12-4.57 7.23-9.23 7.23zm-58-33.94 2.75 24.9c.18 1.62 2.12 2.94 4.33 2.94h50.91c1.6 0 3.03-.91 3.2-2.02l3.81-25.82z" class="uuid-6a6e9140-7a43-43a6-884e-9c322c6d153b"/><path d="M890.78 321.39a3 3 0 0 1-2.65-1.54l-21.69-37.98a3.06 3.06 0 0 1 5.3-3.03l21.69 37.98a3.04 3.04 0 0 1-2.65 4.56zm175.2 0q-.75 0-1.46-.37a3.05 3.05 0 0 1-1.21-4.14l18.94-34.58a3.06 3.06 0 0 1 5.35 2.93l-18.94 34.58a3 3 0 0 1-2.68 1.58m-72 11.06q-.97 0-1.81-.59a24.7 24.7 0 0 0-25.76-2.21l-2.33 1.17a3.05 3.05 0 0 1-2.73-5.45l2.33-1.17a30.7 30.7 0 0 1 32.1 2.76 3.04 3.04 0 0 1-1.81 5.5zm32.8-29.67c-4.86 0-9.73-1.1-14.13-3.3a3.05 3.05 0 0 1 2.73-5.45 26.1 26.1 0 0 0 24.1-.68 3.04 3.04 0 0 1 4.16 1.13 3.04 3.04 0 0 1-1.13 4.16 31.7 31.7 0 0 1-15.75 4.15zm-98.3-1.86c-4.86 0-9.73-1.1-14.13-3.3a3.05 3.05 0 0 1 2.73-5.45 26.1 26.1 0 0 0 24.11-.68 3.04 3.04 0 1 1 3.03 5.29 31.7 31.7 0 0 1-15.75 4.15z" class="uuid-6a6e9140-7a43-43a6-884e-9c322c6d153b"/><path d="m947.88 381.17-20.7 12.45h-25.86c-1.55 0-3.05.56-4.2 1.57l-7.53 3.23a3.2 3.2 0 0 1-3.67.36l-15.35-5.38a2 2 0 0 0-2.95 1.2l-1.4 5.53c-.2.8.14 1.64.87 2.08l18.85 8.2c1.16.72 2.68.6 3.71-.27l12.49-7.18a6.4 6.4 0 0 1 4.11-1.49h25.23l26.59-16.44z" class="uuid-45d4b0b5-dbda-49cf-9c50-57086f22589d"/><path d="M878.78 397.24a16 16 0 0 1-1.82 7.27c-.25.48-.61 1-1.15 1.04-.3.02-.59-.12-.87-.25l-4.53-2.28c-1.04-.52-2.13-1.09-2.72-2.09-.9-1.52-.33-3.46.25-5.13.15-.44.31-.89.61-1.26.86-1.06 2.51-1 3.83-.63 2.18.6 4.2 1.75 5.82 3.32l.57.02z" class="uuid-e776f3c6-4a81-4de0-bd23-17c1d08a97d5"/><path d="M887.68 413.94c-1.05 0-2.1-.26-3.05-.8l-18.69-8.13q-.2-.08-.38-.2a4.9 4.9 0 0 1-2.23-5.43l1.4-5.53a5.06 5.06 0 0 1 7.12-3.26L887 395.9q.27.1.51.23c.24-.21.66-.39.96-.52l7.13-3.06a9.4 9.4 0 0 1 5.8-1.99h25.02l19.98-12.01a3.04 3.04 0 1 1 3.14 5.22l-20.7 12.45a3 3 0 0 1-1.57.44h-25.86a3.3 3.3 0 0 0-2.18.81q-.37.32-.81.51l-7.16 3.07a6.2 6.2 0 0 1-6.48.52l-14.42-5.05-.85 3.37 17.73 7.71q.2.08.38.2c.14-.12.44-.23.6-.32l12.28-7.05a9.4 9.4 0 0 1 5.84-2.02h24.36l25.86-15.99a3.05 3.05 0 0 1 3.21 5.19l-26.59 16.44c-.48.3-1.04.46-1.6.46h-25.23a3.3 3.3 0 0 0-2.14.77q-.21.18-.45.32l-12.29 7.06a6.2 6.2 0 0 1-3.76 1.27zm191.6-10.93a3 3 0 0 1-.63-.07 37 37 0 0 1-23.89-17.16c-.85-1.45-.37-3.32 1.08-4.18s3.32-.38 4.18 1.08a31 31 0 0 0 19.9 14.29 3.05 3.05 0 0 1-.63 6.03zm-129.4 33.79q-.32 0-.65-.07a3.05 3.05 0 0 1-2.34-3.63l3.35-15.54a3.05 3.05 0 0 1 5.96 1.29l-3.35 15.54a3.05 3.05 0 0 1-2.98 2.41zm15.6 4.65a3.1 3.1 0 0 1-3.05-3.19l.97-21.22a3.1 3.1 0 0 1 3.19-2.91 3.06 3.06 0 0 1 2.91 3.19l-.96 21.22a3.04 3.04 0 0 1-3.04 2.91zm70.2 10.64a3.05 3.05 0 0 1-3-2.55 42.6 42.6 0 0 0-8.9-19.77 3.05 3.05 0 1 1 4.74-3.84 49 49 0 0 1 10.17 22.61 3.05 3.05 0 0 1-3.01 3.55m-161.8-70.36a3.04 3.04 0 0 1-.51-6.05l17.34-3a3.05 3.05 0 1 1 1.03 6.02l-17.34 3q-.27.05-.52.05z" class="uuid-6a6e9140-7a43-43a6-884e-9c322c6d153b"/><path d="M961.88 390.13c-6.56 0-15.06-2.97-18.34-5.52-4.88-3.79-8.08-9.01-8.79-14.33a3.06 3.06 0 0 1 6.05-.81c.5 3.74 2.86 7.5 6.49 10.32 3.36 2.61 14.3 5.35 17.35 3.84a3.05 3.05 0 1 1 2.71 5.47 13 13 0 0 1-5.46 1.03z" class="uuid-6a6e9140-7a43-43a6-884e-9c322c6d153b"/><path d="M822.98 368.77c-10.61-5.2-21.64-14.61-20.09-26.33.86-6.5 5.5-11.81 10.21-16.37 4.37-4.24 9.1-8.42 11.74-13.86 2.73-4.61 4.42-10.89 4.42-17.82 0-14.13-6.98-25.58-15.59-25.58l-.63.05q.14-1.38.14-2.81a27.79 27.79 0 0 0-53.99-9.19 23.68 23.68 0 0 0-41.64 19.67c-11.68 1.48-20.76 12.38-20.76 25.62 0 14.25 10.51 25.81 23.47 25.81q.34-.01.67-.04c-2.36 7.43-3.78 15.25-.9 22.33 4.11 10.09 15.46 15.02 26.01 17.72 34.85 8.9 73.22 4.71 105.39 20.8-5.53-10.44-17.85-14.8-28.45-20" class="uuid-45d4b0b5-dbda-49cf-9c50-57086f22589d"/><path d="m817.58 138.94-.48-.04-24.87-3.93a3.05 3.05 0 1 1 .95-6.03l24.87 3.93a3.05 3.05 0 0 1-.47 6.07m44.5-69.36c-.81 0-1.62-.32-2.22-.95l-22.9-24.21a3.05 3.05 0 0 1 4.43-4.19l22.9 24.21a3.05 3.05 0 0 1-2.22 5.14zm81.8-35.34a3.05 3.05 0 0 1-2.97-2.36l-6.54-28.14a3.05 3.05 0 0 1 5.94-1.38l6.54 28.14a3.05 3.05 0 0 1-2.97 3.74m89 1.96q-.47 0-.94-.15a3.05 3.05 0 0 1-1.96-3.84l9.16-28.14a3.05 3.05 0 0 1 5.8 1.88l-9.16 28.14a3.05 3.05 0 0 1-2.9 2.11m69.3 32.72a3.05 3.05 0 0 1-1.85-5.48l24.21-18.32a3.05 3.05 0 1 1 3.68 4.86l-24.21 18.32c-.55.42-1.2.62-1.84.62zm22.3 67.4a3.05 3.05 0 0 1-.68-6.02l31.41-7.2a3.05 3.05 0 1 1 1.37 5.94l-31.41 7.2q-.35.08-.68.08zm210.9 754.32H617.76a3.07 3.07 0 0 1-3.05-3.2c.01-.26 1.35-26.27 6.46-60.74 5.09-34.38 25.55-146.12 25.76-147.25 5.48-40.45 13.4-84.59 30.43-104.24 25.36-28.53 68.76-42.96 110.74-56.9 10.25-3.41 20.85-6.93 30.81-10.55q7.83-2.95 15.46-5.75c35.02-12.89 65.26-24.02 70.54-45.14 3.7-17.27 1.25-37.87 1.23-38.07a3.06 3.06 0 0 1 2.66-3.4c1.67-.2 3.19.99 3.4 2.66.11.88 2.6 21.8-1.34 40.19-6.09 24.35-37.73 36-74.37 49.48q-7.6 2.78-15.45 5.74a1153 1153 0 0 1-31.01 10.62c-41.21 13.7-83.83 27.86-108.07 55.14-15.96 18.41-23.61 61.48-29 101.17-.23 1.26-20.66 112.91-25.74 147.18a730 730 0 0 0-6.21 56.95h711.29c-.18-9.32-1.14-39.49-6.37-83.45-6.35-53.31-18.17-120.53-18.29-121.2-5.88-39.16-12.95-78.88-29.04-97.45-24.22-27.25-66.84-41.41-108.05-55.11-10.29-3.42-20.92-6.95-30.97-10.61q-7.91-2.99-15.49-5.76c-36.64-13.48-68.28-25.13-74.34-49.38-4.6-18.38-2.75-40.75-2.67-41.69a3.05 3.05 0 1 1 6.08.52c-.02.22-1.84 22.31 2.5 39.69 5.28 21.12 35.52 32.25 70.53 45.14a1716 1716 0 0 1 15.51 5.77c9.93 3.61 20.52 7.13 30.77 10.54 41.98 13.95 85.38 28.37 110.71 56.88 17.19 19.83 24.48 60.51 30.48 100.49.1.6 11.96 67.98 18.32 121.47 6.38 53.57 6.45 86.89 6.45 87.22a3.04 3.04 0 0 1-3.05 3.05z" class="uuid-6a6e9140-7a43-43a6-884e-9c322c6d153b"/><path d="M980.48 622.68c-49.22 0-134.11-114.72-137.71-119.62-1-1.36-.71-3.27.65-4.26 1.36-1 3.27-.71 4.26.65.86 1.18 86.65 117.13 132.77 117.13h.42c40.97-.63 126.85-114.38 127.71-115.53a3.05 3.05 0 1 1 4.88 3.66c-3.59 4.79-88.57 117.3-132.5 117.97zm228.9 267.96a3.04 3.04 0 0 1-3.05-3.05V769.86c0-47.42 19.19-123.45 19.38-124.21a3.05 3.05 0 1 1 5.9 1.51c-.19.75-19.19 76.06-19.19 122.71V887.6a3.04 3.04 0 0 1-3.05 3.05zm-454-58.03a3.05 3.05 0 0 1-3.05-3.05v-59.69c0-46.65-19-121.95-19.2-122.71a3.05 3.05 0 1 1 5.91-1.51c.19.76 19.38 76.8 19.38 124.21v59.69a3.05 3.05 0 0 1-3.05 3.05z" class="uuid-6a6e9140-7a43-43a6-884e-9c322c6d153b"/><path d="M914.58 835.55c-2.23-.71-4.67-.21-6.89.54-8.52 2.85-15.48 8.99-22.19 14.98-10.43 9.31-22.41 35.89-22.41 35.89h45.01c2.44-6.32 7.77-19.78 10.47-26s4.14-13.47 1.51-19.71c-1.06-2.51-2.91-4.86-5.5-5.69zm-100.9-16.74q-.56-1.6-1.08-3.23c-2.36-7.52-4.71-15.84-10.76-20.62-3.79-6.71-8.85-13.52-16.36-14.86-7.94-1.41-15.79 4.22-19.54 11.36s-4.28 15.48-4.62 23.53q-.34 7.33-.37 14.68l-.47.04c-1.86 0-3.72-.13-5.57-.21-8.38-6.3-20.99-11.58-28.83-9.42-4.25 1.17-8.28 3.47-10.96 6.96-3.9 5.09-4.46 11.93-4.41 18.34q.02 2.1.16 4.38a9 9 0 0 1-1.13 3.18c-.74 1.16-1.89 1.98-2.99 2.8q-1.98 1.46-3.92 3.01-1.38 1.04-2.66 2.24a45 45 0 0 0-6.41 6.85c-3.52 4.79-5.82 10.68-5.34 16.61.06.71.21 1.51.8 1.91.18.12.39.15.59.19l-.01.4.2-.34q.46.03.92-.01c6.18-.56 94.74 3.93 109.91 2.81 6.7-.49 13.34-1.64 20.06-1.91 11.5-.46 23.08 1.69 34.49.18-8.62-5.72-14.6-14.58-19.95-23.43a291 291 0 0 1-9.4-16.71l4.72 6.34c-6.2-11.33-11.69-23.49-17.06-35.07z" class="uuid-40d124c7-e854-40f3-aabc-271cf480bfd0"/><path d="M908.08 890.04q-.56 0-1.1-.21a3.05 3.05 0 0 1-1.75-3.94c2.64-6.85 7.9-20.09 10.52-26.12 2.03-4.7 3.95-11.52 1.49-17.31-.87-2.07-2.19-3.52-3.62-3.98-1.2-.38-2.78-.22-4.99.52-8.06 2.7-15 8.89-21.12 14.36-9.83 8.77-21.54 34.61-21.66 34.87-.69 1.53-2.5 2.21-4.03 1.53a3.05 3.05 0 0 1-1.53-4.04c.5-1.11 12.36-27.28 23.16-36.92 6.56-5.86 14-12.49 23.25-15.59 2.21-.74 5.51-1.6 8.79-.55 3.17 1.02 5.79 3.65 7.38 7.41 2.6 6.16 2.08 13.81-1.52 22.11a950 950 0 0 0-10.42 25.88 3.05 3.05 0 0 1-2.85 1.95zm-190.6 0a3.04 3.04 0 0 1-2.92-2.18c-3.33-11.25-6.76-29.42-6.87-42.4-.06-6.67.5-14.29 5.04-20.23 2.87-3.75 7.33-6.61 12.57-8.05 11.8-3.25 31.26 7.55 38.13 16.15a3.05 3.05 0 1 1-4.77 3.81c-6.25-7.82-23.42-16.37-31.74-14.08-3.96 1.09-7.28 3.18-9.35 5.88-3.42 4.46-3.83 10.83-3.78 16.46.11 12.41 3.41 29.88 6.62 40.72a3.05 3.05 0 0 1-2.93 3.92" class="uuid-6a6e9140-7a43-43a6-884e-9c322c6d153b"/><path d="M855.38 890.04c-.71 0-1.43-.25-2.01-.76-17.71-15.57-29.23-40.51-40.37-64.63-4.52-9.8-8.8-19.05-13.32-27.29-3.29-5.99-7.94-13.02-14.74-14.22-6.73-1.2-13.29 4.02-16.3 9.77-3.35 6.39-3.92 13.86-4.27 22.25-.55 12.91-.87 26.64 1.71 40.02.72 3.72 3.71 15.96 12.13 17.1q2.23.3 4.26-1.53c4.2-3.82 10.98-17.37 9.13-65.21a3.05 3.05 0 0 1 2.93-3.17 3 3 0 0 1 3.16 2.93c1.48 38.37-2.26 61.91-11.12 69.97-3.41 3.09-6.88 3.37-9.18 3.06-12.12-1.64-16.14-15.93-17.31-22-2.7-14.03-2.37-28.16-1.81-41.43.37-8.8 1.03-17.32 4.96-24.82s12.72-14.73 22.77-12.95c9.35 1.66 15.08 10.11 19.02 17.29 4.63 8.43 8.95 17.77 13.52 27.67 10.88 23.54 22.12 47.89 38.86 62.61a3.04 3.04 0 0 1-2.01 5.34zm-105.1 0a3.06 3.06 0 0 1-3.04-2.77 324 324 0 0 0-7.8-44.47 3.06 3.06 0 0 1 5.9-1.55 332 332 0 0 1 7.97 45.47 3.06 3.06 0 0 1-2.76 3.32l-.28.01zm-60.5 0a3.05 3.05 0 0 1-3.05-3.05c0-15.42 7.21-27.84 19.79-34.07a3.05 3.05 0 1 1 2.71 5.47c-10.42 5.16-16.4 15.58-16.4 28.6a3.05 3.05 0 0 1-3.05 3.05" class="uuid-6a6e9140-7a43-43a6-884e-9c322c6d153b"/><path d="M795.08 880.44a3.1 3.1 0 0 1-2.59-1.43 40 40 0 0 1-5.34-13.34 3.04 3.04 0 1 1 5.98-1.21 34 34 0 0 0 4.53 11.31 3.05 3.05 0 0 1-2.58 4.67m1144.4 209.7H2.98a3.05 3.05 0 1 1 0-6.1h1936.5a3.04 3.04 0 1 1 0 6.1" class="uuid-6a6e9140-7a43-43a6-884e-9c322c6d153b"/><path d="m269.89 1133.84 260.1 10.13-187.76 237.28s-120.63 28.77-266.21-26.04c-52.33-19.71-72.96-35.33-72.96-35.33l266.84-186.03z" class="uuid-48898d97-cd08-46b5-b8a4-024e348c84a4"/><path d="M260.25 1391.74a528 528 0 0 1-185.31-33.64c-52.15-19.63-72.87-35.11-73.73-35.75a3.05 3.05 0 0 1 .1-4.93l266.84-186.03a2.8 2.8 0 0 1 1.86-.55l260.1 10.13a3.04 3.04 0 0 1 2.27 4.94l-187.76 237.28c-.42.54-1.02.92-1.68 1.08-.62.15-32.48 7.48-82.68 7.48zM8.42 1319.89c7.86 5.08 29.27 17.67 68.66 32.51 136.08 51.24 251.47 28.72 263.42 26.15l183.36-231.72-253.08-9.85z" class="uuid-6a6e9140-7a43-43a6-884e-9c322c6d153b"/><path d="m199.48 1541.14 95.49-311.2 277.46-5.2-72.02 329.8z" class="uuid-48898d97-cd08-46b5-b8a4-024e348c84a4"/><path d="m500.41 1557.64-301.08-14.47a3.03 3.03 0 0 1-2.77-3.92l93.96-314.54a3.05 3.05 0 0 1 2.91-2.18l274.01-.77a3.06 3.06 0 0 1 3 3.66l-67.03 329.78a3.04 3.04 0 0 1-2.99 2.44zm-296.9-20.38 294.43 14.15 65.77-323.54-268 .75z" class="uuid-6a6e9140-7a43-43a6-884e-9c322c6d153b"/><path d="M102.06 1404.44s147.57 23.15 219.91 34.72 115.75 27.01 115.75 27.01l114.78-305.25-247.89 5.6z" class="uuid-48898d97-cd08-46b5-b8a4-024e348c84a4"/><path d="M437.72 1469.24q-.51 0-1.02-.18c-.43-.16-44.02-15.48-115.2-26.87-71.51-11.44-218.43-34.49-219.9-34.72a3.05 3.05 0 0 1-1.85-4.99l216.1-253.83a3 3 0 0 1 2.46-1.07l234.34 10.32a3.05 3.05 0 0 1 2.72 4.12l-114.78 305.25a3.1 3.1 0 0 1-2.86 1.98zm-329.81-66.95c27.23 4.27 150.82 23.69 214.54 33.88 61.48 9.83 102.62 22.62 113.44 26.19l112.26-298.55-228.65-10.06-211.6 248.55z" class="uuid-6a6e9140-7a43-43a6-884e-9c322c6d153b"/><path d="m1492.98 1224.04 81 305.3 340-34.7-163.5-281.8z" class="uuid-48898d97-cd08-46b5-b8a4-024e348c84a4"/><path d="M1573.98 1532.34a3.06 3.06 0 0 1-2.95-2.27l-81.02-305.28a3.03 3.03 0 0 1 2.81-3.83l257.53-11.25a3 3 0 0 1 2.77 1.52l163.54 281.81a3.06 3.06 0 0 1-2.33 4.57l-340.05 34.72zm-77.1-305.45 79.38 299.1 332.76-33.98-160.24-276.12z" class="uuid-6a6e9140-7a43-43a6-884e-9c322c6d153b"/><path d="m1478.18 1258.24 64 306 340-34.7-163.5-281.8z" class="uuid-48898d97-cd08-46b5-b8a4-024e348c84a4"/><path d="M1542.18 1567.24c-1.43 0-2.68-1-2.98-2.42l-64-306.02a3.06 3.06 0 0 1 2.85-3.68l240.51-10.51a3 3 0 0 1 2.77 1.52l163.54 281.81a3.06 3.06 0 0 1-2.33 4.57l-340.05 34.72zm-60.28-306.18 62.71 299.82 332.62-33.97-160.24-276.12z" class="uuid-6a6e9140-7a43-43a6-884e-9c322c6d153b"/><path d="M532.89 1128.14h60.44v45.01h-60.44z" class="uuid-58a78987-7f3b-46e4-ac5a-07fb6a2701bb"/><path d="M593.34 1176.14H532.9a3.05 3.05 0 0 1-3.05-3.05v-45.01a3.05 3.05 0 0 1 3.05-3.05h60.44a3.05 3.05 0 0 1 3.05 3.05v45.01a3.05 3.05 0 0 1-3.05 3.05m-57.39-6.1h54.34v-38.91h-54.34z" class="uuid-6a6e9140-7a43-43a6-884e-9c322c6d153b"/><path d="M1335.38 1117.94h84.24v40.51h-84.24z" class="uuid-58a78987-7f3b-46e4-ac5a-07fb6a2701bb"/><path d="M1425.68 1097.74h7.09a6.1 6.1 0 0 1 6.1 6.1v68.82a6.1 6.1 0 0 1-6.1 6.1h-7.09a6.1 6.1 0 0 1-6.1-6.1v-68.82a6.1 6.1 0 0 1 6.1-6.1" class="uuid-e4679e9b-a698-4c8c-8ab4-0ae3fc35907f"/><path d="M1419.58 1161.54h-84.24a3.04 3.04 0 0 1-3.05-3.05v-40.51a3.04 3.04 0 0 1 3.05-3.05h84.24a3.04 3.04 0 0 1 3.05 3.05v40.51a3.04 3.04 0 0 1-3.05 3.05m-81.19-6.1h78.14v-34.41h-78.14z" class="uuid-6a6e9140-7a43-43a6-884e-9c322c6d153b"/><path d="M1432.78 1181.74h-7.09a9.15 9.15 0 0 1-9.15-9.15v-68.82c0-5.05 4.1-9.15 9.15-9.15h7.09c5.04 0 9.15 4.1 9.15 9.15v68.82c0 5.05-4.1 9.15-9.15 9.15m-7.09-81.02a3.06 3.06 0 0 0-3.05 3.05v68.82a3.06 3.06 0 0 0 3.05 3.05h7.09a3.06 3.06 0 0 0 3.05-3.05v-68.82a3.06 3.06 0 0 0-3.05-3.05z" class="uuid-6a6e9140-7a43-43a6-884e-9c322c6d153b"/><path d="M1377.48 1138.24h24.76v59.32h-24.76z" class="uuid-2f151a57-3c07-4a26-927d-449247b2a586"/><path d="M1402.28 1200.54h-24.76a3.04 3.04 0 0 1-3.05-3.05v-59.32a3.04 3.04 0 0 1 3.05-3.05h24.76a3.04 3.04 0 0 1 3.05 3.05v59.32a3.04 3.04 0 0 1-3.05 3.05m-21.71-6.1h18.66v-53.22h-18.66z" class="uuid-6a6e9140-7a43-43a6-884e-9c322c6d153b"/><path d="M494.13 1092.74h58.37v115.75h-58.37a9.15 9.15 0 0 1-9.15-9.15v-97.44c0-5.05 4.1-9.15 9.15-9.15z" class="uuid-e4679e9b-a698-4c8c-8ab4-0ae3fc35907f"/><path d="M552.5 1211.54h-58.37c-6.73 0-12.2-5.47-12.2-12.2v-97.44c0-6.73 5.47-12.2 12.2-12.2h58.37a3.05 3.05 0 0 1 3.05 3.05v115.75a3.05 3.05 0 0 1-3.05 3.05zm-58.37-115.75a6.1 6.1 0 0 0-6.1 6.1v97.44c0 3.36 2.74 6.1 6.1 6.1h55.32v-109.65h-55.32z" class="uuid-6a6e9140-7a43-43a6-884e-9c322c6d153b"/><path d="M579.31 1071.84h760.7v69.77h-760.7z" class="uuid-2f151a57-3c07-4a26-927d-449247b2a586"/><path d="M1339.98 1144.64h-760.7a3.05 3.05 0 0 1-3.05-3.05v-69.77a3.05 3.05 0 0 1 3.05-3.05h760.7a3.04 3.04 0 0 1 3.05 3.05v69.77a3.04 3.04 0 0 1-3.05 3.05m-757.65-6.1h754.6v-63.67h-754.6z" class="uuid-6a6e9140-7a43-43a6-884e-9c322c6d153b"/><path d="M695.58 1423.24v23.61a3.4 3.4 0 0 1-3.4 3.4h-72.29a3.4 3.4 0 0 1-3.4-3.4v-23.61zm607.3 0v23.61a3.4 3.4 0 0 1-3.4 3.4h-72.29a3.4 3.4 0 0 1-3.4-3.4v-23.61z" class="uuid-58a78987-7f3b-46e4-ac5a-07fb6a2701bb"/><path d="M692.18 1453.34h-72.29a6.46 6.46 0 0 1-6.45-6.45v-23.61a3.05 3.05 0 1 1 6.1 0v23.61c0 .19.16.35.35.35h72.29c.2 0 .35-.16.35-.35v-23.61a3.05 3.05 0 1 1 6.1 0v23.61a6.45 6.45 0 0 1-6.45 6.45m607.3 0h-72.29a6.46 6.46 0 0 1-6.45-6.45v-23.61a3.04 3.04 0 1 1 6.1 0v23.61c0 .19.16.35.35.35h72.29c.2 0 .35-.16.35-.35v-23.61a3.04 3.04 0 1 1 6.1 0v23.61a6.45 6.45 0 0 1-6.45 6.45" class="uuid-6a6e9140-7a43-43a6-884e-9c322c6d153b"/><path d="M561.3 1141.54h796.71v256.57a25.1 25.1 0 0 1-25.07 25.07H586.38a25.1 25.1 0 0 1-25.07-25.07z" class="uuid-58a78987-7f3b-46e4-ac5a-07fb6a2701bb"/><path d="M1332.98 1426.34H586.42a28.15 28.15 0 0 1-28.12-28.12V1144.7c0-3.36 2.74-6.1 6.1-6.1h790.61c3.36 0 6.1 2.74 6.1 6.1v253.52a28.15 28.15 0 0 1-28.12 28.12zM564.4 1144.69v253.52a22.05 22.05 0 0 0 22.02 22.02h746.56a22.05 22.05 0 0 0 22.02-22.02v-253.52z" class="uuid-6a6e9140-7a43-43a6-884e-9c322c6d153b"/><path d="M1312.18 1391.54H607.07a9.15 9.15 0 0 1-9.15-9.15V1184.8c0-5.05 4.1-9.15 9.15-9.15h705.11c5.05 0 9.15 4.1 9.15 9.15v197.59c0 5.05-4.1 9.15-9.15 9.15m-705.11-209.79a3.06 3.06 0 0 0-3.05 3.05v197.59a3.06 3.06 0 0 0 3.05 3.05h705.11a3.06 3.06 0 0 0 3.05-3.05V1184.8a3.06 3.06 0 0 0-3.05-3.05z" class="uuid-a92472fa-2db5-4420-af83-c0364d532bbe"/><path d="m582.52 949.04-7.71-69.8h769.67l-16.7 69.8z" class="uuid-48898d97-cd08-46b5-b8a4-024e348c84a4"/><path d="M1327.78 952.04q-.36 0-.71-.08a3.04 3.04 0 0 1-2.25-3.68l15.82-66.01H578.21l7.34 66.39a3.05 3.05 0 0 1-6.07.67l-7.72-69.77a3.05 3.05 0 0 1 3.03-3.39h769.7a3.06 3.06 0 0 1 2.97 3.76l-16.72 69.77a3.05 3.05 0 0 1-2.96 2.34" class="uuid-6a6e9140-7a43-43a6-884e-9c322c6d153b"/><path d="M1360.18 1071.84H559.15a13.6 13.6 0 0 1-13.41-15.93l17.49-101.24a6.8 6.8 0 0 1 6.71-5.65h779.46a6.8 6.8 0 0 1 6.71 5.65l17.49 101.24a13.6 13.6 0 0 1-13.41 15.93z" class="uuid-58a78987-7f3b-46e4-ac5a-07fb6a2701bb"/><path d="M1360.18 1074.84H559.15a16.63 16.63 0 0 1-16.41-19.5l17.49-101.24a9.8 9.8 0 0 1 9.71-8.18h779.46c4.81 0 8.9 3.44 9.71 8.18l17.49 101.24c.84 4.86-.5 9.8-3.68 13.57a16.6 16.6 0 0 1-12.74 5.93M569.93 952.02a3.75 3.75 0 0 0-3.7 3.12l-17.49 101.24a10.55 10.55 0 0 0 10.41 12.36h801.03a10.56 10.56 0 0 0 10.41-12.37l-17.49-101.24a3.75 3.75 0 0 0-3.7-3.12H569.94z" class="uuid-6a6e9140-7a43-43a6-884e-9c322c6d153b"/><path d="m282.21 1228.04.11-.55 37.89-22.29-78.53-29.06-5.44-3.82-1.48-10.22-11.89-18.08-2.5 3.52-5.37-24.65-28.41 2.31-7.81 11.91-2.71-1.51-17.36 6.79.27-.85-40.62-14.61 21.7 73.68.6-1.89-.51 28.04-16.59-16.86-14.86 18.82 3.47 33.93-11.39 9.9 35.66 18.08 28.48-6.19 17.34 6.19 13.37-20.55 16.04.35-23.72 14.26 70.83-2.23 61.42-77.27zm-61.83-80.49-6.47 9.1-.63-.35z" class="uuid-48898d97-cd08-46b5-b8a4-024e348c84a4"/><path d="M182.26 1293.74a3 3 0 0 1-1.03-.18l-16.51-5.89-27.63 6a3 3 0 0 1-2.03-.26l-35.66-18.08a3.06 3.06 0 0 1-.63-5.02l10.2-8.87-3.31-32.36c-.08-.79.15-1.58.64-2.2l14.86-18.82a3.04 3.04 0 0 1 4.57-.25l16.59 16.86a3.04 3.04 0 0 1-.04 4.31 3.04 3.04 0 0 1-4.31-.04l-14.17-14.39-11.95 15.14 3.34 32.7c.1.99-.28 1.96-1.03 2.61l-7.97 6.93 30.65 15.54 27.42-5.96a3 3 0 0 1 1.67.11L181 1287l12.06-18.54a3.05 3.05 0 0 1 5.11 3.33l-13.37 20.55a3 3 0 0 1-2.56 1.39z" class="uuid-6a6e9140-7a43-43a6-884e-9c322c6d153b"/><path d="M136.44 1293.74c-1.49 0-2.8-1.1-3.01-2.62l-4.8-33.43a3.05 3.05 0 0 1 2.27-3.39l17.72-4.46 4.23-26.07 12.47-52.33-21.39 16.28-.96 52.51a3.04 3.04 0 0 1-3.75 2.91l-10.65-2.53-4.84 13.47q-.2.56-.6 1.01l-8.67 9.66a3.05 3.05 0 0 1-4.54-4.08l8.27-9.21 5.56-15.48a3.05 3.05 0 0 1 3.57-1.94l9.62 2.28.92-50.2c.02-.93.46-1.8 1.2-2.37l29.36-22.35a3.05 3.05 0 0 1 4.81 3.13l-14.41 60.42-4.5 27.83a3.1 3.1 0 0 1-2.27 2.47l-17 4.28 4.41 30.71a3.06 3.06 0 0 1-3.03 3.49z" class="uuid-6a6e9140-7a43-43a6-884e-9c322c6d153b"/><path d="M140.07 1203.74a3.04 3.04 0 0 1-2.92-2.19l-21.7-73.68c-.32-1.1 0-2.29.83-3.08a3.1 3.1 0 0 1 3.12-.65l40.62 14.61a3.05 3.05 0 1 1-2.06 5.74L123 1131.91l20 67.91a3.06 3.06 0 0 1-2.92 3.92z" class="uuid-6a6e9140-7a43-43a6-884e-9c322c6d153b"/><path d="M143.14 1185.24q-.23 0-.47-.04a3.05 3.05 0 0 1-2.55-3.48l2.35-15.21q.04-.27.13-.54l7.81-22.46c.29-.84.94-1.51 1.77-1.84l22.78-8.92c.85-.33 1.8-.27 2.59.18l37.83 21.05a3.05 3.05 0 0 1-2.97 5.33l-36.58-20.35-20.14 7.88-7.26 20.87-2.3 14.94a3.05 3.05 0 0 1-3.01 2.59z" class="uuid-6a6e9140-7a43-43a6-884e-9c322c6d153b"/><path d="M211.61 1260.24q-.57 0-1.12-.21l-11.27-4.46a3 3 0 0 1-1.74-1.78l-17.09-46.07a3.1 3.1 0 0 1 .97-3.46l15.93-12.58v-15.98c0-.63.2-1.25.56-1.77l22.54-31.7a3.03 3.03 0 0 1 5.03.09l11.89 18.08q.38.58.47 1.24l1.52 10.51q.5 0 .98.19l80.99 29.97a3 3 0 0 1 1.98 2.59c.1 1.17-.48 2.3-1.49 2.9l-36.71 21.59-2.46 12.52c-.2.99-.86 1.82-1.79 2.21l-16.1 6.93c-.91.39-1.96.32-2.81-.21l-12.72-7.86-22.84 2.71-12.49 13.53c-.59.64-1.41.98-2.24.98zm-8.88-9.84 8.06 3.19 11.83-12.83a3 3 0 0 1 1.88-.96l25.01-2.97c.7-.08 1.38.08 1.96.44l12.27 7.59 13.16-5.67 2.41-12.29c.17-.86.7-1.6 1.45-2.04l32.35-19.03-72.85-26.96 3.96 27.38a3.06 3.06 0 0 1-5.01 2.74l-28.68-24.8-7.69 10.74a3 3 0 0 1-.64.67l-15.33 12.1 15.84 42.71zm7.27-73.77c.73 0 1.44.26 2 .74l25.02 21.65-5.17-35.82-9.06-13.78-19.39 27.27v6.98l4.13-5.77a3 3 0 0 1 2.48-1.27z" class="uuid-6a6e9140-7a43-43a6-884e-9c322c6d153b"/><path d="M258.79 1285.54c-.96 0-1.91-.46-2.51-1.31l-15.34-22.03-9.16 10.64a3.2 3.2 0 0 1-2.38 1.06l-56.63-1.24a3.06 3.06 0 0 1-2.94-2.51l-8.42-47.06a3.05 3.05 0 0 1 2.84-3.58l15.93-.84v-11.96a3.04 3.04 0 0 1 4.31-2.77l33.35 15.13 21.61-14.87a3.05 3.05 0 0 1 3.46 5.03l-23.03 15.85c-.88.61-2.02.71-2.99.26l-30.61-13.89v10.13a3.06 3.06 0 0 1-2.89 3.05l-15.37.81 7.37 41.2 52.69 1.15 10.79-12.53a3.07 3.07 0 0 1 4.82.24l17.58 25.26a3.05 3.05 0 0 1-2.5 4.79z" class="uuid-6a6e9140-7a43-43a6-884e-9c322c6d153b"/><path d="M187.96 1287.74a3.05 3.05 0 0 1-.1-6.1l69.42-2.19 60.54-76.16a3.05 3.05 0 0 1 4.77 3.8l-61.42 77.27c-.56.7-1.4 1.12-2.29 1.15l-70.83 2.23zm32.41-137.1c-1.4 0-2.67-.97-2.98-2.4l-4.8-22.05-16.29 1.33 7.22 4.33a3.05 3.05 0 0 1-1.43 5.66l-25.89 1.19a3.05 3.05 0 1 1-.28-6.1l15.79-.72-6.7-4.02a3.05 3.05 0 0 1 1.32-5.66l28.41-2.31c1.51-.11 2.9.9 3.23 2.39l5.37 24.65a3.05 3.05 0 0 1-2.98 3.7z" class="uuid-6a6e9140-7a43-43a6-884e-9c322c6d153b"/><path d="M184.7 1138.64q-.27 0-.55-.05a3.04 3.04 0 0 1-2.45-3.55l1.9-10.4a3.03 3.03 0 0 1 3.55-2.45 3.04 3.04 0 0 1 2.45 3.55l-1.9 10.4a3.05 3.05 0 0 1-3 2.5m8.02 9.3a3.05 3.05 0 0 1-2.16-5.2l9.24-9.26a3.05 3.05 0 0 1 4.31 4.31l-9.24 9.26c-.6.6-1.38.9-2.16.9zm19.12 83.7a3.04 3.04 0 0 1-2.11-5.25l6.34-6.08a3.06 3.06 0 0 1 4.31.09 3.04 3.04 0 0 1-.09 4.31l-6.34 6.08c-.59.57-1.35.85-2.11.85m-39.21 39.8a3.05 3.05 0 0 1-1.5-5.7l27.71-15.6a3.04 3.04 0 0 1 4.15 1.16 3.04 3.04 0 0 1-1.16 4.15l-27.71 15.6a3 3 0 0 1-1.49.39m86.16 14.1q-.7 0-1.37-.33a3.05 3.05 0 0 1-1.34-4.1l20.8-41.11a3.05 3.05 0 1 1 5.44 2.75l-20.8 41.11a3 3 0 0 1-2.72 1.67z" class="uuid-6a6e9140-7a43-43a6-884e-9c322c6d153b"/><path d="M258.79 1285.54q-.21 0-.42-.03a3.05 3.05 0 0 1-2.61-3.44l4.71-34.17a3.05 3.05 0 0 1 6.05.84l-4.71 34.17a3.05 3.05 0 0 1-3.02 2.63m-8.92-42.6a3 3 0 0 1-.98-.16l-18.33-6.19-33.22-8.54a3 3 0 0 1-1.56-.97l-14.17-16.54a3.04 3.04 0 1 1 4.63-3.97l13.55 15.82 32.5 8.36 18.54 6.26a3.05 3.05 0 0 1-.98 5.94z" class="uuid-6a6e9140-7a43-43a6-884e-9c322c6d153b"/><path d="m1619.88 1430.84-5.94-98.53-56.72-42.48 11.24 25.29-13.34-8.92.85-24.51-17.75-4.88-19.77-21.42-39.58-5.67 3.64 14.65-22.32 25.79 1.36 23.94 23.26-4.29-15.67 23.25.59-1.89-60.06 47.88 41.65 11.35.27-.85 10.31 15.53 3.09.32-.44 14.23 21.94 18.2 18.55-17.11.03 4.32 20.11-7.98 7.07-7.52h6.64l80.98 21.28-18.23-40 .23-.52 18.01 40.52zm-115.64-21.34.72.07.07 11.17z" class="uuid-48898d97-cd08-46b5-b8a4-024e348c84a4"/><path d="M1461.58 1317.24a3.04 3.04 0 0 1-3.05-2.87l-1.36-23.94c-.04-.79.22-1.57.74-2.17l21.28-24.59-3.26-13.12a3.06 3.06 0 0 1 3.4-3.76l39.58 5.67c.69.1 1.33.44 1.81.95l19.18 20.78 16.91 4.65a3.04 3.04 0 0 1 2.24 3.04l-.85 24.51c-.06 1.68-1.4 3.08-3.15 2.94a3.04 3.04 0 0 1-2.94-3.15l.76-22.1-15.43-4.24a3 3 0 0 1-1.43-.87l-19.04-20.62-34.02-4.87 2.55 10.26c.24.96 0 1.98-.66 2.73l-21.5 24.86 1.1 19.26 19.86-3.66a3.03 3.03 0 0 1 3.55 2.45 3.04 3.04 0 0 1-2.45 3.55l-23.26 4.29a3 3 0 0 1-.55.05z" class="uuid-6a6e9140-7a43-43a6-884e-9c322c6d153b"/><path d="M1473.28 1381.74a3.1 3.1 0 0 1-2.91-2.12l-11.21-35.16a3 3 0 0 1 .38-2.63l28.06-41.64-9.19-3.65a3.1 3.1 0 0 1-1.82-3.64l4.33-15.87-1.48-12.29a3.05 3.05 0 1 1 6.06-.74l1.55 12.88q.07.6-.09 1.17l-3.77 13.81 10.17 4.04a3.06 3.06 0 0 1 1.41 4.54l-29.35 43.55 8.17 25.61 19.74-49.81 11.59-23.98-11.95-13.82a3.05 3.05 0 0 1 .09-4.08l23.12-24.62a3.04 3.04 0 0 1 4.31-.13 3.04 3.04 0 0 1 .13 4.31l-21.24 22.62 11.46 13.26c.79.92.97 2.23.44 3.32l-12.38 25.58-22.79 57.54a3.05 3.05 0 0 1-2.84 1.93z" class="uuid-6a6e9140-7a43-43a6-884e-9c322c6d153b"/><path d="M1451.28 1393.54q-.4 0-.8-.11l-41.65-11.35a3.06 3.06 0 0 1-1.1-5.33l60.06-47.88a3.05 3.05 0 0 1 3.8 4.78l-55.36 44.13 35.85 9.77a3.05 3.05 0 0 1-.8 5.99" class="uuid-6a6e9140-7a43-43a6-884e-9c322c6d153b"/><path d="m1504.98 1412.64-.32-.02-43.06-4.48a3 3 0 0 1-2.22-1.34l-13.54-20.38a3 3 0 0 1-.39-2.52l6.5-22.88q.08-.27.2-.52l6.81-13.8a3.05 3.05 0 1 1 5.46 2.69l-6.69 13.56-6.04 21.26 11.97 18.01 41.63 4.34a3.05 3.05 0 0 1-.31 6.08" class="uuid-6a6e9140-7a43-43a6-884e-9c322c6d153b"/><path d="M1619.88 1433.94q-.4 0-.77-.1l-83.51-21.95a3 3 0 0 1-.91-.4l-7.28 7.74q-.47.49-1.1.74l-20.11 7.98a3.04 3.04 0 0 1-4.18-2.82l-.26-38.89c0-.63.19-1.25.55-1.77l9.17-13.09-5.82-19.45a3.05 3.05 0 0 1 1.19-3.39l40.44-27.91c.71-.49 1.6-.66 2.44-.46l11.79 2.82a3 3 0 0 1 2.31 2.56l2.45 18.25 17.14 15.33 14.92.86c1 .06 1.9.6 2.42 1.44l9.2 14.92c.53.86.6 1.92.19 2.84l-5.17 11.67 17.66 38.75a3.04 3.04 0 0 1-2.77 4.31zm-80.57-27.38 75.13 19.74-15.57-34.15c-.36-.8-.37-1.7-.01-2.5l5.08-11.45-7.52-12.19-14.4-.83a3 3 0 0 1-1.86-.77l-18.78-16.79a3 3 0 0 1-.99-1.87l-2.32-17.29-8.43-2.02-37.49 25.88 5.6 18.71.08.33q.05.34.05.58l.13 13.21 37.72-3.85a3.05 3.05 0 0 1 2.53 5.12l-18.95 20.15zm-31.44-19.39.22 33.46 15.33-6.08 24.8-26.36-32.92 3.36a3.04 3.04 0 0 1-3.36-3l-.07-7.1z" class="uuid-6a6e9140-7a43-43a6-884e-9c322c6d153b"/><path d="M1555.98 1387.34c-1.24 0-2.4-.76-2.86-1.98l-9.16-24.58-36-6.75a3.04 3.04 0 0 1-1.93-4.75l6.87-9.8-12.57-9.83a3.03 3.03 0 0 1-.28-4.56l33.9-33.7a3.05 3.05 0 0 1 3.85-.37l47.08 31.49a3 3 0 0 1 1.34 2.23l1.39 13.97 25.2-9.24a3.05 3.05 0 1 1 2.1 5.72l-28.9 10.59a3.03 3.03 0 0 1-4.08-2.57l-1.64-16.45-43.81-29.3-29.68 29.5 12.12 9.49c1.28 1 1.55 2.82.62 4.15l-5.81 8.29 33.04 6.2c1.05.2 1.92.93 2.3 1.93l9.76 26.2a3.05 3.05 0 0 1-2.86 4.12z" class="uuid-6a6e9140-7a43-43a6-884e-9c322c6d153b"/><path d="M1619.88 1433.94a3.05 3.05 0 0 1-3.04-2.87l-5.86-97.12-55.59-41.63a3.05 3.05 0 1 1 3.66-4.88l56.72 42.48a3 3 0 0 1 1.21 2.26l5.94 98.53a3.05 3.05 0 0 1-2.86 3.23zm-133.4 7c-.69 0-1.38-.23-1.95-.7l-21.94-18.2a3.05 3.05 0 0 1-.88-3.49 3 3 0 0 1 3.05-1.9l7.79.55-12.51-9.65a3.06 3.06 0 0 1 3.73-4.83l20.52 15.83a3.04 3.04 0 0 1 .99 3.5 3 3 0 0 1-3.07 1.95l-8.4-.6 12.58 10.43 16.59-15.3a3.05 3.05 0 0 1 4.13 4.49l-18.55 17.11c-.58.54-1.33.81-2.07.81z" class="uuid-6a6e9140-7a43-43a6-884e-9c322c6d153b"/><path d="M1464.58 1422.74a3.05 3.05 0 0 1-2.77-4.32l4.42-9.61a3.04 3.04 0 1 1 5.54 2.54l-4.42 9.61a3 3 0 0 1-2.77 1.78m18.5.3a3.05 3.05 0 0 1-3-2.53l-2.25-12.89a3.05 3.05 0 1 1 6.01-1.05l2.25 12.89a3.05 3.05 0 0 1-3.01 3.57zm63.2-61.9a3.06 3.06 0 0 1-2.99-2.46l-1.7-8.61a3.06 3.06 0 0 1 2.4-3.58 3.06 3.06 0 0 1 3.58 2.4l1.7 8.61a3.04 3.04 0 0 1-2.99 3.64m2.7-35a3 3 0 0 1-2.75-1.73l-13.74-28.68a3.05 3.05 0 1 1 5.5-2.64l13.74 28.68a3.05 3.05 0 0 1-2.74 4.37zm58.4 54.9q-.21 0-.44-.03a3.05 3.05 0 0 1-2.58-3.46l6.56-45.6a3.06 3.06 0 0 1 6.05.88l-6.56 45.6a3.05 3.05 0 0 1-3.02 2.62z" class="uuid-6a6e9140-7a43-43a6-884e-9c322c6d153b"/><path d="M1598.18 1366.04q-.71 0-1.39-.34a3.05 3.05 0 0 1-1.32-4.11l15.76-30.69a3.05 3.05 0 1 1 5.43 2.79l-15.76 30.69a3.1 3.1 0 0 1-2.72 1.66m-16-.9q-.42 0-.86-.12l-18.56-5.45-31.63-11.88-20.17 5.17a3.05 3.05 0 0 1-1.51-5.91l21.1-5.41a3 3 0 0 1 1.83.1l32.32 12.15 18.35 5.38a3.05 3.05 0 0 1-.86 5.98zm26.4-214.2a4.56 4.56 0 0 1-2.4-8.47 70.1 70.1 0 0 0 33.14-59.3v-7.07c0-7.2-3.38-13.7-9.27-17.84s-13.16-5.11-19.92-2.67l-3.11-8.61a30.6 30.6 0 0 1 28.29 3.79 30.6 30.6 0 0 1 13.16 25.32v7.07a79.3 79.3 0 0 1-37.49 67.09c-.75.46-1.58.68-2.39.68z" class="uuid-6a6e9140-7a43-43a6-884e-9c322c6d153b"/><path d="M1608.58 1027.94c0 5.86-31.32 10.61-69.95 10.61s-69.95-4.75-69.95-10.61 31.32-10.61 69.95-10.61 69.95 4.75 69.95 10.61" class="uuid-6dc4e760-95e2-4d8a-8a82-ca8c5b558cb9"/><path d="M1538.58 1038.54c-36.6 0-66.62-4.27-69.68-9.7v165.53q-.26.45-.27.91c0 5.86 31.32 13.26 69.95 13.26s69.95-7.4 69.95-13.26v-167.36c0 5.86-31.32 10.61-69.95 10.61z" class="uuid-6863423b-c4a8-470d-aceb-5f8a7350e763"/><path d="M1538.58 1211.64c-29.44 0-73-5.18-73-16.31q0-.78.27-1.55v-165.8a3.04 3.04 0 1 1 6.1 0v166.45q0 .39-.09.75c3.78 3.85 30.48 10.37 66.72 10.37s63.89-6.75 66.9-10.57v-167a3.04 3.04 0 1 1 6.1 0v167.36c0 11.13-43.56 16.31-73 16.31z" class="uuid-6a6e9140-7a43-43a6-884e-9c322c6d153b"/><path d="M1538.58 1041.64c-12.19 0-73-.66-73-13.66s60.81-13.66 73-13.66 73 .66 73 13.66-60.81 13.66-73 13.66m-66.37-13.66c4.87 3.29 29.45 7.56 66.37 7.56s61.49-4.27 66.37-7.56c-4.88-3.29-29.45-7.56-66.37-7.56s-61.49 4.27-66.37 7.56" class="uuid-6a6e9140-7a43-43a6-884e-9c322c6d153b"/><path d="M1525.88 915.54s12.85 11.39 10.83 27.66c-1.01 8.95-7.05 15.05-5.54 24 1.26 8.54 5.04 12.61 4.28 23.59-.75 11.39-6.3 15.46-6.3 15.46s.25-8.54-3.02-16.27c-2.77-6.91-9.07-12.61-8.82-23.59 0-16.27 7.81-21.15 10.07-30.91 2.52-9.36-1.51-19.93-1.51-19.93zm26.5-50.89s-16.88 17.49-12.85 43.52c1.76 11.39 10.33 21.15 8.56 32.13s-6.3 18.3-5.54 32.94c1.01 14.24 10.58 20.75 10.58 20.75s-1.51-8.13 4.03-23.18c3.27-9.36 10.07-19.52 9.82-33.35-.25-23.59-11.08-27.66-15.61-44.33-4.03-14.24 1.01-28.47 1.01-28.47z" class="uuid-45d4b0b5-dbda-49cf-9c50-57086f22589d"/></svg>