<svg xmlns="http://www.w3.org/2000/svg" data-name="&amp;lt;Layer&amp;gt;" viewBox="0 0 1119.3 1488.5"><defs><style>.uuid-bd478903-0427-4658-94c4-077dbe2e8b6f {
        fill: #ffd0bb;
      }

      .uuid-bd478903-0427-4658-94c4-077dbe2e8b6f, .uuid-000521f4-f764-4beb-9a3a-437546a2798c, .uuid-499a80ae-4363-4bdd-9844-5f7a43dd0c9e, .uuid-6412244f-c9e5-4364-84f6-f35a5c9a9f54, .uuid-9f52520b-79c5-490c-93d7-9740a52b6483, .uuid-809b4e64-be60-4b88-8911-58d53b5024ca, .uuid-5d947b98-fbdc-4f9d-8b93-3c7c9a794979, .uuid-90234704-7cbf-4c02-9690-2f04d509ede7, .uuid-18537f84-18af-4747-8c80-079b59c1544b, .uuid-acb0e4d4-8bfd-4077-900b-f3d125ad9460, .uuid-979b37cb-cfaa-499d-ba98-bf8caeb4cced {
        stroke-width: 0px;
      }

      .uuid-000521f4-f764-4beb-9a3a-437546a2798c {
        fill: #ce997c;
      }

      .uuid-000521f4-f764-4beb-9a3a-437546a2798c, .uuid-499a80ae-4363-4bdd-9844-5f7a43dd0c9e, .uuid-9f52520b-79c5-490c-93d7-9740a52b6483, .uuid-809b4e64-be60-4b88-8911-58d53b5024ca, .uuid-5d947b98-fbdc-4f9d-8b93-3c7c9a794979, .uuid-90234704-7cbf-4c02-9690-2f04d509ede7, .uuid-18537f84-18af-4747-8c80-079b59c1544b, .uuid-acb0e4d4-8bfd-4077-900b-f3d125ad9460, .uuid-979b37cb-cfaa-499d-ba98-bf8caeb4cced {
        fill-rule: evenodd;
      }

      .uuid-273eba9c-3868-43aa-90a0-c5f6cb814256 {
        opacity: .2;
      }

      .uuid-499a80ae-4363-4bdd-9844-5f7a43dd0c9e {
        fill: #463b39;
      }

      .uuid-6412244f-c9e5-4364-84f6-f35a5c9a9f54 {
        fill: #35251c;
      }

      .uuid-9f52520b-79c5-490c-93d7-9740a52b6483 {
        fill: #fa5;
      }

      .uuid-809b4e64-be60-4b88-8911-58d53b5024ca {
        fill: #bdd6f2;
      }

      .uuid-5d947b98-fbdc-4f9d-8b93-3c7c9a794979 {
        fill: #fff5f3;
      }

      .uuid-90234704-7cbf-4c02-9690-2f04d509ede7 {
        fill: #bf8f8b;
      }

      .uuid-18537f84-18af-4747-8c80-079b59c1544b {
        fill: #fff;
      }

      .uuid-acb0e4d4-8bfd-4077-900b-f3d125ad9460 {
        fill: #646367;
      }

      .uuid-979b37cb-cfaa-499d-ba98-bf8caeb4cced {
        fill: #ded0cd;
      }</style></defs><path d="M538.81 154.27c-7.03-3.28-14.84-2.18-22.38-1.2-5.05.66-9.93 2.65-14.76 4.22-5.12 1.67-9.19 4.29-13.32 7.66-18.33 14.93-13.84 35.18-14.9 56.25-1.39 27.5 4.81 56.61 10.84 83.35 4.99 22.08 8.39 43.76 15.41 65.31 9.53 29.28 21.44 61.69 52.1 75.35 9.24 4.12 19.95 9.05 30.21 9.57 26.9 1.36 50.63-16.4 73.55-28 10.86-5.5 22.99-11.18 32.19-19.5 2.54-2.3 3.38-6 5.83-8.33 8.17-7.73 12.61-18.27 19.5-27.23 11.55-15 19.27-30.14 27.8-46.9 19.97-39.25 30.62-86.36 5.75-126.66-9.46-15.32-25.52-24.5-41.76-31.27-34.25-14.28-73.51-18.02-110.31-16.76-12.49.43-25.25 2.63-37.63 4.24-5.81.76-12.65 2.44-18.12-.11zm-269 820.9c-4.35-11.08-5.77-36.93-10.73-47.4-7.52-15.88-8.25-19.45-15.84-35.49-17.82-37.63-35.14-75.84-49.18-115.64-6.83-19.35-19.23-41.14-19.23-62.83 0-14.87-4.2-29.86-3.49-44.77.37-7.65 1.4-15.65 1.4-23.31 0-9.02 3.06-19.58 6.53-27.98 11.14-26.99 20.05-34.48 26.11-56.7 4.67-17.14-.49-45.18-1.08-62.55-.68-20.33 3.2-33.73 3.05-49.52-.12-13.71-4.31-19.69-9.02-22.8-5.93-3.9-10.45-5.66-17.51 2.65-10.95 12.87-1.17 32.73-5.51 41.8-.95 1.99-122.56 55.43-120.93 50.74 6.48-18.58 10.56-27.09 11.31-33.97.74-6.88.85-15.93.82-17.45-.11-7.78.8-10.91-2.93-24.08s-11.89-14.86-11.03-18.67c4.15-18.23-5.64-33.33-8.76-36.05-.44-.39-2.12-4.78-4.58-7.21-2.09-2.06-5.12-2.16-4.49-2.82 1.74-1.86-1.4-12.45-7.75-11.28-7.82 1.44-25.06 24.94-25.7 30.67-.36 3.17.66 14.03 4.91 22.44 1.88 3.72-1.05 7.8.66 17.8 1.31 7.63 7.02 15.56 9.19 23.04 1.42 4.9-.26 10.73-.16 12.24.78 11.73 7.88 18.58 8.49 26.54.86 11.44-3.13 11.96-.49 20.43 6.4 20.53 15.54 42.12 26.03 64.28 8.14 17.17 10.87 29.67 17.57 47.35 9.29 24.5 6.73 51.42 8.15 77.17 1.55 27.91 1.5 53.52 2.4 81.43.81 25.28.82 48.24-.39 73.65-1.69 35.34-2.94 78.12 8.34 111.99 8.14 24.41 18.86 46.29 28.6 69.66 6.98 16.75 13.44 38.73 24.74 53.25 6.27 8.06 10.92 8.45 18.75 15.03 2.07 1.74 12.07 10.45 14.75 11.17 15.96 4.35 24.56-1.85 36.28-11.69 18.51-15.53 39.67-28.59 48.76-48.01 1.79-3.82 15.65-17.69 17.59-21.29 1.81-3.33 5.59-7.53 5.45-8.9-1.91-18.1-3.44-32.36-6.53-47.8a119 119 0 0 0-4.54-15.15z" class="uuid-5d947b98-fbdc-4f9d-8b93-3c7c9a794979"/><path d="M894.01 843.77c-8.97-4.11-8.44-31.01-8.98-39.89-.85-14.05 2.82-30.76-.17-44.32-2.21-10-9.63-18.98-12.31-29.11-2.65-10.07-5.23-20.15-7.9-30.27-7.23-27.44-16.24-45.82-28.89-78.03s-17.33-45.11-27.86-63.35c-5.14-8.9-6.46-16.05-11.55-24.87-6.96-12.05-16.46-24.37-23.46-36.49-7.34-12.71-11.07-31.13-14.52-45.25-1.38-5.64-4.74-10.72-6-16.44-4.62-20.98-9.85-40.27-10.36-62.13-.21-9.29-4.61-22.11-1.7-31.12 3.24-9.99 13.37-15.52 19.12-23.91 9.94-14.49 11.2-33.49 14.49-50.21 2.11-10.7 6.5-21.92 6.24-32.91-.25-10.77-9.08-18.29-7.58-29.15 1.82-13.21 11.27-27.33 19.61-24.51s10.18 3.84 11.97 5.71c6.54 6.85 6.69 8.74 11.63 16.85 5.24 8.61 19.07 17.04 23.67 23.31s8.03 9.09 8.4 16.37c.53 10.6 4.13 21.13 7.62 31.42 3.33 9.83 7.12 21.67 6.23 32.39-.65 7.9-7.53 22.87-10.28 29.96-8.01 20.57-16.55 38.91-17.15 51.43-.48 10.08 12.04 10.01 16.34 18.58 7.9 15.74 17.1 30.59 26.68 45.23 8.43 12.88 20.4 24.09 27.82 37.47 4.9 8.83 9.08 11.68 15.94 19.19 11.1 12.14 22.96 26.72 33.12 39.81 10.08 12.98 19.24 24.67 29.84 37.17 15.53 18.31 31.13 34.66 44.71 54.48 6.99 10.2 18.58 23.81 25.52 33.95 15.28 22.31 35.3 44.08 48.74 67.35 12.05 20.85 15.32 46.46 13.18 69.54-.9 9.78-3.86 26.37-4.48 33.9-1.62 19.73.26 28.58-12.89 46.62-4.1 5.62-7.86 8.53-13.7 11.76-7.49 4.15-12.77 6.38-21.48 8.3-10.12 2.23-29.89 1.25-39.78-.49-22.21-3.91-58.31-24.54-89.09-45.64-6.2-4.25-9.82-6.08-21.48-12.69-9.03-5.13-12.75-7.02-19.28-10.01zm-317.4-279.96c4.62 6.75 7.78 12.27 10.85 19.75a974 974 0 0 0 18.31 42c4.55 9.71 9.37 26.54 21.07 30.35 7.08 2.31 14.68-10.2 16.45-15.62 6.7-20.55 10.7-42.11 16.55-62.9 1.72-6.13 6.58-20.11 2.39-25.8-8.63-11.69-22.16-12.76-35.7-13.44-11.71-.59-20.37-1.9-31.34 4.32-5.74 3.25-24.02 13.39-18.57 21.34z" class="uuid-5d947b98-fbdc-4f9d-8b93-3c7c9a794979"/><path d="M497.81 324.3c-8.02-10.47-13.1-30.11-15.38-43.27-1.11-6.41-2.71-22.63-3.58-29.05-1.08-8.01-4.55-5.75-4.44-13.88.18-13.11 3.88-23.85 9.59-35.46 1.36-2.76.94-6.26 1.39-9.19a40 40 0 0 1 9.38-20.25c2.68-3.06 7.08-5.08 10.61-6.97 11.76-6.32 25.29-10.78 38.37-13.46 11.23-2.3 19.29-.01 28.94 5.13 5.31 2.83 15.5 10.49 21.39 12.86 6.45 2.59 9.9 1.81 16.79.81 2.75-.4 6.28-1.53 9.12-1.1 6.38.97 9.19-1.01 16.6 2.71s22.23 2.18 30.28 4.6c9.43 2.83 18.16 10.88 27.97 12.68 8.72 1.6 12.49.99 20.74 3.47 3.31 1 6.78 5.7 8.86 8.21 2.48 3.01 6.8 4.59 9.22 7.71 2.98 3.86 7.81 10.29 9.19 14.82 1.33 4.36 2.28 7.65 3.74 11.94 1.92 5.62.82 15.16-.22 20.86-2.79 15.21-5.97 26.4-12.07 40.73-6.22 14.61-16.12 29.16-27.32 32.99-9.47 3.24-20.57-1.24-33.06-2.9-12.49-1.65-35.55-7.03-52.26 1.95-5.05 2.72-16.16 5.38-18.04 11.63-1.32 4.4 2.21 10.11 6.09 10.13 7.76.04 16.64 17.46 24.92 21.54 2.56 1.26 5.53-3.92 7.61-2.07 5.16 4.57 10.19 5.77 14.06 7.39s-6.1 10.82-9.47 13.22c-1.75 1.24-4.3 4.87-9.57 5.46s-12.84-6.76-25.55-4.9c-42.63 6.25-71.49 133.21-42.34 157.62 14.6 12.22 18.2 19.49 26.28 21.57 42.3 10.89 65.46-26.72 68.4-25.32 7.66 3.64 19.57-12.81 22.62-12.46 14.66 1.71 31.86-37.76 33.31-38.34 10.09-4.07 13.25-30.69 13.85-30.71 3.07-.09 11.13-10.79 11.96-21.72 1.15-15.35-4.71-30.08-6.94-36.72-3.17-9.41 4.25-1.41 5.96-14.34 4.81-36.44-6.52-42.99-3.8-47.81 6.39-11.31 9.43-13.06 11.58-23.74 1.92-9.56 4.82-19.82 7.64-29.22 4.7-15.62 18.9-25.44 23.73-41.48 3.86-12.86 2.04-29.23-6.35-40.08-2.61-3.38-6.37-6.38-7.81-10.59-1.03-3.02.24-6.87-.29-9.98-1.53-8.81-7.35-19.98-12.63-27.42-16.49-23.21-45.94-17.1-70.12-24.37-7.93-2.38-16.35-5.53-24.66-6.59-14.59-1.86-29.31-.35-43.86-3.02-22.04-4.04-44.47-7.48-66.96-7.49-7.55 0-15.31-1.39-22.85-1.65-15.74-.55-32.47 3.61-46.99 9.22-13.18 5.1-23.59 15.77-33.02 25.78-5.23 5.54-4.86 12.73-5.9 19.65-2.71 17.9 12.47 33.71 18.33 49.69a40.7 40.7 0 0 1 1.71 21.92c-1.64 8.02-3.31 14.84-4.11 22.81-.6 6.03-1.36 16.56-.54 21.09 3.72 20.55 5.86 34.62 19.65 51.29 6.24 7.55 27.76 11.64 30.02.52 1.38-6.77-6.32-11.92-9.77-16.44z" class="uuid-18537f84-18af-4747-8c80-079b59c1544b"/><path d="M607.91 339.88c-4.94-.48-8.84-5.05-13.5-7.6-9.15-5.02-25.47-11.4-36.08-10.67-4.97.34-11.82 2.15-16.76 2.89-14.45 2.16-28.3 7.16-43.81 2.46-5.53-1.67-13.4-6.41-15.6-12.16-1.31-3.41 1.05-7.24-.16-10.41-.74-1.92-3.49-1.47-4.95-.14-7.34 6.72-3.67 19.48-2.81 28.01.69 6.83-2.98 15.13-4.57 21.64-2.3 9.45-1.93 22.08-1.51 31.59.39 8.69 4.58 17.84 8.25 25.55 1.52 3.2 4.06 7.01 4.59 10.55.89 5.97-3.15 9.59-3.13 15.67.03 10.89-.76 21.08.56 31.87 4.34 35.4 40.82 62.17 72.46 71.75 12.54 3.8 23.81 15.25 38.89 18.75 7.4 1.71 7.48-7.65 8.32-11.64 2.2-10.44 6.21-20.51 8.88-30.85 2.44-9.4 6.09-18.45 8.59-27.79 2.51-9.37 1.45-19.61 3.92-28.8 1.62-6.06 1.95-13.76 1.66-20.04-.74-16.21-.25-31.28-6.14-46.62-1.66-4.33-12.01.32-14.7 1.1-9.87 2.88-20.22 0-28.67-5.3-2.3-1.44-7.11-4.38-7.42-7.45-.19-1.89 5.95-3.13 7.38-3.77 5.28-2.37 9.6-5.7 15.07-7.8 2.61-1 5.36-5.08 7.57-6.9 4.25-3.5 8-5.66 12.22-9.14 2.64-2.17 7.48-1.55 9.58-3.28 1.17-.96-.23-3.38-.71-4.28-1.72-3.22-3.56-6.8-7.44-7.18z" class="uuid-18537f84-18af-4747-8c80-079b59c1544b"/><path d="M474.11 483.85c-7.07 1.11-12 2.64-18.71 4.57-12.25 3.51-25.36 10.31-37.79 12.71-32.8 6.33-63.02 19.21-97.25 29.92-33.95 10.62-54.86 43.95-71.47 74.64-14.89 27.49-27.4 63.33-30.49 83.32-1.9 12.33-4.51 33.14-9 44.83-3.24 8.43-8.13 28.41-13.03 38.08-2.53 4.99-.21 6.64 2.27 13.3 9.12 24.55 17.38 42.95 26.52 67.54 8.6 23.14 16.32 42.69 27.35 64.59 9.9 19.67 13.41 48.44 18.44 63.06 8.27 24 14.3 52.39-4.37 73.98-11.78 13.62-9.75 16.46-17.74 28.75-1.7 2.61-20.91 15.56-20.41 18.65 1.38 8.65 8.59 6.05 12.43 4.21 3.05-1.46 6.32-3.59 10.2-4.08 10.79-1.36 21.87-2.14 27.76-17.84.62-1.66 9.87-2.99 12.79-6.11 2.59-2.78 6.99-5.41 8.59-8.93 1.41-3.11 1.92-9.28 4.16-11.8 5.87-6.59 15.38-11.7 17.3-20.69 5.15-24.08-6.93-43.53 3.73-72.13 2.51-6.73 6.57-15.03 10.74-23.97 1.05-2.26 4.81-10.88 7.02-8.12 6.3 7.83 10.55 30.18 12.04 39.56a401 401 0 0 1 5.14 59.96c.26 25.3.4 40.24-1.4 65.59-1.75 24.63-1.68 39.8-7.01 69.24-2.65 14.66 6.79 45.65 10.09 59.98 4.75 20.66-3.97 29.05 5.27 39.4 11.22 12.57 27.36 37.83 55.43 33.03 24.7-4.23 40.65-5.77 56.87-2.74 38.08 7.12 38.47 14.78 77.19 17.73 20.22 1.54 47.86-7.22 78.06-1.41 12.34 2.37 27.8-4.72 46.6-9.13 32.15-7.56 42.33-8.55 64.36-12.18 16.8-2.77 25.88-7.35 46.99-20.38 5.52-3.41 26.29-11.89 31.5-15.11 12.43-7.67 16.5-6.58 29.6-12.73 4.27-2.01 15.16-9.43 22.02-11.39 12.49-3.58 29.97-5.26 33.81-17.46 8.03-25.47 1.18-48.55-3.33-74.2-8.69-49.44-19.3-96.53-21.95-146.67-1.73-32.72-1.38-100.95 2.83-117.79.89-3.58 8.61-.46 16.59-2.92 7.31-2.26 15.22-3.49 16.14-11.99.66-6.18-21.37-11.9-26.15-16.36-8.35-7.8-7.5-32.85-7.84-42.65-.48-14.31.14-26.77.77-37.01.67-10.87-7.28-19.84-12.53-34.39-5.25-14.54-16.61-47.12-23.52-69.18-4.57-14.6-11.42-28.38-16.77-44.81-5.35-16.42-14.6-35.53-22.17-49.48-11.96-22.01-15.01-40.72-32.36-58.96-8.03-8.44-11.91-17.75-17.02-27.16-1.28-2.36-2.26-9.85-6.59-16.17-2.78-4.05-11.35-11.42-13.7-8.13-1.63 2.28-4.28 4.69-5.03 5.8-9.19 13.59-18.28 27.84-27.51 41.49-9.92 14.66-21.28 30.93-36.37 40.52-15.12 9.61-23.46 14.15-29.24 26.78-6.2 13.53-10.96 27.3-17.16 40.82-.6 1.31-2.87 11.67-3.61 11.59-4.37-.47-7.87-13.35-9.28-17.12-3.54-9.52-7.8-12.63-13.39-22.46s-12.9-18.51-17.86-22.12c-8.98-6.54.29-1.72-15.41-13.36-15.81-11.73-22.04-7.95-32.85-15.78-5.17-3.74-14.84-5.82-19.8-9.8-5.58-4.47-10.12-8.07-17.09-14.97S487 494.3 482.63 486.26c-2.39-4.39-4.03-3.09-8.57-2.38z" class="uuid-9f52520b-79c5-490c-93d7-9740a52b6483"/><path d="M470.31 337.07c-4.2-.17-11.13-13.92-16.23-21.06-12.35-17.29-14.72-40.58-12.15-61.18 1.29-10.32 7.31-29.79 12.65-34.15 1.08-.88 4.16-4.74 6.04-3.79.86.43 1.13 2.18 1.23 3.09.38 3.46 1.08 7.26 2.69 10.46 4 8-1.73 21.41-3.76 29.51-2.59 10.37-2.67 21.88-1.61 32.46 1.07 10.7 4.41 21.54 7.78 31.66 1.01 3.05 6.63 13.14 3.35 13.01zm315.4-99.11c-1.28-3.08-2.46 3.02-4.27 5.39-3.22 4.22-7.87 7.27-11.35 11.33-15.33 17.9-11.32 41.31-17.94 62.73-1.98 6.41-5.22 11.46-7.65 17.44-.44 1.08-2.24 6.05-.15 6.45 1.78.34 4.32-2.93 5.58-3.79 5.85-3.96 11.02-9.78 15.59-15.11 14.14-16.51 21.15-38.44 22.54-59.96.57-8.86 1.02-16.4-2.34-24.48z" class="uuid-809b4e64-be60-4b88-8911-58d53b5024ca"/><path d="M468.31 397.62c.05-1.62 5.38 6.73 6.7 9.37 3.96 7.92 5.19 16.45 4.8 24.64s1.18 56.08 1.18 85.76c0 13.36 5.88 31.27 9.07 44.04 7.6 30.4 29.18 59.29 51.3 81.41 4.32 4.32 11.97 10.94 16.35 15.32 12.21 12.21 25.82 21.5 36.59 34.96 10.59 13.24 23.75 29.32 30.68 42.65s6.95 13.77 12.97 15.28c4.21 1.05 7.46-12.04 8.23-15.09 1.78-7.13 7.21-15.75 11.71-21.75 5.6-7.46 11.6-18.47 18.59-28.84 6.98-10.33 12.49-17.58 18.76-28.03 5.87-9.79 14.65-18.47 20.63-28.44 6.64-11.06 12.51-20.21 19.06-34.34 6.55-14.12 6.74-15.13 11.25-28.61s4.27-15.48 6.55-26.88c5.44-27.21 3.84-55.69 3.84-83.57 0-12.43-1.89-25.29-3.9-37.35-.9-5.43-4.9-18.68-6.22-23.97-2.31-9.25.08-8.91.08-18.97s-2.59-18.71-5.02-28.43c-.5-1.98-.04-11.92 4.46-8.92 4.33 2.89 5.44 16.81 6.69 21.19 7.36 25.78 7.69 52.96 10.19 79.74 3.2 34.34 5.42 50.31 2.31 78.21-1.44 12.98-2.52 27.04-5.33 39.7-5.08 22.86-11.44 34.06-22.15 55.48-6.06 12.12-17.21 32.17-25.72 42.38-14.21 17.05-26.29 36.81-39.03 54.64-9.37 13.11-16.22 28.89-17.84 45.16-.94 9.38 1.33 18.98-2.23 27.88-1.57 3.92-1.04 8.67-3.06 12.05-.86 1.43-10.33 8.9-10.68 4.4-.57-7.16-4.1-9.65-4.93-11.49-3.03-6.66-3.85-9.15-6.37-15.88-7.83-20.88-18.58-40.42-31.56-58.58-14.31-20.04-25.66-28.32-52.68-55.39-22.25-22.3-40.49-45.34-53.51-74-9.19-20.22-14.55-42.61-17.63-66.06-3.16-24.13-1.72-52.31-3.95-74.54-1.68-16.77-.58-33.03-.19-45.11z" class="uuid-809b4e64-be60-4b88-8911-58d53b5024ca"/><path d="M460.61 216.41c.16-4.35 2.52-14.67 4.1-24.64s-.55-15.98 3.54-22.47c3.25-5.16 4.57-8.31 9.04-12.13 27.47-23.49 85.27-26.15 111.14-20.78a600 600 0 0 1 23.94 5.48c4.46 1.11 11.45 6.69 16.2 6.21 5.4-.54 11.17-4.71 16.85-5.38 9.52-1.11 20.38.59 29.82 2.78 15.03 3.48 23.7 12.3 39.23 15.63 4.14.89 12.07.02 16.17-1.6 5.72-2.25 5.6-7.66 13.4-5.36 3.01.89 3.52 4.65 5.14 6.83 3.43 4.6 8.27 5.54 11.92 11.31 7.92 12.54.16 28.96 8.33 34.15 4.41 2.8 5.58 1.95 5.83-2.58.28-5.3 3.03-18.18 9.78-20.41 4.52-1.5 8.46-.95 13.1.2 4.47 1.11 8.72 9.83 11.24 13.2 3.08 4.13 4.76 5.92 5.76-.91.23-1.56-.68-4.09-.75-5.66-.09-2.42-2-6.86-3.37-8.87-8.75-12.8-17.38-24.61-31.6-30.8-3.38-1.47-12.62-5.31-16.62-6.39-2.46-.66-1.41-3.15-1.38-4.21.1-5.03-2.85-10.04-2.46-15.12 1.15-14.77.89-29.23-3.79-43.37-4.01-12.13-9.18-20.14-17.2-29.88-3.98-4.84-8.81-9.57-14.73-12.15-13.07-5.69-25.78-9.57-38.56-16.34-8.47-4.49-14.66-11.64-22.73-16.47-11.31-6.77-27.57-5.22-39.63-1.78-18.11 5.18-34.6 13.58-52.36 19.9-11.38 4.06-17.88 3.11-27.15 11.2-10.11 8.83-22.43 23.29-29.93 34.08-6.27 9.01-18.24 24.02-24.09 24.98s-13.63-1.05-21.56 1.12c-13.86 3.8-28.14 9.04-37.27 20.5-14.84 18.63-24.18 45.42-23.72 58.05.45 12.63 0 17.42 3.72 25.7 5.25 11.68 13.57 27.12 26.23 32.31 2.01.83 5.74 6.92 8.02 6.7 1.21-.12 2.88-7.46 3.65-8.64 7.18-11.07 12.58-10.04 12.74-14.39z" class="uuid-000521f4-f764-4beb-9a3a-437546a2798c"/><path d="M492.31 94.7c5.81-11.28 14.89-7.86 24.6-6.48 8.14 1.16 25.02-.67 33.27-.93 21.02-.65 34.76-2.31 56.09-.37 16.46 1.5 34.07 2.19 50.18 6.8 8.95 2.56 17.87 6.17 26.87 8.42 11.05 2.76 20.98 8.6 31.4 12.95 10 4.17 21.49 8.93 30.44 14.89 4.42 2.95 8.89 5.33 12.63 9.07.58.58 3.18 3.62 2.26 4.53-1.63 1.63-9.32-1.01-11.01-1.3a538 538 0 0 0-29.14-4.21c-25.27-2.81-51.14-4.46-76.08-9.71-20.08-4.23-33.61-13.19-53.55-17.79-20.35-4.69-47.13-6.97-67.22-11.99-7.22-1.81-14.5-1.48-21.69-2.91-1.5-.3-9.8.46-9.06-.97zm101.7 150.77c-.69 3.23-2.68 7.19-4.59 9.88-.58.81-1.83 2.75-3.09 2.25-2.2-.86-2.03-6.57-2.08-8.69-.13-5.07-3.9-9.14-7.39-12.26-4.82-4.3-12.73-6.59-18.9-7.72-20.62-3.79-51.78.57-59 24.19-2.15 7.02 3.35 14.77 5.54 21.12 2.49 7.22 6.33 11.58 11.52 16.9 2.89 2.97 5.75 6.67 9.48 8.6 12.87 6.65 24.39 8.14 37.83 3.02 9.85-3.76 15.85-17.56 18.13-26.97.88-3.63.15-12.13 3.41-14.33 6.36-4.29 5.8 5.95 4.9 9.21-2.78 10.05-7.29 20.62-14.39 28.57-3.31 3.7-8.49 6-13.05 7.9-19.94 8.28-43.41 1.98-56.3-15.68-5.54-7.6-8.19-16.58-13.06-24.57-1.7-2.79-3.37-5.23-5.72-7.46-1.98-1.88-4.96-2.9-6.46-5.23-1.49-2.32-.94-5.33-1.58-7.91-.48-1.93-1.65-4.44-1.34-6.47.95-6.12 7.61-4.99 12.36-6.05 3.65-.81 7.02-2.44 10.34-4.1 16.46-8.2 32.7-16.06 51.88-13.5 9.36 1.25 16.88 5.6 24.65 10.28 7.21 4.34 18.92 9.57 16.9 19.03z" class="uuid-90234704-7cbf-4c02-9690-2f04d509ede7"/><path d="M593.81 244.89c-.48-.75-1.94-1.95-2.11-2.56-.83-3.15-1.35-5.94 1.03-8.6 4.93-5.52 14.5-4.71 21.31-3.95 3.41.38 8.71 1.17 9.35 4.98.55 3.28-1.07 6.58-1.83 9.73-.07.29-1.12 3.16-1.34 3.07-.67-.26-1.55-1.81-2.13-2.36-2.92-2.78-6.83-5.32-11.02-5.09-3.03.17-5.39 1.63-7.59 3.51a13 13 0 0 1-3.32 2.18c-1.32.57-1.63.22-2.36-.92z" class="uuid-90234704-7cbf-4c02-9690-2f04d509ede7"/><path d="M626.11 250.53c.08 1.35-.85 3.47-2.46 3.52-2.6.09-6.16-8.31-6.4-10.37-.33-2.87 5.61-10.58 7.52-12.17 6.99-5.79 13.44-9.31 22.01-12.72 15.19-6.04 29.4-3.92 44.18 2.45 9.31 4.01 16.36 10.4 26.54 11.96 9.13 1.4 28.39-7.06 30.26 5.59.26 1.79-2.9 2.68-3.97 2.67-3.94-.04-6.93.08-10.95.76-4.37.75-2.31 5.32-4.15 8.11-2.61 3.94-7.54 4.81-10.66 8.23-3.67 4.02-2.38 8.28-4.41 13.13-2.86 6.83-7.76 14.08-11.8 20.18-10.14 15.33-36.63 20.51-52.48 14.5-5.13-1.95-10.62-4.45-14.65-8.56-6.34-6.47-12.83-19.25-14.49-28.02-.39-2.07-1.92-11.98 2.67-10.68 2.5.71 3.08 6.85 3.78 9.04 1.99 6.17 5.99 16.31 11.08 20.86 7.34 6.55 14.06 12.21 23.12 12.84 24.78 1.71 48.1-20.57 47.61-45.23-.39-19.27-22.15-30.81-39.35-31.39-6.15-.21-11.94.99-17.82 2.25-10.61 2.29-25.96 10.28-25.19 23.06zM65.84 648.49c-1.48-2.4-7.83-.33-9.12 1.95-1.43 2.54-1.01 7.04.34 9.52 1.52 2.77 4.76 3.49 7.57 2.69 2.14-.61 4.04-2.1 4.76-4.22 1.43-4.22-1.67-6.87-3.56-9.94zm5.89 21.6c-2.52-1.27-5.64 2.97-6.33 5.32-1.46 5-1.38 12.67 3.59 15.47 2.26 1.27 5.51 2.64 8.09 2.01 4.76-1.16 8.99-7.46 6.78-13.09-2.24-5.71-7.36-7.31-12.13-9.72zm20.53 17.27c.4-.38-1.57 2.09-2.03 2.67a8.6 8.6 0 0 0-1.78 5.21c-.03 5.13 3.55 10.19 8.5 11.57 11.11 3.11 16.09-7.97 9.61-16.42-1.99-2.6-5.54-5.03-8.95-4.74q-1.68.12-3.22.78c-.11.05-2.53 1.28-2.15.93zm24.85 9.8c-4.27 1.85-3.16 6.55-.28 9.77 1.67 1.88 3.95 3.25 6.1 3.26 5.04.03 7.22-3.82 6.83-7.69a8.6 8.6 0 0 0-4.72-6.9c-3.99-1.89-5.04.32-7.92 1.56zm17.83-2.83c-.27 6.66.89 13.15 7.54 16.52 5.93 3.01 19.43.9 20.41-7.38.61-5.21-3.39-9.82-8.44-12.44-4.59-2.37-10.05-3.09-13.71-1.09-1.79.98-5.7 2.27-5.79 4.38zm27.77-6.53c-.84 4.94 3.52 7.17 7.9 6.9 3.48-.22 6.98-2.03 7.9-5.33.57-2.03-.24-4.48-1.74-6.43-1.67-2.18-4.2-3.73-6.64-3.4-4.09.56-6.82 4.7-7.42 8.26m5.01-18.66c1.95 2.63 3.69 4.71 7.27 4.26 4.78-.59 11.69-7.16 8.25-12.4-1.89-2.87-5.7-3.19-9.19-2.09-2.51.79-4.85 2.31-6.19 4.15s-1.68 4.02-.14 6.08m601.79-181.68c9.05-.14 17.8-3.77 25.28-7.68 20.28-10.61 30.47-27.05 41.7-46.01 3.43-5.8 8.72-16.57 8.39-23.35-.15-3.12-1.4-5.94-1.29-9.05.05-1.44-1.56-3.52-1.18-4.74.43-1.4 3.76.32 4.23.76 4.56 4.13 5.55 10.69 9.63 15.09 2.47 2.66 6.81 4.43 7.9 8.18 1.8 6.16 2.66 11.86.81 17.75-1.95 6.23-5.16 11.51-7.63 17.68-1.92 4.81-8.25 14.05-11.5 17.89a136 136 0 0 1-14.05 14.81c-9.68 8.99-23.09 19.72-36.41 22.74-4.39.99-7.88 3.33-12.02.71-3.92-2.5-7.02-8.23-9.55-12.03-1.58-2.36-9.45-12.68-4.33-12.77zm14 25.6c-7.07-3.98-12.87.71-15.32 7.39-2.28 6.22-1.68 14.16 3.47 18.44 3.11 2.59 8.33 1.04 10.04-2.38 1.44-2.88 3.56-7.39 4.62-11.77 1.17-4.85 1.03-9.53-2.8-11.69zm9 25.25c-1.45 1.33-2.66 6.11-2.88 7.8-.96 7.45 6.02 18.41 14.54 16.55 2.16-.47 4.45-3.54 5.75-5.28 4.69-6.31 6.88-16.25-1.5-21.25-6.26-3.73-11.74-1.66-15.91 2.18m28.2-.26c-1.72 4.31-1.63 10.8 1.83 14.81 4.47 5.19 15.79 7.01 18.04-1.35 1.16-4.33 1.73-10.68-.9-14.71-2.54-3.89-5.65-5.98-8.68-6.36-4.11-.52-8.08 2.09-10.28 7.62zm26.8-13.33c-1.73 2.36-1.61 6.23-.66 8.42 2.33 5.31 11.09 8.58 15.6 4 2.8-2.84 3.69-5.69 3.31-8.16-.47-3.07-2.88-5.58-6-6.84-4.4-1.78-8.5-2.52-12.26 2.59zm15.4-20.36c-.34-1.42.61 3.4 1.16 4.66 1.31 2.99 4.87 6.07 7.33 8.12 5.52 4.6 17 1.84 18.98-5.54 2.09-7.79-4.13-19.33-12.89-18.53-4.37.4-9.46 2.65-12.68 5.55a5.8 5.8 0 0 0-2.17 4.23c-.05.88.46 3.48.38 2.6-.03-.36-.01-.73-.1-1.09zm13.5-22.03c2.09 3.25 3.07 4.53 5.56 5.5 7.11 2.78 16.01-4.5 14.35-12.07-.66-3.04-4.33-5.4-8.39-6.48-4.17-1.11-8.77-.87-10.97 1.37-1.85 1.88-2.57 8.54-.55 11.69zm3.6-32.04c-.96-.5 1.5 1.7 2.53 2.04 3.18 1.06 7.88 1.13 10.59-1.11 5.84-4.83 4.45-14.15-1.32-18.56-4.38-3.33-14.04-2.43-15.39 3.97-.75 3.59.45 6.77 1.87 10.01.37.85 2.03 3.81 1.72 3.65m-9.7-22.44c3.89 1.26 6.33 1.8 8.29-1.02 1.6-2.29 4.12-6.75 3.74-11.32-.33-3.88-1.75-7.34-4.94-8.26-10.76-3.12-13.31 9.37-10.77 16.8.45 1.31.6 2.81 3.68 3.8" class="uuid-90234704-7cbf-4c02-9690-2f04d509ede7"/><path d="M370.11 1272.17c.95-1.41 4.34 3.5 5.88 5.05 5.42 5.46 13.22 13.33 20.79 15.48 4.41 1.26 8.92 3.86 13.28 4.46 19.46 2.72 39.08-2.96 58.82-2.02 17.45.83 55.08 16.19 81.22 17.79 13.59.83 24.34.31 37.78-1.27 4.55-.54 9.08-1.78 13.64-1.76 13.3.04 26.68 2.12 40.07 1.52 19.97-.89 39.47-7.97 59.52-12.85 16.44-4 33.76-4.1 49.73-8.18 15.61-4 34.85-13.43 50.28-22.11 17.51-9.86 32.84-14.25 50.48-23.59 11.04-5.84 24.91-14.01 37.1-17.02 4.05-1 9.68-1.32 13.86-.04 4.48 1.38 5.64 5.75 6.63 9.76 2.33 9.44 1.96 19.92 4.38 29.74 4.53 18.36 9.54 37.96 17.03 55.34 2.36 5.47 3.68 12.43 4.91 18.21 2.3 10.76 3.19 14.09 5 21.99.49 2.16 2.08 4.46 2.07 6.67-.02 6.01 3.16 13.69 2.32 19.7-1.64 11.75-22.3 18.33-30.69 22.77-38.22 20.23-76.77 40.77-117.6 55.61-27.78 10.09-59.98 19.56-89.85 20.89-30.89 1.37-61.4-4.95-91.95-8.15-54.53-5.7-107.53-15.62-161.29-25.67-29.93-5.59-57.06-15.37-84.62-28.11-6.29-2.91-12.14-6.03-18.27-9-3.13-1.52-7.51-1.86-9.33-5.3-1.5-2.83.42-6.42 1.13-9.14 2.4-9.33 3-19.18 4.76-28.62 2.53-13.51 3.86-27.11 6.89-40.54 2.32-10.31 6.61-20.14 8.94-30.5 2.33-10.3 1.24-22.37 7.11-31.1z" class="uuid-809b4e64-be60-4b88-8911-58d53b5024ca"/><path d="M134.2 317.55c-3.54-.36-7.19.27-9.47 1.7-4.17 2.62-6.69 8.92-10.03 12.57-9.18 10.04-19.85 15.09-33.2 16.39-6.85.67-18.56.08-24.16-4.52-3.62-2.97-9.16-8.55-14.27-8.9-4.05-.28-9.4 1.17-12.71 3.25-2.56 1.61-5.18 2.26-7.35 4.52-8.46 8.82-7.4 20.72-4.24 32.63 3.75-2.75 6.66-4.38 8.9-3.96 2.36.45 3.47 2 4.52 5.09 1.26.69 1.35 3.18 1.27 3.39.44 1 .96 1.95 1.55 2.54 2.3 2.3 3.72 6.2 4.66 10.46 1.8-3.03 3.97-4.56 7.35 0 4.95 6.68 7.93 15.99 7.91 24.3 0 3.3-1.57 7.24-.71 10.45 1.09 4.07 6.81 8.17 9.04 11.73 6.58 10.47 5.52 27.12 4.1 38.85-1.19 9.75-3.48 21.48-7.63 30.23-2.12 4.45-4.74 9.14-5.09 14.27-.49 7.2 1.89 14.15 4.1 20.9a304 304 0 0 1 8.76 33.48c.93 4.64 2.06 11.23 6.5 14.13 8.32 5.42 20.1 4.45 29.52 3.53 11.95-1.17 23.91-5.59 35.17-9.61 11.02-3.93 23.11-5.7 34.47-8.48 8.59-2.09 16.12-5.08 24.3-8.2 2.79-1.06 6.41-1.12 7.49-4.52.74-2.31-.19-5.59-.42-7.91-.81-8.25-2.11-16.53-5.51-24.15-4.57-10.25-4.67-21.69-8.62-32.07-2.83-7.45-7.67-15.44-9.75-23.17-2.53-9.41-6.29-17.41-6.5-27.55-.13-6.17 2.98-13.09 1.56-18.93-.76-3.09-2.88-6.29-3.96-9.33-5.22-14.63-8.49-30.89-11.02-46.19-2.32-14.04-5.69-29.86-11.16-42.94-1.74-4.18-4.14-6.31-6.78-10.03-1.67-2.36-5.08-3.6-8.62-3.96z" class="uuid-acb0e4d4-8bfd-4077-900b-f3d125ad9460"/><path d="M32.38 336.57c3.15-1.1 6.1-2.25 9.7-2.04 6.34.38 8.48 8.25 13.53 11.05 9.66 5.34 21.59 5.83 32.8 2.82 7.29-1.96 20.18-5.19 24.94-11.49 3.06-4.05.95-9 5.68-11.7 4.4-2.51 16.45-2.92 20.67-1.49 8.07 2.72 10.21 13.39 12.16 20.68 5.31 19.75 9.74 40.13 15.88 59.74a367 367 0 0 1 5.42 19.2c.25.98 1.62 7 3.01 6.81 11.12-1.55 2.71-19.45.58-25.55a342 342 0 0 1-7.73-25.96c-3.58-14.09-7.61-25.78-11.4-39.87-1.9-7.07-1.84-20.13-8.3-25-2.4-1.81-6.41-1.18-9.39-.76-8.1 1.13-15.71 1.7-23.83 2.83-26.23 3.65-53.89 7.52-79.07 14.76-9.52 2.74-18.81 2.32-25.59 11.29-1.38 1.83-4.41 8.29-4.21 10.52.43 4.91 4.51 20.79 6.54 25.03.82 1.71 7.35-1.49 6.82-3.74-3.23-13.54-3.56-20.07-1.2-25.75s6.8-9.23 13-11.39zm22.7 176.4c-10 4.76-5.91 13.3-4.02 21.98a344 344 0 0 0 13.83 46.91c2.25 6.04 4.11 16.45 10.55 19.65 7.63 3.78 17.98 1.28 26.12.34 12.98-1.5 30.52-3.67 42.98-8.63 7.63-3.04 18.93-7.3 27.56-7.45 5.13-.09 6.58-1.92 15.74-4.15s10.33-1.86 13.48-3.42c3.39-1.68 8.45-2.4 10.86-5.5 3.26-4.18 2.36-10.42 1.73-15.33-1.58-12.32-5.75-23.06-8.36-35.08-1.61-7.4-1.95-18.07-7.87-22.88-.68-.55-5.75-5.54-6.32-4.65s.48 4.86.51 5.67c.16 4.06 1.64 7.64 3.45 12.51 1.37 3.69 3 10.44 3.8 14.13 2.73 12.53 8.26 29.72-1.07 40.51-2.82 3.26-13.61 5.14-17.51 5.98-7.09 1.54-13.83 5.61-21.01 6.51-11.01 1.37-18.8 6.81-29.51 9.56-9.17 2.36-21.83 2.34-31.12 4.37-5.47 1.19-11.03.61-16.64 0-5.04-.54-8.11-10.7-9.67-14.53-5.91-14.42-11.22-31.28-12.63-46.93a124 124 0 0 0-2.24-14.71c-.48-2.19-.41-5.91-2.63-4.85z" class="uuid-18537f84-18af-4747-8c80-079b59c1544b"/><path d="M187.51 586.62c1.25 4.65 3.21 10.73 3.42 17.95.12 4.16-2.89 9.33-2.77 13.45.23 7.78 3.06 16.91 3.25 21.55.62 15.91-1.01 29.04-2.73 46.68-1.73 17.64-4.18 43.27-6.31 64-5.47 53.25-5.87 80.29-4.69 121.36.47 16.41 1.33 33.41 1.8 49.69.31 10.8.53 19.15 3.44 31.78s4.02 23.51 6.14 31.03c4.42 15.68 9.11 32.96 16.6 48.91 14.34 30.55 28.83 52.54 59.8 76.77 11.38 8.9 20.1 11.16 33.92 16.95 13.82 5.8 24.79 7.6 32.86 10.12 15.79 4.93 43.97 8.64 60 4.61 7.34-1.85 18.87-2.71 25.5-5.82 16.56-7.78 33.21-15.14 47.35-26.72 21.83-17.87 47.78-48.7 60.05-65.09 12.28-16.39 22.47-27.98 31.96-41.66 17.82-25.69 32.85-69.01 48.14-109.59 10.35-27.47 10.41-50.06 22.43-87.28 1.6-4.96-8.42-33.7 1.37-32.87 10.73.91 21.07 16.5 18.27 23.25-4.2 10.12-11.08 20.8-15.81 37.77-5.53 19.83-8.46 39.1-16.07 58.58-15.67 40.07-29.62 82.78-53.41 118.9-33.9 51.48-72.63 85.38-88.03 100.88-8.93 8.99-15.08 12.55-24.77 18.22-12.11 7.07-30.99 14.47-44.2 19.18-21.52 7.68-40.2 6.44-61.37.71-35.75-9.67-55.1-15.07-79-30.37-21.97-14.07-35.27-29.25-50.95-49.54-17.78-23.02-21.7-43.91-30.43-71.04-20.29-63.11-20.45-140.38-16.6-206.08 1.35-22.98 7.35-51.23 9.84-74.01 3.07-28.12 6.64-59.38 5.34-72.58s-1.79-22.12-2.65-26.34-4.97-5.8-6.6-8.44c-2.76-4.48-4.9-16.51-5.02-22.5-.04-1.97 7.17-3.53 8.61-4.12 4.46-1.84 10.08-2.94 11.33 1.7z" class="uuid-809b4e64-be60-4b88-8911-58d53b5024ca"/><path d="M470.81 339.68c-.54 0-1.08-.19-1.51-.58-23.25-21.02-33.18-50.15-28.74-84.24l.19-1.46c1.58-12.21 3.37-26.04 13.9-35.1a2.26 2.26 0 0 1 2.95 3.43c-9.21 7.94-10.81 20.3-12.36 32.26l-.19 1.46c-4.24 32.56 5.19 60.32 27.29 80.3.93.84 1 2.27.16 3.19-.45.49-1.06.75-1.68.75zm275.5 3.79a2.25 2.25 0 0 1-1.15-4.2c27-15.88 41.05-55.91 39.04-85.44a2.26 2.26 0 0 1 4.51-.31c2.07 30.47-11.68 72.25-41.25 89.65q-.55.31-1.15.31zm-272.1-94.75h-.15a2.26 2.26 0 0 1-2.11-2.4l.11-1.68c.87-14.1 2.07-33.42 12.11-44.76a2.24 2.24 0 0 1 3.19-.19c.94.83 1.02 2.26.19 3.19-9.01 10.18-10.15 28.6-10.98 42.05l-.11 1.68a2.26 2.26 0 0 1-2.25 2.12zm-3.2-45.23q-.29 0-.58-.07a2.26 2.26 0 0 1-1.6-2.77c2.08-7.8 9.2-15.35 17.72-18.78a2.25 2.25 0 1 1 1.69 4.19c-7.26 2.92-13.3 9.25-15.03 15.75a2.26 2.26 0 0 1-2.19 1.68zm29.9-35.28c-.78 0-1.54-.4-1.96-1.13-3.03-5.24.07-12.84 2.67-18.1a2.27 2.27 0 0 1 3.03-1.02 2.25 2.25 0 0 1 1.02 3.03c-3.31 6.69-4.25 11.35-2.81 13.83a2.26 2.26 0 0 1-1.95 3.39m20.3-7.51a2.26 2.26 0 0 1-2.21-1.81c-1.36-6.6 8.04-16.02 12.18-18.42a2.26 2.26 0 1 1 2.27 3.91c-3.58 2.07-10.76 10-10.03 13.6a2.26 2.26 0 0 1-2.22 2.72zm82.3 13.75c-2.85 0-5.55-.42-7.85-1.55-1.14-.55-2.41-.98-3.68-1.42-2.12-.73-4.32-1.49-6.22-2.78l-3.39-2.34c-7.2-5.02-16.15-11.27-24.46-11.73-4.99-.29-8.67.75-12.97 1.92-2.12.58-4.3 1.17-6.71 1.64a2.3 2.3 0 0 1-2.65-1.79 2.27 2.27 0 0 1 1.79-2.65c2.29-.44 4.36-1.01 6.37-1.56 4.49-1.23 8.77-2.37 14.41-2.07 9.59.53 19.13 7.18 26.8 12.53l3.34 2.31c1.4.95 3.23 1.58 5.16 2.25 1.45.5 2.89 1 4.18 1.63 4.89 2.38 13.7.3 20.13-1.24 1.77-.42 3.42-.81 4.85-1.09a2.27 2.27 0 0 1 2.65 1.79 2.27 2.27 0 0 1-1.79 2.65c-1.37.26-2.95.64-4.66 1.05-4.77 1.13-10.29 2.45-15.31 2.45zm51.5 3.94q-13 0-22.04-6.11a2.26 2.26 0 0 1 2.54-3.74c11.7 7.92 29.66 7.03 53.39-2.65a2.25 2.25 0 1 1 1.7 4.18c-13.57 5.54-25.47 8.32-35.59 8.32" class="uuid-6412244f-c9e5-4364-84f6-f35a5c9a9f54"/><path d="M707.61 194.25c-10.93 0-20.54-4.7-30.53-9.59a211 211 0 0 0-11.12-5.18 2.27 2.27 0 0 1-1.21-2.96 2.27 2.27 0 0 1 2.96-1.21c3.92 1.65 7.7 3.5 11.35 5.28 13.89 6.8 25.89 12.67 41.67 6.56a30 30 0 0 0 10.52-6.68 2.26 2.26 0 1 1 3.17 3.23 34 34 0 0 1-12.06 7.67 40 40 0 0 1-14.77 2.88z" class="uuid-6412244f-c9e5-4364-84f6-f35a5c9a9f54"/><path d="M777.61 250.87q-.49 0-.94-.2a2.3 2.3 0 0 1-1.12-3c2.6-5.7-3-14.84-7.9-17.99-7.75-4.98-15.68-8.42-24.06-12.06a486 486 0 0 1-8.63-3.81c-6.62-3.03-11.72-8.41-16.66-13.62-1.88-1.98-3.73-3.94-5.64-5.72a2.26 2.26 0 0 1 3.08-3.3c1.97 1.84 3.89 3.86 5.84 5.92 4.64 4.89 9.43 9.95 15.26 12.61q4.3 1.95 8.56 3.78c8.18 3.55 16.65 7.23 24.7 12.4 6.43 4.12 13.35 15.4 9.57 23.68a2.3 2.3 0 0 1-2.06 1.32zm-310.8-11.28c-.76 0-1.51-.39-1.93-1.09-8.72-14.37-5.45-32.17-2.82-46.48l.16-.91c.26-1.4.23-3.06.19-4.82-.03-1.49-.06-2.97.07-4.34 1.08-10.91 6.37-20.58 16.66-30.43a2.26 2.26 0 1 1 3.13 3.27c-9.46 9.06-14.32 17.83-15.28 27.61-.12 1.2-.09 2.49-.06 3.8.04 1.91.08 3.88-.26 5.72l-.17.91c-2.62 14.26-5.59 30.42 2.24 43.32a2.28 2.28 0 0 1-1.93 3.44m254.8-76.38c-9.19 0-18.72-4.3-26.84-7.95-2.87-1.29-5.62-2.53-8.18-3.51-22.66-8.65-41.55-8.9-57.8-.77a2.26 2.26 0 1 1-2.02-4.04c17.45-8.73 37.55-8.53 61.44.6 2.64 1.01 5.47 2.28 8.42 3.61 11.11 5 23.71 10.68 33.9 5.57 1.1-.57 2.47-.11 3.03 1.01s.11 2.47-1.01 3.03a24 24 0 0 1-10.93 2.47zm22.6 15.38a2.25 2.25 0 0 1-1.41-4.02c2.47-1.97 3.56-5.73 2.92-10.05-.75-5.05-3.58-9.36-7.02-10.73a2.26 2.26 0 1 1 1.67-4.21c4.98 1.98 8.83 7.58 9.83 14.27.88 5.93-.83 11.26-4.57 14.25-.41.33-.91.49-1.41.49z" class="uuid-6412244f-c9e5-4364-84f6-f35a5c9a9f54"/><path d="M762.71 199.52q-.64 0-1.23-.36a2.27 2.27 0 0 1-.67-3.13c4.64-7.15 1.88-19.03-3.33-25.93l-.8-1.1c-1.4-1.92-3.13-4.31-4.89-4.77a2.26 2.26 0 1 1 1.14-4.38c3.33.87 5.59 3.99 7.41 6.49l.75 1.03c6.26 8.3 9.29 22.2 3.51 31.11a2.3 2.3 0 0 1-1.9 1.03zm-21.3 84.5a2.26 2.26 0 0 1-2.19-2.82l.22-.85c4.34-16.92 10.29-40.08 1.09-55.65a2.26 2.26 0 0 1 3.89-2.31c10.16 17.18 3.94 41.4-.6 59.08l-.22.85a2.26 2.26 0 0 1-2.19 1.7m6.4 48.77q-.55 0-1.08-.27a2.25 2.25 0 0 1-.91-3.06c4.67-8.62 5.79-18.1 6.97-28.13.51-4.3 1.03-8.74 1.86-13.07 1.4-7.34 3.86-14.43 6.23-21.28 1.72-4.98 3.5-10.11 4.8-15.16a2.26 2.26 0 0 1 4.38 1.12c-1.34 5.23-3.16 10.46-4.91 15.52-2.32 6.7-4.72 13.63-6.06 20.65-.8 4.18-1.32 8.54-1.81 12.75-1.18 10.02-2.4 20.37-7.49 29.75a2.3 2.3 0 0 1-1.99 1.18zm38.1-92.48a2.25 2.25 0 0 1-2.25-2.27v-.93c.08-11.43.16-22.22-10.69-27.45a2.26 2.26 0 1 1 1.96-4.08c13.42 6.46 13.34 19.79 13.25 31.55v.92a2.27 2.27 0 0 1-2.26 2.25zm-296.8 67.24c-1.25 0-2.26-1.01-2.26-2.26s-.62-2.78-1.28-4.35c-.63-1.51-1.28-3.06-1.52-4.73-.68-4.75-1.91-9.62-3.2-14.79-1.98-7.85-4.03-15.98-4.03-23.78a2.26 2.26 0 1 1 4.52 0c0 7.24 1.98 15.08 3.89 22.67 1.27 5.05 2.59 10.27 3.3 15.25.16 1.09.67 2.33 1.21 3.63.8 1.92 1.63 3.9 1.63 6.09a2.26 2.26 0 0 1-2.26 2.26zm-17.5 34.8c-.94 0-1.83-.6-2.15-1.55-10.06-30.2-18.24-59.89-7.84-91.09a2.27 2.27 0 0 1 2.86-1.43 2.27 2.27 0 0 1 1.43 2.86c-9.96 29.87-1.97 58.78 7.84 88.22a2.27 2.27 0 0 1-2.15 2.97z" class="uuid-6412244f-c9e5-4364-84f6-f35a5c9a9f54"/><path d="M490.41 436.39a2.3 2.3 0 0 1-1.36-.45c-4.41-3.3-7.44-8.62-10.12-13.3q-.89-1.56-1.75-3.02c-9.48-15.81-13.91-41.29-10.31-59.28 1.5-7.48 3.09-16.02 3.09-22.76a2.26 2.26 0 1 1 4.52 0c0 7.16-1.64 15.96-3.18 23.64-3.35 16.74.94 41.37 9.75 56.07q.88 1.49 1.8 3.1c2.46 4.3 5.25 9.18 8.9 11.92a2.26 2.26 0 0 1-1.36 4.07z" class="uuid-6412244f-c9e5-4364-84f6-f35a5c9a9f54"/><path d="M509.81 444.23c-.58 0-1.16-.22-1.6-.66q-1.94-1.92-4.1-4c-9.92-9.57-22.27-21.47-22.27-36.16a2.26 2.26 0 1 1 4.52 0c0 12.77 11.58 23.94 20.89 32.91q2.19 2.1 4.15 4.06a2.27 2.27 0 0 1-1.6 3.86zm34.5 96.55q-.61 0-1.16-.32c-4.1-2.46-8.51-4.72-12.78-6.91-8.29-4.25-16.87-8.65-24.21-14.94-9.95-8.52-22.11-23.26-26.42-39.05-3.63-13.32-3.34-27.73-3.05-41.66.07-3.7.15-7.36.15-10.97a2.26 2.26 0 1 1 4.52 0q-.01 5.47-.15 11.06c-.28 13.61-.57 27.69 2.89 40.38 4.03 14.81 15.56 28.72 24.99 36.81 6.94 5.95 15.27 10.22 23.33 14.36 4.33 2.22 8.81 4.52 13.04 7.05a2.26 2.26 0 0 1-1.16 4.2z" class="uuid-6412244f-c9e5-4364-84f6-f35a5c9a9f54"/><path d="M525.51 517.58q-.61 0-1.16-.32c-8.94-5.36-16.35-12.21-21.41-19.8l-1.12-1.62c-2.3-3.31-4.9-7.05-4.9-11.54a2.26 2.26 0 1 1 4.52 0c0 3.08 2.08 6.07 4.1 8.96l1.17 1.7c4.69 7.04 11.6 13.41 19.97 18.44a2.26 2.26 0 0 1-1.16 4.2zm86.1 48.3c-5.89 0-11.9-.2-17.76-1.66-18.64-4.66-33.05-16.77-48.62-30.93-6.78-6.17-15.21-13.84-17.6-23.38a2.26 2.26 0 0 1 4.39-1.09c2.05 8.22 9.92 15.38 16.25 21.13 15.12 13.75 29.06 25.48 46.68 29.89 6.41 1.6 13.3 1.56 19.96 1.51h3.32a2.26 2.26 0 1 1 0 4.51h-3.29q-1.65.03-3.32.03z" class="uuid-6412244f-c9e5-4364-84f6-f35a5c9a9f54"/><path d="M611.31 575.63a50 50 0 0 1-14.68-2.18 2.27 2.27 0 0 1 1.33-4.33c30.84 9.46 57.19-16.58 64.53-24.79a2.26 2.26 0 0 1 3.37 3.01c-16.4 18.33-35.96 28.28-54.55 28.28zm59.7-26.45a2.26 2.26 0 0 1-1.34-4.09c14.62-10.66 30.23-32.56 35.52-49.85a2.26 2.26 0 1 1 4.33 1.33c-5.64 18.4-21.63 40.83-37.18 52.18q-.62.43-1.33.43" class="uuid-6412244f-c9e5-4364-84f6-f35a5c9a9f54"/><path d="M697.61 533.14q-.7 0-1.31-.42a2.26 2.26 0 0 1-.53-3.15c8.16-11.45 15.21-21.89 18.82-33.69 1.48-4.82 2.3-9.94 3.09-14.88.61-3.83 1.24-7.8 2.18-11.67a2.3 2.3 0 0 1 2.73-1.66 2.26 2.26 0 0 1 1.66 2.73c-.9 3.7-1.52 7.57-2.11 11.31-.82 5.1-1.66 10.37-3.23 15.5-3.81 12.45-11.07 23.22-19.46 34.99-.44.62-1.14.95-1.84.95z" class="uuid-6412244f-c9e5-4364-84f6-f35a5c9a9f54"/><path d="M721.81 499.3q-.7 0-1.31-.42a2.26 2.26 0 0 1-.53-3.15c10.3-14.46 12.21-39.28 10.56-57.68-.15-1.65-.2-3.35-.26-5.06-.12-3.77-.25-7.66-1.49-10.92a2.27 2.27 0 0 1 1.31-2.92 2.3 2.3 0 0 1 2.92 1.31c1.51 3.96 1.65 8.24 1.78 12.38q.06 2.45.25 4.8c.83 9.32 2.49 41.26-11.38 60.71-.44.62-1.14.95-1.84.95z" class="uuid-6412244f-c9e5-4364-84f6-f35a5c9a9f54"/><path d="M739.21 465.25q-.33 0-.66-.1a2.27 2.27 0 0 1-1.5-2.83c.64-2.1 1.45-4.15 2.26-6.19 1.43-3.63 2.79-7.07 3.19-10.76 1.35-12.56-2.49-25.45-6.2-37.92-1.4-4.71-2.85-9.59-3.97-14.3a2.26 2.26 0 0 1 1.68-2.72 2.23 2.23 0 0 1 2.72 1.68 252 252 0 0 0 3.91 14.06c3.84 12.89 7.81 26.23 6.36 39.69-.46 4.3-2 8.19-3.48 11.95-.76 1.93-1.53 3.87-2.14 5.85-.3.97-1.2 1.6-2.16 1.6zm4.8-67.83a2.26 2.26 0 0 1-2.26-2.26c0-2.98.51-5.97 1.01-8.87.43-2.53.84-4.91.93-7.25a77 77 0 0 0-5.48-31.87c-.45-1.16.12-2.47 1.29-2.92s2.47.12 2.92 1.29c4.4 11.31 6.24 22.02 5.79 33.68a62 62 0 0 1-1 7.84 48 48 0 0 0-.94 8.11 2.26 2.26 0 0 1-2.26 2.26zm-137.2-55.58a2.26 2.26 0 0 1-1.19-4.18q1.85-1.15 3.64-2.3c4.17-2.67 8.48-5.43 13.46-7.53 14.14-5.96 31.72-4.29 47.09-2.26 4.44.59 8.77 1.49 12.95 2.37 9.38 1.96 18.25 3.81 27.89 2.17 6.53-1.12 18.18-7.14 22.18-15.11 1.62-3.23 1.67-6.24.16-9.19a2.26 2.26 0 1 1 4.02-2.06c2.15 4.2 2.1 8.79-.15 13.27-4.71 9.41-17.81 16.24-25.46 17.54-10.51 1.79-20.2-.24-29.57-2.2-4.1-.86-8.34-1.74-12.61-2.3-14.78-1.96-31.65-3.57-44.75 1.94-4.63 1.95-8.59 4.49-12.78 7.17q-1.82 1.17-3.69 2.34-.57.34-1.19.34z" class="uuid-6412244f-c9e5-4364-84f6-f35a5c9a9f54"/><path d="M715.01 354.77a2.27 2.27 0 0 1-2.25-2.05 2.27 2.27 0 0 1 2.04-2.46c12.88-1.19 24.38-16.36 26.65-29.22.42-2.42.07-5.2-.27-7.89q-.2-1.48-.34-2.93a2.27 2.27 0 0 1 2.04-2.46 2.3 2.3 0 0 1 2.46 2.04q.13 1.37.32 2.78c.38 3.02.78 6.14.23 9.24-2.6 14.78-15.56 31.55-30.68 32.95z" class="uuid-6412244f-c9e5-4364-84f6-f35a5c9a9f54"/><path d="M686.61 382.88c-5.33 0-10.57-.89-15.43-2.78a2.25 2.25 0 0 1-1.28-2.93 2.25 2.25 0 0 1 2.93-1.28c20.17 7.85 47.55-3.39 57.46-23.59.63-1.28.8-2.77.98-4.34.12-1.08.25-2.15.49-3.21a2.26 2.26 0 0 1 4.4 1.02c-.21.89-.3 1.79-.41 2.69-.2 1.8-.44 3.84-1.41 5.83-8.49 17.3-28.72 28.59-47.73 28.59" class="uuid-6412244f-c9e5-4364-84f6-f35a5c9a9f54"/><path d="M663.91 381.65c-18.05 0-29.95-15.83-34.45-23.07a2.26 2.26 0 1 1 3.84-2.38c4.41 7.1 16.59 23.27 34.63 20.63 1.92-.29 3.92-1.8 5.84-3.25 2.25-1.7 4.57-3.45 7.26-3.7 1.19-.07 2.34.8 2.46 2.04s-.8 2.34-2.04 2.46c-1.41.13-3.13 1.43-4.95 2.8-2.27 1.72-4.84 3.66-7.9 4.11q-2.41.36-4.69.35zm-27.7-5.73q-.41 0-.82-.15c-6.11-2.38-9.76-7.23-13.29-11.91-4.11-5.45-7.65-10.16-14.53-10.89a2.26 2.26 0 1 1 .48-4.5c8.83.93 13.32 6.9 17.66 12.66 3.3 4.37 6.41 8.51 11.33 10.42a2.27 2.27 0 0 1-.83 4.37m-111.1-5.3c-22.07 0-42.56-17.45-50.48-35.94-3.72-8.67-7.67-26.87 3.99-33.71.07-.04 5.68-2.86 8.12-1.26a2.7 2.7 0 0 1 1.2 2.6c-.23 2.04-1.24 3.73-2.23 5.36-.91 1.52-1.77 2.96-1.76 4.38.09 8.28 9.01 12.7 16.63 13.97 11.7 1.95 23.8-.15 35.51-2.19 6.09-1.05 12.38-2.15 18.57-2.67 14.7-1.25 32.79 5.64 43.39 12.55a2.26 2.26 0 1 1-2.47 3.79c-9.98-6.5-26.98-12.97-40.55-11.83-5.99.5-12.18 1.58-18.17 2.62-12.08 2.1-24.57 4.27-37.02 2.19-9.34-1.55-20.29-7.3-20.41-18.38-.03-2.7 1.27-4.85 2.41-6.75l.63-1.07a15 15 0 0 0-1.63.63c-8.17 4.79-5.6 19.72-2.05 27.99 7.9 18.44 29.17 35.82 51.13 32.88a2.26 2.26 0 0 1 .59 4.49q-2.72.36-5.39.35z" class="uuid-6412244f-c9e5-4364-84f6-f35a5c9a9f54"/><path d="M540.71 379.59c-12.64 0-25.15-4.45-37.43-13.36a2.27 2.27 0 0 1 2.66-3.66c19.9 14.44 40.44 16.32 61.06 5.6 3.02-1.57 5.75-3.64 8.64-5.83s5.89-4.46 9.2-6.18c1.09-.59 2.47-.15 3.05.96s.15 2.47-.96 3.05c-2.97 1.55-5.68 3.6-8.55 5.77-2.91 2.21-5.93 4.49-9.29 6.24q-14.26 7.4-28.38 7.4z" class="uuid-6412244f-c9e5-4364-84f6-f35a5c9a9f54"/><path d="M560.61 381.81c-3.38 0-6.7-.55-9.8-1.8a2.25 2.25 0 1 1 1.69-4.19c10.27 4.14 23.6-.87 32.27-7.65q1.46-1.16 3-2.5c4.41-3.8 9.42-8.1 15.71-8.2 1.44 0 2.27.98 2.3 2.22a2.27 2.27 0 0 1-2.22 2.3c-4.65.07-8.81 3.65-12.83 7.1q-1.63 1.41-3.16 2.64c-7.17 5.62-17.31 10.09-26.94 10.09z" class="uuid-6412244f-c9e5-4364-84f6-f35a5c9a9f54"/><path d="M618.11 380.77c-10.28 0-19.17-2.03-26.47-6.07q-.68-.36-1.47-.71c-1.63-.74-3.49-1.58-4.7-3.14a2.26 2.26 0 0 1 3.56-2.78c.53.68 1.85 1.28 3.01 1.81q.96.43 1.78.87c7.36 4.07 16.59 5.92 27.52 5.43 3.19-.13 8.69-1.98 9.5-3.19a2.27 2.27 0 0 1 3.13-.64c1.04.69 1.32 2.1.64 3.13-2.24 3.38-10.26 5.09-13.08 5.21q-1.74.07-3.42.07z" class="uuid-6412244f-c9e5-4364-84f6-f35a5c9a9f54"/><path d="M635.81 400.02c-2.88 0-5.52-1.13-7.92-2.15q-1.02-.44-2.04-.84c-2.87-1.1-6.45-1.53-9.6-1.91l-.63-.07c-3.71-.45-6.94.76-10.38 2.03-2.53.94-5.13 1.91-8.04 2.27-12.67 1.58-27.35-5.13-36.44-16.74a2.26 2.26 0 1 1 3.55-2.79c8.15 10.4 21.17 16.42 32.32 15.04 2.39-.3 4.64-1.13 7.03-2.02 3.8-1.41 7.75-2.87 12.5-2.29l.62.08c3.42.41 7.29.87 10.68 2.18q1.1.43 2.2.9c2.79 1.19 5.44 2.3 7.97 1.51 5.82-1.84 10.24-6.18 14.93-10.77 2.28-2.23 4.64-4.54 7.15-6.52a2.26 2.26 0 1 1 2.79 3.55 83 83 0 0 0-6.78 6.19c-4.86 4.76-9.88 9.68-16.73 11.84a11 11 0 0 1-3.17.49zm-38.7 92.58c-.67 0-1.33-.3-1.78-.87-10.3-13.18-11.54-28.03-12.86-43.76l-.17-1.99c-.47-5.43-1.09-12.69.4-18.23a2.25 2.25 0 1 1 4.36 1.18c-1.28 4.76-.7 11.56-.27 16.52l.18 2.13c1.26 15.04 2.45 29.24 11.91 41.36a2.25 2.25 0 0 1-1.78 3.65zm28.9-8.97h-.08a2.27 2.27 0 0 1-2.18-2.34c.2-5.4-.56-10.35-2.35-15.14a2.27 2.27 0 0 1 1.33-2.91 2.25 2.25 0 0 1 2.91 1.33c2 5.36 2.86 10.89 2.63 16.89a2.27 2.27 0 0 1-2.26 2.18zm74.7-36.57a2.26 2.26 0 0 1-1.33-4.08c2.41-1.77 3.49-4.05 4.84-6.94l.49-1.04c5.15-10.83 7.12-24.54 5.02-34.92a2.26 2.26 0 1 1 4.44-.9c2.28 11.28.18 26.1-5.37 37.77l-.48 1.02c-1.5 3.2-2.92 6.22-6.26 8.67q-.62.44-1.34.44zm-141-186.77q-.75 0-1.4-.49c-3.66-2.89-11.26-4.63-14.38-.68a2.26 2.26 0 0 1-3.55-2.79c4.97-6.27 15.42-4.27 20.73-.07a2.26 2.26 0 0 1-1.39 4.03zm96.6.55q-.6 0-1.13-.3a2.26 2.26 0 0 1-.82-3.09c1.4-2.4 3.85-3.99 7.1-4.6 4.58-.86 10.09.35 13.39 2.95a2.26 2.26 0 0 1-2.79 3.55c-2.24-1.77-6.54-2.67-9.74-2.06-1.34.26-3.13.88-4.03 2.43a2.3 2.3 0 0 1-1.96 1.13zm-122.8 13.66q-.46 0-.91-.19c-3.17-1.39-10.08-5.84-11.22-10.69a2.27 2.27 0 0 1 1.68-2.72 2.2 2.2 0 0 1 2.71 1.68c.61 2.58 5.52 6.22 8.64 7.58a2.27 2.27 0 0 1-.91 4.33zm145.8 3.12a2.26 2.26 0 0 1-.87-4.35c3.64-1.53 6.67-5.63 8.04-9.01a2.26 2.26 0 1 1 4.18 1.7c-1.6 3.93-5.31 9.3-10.48 11.47q-.43.18-.87.18zm-153.1-63.56a2.27 2.27 0 0 1-.83-4.37c11.88-4.71 30.43-7.29 43.11-1.82a2.26 2.26 0 1 1-1.79 4.15c-11.5-4.97-28.62-2.51-39.65 1.87q-.41.16-.83.16zm156.4-1.21q-.36 0-.72-.12c-12.81-4.3-27.43-4.33-38.15-.07-1.16.44-2.48-.11-2.94-1.27s.11-2.47 1.27-2.94c11.69-4.64 27.51-4.64 41.26-.01a2.26 2.26 0 0 1-.72 4.4zm-127.6-17.52a2.26 2.26 0 0 1-.14-4.52c4.26-.28 8.42-.48 12.67 0a2.27 2.27 0 0 1 1.99 2.5 2.3 2.3 0 0 1-2.5 1.99c-3.88-.45-7.67-.26-11.85.02h-.15zm58.2 8.57c-2.49 0-4.87-.42-7.2-.83-2.02-.35-3.92-.68-5.87-.75l-1.68-.06c-5.16-.16-11.59-.36-16.29-3.42a2.26 2.26 0 1 1 2.47-3.79c3.63 2.37 9.12 2.54 13.95 2.69l1.7.05c2.25.08 4.4.46 6.48.83 3.16.55 6.14 1.08 9.13.52 4.89-.89 9.51-2.79 14.41-4.8 6.68-2.75 13.6-5.58 21.27-5.66h.02a2.26 2.26 0 0 1 .02 4.52c-6.81.07-13.02 2.62-19.6 5.32-4.9 2.01-9.96 4.09-15.31 5.07q-1.8.31-3.52.3zm-18.8-17.78c-4.58 0-9.2-.25-13.83-1.02a2.26 2.26 0 0 1 .74-4.46c8.38 1.4 16.96.97 25.26.56 6.03-.3 12.25-.61 18.48-.25a2.25 2.25 0 0 1 2.12 2.39c-.08 1.24-1.23 2.24-2.39 2.12-5.99-.34-12.09-.05-17.99.25-4.07.2-8.22.41-12.4.41zm3.8 116.4q-.5 0-.98-.23c-4.39-2.11-11.34-11.2-9.32-17.16 1.02-3.03 3.28-4.6 5.28-5.98 1.26-.87 2.45-1.7 3.2-2.8 4.99-7.43 7.21-19.34 1.49-26.75a2.26 2.26 0 0 1 3.58-2.76c7.02 9.09 4.56 23.3-1.31 32.04-1.22 1.82-2.9 2.98-4.37 4-1.69 1.17-3.03 2.1-3.57 3.71-1.06 3.13 3.97 10.19 7 11.65a2.26 2.26 0 0 1-.98 4.29zm40.1 493.45a2.26 2.26 0 0 1-2.22-1.88c-.45-2.65-1.81-4.32-3.38-6.25-1.32-1.63-2.82-3.48-3.7-6l-.43-1.23c-7.52-21.5-14.62-41.81-28.69-59.54-12.52-15.78-26.84-30.36-40.7-44.46-20.94-21.31-42.59-43.36-58.53-70.03-32.86-54.99-33.67-117.99-34.46-178.91a1920 1920 0 0 0-.6-32.39 2.27 2.27 0 0 1 2.19-2.33c1.16.11 2.29.94 2.33 2.19.32 10.75.45 21.6.6 32.46.78 60.33 1.58 122.71 33.82 176.65 15.66 26.21 37.12 48.06 57.87 69.18 13.94 14.19 28.35 28.86 41.02 44.83 14.55 18.33 22.11 39.95 29.42 60.86l.43 1.23c.62 1.78 1.75 3.17 2.95 4.65 1.71 2.12 3.66 4.52 4.32 8.33a2.26 2.26 0 0 1-2.24 2.65z" class="uuid-6412244f-c9e5-4364-84f6-f35a5c9a9f54"/><path d="M636.81 755.16a2 2 0 0 1-.65-.1c-7.21-2.17-10.81-10.29-13.99-17.46a59 59 0 0 0-3.59-7.28c-8.07-12.7-17.08-23.85-27.18-36.06-9.43-11.42-21.02-21.56-32.23-31.36-14.53-12.71-29.56-25.86-40.49-42.2-17.09-25.56-29.05-51.16-35.54-76.09-5.2-20-5.31-41.36-5.4-62.02l-.03-4.69c0-1.25 1-2.26 2.25-2.27h.01c1.24 0 2.25 1 2.26 2.25l.03 4.7c.1 20.38.2 41.45 5.26 60.91 6.36 24.44 18.11 49.58 34.92 74.71 10.6 15.84 25.4 28.79 39.7 41.31 11.34 9.92 23.07 20.18 32.74 31.88 10.2 12.33 19.3 23.6 27.51 36.51 1.4 2.2 2.62 4.96 3.91 7.88 2.78 6.27 5.92 13.39 11.15 14.96a2.25 2.25 0 0 1-.65 4.42zm6-6.6q-.57 0-1.09-.28a2.26 2.26 0 0 1-.89-3.07c1.76-3.2 2.9-6.78 4.1-10.57 1.37-4.32 2.79-8.8 5.25-12.75 11.54-18.6 24.31-36.82 36.65-54.44 10.49-14.97 21.34-30.45 31.36-46.07 6.35-9.91 11.02-20.92 15.54-31.56q2.08-4.94 4.24-9.84c19.66-44.43 22.55-104.54 8.83-183.77a2.25 2.25 0 0 1 1.84-2.61c1.2-.25 2.4.61 2.61 1.84 13.87 80.13 10.89 141.09-9.15 186.36a778 778 0 0 0-4.21 9.78c-4.59 10.82-9.34 22.01-15.9 32.23-10.07 15.7-20.95 31.21-31.46 46.22-12.31 17.57-25.04 35.74-36.51 54.23-2.16 3.48-3.43 7.49-4.78 11.74-1.21 3.83-2.47 7.79-4.45 11.39a2.3 2.3 0 0 1-1.98 1.17" class="uuid-6412244f-c9e5-4364-84f6-f35a5c9a9f54"/><path d="M649.61 797.27a2.27 2.27 0 0 1-2.16-2.92c2.75-9.12 3.43-18.99 4.1-28.53 1-14.38 2.03-29.24 9.96-42.56 10.5-17.63 21.99-33.91 33.11-49.66 8.79-12.44 17.87-25.31 26.49-38.87 1.3-2.04 2.73-4.22 4.21-6.46 3.79-5.74 7.7-11.68 10.41-16.99l3.14-6.08c6.34-12.22 12.89-24.84 16.16-37.84 13.15-52.17 7.76-105.23 2.55-156.54-1.03-10.18-2.07-20.37-2.97-30.59-.64-7.22-2.54-14.31-4.37-21.17a175 175 0 0 1-3.65-15.5 2.26 2.26 0 1 1 4.46-.76c.87 5.07 2.24 10.17 3.56 15.1 1.88 7.05 3.84 14.33 4.51 21.94.9 10.2 1.93 20.37 2.97 30.53 5.25 51.7 10.68 105.16-2.66 158.1-3.4 13.51-10.07 26.38-16.53 38.82l-3.13 6.06c-2.82 5.53-6.81 11.57-10.66 17.42-1.46 2.22-2.88 4.37-4.17 6.4-8.68 13.65-17.8 26.56-26.61 39.05-11.07 15.68-22.51 31.89-32.92 49.36-7.38 12.39-8.33 26.08-9.34 40.56-.68 9.79-1.38 19.91-4.28 29.52a2.25 2.25 0 0 1-2.16 1.61zm-165.9-559.45a2.26 2.26 0 0 1-.22-4.51q1.9-.18 3.64-.24c2.82-.13 5.25-.24 7.99-1.48 3.74-1.69 7.14-3.79 10.73-6.02 4.85-3 9.86-6.11 15.73-8.06 22.24-7.4 47.49-2.05 67.57 14.29a2.26 2.26 0 1 1-2.85 3.51c-18.89-15.36-42.56-20.41-63.29-13.5-5.38 1.79-9.95 4.62-14.78 7.61-3.56 2.2-7.24 4.49-11.25 6.3-3.53 1.59-6.64 1.74-9.65 1.88q-1.62.06-3.39.22z" class="uuid-6412244f-c9e5-4364-84f6-f35a5c9a9f54"/><path d="M499.71 251.92q-.25 0-.49-.05a2.26 2.26 0 0 1-1.72-2.7c1.72-7.71 11.94-15.04 18.39-18.1 20.88-9.87 52.19-9.72 69.1 10.03a2.26 2.26 0 0 1-3.44 2.94c-15.43-18.03-44.35-18.03-63.73-8.88-5.84 2.76-14.63 9.23-15.91 14.99a2.25 2.25 0 0 1-2.21 1.77z" class="uuid-6412244f-c9e5-4364-84f6-f35a5c9a9f54"/><path d="M546.71 313.29a58 58 0 0 1-8.6-.68c-4.36-.65-9.05-1.52-13.8-3.43-19.18-7.72-26.02-22.93-33.27-39.04a485 485 0 0 0-3.28-7.19 15 15 0 0 0-3.86-5.26c-.34-.28-.83-.54-1.32-.82-1.36-.77-2.91-1.64-3.7-3.18-1.59-3.13-1.73-6.52-1.86-9.8l-.05-1.24a2.26 2.26 0 0 1 2.15-2.37h.11c1.2 0 2.2.94 2.26 2.15l.06 1.28c.12 2.93.23 5.69 1.37 7.93.19.33 1.3.96 1.89 1.29.75.42 1.45.83 1.97 1.27a20 20 0 0 1 5.08 6.82q1.71 3.67 3.32 7.26c7.16 15.91 13.34 29.66 30.83 36.7 4.32 1.74 8.7 2.55 12.79 3.16 7.55 1.12 13.9.73 19.97-1.24 5.15-1.68 10.28-4.8 13.39-8.14 6.02-6.48 11.27-16.21 13.72-25.4.93-3.51 2.14-9.42 2.55-13.46.19-1.91.13-3.5.08-4.9-.12-3.18-.24-6.18 2.94-9.8a2.26 2.26 0 0 1 3.4 2.98c-2 2.27-1.94 3.73-1.83 6.65a37 37 0 0 1-.1 5.54 106 106 0 0 1-2.68 14.16c-2.62 9.86-8.28 20.33-14.78 27.32-3.66 3.93-9.38 7.43-15.3 9.36a43 43 0 0 1-13.44 2.08z" class="uuid-6412244f-c9e5-4364-84f6-f35a5c9a9f54"/><path d="M545.21 307.36c-18.02 0-35.32-14.22-42.65-30.18l-.8-1.7c-1.98-4.18-4.44-9.39-4.28-14.25a2.27 2.27 0 0 1 2.26-2.19h.07a2.27 2.27 0 0 1 2.19 2.34c-.12 3.77 1.98 8.23 3.85 12.17l.82 1.75c7.86 17.11 28.51 31.78 46.71 26.36 14.86-4.41 20.69-13.16 25.72-26.76 2.21-5.96 4.15-16.41 3.43-22.9a2.26 2.26 0 0 1 4.49-.49c.79 7.24-1.25 18.37-3.69 24.96-5.39 14.57-12.07 24.58-28.67 29.52a33 33 0 0 1-9.46 1.37zm179.1-70.61-.23-.01a68 68 0 0 0-3.28-.22c-2.94-.13-5.98-.27-9.43-1.83-3.91-1.77-7.49-3.99-10.96-6.14-4.71-2.92-9.16-5.68-14.4-7.42-20.17-6.71-43.22-1.8-61.6 13.15a2.26 2.26 0 1 1-2.85-3.51c19.58-15.93 44.2-21.12 65.88-13.93 5.74 1.91 10.63 4.94 15.35 7.87 3.5 2.16 6.8 4.21 10.44 5.85 2.66 1.21 5.03 1.32 7.78 1.44q1.69.06 3.54.23a2.26 2.26 0 0 1-.22 4.51z" class="uuid-6412244f-c9e5-4364-84f6-f35a5c9a9f54"/><path d="M708.71 250.48a2.26 2.26 0 0 1-2.21-1.77c-1.25-5.6-9.8-11.88-15.47-14.56-18.85-8.92-47-8.92-62.02 8.63a2.26 2.26 0 0 1-3.44-2.94c16.49-19.25 47.01-19.42 67.39-9.78 6.29 2.97 16.26 10.13 17.95 17.66a2.26 2.26 0 0 1-2.2 2.75z" class="uuid-6412244f-c9e5-4364-84f6-f35a5c9a9f54"/><path d="M663.01 310.28a42 42 0 0 1-13.11-2.04c-5.77-1.88-11.36-5.29-14.93-9.13-6.34-6.82-11.86-17.03-14.41-26.65a104 104 0 0 1-2.61-13.81c-.22-2.18-.15-3.96-.1-5.4.11-2.91.16-4.24-1.76-6.43a2.26 2.26 0 0 1 3.4-2.98c3.11 3.55 3 6.48 2.88 9.59-.05 1.37-.11 2.91.07 4.77.41 3.95 1.58 9.7 2.49 13.11 2.38 8.94 7.49 18.42 13.35 24.72 3.03 3.25 8.02 6.29 13.02 7.91 5.91 1.92 12.08 2.3 19.43 1.2 3.97-.59 8.22-1.38 12.45-3.08 17.02-6.85 23.04-20.23 30.01-35.72q1.56-3.5 3.23-7.07a19 19 0 0 1 4.95-6.67c.51-.42 1.21-.83 1.95-1.25.57-.32 1.62-.91 1.81-1.23 1.1-2.16 1.21-4.85 1.33-7.7l.06-1.25c.06-1.24 1.06-2.3 2.37-2.15a2.26 2.26 0 0 1 2.15 2.37l-.05 1.21c-.12 3.06-.27 6.52-1.82 9.57-.77 1.51-2.28 2.37-3.62 3.12-.48.27-.95.52-1.28.79a15 15 0 0 0-3.74 5.1q-1.65 3.54-3.2 7.01c-7.06 15.7-13.73 30.53-32.45 38.06-4.66 1.88-9.23 2.72-13.46 3.35q-4.4.67-8.39.67z" class="uuid-6412244f-c9e5-4364-84f6-f35a5c9a9f54"/><path d="M664.41 304.5q-4.62.02-9.23-1.33c-16.2-4.82-22.71-14.59-27.97-28.8-2.38-6.43-4.38-17.3-3.61-24.35a2.26 2.26 0 1 1 4.49.49c-.69 6.3 1.2 16.47 3.35 22.28 4.9 13.23 10.56 21.74 25.02 26.03 17.74 5.29 37.8-9.01 45.45-25.66l.82-1.74c1.8-3.81 3.84-8.14 3.72-11.79a2.27 2.27 0 0 1 2.19-2.34h.07c1.21 0 2.22.96 2.26 2.19.15 4.74-2.23 9.8-4.15 13.87l-.8 1.7c-7.15 15.57-24.04 29.44-41.62 29.44zm-66.7-59.93a2.26 2.26 0 0 1-1.01-4.28c3.81-1.9 7.7-2.63 11.56-2.15.66.08 1.35.28 2.02.49.55.16 1.11.34 1.46.34a2.26 2.26 0 1 1 0 4.52 10 10 0 0 1-2.78-.53c-.42-.13-.85-.27-1.27-.32-2.94-.35-5.98.21-8.98 1.7a2 2 0 0 1-1.01.24zm-2.5-9.44a2.25 2.25 0 0 1-1.35-4.07c1.28-.95 2.91-1.28 4.34-1.57l1.05-.23c5.2-1.3 13.01-1.34 17.85 1.09a2.26 2.26 0 1 1-2.02 4.04c-3.69-1.85-10.39-1.84-14.73-.75q-.59.15-1.26.27c-.92.19-2.06.41-2.53.77q-.63.45-1.35.45m136.2.75a2.26 2.26 0 0 1-.28-4.51c4.48-.57 9.42-.67 13.54-.29a2.26 2.26 0 1 1-.42 4.5 61 61 0 0 0-12.85.29zm-1.2 8.4a2.26 2.26 0 0 1-.83-4.36 8 8 0 0 1 3.15-.43h.68c.92-.02 2-.13 3.14-.23 3.35-.33 7.14-.69 9.9.52a2.27 2.27 0 0 1-1.82 4.14c-1.69-.75-5-.42-7.65-.16-1.26.12-2.45.23-3.47.26h-.85a4 4 0 0 0-1.43.12q-.4.16-.83.15zm-279.5-52.76a2.27 2.27 0 0 1-2.23-2.68c2.63-14.02 12.49-26.32 29.3-36.56 35.28-21.5 83.76-22.42 117.35-16.11 12.6 2.37 20.54 4.86 31.48 9.88a2.27 2.27 0 0 1-1.89 4.11c-10.68-4.9-18.08-7.23-30.42-9.54-32.77-6.15-79.97-5.31-114.16 15.53-15.67 9.55-24.82 20.83-27.21 33.53a2.26 2.26 0 0 1-2.22 1.85z" class="uuid-6412244f-c9e5-4364-84f6-f35a5c9a9f54"/><path d="M433.61 233.67a2.2 2.2 0 0 1-1.27-.39l-1.53-1c-3-1.93-7.1-4.58-10.3-8.96-5.99-8.23-9.6-14.76-12.86-23.29-6.55-17.15-3.97-42.16 6.58-63.73 9.66-19.75 24.34-33.49 41.35-38.69 21.29-6.5 42.64-3.78 61.48-1.37l2.88.37c23.03 2.94 44.78 5.71 72.96 13.07 8.22 2.14 16.39 4.82 24.3 7.41 9.05 2.96 18.4 6.03 27.79 8.28l.85.2c6.28 1.51 13.39 3.22 19.46 2.01 1.2-.24 2.41.54 2.66 1.77a2.27 2.27 0 0 1-1.77 2.66c-7.03 1.42-14.67-.43-21.4-2.04l-.84-.2c-9.58-2.3-19.02-5.39-28.15-8.38-7.84-2.57-15.95-5.23-24.03-7.34-27.9-7.28-49.51-10.04-72.39-12.96l-2.88-.37c-18.39-2.35-39.22-5.02-59.58 1.21-15.8 4.82-29.51 17.73-38.61 36.34-10.02 20.5-12.54 44.11-6.42 60.14 3.1 8.13 6.55 14.36 12.29 22.24 2.7 3.7 6.24 5.99 9.09 7.82l1.62 1.06a2.25 2.25 0 0 1-1.27 4.13zm382.2-35.77c-1 0-1.92-.67-2.19-1.68a52 52 0 0 0-7.14-15.99c-5.51-7.99-12.48-17.05-22.4-23.68-17.91-11.99-42.63-14.72-64.44-17.12q-4.7-.51-9.18-1.05c-3.07-.37-6.39-.43-9.9-.5-5.99-.11-12.18-.23-17.6-1.94a2.25 2.25 0 1 1 1.36-4.3c4.8 1.51 10.66 1.62 16.32 1.73 3.47.07 7.05.13 10.35.53q4.47.52 9.13 1.04c22.33 2.47 47.63 5.26 66.46 17.86 10.56 7.06 17.86 16.54 23.61 24.88a57 57 0 0 1 7.79 17.39 2.27 2.27 0 0 1-2.18 2.84z" class="uuid-6412244f-c9e5-4364-84f6-f35a5c9a9f54"/><path d="M758.11 142.86a2.26 2.26 0 0 1-2.26-2.18c-.11-3.03-5.86-6.21-8.96-7.91l-.98-.54c-13.31-7.49-27.32-13.9-40.87-20.09-44.19-20.21-96.38-27.65-159.59-22.7-9.01.71-19.01 1.02-29.78.89a57 57 0 0 1-5.89-.53c-3.93-.48-8.82-1.06-11.33-.13-.89.33-1.83 2.82-2.33 4.16q-.38 1.04-.73 1.82a2.27 2.27 0 0 1-4.11-1.89q.29-.66.61-1.53c.91-2.43 2.16-5.75 4.98-6.8 3.55-1.32 8.82-.68 13.46-.12 2.05.25 3.98.48 5.4.49 10.66.14 20.51-.18 29.38-.87 63.95-5.01 116.91 2.55 161.82 23.09 13.63 6.24 27.73 12.69 41.2 20.27l.94.52c4.42 2.44 11.1 6.11 11.3 11.71a2.27 2.27 0 0 1-2.18 2.34z" class="uuid-6412244f-c9e5-4364-84f6-f35a5c9a9f54"/><path d="M502.91 86.58q-.65 0-1.23-.36a2.26 2.26 0 0 1-.67-3.13c6.73-10.39 14.89-20.04 23.36-29.83a102 102 0 0 0 4.99-6.45c3.32-4.53 6.75-9.21 11.56-12.66 7.24-5.19 16.03-7.54 24.53-9.82 3.6-.96 7-1.87 10.28-2.98 6.79-2.3 13.39-5.14 19.77-7.88a316 316 0 0 1 16.18-6.62 2.26 2.26 0 0 1 1.56 4.24c-5.42 2-10.77 4.3-15.95 6.53a267 267 0 0 1-20.11 8.02 173 173 0 0 1-10.56 3.07c-8.11 2.17-16.5 4.41-23.07 9.12-4.22 3.03-7.29 7.22-10.55 11.66-1.65 2.25-3.35 4.57-5.22 6.73-8.36 9.67-16.41 19.19-22.98 29.33a2.3 2.3 0 0 1-1.9 1.03zm117.5-78.06a2.26 2.26 0 0 1-.78-4.38c9.76-3.59 22.35-4.2 31.18-4.13a2.25 2.25 0 0 1 2.23 2.29c-.02 1.24-.99 2.4-2.29 2.23-8.45-.09-20.46.5-29.56 3.85q-.39.14-.78.14m138.4 109.8-.25-.01a2.26 2.26 0 0 1-2-2.49c2.72-24.73-13.74-58.96-29.11-69.63-7.1-4.93-15.53-8.59-23.68-12.13a235 235 0 0 1-20.14-9.71 648 648 0 0 1-17.08-9.56 2.26 2.26 0 0 1 2.32-3.88 666 666 0 0 0 16.93 9.47 230 230 0 0 0 19.43 9.38c8.69 3.77 17.33 7.53 24.79 12.71 18.35 12.74 33.72 49.31 31.03 73.84a2.26 2.26 0 0 1-2.24 2.01m-231.6 507.9a2.25 2.25 0 0 1-1.45-3.99c.46-.39 1.2-2.25 1.56-3.14.25-.62.48-1.2.69-1.63 1.62-3.38 4.01-6.48 5.93-8.97 2.98-3.87 6.08-7.57 9.17-11.25 5.87-7 11.41-13.61 16.15-21.28l.63-1.03c3.44-5.64 9.19-15.08 17.81-12.52a2.26 2.26 0 1 1-1.28 4.34c-4.94-1.44-8.94 4.41-12.67 10.54l-.64 1.05c-4.91 7.94-10.82 14.99-16.53 21.8-3.05 3.64-6.11 7.29-9.06 11.11-1.89 2.45-4.02 5.22-5.44 8.18q-.27.56-.57 1.35c-.72 1.79-1.53 3.81-2.85 4.92-.42.36-.94.53-1.45.53zm-5.2-4.16c-.84 0-1.65-.47-2.03-1.28-2.16-4.48-3-9.54-3.81-14.43-.7-4.26-1.43-8.65-3.03-12.48-2.04-4.88-5.19-9.35-8.52-14.08-2.51-3.56-5.1-7.25-7.16-11.12a235 235 0 0 1-4.78-9.69c-1.61-3.4-3.28-6.92-5.08-10.23-1.23-2.26-2.03-4.64-2.82-6.93-.86-2.52-1.67-4.9-2.98-7.02a2.26 2.26 0 1 1 3.84-2.38c1.58 2.55 2.51 5.28 3.41 7.94.75 2.21 1.47 4.3 2.51 6.22 1.86 3.43 3.56 7 5.2 10.46 1.51 3.19 3.02 6.39 4.68 9.5 1.93 3.62 4.44 7.19 6.87 10.64 3.32 4.72 6.75 9.61 8.98 14.93 1.81 4.31 2.58 8.98 3.32 13.48.79 4.79 1.55 9.31 3.43 13.2a2.26 2.26 0 0 1-2.03 3.25zm102 5.61c-2.28 0-3.88-2.89-6.53-9.21l-.33-.76q-1.32-2.57-2.71-5.33c-4.24-8.44-9.05-18.01-15.12-24.63a2.26 2.26 0 1 1 3.34-3.06c6.48 7.09 11.44 16.95 15.82 25.66q1.36 2.73 2.7 5.31l.46 1.06a86 86 0 0 0 1.69 3.8c.44-5.01 1.12-9.35 2.98-14.22 2.25-5.85 4.96-11.58 7.58-17.13 2.56-5.41 5.21-11.01 7.35-16.58a2.26 2.26 0 1 1 4.22 1.62c-2.2 5.73-4.89 11.41-7.48 16.89a248 248 0 0 0-7.45 16.81c-1.68 4.38-2.3 8.38-2.71 13.03l-.03.53c-.1 1.92-.28 5.49-3.12 6.12q-.34.08-.67.08zm72.2-7.33c-1.35 0-2.41-1.53-4.44-4.45-1.48-2.09-2.84-4.3-4.19-6.49l-1.58-2.56c-2.14-3.41-4.93-6.24-7.88-9.23-2.29-2.32-4.65-4.71-6.67-7.4-2.41-3.2-4.57-6.57-6.67-9.82-2.3-3.58-4.68-7.27-7.33-10.67-.77-.98-.6-2.4.39-3.17.97-.77 2.4-.6 3.17.39 2.79 3.56 5.22 7.35 7.58 11.01a157 157 0 0 0 6.48 9.55c1.84 2.44 4 4.63 6.28 6.94 3 3.03 6.09 6.17 8.49 10l1.61 2.6c1.3 2.11 2.6 4.23 4.04 6.26l.33.47c.26-1.19.46-2.49.57-3.19.15-.91.27-1.66.38-2.07 1.69-6.45 4.86-12.61 7.93-18.57 1.15-2.24 2.29-4.45 3.33-6.64 12.13-25.53 21.59-54.67 28.11-86.61 1.59-7.79 3.23-15.85 2.93-23.82-.04-.96.07-1.88.18-2.78.17-1.42.25-2.34-.14-3.22a2.26 2.26 0 1 1 4.13-1.83c.92 2.07.69 3.94.5 5.59-.08.68-.17 1.36-.15 2.07.32 8.51-1.37 16.84-3.02 24.89-6.6 32.3-16.17 61.79-28.46 87.65-1.06 2.23-2.22 4.49-3.39 6.77-2.96 5.74-6.02 11.68-7.58 17.64-.08.33-.17.92-.28 1.63-.72 4.53-1.4 7.81-3.62 8.8q-.55.26-1.01.26zm-65.3 124.61a2.26 2.26 0 0 1-2.25-2.04c-1.56-16.04-1.75-32.92-1.95-49.24l-.1-7.88c-.08-6.08-.96-12.32-1.81-18.35-.77-5.5-1.57-11.19-1.79-16.83a2.27 2.27 0 0 1 2.17-2.35c1.37.12 2.3.93 2.35 2.17.21 5.42.99 10.99 1.75 16.38.87 6.17 1.77 12.55 1.85 18.92l.1 7.89c.19 16.23.39 33.01 1.93 48.86a2.27 2.27 0 0 1-2.03 2.47zm12.1-24.15q-1.1 0-2.19-.27c-3.58-.91-6.2-3.95-7.01-8.14-1.15-5.95 2.08-11.03 5.03-14.8 2.12-2.71 4.91-1.28 6.1-.67q.5.28 1.06.5c4.16 1.6 7.11 4.66 8.09 8.39.95 3.6-.04 7.43-2.8 10.77-2.22 2.7-5.25 4.21-8.27 4.21zm-.81-20.18c-2.3 2.98-4.74 6.87-3.96 10.91.48 2.46 1.82 4.15 3.69 4.62 1.97.5 4.22-.42 5.86-2.42 1.83-2.23 2.49-4.56 1.92-6.75-.61-2.31-2.56-4.26-5.34-5.32q-.8-.32-1.51-.7zm-1.59-1.64h.04zm17.5 12.58a2.26 2.26 0 0 1-2.25-2.04c-.48-4.93-.71-9.93-.93-14.78-.22-4.8-.45-9.77-.92-14.61a2.26 2.26 0 0 1 2.03-2.47c1.22-.05 2.35.79 2.47 2.03.48 4.96.71 9.99.94 14.85.22 4.79.45 9.74.92 14.55a2.26 2.26 0 0 1-2.03 2.47zm-31 99.81a2.25 2.25 0 0 1-2.24-2.02c-1.3-12.08-1.94-25.1-2.08-42.23 0-1.25.99-2.27 2.24-2.28h.02c1.24 0 2.25 1 2.26 2.24.14 16.97.77 29.86 2.05 41.78a2.26 2.26 0 0 1-2 2.49zm24.7 280.6a2.3 2.3 0 0 1-2.24-1.96c-1.89-14.21-.85-28.89.15-43.08.85-12.01 1.73-24.43.81-36.4-.68-8.83-2.29-17.36-3.85-25.6-2.3-12.16-4.67-24.73-4.02-38.27.06-1.24 1.1-2.32 2.36-2.15a2.26 2.26 0 0 1 2.15 2.36c-.61 13.01 1.6 24.77 3.95 37.21 1.58 8.37 3.21 17.01 3.91 26.1.95 12.31.06 24.89-.8 37.07-.99 13.96-2.02 28.4-.18 42.16a2.26 2.26 0 0 1-1.94 2.54zm4.6 148.4c-1.24 0-2.25-1-2.26-2.24-.08-10.31-1.62-20.6-3.09-30.54-1.92-12.9-3.91-26.24-2.83-39.98.15-1.9.08-4.29.01-6.82-.19-6.93-.4-14.78 3.35-19.69a2.26 2.26 0 0 1 3.59 2.75c-2.79 3.64-2.59 10.64-2.42 16.82.07 2.65.14 5.16-.03 7.29-1.04 13.23.91 26.31 2.79 38.96 1.51 10.1 3.06 20.55 3.15 31.18 0 1.25-.99 2.27-2.24 2.28zm34.4-115.7a2.27 2.27 0 0 1-2.26-2.13c-.68-12.29-1.76-24.81-2.8-36.9-2.44-28.36-4.97-57.68-2.68-86.68.74-9.41-.64-19.45-1.97-29.14-1.05-7.65-2.14-15.55-2.2-23.19-.08-10.01-2.59-20.2-5.01-30.06-2.08-8.48-4.23-17.23-4.91-26.01a2.25 2.25 0 0 1 2.08-2.42c1.17-.17 2.33.83 2.42 2.08.65 8.4 2.76 16.98 4.79 25.27 2.49 10.11 5.05 20.57 5.14 31.1.06 7.35 1.13 15.11 2.16 22.62 1.36 9.94 2.78 20.21 2 30.11-2.25 28.62.26 57.76 2.68 85.94 1.05 12.13 2.12 24.67 2.81 37.03a2.25 2.25 0 0 1-2.13 2.38zm-39.1-286.3q-.76 0-1.54-.15a2.26 2.26 0 0 1 .84-4.44c2.48.47 4.28-1.77 5.14-3.15 2.61-4.18 3.1-10.51 1.02-13.28-.42-.55-1.69-2.22-5.65-1.1a2.26 2.26 0 1 1-1.23-4.35c6.06-1.71 9.18.99 10.5 2.75 3.6 4.8 2.38 13.28-.8 18.38-2.16 3.46-5.12 5.35-8.28 5.35z" class="uuid-6412244f-c9e5-4364-84f6-f35a5c9a9f54"/><path d="M666.81 1004.67a8.8 8.8 0 0 1-5.47-2c-4.14-3.25-6.66-10.22-5.74-15.88.62-3.86 2.74-6.63 5.96-7.79 7.24-2.6 12.62 1.72 14.74 7.16 2.51 6.44.92 14.85-6.08 17.79a9 9 0 0 1-3.41.71zm-3.72-21.41q-2.48.9-3.03 4.26c-.66 4.04 1.21 9.35 4.07 11.6 1.39 1.09 2.81 1.32 4.34.68 4.46-1.88 5.35-7.57 3.62-11.99-.63-1.6-3.11-6.67-9-4.55m10.42 149.71a10 10 0 0 1-3.33-.6c-5.04-1.78-9.4-7.6-10.16-13.53-.61-4.75 1.18-8.92 4.91-11.45 5.27-3.57 11.31-2.61 15.4 2.45 4.42 5.49 5.65 14.79-.09 20.26a9.7 9.7 0 0 1-6.73 2.86zm-2.03-23.22a7 7 0 0 0-4.02 1.4c-2.94 2-3.24 4.98-2.96 7.13.55 4.28 3.71 8.6 7.19 9.84 2.01.72 3.78.3 5.43-1.28 3.75-3.58 2.87-10.2-.31-14.14-1.04-1.28-2.86-2.94-5.32-2.94zm-5.29-.48h.04zm11.62 119.3a8.7 8.7 0 0 1-5.02-1.71c-5.27-3.77-8.46-13.2-4.69-18.84 2.15-3.19 5.14-4.81 8.25-4.52 3.87.34 7.66 3.48 9.66 8.01 2.04 4.62 1.65 9.47-1.04 12.98-2.26 2.96-4.79 4.07-7.15 4.07zm-2.16-20.58q-2.09 0-3.79 2.55c-2.31 3.45.09 10.16 3.57 12.65 1.35.96 3.43 1.87 5.95-1.43 1.67-2.18 1.85-5.33.49-8.41-1.3-2.95-3.73-5.14-5.92-5.33l-.3-.01zm-5.67 1.29h.04zm98.43-850.26c-.9 0-1.74-.53-2.1-1.42-6.73-16.71 3.05-40.54 16.41-52.32 2.68-2.36 5.69-4.24 8.61-6.07 5.32-3.32 10.33-6.45 12.68-11.99a2.27 2.27 0 0 1 4.16 1.78c-2.91 6.83-8.77 10.5-14.44 14.05-2.76 1.73-5.62 3.51-8.01 5.62-11.95 10.53-21.14 32.53-15.21 47.24a2.25 2.25 0 0 1-2.09 3.1zm46.1-90.31a2.26 2.26 0 0 1-2.25-2.07l-.24-2.63q-.27-2.68-.45-5.38c-.12-1.93.08-3.85.28-5.71.27-2.59.53-5.05-.12-7.14a7 7 0 0 0-1.51-.23c-2.28 2.12-3.72 4.47-5.11 6.75-2.62 4.29-5.33 8.71-13.04 10.75a2.24 2.24 0 0 1-2.76-1.61 2.25 2.25 0 0 1 1.61-2.76c5.96-1.58 7.9-4.74 10.35-8.74 1.57-2.57 3.36-5.49 6.4-8.17 1.33-1.15 3.87-.69 4.9-.45 1.7.41 2.73 1.14 3.17 2.24 1.31 3.25.96 6.6.62 9.83-.19 1.75-.36 3.4-.26 4.96a153 153 0 0 0 .44 5.22l.25 2.67a2.26 2.26 0 0 1-2.06 2.45h-.2zm-24.9-26.27q-.45 0-.89-.18a2.26 2.26 0 0 1-1.19-2.97c2.03-4.78 9.37-21.07 18.25-29.81a2.26 2.26 0 1 1 3.17 3.23c-6.58 6.48-13.23 18.9-17.26 28.36a2.3 2.3 0 0 1-2.08 1.37m45.4 153.05c-.9 0-1.74-.53-2.1-1.42-3.01-7.46.36-15.8 3.06-22.51l1-2.5q5.13-13.26 10.22-26.5 5.07-13.21 10.11-26.24c4.4-11.34 1.22-21.69-2.14-32.65-.83-2.72-1.68-5.47-2.41-8.26-.78-2.93-1.76-5.88-2.74-8.85-1.4-4.2-2.84-8.55-3.72-12.9-.34-1.7-.59-3.54-.85-5.42-.62-4.6-1.26-9.35-3.47-12.71-5.59-8.52-16.7-19.14-25.24-25.89a2.27 2.27 0 0 1-.37-3.18 2.27 2.27 0 0 1 3.18-.37c8.82 6.97 20.34 18.02 26.21 26.95 2.77 4.23 3.52 9.73 4.18 14.59.24 1.78.47 3.51.8 5.13.83 4.08 2.22 8.29 3.58 12.37 1.01 3.05 2.02 6.1 2.82 9.12.72 2.73 1.55 5.42 2.37 8.09 3.44 11.21 7 22.81 2.03 35.6q-5.04 13.03-10.1 26.23-5.08 13.25-10.22 26.52l-1.02 2.56c-2.53 6.26-5.39 13.35-3.06 19.12a2.25 2.25 0 0 1-2.09 3.1z" class="uuid-6412244f-c9e5-4364-84f6-f35a5c9a9f54"/><path d="m785.91 216.22-2.18-.66-1.98-1.11c3.92-9.22 10.05-21.8 17.83-24.73a8.8 8.8 0 0 1 7.2.29c4.04 1.96 5.97 5.58 7.68 8.77 1.17 2.18 2.26 4.24 3.87 5.51a2.26 2.26 0 0 1-2.79 3.55c-2.35-1.85-3.73-4.43-5.05-6.93-1.51-2.83-2.94-5.52-5.66-6.83a4.4 4.4 0 0 0-3.65-.13c-4.56 1.71-9.69 9.2-15.26 22.27zm-2.18-.66h.04z" class="uuid-6412244f-c9e5-4364-84f6-f35a5c9a9f54"/><path d="M774.91 204.27a2.25 2.25 0 0 1-2.21-2.72l.27-1.32c.68-3.38.78-3.57 3.33-8.44 3.77-7.17 7.63-10.86 12.29-11.85 6.53-1.39 13.42 3.15 19.88 8.26a2.26 2.26 0 0 1-2.79 3.55c-7.57-5.98-12.42-8.17-16.14-7.39-3.2.68-6.17 3.72-9.1 9.29q-2.48 4.72-3.03 7.47l-.28 1.35a2.25 2.25 0 0 1-2.21 1.8zM201.42 763.1a2.25 2.25 0 0 1-2.13-3.02c5.92-16.6 12.45-36.59 16-58.99.56-3.56.97-7.26 1.37-10.99.82-7.57 1.67-15.4 3.94-22.58 8.69-27.56 20.06-53.15 33.8-76.06 10.5-17.52 23.23-37.28 41.58-50.24 16.02-11.32 35.36-17.01 54.06-22.51q4.71-1.39 9.35-2.79 12.75-3.88 25.51-7.73c27.22-8.22 55.38-16.73 82.84-25.78a2.24 2.24 0 0 1 2.85 1.44 2.26 2.26 0 0 1-1.44 2.85c-27.51 9.07-55.69 17.58-82.94 25.82q-12.75 3.84-25.5 7.73-4.65 1.41-9.39 2.79c-18.35 5.4-37.33 10.98-52.73 21.87-17.62 12.44-30.04 31.75-40.3 48.87-13.55 22.61-24.77 47.87-33.37 75.1-2.13 6.75-2.95 14.35-3.75 21.71-.42 3.8-.83 7.57-1.4 11.2-3.61 22.77-10.22 43.01-16.21 59.8-.33.92-1.2 1.5-2.13 1.5zm458.69 26.57c-.98 0-1.88-.64-2.17-1.62-1.77-5.97-2.25-12.02-2.72-17.87-.2-2.49-.4-5-.69-7.51-.78-6.67-1.45-13.7-.34-19.98a2.26 2.26 0 1 1 4.45.79c-1 5.68-.36 12.34.38 18.67q.43 3.86.71 7.68c.47 5.88.91 11.43 2.55 16.94a2.27 2.27 0 0 1-2.16 2.9zm-362.3-18.74c-.65 0-1.3-.28-1.74-.82-5.17-6.26-9.04-13.42-12.78-20.35-3.67-6.78-7.46-13.8-12.43-19.81a2.26 2.26 0 0 1 3.48-2.88c5.25 6.35 9.15 13.57 12.92 20.54 3.81 7.04 7.4 13.69 12.29 19.61a2.26 2.26 0 0 1-1.74 3.7zm58.9 370.64h-.2a2.26 2.26 0 0 1-2.05-2.45c2.42-27.38 3-53.78 3.62-81.74q.12-4.54.41-9.25c.37-6.63.74-13.49.09-19.86-.54-5.28-.94-10.57-1.34-15.88-.78-10.39-1.58-21.13-3.52-31.6-4.62-24.94-11.27-50.23-17.69-74.69-6.52-24.8-13.25-50.44-18-76.08a2.25 2.25 0 0 1 1.81-2.63 2.25 2.25 0 0 1 2.63 1.81c4.72 25.47 11.43 51.03 17.93 75.75 6.45 24.54 13.12 49.92 17.76 75.02 1.99 10.71 2.8 21.57 3.59 32.08.4 5.26.79 10.52 1.32 15.75.69 6.71.3 13.76-.07 20.56-.17 3.08-.34 6.13-.4 9.1-.61 28.03-1.2 54.51-3.63 82.04a2.27 2.27 0 0 1-2.25 2.06zm8 90.9c-.9 0-1.76-.55-2.11-1.45-8.12-21.04-11.8-37.68-12.33-55.63-.21-7.09.93-13.72 2.03-20.13l.4-2.36a2.3 2.3 0 0 1 2.6-1.85 2.25 2.25 0 0 1 1.85 2.6l-.41 2.37c-1.11 6.48-2.16 12.6-1.97 19.24.51 17.41 4.11 33.6 12.03 54.14a2.25 2.25 0 0 1-2.11 3.07zm-98.3-212.8q-.32 0-.64-.09a2.26 2.26 0 0 1-1.53-2.81c1.21-4.1.59-14.15.26-19.55l-.12-1.96c-1.28-22.92-3.25-46.94-11.97-66.46a2.26 2.26 0 0 1 4.13-1.85c9.02 20.22 11.05 44.71 12.35 68.05l.12 1.94c.49 7.86.9 16.62-.43 21.11a2.3 2.3 0 0 1-2.17 1.62m-16.8-109c-.87 0-1.69-.5-2.07-1.34-17.32-38.82-31.62-71.52-45.11-104.9-7.47-18.49-15.25-38.2-21.06-58.14a2.26 2.26 0 1 1 4.34-1.26c5.76 19.72 13.5 39.32 20.92 57.7 13.46 33.33 27.75 65.98 45.05 104.75a2.26 2.26 0 0 1-2.06 3.18zm-73.25-194.01a2.25 2.25 0 0 1-2.22-1.9c-.98-6-1.68-11.93-2.08-17.62a2.25 2.25 0 0 1 2.1-2.41 2.3 2.3 0 0 1 2.41 2.1c.39 5.55 1.08 11.35 2.03 17.22a2.26 2.26 0 0 1-2.24 2.62z" class="uuid-6412244f-c9e5-4364-84f6-f35a5c9a9f54"/><path d="M343.41 935.97h-.1c-7.92-.35-15.52-15.53-18.43-22.04l-1.28-2.87c-10.05-22.55-21.43-48.11-37.17-66.39a2.26 2.26 0 0 1 3.43-2.95c16.17 18.77 27.7 44.66 37.87 67.5l1.28 2.86c5.02 11.25 10.97 19.21 14.5 19.37a2.27 2.27 0 0 1-.1 4.52m-62.9-36.1c-.87 0-1.69-.5-2.07-1.34-1.23-2.75-1.7-5.71-2.17-8.57-.32-1.97-.62-3.83-1.14-5.56-1.88-6.2-5.34-12.41-8.68-18.43l-2.13-3.87a720 720 0 0 1-4.14-7.77c-4.67-8.84-9.5-17.98-15.24-26.23-1.12-1.61-2.28-3.39-3.49-5.24-5.05-7.73-11.33-17.35-18.63-20.15a2.27 2.27 0 0 1 1.62-4.22c8.67 3.32 15.4 13.62 20.8 21.9a228 228 0 0 0 3.42 5.13c5.9 8.47 10.79 17.74 15.53 26.7q2.05 3.89 4.12 7.73l2.11 3.83c3.46 6.22 7.03 12.65 9.06 19.31.61 2.03.95 4.12 1.28 6.16.44 2.69.84 5.23 1.84 7.44a2.26 2.26 0 0 1-2.06 3.18z" class="uuid-6412244f-c9e5-4364-84f6-f35a5c9a9f54"/><path d="M306.51 1059.07q-.64 0-1.2-.35a2.27 2.27 0 0 1-.71-3.12c1.84-2.92 4-5.35 6.09-7.72 3.27-3.69 6.36-7.18 7.94-12.15 3.33-10.5 2.26-21.21 1.13-32.55-.91-9.14-1.85-18.59-.27-27.91 1.79-10.53 6.28-19.61 10.62-28.4 2.39-4.84 4.87-9.85 6.86-15.05a2.27 2.27 0 0 1 2.92-1.3 2.25 2.25 0 0 1 1.3 2.92c-2.06 5.39-4.59 10.49-7.02 15.43-4.39 8.88-8.53 17.27-10.21 27.15-1.48 8.72-.57 17.86.31 26.7 1.13 11.3 2.29 22.98-1.32 34.37-1.87 5.88-5.42 9.9-8.86 13.78-2.06 2.33-4 4.52-5.65 7.13a2.3 2.3 0 0 1-1.91 1.06z" class="uuid-6412244f-c9e5-4364-84f6-f35a5c9a9f54"/><path d="M280.51 1085.77a2.27 2.27 0 0 1-.83-4.37c11.92-4.72 18.21-11.42 20.42-21.71 1.13-5.24-.58-12.78-2.08-19.43-.6-2.65-1.16-5.16-1.51-7.32-.84-5.29-1.5-10.58-2.15-15.85-2.15-17.4-4.18-33.83-12.67-49.32-3.03-5.54-6.62-11.08-10.09-16.44-5.82-9-11.84-18.3-15.82-28.33a2.27 2.27 0 0 1 4.21-1.67c3.81 9.61 9.71 18.73 15.41 27.54 3.51 5.43 7.15 11.04 10.26 16.72 8.91 16.25 11.09 33.89 13.2 50.94a425 425 0 0 0 2.13 15.69c.33 2.08.87 4.49 1.45 7.04 1.61 7.11 3.43 15.16 2.1 21.38-2.52 11.76-9.88 19.7-23.17 24.96q-.42.16-.83.16z" class="uuid-6412244f-c9e5-4364-84f6-f35a5c9a9f54"/><path d="M256.21 1103.27a2.27 2.27 0 0 1-.43-4.48c5.85-1.13 11.35-2.46 14.33-6.36 4.52-5.91 5.93-14.78 6.9-22.64 2.53-20.6.25-40.47-2.16-61.5l-.84-7.43c-1.18-10.65-3.68-20.27-5.96-28.28a2.26 2.26 0 0 1 1.55-2.79 2.23 2.23 0 0 1 2.79 1.55c2.34 8.18 4.88 18.04 6.11 29.01l.84 7.41c2.34 20.37 4.75 41.43 2.15 62.57-1.04 8.45-2.58 18.03-7.79 24.84-3.95 5.16-10.33 6.75-17.07 8.06q-.22.04-.43.04zm-18.68 6.7q-1.42.01-2.79-.57a2.26 2.26 0 0 1 1.79-4.15c1.62.69 4.35-.68 6.79-2.02a2.26 2.26 0 1 1 2.18 3.96c-2.6 1.44-5.32 2.78-7.97 2.78" class="uuid-6412244f-c9e5-4364-84f6-f35a5c9a9f54"/><path d="M242.61 1091.87a2.26 2.26 0 0 1-1.57-3.89 63 63 0 0 0 7.84-9c1.55-2.19 2.61-4.63 3.73-7.2.83-1.9 1.68-3.86 2.75-5.74a2.26 2.26 0 0 1 3.93 2.23 57 57 0 0 0-2.54 5.32c-1.17 2.68-2.37 5.44-4.19 8.01a68 68 0 0 1-8.4 9.65c-.44.42-1 .63-1.57.63zm-63.3 39.5c-8.63 0-15.72-6.68-21.99-12.58-3.3-3.1-6.42-6.04-9.42-7.75a2.25 2.25 0 1 1 2.23-3.93c3.47 1.97 6.78 5.09 10.28 8.39 5.93 5.58 12.06 11.35 18.89 11.35h.28c10.39-.24 20.72-5.1 31.58-14.85 4.48-4.03 9.35-7.65 14.06-11.16q3.69-2.71 7.29-5.52a2.26 2.26 0 0 1 2.79 3.55q-3.65 2.84-7.38 5.59c-4.63 3.44-9.41 7-13.74 10.89-11.7 10.5-22.98 15.73-34.5 16h-.38zm-44.84-34.2c-.76 0-1.51-.39-1.93-1.09-6.35-10.5-10.89-22.45-15.28-34.01-1.61-4.22-3.2-8.42-4.87-12.5a985 985 0 0 0-9.55-22.34c-13.02-29.82-26.49-60.65-27.71-93.54-.93-25.13-.38-50.74.16-75.51.77-35.35 1.56-71.91-1.97-107.7a2.26 2.26 0 0 1 2.03-2.47 2.3 2.3 0 0 1 2.47 2.03c3.55 36.06 2.75 72.75 1.99 108.24-.53 24.7-1.09 50.24-.16 75.24 1.19 32.04 14.48 62.47 27.34 91.91 3.29 7.53 6.55 15.01 9.59 22.44 1.68 4.11 3.28 8.34 4.9 12.6 4.32 11.37 8.78 23.12 14.93 33.27a2.27 2.27 0 0 1-1.93 3.43zM76.19 735.33a2.24 2.24 0 0 1-2.2-1.76c-1.17-5.17-.93-10.65-.69-15.95a96 96 0 0 0 .12-8.92q-.33-6.73-.58-13.64a2.27 2.27 0 0 1 2.18-2.34 2.2 2.2 0 0 1 2.34 2.18q.24 6.89.57 13.58c.15 3.07.01 6.26-.12 9.35-.22 5-.45 10.17.58 14.75a2.25 2.25 0 0 1-2.2 2.76zm-2.17-62.36a2.26 2.26 0 0 1-2.26-2.12c-.91-14.86-2.4-26.5-4.69-36.63a2.25 2.25 0 0 1 1.7-2.7c1.23-.3 2.43.49 2.7 1.7 2.35 10.37 3.87 22.24 4.8 37.35a2.26 2.26 0 0 1-2.12 2.39h-.14z" class="uuid-6412244f-c9e5-4364-84f6-f35a5c9a9f54"/><path d="M63.19 666.15a10 10 0 0 1-6.54-2.73c-4-4-4.33-9.44-.81-13.84 1.8-2.25 5.16-3.42 8.36-2.91a7.4 7.4 0 0 1 6.03 4.71c1.47 3.91-.1 9.73-2.49 12.71a5.5 5.5 0 0 1-4.15 2.05zm-3.82-13.76c-2.07 2.6-1.9 5.45.48 7.83.73.73 2.43 1.53 3.49 1.4.61-.03.8-.27.87-.36 1.51-1.88 2.62-6.08 1.79-8.3-.47-1.26-1.63-1.69-2.51-1.83-1.58-.24-3.35.29-4.12 1.26m14.96 43.62c-6.11 0-10.82-4.75-12.6-10.24-2.07-6.4-.5-14.7 7.86-17.81q4.38-1.62 10.13 3.55c3.81 3.43 7.09 10.33 5.67 16.36-.9 3.82-3.62 6.55-7.65 7.66a13 13 0 0 1-3.4.48zm-2.59-23.91q-.31 0-.57.1c-5.6 2.07-6.61 7.62-5.13 12.18 1.39 4.29 5.26 8.24 10.49 6.8 2.48-.69 3.94-2.11 4.47-4.35.86-3.68-1.06-9.05-4.3-11.96-1.97-1.77-3.77-2.76-4.95-2.76zm-1.36-2.02h.04zm29.69 40.72c-3.78 0-7.67-1.55-10.47-4.33-3.74-3.72-4.93-8.94-3.27-14.33 1.61-5.24 6.71-9.1 11.74-8.77 5.16.32 9.61 2.42 12.22 5.75 2.22 2.85 3.02 6.45 2.3 10.43-.99 5.44-4.06 9.23-8.65 10.67q-1.87.58-3.88.58zM88.5 692.81l2.16.67c-1.57 5.1.66 8.33 2.14 9.79 2.61 2.59 6.53 3.65 9.8 2.64 2.95-.93 4.87-3.41 5.55-7.17q.73-4.07-1.41-6.83c-1.81-2.31-5.07-3.78-8.94-4.02-3.09-.19-6.15 2.39-7.14 5.59zm35.44 20.61c-1.4 0-2.8-.27-4.11-.78-4.22-1.64-7.84-6.05-5.8-11.88.84-2.38 2.1-5.99 5.71-7.19 3.74-1.24 7.85-.07 10.74 3.07 2.9 3.16 3.72 7.42 2.13 11.12a9.1 9.1 0 0 1-8.68 5.65zm-5.64-11.16c-1.12 3.21 1.01 5.33 3.17 6.17 2.44.94 5.69.59 6.99-2.45 1.05-2.45.02-4.85-1.3-6.29-1.31-1.42-3.57-2.65-5.99-1.84-1.4.46-2.13 2.26-2.88 4.4z" class="uuid-6412244f-c9e5-4364-84f6-f35a5c9a9f54"/><path d="M149.86 714.51q-1.71 0-3.47-.3c-4.55-.79-8.23-3.05-10.08-6.19-3.28-5.59-5.18-13.04-.65-17.19 7.27-6.66 17.02-6.63 23.72.07a15.7 15.7 0 0 1 4.64 11.59 12.2 12.2 0 0 1-4.36 8.9c-2.42 2.01-5.99 3.12-9.8 3.12m-11.14-20.35c-2.72 2.5-.34 8.45 1.49 11.57 1.18 2 3.72 3.47 6.96 4.03 3.73.66 7.49-.08 9.6-1.83a7.6 7.6 0 0 0 2.74-5.64 11.3 11.3 0 0 0-3.32-8.19c-4.97-4.97-11.99-4.94-17.47.07zm33 3.22a9.5 9.5 0 0 1-6.3-2.45c-2.45-2.22-3.37-5.46-2.53-8.87.82-3.35 2.82-5.84 5.48-6.83 2.68-1 5.49-.53 7.73 1.31a10.9 10.9 0 0 1 3.66 9.76c-.54 3.24-2.46 5.66-5.26 6.63q-1.34.46-2.78.46zm-4.44-10.26c-.56 2.29.34 3.69 1.19 4.46a4.8 4.8 0 0 0 4.55 1.06q1.87-.65 2.28-3.1a6.3 6.3 0 0 0-2.07-5.53 3.1 3.1 0 0 0-3.28-.57c-1.81.68-2.5 2.98-2.68 3.67zm8.49-10.51q-.78 0-1.47-.15a11.5 11.5 0 0 1-9.44-11c-.29-5.36 4.77-9.08 9.91-9.97 2.97-.52 5.84.41 8.29 2.68.45.42.71 1 .72 1.62v3.48c-.16 1.83-.1 2.93-.04 4.09.04.79.07 1.55.05 2.42q-.01.53-.26 1c-2.45 4.62-5.37 5.83-7.75 5.83zm-.21-16.67c-3.15.55-6.32 2.68-6.18 5.28.19 3.57 2.36 6.11 5.81 6.8.61.11 2.17.43 4.08-2.9q0-.8-.06-1.55c-.06-1.21-.13-2.58.06-4.58-.02-.69-.02-1.18-.01-1.73v-.4a4.7 4.7 0 0 0-3.7-.94zm765.45 165.73c-.51 0-1.03-.17-1.45-.53-17.05-14.29-32.62-31.52-46.3-51.21-9.8-14.11-19.64-35.22-25.08-53.78-6.76-23.06-15.31-46.29-23.58-68.75-3.17-8.6-6.33-17.2-9.4-25.81-3.64-10.18-8.35-20.13-12.91-29.75a581 581 0 0 1-7.78-16.89l-6.14-14.16a2.3 2.3 0 0 1 1.17-2.98 2.3 2.3 0 0 1 2.98 1.17l6.15 14.16c2.44 5.62 5.08 11.18 7.72 16.76 4.6 9.72 9.37 19.78 13.08 30.16 3.07 8.59 6.23 17.18 9.39 25.77 8.3 22.54 16.87 45.84 23.67 69.04 5.32 18.13 14.92 38.73 24.47 52.47 13.44 19.36 28.74 36.29 45.48 50.33a2.25 2.25 0 0 1-1.45 3.99zm-144.2-289.1c-.78 0-1.55-.41-1.96-1.14l-1.81-3.13a605 605 0 0 1-4.98-8.75l-2.7-4.79a2.26 2.26 0 0 1 3.93-2.23l2.71 4.8c1.68 2.98 3.2 5.69 4.95 8.69l1.82 3.16a2.25 2.25 0 0 1-1.96 3.38zm241.4 378.2c-6.9 0-13.78-.5-21.33-2.83-27.23-8.37-52.8-24.15-77.53-39.42a1829 1829 0 0 0-14.13-8.66q-3.72-2.27-7.61-4.75c-8.07-5.11-16.4-10.4-24.76-13.41a2.27 2.27 0 0 1-1.36-2.9 2.3 2.3 0 0 1 2.9-1.36c8.82 3.18 17.37 8.6 25.64 13.84q3.84 2.45 7.53 4.7 7 4.24 14.16 8.68c24.48 15.12 49.8 30.74 76.48 38.95 9.69 2.98 18.44 2.73 27.75 2.48 2.9-.08 5.99-.12 8.95-.15a2.26 2.26 0 0 1 0 4.52c-2.98.02-5.96.07-8.82.15q-3.97.13-7.88.15zm31.2-.7a2.25 2.25 0 0 1-.85-4.35c16.58-6.7 32.62-15.53 37.69-34.65 1.53-5.77 1.91-11.8 2.31-18.17.31-4.94.64-10.06 1.55-15.01 4.71-25.55 5.78-43.95 3.7-63.5-.75-7.05-3.21-14.15-5.6-21.02l-1.68-4.9a2.26 2.26 0 0 1 4.29-1.43q.8 2.4 1.66 4.84c2.47 7.11 5.02 14.46 5.82 22.03 2.13 20.02 1.04 38.79-3.75 64.8-.87 4.68-1.18 9.66-1.48 14.47-.4 6.32-.81 12.85-2.45 19.05-5.59 21.09-23.54 30.88-40.36 37.68q-.42.16-.85.16m6.3-202.98c-.86 0-1.68-.49-2.06-1.32-2.98-6.56-7.18-12.78-11.25-18.81q-2.5-3.67-4.88-7.37c-16.82-26.38-36.06-49.1-56.44-73.16a2513 2513 0 0 1-16.89-20.08c-13.99-16.89-28.01-34.14-41.57-50.82a8727 8727 0 0 0-33.57-41.13c-4.35-5.28-8.11-11.05-11.75-16.63l-1.08-1.65a2.26 2.26 0 1 1 3.79-2.47l1.08 1.66c3.57 5.48 7.26 11.15 11.45 16.23 11.26 13.68 22.42 27.41 33.59 41.15 13.55 16.68 27.56 33.93 41.54 50.79q8.41 10.12 16.86 20.05c19.58 23.11 39.82 47.01 56.8 73.65q2.34 3.64 4.82 7.27c4.17 6.18 8.48 12.57 11.61 19.47a2.26 2.26 0 0 1-2.06 3.19zM885.91 464c-.68 0-1.35-.3-1.79-.88q-3.16-4.1-6.33-8.14c-4.31-5.53-8.77-11.23-12.97-16.99a2.3 2.3 0 0 1 .49-3.16c1-.73 2.43-.51 3.16.49a646 646 0 0 0 12.88 16.87q3.17 4.06 6.35 8.18a2.27 2.27 0 0 1-1.79 3.64zm-110.9 26.01c-1.66 0-3.3-.24-4.73-.87a7 7 0 0 1-3.92-4.08 2.26 2.26 0 0 1 4.24-1.56q.36 1.02 1.48 1.5c2.58 1.13 7.31.14 9.83-.92 10.04-4.2 23.97-12.33 30.17-21.44a2.26 2.26 0 0 1 3.74 2.54c-6.76 9.93-21.55 18.63-32.16 23.06a24 24 0 0 1-8.64 1.77zm45.9-30.85a2.26 2.26 0 0 1-1.76-3.68c13.52-16.8 21.38-30.9 24.04-43.11.9-4.14.71-9.86-1.39-12.77a4.8 4.8 0 0 0-3.52-2.05 2.27 2.27 0 0 1-2-2.5 2.3 2.3 0 0 1 2.5-2 9.3 9.3 0 0 1 6.69 3.91c3.44 4.79 2.96 12.55 2.13 16.37-2.8 12.91-10.96 27.63-24.93 44.99-.45.56-1.1.84-1.76.84" class="uuid-6412244f-c9e5-4364-84f6-f35a5c9a9f54"/><path d="M786.41 515.72q-.82 0-1.62-.15c-3.55-.71-5.98-4.06-7.75-6.51l-.35-.48c-4.62-6.3-9.61-13.54-11.61-19.53a2.26 2.26 0 1 1 4.29-1.43c2.04 6.12 8.29 14.64 10.96 18.28l.36.5c1.26 1.73 3.16 4.36 4.97 4.72 1.99.38 5.36-1.03 7.83-2.07l1.73-.71c8.67-3.41 16.31-8.6 23.04-13.18 13.86-9.43 26.86-24.68 38.65-45.32 4.3-7.53 8.8-16.23 7.66-24.18-.5-3.51-4.63-7.99-7.94-11.58-1.56-1.7-3.04-3.3-4.14-4.76-1.09-1.45-2.06-3.12-3.01-4.72-1.74-2.97-3.54-6.04-6.04-7.72-.22-.14-.49-.15-1.25-.1-.78.04-1.73.1-2.78-.24a2.26 2.26 0 0 1 1.43-4.29c.22.08.64.05 1.06.02 1.02-.06 2.53-.16 4.05.85 3.37 2.25 5.44 5.78 7.44 9.2.92 1.57 1.78 3.05 2.72 4.3.97 1.28 2.37 2.8 3.85 4.41 3.93 4.27 8.39 9.1 9.09 14.01 1.34 9.37-3.54 18.89-8.21 27.07-12.14 21.24-25.61 36.99-40.04 46.81-6.94 4.71-14.79 10.06-23.93 13.65l-1.62.67c-2.68 1.13-5.9 2.5-8.86 2.5z" class="uuid-6412244f-c9e5-4364-84f6-f35a5c9a9f54"/><path d="M775.31 541.32a8.4 8.4 0 0 1-4.72-1.47c-3.39-2.27-5.52-7.03-5.69-12.73-.21-6.56 2.34-14.12 8.48-16.21 1.94-.66 10.6-1.15 13.23 2.2.51.66 1.53 2.42.1 4.8-.07.71.61 2.71.99 3.8.48 1.41.94 2.75 1.02 3.87.38 4.87-3.45 11.41-8.35 14.26a10 10 0 0 1-5.05 1.47zm2.19-26.39c-1.15 0-2.16.09-2.68.27-3.92 1.33-5.55 7.04-5.4 11.78.13 4.18 1.55 7.68 3.7 9.12.54.36 2.18 1.47 4.97-.15 3.65-2.13 6.33-7.22 6.12-10.02-.04-.55-.45-1.73-.8-2.76-.91-2.69-1.86-5.47-.65-7.47-.95-.52-3.29-.77-5.24-.77zm7.2 1.91h.04zm16.51 49.29q-5.85 0-10.49-7.03c-3.44-5.23-4.38-13.33-2.18-18.84 1.5-3.76 4.26-6.2 7.98-7.06 7.05-1.63 13.79 1.09 17.59 7.13 4.15 6.6 3.77 16.46-4.98 22.53-1.84 1.28-3.65 2.49-5.12 2.89q-1.43.39-2.8.39zm-.7-28.88q-1.41 0-2.96.35-3.39.79-4.81 4.34c-1.68 4.19-.91 10.64 1.76 14.67 3.47 5.28 6.28 5.31 8.33 4.76.83-.23 2.75-1.56 3.47-2.06 6.98-4.84 6.9-11.95 4-16.59a11.6 11.6 0 0 0-9.78-5.48zm-3.47-1.85h.04zm35.27 24.98q-.7 0-1.44-.08a14.3 14.3 0 0 1-10.63-6.79 16.7 16.7 0 0 1-1.64-14.29c.37-1.06 3.73-10.29 9.58-9.73 6.15.61 11.54 1.79 15.12 10.07 1.64 3.8 1.71 8.48.18 12.53-1.97 5.21-6.18 8.29-11.17 8.29m-4.64-26.4c-1.25 0-3.6 3.27-4.8 6.72a12.4 12.4 0 0 0 1.21 10.41 9.9 9.9 0 0 0 7.32 4.7c5.02.6 7.19-3.52 7.86-5.31a12.6 12.6 0 0 0-.1-9.14c-2.54-5.87-5.58-6.79-11.42-7.37h-.07zm29.44 8.31c-3.04 0-6.22-1.61-8.74-4.6-3.04-3.59-4.93-9.38-1.93-13.61l1.72-2.57q.37-.55.98-.82c4.03-1.74 10.2-2.92 14.32-.5 3.92 2.31 5.87 6.07 5.34 10.31-.55 4.47-3.79 8.87-8.07 10.95a8 8 0 0 1-3.62.83zm-5.57-17.69-1.35 2.03-.04.06c-1.55 2.17-.33 5.71 1.68 8.09 1.66 1.96 4.48 3.82 6.93 2.62 2.91-1.42 5.2-4.48 5.56-7.45q.46-3.73-3.14-5.86c-2.22-1.31-6.41-.75-9.63.51zm-3.23.77h.04zm30.6-3.18c-4.2 0-8.67-2.14-12.18-5.86-5.29-5.62-6.59-12.78-3.31-18.27 3.55-5.93 13.04-9.88 19.96-6.07a16.5 16.5 0 0 1 7.99 9.85c1.38 4.73.58 9.95-2.18 14.32-2.25 3.56-5.41 5.62-9.13 5.98q-.57.06-1.15.06zm-1.53-27.16c-3.95 0-8.29 2.37-10.07 5.35-2.69 4.5-.22 9.73 2.72 12.85 2.83 3.01 6.47 4.71 9.6 4.41q3.5-.34 5.74-3.9a13 13 0 0 0 1.66-10.64 12 12 0 0 0-5.82-7.16 8 8 0 0 0-3.82-.91zm-12.02 4.19h.04zm20.45-9.12c-2.85 0-5.68-1.11-8.01-3.28-3.13-2.9-3.43-7.27-3.66-10.79q-.07-1.1-.17-2.11c-.5-4.56 4.53-7.35 8.98-8.35 3.22-.74 7.07.53 10.24 3.38 3.2 2.88 4.88 6.6 4.49 9.95-.49 4.23-2.9 7.9-6.47 9.8a11.4 11.4 0 0 1-5.4 1.39zm-1-20.21q-.46 0-.87.09c-2.7.61-5.62 2.21-5.48 3.45q.11 1.1.19 2.29c.21 3 .42 6.11 2.23 7.78 2.41 2.23 5.47 2.69 8.2 1.22a8 8 0 0 0 4.11-6.34c.22-1.85-.97-4.23-3.02-6.07-1.7-1.53-3.71-2.42-5.35-2.42zm1.7-12.99q-.4 0-.83-.03c-3.45-.22-6.44-1.78-8.21-4.27a12 12 0 0 1-1.84-4.13q-.3-1.3-.64-2.52c-.98-3.62-1.99-7.38.33-11.64 2.22-4.07 5.74-6.1 9.76-5.62 5.34.59 10.79 5.49 12.41 11.16 1.49 5.22.53 10.19-2.64 13.64-2 2.17-5.07 3.41-8.34 3.41m-6.46-9.4c.19.87.58 1.73 1.11 2.49.97 1.38 2.72 2.24 4.81 2.38 2.18.12 4.33-.6 5.55-1.94 2.85-3.09 2.24-7.18 1.63-9.34-1.09-3.83-5.09-7.53-8.56-7.91-2.24-.2-3.97.87-5.29 3.29-1.46 2.68-.79 5.16.06 8.31q.37 1.33.68 2.72z" class="uuid-6412244f-c9e5-4364-84f6-f35a5c9a9f54"/><path d="M873.11 431.47a7 7 0 0 1-5.5-2.44c-4.03-4.68-5.28-11.93-3.09-18.03 1.23-3.43 4.52-5.67 8.59-5.88 3.73-.18 7.05 1.43 8.72 4.22a18 18 0 0 1 1.26 15.29 11.6 11.6 0 0 1-8.55 6.71 9 9 0 0 1-1.43.12zm.55-21.83h-.33c-1.74.09-3.85.89-4.56 2.89-1.65 4.62-.74 10.07 2.26 13.56.62.73 1.58 1.02 2.78.8a7 7 0 0 0 5.09-3.95 13.4 13.4 0 0 0-.94-11.25c-.76-1.27-2.43-2.05-4.3-2.05m-373.35-80.05q-.55 0-1.07-.27c-3.43-1.83-5.77-7.12-7.86-12.38l-.46-1.14a2.27 2.27 0 0 1 4.19-1.71l.47 1.18c1.06 2.65 3.53 8.86 5.79 10.07a2.25 2.25 0 0 1-1.06 4.25m207.6 4.88a2.25 2.25 0 0 1-1.13-4.22c12.8-7.39 22.21-24.09 25.52-36.46a2.3 2.3 0 0 1 2.77-1.6 2.27 2.27 0 0 1 1.6 2.77c-3.55 13.25-13.71 31.17-27.63 39.2q-.55.3-1.13.3zm147.1 444.6a2.26 2.26 0 0 1-2.26-2.26c0-1.41-.71-3.2-1.39-4.94a30 30 0 0 1-1.25-3.64q-.85-3.37-1.74-6.74a305 305 0 0 1-3.35-13.63 914 914 0 0 1-6.54-34.92q-1.74-10.12-3.62-20.28l-.55-2.88c-1.51-7.88-3.21-16.82-3.21-24.6a2.26 2.26 0 1 1 4.52 0c0 7.35 1.66 16.06 3.13 23.75l.55 2.89c1.27 6.78 2.45 13.56 3.63 20.34a891 891 0 0 0 6.51 34.75c.96 4.49 2.15 9.03 3.3 13.43q.89 3.39 1.75 6.79c.24.98.66 2.02 1.07 3.08.83 2.13 1.7 4.33 1.7 6.6a2.26 2.26 0 0 1-2.26 2.26zm38.8 97.5c-19.1 0-27.54-25.36-30.45-34.11-.6-1.8-1.48-3.83-2.41-5.96-2.1-4.85-4.48-10.34-4.48-15.05a2.26 2.26 0 1 1 4.52 0c0 3.77 2.18 8.81 4.11 13.25a84 84 0 0 1 2.55 6.33c4.9 14.74 13.32 33.97 29.88 30.64 5.65-1.13 11-3.05 17.36-6.23 1.1-.57 2.47-.11 3.03 1.01s.11 2.47-1.01 3.03c-6.73 3.37-12.44 5.41-18.5 6.62q-2.4.48-4.6.47" class="uuid-6412244f-c9e5-4364-84f6-f35a5c9a9f54"/><path d="M909.21 863.27c-15.12 0-18.94-15.28-21.48-25.39-4.13-16.54-5.52-34.88-4.12-54.49.17-2.4.14-4.88.1-7.5-.07-4.6-.14-9.35.98-13.86a2.26 2.26 0 0 1 4.39 1.09c-.98 3.94-.92 8.39-.85 12.7.04 2.6.08 5.29-.11 7.89-1.36 19.14-.02 37 4 53.08 3.01 12.02 6.37 21.97 17.09 21.97a2.26 2.26 0 1 1 0 4.52zm-1.8 358.5q-.36 0-.72-.11a2.27 2.27 0 0 1-1.43-2.86 76 76 0 0 1 2.02-5.2c1.14-2.74 2.32-5.57 2.83-8.31 2.48-13.25-.03-26.98-2.46-40.27a240 240 0 0 1-2.99-19.24c-2.04-20.42-6.26-41.35-10.33-61.58-2.4-11.92-4.89-24.26-6.9-36.38-6.94-41.63-5.68-84.02-4.46-125.02.48-16.02.97-32.58.97-48.9a2.26 2.26 0 1 1 4.52 0c0 16.39-.49 32.99-.97 49.04-1.21 40.77-2.47 82.94 4.4 124.14 2.01 12.05 4.48 24.35 6.88 36.23 4.09 20.34 8.33 41.38 10.39 62.02.62 6.21 1.8 12.65 2.94 18.88 2.5 13.68 5.09 27.84 2.45 41.91-.6 3.21-1.87 6.26-3.1 9.21-.68 1.64-1.36 3.27-1.9 4.9a2.3 2.3 0 0 1-2.15 1.55zm-498.8 80.8q-.5 0-.98-.23c-18.56-8.94-30.69-19.03-44.74-37.21a2.26 2.26 0 0 1 3.58-2.76c13.57 17.56 25.26 27.29 43.12 35.9a2.26 2.26 0 0 1-.97 4.3zm153.4 14q-4.3 0-8.7-.35c-15.18-1.25-30.01-5.27-44.37-9.16-13.75-3.73-27.97-7.59-42.23-8.88-5.34-.49-10.78.06-16.03.6-4.18.42-8.46.87-12.87.79a31 31 0 0 0-5.09.6c-3.48.61-7.42 1.31-10.87-.37a2.26 2.26 0 1 1 1.95-4.07c2.15 1.04 5.05.52 8.13-.01 1.96-.34 3.99-.63 5.94-.67 4.09.07 8.09-.34 12.34-.77 5.46-.55 11.11-1.12 16.89-.6 14.65 1.32 29.06 5.24 43 9.02 14.15 3.84 28.79 7.81 43.55 9.02 13.28 1.09 25.65-.58 40.1-3.42a2.26 2.26 0 1 1 .87 4.43c-11.66 2.3-22.02 3.85-32.65 3.85z" class="uuid-6412244f-c9e5-4364-84f6-f35a5c9a9f54"/><path d="M479.61 1298.87q-.4 0-.79-.15c-6.52-2.44-12.65-5.63-18.58-8.71a343 343 0 0 0-8.98-4.56 2.25 2.25 0 1 1 1.95-4.07c3.08 1.48 6.1 3.05 9.11 4.62 5.81 3.02 11.82 6.15 18.09 8.49a2.26 2.26 0 0 1-.79 4.38zm125.3-8.3h-.04c-24.87-.41-48.6-12.65-68.9-24.09q-1.96-1.1-4.2-2.26c-5.87-3.09-12.52-6.6-16.23-11.39a2.26 2.26 0 0 1 3.58-2.76c3.1 4.01 9.3 7.28 14.76 10.15 1.51.8 2.98 1.57 4.31 2.32 19.81 11.17 42.94 23.11 66.75 23.51a2.26 2.26 0 0 1-.03 4.52m28 24.2a2.26 2.26 0 0 1-.04-4.53c18.5-.27 35.53-4.72 53.56-9.44 8.81-2.3 17.91-4.68 27.11-6.49 5.04-.99 10.37-1.62 15.51-2.23 9.65-1.14 19.62-2.31 28.28-5.92 11.37-4.74 22.66-10.49 33.57-16.04 11.76-5.99 23.92-12.18 36.3-17.18q3.08-1.23 6.3-2.45c6.78-2.59 13.8-5.27 19.63-8.95l1.98-1.26c7.99-5.08 15.55-9.87 25.18-12.29 1.44-.36 3.06-1.03 4.79-1.74 4.4-1.81 9.39-3.87 13.86-1.7a2.26 2.26 0 1 1-1.96 4.08c-2.67-1.28-6.49.29-10.18 1.81-1.79.74-3.65 1.5-5.4 1.94-8.93 2.24-16.18 6.84-23.86 11.72l-2 1.26c-6.22 3.92-13.44 6.68-20.43 9.35q-3.18 1.21-6.22 2.42c-12.2 4.93-24.27 11.07-35.95 17.01-10.99 5.59-22.35 11.38-33.88 16.19-9.25 3.85-19.54 5.06-29.49 6.24-5.3.62-10.3 1.21-15.17 2.17-9.06 1.78-18.1 4.15-26.84 6.43-17.5 4.57-35.59 9.3-54.63 9.58h-.04zm-155 61.4q-.69 0-1.3-.42c-19.99-14.09-37-23.25-52.02-28.01-4.66-1.48-9.44-2.8-14.25-4.13-13.92-3.85-28.32-7.83-40.71-15.83a2.26 2.26 0 1 1 2.46-3.8c11.81 7.62 25.86 11.51 39.46 15.27 4.86 1.34 9.7 2.68 14.41 4.18 15.46 4.9 32.88 14.27 53.25 28.63a2.26 2.26 0 0 1-1.31 4.11zm165.3-32.2q-.42 0-.84-.16c-2.86-1.14-6.62-1.39-10.25-1.63a72 72 0 0 1-6-.57c-12.59-1.92-25.55-1.78-38.07-1.64-6.95.08-14.13.15-21.23-.11a2.27 2.27 0 0 1-2.18-2.34c.05-1.24 1.22-2.16 2.34-2.18 6.99.27 14.12.19 21.01.11 12.72-.14 25.86-.28 38.81 1.7 1.75.27 3.67.39 5.62.52 3.99.26 8.11.54 11.63 1.95a2.26 2.26 0 0 1-.84 4.36zm87.1-18.2q-1.96.01-3.81-.45a2.25 2.25 0 0 1-1.61-2.76 2.24 2.24 0 0 1 2.76-1.61c3.3.86 7.81-.29 11.77-1.31q1.92-.5 3.65-.88c16.32-3.43 31.48-9.6 43.85-17.83a2.26 2.26 0 1 1 2.5 3.76c-12.84 8.56-28.54 14.95-45.42 18.5q-1.63.36-3.45.84c-3.26.84-6.83 1.75-10.24 1.75z" class="uuid-6412244f-c9e5-4364-84f6-f35a5c9a9f54"/><path d="M742.11 1330.37a17 17 0 0 1-6.22-1.02 2.26 2.26 0 1 1 1.68-4.2c2.66 1.06 6.31.69 9.85.33q2.05-.23 3.88-.32c9.77-.42 19.65-2.51 29.21-4.54l3.44-.73a2.26 2.26 0 1 1 .93 4.43l-3.43.73c-9.74 2.07-19.81 4.21-29.96 4.64-1.13.04-2.35.17-3.62.3-1.85.19-3.81.39-5.77.39zm-38.3 28.5-.26-.01a2.27 2.27 0 0 1-1.99-2.5c.39-3.38 1.22-7.1 2.1-11.04 2.07-9.27 4.42-19.78.9-27-1.27-2.62-3.58-5.67-6.32-8.36-.32-.31-.78-.66-1.26-1.03-1.64-1.26-3.49-2.7-3.91-4.69a2.27 2.27 0 0 1 4.42-.97c.22.5 1.59 1.56 2.26 2.07.64.5 1.24.97 1.66 1.39 1.81 1.78 5.17 5.4 7.21 9.6 4.2 8.65 1.67 19.98-.56 29.97-.85 3.82-1.66 7.43-2.02 10.57a2.25 2.25 0 0 1-2.24 2zm6.9 83.5a2.26 2.26 0 0 1-2.21-1.8q-.85-3.98-1.81-8.19c-3.08-13.69-6.57-29.21-4.98-43.15a2.33 2.33 0 0 1 2.5-1.99 2.27 2.27 0 0 1 1.99 2.5c-1.51 13.18 1.89 28.31 4.89 41.64q.96 4.23 1.82 8.26a2.27 2.27 0 0 1-2.22 2.73zm-49.3-22.2q-.28 0-.57-.07a2.25 2.25 0 0 1-1.61-2.76c1.02-3.9.64-9.05.3-13.59q-.14-1.91-.24-3.64-.18-3.59-.3-7.24c-.32-8.47-.65-17.23-2.35-25.34a2.27 2.27 0 0 1 4.43-.93c1.78 8.48 2.11 17.43 2.44 26.09q.13 3.63.3 7.18.1 1.68.24 3.54c.36 4.9.77 10.44-.45 15.07a2.26 2.26 0 0 1-2.19 1.69m17.3-67.4q-1.43 0-2.86-.29c-4.42-.9-8-3.81-9.8-7.95-2.51-5.74-4.52-13.23 2.26-20.33 3.89-4.07 8.39-5.92 13.31-5.49 5.87.5 10.3 3.86 12.16 9.22 2.42 6.98.16 15.82-5.37 21.02a14 14 0 0 1-9.69 3.82zm1.53-29.6c-3.16 0-6.01 1.37-8.67 4.15-4.01 4.19-4.4 8.51-1.39 15.4a9.1 9.1 0 0 0 6.57 5.33 9.7 9.7 0 0 0 8.55-2.4c4.23-3.97 6.03-10.96 4.2-16.24-.9-2.58-3.06-5.75-8.28-6.2q-.5-.04-.98-.04m-10.3 2.59h.04zm114.47 41.21a2.27 2.27 0 0 1-1.33-4.09c15.4-11.2 33.02-17.54 50.06-23.68 9.28-3.34 18.87-6.79 28-10.99 16.59-7.62 27.58-15.68 32.67-23.95a2.26 2.26 0 0 1 3.85 2.37c-5.57 9.05-17.22 17.69-34.63 25.69-9.3 4.28-18.99 7.76-28.35 11.14-17.51 6.31-34.05 12.26-48.94 23.08-.4.29-.87.43-1.33.43m-443 40.4q-.49 0-.94-.21a2.26 2.26 0 0 1-1.11-2.99c2.33-5.08 3.31-11.01 4.26-16.75q.46-2.84.98-5.62c1.72-8.95 2.85-18.11 3.93-26.97.59-4.79 1.17-9.57 1.85-14.35.92-6.47 3.25-12.7 5.5-18.72l.44-1.17c2.04-5.46 2.74-11.6 3.42-17.54.3-2.55.58-5.09.97-7.55.74-4.75 2.2-9.28 3.61-13.66.97-3 1.97-6.11 2.7-9.19a2.23 2.23 0 0 1 2.72-1.68 2.27 2.27 0 0 1 1.68 2.72c-.76 3.25-1.8 6.44-2.79 9.53-1.36 4.22-2.76 8.57-3.45 12.97-.38 2.41-.66 4.88-.94 7.37-.71 6.21-1.45 12.63-3.67 18.61l-.44 1.17c-2.16 5.8-4.4 11.79-5.25 17.77a686 686 0 0 0-1.84 14.26c-1.1 8.93-2.23 18.17-3.98 27.28q-.51 2.71-.96 5.5c-1 6.03-2.03 12.26-4.61 17.89a2.3 2.3 0 0 1-2.05 1.32zm574.6-118.7a2.26 2.26 0 0 1-2.26-2.26c0-8.72-1.81-17.2-3.57-25.4-1.78-8.33-3.62-16.94-3.62-25.93a2.26 2.26 0 1 1 4.52 0c0 8.51 1.71 16.51 3.52 24.99 1.8 8.43 3.66 17.15 3.66 26.35a2.26 2.26 0 0 1-2.26 2.26zm30.2 99.6a2.26 2.26 0 0 1-2.26-2.26c0-3.66-1.03-7.23-2.12-11l-.88-3.13c-1.61-6.03-3.03-12.13-4.45-18.23-1.01-4.32-2.01-8.64-3.09-12.94-.75-3.01-1.77-6.09-2.76-9.07-1.47-4.42-2.99-8.99-3.77-13.69a2.26 2.26 0 0 1 1.86-2.6 2.25 2.25 0 0 1 2.6 1.86c.72 4.35 2.18 8.75 3.6 13.01 1.02 3.06 2.07 6.22 2.86 9.4q1.6 6.5 3.1 13.01c1.41 6.05 2.82 12.1 4.42 18.09q.4 1.52.86 3.05c1.13 3.91 2.3 7.96 2.3 12.25a2.26 2.26 0 0 1-2.26 2.26zM13.15 377.08c-1.02 0-1.95-.7-2.2-1.74l-4.74-19.86a2.26 2.26 0 0 1 4.39-1.05l4.74 19.86a2.26 2.26 0 0 1-2.2 2.78zm69.83 228.45c-6.45 0-10.97-.94-12.64-3.17-2.02-2.69-6.54-13.46-22.46-75.55a2.26 2.26 0 1 1 4.38-1.12c15.26 59.52 20.15 71.88 21.7 73.96 6.86 9.15 121.6-20.79 132.58-25.76a2.27 2.27 0 0 1 3 1.07c.53 1.11.1 2.43-1 2.98-.96.48-90.96 27.59-125.56 27.59m97.82-180.26a2.26 2.26 0 0 1-2.19-1.7c-17.43-68.11-27.39-102.77-29.86-108.02-14.47-1.72-123.75 19.3-130.49 25.21-.31.92-1.14 1.48-2.21 1.55a2.27 2.27 0 0 1-2.19-2.33q.05-1.59 1.72-2.84c11.08-8.33 125.24-28.37 135.05-25.83 1.76.45 4.19 1.07 32.35 111.15a2.26 2.26 0 0 1-2.19 2.82zm30.35 128.26q-.34 0-.67-.1a2.27 2.27 0 0 1-1.49-2.83c-.04-.37-.56-5.2-8.16-37.33a2.26 2.26 0 0 1 1.68-2.72 2.23 2.23 0 0 1 2.72 1.68c8.82 37.31 8.37 38.76 8.08 39.72a2.3 2.3 0 0 1-2.16 1.59zM19.75 373.91c-1.02 0-1.95-.7-2.2-1.74l-1.62-6.79a2.26 2.26 0 0 1 4.39-1.05l1.62 6.8a2.26 2.26 0 0 1-2.2 2.78z" class="uuid-6412244f-c9e5-4364-84f6-f35a5c9a9f54"/><path d="M86.61 598.02c-5.47 0-9.31-.84-10.78-2.8-1.92-2.57-6.37-13.34-22.6-76.94a2.26 2.26 0 1 1 4.38-1.12c15.57 60.98 20.37 73.38 21.84 75.35 6.04 8.07 110.65-21.32 120.97-26.04 1.11-.52 2.47-.04 3 1.07s.1 2.43-1 2.98c-.9.45-84.7 27.5-115.81 27.5m88.98-163.73a2.26 2.26 0 0 1-2.19-1.7c-14.64-57.82-26.45-101.06-29.3-107.36-4.37-.36-20.93.28-25.25 1.67.91 7.04-4.65 13.83-15.49 18.81-16.72 7.68-45.71 10.1-56.67-5.32-2.09-2.94-4.64-4.18-7.93-3.84-8.09.88-16.98 10.89-17.95 12.86-.22 1.04-1.21 1.64-2.28 1.79a2.26 2.26 0 0 1-2.19-2.33c.09-3.14 9.99-13.49 18.82-16.17 6.24-1.9 11.51-.15 15.22 5.06 8.63 12.11 33.85 11.74 51.1 3.83 9.24-4.24 14-9.84 12.74-14.98-.24-.98.05-1.96.8-2.7 3.61-3.56 28.95-3.5 30.99-2.98 1.71.44 4.07 1.05 31.79 110.53a2.26 2.26 0 0 1-2.19 2.82zm25.86 110.35q-.33 0-.66-.1a2.27 2.27 0 0 1-1.5-2.83c-.04-1.31-2.66-14.19-10.12-45.3a2.26 2.26 0 0 1 4.4-1.05c10.83 45.13 10.34 46.72 10.05 47.68-.3.97-1.2 1.6-2.16 1.6z" class="uuid-6412244f-c9e5-4364-84f6-f35a5c9a9f54"/><path d="M62.19 617.59c-.93 0-1.81-.58-2.13-1.51-4.28-12.13-9.89-24.04-15.32-35.55-5.49-11.65-11.16-23.68-15.54-36.08-.69-1.96-1.51-3.96-2.33-5.99-2.8-6.87-5.69-13.98-4.94-21.44.88-8.9 5.32-18.79 9.23-27.51q1.33-2.95 2.5-5.66c5.13-11.97 8.18-25.46 11.12-38.51l1.43-6.29c.03-.16.07-.54.11-1.03.59-5.55 1.39-9.28 3.6-10.7.92-.6 2-.73 3.06-.38 6.34 2.12 11.76 17.55 12.49 20.3 5.55 20.81 2.99 48.2-6.22 66.62a2.26 2.26 0 1 1-4.04-2.02c8.76-17.52 11.19-43.6 5.9-63.43-1.31-4.94-5.8-14.82-8.95-16.88-.37.79-.87 2.65-1.33 6.97-.08.77-.15 1.34-.21 1.57l-1.43 6.27c-2.99 13.25-6.08 26.95-11.37 39.3q-1.2 2.75-2.53 5.73c-3.77 8.41-8.05 17.94-8.86 26.11-.64 6.34 2.04 12.93 4.64 19.29.86 2.1 1.7 4.16 2.41 6.19 4.3 12.18 9.92 24.12 15.36 35.66 5.48 11.62 11.14 23.63 15.5 35.98a2.26 2.26 0 0 1-2.13 3.01z" class="uuid-6412244f-c9e5-4364-84f6-f35a5c9a9f54"/><path d="M25.27 507.94c-.94 0-1.83-.6-2.15-1.55a440 440 0 0 0-4.38-12.33 429 429 0 0 1-4.43-12.46c-1.58-4.76.26-10.79 1.88-16.11a54 54 0 0 0 1.35-4.88c2.02-10.12 5.28-20.28 8.42-30.11q1.94-6.01 3.76-11.97c.69-2.3 1.48-4.62 2.27-6.95 1.43-4.17 2.9-8.49 3.73-12.68q.16-.8.27-1.6c.44-2.83.99-6.35 4.79-8.25 1.11-.57 2.47-.11 3.03 1.01s.11 2.47-1.01 3.03c-1.63.82-1.92 2.24-2.34 4.9l-.3 1.78c-.9 4.49-2.41 8.94-3.89 13.26a173 173 0 0 0-2.22 6.79c-1.2 4-2.49 8.02-3.77 12.05-3.11 9.71-6.33 19.75-8.3 29.62-.3 1.51-.86 3.35-1.46 5.32-1.36 4.44-3.04 9.96-1.91 13.36 1.38 4.14 2.88 8.24 4.38 12.33a429 429 0 0 1 4.43 12.46 2.27 2.27 0 0 1-2.15 2.97z" class="uuid-6412244f-c9e5-4364-84f6-f35a5c9a9f54"/><path d="M52.67 430.02q-.74 0-1.36-.46a2.25 2.25 0 0 1-.44-3.16c5.51-7.28-3.3-26.98-8.12-33.43a2.25 2.25 0 1 1 3.62-2.7c5.31 7.1 15.51 29.08 8.1 38.86-.45.59-1.12.9-1.8.9zm124.13 203a2.26 2.26 0 0 1-2.26-2.26c0-3.72.75-7.69 2.3-12.16a2.3 2.3 0 0 1 2.88-1.4c1.18.41 1.8 1.7 1.39 2.88-1.39 3.98-2.06 7.47-2.06 10.67a2.26 2.26 0 0 1-2.26 2.26zm13.45-34.64q-.51 0-1.01-.23a2.26 2.26 0 0 1-1.02-3.03 71 71 0 0 0 2.46-5.42 2.26 2.26 0 1 1 4.2 1.68 81 81 0 0 1-2.6 5.75c-.4.79-1.2 1.25-2.03 1.25m15.76-84.93a2.26 2.26 0 0 1-2.26-2.26c0-5.97-.3-12.08-.6-17.98-.4-8-.81-16.27-.5-24.53.11-2.67.34-5.47.59-8.33.92-10.66 1.88-21.69-4.03-29.95a10 10 0 0 0-9.18-4.25 12.6 12.6 0 0 0-10.1 6.7c-2.98 5.96-2.69 20.15.55 26.63.56 1.12.11 2.47-1.01 3.03s-2.47.11-3.03-1.01c-3.86-7.73-4.15-23.49-.55-30.68a17.2 17.2 0 0 1 13.79-9.19 14.6 14.6 0 0 1 13.22 6.12c6.86 9.62 5.8 22.02 4.85 32.97-.24 2.79-.48 5.51-.57 8.11-.31 8.06.1 16.23.49 24.13.3 5.96.61 12.12.61 18.21a2.26 2.26 0 0 1-2.26 2.26zm175 632.22c-7.64 0-15.25-1.13-22.67-2.23q-3.45-.52-6.84-.98c-48.19-6.43-91.72-27.71-116.44-56.93-40.1-47.39-52.72-114.15-56.67-149.73-6.74-60.68-2.51-124.11 1.58-185.46l.22-3.32c.86-12.97 2.33-26.13 3.74-38.86 1.91-17.22 3.89-35.03 4.4-52.53.44-14.7-.3-20.36-1.63-30.63-.36-2.81-.77-5.94-1.21-9.68a2.27 2.27 0 0 1 1.99-2.51 2.3 2.3 0 0 1 2.51 1.99c.43 3.71.83 6.83 1.2 9.62 1.32 10.15 2.11 16.29 1.66 31.34-.52 17.68-2.51 35.58-4.43 52.89-1.41 12.68-2.86 25.79-3.72 38.66l-.22 3.32c-4.08 61.15-8.29 124.38-1.6 184.66 3.89 35.07 16.3 100.85 55.63 147.31 24.02 28.39 66.48 49.09 113.59 55.38q3.43.46 6.9.98c9.78 1.45 19.88 2.94 29.65 1.73 30.89-3.87 59.56-18.65 90.23-46.52 16.8-15.27 31.57-34.03 44.1-50.41l3.39-4.43c17.81-23.25 34.62-45.2 47.08-71.25 8.31-17.38 15.04-35.87 21.54-53.76q3.19-8.84 6.47-17.61c5.05-13.48 8.35-28 11.55-42.04 4.3-18.89 8.74-38.42 17.52-55.99a2.26 2.26 0 0 1 4.04 2.02c-8.54 17.08-12.92 36.35-17.16 54.97-3.23 14.19-6.56 28.86-11.73 42.62a1664 1664 0 0 0-6.45 17.56c-6.54 17.99-13.3 36.59-21.71 54.17-12.66 26.47-29.61 48.6-47.57 72.05l-3.39 4.43c-12.65 16.54-27.57 35.49-44.65 51.01-31.39 28.53-60.85 43.68-92.71 47.66q-4.1.5-8.2.49z" class="uuid-6412244f-c9e5-4364-84f6-f35a5c9a9f54"/><path d="M374.11 1156.87c-17.71 0-46.17-8.99-65.82-15.19-4.6-1.45-8.66-2.73-11.91-3.69-36.38-10.65-75.99-48.6-91.84-77.66-12.01-22.02-22.14-51.31-30.95-89.54-7.35-31.87-16.29-120.95-7.94-185.01 1.78-13.67 3.43-27.51 5.07-41.38 2.35-19.8 4.78-40.28 7.61-60.08 2.63-18.4 2.22-41.44-1.17-66.66a2.25 2.25 0 0 1 1.94-2.54c1.21-.23 2.38.7 2.54 1.94 3.45 25.61 3.85 49.09 1.17 67.89a2592 2592 0 0 0-7.6 59.98c-1.65 13.88-3.3 27.74-5.08 41.43-8.86 67.96 1.89 157.52 7.86 183.42 8.72 37.82 18.7 66.73 30.51 88.39 15.48 28.38 54.99 65.49 89.14 75.49 3.28.96 7.37 2.25 12 3.71 20.6 6.5 55.09 17.38 70.29 14.51l2.79-.52c20.02-3.68 66.89-12.3 114.99-64.85 34.78-38 74.71-89.64 85.51-119.32 4.07-11.2 10.58-27.65 16.87-43.57s12.81-32.4 16.89-43.62c1.36-3.74 2.78-10.41 4.42-18.13 3.56-16.75 8.44-39.7 17.29-54.34a2.26 2.26 0 0 1 3.86 2.34c-8.46 13.99-13.24 36.5-16.74 52.94-1.68 7.89-3.13 14.7-4.6 18.74-4.1 11.27-10.62 27.78-16.93 43.73-6.28 15.88-12.78 32.31-16.82 43.45-11.01 30.26-51.33 82.49-86.41 120.83-49.13 53.66-97.04 62.47-117.5 66.24l-2.78.52q-2.99.56-6.67.55z" class="uuid-6412244f-c9e5-4364-84f6-f35a5c9a9f54"/><path d="M178.95 617.64a9 9 0 0 1-2.95-.48c-6.16-2.31-7.76-12.67-8.11-15.8-.17-1.48-.54-3.09-.9-4.71-.56-2.42-1.13-4.93-1.13-7.24a2.26 2.26 0 1 1 4.52 0c0 1.79.51 4.05 1.01 6.23.41 1.79.81 3.58.99 5.22.56 5.08 2.43 11.02 5.2 12.06 2.82 1.04 9.49-1.93 10.63-4.79.99-2.48.09-6.68-.57-9.75l-.35-1.67c-.21-1.05-.97-4.05-1.69-6.9-.54-2.15-1.06-4.21-1.32-5.33a2.26 2.26 0 0 1 4.41-1.02c.26 1.1.77 3.13 1.3 5.25.74 2.94 1.52 6.04 1.74 7.13l.34 1.6c.83 3.84 1.86 8.62.35 12.39-1.71 4.26-8.32 7.82-13.46 7.82zM16.13 464.67c-.95 0-1.83-.6-2.15-1.55a44 44 0 0 0-2.89-6.33c-1.24-2.41-2.53-4.89-3.38-7.6-3.02-9.67-2.68-19.25 1.08-29.27 4.51-12.02 11.88-25.36 18.77-33.97 2.64-3.3 7.19-6.25 10.94-4.93 1.92.68 4.2 2.62 4.2 8.07a2.26 2.26 0 1 1-4.52 0c0-2.09-.45-3.55-1.18-3.81-1.1-.41-3.86.91-5.91 3.48-6.62 8.27-13.71 21.12-18.07 32.74-3.39 9.04-3.71 17.65-.99 26.33.73 2.33 1.87 4.53 3.08 6.87 1.15 2.23 2.35 4.54 3.16 6.99a2.27 2.27 0 0 1-2.14 2.97z" class="uuid-6412244f-c9e5-4364-84f6-f35a5c9a9f54"/><path d="M6.05 425.75c-.9 0-1.74-.54-2.1-1.42-5.85-14.62-5.21-26.12 2-36.21 5.92-8.29 11.15-13.98 15.53-16.89 1.53-1.02 6.8-4.16 10.75-1.8 4 2.4 4.69 7.64 5.19 11.47q.17 1.38.38 2.53a2.27 2.27 0 0 1-1.77 2.66 2.25 2.25 0 0 1-2.66-1.77q-.25-1.27-.43-2.83c-.4-3.08-.9-6.91-3.03-8.18-1.04-.62-3.54.09-5.92 1.68-3.87 2.58-8.83 8.03-14.35 15.76-6.32 8.83-6.77 18.67-1.48 31.9a2.27 2.27 0 0 1-2.1 3.1z" class="uuid-6412244f-c9e5-4364-84f6-f35a5c9a9f54"/></svg>