<svg xmlns="http://www.w3.org/2000/svg" xmlns:xlink="http://www.w3.org/1999/xlink" xml:space="preserve" id="logo-default" viewBox="0 0 881.55 594.81"><defs id="defs6"><linearGradient id="swatch16"><stop id="stop17" offset="0" style="stop-color:#371f25;stop-opacity:1"/></linearGradient><linearGradient xlink:href="#swatch16" id="linearGradient18" x1="500.43" x2="785.35" y1="357.95" y2="357.95" gradientUnits="userSpaceOnUse"/></defs><g id="right-gear"><path id="right-gear-fill" d="M485.03 308.9c-7.4-1.5-20.27-5.65-26.17-8.43-4.91-2.31-5.56-3.78-5.49-12.41.03-4.3.54-9.12 1.46-14 1.94-10.25 2-10.72 1.66-11.61-.17-.44-2.03-1.67-4.14-2.74-4.28-2.18-12.65-7.99-19.45-13.5-2.46-2-4.82-3.62-5.24-3.62-.43 0-4.4 1.4-8.8 3.12-8.49 3.3-13.67 5-15.34 5-4.96 0-19.15-25-23.7-41.74-1.63-6.02-1.55-9.32.28-11.5 1.86-2.2 9.09-5.93 15.36-7.91 12.17-3.84 11.8-3.38 9.99-12.68-.8-4.1-1.4-9.99-1.63-16.04-.3-7.68-.55-9.77-1.32-10.64-.52-.6-5.45-4.2-10.96-8-10.01-6.95-11.73-8.66-11.73-11.7 0-1.92 4.74-20.73 7.58-30.13 2.87-9.45 4.02-10.83 8.99-10.83 5.17 0 11.14 1.14 17.23 3.3 6.02 2.15 8.02 2.19 9.09.2 1.87-3.5 10.79-14.23 18.39-22.12 3.23-3.36 4.8-5.45 4.8-6.36 0-.74-1.8-5.15-4-9.78-5.47-11.5-7-15.77-7-19.47 0-2.86.14-3.18 2.17-4.76 5.31-4.12 19.1-11.55 31.99-17.24 9.13-4.02 12.86-4.98 14.97-3.85 1.11.6 7.68 12.81 7.68 14.29 0 .37 1.98 2.8 4.4 5.4 4.9 5.29 4.17 5.07 12.12 3.5 1.6-.32 7.1-.56 12.25-.54 6.8.02 9.5-.16 9.92-.7.32-.39 2.79-5.02 5.49-10.29 5.95-11.6 7.52-14.15 9.56-15.48 2.99-1.96 5.95-1.44 34.01 5.9 6 1.58 10.8 3.59 13.34 5.58 2.26 1.78 5.43 6.88 6.1 9.82.88 3.76.73 12.05-.25 14.77a29 29 0 0 0-1.18 4.93l-.34 2.6 5.91 4.93c3.25 2.7 8.79 7.98 12.3 11.73 5.22 5.58 6.68 6.83 8.01 6.83.9 0 4.58-1.08 8.18-2.4l10.33-3.75c6.53-2.36 11.04-1.7 13.79 2.04 5.4 7.34 18.88 32.02 19.39 35.52.47 3.2-.56 5.37-4.23 8.95-11.08 10.8-16.49 16.67-16.43 17.83.04.67.4 3.7.8 6.74.7 5.32.55 16.14-.35 24.76-.36 3.47-.31 3.67 1.35 5.22.95.9 4.31 3.03 7.47 4.74 13.55 7.38 15.96 9.6 16.35 15.04.32 4.62-4.45 28.19-6.92 34.1-1.76 4.23-1.94 4.45-5.03 5.86-4.39 2.01-10 1.97-21.3-.15-4.8-.9-9.37-1.47-10.15-1.26-1.02.27-2.75 2.51-6.24 8.08a103 103 0 0 1-12.1 15.7c-8.43 9.25-8.04 7.64-4.5 18.92 3.27 10.36 3.57 11.99 2.55 13.8-1.53 2.74-5.99 5.47-22.84 14-15.15 7.68-16.84 8.4-20.17 8.6-3.3.21-3.84.07-6.04-1.54-2.01-1.46-3.07-3.07-6.2-9.47-2.07-4.24-4.24-8.28-4.82-8.98-1.72-2.09-4.08-3.02-6.17-2.45-4.73 1.28-12.97 2.32-20.93 2.63-6.14.23-9 .57-9.62 1.12-.49.44-2.58 3.98-4.64 7.88-4.48 8.46-9.76 14.49-13.6 15.52-3.53.95-8.56.68-16.24-.88m61.23-66.59c11.48-2.02 25.42-7.94 34.46-14.64 16.48-12.22 27.87-30.36 32.51-51.75 1.49-6.87 1.5-23.7.02-30.73-3.5-16.55-10.73-30.37-22.13-42.23-12.1-12.6-25.24-20.23-41.56-24.13-7.26-1.74-17.82-2.8-23.35-2.33-22.53 1.9-40.25 9.84-55.3 24.76-24.37 24.17-31.37 60.48-17.83 92.56 5.2 12.33 15.13 25.06 25.86 33.17 6.58 4.97 23.7 11.98 34.6 14.16 10.57 2.11 24.5 2.6 32.72 1.16" style="display:inline;fill:#76bdb1;fill-opacity:1;stroke-width:0.579725"/><path id="right-gear-outline" d="M486.6 314.8c-8.44-1.55-21.4-5.08-25.12-6.85a21.6 21.6 0 0 1-9.67-9.69c-1.38-2.83-1.56-4.04-2.06-13.75-.3-5.85-.38-12.73-.19-15.28l.35-4.65-4.26-2.73c-4.47-2.86-7.6-5.27-12.84-9.86l-3.13-2.74-5.16 1.68c-9.27 3.02-17.98 5.26-20.5 5.26-4.98 0-7.92-2.55-13.3-11.49a108 108 0 0 1-5.27-10.35c-1.37-3.14-4.4-9.95-6.76-15.13-6.45-14.2-6.46-17.73-.07-23.65 2.72-2.52 5.7-4.35 12.86-7.9 5.13-2.54 9.32-4.92 9.31-5.3s-.36-3.4-.8-6.73c-.5-3.85-.69-8.84-.5-13.76l.3-7.7-9.48-6.16c-5.21-3.38-10.36-7.13-11.45-8.34-3.84-4.25-4.37-9.12-2.16-20.02 3.15-15.54 5.39-23.26 7.76-26.79 4.55-6.77 10.2-7.72 29.03-4.88l6.89 1.04 1.8-2.61a144 144 0 0 1 13.36-16.11l4.74-4.93-1.97-4.46c-4.68-10.6-8.9-21.8-9.21-24.47-.69-5.76 2.37-10.07 10.6-14.96 3.7-2.19 14.27-7.27 30.38-14.58 14.51-6.59 17.57-5.19 26.7 12.25 5.72 10.91 4.36 10.1 14.13 8.34 3.92-.7 7.34-.94 10.74-.75l5 .28 3.1-5.39a161 161 0 0 0 5.28-10c2.82-6 4.34-8 7.5-9.85 2.2-1.3 3.43-1.56 8.17-1.75 7.32-.3 13.17.87 26.3 5.2 17.4 5.76 23.12 9.1 26.12 15.23 1.31 2.67 1.52 3.84 1.5 8.5 0 5.27-.4 11.77-.95 15.36-.25 1.65.14 2.1 6.1 6.88 3.5 2.81 8.24 7.23 10.53 9.82 2.29 2.6 4.39 4.8 4.66 4.91s4.99-1.29 10.47-3.1c8.24-2.73 10.48-3.26 12.92-3.06 8.6.71 15.23 7.68 23.91 25.1a155 155 0 0 1 5.1 11.6c1.9 4.98 2.2 6.47 2.24 10.72.07 7.77-.91 9.24-11.4 17.1-5.34 4-8.42 6.67-8.24 7.16 1.58 4.45 2.26 24.01 1 28.96l-.62 2.49 2.99 2.38c1.64 1.3 6.13 4.44 9.98 6.97 4.91 3.22 7.46 5.3 8.53 6.94 4.21 6.5 3.25 17.17-3.18 35.24-4.9 13.76-8.3 18.16-15.02 19.42-1.12.21-6.28-.16-11.46-.82-12.96-1.66-14.06-1.62-15.3.47-2.15 3.64-9.64 12.82-14.84 18.2l-5.49 5.65 1.01 4.78a177 177 0 0 0 2.42 9.67c3.24 11.3 1.42 16.12-8.6 22.78-11.17 7.43-31.45 15.6-38.75 15.62-6.86.01-12.72-5.34-18.42-16.82-2.63-5.29-2.72-5.4-4.42-5.05a68 68 0 0 1-17.72 1.25l-7.28-.35-3.67 5.93-6.26 10.15c-2.97 4.83-6.6 8.29-9.81 9.35-3.8 1.25-12.05 1.31-18.45.14m17.31-7.79c1.58-1.03 3.47-3.77 10.72-15.5 6.3-10.2 4.98-9.53 18.54-9.53 9.17 0 12.39-.22 16.43-1.12 4.31-.97 5.16-1.01 6-.32.53.44 2.54 3.95 4.46 7.79 4.34 8.68 6.44 11.64 9.51 13.44 2.12 1.24 2.71 1.34 4.95.84 12.1-2.71 34.2-13.4 38.18-18.45 1.52-1.93 1.5-5.84-.04-10.83-1.82-5.89-3.42-13.65-3.43-16.63-.02-2.64.07-2.77 6.54-9.28 6.6-6.63 13.75-15.59 15.94-19.97 1.73-3.44 2.55-3.94 5.77-3.5 1.51.2 5.23.6 8.26.89 3.02.28 7.92.85 10.87 1.25 4.71.65 5.6.63 7.29-.18 2.52-1.2 5.2-6.34 8.71-16.68 4.26-12.56 5.42-22.16 3.1-25.7-.52-.79-4.66-3.94-9.22-7-12.54-8.43-13.48-9.2-13.7-11.05-.1-.9.26-3.88.8-6.62 1.17-5.88.88-18.36-.57-24.13a32 32 0 0 1-.89-4.78c-.03-1.96 3.32-5.28 11.51-11.4 4.08-3.04 7.71-6.2 8.08-7.02 1.12-2.44.79-5.88-1.1-11.5-2.9-8.67-10.84-23.92-14.65-28.13-2.03-2.26-6.27-4.7-8.14-4.7-.95 0-6.48 1.56-12.29 3.47s-11.2 3.48-12 3.48c-.98 0-1.95-.68-3.07-2.17-3.15-4.21-10.45-11.33-16.18-15.78a96 96 0 0 1-7.17-6l-1.37-1.48.99-10.17c.54-5.59.8-11.02.58-12.06-1.1-5.19-4.17-7.57-14.9-11.56-14.82-5.52-27.54-8.53-32.75-7.75-3.81.57-5.46 2.43-9.65 10.88-2.09 4.23-5 9.72-6.47 12.21l-2.67 4.53-7.36-.39c-7.41-.4-14.94.47-20.4 2.34a6.7 6.7 0 0 1-3.96.18c-1.71-.46-2.2-1.1-4.47-5.85-3-6.32-8.13-15.67-9.99-18.23-.72-1-1.81-1.98-2.42-2.17-1.41-.45-6.36 1.55-22.35 9.02-19.33 9.04-23.48 11.75-23.48 15.4 0 1.7 3.03 9.63 9.72 25.43.8 1.91 1.59 4.54 1.74 5.84.26 2.28.14 2.47-3.04 5.2-4.48 3.81-13.09 13.88-16.94 19.78-3.69 5.67-4.7 6.38-7.67 5.49-3.35-1-17.72-2.98-21.66-2.98-4.5 0-7.2 1.3-8.66 4.16-2.36 4.6-7.95 30.67-7.22 33.6.68 2.7 2.68 4.45 11.27 9.9 4.68 2.96 9.6 6.43 10.93 7.7l2.42 2.33-.3 10.45c-.28 9.26-.16 11.2.98 16.93.7 3.56 1.13 6.96.94 7.55-.22.71-4.15 2.93-11.38 6.43-12.68 6.13-16.2 8.76-16.2 12.1 0 1.27 2.02 6.6 5.53 14.56 6.81 15.45 9.5 20.83 12.65 25.31 2.02 2.87 2.77 3.51 4.32 3.66 1.96.2 8.06-1.38 19.1-4.93 8.19-2.64 8.95-2.46 15.8 3.65a100 100 0 0 0 10.14 7.8c8.73 5.7 8.56 5.52 8.2 8.6-.95 8.34.05 28.84 1.55 31.74 1.82 3.53 5.2 5.84 11.24 7.71 5.2 1.61 15.95 4.2 20.17 4.87 4.03.63 12.28.06 13.84-.97zm-7.37-3.19a4.2 4.2 0 0 1-.95-2.42c0-1.49 7.54-15.7 9.46-17.82 2.22-2.47 6.19-1.06 6.19 2.2 0 1.52-7.53 15.7-9.44 17.8-1.45 1.58-3.94 1.7-5.26.24m108.36-20.46c-1.8-1.41-1.93-3.54-.33-5.15 2.25-2.24 5.81-.79 5.8 2.37-.02 1.87-.59 2.66-2.43 3.37-1.26.47-1.83.36-3.04-.59m-3.63-9.35c-1.65-1.81-4.35-10.3-4.12-13 .13-1.66.55-2.39 1.74-3.06 2.52-1.4 4.37.4 6.27 6.1 2.45 7.3 2.53 8.2.88 9.85-1.76 1.76-3.24 1.8-4.77.11m-71.35-14.67c-1.5-1.05-1.78-4.34-.46-5.44.46-.38 2.6-.94 4.78-1.24 4.87-.68 7.14-1.4 11.08-3.49 4.07-2.15 6.5-1.38 6.5 2.06 0 3.16-4.13 5.87-12.03 7.89-5.3 1.36-8.16 1.42-9.87.22m-40.33-9.43c-1.43-1.59-1.22-3.97.46-5.06 1.71-1.13 3.49-.69 4.7 1.16 2.14 3.27-2.53 6.8-5.16 3.9m31.5-5.4c-13.04-1.33-27.09-6.52-38.82-14.33-6.18-4.11-15.8-13.32-20.68-19.78-3.96-5.25-10.37-17.52-12.42-23.78-3.14-9.57-4.92-22.85-4.3-31.89 2.79-39.76 30.74-71.44 69.85-79.13 7.56-1.49 22.3-1.81 28.6-.62 9.5 1.8 22.16 7.23 32.75 14.06 5.79 3.74 16.06 12.18 19.74 16.23 8.44 9.28 15.47 24.3 18.43 39.32 1.54 7.8 1.39 24.12-.28 31.75-6.71 30.56-27.93 54.57-56.67 64.13a85.5 85.5 0 0 1-36.2 4.04m17.1-7.47c18.12-2 34.4-9.74 46.9-22.27 10.82-10.83 17.9-23.87 21.3-39.21 1.79-8 1.94-23.7.31-31.13-1.88-8.6-5.1-17.08-9.02-23.79-10.5-17.96-37.16-35.76-57.4-38.33-36.6-4.65-71.28 16.6-83.47 51.15-3.14 8.9-4.3 15.81-4.33 25.91-.07 16.49 4.12 30.42 13.25 44.03 3.4 5.07 11.14 13.38 16.16 17.35 15.75 12.45 36.6 18.49 56.3 16.3m37.56 7.53c-3.06-1.22-1.8-6.36 1.56-6.36 1.76 0 3.5 1.74 3.5 3.5 0 2.25-2.73 3.79-5.06 2.86m-171.94-2.9c-1.78-1.4-1.96-2.63-.64-4.52 1.35-1.92 4.8-1.57 6 .6.81 1.45.79 1.7-.32 3.2-1.54 2.05-3.07 2.28-5.04.73m9.5-3.82c-2.44-3.1-1.08-4.71 6.22-7.4 6.57-2.4 7.79-2.53 9.39-.93 1.46 1.46 1.48 3.58.05 4.87-1.33 1.21-11.28 4.98-13.13 4.98-.75 0-1.86-.67-2.53-1.52m48.88-9.26c-4.9-3.27-10.38-9.66-11.02-12.86-.26-1.31-.04-2.05.88-2.96 2.2-2.2 3.75-1.62 7.24 2.76a40 40 0 0 0 6.05 6.1c3.02 2.2 3.58 3.04 3.58 5.3 0 1.44-1.92 3.17-3.53 3.17-.52 0-1.96-.68-3.2-1.5m132.86-2.88c-1.65-1.65-1.1-3.95 1.78-7.45 1.49-1.8 3.9-5 5.37-7.12 2.9-4.19 4.35-5.08 6.5-4.02 2.36 1.17 2.2 4.45-.4 8.4-2.49 3.77-6.3 8.6-7.94 10.08-1.4 1.27-4.1 1.32-5.31.1M438.39 199c-.9-1.35-.9-1.67-.14-3.04 1.64-2.94 6.32-1.97 6.32 1.32 0 3.17-4.43 4.4-6.18 1.73m230.48-7.03-6.09-4.1c-2.52-1.7-6.23-4.02-8.24-5.15-4.38-2.45-5.76-4.23-4.98-6.44a3.8 3.8 0 0 1 2.17-2.1c1.9-.68 4.47.51 12.95 6 9.55 6.17 11.63 8.9 8.88 11.65-1.42 1.42-2.73 1.46-4.69.14m-52.32-2.94c-1.26-1.4-1.22-3.17.1-4.36 2.18-1.98 5.9-.5 5.9 2.33 0 2.71-4.12 4.1-6 2.03m-180.53-9.69c-1.9-1.33-3.61-7.62-4-14.75-.5-8.86.68-12.33 4.2-12.33 2.83 0 3.18 1.02 3.37 9.76.12 5.64.45 8.85 1.12 10.67 1.24 3.41 1.2 5.4-.1 6.58-1.32 1.2-2.94 1.22-4.59.07m185.48-16.84c-1.27-.88-1.3-1.17-1.11-8.7.17-6.88.32-7.87 1.32-8.62 1.65-1.25 3.02-1.08 4.69.6 1.45 1.44 1.48 1.62 1.28 8.34-.17 5.75-.39 7.06-1.31 8.08-1.32 1.45-3.08 1.56-4.87.3M401.25 140c-6.3-3.02-15.06-8.32-15.46-9.36-1.05-2.75.47-5.46 3.06-5.46.72 0 3.51 1.3 6.22 2.9s6.47 3.7 8.38 4.65c1.91.97 3.99 2.27 4.61 2.9a3.56 3.56 0 0 1-1.48 6.01c-.73.22-2.75-.4-5.33-1.64m36.3-8.07c-1.72-.86-2.18-3.85-.8-5.23 2.1-2.1 5.5-.54 5.5 2.5 0 2.52-2.36 3.89-4.7 2.73m173.77-12.01c-1.84-1.45-1.99-3.56-.37-5.18s3.73-1.47 5.18.37c1.55 1.98 1.51 2.85-.23 4.59-1.73 1.73-2.6 1.77-4.58.22m-160.82-8.4c-2.97-2.08-.76-6.85 7.12-15.42 7.48-8.13 10.93-10.1 13.24-7.54 1.93 2.13 1.22 3.5-5.3 10.2-3.45 3.52-7.14 7.72-8.2 9.32-3.04 4.55-4.35 5.2-6.86 3.44m143.19-14.85A47 47 0 0 0 583 87.08c-3.39-2.23-4.26-3.11-4.41-4.43-.24-2.03 1.3-3.86 3.24-3.86 4.04 0 16.1 9.6 18.07 14.38.71 1.74.67 2.08-.37 3.48-1.74 2.34-3.92 2.35-5.84.01m32.38-11.86c-2.25-2.86-1.2-4.4 4.95-7.23 5.6-2.6 7.32-2.79 8.6-.97 2.16 3.09.6 5.15-5.98 7.93-5.19 2.19-6.04 2.22-7.57.27M481.97 79c-1.45-1.45-.92-4.34 1-5.41 1.44-.8 1.76-.8 3.2 0a3.37 3.37 0 0 1-1.65 6.36c-.88 0-2.03-.43-2.55-.94m161.83-1.27a3.51 3.51 0 0 1 2.61-5.9c2.97 0 4.52 4 2.32 6-1.4 1.27-3.74 1.22-4.93-.1m-88.37-4.48c-2.52-1.76-1.17-6.06 1.9-6.06s4.41 4.3 1.9 6.06c-.71.5-1.57.9-1.9.9-.34 0-1.2-.4-1.9-.9m-48.09-1.43c-1.44-.58-2.2-2.77-1.68-4.85 1.02-4.06 17.87-6.15 20.2-2.5.78 1.23.48 3.68-.56 4.6-.7.6-2.72.97-6.53 1.15-3.51.18-6.18.62-7.36 1.23-2.08 1.08-2.27 1.1-4.07.37m-52.92-7.68c-1.76-.87-7.43-11.97-7.49-14.68-.07-3.23 3.83-5.01 5.9-2.7.5.56 2.25 3.92 3.87 7.47 2.47 5.39 2.87 6.7 2.4 7.94a4.5 4.5 0 0 1-1.71 2.1c-1.4.74-1.2.74-2.97-.13m-11.26-22.2a3.4 3.4 0 0 1 .03-4.6c1.43-1.42 4.35-.91 5.38.95.77 1.36.75 1.68-.14 3.04a3.5 3.5 0 0 1-5.27.6zm96.23-6.18a5 5 0 0 1-.9-2.04c0-1.17 8.68-18.26 10.01-19.72.66-.71 1.79-1.3 2.5-1.3 1.33 0 3.72 2.44 3.72 3.78 0 1.23-8.57 18.12-9.83 19.38-1.6 1.6-4.35 1.55-5.5-.1" style="display:inline;fill:#000000;fill-opacity:1;stroke-width:0.579725"/></g><g id="left-gear"><path id="left-gear-fill" d="M442.62 344.73c-1.48 3.4-6.07 6.78-11.7 8.63-3.54 1.16-7.35 3.06-12.07 6.04-6.7 4.22-6.96 4.33-9.13 3.75-3.55-.95-3.66-.57-3.76 13.2-.08 11.38-.97 20.71-2.55 26.69-.3 1.15-.56 3.4-.56 4.98v2.89l4.57 3.85c2.5 2.11 6.17 5.04 8.15 6.49 6.88 5.07 15.69 15.23 15.69 18.1 0 .47.69 1.39 1.53 2.05 1.5 1.18 1.52 1.28 1.16 6.36-.2 2.84-.74 5.86-1.2 6.71s-1.52 3.89-2.38 6.75c-1.65 5.54-5.9 14.13-13.44 27.18-5.9 10.21-8.63 14.02-11.18 15.57-1.12.67-2.6 1.9-3.28 2.72-1.21 1.45-1.46 1.5-7.54 1.44-9.29-.1-23.5-3.76-29.82-7.7a32 32 0 0 0-5.65-2.65c-1.64-.54-3.5-1.64-4.13-2.45-.64-.81-1.51-1.34-1.95-1.17s-1.9 1.96-3.26 3.98c-2.87 4.27-13.77 15.52-20.95 21.63-8.16 6.94-9.97 8.89-9.58 10.34 1.95 7.26 5.58 28.28 5.58 32.29 0 5.11-2.05 6.84-13.92 11.72-16.53 6.81-32.45 11.26-46.37 12.96-12.9 1.58-19.03.36-21.38-4.26-2.9-5.68-6-18.66-6.76-28.25-.83-10.57-1.43-11-15.55-10.82-5.79.07-12.08-.16-14-.5a219 219 0 0 0-10.43-1.5c-3.83-.48-7.87-1.01-8.99-1.18-2.7-.4-4.07.74-17.76 14.8-6.02 6.18-11.77 11.59-12.8 12.03-3.96 1.69-8.37.77-16.87-3.5a161 161 0 0 0-8.86-4c-8.44-3.5-29.63-14.22-31.36-15.88-2.3-2.2-3.1-5.5-2.22-9.16 1.73-7.13 4.34-14.78 6.15-18.06a87 87 0 0 0 4.3-10.08l2.34-6.5-3.8-3.7c-2.1-2.03-4.13-3.7-4.53-3.7-1.58 0-20.1-21.38-20.1-23.22 0-1.8-4.63-9.26-6.18-9.97-1.04-.47-2.38-.32-5.84.66-2.48.7-6.88 1.9-9.79 2.68-2.9.77-7.08 2.08-9.27 2.91-5.61 2.12-15.74 4.92-17.83 4.92-1.36 0-2.43-.71-4.82-3.18-1.7-1.74-3.08-3.55-3.08-4.02s-1-2-2.23-3.42a28 28 0 0 1-3.82-6.56c-.87-2.2-1.93-4.37-2.36-4.85-1.72-1.95-7.29-19.78-9.81-31.46-1.3-6.02-1.44-7.78-1.2-15.01.29-9.07.55-9.76 4.34-11.36 1.1-.47 3.34-2.06 4.97-3.54 5.42-4.94 18.32-10.16 25.21-10.2l3.8-.03.14-6.37c.21-9.52 1.97-19.66 5.87-33.87.7-2.5.34-3.09-3.55-6.04-29.14-22.14-30.06-23-30.06-28.52 0-3.85 3.88-13.8 12.27-31.47a131 131 0 0 0 3.39-7.48c0-1.47 7.03-14.06 9.78-17.51 6.17-7.75 8.8-8.28 24.13-4.96 2.55.56 5.94 1.2 7.54 1.44l9.61 1.49 6.72 1.05 8.64-7.2a232 232 0 0 1 27.35-19.33c2-1.2 3.91-2.72 4.26-3.37.7-1.3-.75-11.9-3.11-22.79a58 58 0 0 1-1.28-11.88c-.02-7.95.78-9.7 5.7-12.43 7.16-3.97 41.47-16.38 50.68-18.33 2.89-.61 5.8-.52 11.6.36 2.76.42 5.59 2.8 6.82 5.74.4.97 1.69 3.32 2.85 5.24q2.12 3.48 1.9 5.03c-.16 1.1 1.15 4.15 4.46 10.43 4.54 8.6 4.75 8.88 6.42 8.74.95-.08 5.68-.15 10.5-.15 9.73-.02 15.52.78 25.43 3.52 12.84 3.54 15.1 4.06 16.4 3.74 2.15-.53 5.73-4.15 12.63-12.76 12.36-15.44 16.97-18.63 24.66-17.07 6.24 1.26 35.7 12.9 42.68 16.87 8.18 4.65 9.7 7.25 9.6 16.43-.06 5.9-1.18 10.5-4.79 19.73-2.03 5.21-2.33 6.58-2.33 10.62 0 4.19-.16 4.81-1.56 6.49l-1.56 1.85 2.87 2.69c1.58 1.47 5.58 5.16 8.89 8.19 6.6 6.03 18.93 20.52 23.3 27.38 1.57 2.45 1.9 2.52 6.42 1.34 1.79-.47 6.47-1.26 10.41-1.77 3.95-.5 7.62-1.17 8.18-1.47s2.7-.55 4.8-.55c3.39 0 3.98.18 5.66 1.7 1.02.95 2.75 2.45 3.84 3.33 3.02 2.45 4.48 6.1 11.36 28.3a367 367 0 0 0 3.86 11.88c.64 1.76 2.19 7.2 3.43 12.1 2.4 9.38 2.8 14.13 1.46 17.2m-94.78.52c-2.3-12.32-6-23.18-11.71-34.46-7.07-13.93-17.34-26.98-26.74-33.98a220 220 0 0 0-25.24-15.51c-4.93-2.48-14.92-5.98-24.93-8.72-9.85-2.7-15.6-3.66-29.67-4.96-7.2-.66-17.48.34-22.65 2.21-1.75.64-8.66 2.64-15.36 4.45-14.8 4.02-17.52 5.34-33.55 16.3-1 .68-3.78 3.04-6.18 5.24-17.38 15.92-28.27 32.57-35.04 53.53-4.22 13.08-5.76 24.49-5.31 39.42.69 23.27 7.14 43.54 19.92 62.6a96 96 0 0 0 9.9 12.95c15.84 18.13 38.39 31.56 62.44 37.18 6.17 1.44 6.06 1.43 14.9 2.3a117.6 117.6 0 0 0 54.27-7.28c28.4-10.8 50.13-31.27 65.52-61.72 4.68-9.25 7.34-17.45 9.67-29.8 1.25-6.56 1.36-8.48 1.17-20.3-.16-10.04-.48-14.5-1.4-19.45" style="display:inline;fill:#8275bd;fill-opacity:1;stroke:none;stroke-width:0.579725;stroke-opacity:1"/><path id="left-gear-outline" d="M445.53 344.26a28 28 0 0 1-5.73 7.25c-3.7 3.47-6.27 5.07-24.01 15l-4.5 2.5v7c0 9.48-.96 19.16-2.58 26.08l-1.35 5.74 1.82 1.47c3.86 3.13 18.03 17.4 21.39 21.54 7.2 8.9 8.8 15.83 6.3 27.39-1.63 7.47-8.62 22.05-17.2 35.8-9.16 14.71-11.29 16.7-19.31 18.08-5.37.92-12.44-.27-26.46-4.44l-14.3-4.23-3.88-1.13-2.5 3.45c-2.47 3.41-15.67 15.86-24.4 23.01-2.46 2.03-4.49 3.98-4.49 4.35s.9 3.78 2 7.6a111 111 0 0 1 4.14 21.35l.39 4.55-3.73 3.56c-4.48 4.27-10.72 7.89-21.64 12.52-14.82 6.3-31.33 10.12-51.95 12.03-7.09.65-13.12-2.83-14.58-8.4-.39-1.5-3.19-10.13-6.22-19.17l-5.51-16.43-8.12-.25c-12.02-.36-23.35-1.81-31.32-4.02-.95-.26-2.43 1.08-7.54 6.8-15.99 17.9-16.42 18.33-19.7 19.93-7.25 3.55-14.8 1.37-41.73-12.05C94.46 549 92.05 547.18 91.45 540.5c-.18-1.94-.01-5.16.37-7.17 1.23-6.43 5.25-18.96 8.25-25.7l2.91-6.54-11.27-11.2c-8.43-8.39-12.31-12.72-15.38-17.2a97 97 0 0 1-4.33-6.64c-.14-.42-2.24.12-5.89 1.52-3.12 1.2-10.54 3.37-16.48 4.82-9.37 2.3-11.35 2.61-14.87 2.33-9.78-.77-13.8-4.08-19.63-16.12-5.5-11.37-10.06-24.6-13.77-39.93C.33 414.42.02 411.44 0 405.62c-.02-7.08.07-7.73 1.57-10.79 3.45-7.02 10.27-11.4 26.52-17.05 11.45-3.97 10.74-3.4 10.54-8.48-.27-7.18 2.52-24.09 5.1-30.87.53-1.4-.04-1.94-12.61-11.98-7.25-5.79-13.9-11.34-14.8-12.34-2.82-3.15-5.17-8.75-5.48-13.07-.34-4.8.82-8.28 8.79-26.15 7.68-17.24 9.2-20.33 13.28-26.88 4.57-7.33 7.07-10.14 10.92-12.25 2.74-1.5 3.69-1.7 8.03-1.71 5.2-.01 26.3 2.6 32.11 3.98l3.42.8 6.55-5.92c7.02-6.35 18.07-14.53 25.21-18.65l4.4-2.54-1.33-7.98c-1.58-9.5-2.78-23.84-2.24-26.76 2.01-10.96 11.94-17.98 37.1-26.25 18.26-5.99 24.45-7.54 30.44-7.6 11.02-.1 15.05 3.72 25.83 24.51l5.27 10.15 9.52.38c13.4.53 22.92 2.23 33.13 5.89l5.63 2.02 5.18-5.89c9.35-10.62 19.86-20.89 23.27-22.72 2.9-1.56 3.68-1.7 8.7-1.7 6.2.03 5.77-.13 32.75 12.01 19.16 8.63 21.7 10.4 24.15 16.86 2.25 5.94 1.62 15.6-1.93 29.67-.65 2.55-1.76 7.7-2.48 11.43l-1.31 6.8 3.54 2.76c9.32 7.27 20.76 20.52 28.99 33.6.03.04 2.01-.28 4.4-.72 22.53-4.14 30.1-3.31 34.87 3.84 2.14 3.2 6.81 15.42 9.76 25.48.89 3.03 3.5 11.38 5.8 18.55 3.74 11.66 4.2 13.66 4.47 18.84.27 5.62.23 5.92-1.53 9.37M439.46 332c-.17-1.28-1.52-6.1-3-10.73-1.49-4.62-4.09-12.84-5.78-18.26-7.29-23.38-9.3-28.1-12.5-29.22-2.86-1-10.74-.75-18.28.56-13.72 2.38-13.65 2.38-15.38 1.66-1-.42-2.45-2.01-3.76-4.17-2.59-4.27-9.78-14-13.77-18.64-1.62-1.88-6.2-6.28-10.2-9.77-7.7-6.74-8.64-7.92-8.75-10.96-.08-2.21 1.71-11.94 3.45-18.74 1.77-6.9 3.57-17.49 3.54-20.82-.02-3.35-1.1-6.83-2.65-8.54-1.63-1.8-7.27-4.75-18.13-9.49a392 392 0 0 1-13.52-6.14c-10.4-5.25-17.4-6.82-21.57-4.85-1.91.91-14.59 13.53-23.69 23.59-6.46 7.14-6.68 7.2-15.38 4-10.63-3.91-18.7-5.32-32.57-5.68-8.85-.23-12.22-.51-13.2-1.13-1.84-1.17-3.47-3.95-7.92-13.55-4.68-10.1-9.36-17.36-12.37-19.22-3.05-1.9-9.01-1.8-16.37.26-10.32 2.89-28.1 8.95-34.4 11.72-8.52 3.76-12.55 6.8-14.61 11.02l-1.61 3.3.61 8.2c.34 4.5 1.35 12.8 2.24 18.43 1.51 9.62 1.55 10.32.65 11.69a5 5 0 0 1-2.64 1.83c-4.8 1.05-23.24 14.26-31.64 22.65-3.83 3.83-5.9 5.49-6.85 5.49-.75 0-3.7-.51-6.56-1.13a173 173 0 0 0-13.02-2.05c-4.3-.51-9.4-1.18-11.35-1.49-8.02-1.26-11.93-.25-15.13 3.92-4.9 6.38-8.54 13.2-15.6 29.26-2.43 5.52-5.48 12.39-6.77 15.26-3.1 6.89-3.5 11.03-1.4 15.11 2.08 4.08 2.52 4.47 25.49 22.73 3.43 2.73 6.38 5.53 6.56 6.22.17.7-.72 5.4-1.98 10.48-2.87 11.57-3.86 19.53-3.37 27.16.5 7.9.16 8.32-9.03 11-19.46 5.69-27.4 10.08-29.45 16.3-1.13 3.43-.41 12.73 1.65 21.14 3.68 15.07 11.94 36.35 16.31 42.02 2.61 3.38 6.51 5.52 10.05 5.52 4.15 0 18.09-3.68 27.36-7.23 10.5-4.02 12.46-3.83 15.74 1.59 4.94 8.14 12.4 17.1 22.45 26.97 8.1 7.96 10.22 10.34 10.22 11.55 0 .84-1.02 3.64-2.27 6.21-7.75 16-11.97 30.7-9.92 34.52.93 1.73 6.93 5.14 23.45 13.3 23.65 11.7 31.13 14.14 35.15 11.47.82-.54 3.95-3.79 6.95-7.22 14.74-16.84 18.16-19.99 21.64-19.95 1 .01 4.42.54 7.6 1.17 10.75 2.14 15.03 2.57 26.78 2.67 8.9.08 11.92.3 12.65.9 1.42 1.18 2.98 4.53 4.05 8.73.53 2.05 2.34 7.38 4.03 11.85a911 911 0 0 1 4.62 12.46c.86 2.4 2.26 5.65 3.13 7.25l1.57 2.9 3.76-.19c6.8-.33 19.85-2.4 28.4-4.52 16.4-4.04 38.32-14.37 39.7-18.7.59-1.88-1.33-12.74-3.76-21.25-1.27-4.45-2.47-9.31-2.67-10.81l-.36-2.72 2.78-1.92c8.51-5.88 24-20.82 28.54-27.52 2.98-4.41 4.94-6 7.39-6 1.04 0 4.55 1.06 7.81 2.35 7.65 3.03 19.1 6.73 24.14 7.8 9.94 2.13 14.98 1.68 18.5-1.63 5.46-5.16 21.78-34.94 24.18-44.14 2.5-9.62 1.34-14.77-5.19-22.93-3.79-4.74-14.41-15.35-20.6-20.58-4.2-3.56-4.85-4.65-3.98-6.75.3-.75 1.25-4.33 2.09-7.96 1.3-5.65 1.57-8.48 1.91-20.02.33-11.15.56-13.7 1.37-14.93.59-.9 4.58-3.42 10.14-6.42 13.18-7.08 16.36-9.04 19.52-11.99 3.78-3.54 5.77-7.59 5.27-10.78-.1-.63-.32-2.2-.49-3.47m-7.4 8.64c-2.28 1.6-4.37 1.14-5.6-1.21-1.58-2.99 1.87-6.19 5.03-4.68 2.16 1.02 2.5 4.54.58 5.89m-11.44 7.41c-3.54 3.03-12.26 8-14.03 8-2.19 0-3.51-1.48-3.3-3.69.14-1.43.74-2.17 2.9-3.55 10-6.4 12.44-7.83 13.35-7.83 1.48 0 3.35 2.08 3.35 3.72 0 .92-.8 2.08-2.27 3.35m-24.15 150.42c-2.1 2.1-3.86 1.74-16.88-3.47-14.77-5.92-17.45-7.2-18.57-8.92-.85-1.3-.87-1.63-.13-2.93.46-.8 1.3-1.76 1.85-2.1 1.17-.73.92-.82 16.65 5.7 5.88 2.43 12.08 4.82 13.76 5.3 2.93.86 4.8 2.49 4.8 4.16 0 .43-.66 1.44-1.48 2.26m-32.8-116.04c-.7 5.43-2.72 12.8-3.93 14.3-1.34 1.66-4.02 1.58-5.42-.15-1.23-1.52-1.18-2.1.76-8.93 1.12-3.96 1.32-6.1 1.37-14.69.05-9.23.15-10.1 1.18-10.87 1.55-1.13 2.34-1.03 4.07.49 2.33 2.03 3.17 10.49 1.97 19.85m-2.43-51.17a4.1 4.1 0 0 1-5.17 1.23c-.87-.45-1.6-1-1.63-1.23s-.16-1.02-.3-1.75c-.29-1.58 2.03-4.18 3.73-4.18 2.68 0 4.91 3.93 3.37 5.93m-11.46 43.46c-2.96 38.45-25.84 74.48-59.65 93.92-57.23 32.9-130.27 13.75-163.83-42.98-20.18-34.11-21.72-76.89-4.05-112.8 6.54-13.29 13.65-22.9 25.07-33.9 18.71-18.03 42.32-29.2 68.59-32.45 7.1-.87 22.67-.74 30.28.26 35.86 4.74 68 25.66 86.83 56.56 9.43 15.44 15.36 34.2 16.78 53.01.68 8.9.68 9.36-.02 18.38m-8.58-28.08c-4.1-23.43-14.79-44.13-31.37-60.72-33.42-33.41-84.84-42.3-127.4-22.02-12.66 6.03-21.73 12.27-31.05 21.37-17.18 16.76-27.97 37-32.32 60.63-1.51 8.22-2.05 22.4-1.15 30.73a114 114 0 0 0 20.76 54.4c4.64 6.52 16.14 18.24 22.9 23.34 26.4 19.9 58.76 27.13 91.6 20.49 11.84-2.4 27.06-8.6 37.54-15.3 26.84-17.18 45.28-44.9 50.37-75.75 1.67-10.08 1.71-10.72 1.5-21.09-.12-5.92-.62-11.73-1.38-16.08m7.4-149.72a197 197 0 0 0-3.13 12.46c-1.1 4.95-2.27 9.94-2.59 11.1-1.24 4.47-6.95 4.15-6.95-.4 0-4.1 5.16-25.73 7-29.33 1.38-2.7 3.7-3.18 5.9-1.22 1.26 1.13 1.2 2.95-.23 7.39m-1.4 235.53c-1.84 2.63-6.05 1.14-6.05-2.14 0-3.1 3.95-4.73 6-2.47 1.2 1.33 1.22 2.95.05 4.6m-.58-133.34c-.91 1.3-3.32 1.72-4.74.82-.4-.25-1.48-2.02-2.4-3.94-3.77-7.77-12.85-17.83-20.63-22.86-2.15-1.4-4.12-3.07-4.36-3.72-.67-1.81.47-4.33 2.15-4.75 5.51-1.38 23.82 15.94 29.5 27.91 1.61 3.4 1.71 4.78.48 6.54m-27.07 169.94c-3.58 3.65-11.49 9.3-16.8 12-3.59 1.82-5.94 1.81-7.15-.03-1.6-2.46-.2-4.16 6.96-8.43a71 71 0 0 0 11.14-8.27c5.06-4.74 6.73-5.41 8.52-3.44 1.9 2.12 1.23 4.2-2.67 8.17m-24.52-219.8c-1.73 2.46-6.06 1.05-6.06-1.97 0-3.14 3.9-4.43 5.9-1.96 1.3 1.58 1.32 2.28.16 3.94M268.2 491.92c-1.2 1.1-3.13 1.24-4.77.36-1.64-.87-1.53-4.27.16-5.45 1.73-1.21 2.88-1.14 4.4.28 1.55 1.44 1.64 3.52.21 4.81m-9.12 86.63c-1.5 2.15-4.97 1.62-6.3-.96-1.74-3.35-7.29-19.9-7.29-21.72 0-3.39 3.2-5 5.68-2.84.64.55 2.01 3.62 3.05 6.8 1.03 3.2 2.75 8.11 3.82 10.93 2.23 5.88 2.26 6.06 1.04 7.79m-2.56-338.73c-1.3 1.18-2.2 1.1-11.32-.95-4.89-1.1-7.52-1.31-16.81-1.33-6.43 0-13.14.31-16.12.77-4.7.72-5.18.7-6.23-.25-1.13-1.02-1.49-3.46-.69-4.67 1.46-2.18 9.29-3.31 23.04-3.32 12.87-.02 25.33 2.02 28.17 4.6a3.6 3.6 0 0 1-.04 5.15m-10.24 309.83c-.84.66-1.85 1.2-2.24 1.2-1.4 0-3.77-2.4-3.77-3.8 0-1.8 1.92-3.73 3.67-3.73 1.65 0 3.87 2.24 3.87 3.9 0 .68-.69 1.77-1.53 2.43m-16.5-51.79c-1.1 1-2.19 1.1-10.58 1.1-6.86-.01-10.52-.28-13.7-1.03-7.94-1.86-11.26-4.86-9.08-8.2 1.16-1.75 3.54-1.98 6.24-.58 3.06 1.58 10.15 2.57 18.44 2.57 7 0 8.1.13 8.94 1.06a3.6 3.6 0 0 1-.26 5.08m-23.76-310.28c-1.28 1.64-3.23 1.97-4.7.8-1.36-1.1-10.9-18.2-10.9-19.55 0-1.58 2-3.5 3.66-3.5 1.9 0 3.13 1.56 8.06 10.2 5.19 9.07 5.49 10.01 3.88 12.05m-13.86-25.14c-2 2-5.37 1.2-6.4-1.53a4 4 0 0 1 1.41-4.4c1.4-.95 3.76-.43 4.94 1.08 1.52 1.92 1.53 3.37.05 4.85m-3.69 84.69a3.6 3.6 0 0 1-5.29 1.46c-2.14-1.4-1.9-4.84.43-6.13 1.42-.8 1.76-.8 3.12-.02 1.96 1.1 2.63 2.91 1.74 4.69m-30.13 14.61c-.74.7-3.07 2.52-5.18 4.04s-6.77 5.9-10.36 9.71c-5.15 5.49-6.85 6.95-8.06 6.95a3.55 3.55 0 0 1-3.45-3.65c0-2.44 9.53-13 16.8-18.64 5.92-4.58 9.03-5.48 10.7-3.09 1.26 1.8 1.13 3.19-.45 4.68M139.5 460.61c-2.98 2.7-9.04-.97-19.36-11.72-9.42-9.82-11.7-14.4-8.28-16.65 2.25-1.48 4.05-.66 6.32 2.89 2.98 4.66 12.7 14.49 17.39 17.57 2.27 1.5 4.31 3 4.55 3.33.79 1.12.45 3.6-.62 4.58m-18.05 55.6a145 145 0 0 0-6.4 15.36c-1.34 4.06-2.72 7.73-3.05 8.14-.36.44-1.5.68-2.69.58-4.29-.36-4.23-3.82.23-15.53 2.54-6.66 7.88-17.84 9.37-19.64a3.54 3.54 0 0 1 5.53-.08c.58.7 1.03 1.72 1 2.24-.02.52-1.82 4.54-3.99 8.93m-6.44-204.58c-2.78 3.54-7.97-.24-5.5-4.01 1.25-1.91 4.5-1.99 5.8-.13 1.19 1.69 1.14 2.3-.3 4.14m-8.33 101.56c-3.14 2.06-6.58-2.2-4.04-5.01 1.11-1.23 2.64-1.41 4.34-.5s1.52 4.32-.3 5.51m-3.33-66.7c-1.5 5.48-1.95 17.5-.91 24.17.43 2.77.59 5.56.35 6.2-.96 2.59-5.08 2.9-6.38.47-.98-1.83-2.22-11.13-2.22-16.74-.01-9.52 2.34-20.7 4.61-21.92 1.84-.98 3.95-.68 4.92.7 1.07 1.54 1.06 1.9-.37 7.12m-19.43-87.25c-.49 1.4-2 2.32-3.78 2.32-2.68 0-31.35-6.36-32.73-7.26-1.6-1.05-2.16-2.8-1.36-4.3 1.41-2.65 2.12-2.61 18.17.82l16.34 3.49c2.46.52 4.08 2.89 3.36 4.93M45.78 393.56c-.5.71-2.54 1.8-4.79 2.54-2.15.7-5.99 2.16-8.53 3.23s-5.17 1.94-5.85 1.94c-2.58 0-4.1-3.73-2.43-5.95 1.05-1.39 16.48-7.38 19-7.38 1.43 0 3.47 1.97 3.47 3.35 0 .57-.4 1.59-.87 2.27m-25.59 9.99c-1.82 1.43-3.54 1.53-5.3.3-2.77-1.94-.82-6.64 2.77-6.64 3.71 0 5.36 4.12 2.53 6.34" style="display:inline;fill:#000000;fill-opacity:1;stroke-width:5"/></g><g id="left-node" style="display:inline" transform="translate(-12.936 -2.48)"><path id="left-node-fill" d="M252.75 284.2c38.46 4.6 68.44 33.93 73.95 72.34 1 6.9.38 23.23-1.12 29.7-4.37 18.96-13.59 34.32-28.2 47-16.49 14.3-38.9 21.42-61.64 19.57a84.4 84.4 0 0 1-68.66-46.63c-4.9-9.8-7.57-19.63-8.5-31.18-3.46-43.01 25.23-81.04 67.64-89.66 6.96-1.42 19.68-1.96 26.53-1.15M229.85 310a57 57 0 0 0-26.71 15.26c-22.58 22.57-22.71 58.15-.3 80.75 19.66 19.84 50.03 22.86 73.03 7.26C286.89 405.8 296 393 299.5 380.1c1.89-6.98 1.9-21.22.02-28.12-8.5-31.23-39.1-49.66-69.67-41.97z" style="display:inline;fill:#474832;fill-opacity:1;stroke-width:0.579725"/><path id="left-node-outline" d="M251.78 277.71c26.11 3.22 48.63 16.06 63.93 36.45 4.41 5.9 11.23 19.09 13.46 26.05 3.27 10.2 4 15.37 4.03 28.16.03 10.36-.15 12.7-1.34 18.26a92 92 0 0 1-7.25 21.02c-1.16 2.3-2.1 4.4-2.1 4.7 0 .28 1.5 1.42 3.33 2.53s12.72 7.82 24.2 14.93 26.1 16.1 32.47 20l11.6 7.06 72.3-1.14c67.28-1.06 72.4-1.07 73.77-.18 2.62 1.72 1.6 5.73-1.62 6.42-2.69.58-143.35 2.37-145.86 1.86-1.42-.29-4.29-1.57-6.38-2.86-2.1-1.28-18.08-11.16-35.52-21.96s-31.96-19.63-32.27-19.63-1.34 1.06-2.3 2.36c-3.5 4.77-11.95 13.43-16.77 17.2-13.8 10.77-29.63 17.4-46.21 19.34-7.79.92-21.6.35-28.81-1.19-37.07-7.88-64.97-36.82-71.32-73.94-1.56-9.12-1.24-25.44.65-33.62 4.16-18.01 12.28-32.92 24.64-45.22 7.43-7.39 14.05-12.25 22.8-16.72 13.1-6.69 25-9.68 39.55-9.96 4.95-.1 9.9-.05 11.02.08zm-27.25 9.1c-16.5 3.92-29.21 10.96-40.89 22.67-12.05 12.1-19.24 25.45-22.96 42.65-1.86 8.63-1.87 24.24-.02 32.87a85 85 0 0 0 7.95 22.1c11.7 22.55 32.44 38.21 57.84 43.7 7.93 1.7 23.6 1.84 31.4.27a89 89 0 0 0 29.38-11.41c4.86-3.02 5.69-3.7 13.98-11.58 4.19-3.98 10.86-11.95 10.86-12.97 0-.24 1.07-2 2.38-3.93 4.58-6.74 8.83-17.99 10.72-28.36 1.34-7.38 1.37-21.58.06-28.79-6.26-34.25-32.44-61-66.2-67.61-7.29-1.43-7.55-1.45-18.27-1.24-8.31.16-11.24.46-16.23 1.64zm30.73 21.81c22.04 4.69 39.23 21.2 45 43.22 1.92 7.36 2.17 18.75.57 26.1-4.63 21.2-20.92 38.56-41.51 44.26a57.6 57.6 0 0 1-40.43-3.4 59 59 0 0 1-32.11-38.69c-1.54-5.82-2.07-16.61-1.1-22.61 4.7-29.35 29.06-50.16 58.48-49.96 3.59.02 8.23.48 11.1 1.08zm-25.14 8.12c-5.04 1.37-12.75 5.03-16.31 7.74a53 53 0 0 0-16.53 20.34c-3.5 7.54-4.32 11.57-4.33 21.23 0 7.04.21 9.16 1.33 13.04 5.37 18.72 19.24 32.03 38.16 36.6 5.23 1.27 16.47 1.3 22.02.06 14.42-3.2 27.77-13.5 34.42-26.54a51.03 51.03 0 0 0-21.55-68.32c-4.57-2.43-8.04-3.68-13.88-5-5.35-1.21-17.37-.78-23.33.85zm28.68 19.36c6.13 2.85 16.84 15.22 16.86 19.45a3.4 3.4 0 0 1-3.83 3.32c-1.27-.15-2.22-1.08-4.47-4.4-3.5-5.17-10.2-11.5-12.98-12.27-2.75-.76-4.22-2.2-4.22-4.15 0-1.88 1.83-3.43 4.04-3.42.8 0 2.88.66 4.6 1.47z" style="display:inline;fill:#000000;fill-opacity:1;stroke:#000000;stroke-width:8;stroke-opacity:1"/></g><g id="right-node" style="display:inline" transform="translate(-12.936 -2.48)"><path id="right-node-fill" d="M571.46 214.93a59 59 0 0 1-21.74 6.36c-18.66 1.94-37.13-5.46-49.97-20-12.46-14.1-17.43-34.68-12.86-53.18 2.44-9.82 6.05-16.8 12.9-24.91 3.28-3.88 4.13-4.56 12.52-10 8.4-5.46 9.33-5.95 14.18-7.34 11.13-3.2 20.73-3.5 31.35-1.02 37.07 8.69 56.5 50.3 39.33 84.26a62 62 0 0 1-9.82 13.85c-3.07 3.28-12.16 10.14-15.89 11.98m12.93-38c2.15-4.78 3.18-11.63 2.82-18.68-.36-6.88-1.1-9.7-2.68-10.2-.65-.2-1.65.07-2.3.61-.96.8-1.07 1.9-.59 6.34.97 9.01-.13 17.05-3 22.02-1.46 2.55-1.4 3.94.23 4.84 1.74.96 3.66-.75 5.53-4.93" style="fill:#371f25;fill-opacity:1;stroke-width:0.579725"/><path id="right-node-outline" d="M544.79 364.11c-.2-7.54-.48-41.62-.86-75.7-.38-34.1-.77-62.3-.87-62.69s-2.14-.83-4.55-.98c-10.25-.64-23.1-5.44-31.74-11.87a63.7 63.7 0 0 1-25.39-44.2c-3.19-28.86 14.69-56.83 42.21-66.04 11.88-3.98 20.53-4.52 32.59-2.03 9.45 1.95 15.66 4.42 22.38 8.9a58 58 0 0 1 16.26 15.84c8.4 11.74 12.14 23.54 11.98 37.8-.17 15.1-6.28 30.35-16.68 41.64-9.12 9.9-22.97 17.42-35.62 19.34l-3.95.6.1 7.62c.23 20 1.94 94.42 1.73 130.9-.12 22.81-7.07 20.18-7.59.87zm-40.58-160.3a58.6 58.6 0 0 0 35.65 15.8c1.66.12 3.17.13 3.36 0 .19-.12 1.2-.18 2.27-.14 8.68.38 21.2-3.36 29.64-8.83a58 58 0 0 0 25.33-37.77c1.86-9.9 1.39-18.2-1.6-28.45a51 51 0 0 0-5.94-12.78c-2.5-4.03-6.3-8.7-8.9-11.1-7.9-7.3-16.45-11.93-26.45-14.3-11.63-2.78-21.23-2.33-33.4 1.55-5.6 1.79-18.1 10.08-22.3 14.8-15.62 17.53-19.76 40.82-11.06 62.17 2.15 5.28 8.81 14.76 13.4 19.06z" style="fill:#000000;fill-opacity:1;stroke:#000000;stroke-width:8;stroke-opacity:1"/></g><g id="text" style="display:inline" transform="translate(-12.936 -2.48)"><path id="s-systems" d="M508.25 450.87a12.16 14.6 0 0 0-12.17 14.6v51.1h-1.52a12.16 14.6 0 0 0-12.17 14.6v2.59a12.16 14.6 0 0 0-1.52-.76H439.8a12.16 14.6 0 0 0-12.16 14.6v16.42a12.16 14.6 0 0 0 12.16 14.6h41.07a12.16 14.6 0 0 0 12.16-14.6v-2.59a12.16 14.6 0 0 0 1.53.76h27.37a12.16 14.6 0 0 0 12.17-14.6v-51.11h1.52a12.16 14.6 0 0 0 1.53-.75v19.01a12.16 14.6 0 0 0 12.16 14.6h1.53v18.26A12.16 14.6 0 0 0 563 562.2h13.69a12.16 14.6 0 0 0 6.84-3.41 12.16 14.6 0 0 0 6.85 3.4h27.38a12.16 14.6 0 0 0 12.16-14.6v-51.11h1.53a12.16 14.6 0 0 0 6.84-3.4 12.16 14.6 0 0 0 6.84 3.4h1.53v51.12a12.16 14.6 0 0 0 12.16 14.6h13.69a12.16 14.6 0 0 0 12.16-14.6v-51.12h1.53a12.16 14.6 0 0 0 1.53-.75v51.87a12.16 14.6 0 0 0 12.16 14.6h41.07a12.16 14.6 0 0 0 6.84-3.41 12.16 14.6 0 0 0 6.85 3.4h13.68a12.16 14.6 0 0 0 12.17-14.6v-2.58a12.16 14.6 0 0 0 1.52.75h13.69a12.16 14.6 0 0 0 1.53-.75v2.59a12.16 14.6 0 0 0 12.16 14.6h13.69a12.16 14.6 0 0 0 6.84-3.41 12.16 14.6 0 0 0 6.85 3.4h27.38a12.16 14.6 0 0 0 12.16-14.6v-51.11h1.53a12.16 14.6 0 0 0 12.16-14.6v-16.42a12.16 14.6 0 0 0-12.16-14.6h-27.38a12.16 14.6 0 0 0-12.17 14.6v51.11h-1.52a12.16 14.6 0 0 0-1.53.76v-51.87a12.16 14.6 0 0 0-12.16-14.6h-68.44a12.16 14.6 0 0 0-6.85 3.41 12.16 14.6 0 0 0-6.84-3.4h-41.07a12.16 14.6 0 0 0-6.84 3.4 12.16 14.6 0 0 0-6.85-3.4h-41.07a12.16 14.6 0 0 0-6.84 3.4 12.16 14.6 0 0 0-6.84-3.4h-27.38a12.16 14.6 0 0 0-6.85 3.4 12.16 14.6 0 0 0-6.84-3.4h-13.69a12.16 14.6 0 0 0-6.84 3.4 12.16 14.6 0 0 0-6.85-3.4h-13.69a12.16 14.6 0 0 0-6.84 3.4 12.16 14.6 0 0 0-6.85-3.4h-13.69Zm234.23 44.86v21.6a12.16 14.6 0 0 0-1.52-.76h-2.16a12.16 14.6 0 0 0 .63-1.83v-16.42a12.16 14.6 0 0 0-.63-1.84h2.16a12.16 14.6 0 0 0 1.52-.75" style="font-size:74.6667px;font-family:'mem 5x6';-inkscape-font-specification:'mem 5x6, Normal';display:inline;fill:#000000;fill-opacity:1;stroke-width:0"/><path id="systems" d="M706.46 423.95v15h15v59.97h15v-59.98h14.99v-15h-22.5zm59.98 0v74.97h45v-14.99h-30v-15h15v-15h-15v-14.99h30v-15h-22.5zm59.99 0v74.97h15v-59.98h14.99v44.99h15v-44.99h14.99v59.98h15v-74.98h-37.5zm104.96 0v59.98H916.4v15h29.99v-59.99h15v-15h-15zm-375.59 1.1v59.98h-15v15h30v-59.99h15v-15h-15Zm44.99 0v44.99h15v29.99h14.99v-30h15v-44.99h-15v30h-15v-30h-7.5zm59.98 0v59.98h-15v15h30v-59.99h14.99v-15h-15zM480.7 499.4v15h44.99v-15h-22.5z" style="font-style:normal;font-variant:normal;font-weight:normal;font-stretch:normal;font-size:89.9726px;font-family:'mem 5x6';-inkscape-font-specification:'mem 5x6, Normal';font-variant-ligatures:normal;font-variant-caps:normal;font-variant-numeric:normal;font-variant-east-asian:normal;text-align:start;writing-mode:lr-tb;direction:ltr;text-anchor:start;display:inline;fill:#474832;fill-opacity:1;stroke:none;stroke-width:0" transform="scale(.91287 1.09545)"/><path id="s-svendsen" d="M471.64 338.06a12.18 14.61 0 0 0-12.17 14.61v51.1h-1.51a12.18 14.61 0 0 0-12.18 14.61v16.42a12.18 14.61 0 0 0 12.18 14.62h27.38a12.18 14.61 0 0 0 12.17-14.62v-51.09h1.51a12.18 14.61 0 0 0 1.51-.75v35.42a12.18 14.61 0 0 0 12.18 14.61h1.51v1.81a12.18 14.61 0 0 0 12.18 14.62h13.69a12.18 14.61 0 0 0 12.18-14.62V433h1.5a12.18 14.61 0 0 0 1.52-.76v2.56a12.18 14.61 0 0 0 12.18 14.62h41.06a12.18 14.61 0 0 0 6.85-3.4 12.18 14.61 0 0 0 6.84 3.4h13.69a12.18 14.61 0 0 0 6.84-3.4 12.18 14.61 0 0 0 6.85 3.4h13.69a12.18 14.61 0 0 0 6.84-3.4 12.18 14.61 0 0 0 6.85 3.4h27.38a12.18 14.61 0 0 0 12.17-14.62V433h1.51a12.18 14.61 0 0 0 1.52-.76v2.56a12.18 14.61 0 0 0 12.17 14.62h27.38a12.18 14.61 0 0 0 12.18-14.62v-51.09h1.5a12.18 14.61 0 0 0 1.52-.75v51.84a12.18 14.61 0 0 0 12.18 14.62h41.07a12.18 14.61 0 0 0 6.84-3.4 12.18 14.61 0 0 0 6.84 3.4h13.69a12.18 14.61 0 0 0 6.85-3.4 12.18 14.61 0 0 0 6.84 3.4h13.69a12.18 14.61 0 0 0 12.18-14.62v-82.13a12.18 14.61 0 0 0-12.18-14.61h-41.07a12.18 14.61 0 0 0-6.84 3.4 12.18 14.61 0 0 0-6.84-3.4h-41.07a12.18 14.61 0 0 0-6.85 3.4 12.18 14.61 0 0 0-6.84-3.4h-27.38a12.18 14.61 0 0 0-12.18 14.61v51.1h-1.5a12.18 14.61 0 0 0-1.52.75V369.1a12.18 14.61 0 0 0-12.18-14.61h-1.5v-1.82a12.18 14.61 0 0 0-12.18-14.61h-27.38a12.18 14.61 0 0 0-6.85 3.4 12.18 14.61 0 0 0-6.84-3.4h-41.07a12.18 14.61 0 0 0-6.84 3.4 12.18 14.61 0 0 0-6.85-3.4h-41.06a12.18 14.61 0 0 0-6.85 3.4 12.18 14.61 0 0 0-6.84-3.4h-13.69a12.18 14.61 0 0 0-6.85 3.4 12.18 14.61 0 0 0-6.84-3.4h-13.7a12.18 14.61 0 0 0-6.84 3.4 12.18 14.61 0 0 0-6.85-3.4h-13.69zm138.4 44.9v21.56a12.18 14.61 0 0 0-1.5-.75h-2.15a12.18 14.61 0 0 0 .63-1.82v-16.43a12.18 14.61 0 0 0-.63-1.8h2.14a12.18 14.61 0 0 0 1.51-.76m219.03 0v21.56a12.18 14.61 0 0 0-1.51-.75h-2.14a12.18 14.61 0 0 0 .62-1.82v-16.43a12.18 14.61 0 0 0-.62-1.8h2.14a12.18 14.61 0 0 0 1.5-.76" style="font-size:74.6667px;font-family:'mem 5x6';-inkscape-font-specification:'mem 5x6, Normal';display:inline;fill:#000000;fill-opacity:1;stroke-width:0;stroke-linejoin:bevel"/><path id="svendsen" d="M816.5 319.22v59.99h-14.99v15h30v-59.99h14.99v-15h-15zm45 0v74.98h44.98v-15h-30v-14.99h15v-15h-15v-14.99h30v-15h-22.5Zm59.97 0v74.98h15v-59.98h15v59.98h15v-74.98h-22.5zm-406.04 1.24v59.99h-15v14.99h30v-59.98h14.99v-15h-15zm44.98 0v59.99h15v14.99h15v-15h14.99v-59.99h-15v45h-14.99v-45h-7.5zm59.99 0v74.98h44.99v-15h-30v-15h15v-14.99h-15v-15h30v-15h-22.5zm59.98 0v74.98h15v-59.98h14.99v59.98h15v-74.98h-22.5zm59.98 0v74.98h29.99v-15h-15v-44.98h15v-15h-15zm29.99 15v44.99h15v-45h-7.5z" style="font-style:normal;font-variant:normal;font-weight:normal;font-stretch:normal;font-size:89.9726px;font-family:'mem 5x6';-inkscape-font-specification:'mem 5x6, Normal';font-variant-ligatures:normal;font-variant-caps:normal;font-variant-numeric:normal;font-variant-east-asian:normal;text-align:start;writing-mode:lr-tb;direction:ltr;text-anchor:start;display:inline;fill:url(#linearGradient18);fill-opacity:1;stroke-width:0;stroke-linejoin:bevel" transform="scale(.91287 1.09545)"/></g></svg>