<svg xmlns="http://www.w3.org/2000/svg" xmlns:xlink="http://www.w3.org/1999/xlink" xml:space="preserve" id="svg2" viewBox="0 0 447.18 451.67"><defs id="defs6"><linearGradient id="swatch84"><stop id="stop84" offset="0" style="stop-color:#76bdb1;stop-opacity:1"/></linearGradient><linearGradient id="swatch4"><stop id="stop4" offset="0" style="stop-color:#371f25;stop-opacity:1"/></linearGradient><linearGradient id="swatch2"><stop id="stop2" offset="0" style="stop-color:#474832;stop-opacity:1"/></linearGradient><linearGradient xlink:href="#swatch2" id="linearGradient2" x1="158.3" x2="327.18" y1="368.46" y2="368.46" gradientUnits="userSpaceOnUse"/><linearGradient xlink:href="#swatch4" id="linearGradient4" x1="485.22" x2="603.48" y1="162.39" y2="162.39" gradientTransform="translate(-320.616 63.456)" gradientUnits="userSpaceOnUse"/><linearGradient xlink:href="#swatch84" id="linearGradient84" x1="391.08" x2="692.42" y1="160.49" y2="160.49" gradientTransform="translate(-318.163 65.349)" gradientUnits="userSpaceOnUse"/></defs><g id="left-gear"><path id="left-gear-fill" d="M442.62 201.6c-1.48 3.4-6.07 6.78-11.7 8.62-3.54 1.16-7.35 3.07-12.07 6.04-6.7 4.23-6.96 4.33-9.13 3.75-3.55-.94-3.66-.56-3.76 13.22-.08 11.37-.97 20.7-2.55 26.68-.3 1.15-.56 3.39-.56 4.98v2.88l4.57 3.85c2.5 2.12 6.17 5.04 8.15 6.5 6.88 5.06 15.69 15.23 15.69 18.1 0 .46.69 1.38 1.53 2.05 1.5 1.18 1.52 1.28 1.16 6.36-.2 2.84-.74 5.86-1.2 6.7a59 59 0 0 0-2.38 6.76c-1.65 5.54-5.9 14.13-13.44 27.18-5.9 10.2-8.63 14.02-11.18 15.56-1.12.68-2.6 1.91-3.28 2.73-1.21 1.45-1.46 1.5-7.54 1.43-9.29-.1-23.5-3.76-29.82-7.69a32 32 0 0 0-5.65-2.65c-1.64-.54-3.5-1.65-4.13-2.46-.64-.8-1.51-1.33-1.95-1.16-.44.16-1.9 1.96-3.26 3.98-2.87 4.27-13.77 15.52-20.95 21.63-8.16 6.93-9.97 8.88-9.58 10.34 1.95 7.26 5.58 28.27 5.58 32.28 0 5.12-2.05 6.85-13.92 11.73-16.53 6.8-32.45 11.26-46.37 12.96-12.9 1.58-19.03.35-21.38-4.26-2.9-5.68-6-18.66-6.76-28.25-.83-10.58-1.43-11-15.55-10.82-5.79.07-12.08-.16-14-.5-1.9-.36-6.6-1.03-10.43-1.51s-7.87-1-8.99-1.17c-2.7-.4-4.07.74-17.76 14.8-6.02 6.18-11.77 11.59-12.8 12.02-3.96 1.7-8.37.78-16.87-3.5a161 161 0 0 0-8.86-4c-8.44-3.48-29.63-14.21-31.36-15.87-2.3-2.21-3.1-5.5-2.22-9.16 1.73-7.13 4.34-14.78 6.15-18.07a87 87 0 0 0 4.3-10.07l2.34-6.51-3.8-3.7c-2.1-2.02-4.13-3.68-4.53-3.68-1.58 0-20.1-21.4-20.1-23.23 0-1.8-4.63-9.26-6.18-9.97-1.04-.47-2.38-.32-5.84.65-2.48.7-6.88 1.9-9.79 2.68s-7.08 2.1-9.27 2.92c-5.61 2.12-15.74 4.92-17.83 4.92-1.36 0-2.43-.71-4.82-3.18-1.7-1.75-3.08-3.56-3.08-4.02 0-.47-1-2.01-2.23-3.43a28 28 0 0 1-3.82-6.55c-.87-2.2-1.93-4.38-2.36-4.85-1.72-1.95-7.29-19.78-9.81-31.46-1.3-6.02-1.44-7.79-1.2-15.01.29-9.08.55-9.76 4.34-11.36 1.1-.47 3.34-2.06 4.97-3.54 5.42-4.94 18.32-10.16 25.21-10.2l3.8-.03.14-6.37c.21-9.53 1.97-19.66 5.87-33.87.7-2.5.34-3.1-3.55-6.05-29.14-22.13-30.06-23-30.06-28.52 0-3.84 3.88-13.79 12.27-31.46 1.86-3.93 3.39-7.3 3.39-7.49 0-1.47 7.03-14.06 9.78-17.5 6.17-7.75 8.8-8.29 24.13-4.96 2.55.55 5.94 1.2 7.54 1.44s5.92.9 9.61 1.48l6.72 1.05 8.64-7.2a232 232 0 0 1 27.35-19.33c2-1.2 3.91-2.71 4.26-3.37.7-1.3-.75-11.88-3.11-22.78a58 58 0 0 1-1.28-11.88c-.02-7.95.78-9.7 5.7-12.43 7.16-3.97 41.47-16.38 50.68-18.34 2.89-.6 5.8-.52 11.6.37 2.76.42 5.59 2.8 6.82 5.74.4.97 1.69 3.32 2.85 5.23q2.12 3.5 1.9 5.03c-.16 1.1 1.15 4.15 4.46 10.44 4.54 8.6 4.75 8.88 6.42 8.74.95-.08 5.68-.15 10.5-.16 9.73-.01 15.52.79 25.43 3.52 12.84 3.55 15.1 4.06 16.4 3.74 2.15-.52 5.73-4.15 12.63-12.75C293.8 20.9 298.4 17.73 306.1 19.28c6.24 1.27 35.7 12.92 42.68 16.88 8.18 4.64 9.7 7.25 9.6 16.43-.06 5.9-1.18 10.5-4.79 19.73-2.03 5.21-2.33 6.57-2.33 10.62 0 4.18-.16 4.81-1.56 6.49l-1.56 1.85 2.87 2.68c1.58 1.48 5.58 5.17 8.89 8.2 6.6 6.03 18.93 20.52 23.3 27.38 1.57 2.44 1.9 2.51 6.42 1.34 1.79-.47 6.47-1.26 10.41-1.77 3.95-.5 7.62-1.17 8.18-1.47s2.7-.56 4.8-.56c3.39 0 3.98.18 5.66 1.72 1.02.94 2.75 2.43 3.84 3.32 3.02 2.44 4.48 6.1 11.36 28.3a367 367 0 0 0 3.86 11.88c.64 1.76 2.19 7.2 3.43 12.1 2.4 9.38 2.8 14.13 1.46 17.2m-94.78.52c-2.3-12.32-6-23.18-11.71-34.46-7.07-13.93-17.34-26.98-26.74-33.98a220 220 0 0 0-25.24-15.51c-4.93-2.49-14.92-5.98-24.93-8.73-9.85-2.7-15.6-3.66-29.67-4.95-7.2-.66-17.48.34-22.65 2.2a313 313 0 0 1-15.36 4.46c-14.8 4.01-17.52 5.34-33.55 16.3-1 .68-3.78 3.04-6.18 5.24-17.38 15.92-28.27 32.56-35.04 53.52-4.22 13.09-5.76 24.5-5.31 39.42.69 23.28 7.14 43.54 19.92 62.61a96 96 0 0 0 9.9 12.95c15.84 18.13 38.39 31.56 62.44 37.18 6.17 1.44 6.06 1.43 14.9 2.3a117.6 117.6 0 0 0 54.27-7.28c28.4-10.8 50.13-31.27 65.52-61.72 4.68-9.26 7.34-17.45 9.67-29.8 1.25-6.57 1.36-8.48 1.17-20.3-.16-10.05-.48-14.5-1.4-19.45" style="display:inline;fill:#8275bd;fill-opacity:1;stroke:none;stroke-width:0.579725;stroke-opacity:1"/><path id="left-gear-outline" d="M445.53 201.13a28 28 0 0 1-5.73 7.25c-3.7 3.47-6.27 5.07-24.01 14.99l-4.5 2.51v7c0 9.48-.96 19.16-2.58 26.07l-1.35 5.75 1.82 1.47c3.86 3.12 18.03 17.4 21.39 21.54 7.2 8.89 8.8 15.83 6.3 27.39-1.63 7.47-8.62 22.05-17.2 35.8-9.16 14.7-11.29 16.7-19.31 18.07-5.37.93-12.44-.26-26.46-4.43l-14.3-4.24-3.88-1.13-2.5 3.46c-2.47 3.41-15.67 15.86-24.4 23.01-2.46 2.03-4.49 3.98-4.49 4.34 0 .37.9 3.79 2 7.6a111 111 0 0 1 4.14 21.35l.39 4.56-3.73 3.56c-4.48 4.27-10.72 7.88-21.64 12.52-14.82 6.3-31.33 10.12-51.95 12.03-7.09.65-13.12-2.83-14.58-8.41-.39-1.5-3.19-10.12-6.22-19.16l-5.51-16.43-8.12-.25c-12.02-.36-23.35-1.82-31.32-4.02-.95-.26-2.43 1.07-7.54 6.8-15.99 17.89-16.42 18.32-19.7 19.93-7.25 3.55-14.8 1.37-41.73-12.05-24.36-12.14-26.77-13.96-27.37-20.65a31 31 0 0 1 .37-7.17c1.23-6.43 5.25-18.97 8.25-25.7l2.91-6.54-11.27-11.2c-8.43-8.39-12.31-12.73-15.38-17.2A97 97 0 0 1 72 322.9c-.14-.42-2.24.12-5.89 1.52-3.12 1.2-10.54 3.36-16.48 4.82-9.37 2.3-11.35 2.6-14.87 2.33-9.78-.78-13.8-4.08-19.63-16.12-5.5-11.36-10.06-24.59-13.77-39.93C.33 271.28.02 268.3 0 262.5c-.02-7.08.07-7.74 1.57-10.79 3.45-7.02 10.27-11.4 26.52-17.05 11.45-3.98 10.74-3.4 10.54-8.48-.27-7.19 2.52-24.09 5.1-30.88.53-1.4-.04-1.93-12.61-11.98-7.25-5.78-13.9-11.33-14.8-12.33-2.82-3.15-5.17-8.75-5.48-13.07-.34-4.8.82-8.28 8.79-26.15 7.68-17.25 9.2-20.33 13.28-26.88 4.57-7.34 7.07-10.14 10.92-12.25 2.74-1.5 3.69-1.7 8.03-1.71 5.2-.01 26.3 2.6 32.11 3.98l3.42.8 6.55-5.93c7.02-6.35 18.07-14.52 25.21-18.65l4.4-2.53-1.33-7.98c-1.58-9.5-2.78-23.84-2.24-26.77 2.01-10.96 11.94-17.98 37.1-26.24 18.26-6 24.45-7.54 30.44-7.6 11.02-.1 15.05 3.71 25.83 24.51l5.27 10.15 9.52.38c13.4.53 22.92 2.22 33.13 5.88l5.63 2.03 5.18-5.89c9.35-10.63 19.86-20.89 23.27-22.72 2.9-1.56 3.68-1.71 8.7-1.7 6.2.02 5.77-.13 32.75 12.01 19.16 8.63 21.7 10.4 24.15 16.86 2.25 5.94 1.62 15.6-1.93 29.67-.65 2.55-1.76 7.7-2.48 11.43l-1.31 6.8 3.54 2.75c9.32 7.27 20.76 20.53 28.99 33.6.03.05 2.01-.27 4.4-.71 22.53-4.15 30.1-3.31 34.87 3.83 2.14 3.21 6.81 15.42 9.76 25.49.89 3.03 3.5 11.38 5.8 18.55 3.74 11.66 4.2 13.66 4.47 18.84.27 5.61.23 5.91-1.53 9.37m-6.07-12.27c-.17-1.27-1.52-6.1-3-10.72-1.49-4.62-4.09-12.84-5.78-18.26-7.29-23.38-9.3-28.1-12.5-29.22-2.86-1-10.74-.76-18.28.56-13.72 2.38-13.65 2.37-15.38 1.66-1-.42-2.45-2.01-3.76-4.17-2.59-4.27-9.78-14-13.77-18.64-1.62-1.88-6.2-6.28-10.2-9.77-7.7-6.75-8.64-7.93-8.75-10.96-.08-2.22 1.71-11.94 3.45-18.74 1.77-6.91 3.57-17.49 3.54-20.83-.02-3.35-1.1-6.82-2.65-8.53-1.63-1.8-7.27-4.75-18.13-9.49a392 392 0 0 1-13.52-6.14c-10.4-5.25-17.4-6.83-21.57-4.85-1.91.9-14.59 13.53-23.69 23.59-6.46 7.13-6.68 7.2-15.38 4-10.63-3.92-18.7-5.32-32.57-5.68-8.85-.23-12.22-.52-13.2-1.13-1.84-1.17-3.47-3.95-7.92-13.55-4.68-10.1-9.36-17.37-12.37-19.23-3.05-1.89-9.01-1.79-16.37.27-10.32 2.88-28.1 8.94-34.4 11.72-8.52 3.76-12.55 6.8-14.61 11.01l-1.61 3.3.61 8.2c.34 4.52 1.35 12.81 2.24 18.44 1.51 9.62 1.55 10.32.65 11.69a5 5 0 0 1-2.64 1.83c-4.8 1.05-23.24 14.25-31.64 22.65-3.83 3.83-5.9 5.48-6.85 5.48-.75 0-3.7-.5-6.56-1.12a173 173 0 0 0-13.02-2.06c-4.3-.5-9.4-1.17-11.35-1.48-8.02-1.26-11.93-.25-15.13 3.92-4.9 6.38-8.54 13.2-15.6 29.26-2.43 5.52-5.48 12.38-6.77 15.25-3.1 6.9-3.5 11.04-1.4 15.12 2.08 4.08 2.52 4.47 25.49 22.73 3.43 2.73 6.38 5.53 6.56 6.22s-.72 5.4-1.98 10.48c-2.87 11.56-3.86 19.52-3.37 27.16.5 7.9.16 8.31-9.03 11-19.46 5.69-27.4 10.08-29.45 16.29-1.13 3.44-.41 12.74 1.65 21.15 3.68 15.07 11.94 36.35 16.31 42.02 2.61 3.38 6.51 5.52 10.05 5.52 4.15 0 18.09-3.69 27.36-7.23 10.5-4.02 12.46-3.83 15.74 1.58 4.94 8.15 12.4 17.1 22.45 26.98 8.1 7.96 10.22 10.34 10.22 11.55 0 .84-1.02 3.63-2.27 6.2-7.75 16.01-11.97 30.7-9.92 34.52.93 1.74 6.93 5.14 23.45 13.31 23.65 11.7 31.13 14.13 35.15 11.47.82-.54 3.95-3.79 6.95-7.22 14.74-16.84 18.16-19.99 21.64-19.95 1 0 4.42.54 7.6 1.17 10.75 2.14 15.03 2.57 26.78 2.67 8.9.08 11.92.3 12.65.9 1.42 1.17 2.98 4.53 4.05 8.72.53 2.06 2.34 7.39 4.03 11.85a911 911 0 0 1 4.62 12.47 63 63 0 0 0 3.13 7.24l1.57 2.9 3.76-.18c6.8-.33 19.85-2.4 28.4-4.52 16.4-4.04 38.32-14.37 39.7-18.7.59-1.89-1.33-12.74-3.76-21.25a120 120 0 0 1-2.67-10.81l-.36-2.73 2.78-1.92c8.51-5.87 24-20.81 28.54-27.52 2.98-4.4 4.94-6 7.39-6 1.04 0 4.55 1.06 7.81 2.36 7.65 3.03 19.1 6.73 24.14 7.8 9.94 2.12 14.98 1.68 18.5-1.64 5.46-5.16 21.78-34.93 24.18-44.13 2.5-9.63 1.34-14.78-5.19-22.94-3.79-4.73-14.41-15.34-20.6-20.57-4.2-3.56-4.85-4.65-3.98-6.75.3-.76 1.25-4.34 2.09-7.96 1.3-5.65 1.57-8.49 1.91-20.03.33-11.14.56-13.69 1.37-14.92.59-.9 4.58-3.42 10.14-6.42 13.18-7.09 16.36-9.04 19.52-12 3.78-3.54 5.77-7.58 5.27-10.77-.1-.64-.32-2.2-.49-3.48m-7.4 8.64c-2.28 1.6-4.37 1.15-5.6-1.2-1.58-2.99 1.87-6.2 5.03-4.68 2.16 1.02 2.5 4.54.58 5.88m-11.44 7.42c-3.54 3.03-12.26 8-14.03 8-2.19 0-3.51-1.48-3.3-3.69.14-1.43.74-2.17 2.9-3.55 10-6.4 12.44-7.83 13.35-7.83 1.48 0 3.35 2.08 3.35 3.72 0 .92-.8 2.08-2.27 3.35m-24.15 150.42c-2.1 2.1-3.86 1.74-16.88-3.47-14.77-5.92-17.45-7.2-18.57-8.92-.85-1.3-.87-1.63-.13-2.93a7 7 0 0 1 1.85-2.1c1.17-.74.92-.82 16.65 5.69 5.88 2.43 12.08 4.83 13.76 5.32 2.93.85 4.8 2.47 4.8 4.15 0 .42-.66 1.44-1.48 2.26m-32.8-116.04c-.7 5.43-2.72 12.8-3.93 14.3-1.34 1.65-4.02 1.58-5.42-.15-1.23-1.52-1.18-2.1.76-8.93 1.12-3.97 1.32-6.1 1.37-14.69.05-9.24.15-10.11 1.18-10.87 1.55-1.13 2.34-1.04 4.07.48 2.33 2.04 3.17 10.5 1.97 19.86m-2.43-51.18a4.1 4.1 0 0 1-5.17 1.24c-.87-.45-1.6-1-1.63-1.24s-.16-1.01-.3-1.75c-.29-1.58 2.03-4.17 3.73-4.17 2.68 0 4.91 3.93 3.37 5.92m-11.46 43.47c-2.96 38.45-25.84 74.48-59.65 93.92-57.23 32.9-130.27 13.74-163.83-42.99-20.18-34.1-21.72-76.88-4.05-112.79 6.54-13.29 13.65-22.9 25.07-33.91 18.71-18.02 42.32-29.19 68.59-32.44 7.1-.88 22.67-.74 30.28.26 35.86 4.73 68 25.66 86.83 56.55 9.43 15.45 15.36 34.2 16.78 53.02.68 8.9.68 9.36-.02 18.38m-8.58-28.08c-4.1-23.43-14.79-44.14-31.37-60.72-33.42-33.41-84.84-42.3-127.4-22.02-12.66 6.03-21.73 12.27-31.05 21.37-17.18 16.76-27.97 37-32.32 60.62-1.51 8.23-2.05 22.4-1.15 30.74 2.1 19.6 9.15 38.09 20.76 54.4 4.64 6.51 16.14 18.24 22.9 23.33 26.4 19.9 58.76 27.14 91.6 20.5 11.84-2.4 27.06-8.6 37.54-15.3 26.84-17.18 45.28-44.91 50.37-75.75 1.67-10.08 1.71-10.72 1.5-21.1-.12-5.91-.62-11.73-1.38-16.07m7.4-149.72a197 197 0 0 0-3.13 12.46c-1.1 4.94-2.27 9.93-2.59 11.1-1.24 4.47-6.95 4.15-6.95-.4 0-4.1 5.16-25.73 7-29.34 1.38-2.7 3.7-3.18 5.9-1.22 1.26 1.14 1.2 2.96-.23 7.4m-1.4 235.53c-1.84 2.63-6.05 1.14-6.05-2.14 0-3.1 3.95-4.73 6-2.47 1.2 1.33 1.22 2.94.05 4.6m-.58-133.34c-.91 1.3-3.32 1.72-4.74.81-.4-.25-1.48-2.02-2.4-3.93-3.77-7.77-12.85-17.83-20.63-22.86-2.15-1.4-4.12-3.07-4.36-3.72-.67-1.81.47-4.33 2.15-4.75 5.51-1.38 23.82 15.94 29.5 27.91 1.61 3.4 1.71 4.78.48 6.54m-27.07 169.94c-3.58 3.65-11.49 9.3-16.8 12-3.59 1.82-5.94 1.81-7.15-.04-1.6-2.45-.2-4.15 6.96-8.42a71 71 0 0 0 11.14-8.28c5.06-4.73 6.73-5.4 8.52-3.43 1.9 2.12 1.23 4.2-2.67 8.17m-24.52-219.8c-1.73 2.46-6.06 1.04-6.06-1.98 0-3.13 3.9-4.43 5.9-1.95 1.3 1.58 1.32 2.27.16 3.93M268.2 348.78c-1.2 1.1-3.13 1.24-4.77.36s-1.53-4.27.16-5.46c1.73-1.2 2.88-1.13 4.4.28 1.55 1.44 1.64 3.53.21 4.82m-9.12 86.63c-1.5 2.15-4.97 1.62-6.3-.96-1.74-3.35-7.29-19.91-7.29-21.73 0-3.38 3.2-4.99 5.68-2.84.64.56 2.01 3.63 3.05 6.82 1.03 3.18 2.75 8.1 3.82 10.91 2.23 5.88 2.26 6.06 1.04 7.8m-2.56-338.73c-1.3 1.18-2.2 1.1-11.32-.95-4.89-1.1-7.52-1.31-16.81-1.33-6.43 0-13.14.3-16.12.76-4.7.73-5.18.7-6.23-.24-1.13-1.02-1.49-3.47-.69-4.67 1.46-2.18 9.29-3.32 23.04-3.33 12.87 0 25.33 2.03 28.17 4.6a3.6 3.6 0 0 1-.04 5.16M246.28 406.5c-.84.66-1.85 1.2-2.24 1.2-1.4 0-3.77-2.4-3.77-3.81 0-1.78 1.92-3.73 3.67-3.73 1.65 0 3.87 2.25 3.87 3.91 0 .68-.69 1.77-1.53 2.43m-16.5-51.79c-1.1 1-2.19 1.1-10.58 1.1-6.86-.01-10.52-.29-13.7-1.03-7.94-1.86-11.26-4.86-9.08-8.2 1.16-1.76 3.54-1.98 6.24-.59 3.06 1.59 10.15 2.58 18.44 2.58 7 0 8.1.13 8.94 1.06a3.6 3.6 0 0 1-.26 5.08M206.02 44.44c-1.28 1.63-3.23 1.96-4.7.8-1.36-1.1-10.9-18.2-10.9-19.55 0-1.59 2-3.5 3.66-3.5 1.9 0 3.13 1.56 8.06 10.2 5.19 9.07 5.49 10 3.88 12.05M192.16 19.3c-2 2-5.37 1.2-6.4-1.52a4 4 0 0 1 1.41-4.41c1.4-.94 3.76-.42 4.94 1.08 1.52 1.92 1.53 3.37.05 4.85m-3.69 84.7a3.6 3.6 0 0 1-5.29 1.45c-2.14-1.4-1.9-4.83.43-6.13 1.42-.79 1.76-.79 3.12-.01 1.96 1.1 2.63 2.9 1.74 4.69m-30.13 14.6c-.74.71-3.07 2.53-5.18 4.05s-6.77 5.9-10.36 9.71c-5.15 5.48-6.85 6.95-8.06 6.95a3.55 3.55 0 0 1-3.45-3.66c0-2.43 9.53-13 16.8-18.63 5.92-4.58 9.03-5.48 10.7-3.1 1.26 1.8 1.13 3.2-.45 4.69M139.5 317.48c-2.98 2.7-9.04-.96-19.36-11.71-9.42-9.82-11.7-14.41-8.28-16.65 2.25-1.48 4.05-.66 6.32 2.89 2.98 4.66 12.7 14.49 17.39 17.57 2.27 1.5 4.31 3 4.55 3.33.79 1.12.45 3.6-.62 4.57m-18.05 55.6a145 145 0 0 0-6.4 15.37c-1.34 4.06-2.72 7.72-3.05 8.14-.36.43-1.5.68-2.69.58-4.29-.36-4.23-3.82.23-15.53 2.54-6.66 7.88-17.84 9.37-19.65a3.54 3.54 0 0 1 5.53-.08c.58.72 1.03 1.73 1 2.25-.02.52-1.82 4.54-3.99 8.92m-6.44-204.58c-2.78 3.54-7.97-.24-5.5-4 1.25-1.92 4.5-1.99 5.8-.14 1.19 1.7 1.14 2.32-.3 4.14m-8.33 101.57c-3.14 2.05-6.58-2.21-4.04-5.01 1.11-1.24 2.64-1.42 4.34-.51s1.52 4.32-.3 5.52m-3.33-66.7c-1.5 5.48-1.95 17.5-.91 24.17.43 2.77.59 5.55.35 6.19-.96 2.6-5.08 2.9-6.38.48-.98-1.84-2.22-11.14-2.22-16.74-.01-9.52 2.34-20.7 4.61-21.92 1.84-.98 3.95-.68 4.92.7 1.07 1.54 1.06 1.9-.37 7.12M83.92 116.1c-.49 1.39-2 2.32-3.78 2.32-2.68 0-31.35-6.36-32.73-7.26-1.6-1.06-2.16-2.81-1.36-4.3 1.41-2.65 2.12-2.62 18.17.81l16.34 3.5c2.46.52 4.08 2.88 3.36 4.93M45.78 250.43c-.5.71-2.54 1.79-4.79 2.53-2.15.72-5.99 2.17-8.53 3.24s-5.17 1.94-5.85 1.94c-2.58 0-4.1-3.74-2.43-5.96 1.05-1.38 16.48-7.37 19-7.37 1.43 0 3.47 1.97 3.47 3.35 0 .56-.4 1.59-.87 2.27m-25.59 9.99c-1.82 1.43-3.54 1.53-5.3.3-2.77-1.95-.82-6.64 2.77-6.64 3.71 0 5.36 4.11 2.53 6.34" style="display:inline;fill:#000000;fill-opacity:1;stroke-width:5"/></g><g id="right-gear"><path id="right-gear-fill" d="M179.3 377.24c-7.4-1.5-20.28-5.65-26.18-8.43-4.91-2.31-5.56-3.78-5.49-12.41.03-4.3.54-9.12 1.46-14 1.94-10.25 2-10.72 1.66-11.61-.17-.44-2.03-1.67-4.14-2.74-4.28-2.18-12.65-7.99-19.45-13.5-2.46-2-4.82-3.62-5.24-3.62-.43 0-4.39 1.4-8.8 3.12-8.49 3.3-13.67 5-15.34 5-4.96 0-19.15-25-23.7-41.74-1.63-6.02-1.55-9.32.28-11.5 1.86-2.2 9.09-5.93 15.36-7.91 12.17-3.84 11.8-3.38 9.99-12.68-.8-4.1-1.4-9.99-1.63-16.04-.3-7.68-.55-9.77-1.32-10.64-.52-.6-5.45-4.2-10.96-8-10.01-6.95-11.73-8.66-11.73-11.7 0-1.92 4.74-20.73 7.59-30.13 2.86-9.45 4-10.83 8.98-10.83 5.17 0 11.14 1.14 17.23 3.3 6.02 2.15 8.02 2.19 9.09.2 1.87-3.5 10.8-14.23 18.39-22.12 3.23-3.36 4.81-5.45 4.81-6.36 0-.74-1.8-5.15-4-9.78-5.48-11.5-7.02-15.77-7.02-19.47 0-2.86.15-3.18 2.18-4.76 5.31-4.12 19.1-11.55 31.99-17.24 9.13-4.02 12.86-4.98 14.97-3.85 1.11.6 7.68 12.81 7.68 14.29 0 .37 1.98 2.8 4.4 5.4 4.9 5.29 4.17 5.07 12.12 3.5 1.6-.32 7.1-.56 12.25-.54 6.81.02 9.5-.16 9.92-.69.32-.4 2.79-5.03 5.49-10.3 5.95-11.6 7.52-14.15 9.56-15.48 2.99-1.96 5.95-1.44 34.01 5.9 6 1.58 10.8 3.59 13.34 5.58 2.26 1.78 5.43 6.88 6.11 9.82.87 3.76.72 12.05-.26 14.77a29 29 0 0 0-1.18 4.93l-.34 2.6 5.91 4.93c3.26 2.7 8.79 7.98 12.3 11.74 5.22 5.57 6.68 6.82 8.01 6.82.9 0 4.58-1.08 8.19-2.4l10.32-3.75c6.53-2.36 11.04-1.7 13.79 2.04 5.4 7.34 18.88 32.02 19.39 35.52.47 3.2-.56 5.37-4.23 8.95-11.07 10.8-16.49 16.67-16.43 17.83.04.67.4 3.7.8 6.74.7 5.32.56 16.14-.35 24.76-.36 3.47-.31 3.67 1.35 5.22.95.9 4.31 3.03 7.47 4.75 13.55 7.37 15.96 9.59 16.35 15.03.32 4.62-4.45 28.2-6.92 34.1-1.76 4.23-1.94 4.45-5.02 5.86-4.4 2.01-10 1.97-21.31-.15-4.8-.9-9.37-1.47-10.15-1.26-1.02.27-2.75 2.51-6.24 8.08a103 103 0 0 1-12.1 15.7c-8.42 9.25-8.04 7.64-4.5 18.92 3.27 10.36 3.57 11.99 2.55 13.8-1.53 2.74-5.99 5.47-22.84 14-15.15 7.68-16.84 8.4-20.16 8.6-3.3.21-3.84.07-6.05-1.53-2.01-1.47-3.07-3.08-6.2-9.48-2.07-4.24-4.24-8.28-4.82-8.98-1.72-2.09-4.07-3.02-6.17-2.45-4.73 1.28-12.97 2.32-20.93 2.63-6.14.23-9 .57-9.62 1.12-.49.44-2.58 3.98-4.64 7.88-4.47 8.46-9.76 14.5-13.6 15.52-3.53.95-8.56.68-16.24-.88m61.22-66.59c11.48-2.02 25.42-7.94 34.46-14.64 16.48-12.22 27.88-30.36 32.51-51.75 1.49-6.87 1.5-23.7.02-30.73-3.5-16.55-10.73-30.37-22.13-42.23-12.1-12.6-25.24-20.23-41.56-24.13-7.26-1.74-17.82-2.8-23.35-2.33-22.52 1.9-40.25 9.84-55.3 24.76-24.37 24.17-31.37 60.48-17.83 92.56 5.2 12.33 15.13 25.06 25.86 33.17 6.58 4.97 23.7 11.98 34.6 14.16 10.57 2.11 24.5 2.6 32.72 1.16" style="display:inline;fill:url(#linearGradient84);stroke-width:0.579725"/><path id="right-gear-outline" d="M181.08 382.82c-8.44-1.56-21.4-5.1-25.13-6.85a21.6 21.6 0 0 1-9.66-9.7c-1.39-2.83-1.57-4.04-2.06-13.75-.3-5.85-.38-12.73-.2-15.28l.36-4.64-4.27-2.74c-4.46-2.86-7.6-5.27-12.83-9.86l-3.13-2.74-5.17 1.68c-9.26 3.02-17.98 5.26-20.5 5.26-4.97 0-7.92-2.55-13.3-11.49a108 108 0 0 1-5.27-10.35c-1.36-3.14-4.4-9.94-6.76-15.13-6.45-14.2-6.46-17.73-.07-23.65 2.73-2.52 5.7-4.34 12.87-7.9 5.12-2.53 9.31-4.92 9.3-5.3s-.36-3.4-.8-6.73c-.5-3.85-.68-8.84-.5-13.75l.3-7.72-9.47-6.15c-5.21-3.38-10.37-7.13-11.45-8.34-3.85-4.25-4.37-9.12-2.16-20.02 3.15-15.54 5.39-23.26 7.76-26.79 4.54-6.76 10.2-7.71 29.02-4.88l6.9 1.04 1.8-2.6a143 143 0 0 1 13.36-16.12l4.73-4.93-1.96-4.45c-4.68-10.6-8.9-21.81-9.22-24.47-.68-5.76 2.38-10.08 10.6-14.96 3.7-2.2 14.28-7.28 30.38-14.59 14.52-6.59 17.58-5.18 26.71 12.25 5.72 10.91 4.35 10.1 14.12 8.34 3.92-.7 7.35-.94 10.75-.75l5 .29 3.1-5.4c1.7-2.96 4.08-7.46 5.27-10 2.82-6 4.35-8 7.5-9.85 2.2-1.3 3.43-1.55 8.17-1.75 7.33-.29 13.18.87 26.3 5.21 17.4 5.75 23.13 9.09 26.13 15.22 1.3 2.67 1.51 3.84 1.5 8.51 0 5.27-.4 11.76-.95 15.35-.25 1.65.14 2.1 6.1 6.88 3.5 2.81 8.23 7.23 10.52 9.83 2.3 2.59 4.4 4.8 4.67 4.9s4.98-1.29 10.47-3.1c8.24-2.73 10.48-3.26 12.92-3.06 8.6.71 15.23 7.68 23.91 25.1a155 155 0 0 1 5.1 11.6c1.89 4.98 2.2 6.48 2.24 10.73.07 7.76-.92 9.24-11.4 17.09-5.35 4-8.42 6.67-8.25 7.16 1.58 4.45 2.27 24.01 1.01 28.96l-.63 2.5 3 2.37c1.64 1.3 6.13 4.44 9.98 6.97 4.91 3.22 7.46 5.3 8.53 6.94 4.21 6.5 3.25 17.17-3.18 35.25-4.9 13.75-8.3 18.15-15.02 19.41-1.13.21-6.28-.16-11.46-.82-12.96-1.65-14.07-1.62-15.3.48-2.16 3.63-9.64 12.8-14.85 18.18l-5.48 5.67 1.01 4.77c.56 2.62 1.64 6.98 2.42 9.67 3.23 11.3 1.41 16.12-8.6 22.78-11.17 7.43-31.46 15.6-38.76 15.62-6.85.02-12.71-5.34-18.41-16.82-2.63-5.29-2.72-5.4-4.42-5.05a68 68 0 0 1-17.72 1.25l-7.29-.35-3.67 5.94-6.26 10.15c-2.96 4.82-6.6 8.28-9.8 9.34-3.8 1.25-12.06 1.32-18.45.14m17.31-7.8c1.58-1.03 3.47-3.76 10.72-15.5 6.3-10.2 4.97-9.53 18.54-9.53 9.16 0 12.38-.22 16.42-1.12 4.32-.96 5.17-1 6-.32.53.44 2.54 3.95 4.47 7.8 4.34 8.67 6.44 11.63 9.51 13.43 2.12 1.24 2.7 1.34 4.94.84 12.1-2.71 34.2-13.4 38.19-18.45 1.51-1.93 1.5-5.84-.04-10.83-1.82-5.88-3.43-13.65-3.44-16.63-.01-2.64.08-2.77 6.55-9.28 6.6-6.63 13.74-15.59 15.94-19.97 1.73-3.44 2.55-3.94 5.76-3.5 1.52.2 5.23.6 8.26.89 3.03.28 7.92.85 10.88 1.25 4.7.65 5.6.63 7.28-.18 2.52-1.2 5.2-6.34 8.72-16.68 4.26-12.56 5.41-22.16 3.1-25.7-.52-.79-4.67-3.93-9.23-7-12.53-8.43-13.48-9.19-13.7-11.05-.1-.9.26-3.88.8-6.62 1.18-5.88.88-18.36-.56-24.13a32 32 0 0 1-.9-4.78c-.02-1.96 3.32-5.28 11.52-11.4 4.07-3.04 7.7-6.2 8.08-7.02 1.11-2.44.78-5.88-1.1-11.5-2.9-8.67-10.85-23.92-14.65-28.13-2.04-2.25-6.28-4.7-8.14-4.7-.95 0-6.48 1.56-12.3 3.47-5.8 1.92-11.2 3.48-11.99 3.48-.99 0-1.95-.68-3.07-2.17-3.15-4.2-10.45-11.32-16.19-15.78a96 96 0 0 1-7.16-6l-1.37-1.47.98-10.17c.54-5.6.8-11.03.58-12.07-1.1-5.19-4.16-7.57-14.89-11.56-14.82-5.52-27.54-8.53-32.75-7.75-3.81.57-5.46 2.43-9.65 10.88-2.1 4.23-5 9.72-6.48 12.22l-2.67 4.52-7.35-.39c-7.42-.4-14.94.47-20.4 2.34a6.7 6.7 0 0 1-3.96.18c-1.72-.46-2.21-1.1-4.47-5.85-3.01-6.32-8.14-15.67-10-18.23-.72-1-1.8-1.98-2.42-2.17-1.4-.45-6.36 1.56-22.34 9.02-19.33 9.04-23.48 11.75-23.48 15.4 0 1.7 3.03 9.63 9.71 25.43a26 26 0 0 1 1.74 5.84c.26 2.28.15 2.47-3.04 5.2-4.47 3.82-13.08 13.88-16.93 19.78-3.7 5.67-4.7 6.39-7.68 5.5-3.34-1.01-17.71-2.99-21.66-2.98-4.5 0-7.2 1.3-8.66 4.15-2.35 4.6-7.95 30.67-7.21 33.6.68 2.7 2.67 4.45 11.26 9.9 4.69 2.96 9.6 6.43 10.94 7.7l2.42 2.33-.3 10.45c-.28 9.26-.17 11.2.97 16.93.71 3.56 1.14 6.96.95 7.55-.23.72-4.16 2.93-11.39 6.43-12.68 6.13-16.2 8.76-16.2 12.1 0 1.27 2.03 6.6 5.54 14.56 6.8 15.45 9.5 20.83 12.64 25.31 2.02 2.88 2.77 3.51 4.32 3.66 1.96.2 8.07-1.38 19.1-4.93 8.2-2.64 8.95-2.46 15.8 3.65a100 100 0 0 0 10.14 7.81c8.73 5.7 8.56 5.52 8.2 8.6-.95 8.34.05 28.83 1.55 31.74 1.83 3.52 5.2 5.83 11.24 7.7 5.2 1.61 15.96 4.2 20.17 4.87 4.03.63 12.28.06 13.84-.96zm-7.37-3.19a4.2 4.2 0 0 1-.96-2.42c0-1.49 7.55-15.7 9.46-17.82 2.23-2.47 6.2-1.06 6.2 2.2 0 1.53-7.53 15.71-9.45 17.8-1.45 1.58-3.94 1.7-5.25.24m108.36-20.46c-1.8-1.41-1.93-3.54-.33-5.14 2.25-2.25 5.8-.8 5.79 2.36-.02 1.88-.58 2.67-2.43 3.37-1.25.47-1.82.36-3.03-.59m-3.63-9.35c-1.66-1.81-4.35-10.3-4.13-12.99.14-1.67.55-2.4 1.75-3.06 2.51-1.4 4.36.4 6.27 6.08 2.44 7.31 2.52 8.22.88 9.86-1.77 1.77-3.24 1.8-4.77.11m-71.36-14.67c-1.5-1.05-1.78-4.34-.45-5.44.45-.38 2.6-.94 4.78-1.24 4.87-.68 7.13-1.4 11.08-3.48 4.06-2.16 6.5-1.39 6.5 2.05 0 3.16-4.14 5.87-12.03 7.9-5.31 1.35-8.16 1.41-9.88.21m-40.33-9.43c-1.43-1.58-1.21-3.96.47-5.06 1.7-1.12 3.48-.69 4.7 1.16 2.14 3.27-2.54 6.8-5.17 3.9m31.5-5.4c-13.04-1.33-27.08-6.52-38.82-14.33-6.17-4.1-15.8-13.32-20.67-19.78-3.96-5.25-10.37-17.52-12.42-23.78-3.14-9.57-4.93-22.85-4.3-31.89 2.78-39.76 30.74-71.43 69.84-79.13 7.57-1.49 22.3-1.8 28.6-.62 9.5 1.8 22.17 7.23 32.75 14.06 5.8 3.74 16.06 12.18 19.75 16.23 8.43 9.28 15.47 24.3 18.43 39.32 1.53 7.8 1.38 24.12-.29 31.75-6.7 30.56-27.92 54.57-56.66 64.13a85.5 85.5 0 0 1-36.2 4.04m17.11-7.46c18.11-2.02 34.39-9.75 46.9-22.28q16.2-16.21 21.3-39.21c1.78-8 1.93-23.7.3-31.13-1.87-8.6-5.1-17.08-9.01-23.79-10.5-17.96-37.16-35.76-57.4-38.33-36.6-4.65-71.28 16.6-83.47 51.16-3.14 8.9-4.3 15.8-4.34 25.9-.07 16.49 4.13 30.42 13.26 44.03 3.4 5.07 11.14 13.38 16.16 17.35 15.74 12.45 36.6 18.49 56.3 16.3m37.56 7.53c-3.07-1.22-1.8-6.36 1.55-6.36 1.76 0 3.5 1.73 3.5 3.5 0 2.24-2.73 3.78-5.05 2.86m-171.94-2.9c-1.79-1.4-1.96-2.64-.64-4.53 1.34-1.91 4.79-1.57 6 .6.81 1.45.78 1.7-.33 3.2-1.53 2.05-3.06 2.28-5.03.73m9.5-3.83c-2.44-3.1-1.08-4.71 6.21-7.4 6.58-2.4 7.8-2.53 9.4-.93 1.45 1.46 1.48 3.58.05 4.88-1.34 1.2-11.28 4.97-13.14 4.97-.74 0-1.85-.67-2.53-1.52m48.87-9.26c-4.9-3.27-10.37-9.66-11.01-12.86-.26-1.31-.05-2.04.87-2.96 2.2-2.2 3.76-1.62 7.25 2.76a40 40 0 0 0 6.05 6.1c3.01 2.2 3.57 3.04 3.57 5.3 0 1.44-1.92 3.17-3.52 3.17-.53 0-1.97-.68-3.2-1.5m132.87-2.88c-1.65-1.65-1.1-3.95 1.78-7.45 1.48-1.8 3.9-5 5.36-7.11 2.91-4.2 4.36-5.1 6.5-4.03 2.36 1.17 2.2 4.45-.4 8.4-2.48 3.77-6.3 8.61-7.94 10.09-1.4 1.26-4.1 1.31-5.3.1m-156.67-26.7c-.89-1.35-.9-1.67-.14-3.04 1.65-2.94 6.33-1.96 6.33 1.33 0 3.16-4.44 4.4-6.19 1.72M363.35 260l-6.09-4.1c-2.52-1.7-6.23-4.02-8.24-5.14-4.39-2.46-5.76-4.24-4.98-6.44a3.8 3.8 0 0 1 2.16-2.12c1.91-.67 4.48.52 12.96 6 9.55 6.18 11.63 8.9 8.88 11.66-1.43 1.42-2.73 1.46-4.7.14m-52.33-2.94c-1.26-1.4-1.21-3.17.1-4.36 2.19-1.97 5.9-.5 5.9 2.33 0 2.71-4.12 4.1-6 2.03m-180.52-9.69c-1.9-1.33-3.61-7.62-4.01-14.74-.5-8.87.69-12.34 4.2-12.34 2.83 0 3.18 1.02 3.37 9.76.12 5.64.46 8.85 1.12 10.68 1.24 3.4 1.21 5.4-.1 6.57-1.32 1.2-2.94 1.23-4.58.07m185.47-16.83c-1.26-.9-1.3-1.18-1.1-8.7.17-6.89.32-7.88 1.31-8.63 1.66-1.25 3.03-1.08 4.7.6 1.45 1.44 1.47 1.62 1.27 8.34-.17 5.75-.38 7.06-1.3 8.08-1.32 1.45-3.08 1.56-4.88.3M95.73 208c-6.3-3.02-15.07-8.32-15.46-9.36-1.06-2.74.47-5.46 3.06-5.46.71 0 3.5 1.3 6.21 2.9s6.48 3.7 8.39 4.66c1.9.96 3.98 2.26 4.6 2.9a3.56 3.56 0 0 1-1.48 6c-.73.22-2.74-.4-5.32-1.64m36.3-8.07c-1.73-.86-2.18-3.85-.8-5.23 2.1-2.1 5.5-.54 5.5 2.5 0 2.52-2.36 3.89-4.7 2.73m173.76-12.01c-1.83-1.44-1.98-3.56-.36-5.18 1.61-1.61 3.73-1.46 5.17.37 1.56 1.98 1.52 2.85-.22 4.59s-2.6 1.78-4.59.22m-160.82-8.4c-2.96-2.07-.76-6.85 7.13-15.42 7.48-8.12 10.93-10.1 13.23-7.54 1.93 2.13 1.22 3.5-5.3 10.2-3.44 3.53-7.13 7.72-8.2 9.32-3.03 4.55-4.34 5.2-6.86 3.44m143.2-14.85a47 47 0 0 0-10.7-9.58c-3.38-2.23-4.26-3.1-4.4-4.43-.24-2.03 1.3-3.86 3.23-3.86 4.05 0 16.11 9.6 18.07 14.39.72 1.73.68 2.07-.36 3.47-1.75 2.35-3.93 2.35-5.85.02m32.37-11.86c-2.25-2.86-1.2-4.39 4.95-7.23 5.61-2.6 7.33-2.79 8.6-.97 2.16 3.09.6 5.15-5.97 7.93-5.2 2.19-6.04 2.22-7.58.27m-144.1-5.8c-1.45-1.45-.91-4.34 1.01-5.4 1.43-.8 1.76-.8 3.19 0a3.37 3.37 0 0 1-1.64 6.35 4 4 0 0 1-2.55-.94m161.83-1.27a3.51 3.51 0 0 1 2.62-5.9c2.97 0 4.52 4.01 2.32 6-1.4 1.27-3.74 1.22-4.94-.1m-88.37-4.48c-2.51-1.76-1.17-6.05 1.9-6.05s4.42 4.29 1.9 6.05c-.7.5-1.56.9-1.9.9s-1.19-.4-1.9-.9m-48.08-1.43c-1.45-.58-2.2-2.77-1.68-4.84 1.02-4.07 17.87-6.15 20.2-2.5.77 1.23.47 3.67-.57 4.59-.7.6-2.72.97-6.52 1.16-3.52.17-6.18.62-7.37 1.23-2.07 1.07-2.26 1.09-4.06.36m-52.92-7.68c-1.76-.87-7.43-11.97-7.5-14.68-.07-3.22 3.84-5.01 5.91-2.7.5.56 2.24 3.92 3.87 7.47 2.47 5.4 2.87 6.7 2.4 7.94a4.5 4.5 0 0 1-1.72 2.1c-1.39.74-1.2.75-2.96-.13m-11.26-22.2a3.4 3.4 0 0 1 .03-4.59c1.42-1.43 4.34-.92 5.38.94.76 1.37.75 1.68-.14 3.04-1.15 1.76-3.82 2.07-5.28.6zm96.22-6.18a5 5 0 0 1-.9-2.03c0-1.18 8.68-18.27 10.02-19.72a4 4 0 0 1 2.5-1.3c1.32 0 3.71 2.43 3.71 3.77 0 1.23-8.56 18.12-9.83 19.39-1.6 1.6-4.34 1.54-5.5-.1" style="display:inline;fill:#000000;fill-opacity:1;stroke-width:0.579725"/></g><g id="left-node" style="display:inline" transform="translate(-19.043 -142.206)"><path id="left-node-fill" d="M252.75 284.2c38.46 4.6 68.44 33.93 73.95 72.34 1 6.9.38 23.23-1.12 29.7-4.37 18.96-13.59 34.32-28.2 47-16.49 14.3-38.9 21.42-61.64 19.57a84.4 84.4 0 0 1-68.66-46.63c-4.9-9.8-7.57-19.63-8.5-31.18-3.46-43.01 25.23-81.04 67.64-89.66 6.96-1.42 19.68-1.96 26.53-1.15M229.85 310a57 57 0 0 0-26.71 15.26c-22.58 22.57-22.71 58.15-.3 80.75 19.66 19.84 50.03 22.86 73.03 7.26C286.89 405.8 296 393 299.5 380.1c1.89-6.98 1.9-21.22.02-28.12-8.5-31.23-39.1-49.66-69.67-41.97z" style="display:inline;fill:url(#linearGradient2);stroke-width:0.579725"/><path id="left-node-outline" d="M251.78 277.71c26.11 3.22 48.63 16.06 63.93 36.45 4.41 5.9 11.23 19.09 13.46 26.05 3.27 10.2 4 15.37 4.03 28.16.03 10.36-.15 12.7-1.34 18.26-1.44 6.72-5.65 22.32-15.63 35.11-3.81 4.35-11.95 13.43-16.77 17.2-13.8 10.77-29.63 17.4-46.21 19.34-7.79.92-21.6.35-28.81-1.19-37.07-7.88-64.97-36.82-71.32-73.94-1.56-9.12-1.24-25.44.65-33.62 4.16-18.01 12.28-32.92 24.64-45.22 7.43-7.39 14.05-12.25 22.8-16.72 13.1-6.69 25-9.68 39.55-9.96 4.95-.1 9.9-.05 11.02.08zm-27.25 9.1c-16.5 3.92-29.21 10.96-40.89 22.67-12.05 12.1-19.24 25.45-22.96 42.65-1.86 8.63-1.87 24.24-.02 32.87a85 85 0 0 0 7.95 22.1c11.7 22.55 32.44 38.21 57.84 43.7 7.93 1.7 23.6 1.84 31.4.27a89 89 0 0 0 29.38-11.41c4.86-3.02 5.69-3.7 13.98-11.58 4.19-3.98 10.86-11.95 10.86-12.97 0-.24 1.07-2 2.38-3.93 4.58-6.74 8.83-17.99 10.72-28.36 1.34-7.38 1.37-21.58.06-28.79-6.26-34.25-32.44-61-66.2-67.61-7.29-1.43-7.55-1.45-18.27-1.24-8.31.16-11.24.46-16.23 1.64zm30.73 21.81c22.04 4.69 39.23 21.2 45 43.22 1.92 7.36 2.17 18.75.57 26.1-4.63 21.2-20.92 38.56-41.51 44.26a57.6 57.6 0 0 1-40.43-3.4 59 59 0 0 1-32.11-38.69c-1.54-5.82-2.07-16.61-1.1-22.61 4.7-29.35 29.06-50.16 58.48-49.96 3.59.02 8.23.48 11.1 1.08zm-25.14 8.12c-5.04 1.37-12.75 5.03-16.31 7.74a53 53 0 0 0-16.53 20.34c-3.5 7.54-4.32 11.57-4.33 21.23 0 7.04.21 9.16 1.33 13.04 5.37 18.72 19.24 32.03 38.16 36.6 5.23 1.27 16.47 1.3 22.02.06 14.42-3.2 27.77-13.5 34.42-26.54a51.03 51.03 0 0 0-21.55-68.32c-4.57-2.43-8.04-3.68-13.88-5-5.35-1.21-17.37-.78-23.33.85zm28.68 19.36c6.13 2.85 16.84 15.22 16.86 19.45a3.4 3.4 0 0 1-3.83 3.32c-1.27-.15-2.22-1.08-4.47-4.4-3.5-5.17-10.2-11.5-12.98-12.27-2.75-.76-4.22-2.2-4.22-4.15 0-1.88 1.83-3.43 4.04-3.42.8 0 2.88.66 4.6 1.47z" style="display:inline;fill:#000000;fill-opacity:1;stroke:#000000;stroke-width:8;stroke-opacity:1"/></g><g id="right-node"><path id="right-node-fill" d="M250.85 278.39a59 59 0 0 1-21.74 6.36c-18.67 1.93-37.14-5.46-49.97-20-12.46-14.1-17.44-34.69-12.86-53.18 2.43-9.83 6.04-16.8 12.9-24.92 3.28-3.88 4.12-4.55 12.51-10s9.34-5.94 14.18-7.33c11.14-3.2 20.74-3.51 31.36-1.02 37.06 8.68 56.49 50.3 39.32 84.26a62 62 0 0 1-9.82 13.85c-3.07 3.28-12.16 10.13-15.88 11.98m12.93-38c2.14-4.79 3.17-11.63 2.81-18.68-.35-6.89-1.1-9.7-2.68-10.2-.64-.2-1.65.06-2.3.6-.96.8-1.06 1.9-.59 6.35.97 9-.12 17.05-2.99 22.02-1.47 2.55-1.4 3.94.22 4.84 1.74.95 3.66-.76 5.53-4.93" style="fill:url(#linearGradient4);stroke-width:0.579725"/><path id="right-node-outline" d="M218.2 288.52c-10.26-.64-23.1-5.44-31.75-11.87a63.7 63.7 0 0 1-25.38-44.21c-3.2-28.85 14.68-56.82 42.2-66.04 11.88-3.97 20.53-4.51 32.6-2.02 9.44 1.95 15.66 4.42 22.37 8.9a58 58 0 0 1 16.26 15.83c8.4 11.75 12.14 23.55 11.98 37.8-.17 15.1-6.28 30.36-16.68 41.65-9.12 9.9-22.98 17.33-35.62 19.33a61 61 0 0 1-15.98.63zm-34.3-20.93a58.6 58.6 0 0 0 35.64 15.79c1.66.13 3.17.13 3.36.01s1.21-.18 2.27-.14c8.68.37 21.21-3.36 29.64-8.83a58 58 0 0 0 25.33-37.77c1.86-9.9 1.4-18.2-1.6-28.45a51 51 0 0 0-5.94-12.79 62 62 0 0 0-8.9-11.1c-7.9-7.3-16.44-11.92-26.44-14.3-11.64-2.77-21.23-2.32-33.4 1.55-5.6 1.8-18.12 10.09-22.31 14.8-15.62 17.54-19.76 40.83-11.06 62.18 2.15 5.28 8.82 14.75 13.4 19.05z" style="fill:#000000;fill-opacity:1;stroke:#000000;stroke-width:8;stroke-opacity:1"/></g></svg>