<svg xmlns="http://www.w3.org/2000/svg" xml:space="preserve" viewBox="0 0 64 64"><path fill="#878787" d="M63 5v54c0 2.2-1.8 4-4 4H5c-2.2 0-4-1.8-4-4V5c0-2.2 1.8-4 4-4h54c2.2 0 4 1.8 4 4" opacity=".7"/><path fill="#7c7c7c" d="M63 5v54c0 2.2-1.8 4-4 4H5c-1.9 0-3.4-1.3-3.9-3 .3.1.7.1 1 .1H6c29.9 0 54.2-24.3 54.2-54.2V2.1c0-.3 0-.7-.1-1 1.6.5 2.9 2 2.9 3.9" opacity=".7"/><path fill="#e5e446" fill-opacity=".9" d="M63 5v10.9H1V5c0-2.2 1.8-4 4-4h54c2.2 0 4 1.8 4 4"/><path fill="none" stroke="#000" stroke-linecap="round" stroke-linejoin="round" stroke-miterlimit="10" stroke-width="2" d="M63 19.9V59c0 2.2-1.8 4-4 4H5c-2.2 0-4-1.8-4-4V19.9" opacity=".7"/><path fill="#75ffd7" stroke="#000" stroke-linecap="round" stroke-linejoin="round" stroke-miterlimit="10" stroke-width="2" d="M56.5 7h-25c-.9 0-1.7.8-1.7 1.7s.8 1.7 1.7 1.7h25c.9 0 1.7-.8 1.7-1.7S57.4 7 56.5 7"/><g fill="#75ffd7" stroke="#000" stroke-linecap="round" stroke-linejoin="round" stroke-miterlimit="10" stroke-width="2"><circle cx="7.7" cy="8.5" r="1.9"/><circle cx="14.4" cy="8.5" r="1.9"/><circle cx="21" cy="8.5" r="1.9"/></g><path fill="none" stroke="#000" stroke-linecap="round" stroke-linejoin="round" stroke-miterlimit="10" stroke-width="2" d="M1 15.9h62V5c0-2.2-1.8-4-4-4H5C2.8 1 1 2.8 1 5z"/><path fill="#27fffd" d="M31.5 36.7c-.2.5-.4 1-.6 1.4-.1.3-.2.6 0 .9l1.1 2.3c.2.4.1.8-.2 1.1l-1.1 1.1c-.3.3-.8.4-1.1.2l-2.3-1.1q-.45-.15-.9 0c-.4.2-.9.4-1.4.6q-.45.15-.6.6l-.8 2.4c-.1.4-.5.7-.9.7H21c-.4 0-.8-.3-.9-.7l-.8-2.4a.9.9 0 0 0-.6-.6c-.5-.2-1-.4-1.4-.6-.3-.1-.6-.2-.9 0L14 43.7c-.4.2-.8.1-1.1-.2l-1.1-1.1c-.3-.3-.4-.8-.2-1.1l1.1-2.3q.15-.45 0-.9c-.2-.5-.4-.9-.6-1.4a.9.9 0 0 0-.6-.6l-2.4-.8c-.4-.1-.7-.5-.7-.9v-1.5c0-.4.3-.8.7-.9l2.4-.8q.45-.15.6-.6c.2-.5.4-1 .6-1.4.1-.3.2-.6 0-.9L11.6 26c-.2-.4-.1-.8.2-1.1l1.1-1.1c.3-.3.8-.4 1.1-.2l2.3 1.1q.45.15.9 0c.5-.2.9-.4 1.4-.6q.45-.15.6-.6l.8-2.4c.1-.4.5-.7.9-.7h1.5c.4 0 .8.3.9.7l.8 2.4q.15.45.6.6c.5.2 1 .4 1.4.6.3.1.6.2.9 0l2.3-1.1c.4-.2.8-.1 1.1.2l1.1 1.1c.3.3.4.8.2 1.1l-.8 2q-.15.45 0 .9c.2.5.4.9.6 1.4q.15.45.6.6l2.4.8c.4.1.7.5.7.9v1.5c0 .4-.3.8-.7.9l-2.4 1c-.3.1-.5.4-.6.7"/><path fill="none" stroke="#000" stroke-linecap="round" stroke-linejoin="round" stroke-miterlimit="10" stroke-width="2" d="M31.5 36.7c-.2.5-.4 1-.6 1.4-.1.3-.2.6 0 .9l1.1 2.3c.2.4.1.8-.2 1.1l-1.1 1.1c-.3.3-.8.4-1.1.2l-2.3-1.1q-.45-.15-.9 0c-.4.2-.9.4-1.4.6q-.45.15-.6.6l-.8 2.4c-.1.4-.5.7-.9.7H21c-.4 0-.8-.3-.9-.7l-.8-2.4a.9.9 0 0 0-.6-.6c-.5-.2-1-.4-1.4-.6-.3-.1-.6-.2-.9 0L14 43.7c-.4.2-.8.1-1.1-.2l-1.1-1.1c-.3-.3-.4-.8-.2-1.1l1.1-2.3q.15-.45 0-.9c-.2-.5-.4-.9-.6-1.4a.9.9 0 0 0-.6-.6l-2.4-.8c-.4-.1-.7-.5-.7-.9v-1.5c0-.4.3-.8.7-.9l2.4-.8q.45-.15.6-.6c.2-.5.4-1 .6-1.4.1-.3.2-.6 0-.9L11.6 26c-.2-.4-.1-.8.2-1.1l1.1-1.1c.3-.3.8-.4 1.1-.2l2.3 1.1q.45.15.9 0c.5-.2.9-.4 1.4-.6q.45-.15.6-.6l.8-2.4c.1-.4.5-.7.9-.7h1.5c.4 0 .8.3.9.7l.8 2.4q.15.45.6.6c.5.2 1 .4 1.4.6.3.1.6.2.9 0l2.3-1.1c.4-.2.8-.1 1.1.2l1.1 1.1c.3.3.4.8.2 1.1l-.8 2q-.15.45 0 .9c.2.5.4.9.6 1.4q.15.45.6.6l2.4.8c.4.1.7.5.7.9v1.5c0 .4-.3.8-.7.9l-2.4 1c-.3.1-.5.4-.6.7"/><path fill="#878787" stroke="#000" stroke-linecap="round" stroke-linejoin="round" stroke-miterlimit="10" stroke-width="2" d="M27.1 33.5c0 2.9-2.4 5.3-5.3 5.3s-5.3-2.4-5.3-5.3 2.4-5.3 5.3-5.3 5.3 2.4 5.3 5.3"/><path fill="#ff466d" d="M52.4 50.1c-.1.4-.3.8-.5 1.2-.1.2-.1.5 0 .8l.9 1.9c.2.3.1.7-.2 1l-.9.9c-.3.3-.7.3-1 .2l-2-.9c-.2-.1-.5-.1-.8 0-.4.2-.8.4-1.2.5-.3.1-.5.3-.6.5l-.7 2.1c-.1.3-.4.6-.8.6h-1.3c-.4 0-.7-.2-.8-.6l-.7-2.1c-.1-.3-.3-.4-.6-.5-.4-.1-.8-.3-1.2-.5-.2-.1-.5-.1-.8 0l-2 .9c-.3.2-.7.1-1-.2l-.7-.9c-.3-.3-.3-.7-.2-1l.9-1.9c.1-.2.1-.5 0-.8-.2-.4-.4-.8-.5-1.2-.1-.3-.3-.5-.5-.6l-2-.7c-.3-.1-.6-.4-.6-.8v-1.3c0-.4.2-.7.6-.8l2-.7c.3-.1.4-.3.5-.6.1-.4.3-.8.5-1.2.1-.2.1-.5 0-.8l-.9-1.9c-.2-.3-.1-.7.2-1l.9-.9c.3-.3.7-.3 1-.2l2 .9c.2.1.5.1.8 0 .4-.2.8-.4 1.2-.5.3-.1.5-.3.6-.5l.7-2.1c.1-.3.4-.6.8-.6h1.3c.4 0 .7.2.8.6l.7 2.1c.1.3.3.4.6.5.4.1.8.3 1.2.5.2.1.5.1.8 0l2-.9c.3-.2.7-.1 1 .2l.9.9c.3.3.3.7.2 1l-.9 1.9c-.1.2-.1.5 0 .8.2.4.4.8.5 1.2.1.3.3.5.5.6l2 .7c.3.1.6.4.6.8V48c0 .4-.2.7-.6.8l-2 .7c-.4.1-.6.3-.7.6"/><path fill="none" stroke="#000" stroke-linecap="round" stroke-linejoin="round" stroke-miterlimit="10" stroke-width="2" d="M52.4 50.1c-.1.4-.3.8-.5 1.2-.1.2-.1.5 0 .8l.9 1.9c.2.3.1.7-.2 1l-.9.9c-.3.3-.7.3-1 .2l-2-.9c-.2-.1-.5-.1-.8 0-.4.2-.8.4-1.2.5-.3.1-.5.3-.6.5l-.7 2.1c-.1.3-.4.6-.8.6h-1.3c-.4 0-.7-.2-.8-.6l-.7-2.1c-.1-.3-.3-.4-.6-.5-.4-.1-.8-.3-1.2-.5-.2-.1-.5-.1-.8 0l-2 .9c-.3.2-.7.1-1-.2l-.7-.9c-.3-.3-.3-.7-.2-1l.9-1.9c.1-.2.1-.5 0-.8-.2-.4-.4-.8-.5-1.2-.1-.3-.3-.5-.5-.6l-2-.7c-.3-.1-.6-.4-.6-.8v-1.3c0-.4.2-.7.6-.8l2-.7c.3-.1.4-.3.5-.6.1-.4.3-.8.5-1.2.1-.2.1-.5 0-.8l-.9-1.9c-.2-.3-.1-.7.2-1l.9-.9c.3-.3.7-.3 1-.2l2 .9c.2.1.5.1.8 0 .4-.2.8-.4 1.2-.5.3-.1.5-.3.6-.5l.7-2.1c.1-.3.4-.6.8-.6h1.3c.4 0 .7.2.8.6l.7 2.1c.1.3.3.4.6.5.4.1.8.3 1.2.5.2.1.5.1.8 0l2-.9c.3-.2.7-.1 1 .2l.9.9c.3.3.3.7.2 1l-.9 1.9c-.1.2-.1.5 0 .8.2.4.4.8.5 1.2.1.3.3.5.5.6l2 .7c.3.1.6.4.6.8V48c0 .4-.2.7-.6.8l-2 .7c-.4.1-.6.3-.7.6"/><path fill="#878787" stroke="#000" stroke-linecap="round" stroke-linejoin="round" stroke-miterlimit="10" stroke-width="2" d="M48.6 47.3c0 2.5-2 4.5-4.5 4.5s-4.5-2-4.5-4.5 2-4.5 4.5-4.5 4.5 2 4.5 4.5"/></svg>