<svg xmlns="http://www.w3.org/2000/svg" xml:space="preserve" viewBox="0 0 66 66"><path fill="#02beff" d="M52.5 29.7c.5 2.7-.3 5.5-2.4 7.6a8 8 0 0 1-4.9 2.4A5.29 5.29 0 0 1 34.9 38V7.3C35 4.4 37.4 2 40.3 2c1.7 0 3.2.8 4.1 2a8.45 8.45 0 0 1 8.2 9.5c0 .2 0 .4-.1.5 3 1.3 5.1 4.3 5.1 7.8 0 3.6-2.1 6.6-5.1 7.9"/><path fill="#00addb" d="M52.4 10.6q-1.05-.3-2.1-.3c-.9-1.2-2.5-2-4.1-2-2.9 0-5.3 2.4-5.3 5.3v29.7h-.6c-2.9 0-5.3-2.4-5.3-5.3V7.3C35 4.4 37.4 2 40.3 2c1.7 0 3.2.8 4.1 2 2.1.1 4.2.9 5.8 2.5 1.1 1.2 1.9 2.6 2.2 4.1"/><path fill="#02beff" d="M31 7.3V38a5.29 5.29 0 0 1-10.3 1.7c-1.8-.2-3.5-1-4.9-2.4a8.7 8.7 0 0 1-2.4-7.6c-3-1.3-5.1-4.3-5.1-7.8s2.1-6.5 5.1-7.8c0-.2-.1-.4-.1-.5a8.45 8.45 0 0 1 8.2-9.5c.9-1.2 2.5-2 4.1-2 3-.1 5.4 2.3 5.4 5.2"/><path fill="#00addb" d="M30.9 6.6c-1 .3-1.8.9-2.4 1.7a8.45 8.45 0 0 0-8.2 9.5c0 .2 0 .4.1.5-3 1.3-5.1 4.3-5.1 7.8s2.1 6.5 5.1 7.8c-.5 2.7.3 5.5 2.4 7.6.7.7 1.5 1.3 2.4 1.7-2.1-.2-3.8-1.6-4.5-3.6-1.8-.2-3.5-1-4.9-2.4a8.7 8.7 0 0 1-2.4-7.6c-3-1.3-5.1-4.3-5.1-7.8s2.1-6.5 5.1-7.8c0-.2-.1-.4-.1-.5A8.45 8.45 0 0 1 21.5 4c.9-1.2 2.5-2 4.1-2 2.8 0 5 2 5.3 4.6"/><path fill="#fecb4d" d="M4.7 51.1h3.1v4.8H4.7c-1.3 0-2.4-1.1-2.4-2.4 0-.7.3-1.3.7-1.7.5-.4 1.1-.7 1.7-.7m12 0h32.6v4.8H16.7zm46.9 2.4c0 .7-.3 1.3-.7 1.7s-1 .7-1.7.7h-3.1v-4.8h3.1c1.4 0 2.4 1.1 2.4 2.4"/><path fill="#c7d9f9" d="M58.2 45v17a2 2 0 0 1-2 2h-4.9a2 2 0 0 1-2-2V45c0-1.1.9-2 2-2h4.9c1.1.1 2 1 2 2m-41.5 0v17a2 2 0 0 1-2 2H9.8a2 2 0 0 1-2-2V45c0-1.1.9-2 2-2h4.9c1.1.1 2 1 2 2"/><path fill="#b0cdf7" d="M58.2 45v2.5h-2.5a2 2 0 0 0-2 2V64h-2.5a2 2 0 0 1-2-2V45c0-1.1.9-2 2-2h4.9c1.2.1 2.1 1 2.1 2m-41.5 0v2.5h-2.5a2 2 0 0 0-2 2V64H9.8a2 2 0 0 1-2-2V45c0-1.1.9-2 2-2h4.9c1.1.1 2 1 2 2"/><g fill="none" stroke="#000" stroke-linecap="round" stroke-linejoin="round" stroke-miterlimit="10" stroke-width="1.98"><path d="M4.7 51.1h3.1v4.8H4.7c-1.3 0-2.4-1.1-2.4-2.4 0-.7.3-1.3.7-1.7.5-.4 1.1-.7 1.7-.7m40.7 0H20.6m24.8 4.8H20.6m43-2.4c0 .7-.3 1.3-.7 1.7s-1 .7-1.7.7h-3.1v-4.8h3.1c1.4 0 2.4 1.1 2.4 2.4M14.7 64H9.8a2 2 0 0 1-2-2V45c0-1.1.9-2 2-2h4.9a2 2 0 0 1 2 2v17a2 2 0 0 1-2 2"/><path d="M56.2 64h-4.9a2 2 0 0 1-2-2V45c0-1.1.9-2 2-2h4.9a2 2 0 0 1 2 2v17a2 2 0 0 1-2 2"/></g><g fill="none" stroke="#000" stroke-linecap="round" stroke-linejoin="round" stroke-miterlimit="10" stroke-width="1.98"><path d="M14.6 26.7a8.5 8.5 0 0 0 1.2 10.6c1.4 1.4 3.1 2.2 4.9 2.4M21.6 4a8.45 8.45 0 0 0-7.4 12.2"/><path d="M13.5 14.1c-3 1.3-5.1 4.3-5.1 7.8s2.1 6.5 5.1 7.8m7 8.3c0 2.9 2.4 5.3 5.3 5.3S31 40.9 31 38V7.3C31 4.4 28.6 2 25.7 2s-5.3 2.4-5.3 5.3m24.9 32.4c1.8-.2 3.5-1 4.9-2.4a8.5 8.5 0 0 0 1.2-10.6m.4-10.5A8.45 8.45 0 0 0 44.4 4"/><path d="M52.5 29.7c3-1.3 5.1-4.3 5.1-7.8s-2.1-6.5-5.1-7.8m-7 23.9c0 2.9-2.4 5.3-5.3 5.3s-5.3-2.4-5.3-5.3V7.3C35 4.4 37.4 2 40.3 2s5.3 2.4 5.3 5.3"/></g><path fill="none" stroke="#000" stroke-linecap="round" stroke-linejoin="round" stroke-miterlimit="10" stroke-width="1.98" d="M31 28.1c0 2.2-1.8 4-4 4s-4-1.8-4-4m-4.2-3.6c-1.5-1.5-1.5-4 0-5.6m4.3-.7c0-2.2 1.8-4 4-4s4 1.8 4 4m3.9 9.9c0 2.2 1.8 4 4 4s4-1.8 4-4m4.3-3.6c1.5-1.5 1.5-4 0-5.6m-4.4-.7c0-2.2-1.8-4-4-4s-4 1.8-4 4"/></svg>