<svg xmlns="http://www.w3.org/2000/svg" xml:space="preserve" id="Layer_1" x="0" y="0" viewBox="0 0 64 64"><style id="style1" type="text/css">.st0{fill:#38FCC4;}
	.st1{fill:#1DE9B6;}
	.st2{fill:none;stroke:#2A3C65;stroke-width:2.0667;stroke-linecap:round;stroke-linejoin:round;stroke-miterlimit:10;}
	.st3{fill:#E3ECFF;}
	.st4{fill:#C7D9F9;}
	.st5{fill:#FFD880;}
	.st6{fill:#FECB4D;}
	.st7{fill:#FF7DAF;}
	.st8{fill:#FFFFFF;stroke:#2A3C65;stroke-width:2.0667;stroke-linecap:round;stroke-linejoin:round;stroke-miterlimit:10;}
	.st9{fill:none;stroke:#2A3C65;stroke-width:2.1673;stroke-linecap:round;stroke-linejoin:round;stroke-miterlimit:10;}
	.st10{fill:#FFFFFF;}
	.st11{fill:#12D69E;}
	.st12{fill:none;stroke:#2A3C65;stroke-width:2.0666;stroke-linecap:round;stroke-linejoin:round;stroke-miterlimit:10;}
	.st13{fill:#B0CDF7;}
	.st14{fill:#CC87FE;}
	.st15{fill:#FFFFFF;stroke:#2A3C65;stroke-width:2.0666;stroke-linecap:round;stroke-linejoin:round;stroke-miterlimit:10;}
	.st16{fill:none;stroke:#2A3C65;stroke-width:2;stroke-linecap:round;stroke-linejoin:round;stroke-miterlimit:10;}
	.st17{opacity:0.5;fill:#E3ECFF;}
	.st18{fill:#FFFFFF;stroke:#2A3C65;stroke-width:2;stroke-linecap:round;stroke-linejoin:round;stroke-miterlimit:10;}
	.st19{fill:none;stroke:#2A3C65;stroke-width:2.0329;stroke-linecap:round;stroke-linejoin:round;stroke-miterlimit:10;}
	.st20{fill:#D5A6FF;}
	.st21{fill:#E3ECFF;stroke:#2A3C65;stroke-width:2.0329;stroke-linecap:round;stroke-linejoin:round;stroke-miterlimit:10;}
	.st22{fill:#27D1FF;stroke:#2A3C65;stroke-width:2.0329;stroke-linecap:round;stroke-linejoin:round;stroke-miterlimit:10;}
	.st23{fill:#FF5892;}
	.st24{fill:#FFFFFF;stroke:#2A3C65;stroke-width:2.0329;stroke-linecap:round;stroke-linejoin:round;stroke-miterlimit:10;}
	.st25{fill:none;stroke:#2A3C65;stroke-width:2.0295;stroke-linecap:round;stroke-linejoin:round;stroke-miterlimit:10;}
	.st26{fill:#27D1FF;}
	.st27{fill:#FFFFFF;stroke:#2A3C65;stroke-width:2.0295;stroke-linecap:round;stroke-linejoin:round;stroke-miterlimit:10;}
	.st28{fill:none;stroke:#2A3C65;stroke-width:1.9375;stroke-linecap:round;stroke-linejoin:round;stroke-miterlimit:10;}
	.st29{fill:#FFFFFF;stroke:#2A3C65;stroke-width:1.9375;stroke-linecap:round;stroke-linejoin:round;stroke-miterlimit:10;}
	.st30{fill:#2A3C65;}
	.st31{fill:none;stroke:#2A3C65;stroke-width:2.0609;stroke-linecap:round;stroke-linejoin:round;stroke-miterlimit:10;}
	.st32{fill:#FFFFFF;stroke:#2A3C65;stroke-width:2.0609;stroke-linecap:round;stroke-linejoin:round;stroke-miterlimit:10;}
	.st33{fill:#02BEFF;}
	.st34{fill:none;stroke:#2A3C65;stroke-width:1.9154;stroke-linecap:round;stroke-linejoin:round;stroke-miterlimit:10;}
	.st35{fill:#FF7DAF;stroke:#2A3C65;stroke-width:1.9154;stroke-linecap:round;stroke-linejoin:round;stroke-miterlimit:10;}
	.st36{fill:#FFD880;stroke:#2A3C65;stroke-width:2.1563;stroke-linecap:round;stroke-linejoin:round;stroke-miterlimit:10;}
	.st37{fill:none;stroke:#2A3C65;stroke-width:2.1563;stroke-linecap:round;stroke-linejoin:round;stroke-miterlimit:10;}
	.st38{fill:none;stroke:#2A3C65;stroke-width:2.1269;stroke-linecap:round;stroke-linejoin:round;stroke-miterlimit:10;}
	.st39{fill:#FFFFFF;stroke:#2A3C65;stroke-width:2.1269;stroke-linecap:round;stroke-linejoin:round;stroke-miterlimit:10;}
	.st40{fill:#FFD880;stroke:#2A3C65;stroke-width:2;stroke-linecap:round;stroke-linejoin:round;stroke-miterlimit:10;}
	.st41{fill:#E3ECFF;stroke:#2A3C65;stroke-width:2;stroke-linecap:round;stroke-linejoin:round;stroke-miterlimit:10;}
	.st42{fill:#E3ECFF;stroke:#2A3C65;stroke-width:2.009;stroke-linecap:round;stroke-linejoin:round;stroke-miterlimit:10;}
	.st43{fill:none;stroke:#2A3C65;stroke-width:2.009;stroke-linecap:round;stroke-linejoin:round;stroke-miterlimit:10;}
	.st44{fill:#FF5892;stroke:#2A3C65;stroke-width:2.009;stroke-linecap:round;stroke-linejoin:round;stroke-miterlimit:10;}
	.st45{fill:#27D1FF;stroke:#2A3C65;stroke-width:2;stroke-linecap:round;stroke-linejoin:round;stroke-miterlimit:10;}
	.st46{fill:#FF7DAF;stroke:#2A3C65;stroke-width:2.0666;stroke-linecap:round;stroke-linejoin:round;stroke-miterlimit:10;}
	.st47{fill:none;stroke:#2A3C65;stroke-width:1.9315;stroke-linecap:round;stroke-linejoin:round;stroke-miterlimit:10;}
	.st48{fill:#F9B826;}
	.st49{fill:#2A3C65;stroke:#2A3C65;stroke-width:2;stroke-linecap:round;stroke-linejoin:round;stroke-miterlimit:10;}
	.st50{fill:none;}
	.st51{fill:none;stroke:#2A3C65;stroke-width:1.9999;stroke-linecap:round;stroke-linejoin:round;stroke-miterlimit:10;}
	.st52{fill:#00ADDB;}
	.st53{fill:none;stroke:#2A3C65;stroke-width:2.0001;stroke-linecap:round;stroke-linejoin:round;stroke-miterlimit:10;}
	.st54{fill:#FF7DAF;stroke:#2A3C65;stroke-width:2.0001;stroke-linecap:round;stroke-linejoin:round;stroke-miterlimit:10;}
	.st55{fill:none;stroke:#2A3C65;stroke-width:2.0334;stroke-linecap:round;stroke-linejoin:round;stroke-miterlimit:10;}
	.st56{fill:#E3ECFF;stroke:#2A3C65;stroke-width:2.0334;stroke-linecap:round;stroke-linejoin:round;stroke-miterlimit:10;}
	.st57{fill:#02BEFF;stroke:#2A3C65;stroke-width:2;stroke-linecap:round;stroke-linejoin:round;stroke-miterlimit:10;}
	.st58{fill:#FECB4D;stroke:#2A3C65;stroke-width:2;stroke-linecap:round;stroke-linejoin:round;stroke-miterlimit:10;}
	.st59{fill:none;stroke:#2A3C65;stroke-width:1.9481;stroke-linecap:round;stroke-linejoin:round;stroke-miterlimit:10;}
	.st60{fill:#38FCC4;stroke:#2A3C65;stroke-width:1.9481;stroke-linecap:round;stroke-linejoin:round;stroke-miterlimit:10;}
	.st61{fill:none;stroke:#2A3C65;stroke-width:1.993;stroke-linecap:round;stroke-linejoin:round;stroke-miterlimit:10;}
	.st62{fill:#27D1FF;stroke:#2A3C65;stroke-width:1.9999;stroke-linecap:round;stroke-linejoin:round;stroke-miterlimit:10;}
	.st63{fill:#E3ECFF;stroke:#2A3C65;stroke-width:1.9999;stroke-linecap:round;stroke-linejoin:round;stroke-miterlimit:10;}
	.st64{fill:#FF7DAF;stroke:#2A3C65;stroke-width:1.9999;stroke-linecap:round;stroke-linejoin:round;stroke-miterlimit:10;}
	.st65{fill:none;stroke:#2A3C65;stroke-width:2.0003;stroke-linecap:round;stroke-linejoin:round;stroke-miterlimit:10;}
	.st66{fill:#FF7DAF;stroke:#2A3C65;stroke-width:2.0003;stroke-linecap:round;stroke-linejoin:round;stroke-miterlimit:10;}
	.st67{fill:#B45FFF;}
	.st68{fill:none;stroke:#2A3C65;stroke-width:1.8975;stroke-linecap:round;stroke-linejoin:round;stroke-miterlimit:10;}
	
		.st69{fill:none;stroke:#2A3C65;stroke-width:1.8975;stroke-linecap:round;stroke-linejoin:round;stroke-miterlimit:10;stroke-dasharray:2.8463;}
	.st70{fill:#27D1FF;stroke:#2A3C65;stroke-width:1.8975;stroke-linecap:round;stroke-linejoin:round;stroke-miterlimit:10;}</style><g id="g20"><g id="g19"><path id="path1" d="m10.26 30.22.21.8 2.77 10.77-1.52 4.97-7.59-8.64a6 6 0 0 1-1.44-3.14" class="st42" style="stroke:#000000;stroke-opacity:1"/><path id="path2" d="M6.35 32.63c4.25-.15 4.45-1.41 3.91-2.41a2.7 2.7 0 0 0-2.23-1.36c-4.54-.35-6.3.87-6.85 2.35-.76 2.06.94 4.21 3.22 4.21h4.54" class="st42" style="stroke:#000000;stroke-opacity:1"/><path id="path3" d="m53.74 30.22-.21.8-2.77 10.77 1.52 4.97 7.59-8.64a6 6 0 0 0 1.44-3.14" class="st42" style="stroke:#000000;stroke-opacity:1"/><path id="path4" d="M57.65 32.63c-4.25-.15-4.45-1.41-3.91-2.41.43-.8 1.3-1.29 2.23-1.36 4.54-.35 6.3.87 6.85 2.35.76 2.06-.94 4.21-3.22 4.21h-4.54" class="st42" style="stroke:#000000;stroke-opacity:1"/><path id="path5" d="m62.47 33.92-9.8 25.56a4.1 4.1 0 0 1-3.85 2.65H15.18a4.1 4.1 0 0 1-3.85-2.65l-9.8-25.56c.6.89 1.65 1.5 2.87 1.5h55.2c1.22 0 2.27-.61 2.87-1.5" class="st4"/><path id="path6" d="m62.48 33.92-9.8 25.57a4.1 4.1 0 0 1-3.85 2.65H15.17a4.1 4.1 0 0 1-3.85-2.65l-1.88-4.9h15.37c13.22 0 25.18-7.5 31-19.17h3.79c1.22 0 2.27-.61 2.88-1.5" class="st13"/><path id="path7" d="m5.01 43.02-3.49-9.1c.6.89 1.66 1.5 2.87 1.5H59.6c1.22 0 2.27-.6 2.87-1.5l-3.49 9.1" class="st43" style="stroke:#000000;stroke-opacity:1"/><path id="path8" d="m11.2 59.13.13.35a4.1 4.1 0 0 0 3.85 2.65h33.65a4.1 4.1 0 0 0 3.85-2.65l.13-.35" class="st43" style="stroke:#000000;stroke-opacity:1"/><path id="path9" d="M11.26 56.12c-5.29.01-7.05-4.49-7.39-8.04-.13-1.36 1.15-2.36 2.49-2.09q.86.2 2.1.01c3.33-.52 6.51-2.16 7.36 1.71.87 3.87.19 8.4-4.56 8.41" class="st5"/><path id="path10" d="M11.24 53.1q-3.35-.01-4.18-4.01l.35.01q.74 0 1.53-.12 1.04-.18 2.03-.4c.69-.15 1.4-.31 1.9-.35l.03.13c.47 2.14.2 3.7-.27 4.3-.1.12-.36.45-1.36.45h-.03z" class="st6"/><path id="path11" d="M52.74 56.12c5.29.01 7.05-4.49 7.39-8.04.13-1.36-1.15-2.36-2.49-2.09q-.86.2-2.1.01c-3.33-.52-6.51-2.16-7.36 1.71-.87 3.87-.19 8.4 4.56 8.41" class="st5"/><path id="path12" d="M52.75 53.1c-1.01 0-1.27-.33-1.36-.45-.48-.59-.75-2.15-.27-4.3l.03-.13c.49.04 1.2.19 1.9.35q1 .23 2.03.4.78.12 1.53.12l.35-.01q-.83 4-4.18 4.01h-.03z" class="st6"/><path id="path13" d="M11.26 56.12c-5.29.01-7.05-4.49-7.39-8.04-.13-1.36 1.15-2.36 2.49-2.09q.86.2 2.1.01c3.33-.52 6.51-2.16 7.36 1.71.87 3.87.19 8.4-4.56 8.41" class="st43" style="stroke:#000000;stroke-opacity:1"/><path id="path14" d="M52.74 56.12c5.29.01 7.05-4.49 7.39-8.04.13-1.36-1.15-2.36-2.49-2.09q-.86.2-2.1.01c-3.33-.52-6.51-2.16-7.36 1.71-.87 3.87-.19 8.4 4.56 8.41" class="st43" style="stroke:#000000;stroke-opacity:1"/><ellipse id="ellipse14" cx="32" cy="21.75" class="st5" rx="9.39" ry="9.38"/><ellipse id="ellipse15" cx="32" cy="21.75" class="st43" rx="9.39" ry="9.38" style="stroke:#000000;stroke-opacity:1"/><path id="path15" d="M44.15 19.81h-24.3c-.67 0-1.19-.66-.96-1.29q.3-.84.92-1.46c.7-.7 1.67-1.14 2.74-1.14h18.89a3.9 3.9 0 0 1 3.67 2.59c.23.64-.29 1.3-.96 1.3" class="st4"/><path id="path16" d="M44.15 19.81h-24.3c-.67 0-1.19-.66-.96-1.29q.3-.84.92-1.46c.7-.7 1.67-1.14 2.74-1.14h18.89a3.9 3.9 0 0 1 3.67 2.59c.23.64-.29 1.3-.96 1.3" class="st43" style="stroke:#000000;stroke-opacity:1"/><path id="path17" d="M42.52 15.41v.52H21.48v-.52a10.52 10.52 0 0 1 21.04 0" class="st23"/><path id="path18" d="M38.55 7.19q.47.36.89.78c1.9 1.9 3.08 4.53 3.08 7.43v.52H21.47v-.52c0-3.34 1.56-6.31 3.98-8.23" class="st43" style="stroke:#000000;stroke-opacity:1"/><path id="path19" d="M29.47 9.65V4.39c0-1.4 1.13-2.53 2.53-2.53h0c1.4 0 2.53 1.13 2.53 2.53v5.26" class="st44" style="stroke:#000000;stroke-opacity:1"/></g></g></svg>