<svg xmlns="http://www.w3.org/2000/svg" xml:space="preserve" id="Layer_1" x="0" y="0" viewBox="0 0 63 63"><style id="style1" type="text/css">.st0{fill:#D5A6FF;}
	.st1{fill:#CC87FE;}
	.st2{fill:none;stroke:#2A3C65;stroke-width:2;stroke-linecap:round;stroke-linejoin:round;stroke-miterlimit:10;}
	.st3{fill:#FF7DAF;}
	.st4{fill:#FF5892;}
	.st5{fill:#FFD880;}
	.st6{fill:#FECB4D;}
	.st7{fill:#E3ECFF;}
	.st8{fill:#02BEFF;stroke:#2A3C65;stroke-width:2;stroke-linecap:round;stroke-linejoin:round;stroke-miterlimit:10;}
	.st9{fill:#FECB4D;stroke:#2A3C65;stroke-width:2;stroke-linecap:round;stroke-linejoin:round;stroke-miterlimit:10;}
	.st10{fill:#1DE9B6;stroke:#2A3C65;stroke-width:2;stroke-linecap:round;stroke-linejoin:round;stroke-miterlimit:10;}
	.st11{fill:#FFD880;stroke:#2A3C65;stroke-width:2;stroke-linecap:round;stroke-linejoin:round;stroke-miterlimit:10;}</style><g id="g13"><path id="path1" d="M57.66 29.23v32.33H5.34V29.22a4 4 0 0 0 1.79-.82L29.6 10.09a3 3 0 0 1 3.79 0L55.87 28.4q.83.66 1.79.83" class="st0" style="fill:#9883eb;fill-opacity:1"/><path id="path2" d="M57.66 29.24v32.33H5.34v-4.71h17.41a32.33 32.33 0 0 0 32.18-29.22l.94.77q.83.66 1.79.83" class="st1" style="fill:#7d62e6;fill-opacity:1"/><path id="polyline2" d="M57.66 33.27v28.3H5.34V33.26" class="st2" style="stroke:#000000;stroke-opacity:1"/><path id="path3" d="M61.5 27.83a4 4 0 0 1-5.63.58L33.39 10.09a3 3 0 0 0-3.79 0L7.13 28.4a4 4 0 1 1-5.06-6.2L24.55 3.89a11 11 0 0 1 13.89 0L60.92 22.2a4 4 0 0 1 .58 5.63" class="st3" style="fill:#ff7290;fill-opacity:1"/><path id="path5" d="M61.5 27.83a4 4 0 0 1-5.63.58L33.39 10.09a3 3 0 0 0-3.79 0L7.13 28.4a4 4 0 0 1-5.63-.57v0a4 4 0 0 1 .57-5.63L24.55 3.89a11 11 0 0 1 13.89 0L60.92 22.2a4 4 0 0 1 .58 5.63" class="st2" style="display:inline;stroke:#000000;stroke-opacity:1"/><path id="path4" d="M58.4 26.3c-.16 0-.4-.04-.63-.22L35.29 7.77a6 6 0 0 0-7.58.01L5.23 26.08c-.23.18-.47.22-.63.22a1 1 0 0 1-.78-.37 1 1 0 0 1 .14-1.4L26.44 6.22a8 8 0 0 1 10.1-.01l22.48 18.31c.28.23.35.52.36.67s.01.45-.22.73a1 1 0 0 1-.76.38" class="st4" style="display:inline;fill:#ff446c;fill-opacity:1"/><path id="path6" d="M25.08 41.49v20.07H9.99V41.49a2 2 0 0 1 2-2h11.09a2 2 0 0 1 2 2" class="st5" style="fill:#e5e446;fill-opacity:0.89803922"/><path id="rect6" d="M12.99 42.49h9.09v16.07h-9.09z" class="st6" style="fill:#a7a617;fill-opacity:0.89803922"/><path id="path7" d="M25.08 41.49v20.07H9.99V41.49a2 2 0 0 1 2-2h11.09a2 2 0 0 1 2 2" class="st2" style="stroke:#000000;stroke-opacity:1"/><path id="line7" d="M13.06 49.54v1.92" class="st2" style="stroke:#000000;stroke-opacity:1"/><path id="path8" d="M53.01 32.79v15.25a2 2 0 0 1-2 2H30.74a2 2 0 0 1-2-2V32.79c0-1.1.9-2 2-2h20.27a2 2 0 0 1 2 2" class="st7"/><path id="path9" d="M53.01 32.79v15.25a2 2 0 0 1-2 2H30.74a2 2 0 0 1-2-2V32.79c0-1.1.9-2 2-2h20.27a2 2 0 0 1 2 2" class="st2" style="stroke:#000000;stroke-opacity:1"/><path id="path10" d="M48.57 48.9v1.15H33.19V48.9a4.2 4.2 0 0 1 1.98-2.94c.96-.58 1.97-1.05 2.63-1.33l.62-.25.14-.04h4.64l.14.04.62.25c.66.28 1.67.75 2.63 1.33a4.3 4.3 0 0 1 1.98 2.94" class="st8" style="stroke:#000000;stroke-opacity:1"/><path id="path11" d="M42.85 42.33v3.22l-.02.23-.1.58c-.4 2.01-3.28 2.02-3.69.01l-.11-.58-.02-.24v-3.22z" class="st9" style="stroke:#000000;stroke-opacity:1"/><path id="path12" d="M44.84 37.85c0 2.1-1.77 4.7-3.96 4.7s-3.96-2.6-3.96-4.7 1.77-3.21 3.96-3.21 3.96 1.11 3.96 3.21" class="st10" style="display:inline;stroke:#000000;stroke-opacity:1;fill:#a97e00;fill-opacity:1"/><path id="path13" d="M44.31 39.7v1.23a3.5 3.5 0 0 1-3.26 3.56 3.44 3.44 0 0 1-3.6-3.46v-1.56c0-.34.2-.65.5-.8.25-.13.56-.33.8-.64.27-.36.78-.42 1.16-.19.64.39 1.75.83 3.58.98.46.03.82.41.82.88" class="st11" style="stroke:#000000;stroke-opacity:1"/><path id="line13" d="M.97 61.56h61.06" class="st2" style="stroke:#000000;stroke-opacity:1"/></g></svg>