<svg xmlns="http://www.w3.org/2000/svg" xml:space="preserve" viewBox="0 0 66 66"><path fill="#c7d9f9" d="m63.2 13.5-6.6 6.6L45.8 9.5l6.6-6.6c1.1-1.1 2.9-1.1 4 0L63 9.5c1.3 1.1 1.3 2.9.2 4"/><path fill="none" stroke="#000" stroke-linecap="round" stroke-linejoin="round" stroke-miterlimit="10" stroke-width="2" d="m59.4 17.3 3.8-3.8c1.1-1.1 1.1-2.9 0-4l-6.6-6.6a2.96 2.96 0 0 0-4.1 0l-3.8 3.8m5.6.5-2.1 2m6.6 2.5-2 2.1"/><path fill="#02beff" stroke="#000" stroke-linecap="round" stroke-linejoin="round" stroke-miterlimit="10" stroke-width="2" d="M10 35.4 30.6 56l-3.5 3.5a3.8 3.8 0 0 1-5.4 0L6.5 44.3a3.8 3.8 0 0 1 0-5.4zm45.2-4L34.6 10.8l3.5-3.5a3.8 3.8 0 0 1 5.4 0l15.2 15.2a3.8 3.8 0 0 1 0 5.4z"/><path fill="#1de9b6" d="m55.2 31.39-24.6 24.6-20.58-20.57L34.63 10.8z"/><path fill="#12d69e" d="M36.1 14.8a29 29 0 0 0-8.5 20.6c0 6.2 2 12.5 6 17.6l-3 3L10 35.4l24.6-24.6 2.7 2.7z"/><path fill="none" stroke="#000" stroke-linecap="round" stroke-linejoin="round" stroke-miterlimit="10" stroke-width="2" d="m55.2 31.39-24.6 24.6-20.58-20.57L34.63 10.8z"/><circle cx="32.6" cy="33.4" r="8.6" fill="#c7d9f9" stroke="#000" stroke-linecap="round" stroke-linejoin="round" stroke-miterlimit="10" stroke-width="2"/><g stroke-linecap="round" stroke-linejoin="round" stroke-miterlimit="10" class="service-icon__waves"><path d="M20.2 1.7A19.3 19.3 0 0 0 1 21a1 1 0 0 0 1 1 1 1 0 0 0 1-1c0-9.56 7.75-17.3 17.2-17.3a1 1 0 0 0 1-1 1 1 0 0 0-1-1"/><path d="M20.3 6.7C12.36 6.7 6 13.16 6 21a1 1 0 0 0 1 1 1 1 0 0 0 1-1c0-6.76 5.44-12.3 12.3-12.3a1 1 0 0 0 1-1 1 1 0 0 0-1-1"/><path d="M20.2 11.7a9.3 9.3 0 0 0-9.3 9.3 1 1 0 0 0 1 1 1 1 0 0 0 1-1c0-4.06 3.24-7.3 7.3-7.3a1 1 0 0 0 1-1 1 1 0 0 0-1-1m0 5a4.3 4.3 0 0 0-4.3 4.3 1 1 0 0 0 1 1 1 1 0 0 0 1-1c0-1.24 1.05-2.3 2.3-2.3a1 1 0 0 0 1-1 1 1 0 0 0-1-1m43 28.1a1 1 0 0 0-1 1C62.2 55.26 54.56 63 45 63a1 1 0 0 0-1 1 1 1 0 0 0 1 1c10.64 0 19.2-8.66 19.2-19.2a1 1 0 0 0-1-1"/><path d="M58.3 44.7a1 1 0 0 0-1 1C57.3 52.56 51.76 58 45 58a1 1 0 0 0-1 1 1 1 0 0 0 1 1c7.84 0 14.3-6.36 14.3-14.3a1 1 0 0 0-1-1"/><path d="M53.3 44.8a1 1 0 0 0-1 1c0 4.06-3.24 7.3-7.3 7.3a1 1 0 0 0-1 1 1 1 0 0 0 1 1 9.3 9.3 0 0 0 9.3-9.3 1 1 0 0 0-1-1m-5 0a1 1 0 0 0-1 1c0 1.25-1.06 2.3-2.3 2.3a1 1 0 0 0-1 1 1 1 0 0 0 1 1c2.36 0 4.3-1.94 4.3-4.3a1 1 0 0 0-1-1"/></g></svg>