<svg xmlns="http://www.w3.org/2000/svg" xml:space="preserve" viewBox="0 0 64 64"><path fill="#e5e446" d="M49.3 37.9c-.3.8-.6 1.5-.9 2.2-.4.8-.4 1.8 0 2.6l1 2c.6 1.1.3 2.5-.6 3.4l-.7.7c-.9.9-2.3 1.1-3.4.6l-2-1c-.8-.4-1.8-.4-2.6 0-.7.3-1.4.6-2.2.9-.9.3-1.5 1-1.8 1.8l-.7 2.1a3 3 0 0 1-2.8 2h-1c-1.3 0-2.4-.8-2.8-2l-.8-2c-.3-.9-1-1.5-1.8-1.8s-1.5-.6-2.2-.9c-.8-.4-1.8-.4-2.6 0l-2 1c-1.1.6-2.5.3-3.4-.6l-.7-.7c-.9-.9-1.1-2.3-.6-3.4l1-2c.4-.8.4-1.8 0-2.6-.3-.7-.7-1.4-.9-2.2-.3-.9-1-1.5-1.8-1.8l-2.1-.7a3 3 0 0 1-2-2.8v-1c0-1.3.8-2.4 2-2.8l2.1-.7c.9-.3 1.5-1 1.8-1.8s.6-1.5.9-2.2c.4-.8.4-1.8 0-2.6l-1-2c-.6-1.1-.3-2.5.6-3.4l.7-.7c.9-.9 2.3-1.1 3.4-.6l2 1c.8.4 1.8.4 2.6 0 .7-.4 1.4-.7 2.2-.9.9-.3 1.5-1 1.8-1.8l.7-2.1a3 3 0 0 1 2.8-2h1c1.3 0 2.4.8 2.8 2l.7 2.1c.3.9 1 1.5 1.8 1.8s1.5.6 2.2.9c.8.4 1.8.4 2.6 0l2-1c1.1-.6 2.5-.3 3.4.6l.7.7c.9.9 1.1 2.3.6 3.4l-1 2c-.4.8-.4 1.8 0 2.6.3.7.7 1.4.9 2.2.3.9 1 1.5 1.8 1.8l2.1.7a3 3 0 0 1 2 2.8v1c0 1.3-.8 2.4-2 2.8l-1.9.5a3 3 0 0 0-1.9 1.9"/><path fill="#e5ce46" d="M55.3 31.5v1c0 1.3-.8 2.4-2 2.8l-2.1.7c-.9.3-1.5 1-1.8 1.8s-.6 1.5-.9 2.2c-.4.8-.4 1.8 0 2.6l1 2c.6 1.2.3 2.5-.6 3.4l-.7.7c-.9.9-2.3 1.1-3.4.6l-2-1c-.8-.4-1.8-.4-2.6 0-.7.4-1.4.7-2.2.9-.9.3-1.5 1-1.9 1.8l-.7 2.1a3 3 0 0 1-2.8 2h-1c-1.3 0-2.4-.8-2.8-2l-.8-1.9c-.2-.6-.6-1.1-1.1-1.5h.1c1.3 0 2.4-.8 2.8-2l.7-2.1c.3-.9 1-1.5 1.9-1.8.8-.3 1.5-.6 2.2-.9.8-.4 1.8-.4 2.6 0l2 1c1.2.6 2.5.3 3.4-.6l.7-.7c.9-.9 1.1-2.3.6-3.4l-1-2c-.4-.8-.4-1.8 0-2.6.4-.7.7-1.4.9-2.2.3-.9 1-1.5 1.8-1.8l2.1-.7a3 3 0 0 0 2-2.8V27c.3.5.9.9 1.5 1.1l2.1.7c1.1.3 2 1.4 2 2.7"/><path fill="none" stroke="#000" stroke-linecap="round" stroke-linejoin="round" stroke-miterlimit="10" stroke-width="2" d="M49.3 37.9c-.3.8-.6 1.5-.9 2.2-.4.8-.4 1.8 0 2.6l1 2c.6 1.1.3 2.5-.6 3.4l-.7.7c-.9.9-2.3 1.1-3.4.6l-2-1c-.8-.4-1.8-.4-2.6 0-.7.3-1.4.6-2.2.9-.9.3-1.5 1-1.8 1.8l-.7 2.1a3 3 0 0 1-2.8 2h-1c-1.3 0-2.4-.8-2.8-2l-.8-2c-.3-.9-1-1.5-1.8-1.8s-1.5-.6-2.2-.9c-.8-.4-1.8-.4-2.6 0l-2 1c-1.1.6-2.5.3-3.4-.6l-.7-.7c-.9-.9-1.1-2.3-.6-3.4l1-2c.4-.8.4-1.8 0-2.6-.3-.7-.7-1.4-.9-2.2-.3-.9-1-1.5-1.8-1.8l-2.1-.7a3 3 0 0 1-2-2.8v-1c0-1.3.8-2.4 2-2.8l2.1-.7c.9-.3 1.5-1 1.8-1.8s.6-1.5.9-2.2c.4-.8.4-1.8 0-2.6l-1-2c-.6-1.1-.3-2.5.6-3.4l.7-.7c.9-.9 2.3-1.1 3.4-.6l2 1c.8.4 1.8.4 2.6 0 .7-.4 1.4-.7 2.2-.9.9-.3 1.5-1 1.8-1.8l.7-2.1a3 3 0 0 1 2.8-2h1c1.3 0 2.4.8 2.8 2l.7 2.1c.3.9 1 1.5 1.8 1.8s1.5.6 2.2.9c.8.4 1.8.4 2.6 0l2-1c1.1-.6 2.5-.3 3.4.6l.7.7c.9.9 1.1 2.3.6 3.4l-1 2c-.4.8-.4 1.8 0 2.6.3.7.7 1.4.9 2.2.3.9 1 1.5 1.8 1.8l2.1.7a3 3 0 0 1 2 2.8v1c0 1.3-.8 2.4-2 2.8l-1.9.5a3 3 0 0 0-1.9 1.9M33.7 24.8l-3.4 14.4"/><path fill="none" stroke="#000" stroke-linecap="round" stroke-linejoin="round" stroke-miterlimit="10" stroke-width="2" d="m37.3 36.4 6.9-4.4-6.9-4.4m-10.7 0L19.8 32l6.8 4.4"/><g fill="none" stroke="#000" stroke-linecap="round" stroke-linejoin="round" stroke-miterlimit="10" stroke-width="2"><path d="m57.3 7.1-.4 6.5-6.5-.3"/><path d="M8.1 12.2q2.4-2.85 5.4-5.1a30.93 30.93 0 0 1 43.4 6.6M6.7 56.9l.4-6.5 6.5.3"/><path d="M55.9 51.8q-2.4 2.85-5.4 5.1a30.93 30.93 0 0 1-43.4-6.6"/></g></svg>