<svg xmlns="http://www.w3.org/2000/svg" xml:space="preserve" viewBox="0 0 64 64"><path fill="#f84779" stroke="#000" stroke-linecap="round" stroke-linejoin="round" stroke-miterlimit="10" stroke-width="1.94" d="M23.6 59.4V63H2v-3.6c0-4.3 3.5-7.8 7.8-7.8H16c4.2 0 7.6 3.5 7.6 7.8"/><path fill="#ffc276" stroke="#000" stroke-linecap="round" stroke-linejoin="round" stroke-miterlimit="10" stroke-width="1.94" d="M15.6 49.6v2.8c0 .8-.3 1.5-.8 2s-1.2.8-2 .8a2.8 2.8 0 0 1-2.8-2.8v-2.8z"/><path fill="#ffc276" stroke="#000" stroke-linecap="round" stroke-linejoin="round" stroke-miterlimit="10" stroke-width="1.94" d="M18 43.4v2.9c0 2.8-2.1 5.2-4.9 5.3-3 .1-5.4-2.2-5.4-5.2v-3c0-2.8 2.3-5.2 5.2-5.2v0c2.8.1 5.1 2.4 5.1 5.2"/><path fill="#fff" d="m8.3 44.4.5-2c.1-.4.6-.6 1-.4 1.1.5 3.3 1.3 6.5.7.4-.1.7.2.8.6l.2 1.1c0 .2.2.4.4.4h.1c.2 0 .3-.1.4-.2q.45-.75.6-1.5c.9-2.7-.3-5.8-2.8-7.1q-1.2-.6-2.4-.6c-2 0-3.7 1.1-4.6 1.9-.4.3-.9.7-1.4.9-2 .9-.9 4.5-.2 6.3.1.2.2.3.4.3.3-.1.5-.2.5-.4"/><path fill="none" stroke="#000" stroke-linecap="round" stroke-linejoin="round" stroke-miterlimit="10" stroke-width="1.94" d="m8.3 44.4.5-2c.1-.4.6-.6 1-.4 1.1.5 3.3 1.3 6.5.7.4-.1.7.2.8.6l.2 1.1c0 .2.2.4.4.4h.1c.2 0 .3-.1.4-.2q.45-.75.6-1.5c.9-2.7-.3-5.8-2.8-7.1q-1.2-.6-2.4-.6c-2 0-3.7 1.1-4.6 1.9-.4.3-.9.7-1.4.9-2 .9-.9 4.5-.2 6.3.1.2.2.3.4.3v0c.3-.1.5-.2.5-.4"/><path fill="#f84779" stroke="#000" stroke-linecap="round" stroke-linejoin="round" stroke-miterlimit="10" stroke-width="1.94" d="M18.8 58.1V63h-12v-4.9"/><path fill="#e5e446" stroke="#000" stroke-linecap="round" stroke-linejoin="round" stroke-miterlimit="10" stroke-width="1.94" d="M62 59.4V63H40.4v-3.6c0-4.3 3.5-7.8 7.8-7.8h6.2c4.2 0 7.6 3.5 7.6 7.8"/><path fill="#cc9249" stroke="#000" stroke-linecap="round" stroke-linejoin="round" stroke-miterlimit="10" stroke-width="1.94" d="M54 49.6v2.8c0 .8-.3 1.5-.8 2s-1.2.8-2 .8a2.8 2.8 0 0 1-2.8-2.8v-2.8z"/><path fill="#cc9249" stroke="#000" stroke-linecap="round" stroke-linejoin="round" stroke-miterlimit="10" stroke-width="1.94" d="M56.4 43.4v2.9c0 2.8-2.1 5.2-4.9 5.3-3 .1-5.4-2.2-5.4-5.2v-3c0-2.8 2.3-5.2 5.2-5.2v0c2.7.1 5.1 2.4 5.1 5.2"/><path fill="#212121" d="m46.7 44.4.5-2c.1-.4.6-.6 1-.4 1.1.5 3.3 1.3 6.5.7.4-.1.7.2.8.6l.2 1.1c0 .2.2.4.4.4h.1c.2 0 .3-.1.4-.2q.45-.75.6-1.5c.9-2.7-.3-5.8-2.8-7.1q-1.2-.6-2.4-.6c-2 0-3.7 1.1-4.6 1.9-.4.3-.9.7-1.4.9-2 .9-.9 4.5-.2 6.3.1.2.2.3.4.3.3-.1.5-.2.5-.4"/><path fill="none" stroke="#000" stroke-linecap="round" stroke-linejoin="round" stroke-miterlimit="10" stroke-width="1.94" d="m46.7 44.4.5-2c.1-.4.6-.6 1-.4 1.1.5 3.3 1.3 6.5.7.4-.1.7.2.8.6l.2 1.1c0 .2.2.4.4.4h.1c.2 0 .3-.1.4-.2q.45-.75.6-1.5c.9-2.7-.3-5.8-2.8-7.1q-1.2-.6-2.4-.6c-2 0-3.7 1.1-4.6 1.9-.4.3-.9.7-1.4.9-2 .9-.9 4.5-.2 6.3.1.2.2.3.4.3v0c.3-.1.5-.2.5-.4"/><path fill="#e5e446" stroke="#000" stroke-linecap="round" stroke-linejoin="round" stroke-miterlimit="10" stroke-width="1.94" d="M57.2 58.1V63h-12v-4.9"/><path fill="#45c8f5" stroke="#000" stroke-linecap="round" stroke-linejoin="round" stroke-miterlimit="10" stroke-width="1.94" d="M42.8 25v4.6H21.2V25c0-4.3 3.5-7.8 7.8-7.8h6.2c4.2.1 7.6 3.6 7.6 7.8"/><path fill="#fecb4d" stroke="#000" stroke-linecap="round" stroke-linejoin="round" stroke-miterlimit="10" stroke-width="1.94" d="M34.8 15.3V18c0 .8-.3 1.5-.8 2s-1.2.8-2 .8a2.8 2.8 0 0 1-2.8-2.8v-2.8h5.6z"/><path fill="#fecb4d" stroke="#000" stroke-linecap="round" stroke-linejoin="round" stroke-miterlimit="10" stroke-width="1.94" d="M37.2 9.1V12c0 2.8-2.1 5.2-4.9 5.3-3 .1-5.4-2.2-5.4-5.2v-3c0-2.8 2.3-5.2 5.2-5.2v0c2.7 0 5.1 2.3 5.1 5.2"/><path fill="#8b784a" d="M27.5 10.1 28 8c.1-.4.6-.6 1-.4 1.1.5 3.3 1.3 6.5.7.4-.1.7.2.8.6l.2 1.1c0 .2.2.4.4.4h.1c.2 0 .3-.1.4-.2q.45-.75.6-1.5c.9-2.7-.3-5.8-2.8-7.1Q34 1 32.8 1c-2 0-3.7 1.1-4.6 1.9-.4.3-.9.7-1.4.9-2 .9-.9 4.5-.2 6.3.1.2.2.3.4.3.3 0 .5-.2.5-.3"/><path fill="none" stroke="#000" stroke-linecap="round" stroke-linejoin="round" stroke-miterlimit="10" stroke-width="1.94" d="M27.5 10.1 28 8c.1-.4.6-.6 1-.4 1.1.5 3.3 1.3 6.5.7.4-.1.7.2.8.6l.2 1.1c0 .2.2.4.4.4h.1c.2 0 .3-.1.4-.2q.45-.75.6-1.5c.9-2.7-.3-5.8-2.8-7.1Q34 1 32.8 1c-2 0-3.7 1.1-4.6 1.9-.4.3-.9.7-1.4.9-2 .9-.9 4.5-.2 6.3.1.2.2.3.4.3v0c.3 0 .5-.2.5-.3"/><path fill="#45c8f5" stroke="#000" stroke-linecap="round" stroke-linejoin="round" stroke-miterlimit="10" stroke-width="1.94" d="M38 23.7v5.9H26v-5.9"/><path fill="none" stroke="#000" stroke-linecap="round" stroke-linejoin="round" stroke-miterlimit="10" stroke-width="1.94" d="M12.2 31.4v-4.8c0-1.6 1.3-2.9 2.9-2.9h2.5m34.2 7.7v-4.8c0-1.6-1.3-2.9-2.9-2.9h-2.5M27.8 59.6h8.4"/></svg>