<svg xmlns="http://www.w3.org/2000/svg" xml:space="preserve" viewBox="0 0 64 60"><path fill="#0276ff" d="M14.2 33.9H6.8L8.7 2.7c.1-1 .9-1.7 1.8-1.7s1.7.7 1.8 1.7zm43 0h-7.3l1.9-31.2c0-1 .8-1.7 1.7-1.7s1.7.7 1.8 1.7z"/><path fill="none" stroke="#000" stroke-linecap="round" stroke-linejoin="round" stroke-miterlimit="10" stroke-width="2" d="M7.1 29.9 8.8 2.7c0-1 .8-1.7 1.7-1.7s1.7.7 1.8 1.7L14 29.9m36.1 0 1.7-27.2c0-1 .8-1.7 1.7-1.7s1.7.7 1.8 1.7L57 29.9"/><g class="service-icon__waves"><path d="M32 1.2a22.7 22.7 0 0 0-16.13 6.65 1.2 1.2 0 0 0 0 1.68 1.2 1.2 0 0 0 1.67 0 20.5 20.5 0 0 1 28.92 0 1.2 1.2 0 0 0 1.67 0 1.2 1.2 0 0 0 0-1.68A22.7 22.7 0 0 0 32 1.2"/><path d="M32 7.04A17 17 0 0 0 20.02 12a1.2 1.2 0 0 0 0 1.68 1.2 1.2 0 0 0 1.67 0 14.54 14.54 0 0 1 20.62 0 1.2 1.2 0 0 0 1.67 0 1.2 1.2 0 0 0 0-1.68A17 17 0 0 0 32 7.04"/><path d="M31.94 12.96c-2.82 0-5.65 1.06-7.78 3.2a1.2 1.2 0 0 0 0 1.67 1.2 1.2 0 0 0 1.68 0 8.7 8.7 0 0 1 12.2 0 1.2 1.2 0 0 0 1.67 0 1.2 1.2 0 0 0 0-1.68 11 11 0 0 0-7.77-3.19m.12 5.84c-1.31 0-2.63.5-3.63 1.5a1.2 1.2 0 0 0 0 1.68 1.2 1.2 0 0 0 1.68 0 2.73 2.73 0 0 1 3.9 0 1.2 1.2 0 0 0 1.67 0 1.2 1.2 0 0 0 0-1.68c-1-1-2.3-1.5-3.62-1.5M32 24.1c-1.76 0-3.2 1.45-3.2 3.2s1.44 3.2 3.2 3.2 3.2-1.44 3.2-3.2-1.45-3.2-3.2-3.2"/></g><path fill="#e5e446" d="M63 37.9v11.4c0 2.2-1.8 4-4 4H5c-2.2 0-4-1.8-4-4V37.9c0-2.2 1.8-4 4-4h54c2.2 0 4 1.8 4 4"/><path fill="#c6e546" d="M63 37.9v1.8H22.2A15.37 15.37 0 0 0 6.9 53.3H5c-2.2 0-4-1.8-4-4V37.9c0-2.2 1.8-4 4-4h54c2.2 0 4 1.8 4 4"/><path fill="none" stroke="#000" stroke-linecap="round" stroke-linejoin="round" stroke-miterlimit="10" stroke-width="2" d="M63 37.9v11.4c0 2.2-1.8 4-4 4H5c-2.2 0-4-1.8-4-4V37.9c0-2.2 1.8-4 4-4h54c2.2 0 4 1.8 4 4"/><path fill="#e3ecff" d="M29.7 39.9v7.5a2 2 0 0 1-2 2H7a2 2 0 0 1-2-2v-7.5c0-1.1.9-2 2-2h20.7a2 2 0 0 1 2 2"/><path fill="#c7d9f9" d="M29.7 39.9v2.4H17.8A9 9 0 0 0 9 49.4H7a2 2 0 0 1-2-2V40c0-1.1.9-2 2-2h20.7c1.1-.1 2 .8 2 1.9"/><path fill="none" stroke="#000" stroke-linecap="round" stroke-linejoin="round" stroke-miterlimit="10" stroke-width="2" d="M29.7 39.9v7.5a2 2 0 0 1-2 2H7a2 2 0 0 1-2-2v-7.5c0-1.1.9-2 2-2h20.7a2 2 0 0 1 2 2"/><path fill="#ff5892" d="M14.3 59H8.8c-.6 0-1-.4-1-1v-4.7h7.5V58c0 .6-.5 1-1 1m41 0h-5.5c-.6 0-1-.4-1-1v-4.7h7.5V58c0 .6-.5 1-1 1"/><path fill="none" stroke="#000" stroke-linecap="round" stroke-linejoin="round" stroke-miterlimit="10" stroke-width="2" d="M14.3 59H8.8c-.6 0-1-.4-1-1v-4.7h7.5V58c0 .6-.5 1-1 1m41 0h-5.5c-.6 0-1-.4-1-1v-4.7h7.5V58c0 .6-.5 1-1 1"/><g stroke="#000" stroke-linecap="round" stroke-linejoin="round" stroke-miterlimit="10" stroke-width="2" transform="translate(0 -2)"><circle cx="38.7" cy="45.6" r="2.9" fill="#33afff"/><circle cx="47.4" cy="45.6" r="2.9" fill="#fe5047"/><circle cx="56.1" cy="45.6" r="2.9" fill="#02e291"/></g></svg>