<svg xmlns="http://www.w3.org/2000/svg" xml:space="preserve" viewBox="0 0 64 64"><path fill="#c9d8ef" d="M63 16.7v42.2c0 2.3-1.8 4.1-4.1 4.1H19.8c-2.3 0-4.1-1.8-4.1-4.1V5.1c0-2.3 1.8-4.1 4.1-4.1h27.5z"/><path fill="#b2cbea" d="M63 16.7v42.2c0 2.3-1.8 4.1-4.1 4.1H19.8c-2.2 0-3.9-1.7-4.1-3.8h.4c23.8 0 43.2-19.3 43.2-43.2v-3z"/><path fill="#45c8f5" d="M63 16.7H51.4c-2.3 0-4.1-1.8-4.1-4.1V1z"/><g fill="none" stroke="#000" stroke-linecap="round" stroke-linejoin="round" stroke-miterlimit="10" stroke-width="2"><path d="M24.2 63h34.7c2.3 0 4.1-1.8 4.1-4.1V16.7L47.3 1H19.8c-2.3 0-4.1 1.8-4.1 4.1v17.7"/><path d="M47.3 6.7v5.9c0 2.3 1.8 4.1 4.1 4.1h5.9m-.4 37h-25m25-8.7H34.5m22.4-8.7H34.7m-8.1-8.6h30.3M21.8 19h18.8m-18.8-8.7h18.8"/></g><path fill="#e5e446" stroke="#000" stroke-linecap="round" stroke-linejoin="round" stroke-miterlimit="10" stroke-width="2" d="M17.5 27.5c-.9-.9-2.3-.9-3.2 0v0c-2 2-5.5 4.5-11 4.5C2 32 1 33 1 34.3v7.2c0 1.1.1 2.1.2 3.1 1.1 7.9 6.1 14.8 13.5 17.9.3.1.6.2.9.2h.5c.3 0 .6-.1.9-.2 8.4-3.5 13.7-11.9 13.7-21.1v-7.2c0-1.3-1-2.3-2.3-2.3-5.5.1-9.1-2.4-10.9-4.4"/><path fill="#45c8f5" d="M15.9 58.5C10.2 56 6.2 50.5 5.3 44c-.1-.9-.2-1.7-.2-2.6V36c4-.3 7.7-1.8 10.7-4.4 3 2.5 6.7 4 10.7 4.4v5.4c.1 7.5-4.1 14.2-10.6 17.1"/><path fill="none" stroke="#000" stroke-linecap="round" stroke-linejoin="round" stroke-miterlimit="10" stroke-width="2" d="M15.9 58.5C10.2 56 6.2 50.5 5.3 44c-.1-.9-.2-1.7-.2-2.6V36c4-.3 7.7-1.8 10.7-4.4 3 2.5 6.7 4 10.7 4.4v5.4c.1 7.5-4.1 14.2-10.6 17.1"/><path fill="#c9d8ef" stroke="#000" stroke-linecap="round" stroke-linejoin="round" stroke-miterlimit="10" stroke-width="2" d="m18.1 46.5.6 2.8c.1.6-.3 1.1-.9 1.1h-3.9c-.6 0-1-.5-.9-1.1l.6-2.8c.1-.3 0-.6-.2-.8-.9-.8-1.4-2-1.2-3.3a3.6 3.6 0 0 1 3.1-3.1 3.64 3.64 0 0 1 3 6.3c-.2.2-.3.6-.2.9"/></svg>