<svg xmlns="http://www.w3.org/2000/svg" xml:space="preserve" viewBox="0 0 64 64"><path fill="#27d1ff" d="M53.9 1H5.2C3.4 1 2 2.4 2 4.2V11c0 1.7 1.4 3.2 3.2 3.2h48.7c1.7 0 3.2-1.4 3.2-3.2V4.2c0-1.8-1.4-3.2-3.2-3.2"/><path fill="#02beff" d="M57.1 4.2V11c0 1.8-1.4 3.2-3.2 3.2H5.2c-1.5 0-2.7-1-3-2.3.2.1.5.1.8.1h41.9c5.5 0 10-4.5 10-10 0-.3 0-.6-.1-.8 1.3.3 2.3 1.5 2.3 3"/><path fill="none" stroke="#000" stroke-linecap="round" stroke-linejoin="round" stroke-miterlimit="10" stroke-width="2" d="M53.9 1H5.2C3.4 1 2 2.4 2 4.2V11c0 1.7 1.4 3.2 3.2 3.2h48.7c1.7 0 3.2-1.4 3.2-3.2V4.2c0-1.8-1.4-3.2-3.2-3.2"/><g fill="#e3ecff" stroke="#000" stroke-linecap="round" stroke-linejoin="round" stroke-miterlimit="10" stroke-width="2"><circle cx="22.7" cy="7.6" r="2"/><circle cx="8.3" cy="7.6" r="2"/><circle cx="15.5" cy="7.6" r="2"/><path d="M36 5.6h16.9v3.9H36z"/></g><path fill="none" stroke="#000" stroke-linecap="round" stroke-linejoin="round" stroke-miterlimit="10" stroke-width="2" d="M10.2 19.1v-4.9m38.7 0v4.9m-38.7 18v-4.9m38.7 0v4.9"/><path fill="#38fcfa" d="M53.9 19.1H5.2c-1.7 0-3.2 1.4-3.2 3.2v6.9c0 1.7 1.4 3.2 3.2 3.2h48.7c1.7 0 3.2-1.4 3.2-3.2v-6.9c0-1.8-1.4-3.2-3.2-3.2"/><path fill="#03e6e3" d="M57.1 22.2v6.9c0 1.8-1.4 3.2-3.2 3.2H5.2c-1.5 0-2.7-1-3-2.3h42.7c5.5 0 10-4.5 10-10 0-.3 0-.6-.1-.8 1.3.3 2.3 1.6 2.3 3"/><path fill="none" stroke="#000" stroke-linecap="round" stroke-linejoin="round" stroke-miterlimit="10" stroke-width="2" d="M56.5 30.9c.3-.5.5-1.1.5-1.8v-6.9c0-1.7-1.4-3.1-3.2-3.1H5.2A3.2 3.2 0 0 0 2 22.2v6.9c0 1.7 1.4 3.2 3.2 3.2h27.5"/><g fill="#e3ecff" stroke="#000" stroke-linecap="round" stroke-linejoin="round" stroke-miterlimit="10" stroke-width="2"><circle cx="22.7" cy="25.6" r="2"/><circle cx="8.3" cy="25.6" r="2"/><circle cx="15.5" cy="25.6" r="2"/><path d="M36 23.7h16.9v3.9H36z"/></g><path fill="#edf55b" d="M53.9 37.1H5.2c-1.7 0-3.2 1.4-3.2 3.2v6.9c0 1.7 1.4 3.2 3.2 3.2h48.7c1.7 0 3.2-1.4 3.2-3.2v-6.9c0-1.8-1.4-3.2-3.2-3.2"/><path fill="#e3ecff" d="M38.1 40.2v5.3h17c-2.4-6.2-11.7-6.2-17-5.3"/><path fill="#d9e70d" d="M57.1 40.3v6.9c0 1.8-1.4 3.2-3.2 3.2H5.2c-1.5 0-2.7-1-3-2.3.3.1.6.1.9.1H45c5.5 0 10-4.5 10-10 0-.3 0-.6-.1-.8 1.2.2 2.2 1.4 2.2 2.9"/><path fill="none" stroke="#000" stroke-linecap="round" stroke-linejoin="round" stroke-miterlimit="10" stroke-width="2" d="M26.6 50.3H5.2c-1.7 0-3.2-1.4-3.2-3.2v-6.9C2 38.4 3.4 37 5.2 37h24.6"/><g fill="#e3ecff" stroke="#000" stroke-linecap="round" stroke-linejoin="round" stroke-miterlimit="10" stroke-width="2"><circle cx="22.7" cy="43.7" r="2"/><circle cx="8.3" cy="43.7" r="2"/><circle cx="15.5" cy="43.7" r="2"/></g><path fill="none" stroke="#000" stroke-linecap="round" stroke-linejoin="round" stroke-miterlimit="10" stroke-width="2" d="M47.9 45.7h-3.7"/><path fill="#9982ff" d="m61.2 45-2.8-1c-.4-.1-.6-.4-.7-.8-.2-.6-.4-1.2-.7-1.7-.2-.3-.2-.7 0-1.1l1.3-2.7c.2-.5.1-1-.2-1.4L56.8 35c-.4-.4-.9-.4-1.4-.2l-2.7 1.3c-.3.2-.7.2-1.1 0-.5-.3-1.1-.5-1.7-.7-.4-.1-.7-.4-.8-.7l-1-2.8c-.2-.5-.6-.8-1.1-.8h-1.8c-.5 0-1 .3-1.1.8l-1 2.8c-.1.4-.4.6-.8.7-.6.2-1.2.4-1.7.7-.3.2-.7.2-1 0l-2.7-1.3c-.5-.2-1-.1-1.4.2l-1.3 1.3c-.4.4-.5.9-.2 1.4l1.3 2.7c.2.3.2.7 0 1.1-.3.5-.5 1.1-.7 1.7-.1.4-.4.6-.7.8l-2.8 1c-.5.2-.8.6-.8 1.1V48c0 .5.3 1 .8 1.1l2.8 1c.4.1.6.4.7.8.2.6.4 1.2.7 1.7.2.3.2.7 0 1.1L34 56.4c-.2.5-.1 1 .2 1.4l1.3 1.3c.4.4.9.5 1.4.2l2.7-1.3c.3-.2.7-.1 1 0 .5.3 1.1.5 1.7.7.4.1.7.4.8.7l1 2.9c.2.5.6.8 1.1.8H47c.5 0 1-.3 1.1-.8l1-2.9c.1-.4.4-.6.8-.7.6-.2 1.2-.4 1.7-.7.3-.2.7-.2 1.1 0l2.7 1.3c.5.2 1 .1 1.4-.2l1.3-1.3c.4-.4.5-.9.2-1.4L57 53.7c-.2-.3-.2-.7 0-1.1.3-.5.5-1.1.7-1.7.1-.3.4-.6.7-.8l2.8-1c.5-.2.8-.6.8-1.1v-1.8c0-.5-.3-1-.8-1.2M46 53.4c-3.5 0-6.3-2.8-6.3-6.3s2.8-6.3 6.3-6.3 6.3 2.8 6.3 6.3c0 3.4-2.8 6.3-6.3 6.3"/><path fill="none" stroke="#000" stroke-linecap="round" stroke-linejoin="round" stroke-miterlimit="10" stroke-width="2" d="M57.6 50.9c-.2.6-.4 1.2-.7 1.7-.2.3-.2.7 0 1.1l1.3 2.7c.2.5.1 1-.2 1.4L56.7 59c-.4.4-.9.5-1.4.2l-2.7-1.3c-.3-.2-.7-.1-1 0-.6.3-1.1.5-1.7.7-.4.1-.6.4-.8.7l-1 2.9c-.2.5-.6.8-1.1.8h-1.8c-.5 0-1-.3-1.1-.8l-1-2.9c-.1-.4-.4-.6-.8-.7-.6-.2-1.2-.4-1.7-.7a.9.9 0 0 0-1 0l-2.7 1.3c-.5.2-1 .1-1.4-.2l-1.3-1.3c-.4-.4-.5-.9-.2-1.4l1.3-2.7c.2-.3.1-.7 0-1.1-.3-.5-.5-1.1-.7-1.7-.1-.4-.4-.6-.7-.8l-2.8-1c-.5-.2-.8-.6-.8-1.1v-1.8c0-.5.3-1 .8-1.1l2.8-1c.4-.1.6-.4.7-.8.2-.6.4-1.2.7-1.7.2-.3.2-.7 0-1.1L34 37.7c-.2-.5-.1-1 .2-1.4l1.3-1.3c.4-.4.9-.5 1.4-.2l2.7 1.3c.3.2.7.1 1 0 .6-.3 1.1-.5 1.7-.7.4-.1.6-.4.8-.7l1-2.9c.2-.5.6-.8 1.1-.8H47c.5 0 1 .3 1.1.8l1 2.9c.1.4.4.6.8.7.6.2 1.2.4 1.7.7.3.2.7.2 1 0l2.7-1.3c.5-.2 1-.1 1.4.2l1.3 1.3c.4.4.5.9.2 1.4l-1.3 2.7c-.2.3-.1.7 0 1.1.3.5.5 1.1.7 1.7.1.4.4.6.7.8l2.8 1c.5.2.8.6.8 1.1V48c0 .5-.3 1-.8 1.1l-2.8 1c-.3.1-.6.4-.7.8"/><path fill="none" stroke="#000" stroke-linecap="round" stroke-linejoin="round" stroke-miterlimit="10" stroke-width="2" d="M52.3 47.1c0 3.5-2.8 6.3-6.3 6.3s-6.3-2.8-6.3-6.3 2.8-6.3 6.3-6.3 6.3 2.8 6.3 6.3"/></svg>