<svg xmlns="http://www.w3.org/2000/svg" xml:space="preserve" viewBox="0 0 64 64"><path fill="#c9d8ef" d="m34.8 3 3.2 9.8c.4 1.2 1.5 2 2.8 2H51c2.8 0 4 3.6 1.7 5.2l-8.3 6.1c-1 .7-1.4 2-1 3.2l3.2 9.8c.9 2.7-2.2 4.9-4.5 3.2l-8.3-6.1c-1-.7-2.4-.7-3.4 0L22 42.4c-2.3 1.6-5.3-.6-4.5-3.2l3.2-9.8c.4-1.2 0-2.5-1-3.2L11.3 20c-2.3-1.6-1.1-5.2 1.7-5.2h10.3c1.3 0 2.4-.8 2.8-2L29.2 3c.9-2.7 4.7-2.7 5.6 0"/><path fill="none" stroke="#000" stroke-linecap="round" stroke-linejoin="round" stroke-miterlimit="10" stroke-width="1.93" d="m41.2 41.8.9.6c2.3 1.6 5.3-.6 4.5-3.2l-3.2-9.8c-.4-1.2 0-2.5 1-3.2l8.3-6.1c2.3-1.6 1.1-5.2-1.7-5.2H40.7c-1.3 0-2.4-.8-2.8-2L34.7 3C33.8.3 30.1.3 29.2 3L26 12.8c-.4 1.2-1.5 2-2.8 2H13c-2.8 0-4 3.6-1.7 5.2l8.3 6.1c1 .7 1.4 2 1 3.2l-3.2 9.8c-.9 2.7 2.2 4.9 4.5 3.2l1-.7"/><path fill="#42baeb" d="M15.9 54.9c0 3.3 2.7 6 6 6h20.2c3.3 0 6-2.7 6-6 0-5.2-4.2-9.4-9.4-9.4H25.4c-5.3-.1-9.5 4.2-9.5 9.4"/><path fill="#42baeb" d="M46.5 49.7H32.7c-5.2 0-9.4 4.2-9.4 9.4v1.8H22c-3.3 0-6-2.7-6-6 0-5.2 4.2-9.4 9.4-9.4h13.3c3.2-.1 6.1 1.6 7.8 4.2"/><path fill="none" stroke="#000" stroke-linecap="round" stroke-linejoin="round" stroke-miterlimit="10" stroke-width="1.93" d="M38.1 45.4h.5c5.2 0 9.4 4.2 9.4 9.4v0c0 3.3-2.7 6-6 6H21.9c-3.3 0-6-2.7-6-6v0c0-5.2 4.2-9.4 9.4-9.4z"/><path fill="#fecb4d" stroke="#000" stroke-linecap="round" stroke-linejoin="round" stroke-miterlimit="10" stroke-width="1.93" d="M35.5 43v2.9c0 .9-.4 1.8-1 2.4s-1.5 1-2.4 1c-1.9 0-3.4-1.5-3.4-3.4V43z"/><path fill="#fecb4d" stroke="#000" stroke-linecap="round" stroke-linejoin="round" stroke-miterlimit="10" stroke-width="1.93" d="M38.8 31.3v7.4a6.7 6.7 0 0 1-13.4 0v-7.4z"/><path fill="#f27dad" d="M38.8 36.2s-.2-.2-.5-.6c-.3-.5-.8-1.3-1.2-2.4-.2-.7-1-1-1.6-.7-1.3.5-3.7 1.1-6.4-.1-.7-.3-1.4 0-1.7.7-.4 1.1-1.2 2.6-1.9 3-.1.1-2.3-7.4 1.7-8 0 0 6.3-6.7 11.9 2.1.2.3.3.7.3 1 0 1.4 0 4.1-.6 5"/><path fill="none" stroke="#000" stroke-linecap="round" stroke-linejoin="round" stroke-miterlimit="10" stroke-width="1.93" d="M38.8 36.2s-.2-.2-.5-.6c-.3-.5-.8-1.3-1.2-2.4-.2-.7-1-1-1.6-.7-1.3.5-3.7 1.1-6.4-.1-.7-.3-1.4 0-1.7.7-.4 1.1-1.2 2.6-1.9 3-.1.1-2.3-7.4 1.7-8 0 0 6.3-6.7 11.9 2.1.2.3.3.7.3 1 0 1.4 0 4.1-.6 5"/><path fill="#e4ebf7" stroke="#000" stroke-linecap="round" stroke-linejoin="round" stroke-miterlimit="10" stroke-width="1.93" d="M44.1 51.6 41.6 63h-18l-2.5-11.4c-.3-1.5.8-3 2.4-3h18.1c1.6 0 2.8 1.5 2.5 3"/><path fill="none" stroke="#000" stroke-linecap="round" stroke-linejoin="round" stroke-miterlimit="10" stroke-width="1.93" d="M18 63h29.2"/></svg>