<svg xmlns="http://www.w3.org/2000/svg" xml:space="preserve" id="Layer_1" x="0" y="0" viewBox="0 0 64 64"><style id="style1" type="text/css">.st0{fill:#38FCC4;}
	.st1{fill:#1DE9B6;}
	.st2{fill:none;stroke:#2A3C65;stroke-width:2.0667;stroke-linecap:round;stroke-linejoin:round;stroke-miterlimit:10;}
	.st3{fill:#E3ECFF;}
	.st4{fill:#C7D9F9;}
	.st5{fill:#FFD880;}
	.st6{fill:#FECB4D;}
	.st7{fill:#FF7DAF;}
	.st8{fill:#FFFFFF;stroke:#2A3C65;stroke-width:2.0667;stroke-linecap:round;stroke-linejoin:round;stroke-miterlimit:10;}
	.st9{fill:none;stroke:#2A3C65;stroke-width:2.1673;stroke-linecap:round;stroke-linejoin:round;stroke-miterlimit:10;}
	.st10{fill:#FFFFFF;}
	.st11{fill:#12D69E;}
	.st12{fill:none;stroke:#2A3C65;stroke-width:2.0666;stroke-linecap:round;stroke-linejoin:round;stroke-miterlimit:10;}
	.st13{fill:#B0CDF7;}
	.st14{fill:#CC87FE;}
	.st15{fill:#FFFFFF;stroke:#2A3C65;stroke-width:2.0666;stroke-linecap:round;stroke-linejoin:round;stroke-miterlimit:10;}
	.st16{fill:none;stroke:#2A3C65;stroke-width:2;stroke-linecap:round;stroke-linejoin:round;stroke-miterlimit:10;}
	.st17{opacity:0.5;fill:#E3ECFF;}
	.st18{fill:#FFFFFF;stroke:#2A3C65;stroke-width:2;stroke-linecap:round;stroke-linejoin:round;stroke-miterlimit:10;}
	.st19{fill:none;stroke:#2A3C65;stroke-width:2.0329;stroke-linecap:round;stroke-linejoin:round;stroke-miterlimit:10;}
	.st20{fill:#D5A6FF;}
	.st21{fill:#E3ECFF;stroke:#2A3C65;stroke-width:2.0329;stroke-linecap:round;stroke-linejoin:round;stroke-miterlimit:10;}
	.st22{fill:#27D1FF;stroke:#2A3C65;stroke-width:2.0329;stroke-linecap:round;stroke-linejoin:round;stroke-miterlimit:10;}
	.st23{fill:#FF5892;}
	.st24{fill:#FFFFFF;stroke:#2A3C65;stroke-width:2.0329;stroke-linecap:round;stroke-linejoin:round;stroke-miterlimit:10;}
	.st25{fill:none;stroke:#2A3C65;stroke-width:2.0295;stroke-linecap:round;stroke-linejoin:round;stroke-miterlimit:10;}
	.st26{fill:#27D1FF;}
	.st27{fill:#FFFFFF;stroke:#2A3C65;stroke-width:2.0295;stroke-linecap:round;stroke-linejoin:round;stroke-miterlimit:10;}
	.st28{fill:none;stroke:#2A3C65;stroke-width:1.9375;stroke-linecap:round;stroke-linejoin:round;stroke-miterlimit:10;}
	.st29{fill:#FFFFFF;stroke:#2A3C65;stroke-width:1.9375;stroke-linecap:round;stroke-linejoin:round;stroke-miterlimit:10;}
	.st30{fill:#2A3C65;}
	.st31{fill:none;stroke:#2A3C65;stroke-width:2.0609;stroke-linecap:round;stroke-linejoin:round;stroke-miterlimit:10;}
	.st32{fill:#FFFFFF;stroke:#2A3C65;stroke-width:2.0609;stroke-linecap:round;stroke-linejoin:round;stroke-miterlimit:10;}
	.st33{fill:#02BEFF;}
	.st34{fill:none;stroke:#2A3C65;stroke-width:1.9154;stroke-linecap:round;stroke-linejoin:round;stroke-miterlimit:10;}
	.st35{fill:#FF7DAF;stroke:#2A3C65;stroke-width:1.9154;stroke-linecap:round;stroke-linejoin:round;stroke-miterlimit:10;}
	.st36{fill:#FFD880;stroke:#2A3C65;stroke-width:2.1563;stroke-linecap:round;stroke-linejoin:round;stroke-miterlimit:10;}
	.st37{fill:none;stroke:#2A3C65;stroke-width:2.1563;stroke-linecap:round;stroke-linejoin:round;stroke-miterlimit:10;}
	.st38{fill:none;stroke:#2A3C65;stroke-width:2.1269;stroke-linecap:round;stroke-linejoin:round;stroke-miterlimit:10;}
	.st39{fill:#FFFFFF;stroke:#2A3C65;stroke-width:2.1269;stroke-linecap:round;stroke-linejoin:round;stroke-miterlimit:10;}
	.st40{fill:#FFD880;stroke:#2A3C65;stroke-width:2;stroke-linecap:round;stroke-linejoin:round;stroke-miterlimit:10;}
	.st41{fill:#E3ECFF;stroke:#2A3C65;stroke-width:2;stroke-linecap:round;stroke-linejoin:round;stroke-miterlimit:10;}
	.st42{fill:#E3ECFF;stroke:#2A3C65;stroke-width:2.009;stroke-linecap:round;stroke-linejoin:round;stroke-miterlimit:10;}
	.st43{fill:none;stroke:#2A3C65;stroke-width:2.009;stroke-linecap:round;stroke-linejoin:round;stroke-miterlimit:10;}
	.st44{fill:#FF5892;stroke:#2A3C65;stroke-width:2.009;stroke-linecap:round;stroke-linejoin:round;stroke-miterlimit:10;}
	.st45{fill:#27D1FF;stroke:#2A3C65;stroke-width:2;stroke-linecap:round;stroke-linejoin:round;stroke-miterlimit:10;}
	.st46{fill:#FF7DAF;stroke:#2A3C65;stroke-width:2.0666;stroke-linecap:round;stroke-linejoin:round;stroke-miterlimit:10;}
	.st47{fill:none;stroke:#2A3C65;stroke-width:1.9315;stroke-linecap:round;stroke-linejoin:round;stroke-miterlimit:10;}
	.st48{fill:#F9B826;}
	.st49{fill:#2A3C65;stroke:#2A3C65;stroke-width:2;stroke-linecap:round;stroke-linejoin:round;stroke-miterlimit:10;}
	.st50{fill:none;}
	.st51{fill:none;stroke:#2A3C65;stroke-width:1.9999;stroke-linecap:round;stroke-linejoin:round;stroke-miterlimit:10;}
	.st52{fill:#00ADDB;}
	.st53{fill:none;stroke:#2A3C65;stroke-width:2.0001;stroke-linecap:round;stroke-linejoin:round;stroke-miterlimit:10;}
	.st54{fill:#FF7DAF;stroke:#2A3C65;stroke-width:2.0001;stroke-linecap:round;stroke-linejoin:round;stroke-miterlimit:10;}
	.st55{fill:none;stroke:#2A3C65;stroke-width:2.0334;stroke-linecap:round;stroke-linejoin:round;stroke-miterlimit:10;}
	.st56{fill:#E3ECFF;stroke:#2A3C65;stroke-width:2.0334;stroke-linecap:round;stroke-linejoin:round;stroke-miterlimit:10;}
	.st57{fill:#02BEFF;stroke:#2A3C65;stroke-width:2;stroke-linecap:round;stroke-linejoin:round;stroke-miterlimit:10;}
	.st58{fill:#FECB4D;stroke:#2A3C65;stroke-width:2;stroke-linecap:round;stroke-linejoin:round;stroke-miterlimit:10;}
	.st59{fill:none;stroke:#2A3C65;stroke-width:1.9481;stroke-linecap:round;stroke-linejoin:round;stroke-miterlimit:10;}
	.st60{fill:#38FCC4;stroke:#2A3C65;stroke-width:1.9481;stroke-linecap:round;stroke-linejoin:round;stroke-miterlimit:10;}
	.st61{fill:none;stroke:#2A3C65;stroke-width:1.993;stroke-linecap:round;stroke-linejoin:round;stroke-miterlimit:10;}
	.st62{fill:#27D1FF;stroke:#2A3C65;stroke-width:1.9999;stroke-linecap:round;stroke-linejoin:round;stroke-miterlimit:10;}
	.st63{fill:#E3ECFF;stroke:#2A3C65;stroke-width:1.9999;stroke-linecap:round;stroke-linejoin:round;stroke-miterlimit:10;}
	.st64{fill:#FF7DAF;stroke:#2A3C65;stroke-width:1.9999;stroke-linecap:round;stroke-linejoin:round;stroke-miterlimit:10;}
	.st65{fill:none;stroke:#2A3C65;stroke-width:2.0003;stroke-linecap:round;stroke-linejoin:round;stroke-miterlimit:10;}
	.st66{fill:#FF7DAF;stroke:#2A3C65;stroke-width:2.0003;stroke-linecap:round;stroke-linejoin:round;stroke-miterlimit:10;}
	.st67{fill:#B45FFF;}
	.st68{fill:none;stroke:#2A3C65;stroke-width:1.8975;stroke-linecap:round;stroke-linejoin:round;stroke-miterlimit:10;}
	
		.st69{fill:none;stroke:#2A3C65;stroke-width:1.8975;stroke-linecap:round;stroke-linejoin:round;stroke-miterlimit:10;stroke-dasharray:2.8463;}
	.st70{fill:#27D1FF;stroke:#2A3C65;stroke-width:1.8975;stroke-linecap:round;stroke-linejoin:round;stroke-miterlimit:10;}</style><g id="g11" transform="translate(-.853)"><g id="g10"><path id="path1" d="M18.04 25.8c-.84 0-1.56.62-1.69 1.46l-.41 2.71c-.1.62-.53 1.14-1.12 1.35q-.55.2-1.08.45c-.58.28-1.26.22-1.77-.16L9.82 30a1.7 1.7 0 0 0-2.24.17l-1.28 1.3c-.6.59-.67 1.53-.17 2.2l1.62 2.22c.37.5.43 1.17.16 1.74q-.25.56-.46 1.13A1.7 1.7 0 0 1 6.1 39.9l-2.65.4A1.7 1.7 0 0 0 2 42v1.86c0 .84.62 1.56 1.47 1.68l2.65.4c.62.1 1.14.54 1.35 1.14q.2.58.46 1.13a1.7 1.7 0 0 1-.16 1.74l-1.62 2.22a1.7 1.7 0 0 0 .17 2.2l1.28 1.3c.6.61 1.55.68 2.24.17l2.14-1.6a1.7 1.7 0 0 1 1.77-.16q.53.25 1.08.45c.6.21 1.03.73 1.12 1.35l.4 2.7a1.7 1.7 0 0 0 1.7 1.46h1.79c.84 0 1.56-.62 1.69-1.46l.4-2.7c.1-.62.54-1.13 1.13-1.35q.56-.2 1.08-.45a1.7 1.7 0 0 1 1.77.16l2.14 1.6a1.7 1.7 0 0 0 2.24-.17l1.28-1.3c.6-.58.67-1.52.17-2.2l-1.62-2.22a1.7 1.7 0 0 1-.16-1.74q.25-.55.46-1.13a1.7 1.7 0 0 1 1.35-1.12l2.65-.41a1.7 1.7 0 0 0 1.45-1.69V42a1.7 1.7 0 0 0-1.45-1.69l-2.65-.4a1.7 1.7 0 0 1-1.35-1.13q-.2-.58-.46-1.13a1.7 1.7 0 0 1 .16-1.74l1.62-2.21c.49-.67.42-1.61-.17-2.21l-1.28-1.3a1.7 1.7 0 0 0-2.24-.17l-2.15 1.6c-.51.38-1.19.44-1.77.16q-.52-.26-1.08-.45a1.7 1.7 0 0 1-1.12-1.35l-.41-2.71a1.7 1.7 0 0 0-1.69-1.46zm.9 10.46a6.66 6.66 0 0 1 6.66 6.66 6.66 6.66 0 0 1-6.66 6.66 6.66 6.66 0 0 1-6.66-6.66 6.66 6.66 0 0 1 6.66-6.66" class="st5" style="display:inline;fill:#ffff77;fill-opacity:1"/><path id="path2" d="m18.75 28.38-.3 1.97a4.3 4.3 0 0 1-2.79 3.39q-.44.15-.84.35-.89.42-1.87.43c-.92 0-1.81-.3-2.55-.85l-1.54-1.15-.24.24 1.18 1.62a4.3 4.3 0 0 1 .41 4.36q-.2.44-.37.9a4.3 4.3 0 0 1-3.4 2.8l-1.9.29v.37l1.92.3a4.3 4.3 0 0 1 3.39 2.81q.16.45.37.89a4.3 4.3 0 0 1-.4 4.36l-1.19 1.62.24.24 1.54-1.15a4.2 4.2 0 0 1 4.43-.42 9 9 0 0 0 .85.36 4.3 4.3 0 0 1 2.79 3.39l.3 1.97v.02H19l.3-1.97a4.3 4.3 0 0 1 2.79-3.39q.43-.16.85-.36a4.3 4.3 0 0 1 4.43.42l1.54 1.15.24-.24-1.18-1.62a4.3 4.3 0 0 1-.41-4.36q.2-.44.37-.89a4.3 4.3 0 0 1 3.39-2.81l1.92-.3v-.37l-1.91-.29a4.3 4.3 0 0 1-3.4-2.82 7 7 0 0 0-.35-.89 4.3 4.3 0 0 1 .41-4.36l1.18-1.62-.24-.24-1.54 1.15a4.2 4.2 0 0 1-4.42.42 8 8 0 0 0-.84-.35 4.3 4.3 0 0 1-2.79-3.4l-.3-1.97zm.19 7.88a6.66 6.66 0 0 1 6.66 6.66 6.66 6.66 0 0 1-6.66 6.66 6.66 6.66 0 0 1-6.66-6.66 6.66 6.66 0 0 1 6.66-6.66" class="st6" style="display:inline;fill:#eae93f;fill-opacity:1"/><path id="path3" d="M30.42 47.07q-.2.58-.46 1.13a1.7 1.7 0 0 0 .16 1.74l1.62 2.22c.5.68.43 1.62-.17 2.21l-1.28 1.29a1.7 1.7 0 0 1-2.24.17l-2.14-1.6a1.7 1.7 0 0 0-1.77-.16q-.53.25-1.08.45c-.59.22-1.02.73-1.12 1.35l-.41 2.7a1.7 1.7 0 0 1-1.69 1.46h-1.79a1.7 1.7 0 0 1-1.69-1.46l-.41-2.7a1.7 1.7 0 0 0-1.12-1.35 13 13 0 0 1-1.08-.45 1.7 1.7 0 0 0-1.77.16l-2.14 1.6a1.7 1.7 0 0 1-2.24-.17l-1.28-1.29a1.7 1.7 0 0 1-.17-2.21l1.62-2.22a1.7 1.7 0 0 0 .16-1.74q-.26-.55-.46-1.13a1.7 1.7 0 0 0-1.35-1.13l-2.65-.41A1.7 1.7 0 0 1 2 43.85v-1.86c0-.85.62-1.57 1.45-1.69l2.65-.4a1.7 1.7 0 0 0 1.35-1.13q.2-.57.46-1.13a1.7 1.7 0 0 0-.16-1.74l-1.62-2.21a1.7 1.7 0 0 1 .17-2.21l1.28-1.3a1.7 1.7 0 0 1 2.24-.17l2.15 1.6c.51.38 1.19.44 1.77.16q.52-.25 1.08-.45a1.7 1.7 0 0 0 1.12-1.35l.41-2.71c.13-.84.85-1.46 1.69-1.46h1.79c.85 0 1.57.62 1.69 1.46l.41 2.71c.09.62.52 1.14 1.12 1.35q.56.2 1.08.45c.58.28 1.26.22 1.77-.16l2.15-1.6a1.7 1.7 0 0 1 2.24.17l1.28 1.3c.59.6.66 1.54.17 2.21l-1.62 2.21a1.7 1.7 0 0 0-.16 1.74q.26.55.46 1.13c.21.6.73 1.03 1.35 1.13l2.65.4a1.7 1.7 0 0 1 1.45 1.69v1.86c0 .85-.62 1.56-1.45 1.69l-2.65.41a1.7 1.7 0 0 0-1.35 1.12" class="st31" style="display:inline;stroke:#000000;stroke-opacity:1"/><circle id="circle3" cx="18.94" cy="42.92" r="6.66" class="st32" style="display:inline;fill:none;stroke:#000000;stroke-opacity:1"/><path id="path4" d="M46.19 7.57c-.84 0-1.56.62-1.69 1.46l-.41 2.71c-.1.62-.53 1.14-1.12 1.35q-.55.2-1.08.45c-.58.28-1.26.22-1.77-.16l-2.15-1.6a1.7 1.7 0 0 0-2.24.17l-1.28 1.3a1.7 1.7 0 0 0-.17 2.21l1.62 2.21c.37.5.43 1.17.16 1.74q-.25.56-.46 1.13a1.7 1.7 0 0 1-1.35 1.13l-2.65.4a1.7 1.7 0 0 0-1.45 1.69v1.86c0 .84.61 1.56 1.45 1.7l2.65.4c.62.1 1.14.53 1.35 1.13q.2.58.46 1.13a1.7 1.7 0 0 1-.16 1.74l-1.62 2.22a1.7 1.7 0 0 0 .17 2.21l1.28 1.29c.6.6 1.55.68 2.24.17l2.14-1.6c.5-.38 1.2-.44 1.77-.16q.53.25 1.08.45c.6.21 1.03.73 1.12 1.35l.41 2.7a1.7 1.7 0 0 0 1.69 1.46h1.8c.83 0 1.55-.62 1.68-1.46l.41-2.7c.1-.62.53-1.13 1.12-1.35q.55-.2 1.08-.45a1.7 1.7 0 0 1 1.77.16l2.14 1.6a1.7 1.7 0 0 0 2.24-.17l1.28-1.29c.6-.59.67-1.53.17-2.21l-1.62-2.22a1.7 1.7 0 0 1-.16-1.74q.25-.55.46-1.13c.21-.6.72-1.03 1.35-1.12l2.65-.41A1.7 1.7 0 0 0 64 25.63v-1.86c0-.85-.62-1.57-1.43-1.7l-2.65-.4a1.7 1.7 0 0 1-1.35-1.13q-.2-.59-.46-1.13a1.7 1.7 0 0 1 .16-1.74l1.62-2.2c.5-.68.42-1.62-.17-2.22l-1.28-1.3a1.7 1.7 0 0 0-2.24-.17l-2.15 1.6c-.5.38-1.2.44-1.77.16q-.53-.26-1.08-.45a1.7 1.7 0 0 1-1.12-1.35l-.41-2.71a1.7 1.7 0 0 0-1.69-1.46zm.87 10.1a7 7 0 0 1 7.02 7.02 7 7 0 0 1-7.02 7.02 7 7 0 0 1-7.02-7.02 7 7 0 0 1 7.02-7.02" class="st7" style="display:inline;fill:#fd4c6d;fill-opacity:1"/><path id="path5" d="m46.87 10.17-.3 1.97a4.3 4.3 0 0 1-2.8 3.4q-.42.15-.83.35-.89.43-1.87.43c-.92 0-1.81-.3-2.55-.85l-1.54-1.15-.24.24 1.18 1.62a4.3 4.3 0 0 1 .41 4.36q-.2.43-.36.88a4.3 4.3 0 0 1-3.39 2.81l-1.91.29v.37l1.92.29a4.3 4.3 0 0 1 3.39 2.81q.16.45.37.9a4.3 4.3 0 0 1-.41 4.35l-1.18 1.62.24.24 1.54-1.15a4.2 4.2 0 0 1 4.43-.42q.42.21.85.36a4.3 4.3 0 0 1 2.79 3.39l.3 1.97v.03h.24l.3-1.97a4.3 4.3 0 0 1 2.78-3.39q.43-.16.85-.36a4.3 4.3 0 0 1 4.43.42l1.54 1.15.23-.24-1.18-1.62a4.3 4.3 0 0 1-.41-4.36q.2-.44.37-.89a4.3 4.3 0 0 1 3.39-2.8l1.92-.31v-.37l-1.9-.29a4.3 4.3 0 0 1-3.4-2.82 7 7 0 0 0-.36-.9 4.3 4.3 0 0 1 .4-4.35l1.2-1.62-.25-.24-1.54 1.15c-.74.56-1.62.85-2.55.85q-.98 0-1.87-.43a8 8 0 0 0-.84-.35 4.3 4.3 0 0 1-2.79-3.4l-.3-1.97zm.2 7.5a7 7 0 0 1 7.01 7.02 7 7 0 0 1-7.02 7.02 7 7 0 0 1-7.02-7.02 7 7 0 0 1 7.02-7.02" class="st23" style="display:inline;fill:#be4158;fill-opacity:1"/><path id="path6" d="M58.55 28.85q-.2.58-.46 1.13a1.7 1.7 0 0 0 .16 1.74l1.62 2.22c.5.68.43 1.62-.17 2.21l-1.28 1.29a1.7 1.7 0 0 1-2.24.17l-2.14-1.6a1.7 1.7 0 0 0-1.77-.16q-.53.26-1.08.45c-.59.22-1.02.73-1.12 1.35l-.41 2.7a1.7 1.7 0 0 1-1.69 1.46h-1.79a1.7 1.7 0 0 1-1.69-1.46l-.41-2.7a1.7 1.7 0 0 0-1.12-1.35 13 13 0 0 1-1.08-.45 1.7 1.7 0 0 0-1.77.16l-2.14 1.6a1.7 1.7 0 0 1-2.24-.17l-1.28-1.29a1.7 1.7 0 0 1-.17-2.21l1.62-2.22a1.7 1.7 0 0 0 .16-1.74q-.26-.55-.46-1.13a1.7 1.7 0 0 0-1.35-1.13l-2.65-.41a1.7 1.7 0 0 1-1.45-1.69v-1.86c0-.85.62-1.57 1.45-1.69l2.65-.4a1.7 1.7 0 0 0 1.35-1.13q.2-.57.46-1.13a1.7 1.7 0 0 0-.16-1.74l-1.62-2.21a1.7 1.7 0 0 1 .17-2.21l1.28-1.3a1.7 1.7 0 0 1 2.24-.17l2.15 1.6c.51.38 1.19.44 1.77.16q.53-.25 1.08-.45a1.7 1.7 0 0 0 1.12-1.35l.41-2.71c.13-.84.85-1.46 1.69-1.46h1.79c.85 0 1.57.62 1.69 1.46l.41 2.71c.09.62.52 1.14 1.12 1.35q.55.2 1.08.45c.58.28 1.26.22 1.77-.16l2.15-1.6a1.7 1.7 0 0 1 2.24.17l1.28 1.3c.59.6.66 1.54.17 2.21l-1.62 2.21a1.7 1.7 0 0 0-.16 1.74q.26.55.46 1.13c.21.6.73 1.03 1.35 1.13l2.65.4c.81.13 1.43.85 1.43 1.7v1.86c0 .85-.62 1.56-1.45 1.69l-2.65.41c-.63.09-1.14.52-1.35 1.12" class="st31" style="display:inline;stroke:#000000;stroke-opacity:1"/><circle id="circle6" cx="47.06" cy="24.69" r="7.02" class="st32" style="display:inline;fill:none;stroke:#000000;stroke-opacity:1"/><path id="path7" d="m28.56 14.11-.28.69c-.16.35-.13.76.1 1.07l.99 1.36c.3.42.26.99-.1 1.35l-.78.79c-.37.37-.95.42-1.37.1l-1.31-.98a1 1 0 0 0-1.08-.1q-.33.16-.66.28c-.36.13-.63.45-.68.83l-.25 1.65c-.08.51-.52.89-1.04.89h-1.09c-.52 0-.96-.38-1.04-.89l-.25-1.65c-.06-.38-.32-.7-.68-.83l-.66-.28a1 1 0 0 0-1.08.1l-1.31.98c-.42.31-1 .27-1.37-.1l-.78-.79c-.36-.37-.4-.94-.1-1.35l.99-1.36c.23-.31.26-.72.1-1.07q-.16-.33-.28-.69a1 1 0 0 0-.83-.69l-1.62-.25a1.05 1.05 0 0 1-.89-1.04V11c0-.52.38-.96.89-1.04l1.62-.25c.38-.06.7-.33.83-.69q.13-.36.28-.69c.16-.35.13-.76-.1-1.07L13.7 5.92c-.3-.42-.26-.99.1-1.35l.78-.79c.37-.37.95-.42 1.37-.1l1.31.98c.31.23.73.27 1.08.1q.31-.15.66-.28c.36-.13.63-.45.68-.83l.25-1.66c.08-.51.52-.89 1.04-.89h1.09c.52 0 .96.38 1.04.89l.25 1.66c.06.38.32.7.68.83q.33.12.66.28c.35.17.77.13 1.08-.1l1.31-.98c.42-.31 1-.27 1.37.1l.78.79c.36.37.4.94.1 1.35l-.99 1.36c-.23.31-.26.72-.1 1.07q.16.33.28.69c.13.37.45.63.83.69l1.65.24c.51.08.89.52.89 1.04v1.14c0 .52-.38.96-.89 1.04l-1.62.25a1 1 0 0 0-.82.67" class="st14" style="fill:none"/><path id="path8" d="M20.97 1.1c-.52 0-.96.38-1.04.89l-.25 1.66c-.05.38-.32.7-.68.83q-.34.13-.66.28c-.35.17-.77.13-1.08-.1l-1.31-.98c-.42-.32-1-.27-1.37.1l-.78.79c-.36.36-.4.93-.1 1.35l1.03 1.34c.23.31.26.72.1 1.07q-.16.33-.28.69a1.1 1.1 0 0 1-.83.7l-1.62.24c-.51.08-.89.52-.89 1.04v1.13c0 .52.38.96.89 1.04l1.62.25c.4.06.7.33.83.69q.12.36.28.7c.16.34.13.75-.1 1.06l-.99 1.36c-.3.41-.26.98.1 1.35l.78.79c.37.37.95.41 1.37.1l1.31-.98c.31-.23.73-.27 1.08-.1q.32.16.66.28c.36.13.62.45.68.83l.25 1.65c.08.51.52.89 1.04.89h1.09c.52 0 .96-.38 1.04-.89l.25-1.65c.05-.38.32-.7.68-.83q.33-.12.66-.28c.35-.17.77-.13 1.08.1l1.3.98c.43.32 1.01.27 1.38-.1l.78-.79c.36-.36.4-.93.1-1.35l-.99-1.36a1 1 0 0 1-.1-1.07q.16-.33.28-.7a1 1 0 0 1 .82-.66l1.62-.25c.51-.08.9-.52.9-1.04v-1.14c0-.52-.39-.96-.9-1.04l-1.65-.24c-.38-.06-.7-.32-.83-.7a5 5 0 0 0-.28-.68c-.16-.35-.13-.76.1-1.07l.99-1.36c.3-.41.26-.98-.1-1.35l-.78-.8a1.05 1.05 0 0 0-1.37-.09l-1.31.98c-.31.23-.73.27-1.08.1a6 6 0 0 0-.66-.28 1.1 1.1 0 0 1-.68-.83l-.25-1.66a1.05 1.05 0 0 0-1.04-.89zm.56 7.1a3.37 3.37 0 0 1 3.37 3.37 3.37 3.37 0 0 1-3.37 3.37 3.37 3.37 0 0 1-3.37-3.37 3.37 3.37 0 0 1 3.37-3.37" class="st31" style="fill:#a18ff3;fill-opacity:1;stroke:#000000;stroke-opacity:1"/><path id="path9" d="M43.18 44.1a.94.94 0 0 0-.93.8l-.22 1.5a.9.9 0 0 1-.61.73q-.3.11-.59.25a1 1 0 0 1-.97-.1l-1.18-.87a.94.94 0 0 0-1.23.09l-.7.71a.95.95 0 0 0-.09 1.22l.9 1.22c.2.28.23.65.08.96q-.14.3-.25.62a.9.9 0 0 1-.74.62l-1.45.22a.94.94 0 0 0-.8.93v1.02c0 .46.34.86.8.93l1.46.22c.34.05.62.29.74.62l.26.62c.14.31.11.68-.09.96l-.89 1.22c-.27.38-.23.9.09 1.22l.7.71c.33.33.85.37 1.23.09l1.18-.88a1 1 0 0 1 .97-.09q.29.15.59.25c.32.11.56.4.61.74l.22 1.48c.07.46.46.8.93.8h.98c.47 0 .86-.34.93-.8l.22-1.48a.9.9 0 0 1 .6-.74q.3-.11.6-.25c.3-.15.69-.12.97.09l1.18.88c.37.28.9.24 1.23-.09l.7-.7a.96.96 0 0 0 .09-1.23l-.89-1.22a.9.9 0 0 1-.09-.96q.14-.3.26-.62c.11-.33.4-.57.7-.62l1.46-.22c.46-.07.8-.47.8-.93V53a.94.94 0 0 0-.8-.93l-1.45-.22a1 1 0 0 1-.74-.62l-.25-.62a1 1 0 0 1 .09-.96l.89-1.22a.95.95 0 0 0-.09-1.22l-.7-.71a.94.94 0 0 0-1.23-.09l-1.18.88a1 1 0 0 1-.97.1l-.59-.26a.9.9 0 0 1-.6-.74l-.23-1.49a.94.94 0 0 0-.93-.8zm.49 6.59a2.8 2.8 0 0 1 2.82 2.82 2.8 2.8 0 0 1-2.82 2.82 2.8 2.8 0 0 1-2.82-2.82 2.8 2.8 0 0 1 2.82-2.82" class="st0" style="fill:#91eddd;fill-opacity:1"/><path id="path10" d="M49.98 55.79q-.11.32-.26.62a.9.9 0 0 0 .09.96l.89 1.22c.27.37.23.89-.09 1.22l-.7.71a.94.94 0 0 1-1.23.09l-1.18-.88a1 1 0 0 0-.97-.09q-.29.14-.59.25a.9.9 0 0 0-.61.74l-.22 1.48a.94.94 0 0 1-.93.8h-.98a.94.94 0 0 1-.93-.8l-.22-1.48a.9.9 0 0 0-.61-.74q-.3-.11-.59-.25a1 1 0 0 0-.97.09l-1.18.88a.94.94 0 0 1-1.23-.09l-.7-.71a.95.95 0 0 1-.09-1.22l.89-1.22c.2-.28.23-.65.09-.96l-.26-.62a1 1 0 0 0-.74-.62l-1.46-.22a.94.94 0 0 1-.8-.93V53c0-.46.34-.86.8-.93l1.45-.22a.9.9 0 0 0 .74-.62q.11-.32.25-.62a.9.9 0 0 0-.09-.96l-.89-1.22a.95.95 0 0 1 .09-1.22l.7-.71a.94.94 0 0 1 1.23-.09l1.18.88c.28.21.66.24.97.09q.29-.14.59-.25c.33-.12.56-.4.61-.74l.22-1.49c.07-.46.46-.8.93-.8h.98c.47 0 .86.34.93.8l.22 1.49c.05.34.29.63.61.74q.3.11.59.25c.32.15.69.12.97-.09l1.18-.88a.94.94 0 0 1 1.23.09l.7.71c.32.33.36.84.09 1.22l-.89 1.22a1 1 0 0 0-.09.96q.14.3.25.62c.12.33.4.57.74.62l1.45.22c.46.07.8.47.8.93v1.02c0 .46-.34.86-.8.93l-1.46.22a.9.9 0 0 0-.7.62" class="st31" style="stroke:#000000;stroke-opacity:1"/><circle id="circle14" cx="43.67" cy="53.51" r="2.82" class="st32" style="fill:none;stroke:#000000;stroke-opacity:1"/></g></g></svg>