<svg xmlns="http://www.w3.org/2000/svg" xml:space="preserve" viewBox="0 0 64 64"><path fill="#e4ebf7" d="M18.8 25.7H6.9c-1.4 0-2.6 1.2-2.6 2.6V39c0 1.4 1.2 2.6 2.6 2.6h11.9c1.4 0 2.6-1.2 2.6-2.6V28.3c0-1.4-1.1-2.6-2.6-2.6"/><path fill="none" stroke="#000" stroke-linecap="round" stroke-linejoin="round" stroke-miterlimit="10" stroke-width="2" d="M6.9 41.6c-1.4 0-2.5-1.2-2.5-2.6V28.3c0-1.4 1.2-2.6 2.6-2.6h11.8c1.4 0 2.6 1.2 2.6 2.6V39c0 1.4-1.2 2.6-2.6 2.6z"/><path fill="#f8b824" d="M45.7 34.4c0 1-.9 1.9-1.9 1.9h-2.6c.5 0 1 .2 1.3.6.4.3.6.8.6 1.3 0 1.1-.9 1.9-1.9 1.9h-5.5c.5 0 1 .2 1.3.6.4.4.7 1 .5 1.7-.2.9-1 1.5-1.9 1.5h-6.4c-.9 0-1.7-.3-2.3-.9l-2-2c-.6-.6-1.4-.9-2.3-.9h-1.5q.3-.45.3-1.2V28.3c0-.3-.1-.7-.2-1l4.6-2.1c.4-.2.9-.3 1.4-.3h11.3c.5 0 1 .2 1.3.6.3.3.6.8.6 1.3 0 1.1-.8 1.9-1.9 1.9h2c.5 0 1 .2 1.3.6.4.3.6.8.6 1.3 0 1.1-.9 1.9-1.9 1.9h3.4c.5 0 1 .2 1.3.6.3.3.5.8.5 1.3"/><path fill="none" stroke="#000" stroke-linecap="round" stroke-linejoin="round" stroke-miterlimit="10" stroke-width="2" d="M37.5 42.6c-.2.8-1 1.4-1.9 1.4h-6.3c-.8 0-1.7-.3-2.3-.9l-2-2c-.6-.6-1.4-.9-2.3-.9h-1.5q.3-.45.3-1.2V28.3c0-.3-.1-.7-.2-1l1.8-.8"/><path fill="#45c8f5" d="m39.6 51.4 6 10.3c.7 1.2 2.3 1.7 3.5.9l9.3-5.3c1.2-.7 1.7-2.3.9-3.5l-6-10.3c-.7-1.2-2.3-1.7-3.5-.9l-9.3 5.3c-1.2.7-1.6 2.2-.9 3.5"/><path fill="none" stroke="#000" stroke-linecap="round" stroke-linejoin="round" stroke-miterlimit="10" stroke-width="2" d="M59.3 53.8c.7 1.2.2 2.8-1 3.5L49 62.6c-1.2.7-2.8.3-3.5-.9l-1.3-2.2-2.8-4.9-1.9-3.2c-.7-1.2-.3-2.8 1-3.5l9.3-5.3c1.2-.7 2.8-.3 3.5.9l1.9 3.3z"/><path fill="#fecb4d" d="M33.8 23.8c.9-.5 2.1-.2 2.6.7l1.3 2.3c-.3-.4-.3-1-.2-1.4q.15-.75.9-1.2c.9-.5 2.1-.2 2.6.7l2.7 4.7c-.3-.5-.3-1-.2-1.4.2-.6.6-1.1 1.2-1.3.9-.3 1.8.1 2.3.9l3.2 5.5c.4.7.6 1.6.3 2.4l-.7 2.7c-.2.8-.1 1.7.3 2.4l.8 1.3c-.4 0-.8.1-1.1.3l-9.3 5.3c-.3.2-.5.4-.7.6l-4.1-2.9c-.4-.3-.7-.6-.9-1l-1.7-3-3.9-6.8c-.3-.5-.3-1-.2-1.4s.4-.9.9-1.2c.9-.5 2.1-.2 2.6.7l-1-1.7c-.3-.5-.3-1-.2-1.4q.15-.75.9-1.2c.9-.5 2.1-.2 2.6.7l-1.7-2.9c-.3-.5-.3-1-.2-1.4.1-.3.4-.8.9-1"/><path fill="none" stroke="#000" stroke-linecap="round" stroke-linejoin="round" stroke-miterlimit="10" stroke-width="2" d="m49.9 32.7.3.5c.4.7.5 1.6.3 2.4l-.7 2.7c-.2.8-.1 1.7.3 2.4l.8 1.3c-.4 0-.8.1-1.1.3l-9.3 5.3c-.3.2-.5.4-.7.6l-4.1-2.9c-.4-.3-.7-.6-.9-1l-.8-1.2"/><path fill="#77c9ae" d="m51.5 20.6 6-10.3c.7-1.2.3-2.8-.9-3.5l-9.3-5.3c-1.2-.7-2.8-.3-3.5.9l-6 10.3c-.7 1.2-.3 2.8.9 3.5l9.3 5.3c1.2.7 2.8.3 3.5-.9"/><path fill="none" stroke="#000" stroke-linecap="round" stroke-linejoin="round" stroke-miterlimit="10" stroke-width="2" d="M43.7 2.2c.7-1.2 2.3-1.6 3.5-.8l9.3 5.3c1.2.7 1.7 2.3.9 3.5l-1.3 2.2-2.8 4.9-1.9 3.2a2.6 2.6 0 0 1-3.6.9l-9.3-5.3c-1.2-.7-1.7-2.3-.9-3.5l1.9-3.3z"/><path fill="#ffd880" d="M30.5 39.4c-.9-.5-1.2-1.7-.7-2.6l1.3-2.3c-.3.4-.7.8-1.2.9s-1 .1-1.4-.2c-.9-.5-1.2-1.7-.7-2.6l2.7-4.7q-.45.75-1.2.9c-.6.2-1.2 0-1.7-.4-.7-.6-.8-1.7-.3-2.4l3.2-5.5c.4-.7 1.1-1.3 1.9-1.5l2.7-.8c.8-.2 1.5-.8 1.9-1.5l.8-1.3c.2.3.5.6.9.8l9.3 5.3q.45.3.9.3l-.5 5c0 .5-.2.9-.4 1.3l-1.7 3-3.9 6.8q-.45.75-1.2.9c-.75.15-1 .1-1.4-.2-.9-.5-1.2-1.7-.7-2.6l-1 1.7c-.3.5-.7.8-1.1.9-.5.1-1 .1-1.4-.2-.9-.5-1.2-1.7-.7-2.6l-1.7 2.9q-.45.75-1.2.9c-.75.15-1.1.1-1.5-.2"/><g fill="none" stroke="#000" stroke-linecap="round" stroke-linejoin="round" stroke-miterlimit="10" stroke-width="2"><path d="M30.5 27.9q-.45.75-1.2.9c-.6.2-1.2 0-1.7-.4a2 2 0 0 1-.4-2.4l3.2-5.5c.4-.7 1.1-1.3 1.9-1.5l2.7-.8c.8-.2 1.5-.8 1.9-1.5l.8-1.3c.2.3.5.6.9.8l9.3 5.3q.45.3.9.3l-.5 5c0 .5-.2.9-.4 1.3l-1.7 3"/><path d="m33.1 23.5-5.3 9.1c-.5.9-.2 2.1.7 2.6.5.3 1 .3 1.4.2q.75-.15 1.2-.9l5.3-9.1"/><path d="m36.4 25.4-6.6 11.4c-.5.9-.2 2.1.7 2.6.5.3 1 .3 1.4.2q.75-.15 1.2-.9l6.6-11.4"/><path d="m39.6 27.3-4.9 8.5c-.5.9-.2 2.1.7 2.6.5.3 1 .3 1.4.2.5-.1.9-.4 1.1-.9l4.9-8.5m.1 0L39 36c-.5.9-.2 2.1.7 2.6.5.3 1 .3 1.4.2s.9-.4 1.2-.9l3.9-6.8"/></g></svg>