<svg xmlns="http://www.w3.org/2000/svg" xml:space="preserve" viewBox="0 0 64 64"><path fill="#999bcb" fill-opacity=".7" d="M63 5v54c0 2.2-1.8 4-4 4H5c-2.2 0-4-1.8-4-4V5c0-2.2 1.8-4 4-4h54c2.2 0 4 1.8 4 4"/><path fill="#999bcb" fill-opacity=".7" d="M63 5v54c0 2.2-1.8 4-4 4H5c-1.9 0-3.4-1.3-3.9-3 .3.1.7.1 1 .1H6c29.9 0 54.2-24.3 54.2-54.2V2.1c0-.3 0-.7-.1-1 1.6.5 2.9 2 2.9 3.9"/><path fill="#e5e446" fill-opacity=".9" d="M63 5v10.9H1V5c0-2.2 1.8-4 4-4h54c2.2 0 4 1.8 4 4"/><path fill="none" stroke="#000" stroke-linecap="round" stroke-linejoin="round" stroke-miterlimit="10" stroke-width="2" d="M63 19.9V59c0 2.2-1.8 4-4 4H5c-2.2 0-4-1.8-4-4V19.9"/><g fill="#707172" fill-opacity=".7" stroke="#000" stroke-linecap="round" stroke-linejoin="round" stroke-miterlimit="10" stroke-width="2"><path d="M56.5 7h-25c-.9 0-1.7.8-1.7 1.7s.8 1.7 1.7 1.7h25c.9 0 1.7-.8 1.7-1.7S57.4 7 56.5 7"/><circle cx="7.7" cy="8.5" r="1.9"/><circle cx="14.4" cy="8.5" r="1.9"/><circle cx="21" cy="8.5" r="1.9"/></g><path fill="none" stroke="#000" stroke-linecap="round" stroke-linejoin="round" stroke-miterlimit="10" stroke-width="2" d="M1 15.9h62V5c0-2.2-1.8-4-4-4H5C2.8 1 1 2.8 1 5v6.9z"/><path fill="#408eff" d="M6 20.9h52v8.8H6z"/><path fill="none" stroke="#000" stroke-linecap="round" stroke-linejoin="round" stroke-miterlimit="10" stroke-width="2" d="M6 20.9h52v8.8H6z"/><path fill="#ff7daf" d="M6 34.8h11.6v9.9H6z"/><path fill="#9e8cf1" d="M26.2 34.8h11.6v9.9H26.2z"/><path fill="#be4158" d="M46.4 34.8H58v9.9H46.4z"/><path fill="#86e8d7" stroke="#000" stroke-linecap="round" stroke-linejoin="round" stroke-miterlimit="10" stroke-width="2" d="M6 34.8h11.6v9.9H6z"/><path fill="none" stroke="#000" stroke-linecap="round" stroke-linejoin="round" stroke-miterlimit="10" stroke-width="2" d="M6 49.1h11.6M6 53.6h11.6M8.5 58h6.6m11.1-23.2h11.6v9.9H26.2zm0 14.3h11.6m-11.6 4.5h11.6M28.7 58h6.6m11.1-23.2H58v9.9H46.4zm0 14.3H58m-11.6 4.5H58M48.9 58h6.6"/></svg>