<svg xmlns="http://www.w3.org/2000/svg" id="uuid-822018e6-0dda-4fcd-9022-b844e7fe55f7" data-name="&amp;lt;Layer&amp;gt;" viewBox="0 0 2288.19 1285.5"><defs id="defs1"><clipPath id="uuid-d211de23-eddf-4a5a-af79-5ca33f80f4bf"><path id="path1" d="M137.88 1031.82c0 487.99 542.07 771.08 1223.94 771.08s1245.31-283.09 1245.31-771.08S2312.91 27.1 1372.5 27.1 137.88 543.83 137.88 1031.82" class="uuid-3cdbe97a-2e2b-43d6-99cb-d3b098b2ff46"/></clipPath><style id="style1">.uuid-1d96f3c7-008b-44c1-a889-6980a7b229f9, .uuid-1e36859e-87c5-4603-85b3-138b77905d86, .uuid-f8c1fec8-b047-47d1-9a35-eac2dae4710c, .uuid-dc9d0159-e373-4a2b-8dc0-34ed4e10c0e3, .uuid-3cdbe97a-2e2b-43d6-99cb-d3b098b2ff46, .uuid-044e3d7c-75b1-458c-ae2c-9af3145ec0be, .uuid-23e87f96-ded6-4314-b347-65ca84c2f48d, .uuid-33d6ee49-cb67-49f2-8e9d-5181ed481ae9, .uuid-fc0d5c68-1e33-403d-93f4-14f091b909b6, .uuid-03f515f6-e0a3-4d1d-8fdb-8b08592e10be, .uuid-27eb63a7-9273-46ba-9641-f2caf0577bd3, .uuid-b1433d8a-aa70-459f-b0a0-3e40fb0e2f5d, .uuid-bce151b2-f93a-4517-95d8-9b61d19ebae2, .uuid-2b4150a8-e465-4696-a787-7212b5d7865b, .uuid-08f82326-8c7c-4989-b797-260e45a101a6 {
        stroke-width: 0px;
      }

      .uuid-1d96f3c7-008b-44c1-a889-6980a7b229f9, .uuid-044e3d7c-75b1-458c-ae2c-9af3145ec0be, .uuid-33d6ee49-cb67-49f2-8e9d-5181ed481ae9, .uuid-27eb63a7-9273-46ba-9641-f2caf0577bd3, .uuid-08f82326-8c7c-4989-b797-260e45a101a6 {
        fill-rule: evenodd;
      }

      .uuid-1d96f3c7-008b-44c1-a889-6980a7b229f9, .uuid-bce151b2-f93a-4517-95d8-9b61d19ebae2 {
        fill: #fff;
      }

      .uuid-1e36859e-87c5-4603-85b3-138b77905d86, .uuid-33d6ee49-cb67-49f2-8e9d-5181ed481ae9 {
        fill: #000;
      }

      .uuid-f8c1fec8-b047-47d1-9a35-eac2dae4710c, .uuid-08f82326-8c7c-4989-b797-260e45a101a6 {
        fill: var(--color-character-man-skin, #ffddc0);
      }

      .uuid-dc9d0159-e373-4a2b-8dc0-34ed4e10c0e3 {
        fill: #ffbf68;
      }

      .uuid-3cdbe97a-2e2b-43d6-99cb-d3b098b2ff46 {
        fill: none;
      }

      .uuid-47f96c17-e9a9-442e-abe9-ed9fc539ad15 {
        clip-path: url(#uuid-d211de23-eddf-4a5a-af79-5ca33f80f4bf);
      }

      .uuid-044e3d7c-75b1-458c-ae2c-9af3145ec0be, .uuid-2b4150a8-e465-4696-a787-7212b5d7865b {
        fill: #cba37f;
      }

      .uuid-23e87f96-ded6-4314-b347-65ca84c2f48d {
        fill: #1d1d1b;
      }

      .uuid-fc0d5c68-1e33-403d-93f4-14f091b909b6 {
        fill: #8095b4;
      }

      .uuid-03f515f6-e0a3-4d1d-8fdb-8b08592e10be {
        fill: #ffccc5;
      }

      .uuid-27eb63a7-9273-46ba-9641-f2caf0577bd3 {
        fill: #ad775d;
      }

      .uuid-b1433d8a-aa70-459f-b0a0-3e40fb0e2f5d {
        fill: #d1e0f7;
      }</style></defs><g id="g122" class="uuid-47f96c17-e9a9-442e-abe9-ed9fc539ad15" clip-path="url(#uuid-d211de23-eddf-4a5a-af79-5ca33f80f4bf)" transform="translate(-224.45 -215.79)"><g id="g121"><g id="g60"><path id="path2" d="M2011.98 513.26c8.04 4.37 16.9 6.99 25.25 10.72 9.8 4.38 18.83 10.28 27.83 16.15 17.89 11.68 36.28 23.84 48.13 41.62 13.6 20.4 17.03 46.3 14.02 70.64-.64 5.19-2.28 11.26-7.21 12.99-3.01 1.06-6.31.1-9.35-.87-23.27-7.37-46.91-14.91-67.09-28.62-5.18-3.52-34.74-6.76-43.86-17.19-5.62-6.44-11.83-26.3-11.21-34.83s-1.31-16.34 1.51-24.41a36.5 36.5 0 0 0-13.99 12.19c-11.66-9.08-2.37-30.04-11.84-41.38-2.31-2.77-5.66-4.8-7.01-8.14-1.9-4.68.87-9.93 4.12-13.8 5.15-6.13 15.66-16.05 24.53-14.31 8.98 1.76 17.86 14.71 26.18 19.23z" class="uuid-2b4150a8-e465-4696-a787-7212b5d7865b" style="fill:var(--color-character-woman-hair, #130d0c);fill-opacity:1"/><g id="g18"><g id="g17"><g id="g4"><path id="path3" d="M1535.11 1303.82c46.31 1.19 140.04-7.57 181.09-13.13 40.01-5.42 70.32-9.94 102.52 9.3 7.89 4.71-10.58 19.16 15.73 19.09l-1.26-3.88s45.33-18.22 53.99-23.11c8.48-4.78 37.83-13.84 88.32-11.33 51.1 2.55 120.34 23.31 120.34 23.31l67.8 101.19a8 8 0 0 1-2.3.28c1 .65 1.93 1.31 2.69 2 1.96 1.77 11.48 18.54 12.03 18.55l-259.45-5.44c-11.23-.24-22.5-.47-33.53 1.11-7.78 1.11-15.46 3.13-23.32 4.33-19.9 3.04-39.93.74-59.86.2-35.43-.96-72.3 3.67-106.69-.34-21.63-2.52-55.66-8.41-77.61-9.17-15.77-.55-32.84 1.53-50.13 3.99-5.19-1.55-40.5-111.83-30.38-116.95z" class="uuid-bce151b2-f93a-4517-95d8-9b61d19ebae2"/><path id="path4" d="M1565.49 1420.77c5.22 1.56-6.76.96 0 0" class="uuid-bce151b2-f93a-4517-95d8-9b61d19ebae2"/></g><g id="g16"><path id="path5" d="M1861.27 1408.7c12.37 1.02 21.35 2.58 28.5 14.23l-15.07 8.45-41.9-7.52c3.38-4.94 17-16.11 28.48-15.16z" class="uuid-1e36859e-87c5-4603-85b3-138b77905d86"/><path id="path6" d="M1832.79 1428.07c1.34 0 2.66-.64 3.47-1.83 3.05-4.45 15.52-14.17 24.66-13.35 11.64.96 19.15 2.27 25.26 12.24a4.2 4.2 0 1 0 7.16-4.39c-8.13-13.27-18.73-15.15-31.73-16.22-13.71-1.11-28.66 11.68-32.29 16.98a4.2 4.2 0 0 0 3.46 6.58z" class="uuid-1e36859e-87c5-4603-85b3-138b77905d86"/><path id="path7" d="M1860.72 1402.65s-37.35-34.44-108.51-32.57c-71.76 1.88-120.73 7.32-143.72 13.51-23.62 6.35-47.05 7.95-53.62 5.8l59.13-87.78s82.98-15 133.79-17.52c50.22-2.49 54.72 6.99 63.18 11.71 8.65 4.83 22.22 19.39 22.22 19.39z" class="uuid-bce151b2-f93a-4517-95d8-9b61d19ebae2"/><path id="path8" d="M1868 1413.62a4.2 4.2 0 0 0 3.95-5.66l-34.8-94.22a4.2 4.2 0 0 0-7.89 2.91l34.8 94.22a4.2 4.2 0 0 0 3.94 2.75" class="uuid-1e36859e-87c5-4603-85b3-138b77905d86"/><g id="g12"><path id="path9" d="M1874.75 1445.16c16.81 0 26.84-14.13 30.73-17.9l274.27 5.83c3.44.2 4.2-2.33 2.04-5.32-2.12-2.95-6.42-5.36-9.63-5.43l-269.77-5.59a5.3 5.3 0 0 0-4.44 1.95c-.27.33-7.61 8.92-23.27 8.92s-24.72-8.86-25.08-9.22a5.6 5.6 0 0 0-3.91-1.65l-280.16-4.28c-2.94-.16-7.22 2.11-9.39 4.92-2.2 2.84-1.49 5.24 1.62 5.31l284.71 4.46c4.04 3.54 15.1 18 32.28 18" class="uuid-2b4150a8-e465-4696-a787-7212b5d7865b"/><path id="path10" d="m1840.65 1434.96-283-5.53a7 7 0 0 1-6.13-3.57c-1.42-2.64-1.03-6.09 1.06-9.47 2.6-4.2 8.1-8.48 13.04-8.12l280.2 5.35a9.4 9.4 0 0 1 7.1 3.67c.31.41 7.89 9.9 21.77 9.9s19.52-8.89 19.73-9.2c1.9-2.94 5.1-4.61 8.08-4.36l269.77 6.98c4.65.12 10.31 3.93 13.16 8.87 2.09 3.62 2.34 7.2.69 9.82a6.8 6.8 0 0 1-6.49 3.11l-272.3-7.22a44 44 0 0 1-32.59 14.18c-17.01 0-28.94-9.21-34.11-14.4zm64.95-8.23 272.72 7.23-.16-.3c-1.59-2.75-4.72-4.63-6.1-4.67l-270-6.99c-.07 0-.34.15-.62.59-.36.53-8.93 12.99-26.75 12.99s-27.34-11.78-28.4-13.13c-.21-.27-.48-.43-.67-.44l-280.37-5.36c-.87.06-3.86 1.46-5.53 4.16l-.15.25 282.98 5.52a4.2 4.2 0 0 1 3.02 1.37c3.57 3.91 13.58 13 29.18 13s24.33-8.89 27.5-12.71a4.2 4.2 0 0 1 3.24-1.52h.11z" class="uuid-1e36859e-87c5-4603-85b3-138b77905d86"/><path id="path11" d="M2161.2 1409.76q2.26 0 3.82-.52a4.23 4.23 0 0 0 2.29-6.08l-58.49-101.45a4.2 4.2 0 0 0-2.58-1.97c-.79-.21-79.56-20.65-130.5-23.19-86.18-5.25-142.57 33.54-144.93 35.19a4.2 4.2 0 0 0 4.82 6.88c.55-.39 56.5-38.71 139.64-33.68 46 2.29 115.45 19.52 127.15 22.49l53.85 93.39c-7.44-1.42-19.71-5.15-29.39-8.09a804 804 0 0 0-22.15-6.5c-3.72-1.01-7.73-2.23-12.38-3.64-23.85-7.24-59.9-18.18-120.96-19.79-72.73-1.97-106.71 38.16-108.12 39.86a4.2 4.2 0 1 0 6.47 5.36c.47-.57 33.11-38.59 101.41-36.82 59.93 1.58 95.32 12.32 118.74 19.43 4.51 1.37 8.77 2.66 12.61 3.71a779 779 0 0 1 21.91 6.43c18.09 5.5 29.93 8.97 36.78 8.97z" class="uuid-1e36859e-87c5-4603-85b3-138b77905d86"/><path id="path12" d="M2171.98 1422.97a4.21 4.21 0 0 0 .99-8.29c-.36-.09-36.83-9.03-118.52-33.72-11.8-3.56-116.02-11.78-147.28 2.73-21.78 10.11-32.48 25.18-32.92 25.81a4.2 4.2 0 1 0 6.89 4.82c.1-.14 9.96-13.9 29.58-23.01 27.68-12.85 129.42-5.9 141.31-2.31 81.95 24.77 118.6 33.75 118.96 33.84q.5.12 1 .12z" class="uuid-1e36859e-87c5-4603-85b3-138b77905d86"/></g><g id="g14"><path id="path13" d="M1866.5 1409.56a4.2 4.2 0 0 0 2.75-7.39c-1.81-1.56-45.17-38.22-117.14-36.3-63.98 1.67-119.32 11.03-149.79 19.22-21.18 5.7-37.6 2.62-43.9.95l-17.89-77.45c19.37 1.66 83.1 4.66 154.1-19.06 107.65-15.57 134.69 27.36 134.95 27.79a4.2 4.2 0 0 0 5.75 1.47 4.2 4.2 0 0 0 1.51-5.72c-1.15-1.99-29.53-48.45-143.79-31.81q-.37.06-.73.17c-83.06 27.84-155.91 18.3-156.64 18.2a4.2 4.2 0 0 0-4.66 5.11l19.76 85.57a4.2 4.2 0 0 0 2.79 3.05c5.32 1.74 24.73 6.88 50.93-.17 30-8.07 84.58-17.28 147.82-18.94 68.79-1.74 111.01 33.91 111.43 34.27a4.2 4.2 0 0 0 2.74 1.02z" class="uuid-1e36859e-87c5-4603-85b3-138b77905d86"/><path id="path14" d="M1845.6 1413.12a4.2 4.2 0 0 0 1.72-8.03l-3.55-1.6c-41.77-18.77-87.31-26.52-131.71-22.38-15.16 1.41-28.62 4-42.38 8.14-79.28 23.88-113.06 12.7-113.39 12.58a4.23 4.23 0 0 0-5.36 2.56 4.2 4.2 0 0 0 2.53 5.35c1.44.52 36.19 12.38 118.65-12.45a204 204 0 0 1 40.74-7.83c42.96-3.99 87.04 3.5 127.48 21.68l3.56 1.6a4 4 0 0 0 1.72.37z" class="uuid-1e36859e-87c5-4603-85b3-138b77905d86"/></g><path id="path15" d="M1888.84 1422.97c1.25 0 2.48-.55 3.31-1.61.14-.17 9.25-11.34 30.91-16.54 21.95-5.27 51.43.03 51.72.09a4.2 4.2 0 1 0 1.52-8.26c-1.27-.23-31.49-5.68-55.2 0-24.8 5.95-35.15 18.99-35.58 19.54a4.21 4.21 0 0 0 3.31 6.78z" class="uuid-1e36859e-87c5-4603-85b3-138b77905d86"/><path id="path16" d="M1840.18 1417.68a4.2 4.2 0 0 0 1.09-8.26c-27.88-7.51-60.01-9.98-92.92-7.14a4.2 4.2 0 1 0 .72 8.38c31.95-2.75 63.07-.38 90.01 6.88q.56.15 1.1.15z" class="uuid-1e36859e-87c5-4603-85b3-138b77905d86"/></g></g><path id="path17" d="M2101.76 1415.02a4.2 4.2 0 0 0 .23-8.4c-4.27-.24-12.98-1.32-24.01-2.7-23.47-2.93-58.93-7.35-83.8-7.35a4.2 4.2 0 1 0 0 8.4c24.35 0 59.5 4.39 82.76 7.29 11.18 1.39 20.02 2.5 24.58 2.75z" class="uuid-1e36859e-87c5-4603-85b3-138b77905d86"/></g><g id="g19"><path id="path18" d="M1575.47 844.27c7.51-74.05 22.78-108.22 47.46-136.7s76.26-36.97 76.26-36.97l1.51 4.48c16.27-3.93 38.96-7.71 55.22-11.64.15.89-6.14 1.62-5.96 2.5 4.99 24.83 20.01 47.84 39.52 63.77 10.3 8.41 22.3 14.85 34.36 20.35 12.47 5.68 25.55 10.11 39.05 12.55 27.04 4.88 54.67 1.09 79.04-11.77 5.88-3.1 11.73-6.54 16.69-11.01 4.16-3.75 6.73-8.9 10.62-12.91 11.51-11.84 33.66-56.3 37.19-62.53 5.91-10.42 10.67-21.7 12.64-33.55 18.16 5.92 48.15 14.31 94.41 27.11 39.7 10.98 84.72 19.55 103.7 69.7s45.57 289.95 49.36 333.62c3.8 43.67 7.6 100.62-13.29 127.2-20.88 26.58-52.83 39.98-70.25 44.57-72.7 19.15-164.7 33.27-159.48 25.68l-.94-7.38c3.3-6.23 5.07-13.57 6.03-20.61 2.17-15.86 1.56-32.5-4.83-47.18-6.38-14.68-19.21-27.11-34.92-30.21l11.76-.43c-23.57-6.94-48.37-13.95-72.37-8.65-5.2 1.15-10.71 3.21-13.41 7.79-1.98 3.36-2.07 7.49-1.76 11.38 2.05 25.33 18.87 47.29 38.57 63.37 3.59 2.94 7.53 6.19 8.65 10.58-.86.05-1.73.06-2.59.13-19.26 1.56-38 7.67-57.31 8.35q-3.87.13-7.73 0l.49 1.45s-282.43 20.65-323.4-41.77c-39.87-60.76-11.81-188.72 5.7-361.31z" class="uuid-03f515f6-e0a3-4d1d-8fdb-8b08592e10be" style="fill:var(--color-character-clothing-3, #be4158);fill-opacity:1"/><path id="path19" d="M1951.66 1226.83c-19.69-16.07-36.52-38.03-38.57-63.37-.31-3.89-.22-8.02 1.76-11.38 2.7-4.59 8.21-6.65 13.41-7.79 23.99-5.3 48.8 1.7 72.37 8.65l-11.76.43c15.71 3.1 28.54 15.53 34.92 30.21s7 31.32 4.83 47.18c-.96 7.04-2.73 14.38-6.03 20.61-2.5 4.71-5.87 8.79-10.46 11.59-8.87 5.43-20.19 4.77-30.29 2.25-10.12-2.52-21.44-8.98-21.55-19.41-.03-2.42.59-4.83.28-7.22q-.1-.6-.26-1.16c-1.12-4.39-5.05-7.65-8.65-10.58z" class="uuid-f8c1fec8-b047-47d1-9a35-eac2dae4710c" style="fill:var(--color-character-woman-skin, #ecded3);fill-opacity:1"/></g><g id="g34"><path id="path20" d="M1596.88 398.31c-.21-34.05 6.24-72.51 25.61-92.42 15.04-15.23 22.65-7.71 43.68-19.63 21.02-11.92 38.09-28.32 38.09-28.32s45.21-30.55 96.4-35.82a794 794 0 0 1 28.53-2.58c9.11 3.65 17.77 8.37 26.69 12.58 12.07 5.69 24.71 9.81 37.37 13.97 6.2 2.04 12.47 4 18.39 6.77a91 91 0 0 1 14.49 8.49c13.19 9.44 23.52 21.98 33.85 34.42l15.96 30.32 19.65 47.46s9.81 32.83-2.6 71.76c-7.27 23.47-10.5 18.84-22.16 39.43-7.62 14.46-33.26 33.39-33.26 33.39s-225.97 2.73-243.71 74.58c-7.8 31.92-34.76 26.12-34.76 26.12s11.55-13.75 5.95-26.23c-9.59-20.75-37.97-44.44-41.2-49.07-17.05-27.54-15.25-88.52-15.25-88.52s-11.26-32.53-11.71-56.68z" class="uuid-044e3d7c-75b1-458c-ae2c-9af3145ec0be" style="display:inline;fill:var(--color-character-woman-hair, #130d0c);fill-opacity:1"/><path id="path21" d="M1649.4 395.79c.4-5.39-.94-33.9 8.74-45.75 7.79-9.94 27.16-7.88 32.42-4.42 12.27 8.07 47.79 55.29 47.79 55.29s27.4 29.95 39.5 33.51c16.18 4.99 23.62 8 42.97 6.28s34.98-14.04 34.98-14.04 35.83-17.25 47.3 1.6c8.96 14.06-4.93 49.51-4.93 49.51s7.81 15.81 24.97 36.51c7.04 8.4 10.97 9.1 10.97 9.1s-2.22 8.23 17.29 54.97c-3.27 14.8 51.41 43.21 67.18 51.06l1.1-.04-.12.53c2.06 1.02 3.25 1.59 3.25 1.59l-4.34 2.73c-6.3 23.42-38.44 124.35-125.29 128.59-128.83 6.29-137.25-99.33-137.25-99.33l53.3-23.29c-4.53-8.23-8.04-12.06-8.04-12.06l-15.43-1.36s-20.04 5.66-37.91 10.86c-20.05 5.66-38.36 8.68-52.08-21.06-5.46-11.75-13.84-48.66-27.08-72.44-7.06-12.18-18.26-11.38-18.76-21.13-.95-11.93 14.99-22.79 17.25-33.87 3.92-25.05-18.89-65.8-17.76-93.31z" class="uuid-08f82326-8c7c-4989-b797-260e45a101a6" style="display:inline;fill:var(--color-character-woman-skin, #ecded3);fill-opacity:1"/><path id="path22" d="M1816.91 693.95q.42 0 .85-.09a4.2 4.2 0 0 0 3.27-4.97c-1.3-6.3-2.1-13.18-2.87-19.82-2.27-19.54-4.61-39.74-21.07-41.91-10.12-1.36-19.81 1.03-32.07 4.04-8.03 1.97-17.14 4.21-28.43 5.95-15.94 2.08-23.82-4.06-35.05-27.4-9.31-18.91-14.46-33.13-19.77-48.46a4.22 4.22 0 0 0-7.95 2.75c5.4 15.6 10.65 30.08 20.15 49.39 11.08 23.03 21.36 34.97 43.79 32.04 11.75-1.8 21.05-4.09 29.25-6.11 11.85-2.91 20.4-5.02 28.96-3.87 9.28 1.22 11.5 14.47 13.83 34.55.79 6.83 1.61 13.88 2.99 20.55a4.2 4.2 0 0 0 4.11 3.35z" class="uuid-1e36859e-87c5-4603-85b3-138b77905d86"/><path id="path23" d="M1679.43 571.08q.6 0 1.22-.18a4.2 4.2 0 0 0 2.8-5.24c-.2-.67-5.03-16.45-11.48-24.16-2.34-3.16-5.55-5.83-8.66-8.41-4.36-3.63-8.48-7.05-9.29-10.97l-.07-.29c-1.09-3.85.99-6.1 6.77-11.1 2.64-2.28 5.62-4.86 8.19-8.09l.22-.31c4.22-6.41 7.94-15.32 3.58-32.74-1.02-3.49-2.09-6.93-3.19-10.51-4.58-14.85-9.77-31.69-12.54-50.96-2.33-11.33-2.54-29.93 3.73-48.89a4.2 4.2 0 1 0-7.98-2.64c-6.8 20.53-6.54 40.83-4.03 52.98 2.83 19.67 8.12 36.84 12.79 51.99q1.65 5.3 3.11 10.24c3.95 15.77-.09 22.25-2.39 25.75-2.06 2.55-4.57 4.72-7 6.82-5.6 4.84-11.94 10.32-9.4 19.59 1.46 6.72 7.12 11.42 12.12 15.58 2.88 2.39 5.6 4.65 7.33 7.03l.19.24c4.47 5.27 8.7 17.15 9.95 21.28a4.2 4.2 0 0 0 4.02 2.98z" class="uuid-1e36859e-87c5-4603-85b3-138b77905d86"/><path id="path24" d="M1875.56 497.23q.88 0 1.74-.38c21.61-9.83 32.98-24.55 34.78-44.99 1.12-14.94-5-28.1-15.96-34.4-11.75-6.74-27.05-4.72-41.98 5.57a4.2 4.2 0 1 0 4.76 6.93c12.16-8.38 24.2-10.27 33.03-5.2 8.13 4.67 12.64 14.79 11.77 26.43-1.53 17.33-11.02 29.43-29.89 38.02a4.2 4.2 0 0 0 1.75 8.03z" class="uuid-1e36859e-87c5-4603-85b3-138b77905d86"/><path id="path25" d="M1875.93 462.31a4.2 4.2 0 0 0 4.05-3.11c.04-.15 1.56-5.43 5.61-9.3a4.2 4.2 0 0 0-5.8-6.08c-5.85 5.59-7.84 12.9-7.93 13.21a4.2 4.2 0 0 0 4.06 5.28z" class="uuid-1e36859e-87c5-4603-85b3-138b77905d86"/><path id="path26" d="M1674.72 423.55c.87 0 1.75-.27 2.5-.83 16.08-11.93 31.09-5.7 31.72-5.42a4.2 4.2 0 0 0 3.38-7.7c-.81-.36-19.98-8.57-40.11 6.37a4.21 4.21 0 0 0 2.51 7.58" class="uuid-1e36859e-87c5-4603-85b3-138b77905d86"/><path id="path27" d="M1791.73 630.05c11.93-.95 21.04 13.84 21.04 13.84s15.21-10.72 22.83-25.17c8.77-16.21 10.99-34.85 10.99-34.85s-9.95 14.18-34.46 27.57c-24.66 12.67-75.5 26.96-75.5 26.96s40.27-6.8 55.1-8.35" class="uuid-33d6ee49-cb67-49f2-8e9d-5181ed481ae9"/><g id="g29"><path id="path28" d="M1752.77 544.15s2.27 36.66-21.26 43.79c-23.68 6.41-37.42-27.12-37.42-27.12s15.71-.97 30.52-6.3 28.16-10.36 28.16-10.36z" class="uuid-1d96f3c7-008b-44c1-a889-6980a7b229f9"/><path id="path29" d="M1690.2 562.41a4.2 4.2 0 0 1 3.63-5.78c.15 0 15.32-1.01 29.36-6.06 14.61-5.26 27.97-10.29 28.11-10.34a4.2 4.2 0 0 1 5.67 3.68c.1 1.63 2.17 40.07-24.36 48.11q-3.77 1-7.22.99c-22.37 0-34.63-29.21-35.19-30.57zm35.83-3.94c-9.56 3.44-19.37 5.13-25.5 5.91 4.61 8.34 15.19 23.48 29.76 19.54 14.85-4.5 17.75-23.84 18.24-33.69-5.3 1.97-13.67 5.07-22.5 8.24" class="uuid-1e36859e-87c5-4603-85b3-138b77905d86"/></g><path id="path30" d="M1807.65 446.38c9.55 0 18.82-2.53 27.72-7.64a4.2 4.2 0 1 0-4.18-7.29c-30.27 17.35-64.87.53-102.84-50l-.54-.71c-21.92-28.6-39.23-51.19-57.83-52.36-8.15-.5-15.76 2.96-23.32 10.62a4.2 4.2 0 0 0 5.98 5.9c5.75-5.83 11.3-8.5 16.82-8.14 14.79.93 31.07 22.18 51.69 49.08l.52.68c29.78 39.63 59.03 59.85 86 59.85z" class="uuid-1e36859e-87c5-4603-85b3-138b77905d86"/><path id="path31" d="M1655.2 626.09q1.08 0 2.1-.56c.48-.28 11.86-7.03 13.13-21.28 1.34-14.95-8.88-31.79-30.39-50.06-20.17-17.41-25.85-49.3-27.07-72.98-2.5-48.83 11.75-102.39 26.17-117.67a4.2 4.2 0 0 0-6.11-5.77c-15.61 16.54-31.13 71.48-28.45 123.87 1.3 25.32 7.55 59.56 29.99 78.93 18.99 16.13 28.48 30.92 27.5 42.8-.83 9.9-8.68 14.69-9.01 14.89a4.22 4.22 0 0 0 2.14 7.83" class="uuid-1e36859e-87c5-4603-85b3-138b77905d86"/><path id="path32" d="M1689.53 278.82c1.15 0 2.3-.47 3.13-1.4 24.7-27.53 122.35-74.43 161-43.08a4.2 4.2 0 1 0 5.29-6.53c-42.87-34.77-145.63 13.98-172.56 44a4.22 4.22 0 0 0 3.13 7.01z" class="uuid-1e36859e-87c5-4603-85b3-138b77905d86"/><path id="path33" d="M1600.45 416.16a4.17 4.17 0 0 0 4.16-4.81c-6.41-43.95 5.68-90.53 28.12-108.36 10.65-8.46 22.97-10.04 36.6-4.7a4.2 4.2 0 1 0 3.06-7.82c-16.39-6.42-31.92-4.37-44.9 5.94-24.61 19.54-38.03 69.48-31.21 116.16a4.2 4.2 0 0 0 4.15 3.59z" class="uuid-1e36859e-87c5-4603-85b3-138b77905d86"/><path id="path34" d="M1703.61 478.54c5.81-1.2 9.7-8.06 8.2-15.33s-7.79-12.03-13.6-10.83-9.7 8.06-8.2 15.33c1.65 7.99 7.21 12.91 13.6 10.83" class="uuid-33d6ee49-cb67-49f2-8e9d-5181ed481ae9"/></g><path id="path35" d="M2017.17 1263.08q.54 0 1.09-.14c8.71-2.33 23.66-3.86 42.57-5.79 32.54-3.32 77.11-7.88 123.25-20.03 22.13-5.83 52.8-20.98 72.48-46.04 21.18-26.95 18.42-81.32 14.17-130.16-3.9-44.85-30.24-283.54-49.62-334.74-18.35-48.48-60.52-59.84-97.72-69.87l-8.79-2.39c-78.72-21.78-106.41-33.45-119.72-39.06l-2.37-1c-3.89-2-7.52-3.73-10.72-5.26-22.14-10.55-31.3-14.92-45.96-70.47a4.2 4.2 0 0 0-8.12 2.15c15.65 59.31 26.56 64.51 50.46 75.91a349 349 0 0 1 10.63 5.22l.31.14 2.5 1.05c13.47 5.68 41.5 17.49 120.74 39.41l8.84 2.4c36.98 9.97 75.22 20.27 92.05 64.73 18.99 50.17 45.71 293.44 49.11 332.49 4.11 47.24 6.88 99.7-12.41 124.24-23.75 30.23-60.82 41.21-68.01 43.1-45.5 11.98-89.69 16.5-121.96 19.79-19.29 1.97-34.52 3.53-43.88 6.03a4.21 4.21 0 0 0 1.08 8.26z" class="uuid-23e87f96-ded6-4314-b347-65ca84c2f48d"/><path id="path36" d="M1791.8 1254.91c53.94 0 97.2-3.05 101.67-3.38a4.2 4.2 0 1 0-.62-8.38c-2.8.2-280.43 19.77-319.58-39.88-30.63-46.68-20.04-134.33-5.37-255.64 3.96-32.72 8.05-66.56 11.74-102.94 7.73-76.16 23.5-107.88 46.46-134.37 23.38-26.97 73.26-35.49 73.76-35.57l92.57-18.6a4.2 4.2 0 1 0-1.66-8.24l-92.43 18.57c-2.02.33-53.22 9.04-78.6 38.33-24.03 27.73-40.52 60.65-48.47 139.02-3.68 36.29-7.77 70.09-11.72 102.78-14.88 123.08-25.63 212.01 6.69 261.26 25.74 39.22 139.29 47.03 225.54 47.03z" class="uuid-23e87f96-ded6-4314-b347-65ca84c2f48d"/><path id="path37" d="M1662.41 1092.54h.16a4.2 4.2 0 0 0 4.04-4.36c-.72-19.12-3.61-34.68-7.61-56.21-2-10.79-4.28-23.02-6.64-37.79-5.35-33.36 8.07-108.99 13.8-141.28 2.2-12.4 2.89-16.4 2.85-18a4.2 4.2 0 0 0-8.4.18c-.05 1.34-1.35 8.64-2.72 16.36-6.3 35.48-19.4 109.32-13.83 144.08 2.38 14.87 4.66 27.16 6.68 38 3.93 21.18 6.78 36.49 7.47 55a4.2 4.2 0 0 0 4.2 4.04z" class="uuid-23e87f96-ded6-4314-b347-65ca84c2f48d"/><path id="path38" d="M1834.88 1131.94a4.2 4.2 0 0 0 .08-8.4c-3.2-.21-36.85-6.43-69.39-12.45-58.78-10.87-97.68-17.99-102.62-18.01-22.41 0-56.97 30.22-58.44 31.51a4.2 4.2 0 1 0 5.56 6.31c9.3-8.19 36.89-29.41 52.78-29.41 4.74.04 60.49 10.34 101.2 17.87 48.39 8.94 68.35 12.59 70.84 12.59z" class="uuid-23e87f96-ded6-4314-b347-65ca84c2f48d"/><path id="path39" d="M1882.36 767.26q5.36 0 11.01-.27c100.33-4.9 130.11-135.41 130.4-136.73a4.2 4.2 0 1 0-8.21-1.8c-.28 1.25-28.72 125.55-122.6 130.13-123.08 6-132.52-91.33-132.86-95.47a4.21 4.21 0 0 0-8.38.67c.08 1.07 9.71 103.47 130.63 103.47z" class="uuid-23e87f96-ded6-4314-b347-65ca84c2f48d"/><path id="path40" d="M2100.96 1112.51c0-20.72 4.55-48.67 8.21-71.13 1.76-10.83 3.29-20.19 4.06-27.12 6.48-58.13-.23-88.77-.3-89.08a5 5 0 0 1-.1-.64c-1.73-25.13-2.61-74.42-.35-83.21a4.2 4.2 0 1 1 8.14 2.1c-1.67 6.5-1.34 52.1.58 80.22.79 3.71 6.76 34.42.39 91.54-.8 7.15-2.34 16.6-4.12 27.54-3.61 22.16-8.1 49.74-8.1 69.78a4.2 4.2 0 1 1-8.4 0z" class="uuid-23e87f96-ded6-4314-b347-65ca84c2f48d"/><path id="path41" d="M1995.84 1152.82q.66 0 1.32-.21l108.89-35.97a546 546 0 0 1 51.38-2.27c42.72 0 64.54 16.51 64.76 16.68a4.2 4.2 0 0 0 5.17-6.62c-.96-.75-24.09-18.46-69.93-18.46-30.68 0-52.51 2.34-52.72 2.36q-.43.05-.87.19l-109.32 36.11a4.2 4.2 0 0 0 1.32 8.19" class="uuid-23e87f96-ded6-4314-b347-65ca84c2f48d"/><path id="path42" d="M2120.73 659.54a4.2 4.2 0 0 0 4.13-3.45c2.18-12.02 4.43-24.45 3.63-37.14-1.31-20.62-10.95-41.43-27.13-58.61-13.26-14.08-30.67-25.84-53.21-35.95a497 497 0 0 0-10.03-4.33c-8.9-3.77-18.11-7.67-26.27-12.81-10.93-6.87-20.55-17-20.65-17.1a4.2 4.2 0 0 0-6.11 5.77c.42.45 10.46 11.02 22.29 18.45 8.74 5.49 18.26 9.53 27.47 13.43q4.96 2.08 9.87 4.26c21.51 9.65 38.05 20.79 50.53 34.04 14.84 15.76 23.67 34.71 24.86 53.38.74 11.67-1.42 23.59-3.51 35.11a4.2 4.2 0 0 0 4.14 4.95z" class="uuid-1e36859e-87c5-4603-85b3-138b77905d86"/><path id="path43" d="M1881.13 1073.63c13.29-5.7 57.91 2.85 69.3 7.59s14.24 20.88 14.24 20.88 19.94 9.42 22.78 16.58c2.85 7.15 0 29.94 0 29.94s15.19 6.49 15.19 17.01-6.8 31.4-6.8 31.4 15.83 2.85 13.22 16.14c-2.62 13.29-13.22 29.43-13.22 29.43l-72.94-130.09h-35.5s-41.39 49.4-43.37 52.25-13.21-.95-14.16-16.14 37.97-69.3 51.26-74.99" class="uuid-08f82326-8c7c-4989-b797-260e45a101a6"/><g id="g45"><path id="path44" d="m1794.75 1233.06 5.15-21.21c9.06-10.71 93.65-137.25 149.05-220.81a8.36 8.36 0 1 1 13.95 9.25c-.37.56-37.41 56.43-74.33 111.53-21.69 32.37-63.16 88.05-75.8 106.52l-18.04 14.73z" class="uuid-fc0d5c68-1e33-403d-93f4-14f091b909b6"/><path id="path45" d="M1792.51 1236.62a4.2 4.2 0 0 1-1.84-4.55l5.15-21.21q.23-.97.87-1.72c8.95-10.58 93.87-137.61 148.76-220.42a12.5 12.5 0 0 1 7.98-5.38 12.59 12.59 0 0 1 12.98 19.27c-.32.48-37.66 56.79-74.34 111.55-13.18 19.67-33.86 48.22-50.48 71.16-10.95 15.11-20.4 28.16-25.34 35.39q-.35.5-.81.88l-18.04 14.73a4.2 4.2 0 0 1-4.9.3zm42.28-56.24c16.58-22.88 37.21-51.36 50.3-70.91 36.67-54.74 73.99-111.03 74.31-111.51a4.2 4.2 0 0 0-1.17-5.78c-.93-.61-2.04-.83-3.13-.61a4.2 4.2 0 0 0-2.65 1.78c-42.27 63.76-120.27 180.74-143.51 213.35a4.2 4.2 0 0 1 1.65 3.34 4.24 4.24 0 0 1-6.64 3.44l-.2.25-1.97 8.13 7.87-6.43c5.09-7.42 14.4-20.26 25.13-35.08z" class="uuid-23e87f96-ded6-4314-b347-65ca84c2f48d"/></g><path id="path46" d="M1826.03 1210.32c3.84 8.54 12.22 8.54 18 7.59s14.32-3.8 14.32-3.8l7.66-9.11c-6.32 7.83-10.52 14.78-9.56 18.61 2.85 11.39 15.19 10.44 18.99 7.59s56.33-32.27 56.33-32.27l35.42-7.43 6.2 11.05c-14.07 3.87-31.41 9.47-41.62 15.78-19.31 11.93-43.54 23.12-26.9 32.29 14.74 8.12 53.16-17.56 53.16-17.56h22.72l4.17-9.95 10.93 19.49s10.6-16.14 13.22-29.43-13.22-16.14-13.22-16.14 6.8-20.88 6.8-31.4-15.19-17.01-15.19-17.01 2.85-22.78 0-29.94-22.78-16.58-22.78-16.58-2.85-16.14-14.24-20.88-56.01-13.29-69.3-7.59-52.21 59.81-51.26 74.99c.95 15.19 12.18 18.99 14.16 16.14s43.37-52.25 43.37-52.25h35.5l1.88 3.36c-14.9 2.93-33.7 7.41-37.38 11.87-6.27 7.6-65.2 74.04-61.37 82.58z" class="uuid-08f82326-8c7c-4989-b797-260e45a101a6" style="fill:var(--color-character-woman-skin, #ecded3);fill-opacity:1"/><g id="g50"><path id="path47" d="M1995.83 1246.8a4.2 4.2 0 0 0 3.52-1.9c.45-.69 11.08-16.99 13.83-30.92.91-4.61.12-8.91-2.29-12.44-2.65-3.87-6.66-6.1-9.78-7.32 2.02-6.79 5.74-20.38 5.74-28.6 0-10-9.85-16.69-14.88-19.45.75-7.07 2-22.5-.61-29.05-2.9-7.28-17.21-15.02-23.04-17.92-1.31-5.05-5.52-17.39-16.27-21.87-10.72-4.47-57.19-14.16-72.57-7.58-15.07 6.46-54.87 61.93-53.8 79.12.74 11.81 7.27 18.83 13.42 20.55 3.51.98 6.73.11 8.39-2.28 1.5-2.12 25.4-30.77 41.88-50.44h33.54a4.2 4.2 0 1 0 0-8.4h-35.5c-1.24 0-2.42.55-3.22 1.5-3.98 4.75-37.01 44.19-42.82 51.53a7 7 0 0 1-2.61-1.53c-1.57-1.38-4.27-4.71-4.69-11.45-.85-13.55 37.08-65.88 48.72-70.87 11.57-4.97 55.09 3.05 66.02 7.61 9.09 3.79 11.69 17.6 11.72 17.74a4.2 4.2 0 0 0 2.34 3.06c8.87 4.2 19.3 10.87 20.67 14.33 1.69 4.24.86 18.84-.26 27.86a4.2 4.2 0 0 0 2.52 4.38c3.51 1.52 12.64 6.84 12.64 13.15 0 8.08-4.76 24.47-6.6 30.1a4.2 4.2 0 0 0 3.25 5.44c1.71.32 6.66 1.88 8.87 5.14 1.13 1.67 1.44 3.65.97 6.05-2.43 12.34-12.5 27.78-12.61 27.94a4.2 4.2 0 0 0 3.51 6.51z" class="uuid-23e87f96-ded6-4314-b347-65ca84c2f48d"/><path id="path48" d="M1822.2 1212.04c-2.33-5.18.27-15.28 56.92-81.08 2.44-2.83 4.21-4.89 5.04-5.9 6.76-8.19 46.86-14.86 58.99-16.7a4.2 4.2 0 1 1 1.27 8.3c-23.34 3.56-50.54 9.83-53.78 13.75-.85 1.03-2.66 3.14-5.16 6.03-46.6 54.14-54.86 68.78-55.4 72.62 1.42 2.86 4.42 6.17 13.27 4.71 5.37-.88 13.59-3.61 13.67-3.64a4.2 4.2 0 0 1 5.31 2.66 4.2 4.2 0 0 1-2.66 5.32c-.36.12-8.93 2.97-14.97 3.96q-2.92.47-5.41.47c-10.09 0-14.86-5.48-17.11-10.49z" class="uuid-23e87f96-ded6-4314-b347-65ca84c2f48d"/><path id="path49" d="M1862.53 1236.24c-5.13-1.82-8.74-5.95-10.15-11.61-1.57-6.28 2.56-18.94 48.8-61.53l.84-.77c5.43-5.01 18.74-8.27 36.95-12.34 6.87-1.53 15.4-3.43 17.22-4.52a4.2 4.2 0 0 1 5.76 6.11c-2.23 2.23-7.28 3.51-21.15 6.61-11.51 2.57-28.89 6.44-33.08 10.31l-.84.78c-46.93 43.23-46.54 52.41-46.34 53.31.74 2.97 2.32 4.85 4.81 5.73 3.09 1.1 6.57.27 7.58-.48 3.91-2.93 51.4-29.55 56.8-32.58q.56-.32 1.19-.45l38.6-8.09a4.19 4.19 0 1 1 1.72 8.22l-37.97 7.96c-20.26 11.35-52.72 29.72-55.3 31.66-2.11 1.58-5.56 2.71-9.34 2.71-1.99 0-4.07-.31-6.09-1.03z" class="uuid-23e87f96-ded6-4314-b347-65ca84c2f48d"/><path id="path50" d="M1911.94 1256.34c16.91 0 41.2-15.07 47.35-19.08h21.46a4.2 4.2 0 1 0 0-8.4h-22.72a4 4 0 0 0-2.33.71c-14.04 9.38-39.71 22.38-48.8 17.37-2.32-1.28-3.37-2.46-3.38-3.07-.06-3.85 13.24-11.71 22.05-16.92 2.82-1.67 5.67-3.35 8.41-5.05 18.46-11.4 62.28-20.67 62.72-20.76a4.2 4.2 0 1 0-1.73-8.22c-1.86.39-45.71 9.66-65.42 21.83a441 441 0 0 1-8.27 4.96c-14.12 8.34-26.31 15.55-26.17 24.28.06 4.04 2.66 7.51 7.73 10.3 2.6 1.43 5.7 2.04 9.1 2.04z" class="uuid-23e87f96-ded6-4314-b347-65ca84c2f48d"/></g><path id="path51" d="M2009.35 1265.79c.87 0 1.75-.27 2.5-.83 1.12-.83 27.46-20.93 22.49-64.6-3.63-31.93-27.62-46.23-28.64-46.82a4.2 4.2 0 0 0-4.24 7.26c.87.51 21.39 12.9 24.53 40.51 4.42 38.92-18.92 56.73-19.15 56.91a4.21 4.21 0 0 0 2.51 7.58z" class="uuid-23e87f96-ded6-4314-b347-65ca84c2f48d"/><path id="path52" d="M2262.93 1173.65h245.51a4.2 4.2 0 1 0 0-8.4h-245.51a4.2 4.2 0 1 0 0 8.4" class="uuid-1e36859e-87c5-4603-85b3-138b77905d86"/><g id="g54"><path id="path53" d="M2341.34 1381.63h.2l75.28-3.56a4.22 4.22 0 0 0 3.03-6.9l-83.9-100.24a4.3 4.3 0 0 0-3.31-1.5l-92.76 1.91a4.2 4.2 0 0 0 .08 8.4l90.84-1.87 77.17 92.2-66.82 3.16a4.2 4.2 0 0 0 .2 8.4z" class="uuid-23e87f96-ded6-4314-b347-65ca84c2f48d" style="fill:#000000;fill-opacity:1"/><path id="path54" d="m2244.51 1399.07-71.89-103.29a4.2 4.2 0 0 1 3.36-6.61l96.62-1.99c1.31.03 2.55.56 3.37 1.58l80.05 100.32a4.19 4.19 0 0 1-3.09 6.81l-104.78 4.96h-.2a4.2 4.2 0 0 1-3.45-1.8zm26.19-103.43-86.69 1.79 66.08 94.94 94.25-4.46-73.63-92.27z" class="uuid-23e87f96-ded6-4314-b347-65ca84c2f48d" style="fill:#000000;fill-opacity:1"/></g><path id="path55" d="M1997.59 1266.57c4.28 0 8.43-.29 12.32-.82a4.2 4.2 0 0 0-1.13-8.33c-20.82 2.83-46.6-2.18-57.26-19.75a4.2 4.2 0 1 0-7.19 4.36c11.09 18.28 33.52 24.54 53.26 24.54" class="uuid-23e87f96-ded6-4314-b347-65ca84c2f48d"/><path id="path56" d="M1965.93 568.34q.35 0 .69-.06a4.2 4.2 0 0 0 3.46-4.83c-.88-5.35-.36-9.09.1-12.4.83-5.97 1.61-11.62-6.28-20.28a4.2 4.2 0 0 0-6.21 5.67c5.24 5.75 4.9 8.16 4.17 13.46-.51 3.71-1.15 8.32-.07 14.92a4.2 4.2 0 0 0 4.14 3.52" class="uuid-1e36859e-87c5-4603-85b3-138b77905d86"/><path id="path57" d="M1996.42 616.78q.73 0 1.45-.26a4.2 4.2 0 0 0 2.5-5.39c-4.56-12.44-9.72-26.54-7.51-40.12.27-1.63.63-3.25 1-4.87.83-3.67 1.69-7.46 1.55-11.54a4.2 4.2 0 1 0-8.4.28c.1 3-.61 6.11-1.35 9.41-.4 1.79-.81 3.57-1.1 5.37-2.57 15.75 3.24 31.61 7.91 44.36a4.2 4.2 0 0 0 3.95 2.76" class="uuid-1e36859e-87c5-4603-85b3-138b77905d86"/><path id="path58" d="M1978.51 477.05a35 35 0 0 1 9.61 9.1 6 6 0 0 1 1.33 2.95c.07.94-.26 1.86-.62 2.74-4.11 10.16-11.51 18.59-19.07 26.52-3.66 3.84-7.73 7.8-12.94 8.81-6.9 1.34-14.39-3.81-15.61-10.73l.85 1.54z" class="uuid-fc0d5c68-1e33-403d-93f4-14f091b909b6"/><path id="path59" d="M1954.61 531.58q1.54 0 3.01-.29c6.35-1.24 10.98-5.64 15.18-10.04 7.28-7.64 15.43-16.72 19.92-27.85a10 10 0 0 0 .91-4.63c-.16-2.11-1.16-3.75-2.11-5.08a40 40 0 0 0-10.76-10.2 4.2 4.2 0 1 0-4.52 7.08 31 31 0 0 1 8.45 8.01c.44.61.55.85.58.94-.04-.08-.14.23-.34.72-3.94 9.76-11.47 18.12-18.21 25.2-3.4 3.56-6.77 6.83-10.7 7.59a9 9 0 0 1-6.75-1.61 10 10 0 0 1-3.01-3.23 4 4 0 0 0-.52-2.25l-.85-1.54a4.2 4.2 0 0 0-7.82 2.75c.78 4.4 3.48 8.48 7.43 11.2a18 18 0 0 0 10.11 3.22z" class="uuid-1e36859e-87c5-4603-85b3-138b77905d86"/><path id="path60" d="M1934.31 522.75c3.88 0 7.52-1.31 10.69-3.88 38.09-31.48 58.8-71.79 58.34-113.54-.24-37.43-42.34-143.72-105.01-164.68a4.2 4.2 0 1 0-2.67 7.97c59.24 19.81 99.05 121.06 99.28 156.78.43 39.18-19.2 77.16-55.26 106.96a8.3 8.3 0 0 1-7.19 1.8c-12.44-2.37-27.91-25.52-32.81-34.24a4.2 4.2 0 0 0-7.32 4.12c2 3.56 20.1 34.85 38.57 38.37q1.72.33 3.39.33z" class="uuid-1e36859e-87c5-4603-85b3-138b77905d86"/></g><g id="g120"><path id="path61" d="M547.08 975.32s88.38-243.78 128.77-295.01c32.81-41.62 149.23-32.97 191.77-28.26l36.26-.12-28.21 1.06c4.89.61 7.67 1.02 7.67 1.02l9.99 11.97c42.32 6.85 84.91 10.92 127.51 7.34 23.33-1.96 47.59-6.09 69.57 1.94a78 78 0 0 1 15.37 7.8l6.19-12.75s128.72-23.31 175.33 18.35c46.6 41.66 89.92 283.85 102.35 305.78 9.56 16.88 17.32 46.24 20.39 58.88 2.72 1.84 5.46 3.65 8.16 5.52l-8.11-5.29c.89 3.66 1.37 5.87 1.37 5.87l-1.89-.15a266 266 0 0 1 15.67 26.77 38 38 0 0 1 6.64 4.62 22 22 0 0 1 5.05 6.38c3.5 6.99 7.33 17.08 10.68 28.95a240 240 0 0 1 3.17 12.41c6.55 28.66 9.41 63.88-.29 91.06q-.93 2.62-1.87 5.12l-1.1 2.9-.7 1.83-1.53 3.88-.22.57q-.86 2.14-1.72 4.22c-8.28 20.04-16.71 36.07-26.23 57.48a58 58 0 0 1-30.57 29.91c-3.11 0-27.75 11.39-37.69 11.39s-76.23-4.14-77.78-5.7c-1.55-1.55-11.91-17.04-11.91-17.04s72.49-26.97 75.6-25.95l6.2-99.82c-18.14.78-36.15-.86-53.08-7.18-3.63-1.35-7.28-2.99-9.95-5.79-4.88-5.12-4.05-13.1-6.03-19.9-15.3-52.75-29.57-103.49-46.39-154.55q-.37-.7-.46-1.4l-.84-2.55c-.69-.26-1.55-.05-1.78.86a12 12 0 0 0-.26 3.88c-.26.16-.46.41-.51.78-1 6.64-3.22 12.68-2.57 19.3-.44 3.88-2.18 7.78-2.48 11.67l-4.32-.35c-.42 12.63-.59 25.24-1.59 37.06-.68 8.07-1.36 16.29.38 24.2 3.44 15.7 10.71 38.52 4.14 53.18-6.58 14.69-21.32 8.37-37.39 7.52-129.83-6.88-260.92 21.12-389.44 1.49-4.82-.74-9.77-1.59-13.91-4.18-3.51-2.2-6.17-5.49-8.77-8.72-28.08-34.94-57.09-72.14-63.96-116.43-29.87 3.04-57.29-21.98-65.41-50.88a91 91 0 0 1-2.35-10.95h-86.87z" class="uuid-fc0d5c68-1e33-403d-93f4-14f091b909b6" style="fill:var(--color-character-clothing-4, #fef556);fill-opacity:1"/><path id="path62" d="M1411.44 1063.64q.45 0 .9-.1a4.2 4.2 0 0 0 3.21-5c-.39-1.78-9.67-43.92-22.26-66.15-3.51-6.2-10.62-35.19-18.84-68.76-20.32-82.94-51.03-208.29-84.36-238.08-47.63-42.59-152.08-21.43-156.5-20.51a4.2 4.2 0 0 0 1.71 8.23c1.04-.22 104.72-21.21 149.18 18.55 31.39 28.06 62.95 156.86 81.8 233.82 9.06 36.98 15.61 63.7 19.69 70.91 11.97 21.12 21.27 63.37 21.36 63.8a4.2 4.2 0 0 0 4.1 3.31z" class="uuid-1e36859e-87c5-4603-85b3-138b77905d86"/><path id="path63" d="M1267.32 1155.67q.6 0 1.21-.18a4.2 4.2 0 0 0 2.81-5.23l-45.95-153.07a4.21 4.21 0 0 0-8.05 2.41l45.95 153.08a4.2 4.2 0 0 0 4.02 2.99z" class="uuid-1e36859e-87c5-4603-85b3-138b77905d86"/><path id="path64" d="M702.78 1028.35a4.2 4.2 0 0 0 4.1-3.29l28.84-129.41a4.2 4.2 0 0 0-8.21-1.82l-28.84 129.41a4.2 4.2 0 0 0 4.11 5.11" class="uuid-1e36859e-87c5-4603-85b3-138b77905d86"/><path id="path65" d="M1219.32 1144.86q.22 0 .43-.02a4.2 4.2 0 0 0 3.75-4.61c-1.79-17.51-4.06-24.35-5.72-29.34-2.05-6.19-3.08-9.3-.75-31.54l16.33-155.98a4.2 4.2 0 0 0-3.74-4.62 4.25 4.25 0 0 0-4.62 3.74l-16.33 155.98c-2.42 23.07-1.4 27.42 1.13 35.06 1.53 4.63 3.63 10.96 5.33 27.56a4.2 4.2 0 0 0 4.18 3.77z" class="uuid-1e36859e-87c5-4603-85b3-138b77905d86"/><path id="path66" d="M900.57 1367.84c-3.09-9.23-102.13-163.74-119.15-188.06S668.46 969.79 668.46 969.79l-368.3 16.77 91.82 171.11 111.29 192.51z" class="uuid-bce151b2-f93a-4517-95d8-9b61d19ebae2"/><g id="g89" style="display:inline"><path id="path67" d="M906.49 332.18c-2.63 7.63 6.16 21.76 6.16 21.76s-6.28 15.76-7.28 38.47c-.99 22.71 4.07 52.62 4.07 52.62l61.68 34.05 238.5 13.87s44.9-23.8 44.56-40.14c.29-3.31 7.41-26.47-.59-42.88-6.5-13.34 14.49-19.76-.46-30.89-15.21-10.36-18.61-27.75-28.64-45.72-14.79-26.44-50.45-34.45-50.45-34.45s-71-46.65-140.96-44.29c-24.26 1.03-46.01 7.2-66.06 20.78-13.36 9.05-25.78 25.26-35.09 37.42-6.73 9.63-22.57 11-25.46 19.4z" class="uuid-27eb63a7-9273-46ba-9641-f2caf0577bd3" style="display:inline;fill:var(--color-character-man-hair, #393127);fill-opacity:1"/><path id="path68" d="M1164.43 596.89c-5.02 17.05-12.09 35.1-29.9 54.58-13.94 15.68-6.93 10.59-22.58 18.85-2.79 1.27-3.77 5.11-3.39 10.77q-1.35 1.26-2.5 2.67a408 408 0 0 0-11.16 14.43 73 73 0 0 0-5.52 8.63c-3.88 2.66-7.04 6.12-9.96 9.81-4.81 4.94-9.43 10.06-14.38 14.85-7.2 6.97-15.01 12.61-24.38 16.3a158 158 0 0 1-29.65 8.31c-9.68 1.76-13.89.12-23.74-.63-18.48-1.41-41.38-10.18-56.73-20.15-15.3-9.93-29.47-18.32-42.38-31.16-9.91-9.86-19.1-38.79-25.87-50.98 11.26-4.07 20.58 9.26 25.94 3.42 8.85-20.74 27.1-136.97 27.1-136.97s-17.45-16.25-19.56-34.91c-1.4-13.29 9.99-29 14.91-35.84 11.39-15.71 50.47 7.14 50.47 7.14s26.44 9.96 47.46.99c9.73-3.48 18.73-9.77 18.73-9.77s21.18.47 35.57-9.09c17.73-11.82 42.27-40.92 57.37-45.11 12.02-2.69 13.6-7.27 27.1-4.32 26.73 6.65 55.12 25.82 61.55 46.82 7.9 26.62-4.4 57.38-4.4 57.38L1175 561.27s-6.6 21.63-10.57 35.63z" class="uuid-08f82326-8c7c-4989-b797-260e45a101a6"/><path id="path69" d="M1050.29 702.66q2.47 0 4.81-.37c17.49-2.79 38.9-16.06 47.3-21.63 28.81-19.92 49.68-42.57 57.32-62.16a381 381 0 0 0 12.6-36.05 270 270 0 0 1 7.12-21.18c3.33-8.22 7.31-15.85 11.53-23.92 2.82-5.39 5.74-10.97 8.42-16.72l.43-1c14.46-33.24 18.92-62.64 13.26-87.41a4.36 4.36 0 0 0-4.4-3.44 4.2 4.2 0 0 0-3.84 5.14c5.31 23.02 1.03 50.73-12.73 82.36l-.39.9c-2.55 5.47-5.43 10.96-8.21 16.27-4.13 7.89-8.4 16.06-11.9 24.71-3.23 8.27-5.23 14.86-7.35 21.84a375 375 0 0 1-12.37 35.39c-7.07 18.12-26.83 39.36-54.23 58.31-16.71 11.1-32.74 18.51-43.91 20.29-22.06 3.57-60.65-28.07-87.17-58.97-17.14-19.82-21.13-31.37-26.54-50.3a4.2 4.2 0 0 0-5.02-2.93l-.17.04a4.2 4.2 0 0 0-2.89 5.21c5.58 19.52 10 32.36 28.25 53.47 25.27 29.43 63.1 62.15 90.06 62.16z" class="uuid-1e36859e-87c5-4603-85b3-138b77905d86"/><path id="path70" d="M926.25 529.29a4.21 4.21 0 0 0 2.22-7.78c-19.28-11.96-27.9-26.44-27.13-45.56.72-13.53 8.25-25.07 18.72-28.65 10.26-3.5 21.44.99 31.52 12.66a4.2 4.2 0 1 0 6.35-5.5c-12.28-14.23-27.08-19.74-40.6-15.12-13.68 4.68-23.48 19.23-24.39 36.21-.9 22.21 9.28 39.56 31.09 53.09.69.43 1.46.63 2.21.63z" class="uuid-1e36859e-87c5-4603-85b3-138b77905d86"/><path id="path71" d="M930.71 491.55q.28 0 .57-.04a4.2 4.2 0 0 0 3.6-4.71c-.05-.34-1.17-8.41-6.64-15.17a4.2 4.2 0 0 0-6.53 5.29c3.94 4.87 4.83 10.94 4.84 11 .3 2.1 2.1 3.62 4.16 3.62z" class="uuid-1e36859e-87c5-4603-85b3-138b77905d86"/><path id="path72" d="M1032.72 694.21c-22.92-12.41-51.16-35.75-55.45-39.72-22-20.38-40.46-63.45-40.46-63.45s8.04 63.38 29.97 91.42c10.01 12.43 25.44 24.39 40.84 29.39 18.84 6.11 41.65 5.44 53.87-12.97-4.01 6.04-15.5 2.52-28.78-4.67z" class="uuid-33d6ee49-cb67-49f2-8e9d-5181ed481ae9"/><path id="path73" d="M883.7 672.47c1.59 0 3.12-.91 3.82-2.46 17.34-37.95 25.92-128.02 26.27-131.83a4.2 4.2 0 0 0-8.36-.79c-.09.92-8.8 92.46-25.55 129.13a4.2 4.2 0 0 0 3.82 5.95" class="uuid-1e36859e-87c5-4603-85b3-138b77905d86"/><path id="path74" d="M1106.08 592.09a4 4 0 0 0 2.04-.53c19.52-10.87 17.04-19.12 11.76-28.77-2.29-4.19-4.45-8.14-3.88-13.44 1.62-12.92 9.01-26.2 21.38-38.32a4.2 4.2 0 1 0-5.88-6c-13.74 13.46-21.98 28.45-23.84 43.35-.87 7.99 2.3 13.79 4.85 18.45 3.87 7.07 5.31 9.71-8.48 17.39a4.2 4.2 0 0 0 2.04 7.88z" class="uuid-1e36859e-87c5-4603-85b3-138b77905d86"/><path id="path75" d="M1111.95 463.51a4.21 4.21 0 0 0 2.71-7.42c-23.79-19.91-48.76-15.35-49.81-15.15a4.2 4.2 0 0 0 1.59 8.26c.96-.18 22.25-3.88 42.82 13.34.79.66 1.74.98 2.69.98z" class="uuid-1e36859e-87c5-4603-85b3-138b77905d86"/><path id="path76" d="M1202.98 499.12a4.2 4.2 0 0 0 3.43-6.61c-.48-.67-11.99-16.6-36.07-14.6a4.2 4.2 0 1 0 .7 8.38c19.1-1.58 28.14 10.56 28.52 11.08a4.2 4.2 0 0 0 3.43 1.75z" class="uuid-1e36859e-87c5-4603-85b3-138b77905d86"/><path id="path77" d="M1166.26 542.04c3.39-7.37 1.18-15.81-4.16-17.65-5.08-2.6-12.52 1.66-15.91 9.03s-1.18 15.81 4.16 17.65c5.84 2.87 13.29-1.4 15.91-9.03" class="uuid-33d6ee49-cb67-49f2-8e9d-5181ed481ae9"/><path id="path78" d="M1081.06 511.83c2.63-7.63.42-16.08-5.69-18.18-6.1-2.1-13.55 2.16-16.18 9.79s-.42 16.08 5.69 18.18c6.1 2.1 13.55-2.16 16.18-9.79" class="uuid-33d6ee49-cb67-49f2-8e9d-5181ed481ae9"/><path id="path79" d="M908.67 448.97a4.22 4.22 0 0 0 4.06-5.3c-.14-.51-13.62-51.76 4.77-91a4.2 4.2 0 1 0-7.61-3.57c-19.73 42.07-5.88 94.54-5.28 96.76a4.2 4.2 0 0 0 4.05 3.1z" class="uuid-1e36859e-87c5-4603-85b3-138b77905d86"/><path id="path80" d="M904.57 332.94c17.62 0 26.63-12.17 36.96-26.11 9.81-13.25 20.93-28.27 42.6-37.67 42.31-18.85 123.32-10.59 157.58 25.91a4.2 4.2 0 0 0 6.13-5.75c-36.47-38.85-122.37-47.79-167.09-27.86-23.7 10.28-36.05 26.96-45.97 40.36-10.35 13.98-17.82 24.08-33.45 22.54a4.2 4.2 0 1 0-.82 8.36q2.1.21 4.07.21z" class="uuid-1e36859e-87c5-4603-85b3-138b77905d86"/><path id="path81" d="M1262.03 387.17a4.2 4.2 0 0 0 1.37-8.17c-19.15-6.6-21.63-11.99-32.09-34.67l-.81-1.76c-10.85-23.51-24.29-39.84-57.68-48.54a4.2 4.2 0 0 0-2.11 8.14c30.32 7.91 42.09 22.09 52.16 43.93l.81 1.76c10.81 23.44 14.45 31.33 36.99 39.09q.68.24 1.37.23z" class="uuid-1e36859e-87c5-4603-85b3-138b77905d86"/><path id="path82" d="M1207.82 499.95c.86 0 1.73-.26 2.48-.82 3.74-2.74 7.67-5.44 11.48-8.05 28.17-19.31 57.3-39.27 28.17-91.69a4.2 4.2 0 1 0-7.34 4.08c25.41 45.73 1.79 61.92-25.58 80.67-3.86 2.65-7.85 5.38-11.7 8.21a4.2 4.2 0 0 0 2.49 7.58z" class="uuid-1e36859e-87c5-4603-85b3-138b77905d86"/><path id="path83" d="M1035.46 452.89c13.4 0 26.28-5.57 38.05-16.73 24.71-23.83 50.53-46.94 71.13-45.13 7.42.65 13.68 4.6 19.13 12.09a4.2 4.2 0 0 0 6.79-4.95c-6.87-9.44-15.35-14.65-25.2-15.51-24.11-2.1-51.58 22.28-77.66 47.43-21.8 20.66-46.15 19.33-72.35-3.96a4.2 4.2 0 0 0-5.58 6.28c15.35 13.64 30.84 20.48 45.7 20.48z" class="uuid-1e36859e-87c5-4603-85b3-138b77905d86"/><path id="path84" d="M1196.84 422.76a4.2 4.2 0 0 0 3.34-1.65c3.79-4.95 9.18-8.1 14.41-8.42q7.6-.45 14.24 6.35a4.2 4.2 0 0 0 6-5.88c-7.73-7.89-15.56-9.19-20.76-8.85-7.74.47-15.24 4.73-20.57 11.7a4.2 4.2 0 0 0 3.33 6.76z" class="uuid-1e36859e-87c5-4603-85b3-138b77905d86"/><path id="path85" d="M991.19 465.53c9.76 0 16.36-3.94 16.8-4.21a4.2 4.2 0 0 0-4.4-7.17c-.52.31-13.3 7.71-28.99-2.1a4.2 4.2 0 1 0-4.45 7.13c7.74 4.84 14.99 6.35 21.04 6.35" class="uuid-1e36859e-87c5-4603-85b3-138b77905d86"/><path id="path86" d="M1178.46 372.03h.25a4.2 4.2 0 0 0 3.95-4.44c-.07-1.28-2.03-31.58-17.16-44.23a4.2 4.2 0 1 0-5.39 6.45c12.35 10.31 14.15 38 14.17 38.27a4.2 4.2 0 0 0 4.19 3.95z" class="uuid-1e36859e-87c5-4603-85b3-138b77905d86"/><g id="g88"><path id="path87" d="M1080.85 609.07c-18.05-7.07-36.31-18.49-36.31-18.49s-6.01 39.76 20.4 52.27c29.47 13.57 53.33-23.46 53.33-23.46s-19.36-3.26-37.42-10.33z" class="uuid-1d96f3c7-008b-44c1-a889-6980a7b229f9"/><path id="path88" d="M1063.14 646.66c-28.91-13.69-23.02-54.95-22.76-56.7a4.2 4.2 0 0 1 6.38-2.94c.18.11 18.16 11.3 35.62 18.14 17.41 6.82 36.39 10.06 36.58 10.1a4.2 4.2 0 0 1 2.84 6.42c-7.19 11.17-24 28.31-43.84 28.31-4.79 0-9.76-1-14.82-3.33m16.18-33.67c-12.14-4.76-24.21-11.33-31.12-15.33-.35 11.05 1.23 33.2 18.5 41.38 19.43 8.94 36.72-7.85 44.17-16.81-7.34-1.57-19.65-4.58-31.55-9.25z" class="uuid-1e36859e-87c5-4603-85b3-138b77905d86"/></g></g><path id="path89" d="M998.42 760.35c71.54 0 111.04-82.41 111.46-83.29a4.21 4.21 0 0 0-7.61-3.57c-.41.87-41.61 86.75-114.48 77.79-73.87-9.08-122.49-83.65-122.97-84.4a4.2 4.2 0 0 0-7.08 4.53c2.06 3.21 51.18 78.65 129.03 88.21q5.96.73 11.65.72z" class="uuid-1e36859e-87c5-4603-85b3-138b77905d86"/><path id="path90" d="M228.65 1171.97h88.37a4.2 4.2 0 1 0 0-8.4h-88.37a4.2 4.2 0 1 0 0 8.4" class="uuid-1e36859e-87c5-4603-85b3-138b77905d86"/><path id="path91" d="M777.43 1171.97h437.74a4.2 4.2 0 1 0 0-8.4H777.43a4.2 4.2 0 1 0 0 8.4" class="uuid-1e36859e-87c5-4603-85b3-138b77905d86"/><g id="g95"><path id="path93" d="m916.36 1486.72-31.47-19.64-134.99 20.23a4.3 4.3 0 0 1-3.34-.95l-50.44-42.66-98.37 24.92q-.45.11-.91.12l-143.23 4.22a4.1 4.1 0 0 1-4.07-2.75 4.2 4.2 0 0 1 1.32-4.73l68.8-55.12a4.2 4.2 0 0 1 5.83.56c6.21 3.8 53.82 2.99 96.61-.01a4.2 4.2 0 1 1 .59 8.39c-.24.02-24 1.68-48.15 2.32-34.47.91-46.99-.78-52.03-2.77l-56.61 45.35 130.21-3.83 100.02-25.34a4.2 4.2 0 0 1 3.75.86l50.64 42.82 134.65-20.18c.99-.15 2 .06 2.85.59l29.97 18.71 54.23-53.42-34.84-6.49c-144.41 25-149.66 21.5-151.38 20.35-.92-.62-3.16-2.14-6.25-4.27-30.53-20.91-48.31-32.59-52.92-34.76-9.29 2.53-51.47 12.22-78.02 18.28l-43.9 35.4a4.2 4.2 0 1 1-5.27-6.54l44.65-36.01q.76-.6 1.7-.83c30.17-6.88 76.19-17.51 79.1-18.49 3.08-1.42 4.13-1.86 59.4 36.01l5.64 3.86c9.82 1.16 94.65-12.43 146.55-21.42q.74-.12 1.49 0l43.49 8.11a4.19 4.19 0 0 1 2.18 7.12l-62.33 61.4a4.2 4.2 0 0 1-5.17.57zm-188.56-87.74" class="uuid-23e87f96-ded6-4314-b347-65ca84c2f48d" style="fill:#000000;fill-opacity:1"/><path id="path94" d="M749.27 1487.35a4.2 4.2 0 0 0 3.27-1.56l39.07-48.37a4.2 4.2 0 1 0-6.54-5.28L746 1480.51a4.2 4.2 0 0 0 3.27 6.84" class="uuid-23e87f96-ded6-4314-b347-65ca84c2f48d" style="fill:#000000;fill-opacity:1"/><path id="path95" d="M885.8 1466.89c.93 0 1.87-.31 2.65-.94l44.48-36.21a4.2 4.2 0 1 0-5.31-6.51l-44.48 36.21a4.2 4.2 0 0 0 2.66 7.46z" class="uuid-23e87f96-ded6-4314-b347-65ca84c2f48d" style="fill:#000000;fill-opacity:1"/></g><g id="g97"><path id="path96" d="m991.11 1341.08-95.91-7.15a4.2 4.2 0 0 1-3.15-6.56l68.45-100.05a4.1 4.1 0 0 1 3.71-1.82l93.55 5.44a4.2 4.2 0 0 1 3.28 6.49l-66.08 101.76a4.2 4.2 0 0 1-3.52 1.91l-.31-.01zm-25.03-107.05-62.99 92.06 86.16 6.42 60.79-93.61z" class="uuid-23e87f96-ded6-4314-b347-65ca84c2f48d" style="display:inline;fill:#000000;fill-opacity:1"/><path id="path97" d="M1073.74 1328.76c1.54 0 2.96-.84 3.7-2.2l55.3-102.39a4.2 4.2 0 0 0-3.46-6.19l-82.76-4.81a4.2 4.2 0 1 0-.49 8.39l76.17 4.43-50.87 94.18-55.37-4.13a4.2 4.2 0 1 0-.62 8.38l58.08 4.33z" class="uuid-23e87f96-ded6-4314-b347-65ca84c2f48d" style="fill:#000000;fill-opacity:1"/></g><path id="path98" d="M552.15 965.7a4.2 4.2 0 0 0 3.95-2.77c.83-2.29 83.53-229.9 123.04-280.01 38.43-48.75 201.91-24.99 203.56-24.74a4.2 4.2 0 0 0 1.24-8.32c-6.92-1.03-169.98-24.69-211.4 27.85-40.35 51.17-120.93 272.94-124.34 282.36a4.2 4.2 0 0 0 3.95 5.63" class="uuid-1e36859e-87c5-4603-85b3-138b77905d86" style="display:inline"/><g id="g110"><g id="g100"><path id="path99" d="M1255.34 1159.87c-9.11-6.22-21.7-2.84-31.18 2.79s-18.02 13.4-28.7 16.17c-3.14.82-6.41 1.18-9.42 2.39-7.87 3.17-12.64 12.59-10.53 20.82s19.27 14.3 27.7 13.29z" class="uuid-f8c1fec8-b047-47d1-9a35-eac2dae4710c"/><path id="path100" d="M1201.36 1219.63q1.26 0 2.35-.13a4.2 4.2 0 0 0-1-8.34c-7.2.84-21.77-4.87-23.12-10.16-1.59-6.21 2.08-13.48 8.03-15.87 1.62-.65 3.46-1.03 5.41-1.44q1.76-.35 3.5-.79c8.17-2.12 15.01-6.79 21.62-11.3 2.79-1.9 5.43-3.7 8.17-5.33 3.88-2.31 17.29-9.34 26.67-2.93a4.2 4.2 0 1 0 4.74-6.94c-9.1-6.21-22.45-5.22-35.7 2.65a156 156 0 0 0-8.61 5.62c-6.29 4.29-12.24 8.35-18.99 10.1q-1.53.39-3.09.69c-2.23.46-4.53.94-6.85 1.87-9.81 3.95-15.66 15.51-13.03 25.76 2.69 10.49 19.95 16.54 29.92 16.54z" class="uuid-1e36859e-87c5-4603-85b3-138b77905d86"/></g><g id="g109"><path id="polygon100" d="m1336.32 1497.08 141.47-257.28-285.12-19.4-187.16 216.13z" class="uuid-bce151b2-f93a-4517-95d8-9b61d19ebae2"/><path id="path101" d="m1181.01 1326.93-.63-21.34c5.77-12.45 52.84-153.67 83.48-246.81a8.18 8.18 0 1 1 15.55 5.12c-.21.62-20.69 62.9-41.26 124.41-12.09 36.14-36.81 99.38-43.95 120.07l-13.2 18.55z" class="uuid-dc9d0159-e373-4a2b-8dc0-34ed4e10c0e3"/><path id="path102" d="M1179.79 1330.95a4.2 4.2 0 0 1-2.98-3.9l-.63-21.34q-.03-.99.39-1.89c5.7-12.29 52.94-154.07 83.3-246.35a12.3 12.3 0 0 1 6.19-7.2 12.3 12.3 0 0 1 9.45-.71 12.3 12.3 0 0 1 7.19 6.19 12.3 12.3 0 0 1 .71 9.46l-.15.45c-3.59 10.89-22.43 68.07-41.12 123.97-7.34 21.96-19.47 54.23-29.2 80.16-6.42 17.08-11.96 31.84-14.76 39.95q-.2.57-.55 1.07l-13.2 18.55a4.2 4.2 0 0 1-4.64 1.58zm25.28-64.11c9.72-25.87 21.8-58.05 29.1-79.87 18.69-55.88 37.52-113.04 41.11-123.93l.15-.46a3.97 3.97 0 0 0-2.54-5.03 3.97 3.97 0 0 0-5.03 2.54c-25.67 78.04-75.38 227.73-83.25 246.32l.23 7.88 5.6-7.87c2.89-8.32 8.34-22.84 14.63-39.59z" class="uuid-23e87f96-ded6-4314-b347-65ca84c2f48d"/><path id="path103" d="M1218.75 1181.15c3.38-4.18 38.79-19.94 69.12-28.87l2.46-3.27q3.75-.66 7.51-1.24c5.16-.77 10.41-1.54 15.63-1.64q1.58-.03 3.16.04c3.47-.27 6.48-.22 8.89.25 7.27-.32 13.25-4.62 20.23-6.14 7.21-1.57 15.97 4.12 23.15 5.71 7.4 1.65 11.33 5.67 17.72 9.75 6.32 4.03 11.6 7.38 16.14 13.3 10.93 14.24 20.47 26.01 26.89 42.68 2.58 6.71 5.17 13.42 7.39 20.26 1.03 3.19 2 6.42 2.72 9.7.53 2.41 1.02 4.95.73 7.42-.14 1.16 1.01 1.53 1.87 1.15-7.97 18.98-16.13 34.59-25.29 55.2a58 58 0 0 1-30.57 29.91c-3.11 0-27.75 11.39-37.69 11.39s-76.23-4.14-77.78-5.7c-1.55-1.55-11.91-17.04-11.91-17.04s-8.1-13.1-17.35-28.35c-3.81 5.52-12.99 17.24-20.97 14.85-10.36-3.11-20.71 1.73-8.29-35.38.14-.41.33-.82.48-1.23l-11.87 8.66s-9.32 3.11-14.72-7.42c-5.39-10.53 27.98-88.61 32.33-93.98z" class="uuid-f8c1fec8-b047-47d1-9a35-eac2dae4710c"/><g id="g107"><path id="path104" d="M1223.04 1315.04c10.63 0 20.35-13.89 23.5-18.89l75.54-36.87a4.2 4.2 0 0 0-3.69-7.55l-76.64 37.41q-1.11.56-1.76 1.61c-4.34 7.22-13.05 17.23-17.98 15.74-5.4-1.62-8.66-3.64-9.97-6.16-2.18-4.23.31-11.57 3.46-20.88l1.01-2.99c11.64-34.75 79.62-59.94 80.31-60.19a4.2 4.2 0 1 0-2.88-7.89c-2.95 1.08-72.47 26.83-85.39 65.41l-1 2.96c-3.79 11.19-6.79 20.03-2.97 27.42 2.44 4.72 7.21 8.02 15.02 10.36q1.72.5 3.43.5z" class="uuid-1e36859e-87c5-4603-85b3-138b77905d86"/><path id="path105" d="M1257.95 1327.35h.27a4.22 4.22 0 0 0-.1-8.41h-.16c-1.3 0-3.04-1.11-4.79-3.06-4.88-5.45-7.95-14.92-7.34-19.44a4.2 4.2 0 0 0-8.33-1.13c-1.02 7.51 3.2 19.25 9.41 26.18 3.44 3.83 7.25 5.86 11.05 5.86z" class="uuid-1e36859e-87c5-4603-85b3-138b77905d86"/><path id="path106" d="M1439.88 1260.28a4.2 4.2 0 0 0 3.85-2.52 413 413 0 0 0 10.68-26.88c15.93-44.61-1.09-110.4-13.75-135.71-13.19-26.38-83.78-27.99-91.79-28.09a4.2 4.2 0 1 0-.1 8.4c20.33.25 75.12 4.95 84.37 23.44 12.1 24.19 28.43 86.9 13.35 129.12a403 403 0 0 1-10.47 26.35 4.2 4.2 0 0 0 3.85 5.88z" class="uuid-1e36859e-87c5-4603-85b3-138b77905d86"/><path id="path107" d="M1306.51 1348.68c-36.25-2.48-37.03-3.25-38.42-4.65-1.61-1.61-8.48-11.77-12.44-17.68a4.2 4.2 0 0 1 2.02-6.28c73.88-27.48 76.69-26.54 78.37-26.01a4.2 4.2 0 0 1-1.6 8.19c-4.85.71-37.94 12.4-68.84 23.84a370 370 0 0 0 7.84 11.27c8.64 1.48 64.53 5.18 75.38 5.18 5.61 0 18.02-4.68 26.23-7.78 5.8-2.19 8.57-3.21 10.37-3.51a53.6 53.6 0 0 0 27.82-27.52c4.41-9.93 8.79-20.75 13.01-31.21 3.64-9.01 7.08-17.52 10.4-25.12a4.21 4.21 0 0 1 7.7 3.37c-3.27 7.49-6.69 15.95-10.31 24.9a996 996 0 0 1-13.13 31.48 62 62 0 0 1-32.79 32.08q-.67.29-1.4.32c-1.14.22-5.34 1.8-8.72 3.08-12.07 4.55-22.59 8.32-29.2 8.32-4.97 0-23.95-1.02-42.32-2.28zm80.01-9.11h.15z" class="uuid-1e36859e-87c5-4603-85b3-138b77905d86"/></g><path id="path108" d="M1336.32 1501.29a4.2 4.2 0 0 0 3.68-2.18l141.48-257.29a4.2 4.2 0 1 0-7.37-4.05l-140.02 254.63-320.59-58.69 182.34-210.56a4.2 4.2 0 0 0-6.35-5.51l-187.16 216.12a4.19 4.19 0 0 0 2.42 6.88l330.81 60.56q.38.07.76.07z" class="uuid-23e87f96-ded6-4314-b347-65ca84c2f48d"/><path id="path109" d="M1202.68 1287.48c2.75 0 4.68-.33 4.92-.37a4.2 4.2 0 1 0-1.47-8.27c-.12.02-12.06 1.98-15.96-5.63-3.4-9.01 27.08-83.15 31.86-89.43 2.31-2.36 23.3-12.64 50.44-22.12 34.05-11.89 50.76-12.97 54.73-10.27 11.18 7.59 17.62 24.73 17.69 24.9a4.2 4.2 0 0 0 5.4 2.48 4.2 4.2 0 0 0 2.49-5.39c-.29-.8-7.41-19.82-20.85-28.95-18.4-12.49-110.37 26.57-116.44 34.07-3.09 3.81-39.97 84.54-32.8 98.54 4.59 8.95 14.13 10.44 19.99 10.44" class="uuid-1e36859e-87c5-4603-85b3-138b77905d86"/></g></g><g id="g112"><path id="path110" d="M1243.16 1242.89a4.2 4.2 0 0 1-2.84-5.22l5.47-18.59c2.04-6.92 14.62-12.5 33.6-20.23 5.15-2.1 11.55-4.71 12.93-5.75a4.2 4.2 0 0 1 6.3 5.56c-1.66 2-5.29 3.59-16.06 7.98-8.11 3.3-27.1 11.04-28.71 14.83l-5.48 18.6a4.2 4.2 0 0 1-5.22 2.84zm48.99-49.62.09-.11z" class="uuid-1e36859e-87c5-4603-85b3-138b77905d86"/><path id="path111" d="M1386.64 1302.27a4.2 4.2 0 0 0 4.2-4.15c.1-7.21-4.05-16.23-6.21-20.42 2.2-3.87 6.18-12.27 6.09-22.24-.07-7.26-4.21-23.6-5.17-27.28.02-1.75.07-7.26 0-12.96-.19-13.99-13.86-22.5-14.44-22.86a4.2 4.2 0 0 0-4.4 7.16c.13.08 10.3 6.51 10.43 15.81.09 6.78 0 13.29 0 13.31q0 .57.14 1.13c1.38 5.24 4.98 20.1 5.04 25.77.11 10.81-5.91 19.52-5.97 19.61a4.2 4.2 0 0 0-.21 4.49c1.78 3.12 6.38 12.51 6.3 18.36a4.2 4.2 0 0 0 4.14 4.26h.06z" class="uuid-1e36859e-87c5-4603-85b3-138b77905d86"/><path id="path112" d="M1442.09 1251.89q.36 0 .74-.06a4.2 4.2 0 0 0 3.41-4.87c-2.37-13.4-20.04-72.39-57.43-94.83-7.89-4.74-35.27-19.44-56.3-9.85a4.2 4.2 0 0 0 3.49 7.65c17.3-7.89 41.49 5.21 48.48 9.41 32.2 19.33 50.47 72.06 53.48 89.09a4.2 4.2 0 0 0 4.13 3.47z" class="uuid-1e36859e-87c5-4603-85b3-138b77905d86"/></g><g id="g118"><path id="path113" d="m328.74 1206.55 25.09 5.58a56 56 0 0 1-8.82-4.34c-9.28-5.77-16.7-15.74-16.25-26.59.15-3.76 1.28-7.54 3.61-10.51 3.97-5.07 10.7-7.04 17.03-8.37a172 172 0 0 1 44.04-3.39l-9.21 14.77c20.61 3.87 40.35 11.32 59.74 19.27 9.87 4.05 21.32 10.59 21.14 21.18a14.2 14.2 0 0 1-3.06 8.37l1.43-.45 49.56 13.66c7.2 1.98 14.8 4.2 19.88 9.65a14.4 14.4 0 0 1 3.46 5.82c.41 1.43.49 2.91.35 4.38l.96-.21c8.56.7 14.27 10.55 12.5 18.88s-9.16 14.6-17.24 17.48c-8.02 2.86-16.72 2.96-25.25 3.01l12.01 5.91a1163 1163 0 0 1-110.21 42.88 46 46 0 0 1-18.29 2.16c-12.02-.99-31.03-3.7-34.38-10.96-4.97-10.76-19.69-29.35-19.69-29.35s-12.83-11.74-13.92-29.91c-1.1-18.16 5.53-20.1 5.53-20.1s-6.4-6.73-10.34-24.37c-3.95-17.63 9.86-21.5 10.34-24.43z" class="uuid-f8c1fec8-b047-47d1-9a35-eac2dae4710c"/><g id="g117"><path id="path114" d="M442.58 1235.19c2.75 0 5.54-.26 8.31-.91 9.02-2.11 18.25-9.68 18.42-20.06.27-15.29-17.81-22.71-23.75-25.14-21.98-9.01-40.69-15.78-60.56-19.51a4.21 4.21 0 0 0-1.55 8.27c19.17 3.59 37.41 10.21 58.92 19.03 12.41 5.09 18.64 10.88 18.53 17.22-.1 6.02-6.22 10.69-11.93 12.02-6.98 1.64-14.87-.02-21.83-1.48l-50.31-10.58c-10.25-2.15-20.84-4.38-29.61-9.82-9.01-5.6-14.61-14.57-14.27-22.85a14 14 0 0 1 2.72-8.09c3.13-3.99 8.86-5.65 14.59-6.85 14.43-3.01 22.25-4.26 36.32-3.52a4.2 4.2 0 1 0 .44-8.4c-15-.78-23.64.59-38.48 3.69-6.94 1.45-14.68 3.76-19.48 9.89-2.74 3.49-4.3 7.96-4.5 12.93-.56 13.67 9.05 24.63 18.23 30.33 10.03 6.22 21.87 8.71 32.32 10.91l50.31 10.57c5.35 1.12 11.19 2.35 17.16 2.35" class="uuid-1e36859e-87c5-4603-85b3-138b77905d86"/><path id="path115" d="m356.83 1299.76 150.7-.84c8.43-.05 17.98-.1 26.83-3.25 10.39-3.7 18.04-11.58 19.94-20.56a21 21 0 0 0-3.82-16.72c-3.17-4.26-7.59-6.83-12.44-7.23a4.2 4.2 0 1 0-.68 8.38c3.25.27 5.4 2.54 6.39 3.87a12.8 12.8 0 0 1 2.34 9.95c-1.57 7.35-8.54 12.25-14.54 14.39-7.51 2.67-15.92 2.72-24.06 2.76l-150.67.84a4.2 4.2 0 0 0 .02 8.41z" class="uuid-1e36859e-87c5-4603-85b3-138b77905d86"/><path id="path116" d="M506.06 1278.07c11.39 0 22.54-2.19 29.85-10.7 4.46-5.18 6.15-11.67 4.52-17.35a18.6 18.6 0 0 0-4.43-7.53c-6.04-6.48-14.8-8.89-21.83-10.83L464.61 1218a4.2 4.2 0 1 0-2.23 8.1l49.56 13.66c7.65 2.11 13.82 4.07 17.92 8.46a10.4 10.4 0 0 1 2.5 4.12c1 3.47-.8 7.21-2.82 9.56-7.2 8.37-20.52 8.43-33.86 7.24-51.43-4.58-93.23-10.72-131.53-19.32a4.2 4.2 0 0 0-1.84 8.2c38.67 8.68 80.82 14.88 132.63 19.49 3.65.33 7.41.56 11.13.56z" class="uuid-1e36859e-87c5-4603-85b3-138b77905d86"/><path id="path117" d="M390.86 1349.85c-32.93-2.72-36.63-10.75-37.85-13.39-4.41-9.55-17.3-26.12-18.99-28.27-2.03-1.96-13.9-14.15-15.01-32.49-.71-11.65 1.62-17.78 4.07-20.99-2.48-3.88-6.19-11.17-8.79-22.81-3.49-15.61 5.14-22.58 9.29-25.93.43-.35.99-.8 1.3-1.08a4.21 4.21 0 0 1 8.01 2.34c-.39 2.34-2.15 3.77-4.02 5.28-3.68 2.97-8.72 7.03-6.37 17.55 3.58 16 9.26 22.35 9.29 22.39a4.2 4.2 0 0 1-1.49 6.8c-1.08.73-3.56 4.87-2.89 15.95.98 16.16 12.46 26.96 12.57 27.06q.25.22.46.49c.61.78 15.09 19.11 20.22 30.2 1.06 2.31 8.77 6.7 30.91 8.53 5.69.47 11.28-.19 16.62-1.96A1164 1164 0 0 0 518 1296.8a4.2 4.2 0 0 1 3.44 7.66 1169 1169 0 0 1-110.61 43.03 50 50 0 0 1-19.96 2.36z" class="uuid-1e36859e-87c5-4603-85b3-138b77905d86"/></g></g><path id="path118" d="M900.57 1372.04a4.2 4.2 0 0 0 3.99-5.53c-3.47-10.36-104.94-168.05-119.69-189.13-16.67-23.81-111.71-207.66-112.67-209.51a4.1 4.1 0 0 0-3.93-2.27l-368.29 16.77a4.22 4.22 0 0 0-3.51 6.18l91.82 171.11 6.5 11.26a4.2 4.2 0 0 0 7.28-4.21l-6.44-11.14-88.6-165.11 358.94-16.35c11.76 22.73 95.88 185.03 112.02 208.08 18.1 25.86 98.36 151.51 115.48 181.12l-387.7-17.23-6.96-12.04a4.2 4.2 0 0 0-7.28 4.2l8.11 14.04a4.2 4.2 0 0 0 3.45 2.09l397.3 17.65h.19z" class="uuid-1e36859e-87c5-4603-85b3-138b77905d86"/><path id="path119" d="M701.74 1435.09a4.2 4.2 0 0 0 3.51-1.89 487 487 0 0 1 25.23-34.8 4.2 4.2 0 0 0-6.57-5.23 492 492 0 0 0-25.67 35.41 4.2 4.2 0 0 0 3.51 6.52z" class="uuid-23e87f96-ded6-4314-b347-65ca84c2f48d"/><path id="path120" d="M1472.09 1173.65h69.62a4.2 4.2 0 1 0 0-8.4h-69.62a4.2 4.2 0 1 0 0 8.4" class="uuid-1e36859e-87c5-4603-85b3-138b77905d86"/></g></g></g></svg>