<svg xmlns="http://www.w3.org/2000/svg" id="uuid-56c6a348-a62c-41d0-87b8-51e2533d88a2" data-name="&amp;lt;Layer&amp;gt;" viewBox="0 0 1364.12 1595.42"><defs id="defs1"><style id="style1">.uuid-ec065d38-2330-42df-8893-9a8da2734e0a {
        fill: #f08c65;
      }

      .uuid-ec065d38-2330-42df-8893-9a8da2734e0a, .uuid-abfa5310-993d-4ace-bc37-565ba1b7323f, .uuid-07dcb981-9114-43a7-ad37-c343efeab03b, .uuid-b5236ef0-8839-4d73-83a7-f943907195c4, .uuid-2f31863f-b7fc-4635-ae33-6ad62471e072, .uuid-a426aaba-e0bb-45e8-93b8-44de20169522, .uuid-7c8ae0ac-81e9-4a7b-a7f8-797a0f5c9cc9 {
        stroke-width: 0px;
      }

      .uuid-abfa5310-993d-4ace-bc37-565ba1b7323f, .uuid-a426aaba-e0bb-45e8-93b8-44de20169522 {
        fill-rule: evenodd;
      }

      .uuid-07dcb981-9114-43a7-ad37-c343efeab03b {
        fill: #c5d6e8;
      }

      .uuid-2f31863f-b7fc-4635-ae33-6ad62471e072, .uuid-a426aaba-e0bb-45e8-93b8-44de20169522 {
        fill: #fff;
      }

      .uuid-7c8ae0ac-81e9-4a7b-a7f8-797a0f5c9cc9 {
        fill: var(--color-character-woman-skin, #ecded3);
      }</style></defs><g id="g63" transform="translate(-761.007 -234.586)"><g id="g6" style="display:inline"><g id="g4"><path id="path1" d="M1023.05 879.48c43.17-29.96 164.22-21.31 189.82-19.1l.42-.25a24 24 0 0 1 4.91-2 8.8 8.8 0 0 1 7.44-5.9c18.63-1.81 34.3-1.12 49.74-11.19l7.87 11.93a422 422 0 0 0-2.54-29.13s-18.39-15.56-31.48-41.15-19.59-55.44-19.59-55.44l-11-5.24c-.92 1.02 13.84-31.93 31.24-52.37 16.42-20.38 29.24-53.24 33.3-68.07 9.2-27.78 13.55-72.84 24.43-105.58 4.22-11.92 7.84-16.99 29.75-25.98 22.89-9.05 94.44-1.27 105.58 24.43a2296 2296 0 0 1 31.77 82.05s15.63 18.63 29.98 31.49c20.54 19.33 39.23 4.67 39.23 4.67s32.16.19 34.62 27.33c.96 17.49 4.94 36.75-13.7 52.39-17.66 15.58-33.2 16.43-33.2 16.43s-3.1 32.32-15.27 59.29S1484 817.6 1484 817.6s2.37 43.27 18.34 63.26l4.88-12.24c24.01 20.24 54.59 36.76 54.59 36.76s.58 3.63 1.46 9.64c10.98 4.11 22.24 7.44 33.59 10.51.54-2.3 1.09-4.6 1.55-6.91l.46 1.88c146.09-242.97-2.39-379.9-32.71-453.26-30.26-72.39-40.37-114.7-104.7-115.08l.29 1.21a24 24 0 0 0-4.44.04q-9.11.73-18.22 1.5c-12.89-47.65-120.83-53.01-168.2-30.99-41.78 19.82-106.89 72.43-131.57 155.62-26.3 89.12-48.65 192.79-82.91 226.52l-5.28 5.49C951.05 781.11 906.46 830.61 891.4 915.31c-3.23 18.16-4.26 36.62-6.21 54.96l1.74-1.93c-6.39 36.74-17.8 72.62-39.55 102.58-9.27 12.77-21.18 24.79-36.5 28.55-11.34 2.78-24.39 1.07-33.64 8.2 31.29 12.18 65.24 25.48 98.42-.16 6.96-5.38 16.03-7.22 23.87-11.23a149.7 149.7 0 0 0-.9 89.47c5.4 17.74 14.08 34.33 19.58 52.04s7.6 37.52-.14 54.37c11.74-12.26 23.24-24.94 31.94-39.52 7.29-12.22 12.47-25.95 13.61-40.06 5.27 12.15 18.78 21.98 26.23 33.36 3.17 4.85 6.55 9.74 11.04 13.33-10.38-56.79-30.08-167.05-35.65-216-7.67-67.44 12.21-132.15 57.82-163.8z" class="uuid-ec065d38-2330-42df-8893-9a8da2734e0a" style="display:inline;fill:var(--color-character-woman-hair, #130d0c);fill-opacity:1"/><path id="path2" d="M1778.07 1190.77c-.75-18.48 1.11-37.03-1-55.48-35.13 44.5-76.32 80.51-113.25 85-94.43 97.71-303.71 357.47-462.5 395.29-71.47-5.77-157.33-232.08-157.33-232.08 47.63-6.84 155.02-19.94 191.62-55.25-3.94 4.42 20.36 59.72 22.22 51.1 171.71-112.12 357.49-214.32 480.55-383.11-38.83-56.55-115.63-59.32-175.13-81.23-.88-6.02-1.46-9.64-1.46-9.64s-30.58-16.51-54.59-36.76l-4.88 12.24c3.03 3.97 6.73 6.32 10.51 9.54-18.11 38.64-36.79 78.09-66.43 109.31-11.63 16.52-13.18 38.59-26.74 53.91-18.69-49.55-50.06-61.28-87.41-93.51-10.37-9.81-19.99-21.6-28.15-33.33-2.03-3.72-4.31-.38-6.52-4-4.7-7.44-10.66-14.22-15.28-21.95 1.93-15.56 1.71-33.31.93-47.86l-7.87-11.93c-15.56 14.37-47.66 3.73-57.18 17.08a23 23 0 0 0-5.32 2.25c-327.44-41.13-253.04 183.39-206.55 416.66-4.57-.04-3.02-.29-3.61-5.76-3.27 20.45 27.49 86.06 28.47 94.19l-1.36.34c11.99 119.21 76.89 337.4-23.59 464.19h610.86c4.22-42.11 29.84-280.83 46.96-356.37 2.46-43.99 16.89-86.07 24.26-129.47 3.49-20.5 5.58-41.32 4.45-62.13-.22-2.6-.04-5.7 2.61-6.88 25.39-6.93 58.56-2.82 85.41-6.65q.74 2.2 1.41 4.43c18.96 10.56-7.44-70.68-4.11-82.15zm-770.67 86.28 1.57-3.24.97 3.16c-.85.01-1.69.08-2.54.07z" class="uuid-2f31863f-b7fc-4635-ae33-6ad62471e072" style="display:inline;fill:var(--color-character-clothing-4, #fef556);fill-opacity:1"/><path id="path3" d="M2115.84 804.35c13.93-22.99-6.05-27.32-20.63-16.46s-30.89 32.94-40.12 46.92c-9.89 14.96-29.92 50.05-42.1 79.71l.26.03a164 164 0 0 0-15.75 14.38l-3.22 3.21.35-.84c5.12-25.17-9.2-51.65-22.87-37.84-6.75 6.82-10.95 26.94-18.45 44.37-13.12 30.46-24.91 48.87-33.41 77-3.07 10.16-5.21 28.94-6.86 49.91-1.95 9.57-2.64 19.39-3.3 29.16-.84 12.39-2.08 41.84-2.92 54.24-.75 11.03-1.12 5.19-5.04 15.53-2.84 7.51-.45 14.27-3.81 21.56-14.14 30.63-23.28 43.87-31.19 63.92l-4.99 5.53a128 128 0 0 1-7.53 18.26c-4.91 9.86-10.55 19.34-15.22 29.32-4.56 9.74-7.23 20.04-10.62 30.21-6.61 19.89-15.22 40.63-30.98 55.08-.88.8-2.17.43-2.55-.67-2.06-5.96-2.6-12.26-2.92-18.51-.3-5.8-.43-11.65-1.56-17.36q-.34-1.67-.85-3.28c-.07-25.15-.23-50.78-7.4-74.81q-.66-2.22-1.41-4.43l-43.13 2.98-37.4 2.58c-1.66.11-3.45.35-4.88 1.1-.65.34-1.25.76-1.69 1.37-1.11 1.55-1.02 3.61-.92 5.51 1.13 20.81-.95 41.63-4.45 62.13-6.21 36.4-17 71.88-22.65 108.39a44 44 0 0 0-.06 12.6c.27 1.89.67 3.73 1.25 5.39l-2.8 3.1c18.92 54.27 33.19 90.81 66.42 125.99 11.64 12.32 24.45 21.11 40.25 26.78 46.7 16.77 100.88-37.26 124.43-74.06 55.33-86.46 111.66-357.19 129.25-376.16 17.59-18.96 62.75-85.34 68.85-99.4 9.39-21.67 8.58-55.62-12.62-75.32a70 70 0 0 0-9.42-7.51l2.68-.91c-.82-11.79-3.13-30.09-13.28-38.98l1.26-.13c-.84-9.85-2.7-23.72-8.22-34.08l1.47.19c14.67-36.52 47.87-94.46 60.73-115.68zm-88.23 154.08-.61-.8 1.69-.18zm11.18 100.3q.15-1.1.28-2.21c3.37-2.8 6.97-6.13 10.84-10.1z" class="uuid-7c8ae0ac-81e9-4a7b-a7f8-797a0f5c9cc9" style="fill:var(--color-character-woman-skin, #ecded3);fill-opacity:1"/><path id="path4" d="M1536.84 1195.42c-89.66 65.38-186.4 122.42-279.01 183.94.13 2.01-3.22 1.67-3.03-.36-6.24-16.06-20.06-32.37-19.2-50.74-36.6 35.31-143.99 48.4-191.62 55.25 0 0 85.86 226.31 157.33 232.08 158.79-37.82 368.07-297.58 462.5-395.29 36.93-4.5 78.12-40.5 113.25-85a525 525 0 0 0 23.22-31.86l1.28 9.84c2.01 5.37 29.64 4.83 47.03 2.44 23.56 21.84 36.56-26.78 42.81-50.34l4.4 4.17c10.35 0 13.83-17.65 9.51-39.26-17.25-72.66-24.28-58.96-98.4-59.66 3.24-26.55 57.23-141.37 32.7-172.74-6.92-5.89-16.43 5.02-20.75 20.86-20.95 55.21-46.1 124.7-80.48 177.52a292 292 0 0 1-19.81 27.11c-56.31 61.8-113.91 122.38-181.73 172.06z" class="uuid-7c8ae0ac-81e9-4a7b-a7f8-797a0f5c9cc9" style="display:inline;fill:var(--color-character-woman-skin, #ecded3);fill-opacity:1"/></g><path id="path5" d="M1516.35 768.09c12.16-26.97 15.27-59.29 15.27-59.29s15.54-.85 33.2-16.43c18.63-15.63 14.65-34.9 13.7-52.39-2.46-27.15-34.62-27.33-34.62-27.33s-18.68 14.66-39.23-4.67c-14.34-12.86-29.98-31.49-29.98-31.49s-13.78-38.22-31.77-82.05c-11.15-25.7-82.7-33.47-105.58-24.43-21.92 8.99-25.54 14.06-29.75 25.98-10.88 32.75-15.23 77.8-24.43 105.58-4.06 14.84-16.88 47.69-33.3 68.07-17.39 20.44-32.15 53.39-31.24 52.37l11 5.24s6.5 29.85 19.59 55.44 31.48 41.15 31.48 41.15 1.64 12.45 2.54 29.13c.78 14.54 1 32.3-.93 47.86 2.7 3.13 5.43 9.46 8.17 12.17 2.85 2.82 5.03 6.37 7.11 9.78 2.2 3.62 4.49.28 6.52 3.99 3.71 6.79 9.31 12.13 14.34 18.06 4.48 5.28 8.19 11.24 13.81 15.27 11.14 7.98 23.1 21.28 34.85 28.27 11.83 7.03 22.78 15.19 31.22 26.19 9.12 11.88 13.63 26.34 21.34 39.05 9.25-10.31 12.91-24.26 17.98-36.85 2.39-5.94 5.09-11.8 8.76-17.06 4.09-5.86 9.47-10.71 14.05-16.18 9.32-11.12 17.03-23.42 23.81-36.22 3.49-6.59 6.79-13.3 10.02-20.02 2.66-5.54 5.78-10.84 8.75-16.21 3.23-5.83 6.41-11.73 8.8-17.96q.5-1.33.98-2.71-2.88-2.4-5.63-4.54a32 32 0 0 1-4.88-5c-15.96-19.99-18.34-63.26-18.34-63.26s20.2-22.54 32.37-49.51z" class="uuid-7c8ae0ac-81e9-4a7b-a7f8-797a0f5c9cc9" style="display:inline;fill:var(--color-character-woman-skin, #ecded3);fill-opacity:1"/><path id="path6" d="M1378.92 749.3c-28.17 1.54-55.63-1.83-55.63-1.83s15.44 50.79 58.29 50.4c40.9-.29 52.45-56.45 52.45-56.45s-27.9 6.4-55.1 7.89z" class="uuid-a426aaba-e0bb-45e8-93b8-44de20169522"/></g><g id="g62"><path id="path7" d="M776.72 1108.43a79 79 0 0 1-11.82-.88 4.58 4.58 0 1 1 1.37-9.05c26.29 3.95 55.48-7.4 76.17-29.67 17.6-18.94 29.84-45.92 35.38-78 2.12-12.26 3.28-24.97 4.39-37.25 1.17-12.83 2.37-26.09 4.68-39.08 16.16-90.9 67-140.9 161.25-206.45l4.96-5.16c26.51-26.1 46.64-98.8 66.11-169.11 5.09-18.37 10.35-37.37 15.71-55.53 24.18-81.51 87.29-136.3 133.99-158.46 33.69-15.66 100.62-19.17 142.85.8 17.55 8.3 28.27 19.6 31.87 33.59a4.57 4.57 0 1 1-8.86 2.28c-2.9-11.23-11.95-20.52-26.93-27.6-38.79-18.35-103.3-15.55-135.05-.79-44.97 21.33-105.79 74.16-129.11 152.78a3545 3545 0 0 0-15.66 55.37c-20.7 74.76-40.26 145.38-68.43 173.1l-5.19 5.4q-.32.32-.69.59c-105.5 73.33-143.85 122.12-157.84 200.8-2.24 12.6-3.43 25.67-4.58 38.31-1.13 12.47-2.31 25.36-4.49 37.99-5.85 33.83-18.88 62.41-37.7 82.66-19.68 21.19-46.56 33.36-72.41 33.36z" class="uuid-b5236ef0-8839-4d73-83a7-f943907195c4"/><path id="path8" d="M914.57 1293.39a4.57 4.57 0 0 1-3.74-7.2c6.42-9.16 8.71-22.17 6.28-35.69-1.41-7.83-4.89-15.07-8.58-22.74a167 167 0 0 1-6.3-14.18c-21.65-58.07-16.93-114.57 14.03-167.93a69 69 0 0 0 2.24-4 4.58 4.58 0 0 1 8.27 3.91c-.53 1.12-1.4 2.61-2.6 4.68-29.52 50.88-34.02 104.76-13.37 160.14 1.68 4.51 3.86 9.03 5.96 13.41 3.8 7.88 7.72 16.03 9.35 25.09 2.85 15.9.01 31.41-7.79 42.55a4.6 4.6 0 0 1-3.75 1.95z" class="uuid-b5236ef0-8839-4d73-83a7-f943907195c4"/><path id="path9" d="M1007.39 1281.62a4.6 4.6 0 0 1-4.48-3.65c-.35-1.66-34.63-167.31-42.24-234.18-8.24-72.38 14.66-136.78 59.75-168.08 24.25-16.83 71.04-26.32 111.23-22.59 60.11 5.59 85.29 3.17 85.53 3.15a4.57 4.57 0 0 1 .94 9.11c-1.04.11-26.1 2.56-87.32-3.14-38.29-3.56-82.51 5.27-105.17 21-42.32 29.37-63.73 90.5-55.88 159.52 7.56 66.46 41.76 231.69 42.1 233.35a4.58 4.58 0 0 1-4.48 5.5z" class="uuid-b5236ef0-8839-4d73-83a7-f943907195c4"/><path id="path10" d="M1794.64 1404.02a4.57 4.57 0 0 1-4.55-4.21l-10.06-127.5a4.57 4.57 0 1 1 9.12-.72l10.06 127.5a4.57 4.57 0 0 1-4.2 4.92z" class="uuid-b5236ef0-8839-4d73-83a7-f943907195c4"/><path id="path11" d="M1776.15 1169.78a4.57 4.57 0 0 1-4.55-4.21l-1.63-20.62a4.57 4.57 0 1 1 9.12-.72l1.63 20.62a4.57 4.57 0 0 1-4.2 4.92z" class="uuid-b5236ef0-8839-4d73-83a7-f943907195c4"/><path id="path12" d="M1043.99 1388.08q-1.23 0-2.3-.62c-.31-.18-7.68-4.52-11.42-11.76-1.25-2.42-15.2-40-29.31-82.26-4.71-14.1-5.05-22.79-1-25.82a4.6 4.6 0 0 1 7.3 3.16q.1.93.14 1.69l6.21.06c26.34.33 81.12.99 137.99-17.67 28.53-9.36 47.96-20.42 50.72-28.89a4.6 4.6 0 0 1 3.17-3c3.37-.9 10.68-.54 14.23 7.26 1.84 4.05 25.7 85.56 24.83 92.43-.57 4.52-2.84 7.23-5.05 8.48-28.64 30.66-148.08 56.93-195.5 56.93zm-36.87-106.46c.5 2.31 1.29 5.25 2.52 8.92 14.75 44.16 27.8 78.87 28.8 81.03 1.82 3.52 5.23 6.19 6.89 7.35 46.2-.5 162.77-26.09 187.96-54.56a5 5 0 0 1 1.64-1.18c.13-.17.35-.6.49-1.42-.62-7.95-21.5-82.14-24.04-87.74a3.8 3.8 0 0 0-1.78-2.01c-7.56 13.52-33.71 24.51-55.16 31.54-58.31 19.12-114.13 18.44-140.95 18.12l-6.13-.06h-.25z" class="uuid-b5236ef0-8839-4d73-83a7-f943907195c4"/><path id="path13" d="M1252.75 1378.97a4.6 4.6 0 0 1-3.96-2.29c-6.99-12.1-10.4-25.14-13.7-37.76q-1.32-5.11-2.76-10.28a4.57 4.57 0 1 1 8.81-2.48q1.47 5.26 2.8 10.45c3.29 12.58 6.39 24.47 12.77 35.5a4.57 4.57 0 0 1-3.96 6.86" class="uuid-b5236ef0-8839-4d73-83a7-f943907195c4"/><path id="path14" d="M1201.31 1236.44a4.57 4.57 0 0 1-4.54-4.07c-1.64-14.77-3.94-29.23-6.17-43.2-2.24-14.07-4.56-28.63-6.22-43.61-4.24-38.14-8.62-77.56-14.61-116.05-3.15-20.21-6.81-39.69-17.04-55.93a4.57 4.57 0 1 1 7.74-4.88c11.16 17.72 15.04 38.21 18.34 59.41 6.02 38.69 10.42 78.21 14.66 116.43 1.64 14.78 3.94 29.23 6.17 43.19 2.24 14.08 4.56 28.64 6.22 43.63a4.57 4.57 0 0 1-4.55 5.08" class="uuid-b5236ef0-8839-4d73-83a7-f943907195c4"/><g id="g22"><path id="path15" d="M1788.93 1634.1a58 58 0 0 1-19.76-3.39c-16.14-5.8-29.5-14.68-42.03-27.95-33.87-35.85-48.07-72.13-67.42-127.62a4.58 4.58 0 0 1 8.64-3.02c18.95 54.34 32.81 89.83 65.43 124.35 11.51 12.18 23.74 20.33 38.47 25.62 43.12 15.5 95.9-36.08 119.03-72.22 33.62-52.53 68.13-175.67 93.32-265.59 18.98-67.74 29.22-103.45 36.42-111.21 16.93-18.25 61.96-84.19 68.01-98.11 8.89-20.54 7.87-52.11-11.54-70.15-8.53-7.93-14.91-11.36-20.11-10.83-5.36.55-10.84 5.42-18.91 16.8a949 949 0 0 1-5.37 7.48c-9.56 13.26-27.36 37.93-22.74 42.97a7.1 7.1 0 0 0 5.68 2.31c5.42-.12 18.08-4.56 42.06-33.04a4.57 4.57 0 1 1 7 5.9c-20.06 23.82-36.5 36.03-48.87 36.29-4.97.1-9.35-1.72-12.62-5.27-9.66-10.53 5.75-31.89 22.07-54.51q2.76-3.8 5.32-7.42c8.26-11.65 15.74-19.61 25.44-20.61 8.11-.81 16.53 3.25 27.27 13.23 22.49 20.91 23.85 57.07 13.7 80.49-6.45 14.88-52 81.63-69.69 100.69-6.03 6.5-19.77 55.54-34.32 107.46-25.35 90.47-60.07 214.38-94.43 268.05-22.2 34.69-66.98 79.29-110.07 79.29z" class="uuid-b5236ef0-8839-4d73-83a7-f943907195c4"/><path id="path16" d="M2058.38 1067.35a4.6 4.6 0 0 1-4.5-3.81l-3.49-20.6a4.57 4.57 0 1 1 9.02-1.52l3.49 20.6a4.57 4.57 0 0 1-4.52 5.34z" class="uuid-b5236ef0-8839-4d73-83a7-f943907195c4"/><path id="path17" d="M1982.88 1149.16q-1.13 0-2.18-.55a4.6 4.6 0 0 1-1.84-6.21c11.43-21.04 29.3-41.98 47.82-56.03a4.58 4.58 0 0 1 5.53 7.29c-17.53 13.3-34.47 33.15-45.31 53.1a4.6 4.6 0 0 1-4.02 2.39z" class="uuid-b5236ef0-8839-4d73-83a7-f943907195c4"/><path id="path18" d="M1985.47 1043.86q-1.15 0-2.28-.15c-4.53-.6-8.32-3.06-10.97-7.1-8.67-13.21 3.05-26.3 19.27-44.41 5.15-5.75 10.99-12.27 16.84-19.52 23.64-29.26 35.23-31.88 48.33-26.46 19.09 7.89 21.11 36.94 21.78 46.48a4.57 4.57 0 0 1-9.13.64c-1.55-22.16-6.83-34.81-16.15-38.67-6.19-2.55-13.89-5.74-37.71 23.75a495 495 0 0 1-17.15 19.87c-15.27 17.05-23.03 26.28-18.43 33.29 1.21 1.85 2.61 2.79 4.52 3.05 10.61 1.44 30.91-16.62 45.74-29.79l2.63-2.33a4.57 4.57 0 1 1 6.07 6.85l-2.62 2.32c-17.03 15.12-36.22 32.16-50.75 32.17z" class="uuid-b5236ef0-8839-4d73-83a7-f943907195c4"/><path id="path19" d="M1957.19 999.46q-2.14 0-4.05-.44a13.3 13.3 0 0 1-8.99-6.93c-7.25-13.78 8.73-28.21 28.96-46.47 6.99-6.31 14.21-12.83 21.13-19.87 26.34-26.84 38.12-28.33 50.65-21.68 12.2 6.49 19.24 22.67 21.53 49.47a4.57 4.57 0 1 1-9.12.78c-1.98-23.14-7.6-37.32-16.71-42.17-5.92-3.14-13.28-7.05-39.83 20.01-7.11 7.24-14.44 13.86-21.53 20.25-15.91 14.36-30.93 27.93-26.99 35.43a4 4 0 0 0 2.95 2.27c12.06 2.79 43.4-20.14 60.23-32.47l4.43-3.23a4.56 4.56 0 1 1 5.38 7.4l-4.4 3.22c-24.85 18.19-48.4 34.43-63.65 34.43z" class="uuid-b5236ef0-8839-4d73-83a7-f943907195c4"/><path id="path20" d="M2055.11 924.61q-.86 0-1.71-.33a4.6 4.6 0 0 1-2.54-5.95c15.22-37.89 49.23-96.83 61.06-116.34 3.96-6.53 5.13-12 2.99-13.94-2.61-2.37-10.23-1.51-16.98 3.53-16.09 11.99-33.95 38.07-39.04 45.77-10.17 15.37-29.82 50.02-41.68 78.93a4.57 4.57 0 0 1-8.47-3.48c12.1-29.48 32.15-64.82 42.51-80.5 6.79-10.28 24.39-35.53 41.2-48.06 9.98-7.44 22.28-8.71 28.6-2.96 3.4 3.09 7.74 10.5-1.32 25.46-10.92 18.03-45.47 77.88-60.4 115.01a4.6 4.6 0 0 1-4.24 2.87z" class="uuid-b5236ef0-8839-4d73-83a7-f943907195c4"/><path id="path21" d="M1779.96 1443.79q-.56 0-1.13-.14a4.6 4.6 0 0 1-3.31-5.56c5.49-21.65 38.16-88.42 69.75-153 27.37-55.95 55.68-113.8 56.91-124 1.13-9.35 2.03-25.92 3.07-45.1 2.01-37.16 4.52-83.4 10.29-102.48 5.54-18.33 12.28-32.27 20.09-48.41 4.33-8.94 8.8-18.19 13.49-29.07 2.73-6.34 5-13.02 7.2-19.48 3.88-11.42 7.23-21.28 12.2-26.3 5.25-5.3 11.55-6.58 17.3-3.52 11.03 5.89 17.12 26.72 13.3 45.48a4.58 4.58 0 0 1-8.96-1.82c3.47-17.05-2.81-32.47-8.65-35.59-.91-.49-3.03-1.61-6.48 1.88-3.49 3.53-6.67 12.89-10.05 22.81-2.25 6.62-4.58 13.48-7.45 20.15a707 707 0 0 1-13.66 29.44c-7.64 15.79-14.24 29.43-19.57 47.07-5.45 18.02-7.92 63.66-9.91 100.32-1.05 19.35-1.95 36.05-3.12 45.7-1.32 10.94-22.71 55.25-57.77 126.92-29.92 61.17-63.84 130.5-69.1 151.23a4.6 4.6 0 0 1-4.43 3.45z" class="uuid-b5236ef0-8839-4d73-83a7-f943907195c4"/><path id="path22" d="M1983.43 1011.9a4.6 4.6 0 0 1-4.57-4.34c-.41-7.77-.13-14.58.86-21.45a4.58 4.58 0 0 1 9.06 1.3 98 98 0 0 0-.77 19.67 4.6 4.6 0 0 1-4.33 4.81h-.24z" class="uuid-b5236ef0-8839-4d73-83a7-f943907195c4"/></g><path id="path23" d="M1789.61 1283.73q-.55 0-1.11-.14a4.6 4.6 0 0 1-3.33-5.55c-.15-.7-2.37-2.31-5.38-2.86-8.4-1.52-17.31-.95-25.93-.39l-53.99 3.46a4.64 4.64 0 0 1-4.86-4.27 4.6 4.6 0 0 1 4.27-4.86l53.99-3.46c9.17-.58 18.65-1.2 28.14.52 3.85.7 8.86 2.82 11.36 6.7a9.2 9.2 0 0 1 1.26 7.38 4.6 4.6 0 0 1-4.43 3.47z" class="uuid-b5236ef0-8839-4d73-83a7-f943907195c4"/><path id="path24" d="M1789.06 1284.25c-1.13 0-2.44-.25-3.95-.88a4.57 4.57 0 0 1 2.3-8.76c.32-4.64-1.39-16.5-3.33-29.96a1470 1470 0 0 1-8.96-72.35c-2.01-.29-5.89.05-7.32.17l-1.3.11a92 92 0 0 1-5.35.22c-3.26.07-5.61.12-9.08 1.11a4.57 4.57 0 1 1-2.5-8.79c4.59-1.31 7.89-1.38 11.38-1.46 1.47-.03 3.04-.07 4.86-.2l1.2-.1c5.69-.5 16.3-1.41 17.07 6.53 3.1 32.15 6.54 56.02 9.06 73.45 3.95 27.35 5.14 35.6.12 39.5a6.7 6.7 0 0 1-4.2 1.41" class="uuid-b5236ef0-8839-4d73-83a7-f943907195c4"/><g id="g31"><path id="path25" d="M1204.48 1620.28q-1.8 0-3.51-.13c-82.51-6.32-158.13-225.82-161.31-235.16a4.57 4.57 0 1 1 8.67-2.94c.76 2.23 76.81 223.12 153.35 228.99q1.49.12 3.05.12c66.49 0 230.52-153.25 284.98-204.14 4.57-4.27 8.5-7.95 11.71-10.92 28.5-26.36 68.09-73.97 99.9-112.23 27.92-33.59 49.98-60.11 59.81-67.26q.91-.66 2.04-.83c.27-.04 28.25-4.45 64.71-32.62 24.29-18.77 90.09-111.88 90.75-112.81a4.56 4.56 0 0 1 5.83-1.43c10.31 5.3 22.67 8.05 22.79 8.08a4.57 4.57 0 1 1-1.96 8.94c-.5-.11-11.06-2.46-21.42-7.15-12.03 16.89-67.36 93.82-90.4 111.62-34.62 26.75-61.72 33.09-67.78 34.23-9.43 7.46-31.69 34.24-57.34 65.09-33.64 40.47-71.77 86.33-100.72 113.1-3.2 2.96-7.13 6.63-11.68 10.88-60.94 56.93-221.12 206.59-291.48 206.59z" class="uuid-b5236ef0-8839-4d73-83a7-f943907195c4"/><g id="g30"><path id="path26" d="M1168.13 1456.47a4.58 4.58 0 0 1-3.06-7.98c.79-.71 79.4-71.02 136.78-104.3 59.13-34.3 224.83-144.34 252.39-164.51 33.17-24.27 105.98-101.43 140.97-138.5 10.65-11.29 17.69-18.75 20.2-21.13 12.57-11.95 42.68-66.17 48.93-79.08 5.01-10.36 45.75-107.51 50.1-123.43 2.86-10.48 9.02-22.64 17.73-25.33 3.71-1.14 7.4-.36 10.4 2.19 9.11 7.75 11.12 38.91 4 61.74-6.83 21.9-35.15 115.39-35.44 116.33a4.56 4.56 0 1 1-8.75-2.65c.29-.94 28.62-94.47 35.46-116.4 6.88-22.07 3.46-48.09-1.19-52.05-.7-.6-1.16-.61-1.77-.42-3.4 1.05-8.62 8.07-11.6 19-4.46 16.32-44.86 112.96-50.69 125.01-4.26 8.81-35.94 67.54-50.86 81.73-2.33 2.21-9.68 10-19.85 20.78-35.18 37.28-108.38 114.84-142.22 139.61-27.65 20.23-193.88 130.63-253.2 165.04-56.57 32.81-134.48 102.49-135.26 103.19a4.6 4.6 0 0 1-3.05 1.17z" class="uuid-b5236ef0-8839-4d73-83a7-f943907195c4"/><path id="path27" d="M1895.8 1074.11a4.58 4.58 0 1 1 0-9.15c.82 0 1.91-.18 3.1-1.63 3.34-4.08 5.24-15.6 1.93-32.16-4.24-21.16-14.22-44.3-19.65-52.55-5.99-4.04-50.64-4.67-88.98-2.92a4.57 4.57 0 1 1-.42-9.14c40.86-1.87 90.82-2.22 96.81 6.69 5.95 8.85 16.63 33.28 21.21 56.12 3.53 17.66 2.1 32.53-3.83 39.75a12.9 12.9 0 0 1-10.17 4.98z" class="uuid-b5236ef0-8839-4d73-83a7-f943907195c4"/><path id="path28" d="M1859.28 1125.46a20.6 20.6 0 0 1-12.97-4.7 4.57 4.57 0 1 1 5.99-6.91c.65.54 6.82 5.35 13.89-.15 8.22-6.4 11.75-18.7 16.64-35.73l1.66-5.74c1.02-3.47 1.98-6.47 2.84-9.13 4.13-12.83 5.25-16.27-2.42-29.68-6.82-11.93-59.58-27.21-91.23-34.05a4.58 4.58 0 1 1 1.93-8.94c8.79 1.89 86.18 19.08 97.25 38.45 9.66 16.91 7.63 23.21 3.18 37.03-.84 2.59-1.78 5.5-2.76 8.88l-1.65 5.71c-5.37 18.69-9.25 32.19-19.82 40.42-4.3 3.34-8.63 4.55-12.54 4.55z" class="uuid-b5236ef0-8839-4d73-83a7-f943907195c4"/><path id="path29" d="M1823.02 1122.1c-12.54 0-23.69-1.76-25.74-7.22a4.57 4.57 0 0 1 8.23-3.93c5.64 3.38 42.14 2.08 53.15-1.97 6.16-2.27 10.42-30.56 9.23-50.82-.41-7.04-6.89-9.69-20.32-14.53a193 193 0 0 1-18.59-7.5c-20.33-9.76-39.18-9.92-39.37-9.92a4.58 4.58 0 0 1 0-9.15c.85 0 21.03.12 43.33 10.82 6.21 2.98 12.34 5.19 17.74 7.14 13.72 4.95 25.56 9.22 26.34 22.6.03.53 2.05 53.6-15.2 59.95-4.56 1.68-22.81 4.54-38.8 4.54z" class="uuid-b5236ef0-8839-4d73-83a7-f943907195c4"/><path id="path30" d="M1869.02 1019.28c-1.3 0-2.59-.55-3.49-1.62-1.88-2.22-2.62-3.61-3.02-5.2-7.97.5-19.83-.44-21.45-.57a4.59 4.59 0 0 1 .75-9.13c6.99.58 19.52 1.14 23.4.18a4.6 4.6 0 0 1 5.58 3.56c.24 1.19.35 2.08.44 2.79.05.38.05.67.15.96.02.05.18.38 1.13 1.5a4.59 4.59 0 0 1-3.48 7.53z" class="uuid-b5236ef0-8839-4d73-83a7-f943907195c4"/></g></g><path id="path31" d="M1432.91 1224.95c-2.05 0-5.28-.49-8.43-3.03-5.24-4.23-7.9-12.28-7.9-23.93v-135.23q0-.74.24-1.44c.79-2.38 19.58-58.39 39.23-75.44 29.49-25.6 52.32-104.95 47.08-115.19-8.81-17.21-16.81-18.11-16.89-18.12a4.5 4.5 0 0 1-4.48-4.57 4.65 4.65 0 0 1 4.67-4.57c1.33 0 13.36.65 24.84 23.1 8.36 16.33-18.75 99.81-49.23 126.27-16.68 14.48-34.1 64.26-36.31 70.73V1198c0 11.23 2.72 15.27 4.35 16.68 1.5 1.3 2.95 1.12 3.12 1.11a4.5 4.5 0 0 1 5.37 3.52 4.64 4.64 0 0 1-3.57 5.45c-.2.04-.96.19-2.08.19z" class="uuid-b5236ef0-8839-4d73-83a7-f943907195c4"/><path id="path32" d="M1376.09 997.57q-.8 0-1.6-.29c-42.59-15.91-103.5-101.7-107.42-127.99-1.26-8.44 2.06-36.14 12.32-37.84a4.58 4.58 0 0 1 2.19 8.86c-2.67 2.81-6.72 19.26-5.47 27.63 3.51 23.48 63.26 106.45 101.58 120.77a4.57 4.57 0 0 1-1.61 8.86z" class="uuid-b5236ef0-8839-4d73-83a7-f943907195c4"/><path id="path33" d="M1279.2 892.65h-.24a4.6 4.6 0 0 1-4.34-4.8l3.05-60.4a4.57 4.57 0 1 1 9.14.46l-3.05 60.4a4.56 4.56 0 0 1-4.56 4.34" class="uuid-b5236ef0-8839-4d73-83a7-f943907195c4"/><path id="path34" d="M1419.37 1063.98a4.6 4.6 0 0 1-4.31-3.05 366 366 0 0 0-13.84-33.72c-4.32-9.19-9.65-19.52-18.38-25.72a32.9 32.9 0 0 0-30.33-3.74c-3.88 1.52-7.65 3.88-11.3 6.16-2.6 1.63-7.86 4.3-15.14 8.01-18.21 9.27-48.69 24.78-66.77 39.23-1.19.95-3.31 2.77-6.44 2.62-4.58-.14-6.98-4.27-7.76-5.63-17.66-30.42-21.91-48.69-26.46-91.73-3.65-34.5-6.38-63.46-5.53-95.7a13.44 13.44 0 0 1 12.1-13.02c3.29-.32 6.48-.56 9.6-.8 14.12-1.07 26.32-2 38.07-9.67a4.57 4.57 0 1 1 5 7.66c-13.72 8.95-27.64 10.01-42.38 11.13q-4.59.33-9.41.78a4.3 4.3 0 0 0-3.83 4.16c-.83 31.68 1.87 60.33 5.48 94.49 4.4 41.56 8.46 59.14 25.28 88.1l.38.61.2-.16c18.81-15.04 49.81-30.81 68.33-40.24 6.81-3.46 12.18-6.2 14.44-7.61 4-2.5 8.14-5.1 12.82-6.93a41.7 41.7 0 0 1 38.96 4.81c10.53 7.49 16.55 19.05 21.36 29.29a376 376 0 0 1 14.18 34.56 4.58 4.58 0 0 1-4.31 6.1z" class="uuid-b5236ef0-8839-4d73-83a7-f943907195c4"/><path id="path35" d="M1574.37 1048.19q-2.86 0-6.37-2.06c-7.59-4.46-14.47-12.32-22.44-21.42-7.55-8.63-16.11-18.41-26.99-27.2-21.08-17.05-53.54-6.96-56.71-4.55a4.59 4.59 0 0 1-5.65-7.21c6.27-4.91 43.39-15.35 68.1 4.64 11.49 9.28 20.32 19.38 28.12 28.29 7.44 8.5 13.87 15.85 20.19 19.56l.28.16c.26-3.85-1-12.38-2.14-20.06-1.29-8.74-2.91-19.62-3.74-31.25-2.23-30.93-7.96-69.28-9.42-78.79-7.26-4.06-32.53-18.61-53.36-36.18a4.58 4.58 0 0 1 5.9-7c23.35 19.69 53.51 36.06 53.81 36.23a4.6 4.6 0 0 1 2.34 3.31c.07.45 7.27 45.96 9.85 81.77.81 11.28 2.39 21.97 3.67 30.56 2.6 17.54 3.9 26.35-1.52 30a7 7 0 0 1-3.93 1.19z" class="uuid-b5236ef0-8839-4d73-83a7-f943907195c4"/><path id="path36" d="M1060.38 1662.27c0 70.99-50.03 151.63-60.5 167.73h10.9c15.42-24.38 58.75-99.05 58.75-167.73 0-47.79-20.39-191.41-30.19-260.44-2.72-19.18-4.88-34.34-4.96-36.03a4.58 4.58 0 1 0-9.15 0c0 1.58 1.02 8.95 5.05 37.31 9.77 68.82 30.1 212 30.1 259.15z" class="uuid-b5236ef0-8839-4d73-83a7-f943907195c4"/><path id="path37" d="M1621.72 1830c3.88-36.94 24.96-235.23 37.38-303.51l5.2-28.64c11.34-62.55 21.13-116.57 32.8-169.22 10.05-45.32-7.96-107.03-8.73-109.63a4.59 4.59 0 0 0-8.78 2.6c.18.62 18.1 62.06 8.57 105.05-11.71 52.83-21.52 106.93-32.87 169.58l-5.19 28.63c-12.59 69.2-33.97 270.75-37.57 305.15h9.2z" class="uuid-b5236ef0-8839-4d73-83a7-f943907195c4"/><path id="path38" d="M1499.39 883.65c1.35.97 3.01 1.9 4.6 1.39 1.66-.53 2.46-2.38 2.89-4.06a24.5 24.5 0 0 0-3.89-20.07c-4.39-6.04-16.6-14.38-18.98-3.82-2.01 8.9 8.99 21.93 15.39 26.55z" class="uuid-b5236ef0-8839-4d73-83a7-f943907195c4"/><path id="path39" d="M833.26 1129.08c-10.02 0-22.01-2.07-36.7-7.33a4.58 4.58 0 0 1 3.08-8.62c41.19 14.74 57.06 2.86 72.4-8.63l.87-.65a4.58 4.58 0 0 1 5.48 7.32l-.87.65c-10.64 7.96-23.04 17.25-44.27 17.25z" class="uuid-b5236ef0-8839-4d73-83a7-f943907195c4"/><path id="path40" d="M998.85 1264.59c-1.3 0-2.59-.55-3.5-1.62-21.66-25.6-36.55-55.15-43.88-123.27a4.58 4.58 0 0 1 9.1-.98c7.85 72.91 24.94 98.44 41.77 118.34a4.58 4.58 0 0 1-3.49 7.53" class="uuid-b5236ef0-8839-4d73-83a7-f943907195c4"/><g id="g57"><path id="path44" d="M1270.89 565.39a4.56 4.56 0 0 1-2.86-8.14c.88-.71 21.95-17.17 51.86-6.24a4.58 4.58 0 0 1-3.14 8.6c-24.93-9.1-42.29 4.23-43.02 4.8-.84.66-1.84.98-2.84.98" class="uuid-b5236ef0-8839-4d73-83a7-f943907195c4"/><path id="path45" d="M1417.4 554.46a4.58 4.58 0 0 1-2.15-8.62c28.53-15.19 51.35-1.09 52.31-.49a4.58 4.58 0 0 1-4.89 7.73c-.83-.52-19.46-11.77-43.11.83a4.6 4.6 0 0 1-2.15.54z" class="uuid-b5236ef0-8839-4d73-83a7-f943907195c4"/><path id="path46" d="M1278.81 824.93s59.91 44.46 110.48 42.67c38.91-1.15 91.83-48.86 91.83-48.86s-52.67 70.11-103.73 80.69c-44.31 9.24-93.22-29.98-93.22-29.98z" class="uuid-abfa5310-993d-4ace-bc37-565ba1b7323f"/><path id="path47" d="M1738.15 997.57c-1.8 0-3.5-1.06-4.23-2.83-3.17-7.68-3.98-8.47-6.98-11.41-.85-.84-1.85-1.81-3.06-3.08-25.03-25.27-68.07-36.93-109.7-48.21-10.77-2.92-21.91-5.94-32.39-9.11-2.45-.73-6.34-2.22-10.47-3.8-3.85-1.47-7.82-2.99-9.94-3.61a4.58 4.58 0 0 1 2.58-8.78c2.47.72 6.43 2.24 10.62 3.84 3.79 1.45 7.7 2.94 9.84 3.58 10.37 3.15 21.45 6.14 32.15 9.05 42.8 11.59 87.05 23.58 113.87 50.66 1.18 1.24 2.11 2.14 2.9 2.92 3.82 3.75 5.33 5.5 9.03 14.45a4.6 4.6 0 0 1-4.22 6.33" class="uuid-b5236ef0-8839-4d73-83a7-f943907195c4"/><path id="path48" d="M1507.2 890.44q-1.2 0-2.31-.63c-12.19-7.12-16.89-11.57-20.69-23.86-5.47-18.38-3.47-51.23-3.39-52.62a4.63 4.63 0 0 1 4.85-4.28 4.6 4.6 0 0 1 4.28 4.85c-.02.32-1.98 32.61 3.01 49.38 3.05 9.84 6.05 12.48 16.55 18.61a4.57 4.57 0 0 1-2.31 8.53z" class="uuid-b5236ef0-8839-4d73-83a7-f943907195c4"/><path id="path49" d="M1246.88 815.66a5 5 0 0 1-1.73-.34c-19.43-7.93-32.63-21.05-38.19-37.94-6.78-20.6-1.69-45.75 14.74-72.73 6.41-10.53 12.64-19.86 18.66-28.88 22.98-34.41 42.83-64.13 53.49-135.13 7.61-50.72 18.95-77.29 36.74-86.16 15.68-7.81 33.72-.13 47.68 7.45a4.57 4.57 0 1 1-4.36 8.04c-17.84-9.68-29.94-11.92-39.23-7.3-14.45 7.2-24.85 33.15-31.78 79.33-10.96 73.02-31.34 103.53-54.93 138.85-5.97 8.94-12.15 18.19-18.46 28.55-14.99 24.62-19.78 47.14-13.86 65.11 4.7 14.26 16.1 25.45 32.96 32.33a4.58 4.58 0 0 1-1.73 8.81z" class="uuid-b5236ef0-8839-4d73-83a7-f943907195c4"/><path id="path50" d="M1507.63 613.36a4.5 4.5 0 0 1-1.88-.41c-1.17-.53-28.87-13.34-40.86-46.29-3.71-10.35-6.63-20.77-9.46-30.85-9.38-33.46-16.8-59.89-45.06-60.36a4.57 4.57 0 1 1 .15-9.15c35.08.58 44.13 32.86 53.71 67.04 2.78 9.92 5.66 20.18 9.25 30.21 10.68 29.35 35.76 40.95 36.01 41.06a4.57 4.57 0 0 1-1.88 8.75z" class="uuid-b5236ef0-8839-4d73-83a7-f943907195c4"/><path id="path51" d="M1196.61 787.23c-.98 0-1.96-.31-2.8-.96-56.47-43.66-21.66-132.73-2.97-180.59 2.15-5.5 4.1-10.48 5.68-14.81 11.11-29.52 16.45-54.1 16.84-77.38a4.66 4.66 0 0 1 4.65-4.5 4.57 4.57 0 0 1 4.5 4.65c-.41 24.37-5.94 49.92-17.41 80.41-1.59 4.34-3.56 9.39-5.73 14.96-17.83 45.63-51.01 130.55.04 170.02a4.57 4.57 0 0 1-2.8 8.2" class="uuid-b5236ef0-8839-4d73-83a7-f943907195c4"/><path id="path52" d="M1598.85 925.07a4.57 4.57 0 0 1-3.91-6.94c118.21-196.6 42.83-320.3-7.05-402.16-10.91-17.91-20.34-33.38-25.97-46.99q-4.51-10.85-8.55-20.8c-23.93-58.76-37.11-91.13-91.94-91.45a4.58 4.58 0 0 1 .03-9.15c60.98.36 75.82 36.79 100.39 97.15q4.02 9.91 8.53 20.74c5.36 12.97 14.62 28.16 25.33 45.74 47.93 78.65 128.14 210.29 7.08 411.64a4.6 4.6 0 0 1-3.92 2.22z" class="uuid-b5236ef0-8839-4d73-83a7-f943907195c4"/><path id="path53" d="M1404.24 432.93q-.53 0-1.06-.12a4.57 4.57 0 0 1-3.39-5.51c6.76-28.43 32.36-41.24 33.45-41.77a4.59 4.59 0 0 1 4.03 8.22c-.3.15-22.85 11.58-28.57 35.67a4.6 4.6 0 0 1-4.45 3.52z" class="uuid-b5236ef0-8839-4d73-83a7-f943907195c4"/><path id="path54" d="M1534.69 716.13a4.57 4.57 0 0 1-1.35-8.95c23.97-7.4 37.32-21.34 42.02-43.85 3.26-16.31-1.12-31.24-11.43-38.91-9.83-7.31-23.62-6.88-38.83 1.21a4.58 4.58 0 1 1-4.3-8.08c24.98-13.27 41.17-5.99 48.59-.47 13.18 9.8 18.9 28.23 14.93 48.08-5.38 25.8-21.18 42.39-48.29 50.76q-.68.21-1.35.21z" class="uuid-b5236ef0-8839-4d73-83a7-f943907195c4"/><path id="path55" d="M1542.93 670.86q-.92 0-1.83-.38a4.55 4.55 0 0 1-2.36-6c.16-.37 4.07-9.23 12.53-15.19a4.57 4.57 0 1 1 5.26 7.48c-6.29 4.43-9.38 11.29-9.41 11.36a4.6 4.6 0 0 1-4.19 2.73" class="uuid-b5236ef0-8839-4d73-83a7-f943907195c4"/><path id="path56" d="M1288.25 641.25c-.53-9.71 5.84-17.86 13.61-18.28s15 6.97 15.53 16.69c.53 9.71-5.84 17.86-13.61 18.28s-15-6.97-15.53-16.69" class="uuid-abfa5310-993d-4ace-bc37-565ba1b7323f"/><path id="path57" d="M1432.01 633.38c-.53-9.71 5.84-17.86 13.61-18.28s15 6.97 15.53 16.69c.53 9.71-5.84 17.86-13.61 18.28-8.74.48-14.99-6.97-15.53-16.69" class="uuid-abfa5310-993d-4ace-bc37-565ba1b7323f"/></g><path id="path58" d="M1381.06 802.45c-45.31 0-61.48-51.44-62.14-53.64a4.58 4.58 0 0 1 4.93-5.87c.27.03 27.41 3.31 54.83 1.8 26.5-1.45 54.05-7.71 54.33-7.78a4.56 4.56 0 0 1 5.5 5.38c-.5 2.44-12.8 59.8-56.9 60.11zm-50.81-49.66c5.73 13.06 21.51 40.85 51.29 40.51 28.47-.2 41.6-31.57 46.1-45.86-10.18 2.02-29.36 5.39-48.47 6.44-19.67 1.07-38.76-.18-48.93-1.09z" class="uuid-b5236ef0-8839-4d73-83a7-f943907195c4"/><path id="path59" d="M1388.01 873.2c-4.46 0-37.09-1.02-84.41-29.27-33.54-19.81-46.23-42.09-53.82-55.41l-.49-.86c-12.46-20.93-20.88-48.96-27.78-73.58a4.58 4.58 0 0 1 8.81-2.47c7.24 25.83 15.51 52.35 26.87 71.44l.53.94c7.59 13.33 19.07 33.49 50.54 52.07 47.68 28.46 79.66 27.96 79.99 27.98a4.55 4.55 0 0 1 4.69 4.46 4.57 4.57 0 0 1-4.46 4.69z" class="uuid-b5236ef0-8839-4d73-83a7-f943907195c4"/><path id="path60" d="M1389.34 873.14a4.59 4.59 0 0 1-.27-9.15c.27-.02 27.67-2.09 71.62-34.35 31.07-23.26 43.7-48.47 49.77-60.59 15.26-29.94 19.69-74.07 19.73-74.51a4.58 4.58 0 0 1 9.11.88c-.18 1.88-4.62 46.28-20.67 77.76-5.87 11.72-19.66 39.23-52.49 63.81-46.49 34.13-75.35 36.07-76.55 36.13h-.25z" class="uuid-b5236ef0-8839-4d73-83a7-f943907195c4"/><path id="path61" d="M1225.32 730.12c-1.43 0-2.52-.3-3.35-.52-.58-.16-.8-.21-1-.2a4.57 4.57 0 1 1-.5-9.14c1.73-.11 2.99.25 3.91.51.58.16.78.21 1 .2a4.58 4.58 0 0 1 .5 9.14z" class="uuid-b5236ef0-8839-4d73-83a7-f943907195c4"/><path id="path62" d="M1381.81 717.67a4.57 4.57 0 0 1-3.46-7.56c7-8.11 8.18-12.22 7.93-14.24-.27-2.25-2.76-4.12-6.78-6.97-5.11-3.63-11.48-8.14-14.11-16.66-6.61-19.58 5.37-51.04 8.94-58.39a4.57 4.57 0 1 1 8.23 4.01c-4.78 9.84-13.55 36.48-8.46 51.57 1.75 5.66 6.09 8.75 10.7 12.01 4.81 3.42 9.79 6.95 10.57 13.33.71 5.84-2.4 12.42-10.09 21.32a4.6 4.6 0 0 1-3.47 1.59z" class="uuid-b5236ef0-8839-4d73-83a7-f943907195c4"/></g></g></svg>