<svg xmlns="http://www.w3.org/2000/svg" id="uuid-1c407ea9-ce3e-43c8-896e-0c2d0ff596a8" data-name="&amp;lt;Layer&amp;gt;" viewBox="0 0 1877.65 1489.8"><defs id="defs1"><clipPath id="uuid-e8de547a-e4b7-4504-9780-18e6d965848d"><path id="path1" d="M275.89 1033.13c0 492.13 449.01 772.96 1087.79 772.96s1105.43-280.83 1105.43-772.96S2112.07 23.91 1363.68 23.91 275.89 540.99 275.89 1033.13" class="uuid-482e6be1-f7e8-4f1e-914a-2cb2040f85f5"/></clipPath><style id="style1">.uuid-b7269790-6127-4bda-8802-b006b604975c {
        fill: #718984;
      }

      .uuid-b7269790-6127-4bda-8802-b006b604975c, .uuid-bdeb444d-7b56-4a56-bd5a-857ca5ec63bc, .uuid-a65a782c-66dc-49af-827c-ecf6e0771093, .uuid-cde79e70-68b1-4f0b-89bf-4cb6beba7a3f, .uuid-482e6be1-f7e8-4f1e-914a-2cb2040f85f5, .uuid-4fbef227-fb54-41a9-bce8-f1b27dd92e65, .uuid-0e0546c4-4ee6-471e-ad93-1386e92ef2a4, .uuid-1ffd57fc-2107-4844-b097-8735a94281fd, .uuid-9a16262f-d231-4ab7-bf96-3efcecb8c957, .uuid-cb0a3dc5-c5b5-4190-af09-a2b2a40a2590, .uuid-9dd62d4d-6528-4536-955c-7132668ba7b1 {
        stroke-width: 0px;
      }

      .uuid-54fd99b8-63eb-40fa-9e9d-e803e5fe3590 {
        clip-path: url(#uuid-e8de547a-e4b7-4504-9780-18e6d965848d);
      }

      .uuid-bdeb444d-7b56-4a56-bd5a-857ca5ec63bc, .uuid-9a16262f-d231-4ab7-bf96-3efcecb8c957, .uuid-cb0a3dc5-c5b5-4190-af09-a2b2a40a2590 {
        fill-rule: evenodd;
      }

      .uuid-cde79e70-68b1-4f0b-89bf-4cb6beba7a3f {
        fill: #d4d9ed;
      }

      .uuid-482e6be1-f7e8-4f1e-914a-2cb2040f85f5 {
        fill: none;
      }

      .uuid-4fbef227-fb54-41a9-bce8-f1b27dd92e65, .uuid-9a16262f-d231-4ab7-bf96-3efcecb8c957 {
        fill: #fff;
      }

      .uuid-0e0546c4-4ee6-471e-ad93-1386e92ef2a4 {
        fill: #b1b1b2;
      }

      .uuid-1ffd57fc-2107-4844-b097-8735a94281fd {
        fill: #6d809b;
      }

      .uuid-cb0a3dc5-c5b5-4190-af09-a2b2a40a2590 {
        fill: #f08c65;
      }

      .uuid-9dd62d4d-6528-4536-955c-7132668ba7b1 {
        fill: var(--color-character-man-skin, #ffddc0);
      }</style></defs><g id="g76" class="uuid-54fd99b8-63eb-40fa-9e9d-e803e5fe3590" clip-path="url(#uuid-e8de547a-e4b7-4504-9780-18e6d965848d)" transform="translate(-424.86 -124.16)"><g id="g75"><path id="path2" d="M1280.7 147.75c-24.58 11.73-34.64-3.35-52.52 27.93-6.7 11.73-14.52 33.52-21.23 44.13s5.59 12.85 5.03 17.32c-.56 5.59-1.67 11.73-1.12 17.32 1.12 23.46 10.06 50.28 10.06 50.28l213.41 5.03s11.17-35.2 10.61-78.21c-.56-22.35-12.85-36.31-17.88-47.49-1.12-3.35 4.47-12.29 3.91-16.2-1.12-6.7-12.29 2.23-20.67-3.35-21.23-12.85-54.19-36.31-82.68-35.76-17.88 0-22.35 7.26-46.93 19z" class="uuid-cb0a3dc5-c5b5-4190-af09-a2b2a40a2590" style="fill:var(--color-character-man-hair, #393127);fill-opacity:1"/><g id="g4"><path id="path3" d="m898.08 1225.71.53 5.28a320 320 0 0 1 48.22 7.58c6.46 1.53 12.88 3.26 19.01 5.79 4.39 1.82 10.81 5.5 15.6 8.38a5.75 5.75 0 0 0 8.52-3.46c50.62-190.75 52.62-285.32 58.97-302.61 12.22-33.27 57.41-131.94 81.19-183.36 0 .01 3.03 118.28 3.03 172.19s-6.23 130.39 1.66 147.83c4.18 9.25 36.66 10.34 64.77 14.92l99.85 5.78H1393c58.42-3.37 108.58-11.81 115.17-26.39 7.89-17.44 11.84-88.35 8.17-142.13-1.89-27.76-1.94-28.45 6.71-169.6a56 56 0 0 0 3.45-4.46c22.77 50.87 67.47 151.55 79.84 185.23 6.39 17.4 5.75 113.07 57.29 306.3a4.95 4.95 0 0 0 4.93 3.7l2.69.03a213 213 0 0 1 73.23-26.21 11.44 11.44 0 0 0 9.65-11.93l-.21-3.69s-39.21-274.46-44.11-296.52c-4.9-22.05-85.77-287.68-85.77-287.68-10.36-34.16-21.53-68.72-36.06-85.48-26.82-30.17-78.21-41.9-121.23-57.54-14.75-5.59-28.95-10.47-41.06-15.73-3.1-4.45-6.62-8.54-10.91-11.88-6.37-4.95-13.83-7.88-21.69-9.74q1.17 3.89 2.54 7.72c-6.36 16.6-23.58 23.62-36.64 33.87-19.09 18.43-19.46 47.68-31.8 69.7-21.14-81.24-8.37-48.04-66.89-98.88.93-3.3 1.75-6.79 2.45-10.29a117 117 0 0 0-18.25 7.88 123 123 0 0 0-19.89 13.71c-10.95 4.49-23.3 8.79-36.08 13.63-43.02 15.64-94.41 27.37-121.23 57.54-14.52 16.76-25.7 51.31-36.06 85.48 0 0-80.87 265.62-85.77 287.68s-47.38 307.35-47.38 307.35zm236.18-462.48a2.6 2.6 0 0 1-2.4-3.68l2.44-5.27q.99 4.47 2.16 8.9z" class="uuid-4fbef227-fb54-41a9-bce8-f1b27dd92e65" style="fill:var(--color-character-clothing-2, #76bdb1);fill-opacity:1"/><path id="path4" d="M1358.97 491.9c-19.09 18.43-19.46 47.68-31.8 69.7-21.14-81.24-8.37-48.04-66.89-98.88.93-3.3 1.75-6.79 2.45-10.29 2.91-14.38 4-28.7 4-28.7-10.24-6.82-28.33-50.98-26.82-60.34-21.69-2.82-35.3-32.31-24.02-50.84 0 0 5.59-2.79 11.17-4.47 35.48-3.9 39.43-48.69 48.61-73.74 6.7-20.11 25.14-16.2 36.31-17.88 22.9-2.79 41.9-3.35 51.4 19.55 2.79 7.82 13.97 32.4 25.7 45.81 16.13 21.82 22.34 24.4 45.25 27.93 12.94 6.58 8.59 30.51 6.14 33.52l-12.29 15.08-13.97 6.7c.64 7.96-16.98 54.82-27.37 59.78 0 0 2.26 12.39 6.23 25.45q1.17 3.89 2.54 7.72c-6.36 16.6-23.58 23.62-36.64 33.87z" class="uuid-9dd62d4d-6528-4536-955c-7132668ba7b1"/></g><path id="path5" d="M1327.62 459.34c.96-.03 20.76-.83 48.89-20.92 19.8-13.8 26.15-28.31 29.94-36.98 5.7-11.88 10.43-28.01 14.81-50.63a4.33 4.33 0 0 0-8.49-1.65c-4.24 21.88-8.74 37.34-14.18 48.67-3.49 7.97-9.23 21.09-27.07 33.52-26.04 18.6-43.85 19.33-44.03 19.34a4.32 4.32 0 0 0 .13 8.65" class="uuid-a65a782c-66dc-49af-827c-ecf6e0771093"/><path id="path6" d="M1327.06 459.34a4.31 4.31 0 0 0 .03-8.64c-.3 0-15.64-.53-41.14-18.22-18.4-12.82-26.56-27.12-29.79-34.5-5.5-11.48-10.01-26.94-14.24-48.81a4.31 4.31 0 1 0-8.49 1.65c4.38 22.61 9.1 38.75 14.87 50.77 3.53 8.08 12.57 23.95 32.71 37.99 28.17 19.55 45.33 19.77 46.05 19.77z" class="uuid-a65a782c-66dc-49af-827c-ecf6e0771093"/><path id="path7" d="M1416.45 367.16q.28 0 .58-.04c9.21-1.23 24.77-10.24 29.87-30.02 2.91-11.27.45-22.32-6.42-28.85-5.78-5.5-13.78-7.02-22.52-4.29a4.32 4.32 0 1 0 2.58 8.25c5.69-1.78 10.53-.98 13.98 2.3 4.52 4.3 6.1 12.32 4 20.43-4.01 15.54-16.01 22.73-22.64 23.61a4.32 4.32 0 0 0 .57 8.61" class="uuid-a65a782c-66dc-49af-827c-ecf6e0771093"/><path id="path8" d="M1423.15 340.91c1.4 0 2.77-.68 3.6-1.92.03-.05 3.31-4.95 4.89-7.07a4.31 4.31 0 1 0-6.91-5.18c-1.73 2.3-5.03 7.25-5.16 7.46a4.32 4.32 0 0 0 3.59 6.72z" class="uuid-a65a782c-66dc-49af-827c-ecf6e0771093"/><path id="path9" d="M1238.24 367.16a4.33 4.33 0 0 0 .57-8.61c-6.63-.88-18.63-8.08-22.64-23.61-2.09-8.1-.52-16.12 4.01-20.43 3.45-3.28 8.29-4.08 13.98-2.3a4.32 4.32 0 1 0 2.57-8.25c-8.75-2.74-16.74-1.21-22.52 4.29-6.87 6.53-9.33 17.59-6.42 28.85 5.11 19.79 20.66 28.79 29.87 30.02q.3.04.58.04" class="uuid-a65a782c-66dc-49af-827c-ecf6e0771093"/><path id="path10" d="M1232.09 340.91a4.32 4.32 0 0 0 3.6-6.72c-.14-.21-3.44-5.15-5.17-7.46a4.32 4.32 0 0 0-6.91 5.19c1.59 2.11 4.86 7.02 4.89 7.06a4.3 4.3 0 0 0 3.6 1.92z" class="uuid-a65a782c-66dc-49af-827c-ecf6e0771093"/><path id="path11" d="M1325.95 369.4a4.32 4.32 0 0 0 3.27-7.16c-4.37-5.05-4.73-7.17-4.67-7.86.07-.9 1.55-2.16 3.12-3.49 2.84-2.43 6.75-5.75 8.09-11.68 3.71-14.08-6.08-33.9-6.5-34.74a4.33 4.33 0 0 0-7.73 3.87c3.53 7.06 8 20.56 5.83 28.81-.75 3.27-2.86 5.07-5.31 7.16-2.71 2.31-5.79 4.93-6.13 9.42-.3 4.05 1.78 8.42 6.76 14.17a4.3 4.3 0 0 0 3.27 1.49z" class="uuid-a65a782c-66dc-49af-827c-ecf6e0771093"/><path id="path12" d="M1385.15 280.56a4.33 4.33 0 0 0 2.53-7.83c-.56-.4-13.91-9.7-31.59-2.13a4.33 4.33 0 0 0 3.4 7.95c13.08-5.6 22.78.96 23.18 1.24.75.52 1.62.77 2.47.77z" class="uuid-a65a782c-66dc-49af-827c-ecf6e0771093"/><path id="path13" d="M1273.44 279.45c.86 0 1.73-.26 2.49-.79.44-.31 10.07-6.76 23.06-.73a4.31 4.31 0 1 0 3.64-7.84c-17.73-8.23-31.14 1.12-31.71 1.52a4.32 4.32 0 0 0 2.52 7.84" class="uuid-a65a782c-66dc-49af-827c-ecf6e0771093"/><path id="path14" d="M1388.52 424.85s-32.96 29.05-62.01 29.61c-22.35.56-54.19-26.82-54.19-26.82s32.4 40.78 62.01 45.81c25.7 4.47 63.09-24.05 63.09-24.05z" class="uuid-bdeb444d-7b56-4a56-bd5a-857ca5ec63bc"/><path id="path15" d="M1201.36 230.29c1.02 0 2.04-.36 2.86-1.08 5.93-5.23 8.28-11.24 11.25-18.85 2.42-6.2 5.43-13.9 11.41-24.11 8.41-14.98 23.22-31.93 46.4-28.09a4.33 4.33 0 0 0 1.42-8.52c-21.89-3.65-41.57 7.82-55.32 32.32-6.28 10.72-9.43 18.78-11.96 25.26-2.84 7.28-4.56 11.67-8.92 15.51a4.32 4.32 0 0 0 2.86 7.56" class="uuid-a65a782c-66dc-49af-827c-ecf6e0771093"/><path id="path16" d="M1221.48 310.18q.74 0 1.47-.26a4.3 4.3 0 0 0 2.6-5.53c-.16-.45-16.15-45.19-8.92-65.82a4.33 4.33 0 0 0-8.16-2.86c-8.23 23.53 8.25 69.66 8.95 71.61a4.3 4.3 0 0 0 4.07 2.85z" class="uuid-a65a782c-66dc-49af-827c-ecf6e0771093"/><path id="path17" d="M1429.79 172.26q1.25 0 2.18-.1a4.32 4.32 0 0 0-.86-8.6c-3.99.39-18.68-1.18-30.55-9.81-48.31-36.41-89.81-39.36-113.8-8.07a4.33 4.33 0 0 0 6.86 5.26c29.36-38.3 80.97-5.93 101.79 9.76 12.39 9.01 27.15 11.56 34.37 11.56z" class="uuid-a65a782c-66dc-49af-827c-ecf6e0771093"/><path id="path18" d="M1238.24 299.18c23.07 0 29.72-23.4 35.63-44.18 6.29-22.11 11.11-35.43 24.87-34.23a4.33 4.33 0 0 0 .76-8.62c-21.91-1.94-28.29 20.6-33.95 40.48-6.82 23.98-12.65 39.55-30.24 37.74a4.32 4.32 0 1 0-.88 8.6q1.97.2 3.8.2z" class="uuid-a65a782c-66dc-49af-827c-ecf6e0771093"/><path id="path19" d="M1418.53 297.41q1.56 0 3.19-.09a4.33 4.33 0 0 0-.47-8.63c-29.9 1.63-40.67-24.37-50.17-47.33-6.05-14.62-11.28-27.24-21.1-30.45-4.9-1.59-10.35-.59-16.21 2.98a4.31 4.31 0 1 0 4.5 7.38c3.67-2.23 6.62-2.94 9.03-2.15 6.04 1.97 10.78 13.42 15.8 25.54 9.26 22.36 21.84 52.74 55.45 52.75z" class="uuid-a65a782c-66dc-49af-827c-ecf6e0771093"/><path id="path20" d="M1434.33 311.86c1.81 0 3.5-1.14 4.1-2.96 11.74-35.21 25.58-99.12-13.64-131.52a4.33 4.33 0 0 0-5.51 6.67c35.24 29.11 21.98 89.01 10.94 122.12a4.33 4.33 0 0 0 4.1 5.69z" class="uuid-a65a782c-66dc-49af-827c-ecf6e0771093"/><path id="path21" d="M1301.36 202.35q.31 0 .64-.05a4.3 4.3 0 0 0 3.64-4.9c-.12-.83-3.12-20.52-12.95-30.36a4.32 4.32 0 1 0-6.11 6.11c7.8 7.81 10.49 25.33 10.51 25.51a4.3 4.3 0 0 0 4.27 3.69" class="uuid-a65a782c-66dc-49af-827c-ecf6e0771093"/><path id="path22" d="M1318.68 222.47h.23a4.3 4.3 0 0 0 4.09-4.54c-.22-4.18 1.83-8.86 5.35-12.2 3.01-2.86 6.65-4.3 9.99-3.94a4.32 4.32 0 1 0 .9-8.6c-5.86-.61-12 1.67-16.84 6.27-5.39 5.11-8.39 12.19-8.04 18.93a4.3 4.3 0 0 0 4.31 4.09z" class="uuid-a65a782c-66dc-49af-827c-ecf6e0771093"/><path id="path23" d="M1379.58 318.15c0-5.59-3.91-10.06-8.38-10.06s-8.38 4.47-8.38 10.06 3.91 10.06 8.38 10.06 8.38-4.47 8.38-10.06" class="uuid-bdeb444d-7b56-4a56-bd5a-857ca5ec63bc"/><path id="path24" d="M1294.66 318.71c0-5.59-3.91-10.06-8.38-10.06s-8.38 4.47-8.38 10.06 3.91 10.05 8.38 10.05c5.03 0 8.38-4.47 8.38-10.05" class="uuid-bdeb444d-7b56-4a56-bd5a-857ca5ec63bc"/><g id="g32"><g id="g27"><path id="path25" d="M1261.28 453.75a4.3 4.3 0 0 0 3.68-2.06 31 31 0 0 0 3.72-8.79c1.17-4.66 1.97-11.03 2.38-18.93a4.33 4.33 0 0 0-8.63-.45c-.39 7.34-1.1 13.16-2.14 17.29a22 22 0 0 1-2.7 6.36 4.32 4.32 0 0 0 3.68 6.59z" class="uuid-a65a782c-66dc-49af-827c-ecf6e0771093"/><path id="path26" d="M1326.23 568.16q.58 0 1.15-.16a4.3 4.3 0 0 0 3.02-5.31c-1.53-5.57-15.12-54.7-20.66-64.67-3.7-6.66-9.42-10.23-16.65-14.76-5.15-3.22-10.98-6.86-18.03-12.64-8.08-6.62-11.42-13.67-12.79-18.41-1.4-4.83-1.08-8.23-1.08-8.26a4.33 4.33 0 0 0-8.59-.96c-.06.51-.51 5.13 1.37 11.62 1.72 5.92 5.82 14.67 15.62 22.7 7.48 6.12 13.83 10.09 18.92 13.28 6.66 4.16 11.06 6.91 13.68 11.63 4.26 7.67 15.8 47.91 19.88 62.76a4.3 4.3 0 0 0 4.17 3.18z" class="uuid-a65a782c-66dc-49af-827c-ecf6e0771093"/><path id="path27" d="M1246.26 525.64c3.43 0 9.46-1.68 18.07-10.13 11.01-10.79 21.04-15.85 29.05-14.63 7.83 1.19 11.56 7.97 11.72 8.26a4.34 4.34 0 0 0 5.84 1.79 4.3 4.3 0 0 0 1.82-5.8c-.23-.44-5.77-10.83-17.91-12.77-11-1.76-23.28 3.97-36.56 16.98-4.55 4.46-7.78 6.32-9.77 7.1l-8.87-49.02c4.54-3.22 14.29-10.91 20.92-21.66a4.33 4.33 0 0 0-7.36-4.54c-7.66 12.4-20.47 20.45-20.6 20.53a4.3 4.3 0 0 0-1.97 4.44l10.08 55.72a4.3 4.3 0 0 0 2.64 3.24c.54.22 1.51.49 2.9.49" class="uuid-a65a782c-66dc-49af-827c-ecf6e0771093"/></g><g id="g31"><path id="path28" d="M1105.19 1386.89s10.91-223.74 28.85-302.41c4.18 9.25 36.66 10.34 64.77 14.92l99.85 5.79h93.57c58.42-3.37 108.58-11.81 115.17-26.39 17.94 78.67 19.67 200.99 19.67 305.54z" class="uuid-b7269790-6127-4bda-8802-b006b604975c" style="fill:#566f88;fill-opacity:1"/><path id="path29" d="M1392.99 1108.36c49.8-2.87 110.65-10.21 119.11-28.93 8.21-18.16 12.36-88.24 8.54-144.21q-1.92-28.16 7.36-179.74a4.33 4.33 0 0 0-8.63-.53q-9.32 152.14-7.36 180.86c3.61 52.86-.33 123.55-7.79 140.06-3.91 8.65-35.25 19.46-111.49 23.86h-93.32l-99.37-5.77c-7.21-1.17-14.66-2.11-21.87-3.02-15.75-1.99-37.33-4.71-39.44-9.38-5.03-11.11-3.73-52.04-2.47-91.62.58-18.5 1.19-37.62 1.19-54.43 0-53.35-3-171.12-3.03-172.31a4.32 4.32 0 1 0-8.64.22c.03 1.18 3.03 118.84 3.03 172.08 0 16.67-.6 35.73-1.19 54.16-1.4 44.27-2.62 82.51 3.23 95.45 3.92 8.66 19.33 11 46.24 14.39 7.2.91 14.65 1.85 21.78 3.01l.44.05 99.85 5.78h93.82z" class="uuid-a65a782c-66dc-49af-827c-ecf6e0771093"/><path id="path30" d="M1326.23 568.16a4.3 4.3 0 0 0 4.11-2.98c4.86-14.89 18.42-55.22 22.73-62.96 2.62-4.71 7.02-7.46 13.68-11.63 5.1-3.19 11.45-7.16 18.93-13.28 18.92-15.49 17.08-33.56 16.99-34.32a4.32 4.32 0 0 0-8.59.96c.06.66 1.19 14.34-13.87 26.67-7.05 5.78-12.89 9.42-18.03 12.64-7.24 4.52-12.95 8.1-16.65 14.76-5.58 10.05-22.66 62.25-23.38 64.47a4.32 4.32 0 0 0 4.11 5.67z" class="uuid-a65a782c-66dc-49af-827c-ecf6e0771093"/><path id="path31" d="M1410.28 525.46q.85 0 1.66-.33a4.3 4.3 0 0 0 2.59-3.22l10.08-55.72a4.35 4.35 0 0 0-1.97-4.44c-.13-.08-12.98-8.19-20.61-20.53a4.33 4.33 0 0 0-7.36 4.54c6.64 10.74 16.38 18.44 20.92 21.66l-8.28 45.77c-2.54-2.2-5.99-5.34-10.36-9.62-12.42-12.17-24.06-17.28-34.63-15.2-13.67 2.7-19.73 16.45-19.98 17.04a4.33 4.33 0 0 0 7.93 3.43c.09-.2 4.63-10.23 13.77-12 7.47-1.43 16.76 3.02 26.85 12.9 11.19 10.97 16.68 14.79 16.91 14.95.73.5 1.59.76 2.45.76z" class="uuid-a65a782c-66dc-49af-827c-ecf6e0771093"/></g></g><path id="path32" d="M1318.66 1108.36a4.35 4.35 0 0 0 4.33-4.43q-1.23-49.96 1.55-188.75c.7-34.89 2.19-126.5 3.5-207.34 1.04-63.91 2.02-124.8 2.39-142.94q.12-.5.13-1.02.03-2.05-.02-3.67l.02-.67c-.3-3-1.17-4.62-4.25-4.66-3.19 0-4.05 2.02-4.33 4.53q-.05.12-.04.41-.09 1.2-.1 2.44l-.18 8.98-.57 32.58c-.46 27.28-1.06 64.42-1.7 103.87-1.31 80.82-2.8 172.43-3.5 207.3q-2.78 138.99-1.55 189.14a4.33 4.33 0 0 0 4.32 4.22z" class="uuid-a65a782c-66dc-49af-827c-ecf6e0771093"/><g id="g34"><path id="path33" d="M1640.71 1398.77c-12.94 24.58 38.21 11 60.8-46.52q.8.5 1.62.98c10.55 22.53 25.19 59.03 35.8 73.27 39.81 34.66 1.72-52.17-2.15-67.72q1.96-.76 4.14-.74c16.08 24.06 34.09 46.39 52 58.54 15.13 13.53 36.25 11.02 17.78-10.85 3.51 1.39 14.39 7.5 18.07 6.91 9.68-1.64 8.45-13.38 1.24-17.74-22.85-20.71-38.58-49.77-51.42-79.53-11.44-29.04-17.74-58.79-32.97-85.79l5.33 14.44c-12.56-20.77-67.01 3.28-80.7 15.65l-1.44-4.24c-3.06 27.66 2.74 55.21-.75 83.24-3.66 31.66-18.31 45.74-27.34 60.1zm140.53-72.75a193 193 0 0 1-6.76-18.31zm29.45 79.71a393 393 0 0 0-6.29-8.34q1.5-.2 2.97-.62z" class="uuid-9dd62d4d-6528-4536-955c-7132668ba7b1"/><path id="path34" d="M900.79 1236.8c-24.19 55.21-35.87 116.85-81.6 159.7-7.23 4.4-8.42 16.08 1.24 17.74 3.68.6 14.56-5.52 18.07-6.91-18.47 21.87 2.65 24.38 17.78 10.85 19.53-13.26 39.19-38.63 56.34-65.15q1-.23 1.99-.51c-2.49 15.83-46.1 112.15-4.34 75.57 11.97-16.07 29.08-60.51 39.66-81.2l-2.3 6.8c22.58 57.62 73.83 71.32 60.87 46.68-9.03-14.36-23.68-28.44-27.34-60.09-6.04-83.25 26.5-99.8-80.35-107l.75 4.72-.75-1.2zm-62.29 170.54 1.42-3.9q1.16-.5 2.27-1.06a314 314 0 0 0-3.7 4.96z" class="uuid-9dd62d4d-6528-4536-955c-7132668ba7b1"/></g><g id="g38"><path id="path35" d="M1644.26 1414.42c3.95 0 7.75-1.17 8.98-1.58 3.92-.83 29.33-8.03 52.28-58.96a4.33 4.33 0 0 0-7.89-3.56c-22.22 49.29-45.99 54.02-46.23 54.06-.27.05-.59.13-.84.23-2.92 1.12-6.79 1.45-8.16.96.06-.56.39-1.94 1.98-4.54 1.71-2.71 3.68-5.49 5.76-8.43 8.52-12.01 19.13-26.97 22.19-53.43 1.72-14.87 1.13-29.59.57-43.82-.51-12.92-1.04-26.28.19-39.52a4.32 4.32 0 0 0-8.61-.8c-1.29 13.81-.75 27.46-.22 40.66.55 13.9 1.12 28.27-.52 42.49-2.8 24.26-12.29 37.63-20.65 49.42-2.16 3.04-4.2 5.91-6.05 8.87-3.84 6.25-4.33 11.15-1.47 14.59 2.14 2.58 5.47 3.35 8.69 3.35z" class="uuid-a65a782c-66dc-49af-827c-ecf6e0771093"/><path id="path36" d="M1828.24 1417q.64 0 1.21-.09c5.41-.88 10.96-5.76 10.91-12.42-.05-6.08-4.51-10.12-7.45-12.79-18.95-17.17-34.48-41.25-50.36-78.05-5.4-12.5-9.52-24.79-13.5-36.68-5.38-16.06-10.95-32.67-19.6-49.38a4.32 4.32 0 1 0-7.68 3.98c8.34 16.12 13.56 31.68 19.08 48.16 4.04 12.05 8.22 24.52 13.76 37.35 11.04 25.57 26.97 57.89 52.49 81.02 2.51 2.28 4.59 4.34 4.61 6.46.02 1.9-1.91 3.53-3.64 3.81-1.82 0-8.56-3.26-11.43-4.65a74 74 0 0 0-4.35-2.01 4.31 4.31 0 1 0-3.18 8.04c.86.34 2.2 1 3.77 1.76 6.58 3.18 11.67 5.49 15.37 5.49z" class="uuid-a65a782c-66dc-49af-827c-ecf6e0771093"/><path id="path37" d="M1752.12 1439.15q2.1.01 3.96-.83c3.69-1.69 7.49-6.35 4.68-18.94-2.62-11.74-6.82-23.62-11.27-36.2-5.34-15.11-10.87-30.73-13.68-46.61a4.32 4.32 0 1 0-8.51 1.51c2.95 16.58 8.59 32.54 14.05 47.98 4.36 12.33 8.48 23.97 10.99 35.21 1.68 7.52.17 9.18.15 9.19-1.04.61-6.42-1.61-10.1-6.55-7.5-10.06-17.43-32.46-26.2-52.22-9.14-20.61-14.93-33.42-19.28-38.54a4.33 4.33 0 0 0-8.59.66v1.14c0 1.32.6 2.56 1.63 3.38 3.08 2.45 11.54 21.53 18.34 36.86 8.95 20.18 19.09 43.05 27.17 53.89 4.12 5.53 10.85 10.07 16.66 10.07" class="uuid-a65a782c-66dc-49af-827c-ecf6e0771093"/><path id="path38" d="M1811.3 1429.55q1.9 0 3.86-.42a9.3 9.3 0 0 0 6.31-5.09c1.4-2.87 1.42-6.3.05-9.17-3-6.29-8.75-13.72-16.02-23.14-7.58-9.82-17.01-22.03-26.83-37.44l-1.27-1.99c-3.5-5.45-9.37-14.57-10.99-19.77a4.33 4.33 0 0 0-8.26 2.56c1.96 6.32 7.99 15.68 11.97 21.88l1.26 1.96c10.03 15.73 19.6 28.12 27.28 38.07 6.96 9.01 12.46 16.13 15.07 21.59.29.6.18 1.24-.02 1.65-.13.26-.29.42-.39.45-5.18 1.12-10.5-2.53-16.13-6.42l-1.84-1.27c-16.77-11.38-35.86-33.72-56.73-66.39a4.33 4.33 0 0 0-7.29 4.66c21.51 33.67 41.41 56.85 59.16 68.89l1.79 1.23c5.6 3.86 11.85 8.17 19.03 8.17z" class="uuid-a65a782c-66dc-49af-827c-ecf6e0771093"/></g><g id="g42"><path id="path39" d="M995.96 1414.43c-3.91-.83-29.32-8.03-52.28-58.96a4.32 4.32 0 1 1 7.88-3.55c22.22 49.29 45.99 54.02 46.17 54.06q.45.07.89.24c2.92 1.12 6.79 1.44 8.16.96-.06-.56-.38-1.93-1.96-4.5a185 185 0 0 0-5.79-8.47c-8.52-12.01-19.13-26.97-22.19-53.43-1.72-14.88-1.13-29.59-.57-43.82.51-12.92 1.04-26.28-.19-39.51a4.33 4.33 0 0 1 8.6-.81c1.29 13.81.75 27.46.23 40.66-.55 13.9-1.12 28.28.52 42.49 2.8 24.26 12.28 37.62 20.65 49.42 2.16 3.04 4.2 5.92 6.08 8.91 3.82 6.21 4.31 11.11 1.45 14.55-2.13 2.58-5.46 3.35-8.69 3.35a30 30 0 0 1-8.97-1.58z" class="uuid-a65a782c-66dc-49af-827c-ecf6e0771093"/><path id="path40" d="M820.95 1418.6c3.7 0 8.79-2.31 15.37-5.49 1.57-.76 2.91-1.41 3.77-1.76a4.32 4.32 0 1 0-3.18-8.04 71 71 0 0 0-4.35 2.01c-2.87 1.39-9.59 4.63-11.55 4.63-1.62-.27-3.54-1.9-3.53-3.8.02-2.12 2.1-4.18 4.61-6.46 25.52-23.13 41.46-55.45 52.49-81.03 5.67-13.14 9.35-24.73 12.92-35.94 4.59-14.46 8.94-28.13 17.13-43.95a4.31 4.31 0 1 0-7.67-3.97c-8.53 16.47-12.98 30.48-17.69 45.3-3.5 11.01-7.11 22.39-12.61 35.13-15.88 36.8-31.41 60.87-50.36 78.05-2.94 2.67-7.4 6.7-7.45 12.79-.06 6.66 5.5 11.54 10.9 12.42q.58.09 1.21.09z" class="uuid-a65a782c-66dc-49af-827c-ecf6e0771093"/><path id="path41" d="M897.07 1440.75c5.81 0 12.54-4.54 16.67-10.07 8.07-10.84 18.22-33.71 27.16-53.88 6.8-15.33 15.26-34.41 18.34-36.87a4.3 4.3 0 0 0 1.63-3.38v-1.14a4.32 4.32 0 0 0-8.59-.66c-4.35 5.13-10.14 17.94-19.28 38.55-8.76 19.76-18.69 42.15-26.19 52.22-3.68 4.94-9.07 7.16-10.1 6.55-.02-.01-1.52-1.68.16-9.2 2.51-11.23 6.63-22.88 10.99-35.21 5.46-15.44 11.1-31.39 14.05-47.98a4.32 4.32 0 1 0-8.51-1.51c-2.82 15.88-8.35 31.5-13.69 46.61-4.45 12.58-8.65 24.46-11.27 36.2-2.81 12.59.99 17.25 4.68 18.94q1.87.84 3.97.82z" class="uuid-a65a782c-66dc-49af-827c-ecf6e0771093"/><path id="path42" d="M837.89 1431.15c7.18 0 13.43-4.31 19.03-8.17l1.79-1.23c17.75-12.05 37.65-35.23 59.16-68.89a4.32 4.32 0 1 0-7.28-4.66c-20.88 32.67-39.96 55.01-56.74 66.39l-1.84 1.26c-5.63 3.88-10.94 7.57-16.13 6.42-.1-.02-.26-.18-.39-.45-.2-.4-.3-1.04-.02-1.64 2.61-5.46 8.11-12.58 15.07-21.6 7.69-9.96 17.25-22.34 27.28-38.07l1.24-1.92c3.99-6.21 10.03-15.58 11.99-21.92a4.32 4.32 0 1 0-8.26-2.56c-1.62 5.21-7.49 14.34-11.01 19.8l-1.25 1.95c-9.82 15.4-19.25 27.62-26.83 37.44-7.27 9.42-13.02 16.86-16.02 23.15a10.7 10.7 0 0 0 .04 9.16 9.3 9.3 0 0 0 6.31 5.1q1.98.43 3.86.42z" class="uuid-a65a782c-66dc-49af-827c-ecf6e0771093"/></g><path id="path43" d="M984.38 1257.9a10.1 10.1 0 0 0 9.76-7.51c36.26-136.66 47.47-222.82 53.48-269.11 2.24-17.24 3.72-28.64 5.37-33.11 4.92-13.4 14.6-33.71 25.8-57.22 27.62-57.95 62-130.07 62-172.5a4.32 4.32 0 0 0-8.64 0c0 40.47-35.35 114.64-61.15 168.79-11.3 23.71-21.06 44.18-26.12 57.96-1.98 5.38-3.42 16.52-5.82 34.98-5.99 46.09-17.15 131.89-53.27 268.01-.16.6-.6.86-.85.96-.25.11-.74.22-1.26-.1-6.98-4.2-12.42-7.12-16.17-8.67-6.75-2.79-13.73-4.6-19.67-6.01a325 325 0 0 0-45.27-7.37l-.12-1.18c2.07-13.93 42.53-285.31 47.24-306.52 4.81-21.64 84.88-284.7 85.69-287.36 10.22-33.7 21.36-67.94 35.19-83.9 20.62-23.2 57.23-35.36 92.63-47.13 8.9-2.96 18.1-6.02 26.81-9.18q6.84-2.58 13.39-4.98c10.97-4.04 21.34-7.85 30.49-11.98a4.33 4.33 0 0 0-3.56-7.88c-8.87 4-19.09 7.77-29.92 11.75q-6.6 2.42-13.41 4.99c-8.54 3.1-17.68 6.14-26.53 9.08-36.49 12.12-74.21 24.66-96.4 49.63-14.99 17.3-26.04 51.07-36.97 87.09-3.3 10.85-80.97 266.03-85.85 288-4.88 21.95-45.7 296-47.43 307.66q-.08.53-.03 1.07l.54 5.28a4.3 4.3 0 0 0 3.96 3.87 316 316 0 0 1 47.57 7.48c5.61 1.32 12.17 3.02 18.36 5.58 3.31 1.37 8.5 4.16 15.02 8.09a10 10 0 0 0 5.17 1.45z" class="uuid-a65a782c-66dc-49af-827c-ecf6e0771093"/><path id="path44" d="M1397.42 453.73a4.32 4.32 0 0 0 3.44-6.94c-3.83-5.05-7.83-18.21-8.12-24.73a4.33 4.33 0 0 0-8.64.4c.36 7.98 4.85 22.95 9.88 29.57a4.3 4.3 0 0 0 3.44 1.71z" class="uuid-a65a782c-66dc-49af-827c-ecf6e0771093"/><path id="path45" d="M1671.24 1261.03q1.17 0 2.18-.59a207 207 0 0 1 71.74-25.68 15.7 15.7 0 0 0 13.27-16.44l-.21-3.69q0-.18-.04-.36c-1.6-11.21-39.29-274.88-44.17-296.85-4.88-21.96-82.55-277.15-85.86-288-10.92-36.02-21.97-69.79-36.93-87.05-22.23-25.01-59.96-37.55-96.44-49.67-8.84-2.94-17.99-5.98-26.58-9.1-4.49-1.7-8.98-3.35-13.38-4.97-11.25-4.14-21.88-8.05-30.99-12.24a4.32 4.32 0 0 0-3.61 7.85c9.42 4.33 20.2 8.3 31.62 12.5q6.57 2.4 13.35 4.96c8.76 3.19 17.96 6.24 26.86 9.2 35.4 11.77 72.02 23.93 92.67 47.17 13.8 15.92 24.93 50.16 35.15 83.86.81 2.66 80.88 265.72 85.69 287.36 4.76 21.41 42.83 287.67 44.03 296.02l.2 3.51a7.1 7.1 0 0 1-6.02 7.41 216 216 0 0 0-73.68 26.14l-1.5-.02c-.57-.02-.74-.21-.81-.49-37.1-139.11-46.92-225.89-52.19-272.51-2.03-17.98-3.26-28.83-5.22-34.17-5.05-13.74-15.41-35.54-27.4-60.78-27.98-58.88-66.29-139.52-66.29-179.84a4.31 4.31 0 1 0-8.64 0c0 42.27 38.8 123.93 67.13 183.55 11.9 25.05 22.18 46.68 27.09 60.05 1.6 4.36 2.85 15.41 4.74 32.16 4.92 43.51 15.16 134.04 52.43 273.76a9.24 9.24 0 0 0 9.3 6.91l2.45.04h.05z" class="uuid-a65a782c-66dc-49af-827c-ecf6e0771093"/><path id="path46" d="M429.18 1391.22h394.35a4.32 4.32 0 0 0 0-8.64H429.18a4.32 4.32 0 0 0 0 8.64" class="uuid-a65a782c-66dc-49af-827c-ecf6e0771093"/><path id="path47" d="M888.38 1391.22h12.08a4.32 4.32 0 0 0 0-8.64h-12.08a4.32 4.32 0 0 0 0 8.64" class="uuid-a65a782c-66dc-49af-827c-ecf6e0771093"/><path id="path48" d="M900.46 1391.22h2.77a4.32 4.32 0 0 0 0-8.64h-2.77a4.32 4.32 0 0 0 0 8.64" class="uuid-a65a782c-66dc-49af-827c-ecf6e0771093"/><path id="path49" d="M934.08 1391.22h32.05a4.32 4.32 0 0 0 0-8.64h-32.05a4.32 4.32 0 0 0 0 8.64" class="uuid-a65a782c-66dc-49af-827c-ecf6e0771093"/><path id="path50" d="M999.19 1391.22h649.7a4.32 4.32 0 0 0 0-8.64h-649.7a4.32 4.32 0 0 0 0 8.64" class="uuid-a65a782c-66dc-49af-827c-ecf6e0771093"/><path id="path51" d="M1680.95 1391.22h34.04a4.32 4.32 0 0 0 0-8.64h-34.04a4.32 4.32 0 0 0 0 8.64" class="uuid-a65a782c-66dc-49af-827c-ecf6e0771093"/><path id="path52" d="M1749.85 1391.22h9.8a4.32 4.32 0 0 0 0-8.64h-9.8a4.32 4.32 0 0 0 0 8.64" class="uuid-a65a782c-66dc-49af-827c-ecf6e0771093"/><path id="path53" d="M1825 1391.22h473.19a4.32 4.32 0 0 0 0-8.64H1825a4.32 4.32 0 0 0 0 8.64" class="uuid-a65a782c-66dc-49af-827c-ecf6e0771093"/><g id="g60"><path id="path54" d="M1809.34 1549.12a5.75 5.75 0 0 0 5.81 7.28l383.8-25.76c7.28-.46 13.38-6 14.94-13.57l67.04-232.61c1.7-8.26-4.51-15.98-12.45-15.48l-378.71 16.45c-5.56.35-10.21 4.58-11.4 10.36z" class="uuid-0e0546c4-4ee6-471e-ad93-1386e92ef2a4"/><path id="path55" d="m1833.82 1457.99-182.72 13.44c-2.05.15-3.24 8.86-1.34 9.71l159.58 72.6z" class="uuid-0e0546c4-4ee6-471e-ad93-1386e92ef2a4"/><path id="path56" d="m1807.46 1551.34-158.76-71.98a6.4 6.4 0 0 1-3.63-7 6.24 6.24 0 0 1 5.72-5.24l182.72-13.44a4.33 4.33 0 0 1 .63 8.62l-173.92 12.79 150.8 68.37a4.32 4.32 0 0 1-3.57 7.87z" class="uuid-a65a782c-66dc-49af-827c-ecf6e0771093"/><path id="path57" d="M1812 1559.25a4.31 4.31 0 0 0 1.75-8.27c-58.76-26.05-146.48-65.33-159.82-72.32l-.23-3.97a4.34 4.34 0 0 0-8.64.51l.36 6.21q.21 3.67 83.71 41.3c40.1 18 80.7 36 81.1 36.18q.87.37 1.75.37z" class="uuid-a65a782c-66dc-49af-827c-ecf6e0771093"/><path id="path60" d="M1807.69 1556.77a12.2 12.2 0 0 1-2.6-10.59l69.08-251.18c1.58-7.65 7.9-13.33 15.45-13.8l378.63-16.45a16 16 0 0 1 13.07 5.56 17.7 17.7 0 0 1 3.81 15.42l-66.99 232.46c-2 9.35-9.73 16.26-18.85 16.84l-382.53 25.58-.7.02c-3.19 0-6.21-1.39-8.37-3.87zm391.04-30.36c5.31-.33 9.82-4.5 10.98-10.12l.08-.32 66.99-232.44a9 9 0 0 0-1.98-7.54 7.3 7.3 0 0 0-6.08-2.6l-378.63 16.45c-3.59.23-6.65 3.07-7.51 7.19l-69.08 251.18a3.3 3.3 0 0 0 .72 2.9c.31.36.99.95 1.99.89l382.52-25.58z" class="uuid-a65a782c-66dc-49af-827c-ecf6e0771093"/></g><g id="g61"><path id="polygon60" d="M1114.2 1568.78h318.92l-44.6-147.09h-234.35z" class="uuid-4fbef227-fb54-41a9-bce8-f1b27dd92e65"/><path id="path61" d="M1110.76 1571.4a4.3 4.3 0 0 1-.74-3.76l39.98-147.09a4.3 4.3 0 0 1 4.17-3.19h234.35c1.9 0 3.58 1.25 4.14 3.07l44.6 147.09a4.3 4.3 0 0 1-4.14 5.58H1114.2a4.3 4.3 0 0 1-3.43-1.7zm274.55-145.39h-227.84l-37.62 138.44h307.44z" class="uuid-a65a782c-66dc-49af-827c-ecf6e0771093"/></g><g id="g62"><path id="polygon61" d="M1140.04 1609.64h318.92l-44.6-147.09h-234.35z" class="uuid-4fbef227-fb54-41a9-bce8-f1b27dd92e65"/><path id="path62" d="M1136.61 1612.26a4.3 4.3 0 0 1-.74-3.76l39.98-147.08a4.3 4.3 0 0 1 4.17-3.19h234.35c1.9 0 3.58 1.25 4.14 3.07l44.6 147.08a4.33 4.33 0 0 1-4.13 5.58h-318.92a4.3 4.3 0 0 1-3.43-1.7zm274.55-145.39h-227.84l-37.63 138.44h307.44l-41.98-138.44z" class="uuid-a65a782c-66dc-49af-827c-ecf6e0771093"/></g><g id="g68"><g id="g65"><path id="path63" d="m780.92 1303.67-.78 167.83c0 7.97-29.28 14.43-65.4 14.43s-65.4-6.46-65.4-14.43l-.78-167.83h132.37z" class="uuid-1ffd57fc-2107-4844-b097-8735a94281fd"/><path id="path64" d="M649.34 1303.67c0 6.62 29.28 11.98 65.4 11.98s65.4-5.36 65.4-11.98-29.28-11.98-65.4-11.98-65.4 5.36-65.4 11.98" class="uuid-4fbef227-fb54-41a9-bce8-f1b27dd92e65"/><path id="path65" d="M648.56 1437.56c1.59 0 0-21.57 0-21.57-6.49-9.22-22.98-31.74-31.56-51.44-6.83-15.66-3.25-27.84 8.08-34.18 12.67-7.09 23.59 12.49 23.67 12.62l-2.37-22.31c-5.36-8.93-20.52-6.96-28.02-4.5-20.75 6.81-26.23 31-15.98 54.53 9.25 21.22 38.46 61.82 39.69 63.54a8 8 0 0 0 6.5 3.3z" class="uuid-1ffd57fc-2107-4844-b097-8735a94281fd"/></g><path id="path66" d="M645.01 1303.67c0-15.52 58.08-16.3 69.73-16.3s69.72.79 69.72 16.3-58.08 16.3-69.72 16.3-69.73-.79-69.73-16.3m69.73-7.66c-34.33 0-54.71 4.62-60.1 7.66 5.38 3.04 25.77 7.66 60.1 7.66s54.71-4.62 60.09-7.66c-5.38-3.04-25.77-7.66-60.09-7.66" class="uuid-a65a782c-66dc-49af-827c-ecf6e0771093"/><path id="path67" d="M714.74 1490.24c2.85 0 69.72-.21 69.72-18.75l.78-167.81a4.32 4.32 0 0 0-8.64-.04l-.78 167.62c-2.19 3.76-24.12 10.33-61.08 10.33s-58.89-6.57-61.08-10.33l-.78-167.62a4.32 4.32 0 0 0-8.64.04l.78 167.81c0 18.53 66.88 18.75 69.73 18.75z" class="uuid-a65a782c-66dc-49af-827c-ecf6e0771093"/><path id="path68" d="M638.56 1436.79c-3.14-4.36-30.95-43.21-40.15-64.34-6.72-15.41-7.27-31.75-1.47-43.71a30.6 30.6 0 0 1 20.31-16.73c12.11-3.18 25.63-5.56 32.83 6.46q.49.82.59 1.77l2.37 22.31a4.32 4.32 0 0 1-8.06 2.58c-.37-.64-9.19-15.78-17.79-10.98-9.71 5.43-11.92 15.62-6.22 28.69 7.66 17.57 21.68 37.34 29.21 47.96l1.92 2.72q.68.98.78 2.17c1.62 21.95.3 23.37-.98 24.75a4.8 4.8 0 0 1-3.32 1.46c-3.96 0-7.7-1.9-10-5.09zm4.56-21c-7.71-10.87-22.07-31.12-30.08-49.5-7.49-17.18-3.78-32.01 9.93-39.69 7.2-4.02 14.21-1.94 19.98 2.7l-.76-7.13c-3.42-4.88-9.37-5.31-22.74-1.79a21.9 21.9 0 0 0-14.72 12.14c-4.71 9.71-4.11 23.35 1.62 36.48 8.38 19.24 34.13 55.6 38.61 61.86-.05-3.69-.29-8.74-.61-13.35l-1.21-1.72z" class="uuid-a65a782c-66dc-49af-827c-ecf6e0771093"/></g><path id="path69" d="M1527.83 1387.5a4.3 4.3 0 0 0 4.32-4.32c0-114.13-2.4-230.25-19.78-306.49a4.32 4.32 0 1 0-8.42 1.92c17.19 75.41 19.56 190.95 19.56 304.57a4.3 4.3 0 0 0 4.32 4.32" class="uuid-a65a782c-66dc-49af-827c-ecf6e0771093"/><path id="path70" d="M1105.2 1391.22a4.3 4.3 0 0 0 4.31-4.1c.12-2.25 11.86-225.41 29.51-302.82a4.32 4.32 0 1 0-8.44-1.91c-17.81 78.13-29.6 302.04-29.71 304.29a4.3 4.3 0 0 0 4.09 4.54h.23z" class="uuid-a65a782c-66dc-49af-827c-ecf6e0771093"/><path id="path71" d="M1318.7 1388.65c2.36 0 4.29-1.9 4.32-4.26 0-.52.69-52.45-1.92-92.98q-.03-.72-.04-1.91c-.04-7.31-.17-26.71-19.29-38.58a4.32 4.32 0 1 0-4.56 7.34c15.07 9.36 15.16 24.17 15.21 31.29q0 1.48.05 2.41c2.58 40.18 1.91 91.79 1.9 92.31a4.3 4.3 0 0 0 4.26 4.38z" class="uuid-a65a782c-66dc-49af-827c-ecf6e0771093"/><path id="path72" d="M1329.09 400.06c9.13 0 18.25-2.55 25.92-7.66a4.32 4.32 0 1 0-4.79-7.19c-12.71 8.47-30.34 8.31-42.89-.4a4.33 4.33 0 0 0-4.93 7.1 47 47 0 0 0 26.7 8.16z" class="uuid-a65a782c-66dc-49af-827c-ecf6e0771093"/><g id="g74"><path id="path73" d="M733.32 1176.19s-14.7 13.1-12.39 31.82c1.15 10.29 8.07 17.32 6.34 27.61-1.44 9.83-5.76 14.51-4.9 27.14.86 13.11 7.21 17.79 7.21 17.79s-.29-9.83 3.46-18.72c3.17-7.96 10.37-14.51 10.08-27.14 0-18.72-8.93-24.34-11.53-35.57-2.88-10.76 1.73-22.93 1.73-22.93" class="uuid-9a16262f-d231-4ab7-bf96-3efcecb8c957"/><path id="path74" d="M703.07 1117.69s19.31 20.12 14.7 50.07c-2.02 13.11-11.82 24.34-9.8 36.97 2.02 12.64 7.2 21.06 6.34 37.91-1.15 16.38-12.1 23.87-12.1 23.87s1.73-9.36-4.61-26.68c-3.75-10.76-11.53-22.46-11.24-38.37.29-27.15 12.68-31.83 17.87-51.01 4.61-16.38-1.15-32.76-1.15-32.76z" class="uuid-9a16262f-d231-4ab7-bf96-3efcecb8c957"/></g></g></g></svg>