<svg xmlns="http://www.w3.org/2000/svg" id="uuid-6640aa67-486f-4e12-8db2-c9989a130120" data-name="&amp;lt;Layer&amp;gt;" viewBox="0 0 1721.58 1248.31"><defs id="defs1"><style id="style1">.uuid-cf2984af-ec8e-466c-97b1-3ca3b7801557 {
        fill: #92b4d9;
      }

      .uuid-cf2984af-ec8e-466c-97b1-3ca3b7801557, .uuid-3fe2a766-4544-4c26-894d-2617ca39b2e7, .uuid-c35ec507-3146-4f6f-9981-b7069a8fb83e, .uuid-3cc5c57a-8690-493b-892d-ecdaf7f7d6c4, .uuid-b0b01164-f04b-489a-988c-1e43be76ac67, .uuid-f426c98c-41bb-478a-ae00-679de1d450f2, .uuid-4a90776a-f8f1-4d41-adf9-47f07ce2ef57, .uuid-dfba4e42-f769-49bf-86d1-129a0a1152ff, .uuid-9cbf1d93-210c-477e-a445-0c04ad71337a, .uuid-717aacc1-6679-4699-8a19-3c3f0b971fb2, .uuid-9c938e17-4e97-4984-b542-7f8f7ad91619 {
        stroke-width: 0px;
      }

      .uuid-cf2984af-ec8e-466c-97b1-3ca3b7801557, .uuid-3fe2a766-4544-4c26-894d-2617ca39b2e7, .uuid-c35ec507-3146-4f6f-9981-b7069a8fb83e, .uuid-b0b01164-f04b-489a-988c-1e43be76ac67, .uuid-f426c98c-41bb-478a-ae00-679de1d450f2, .uuid-4a90776a-f8f1-4d41-adf9-47f07ce2ef57, .uuid-dfba4e42-f769-49bf-86d1-129a0a1152ff, .uuid-9cbf1d93-210c-477e-a445-0c04ad71337a, .uuid-717aacc1-6679-4699-8a19-3c3f0b971fb2, .uuid-9c938e17-4e97-4984-b542-7f8f7ad91619 {
        fill-rule: evenodd;
      }

      .uuid-3fe2a766-4544-4c26-894d-2617ca39b2e7 {
        fill: #d7624e;
      }

      .uuid-c35ec507-3146-4f6f-9981-b7069a8fb83e {
        fill: #ecedcf;
      }

      .uuid-3cc5c57a-8690-493b-892d-ecdaf7f7d6c4, .uuid-b0b01164-f04b-489a-988c-1e43be76ac67 {
        fill: #571519;
      }

      .uuid-f426c98c-41bb-478a-ae00-679de1d450f2 {
        fill: #f5d5a6;
      }

      .uuid-4a90776a-f8f1-4d41-adf9-47f07ce2ef57 {
        fill: #f8ebd9;
      }

      .uuid-dfba4e42-f769-49bf-86d1-129a0a1152ff {
        fill: #fff;
      }

      .uuid-9cbf1d93-210c-477e-a445-0c04ad71337a {
        fill: #d3cfcc;
      }

      .uuid-717aacc1-6679-4699-8a19-3c3f0b971fb2 {
        fill: var(--color-character-woman-skin, #ecded3);
      }

      .uuid-9c938e17-4e97-4984-b542-7f8f7ad91619 {
        fill: #f6d1c9;
      }</style></defs><g id="uuid-625a8a7f-19c4-4576-8ef0-057c66c7b5d9" data-name="Sketch" style="display:inline" transform="translate(-611.696 -324.685)"><path id="path22" d="m1579.54 1060.27-13.26-8.53-19.38-6.64-22.12-6.17-11.46-8.59-2.82-8.85 13.81-81.16 74.81-128.81s18.25-1.59 39.09-4.93c16.64-2.67 33.79-7.1 52.96-8.09 25.48-1.32 41.56.62 62.04 2.43 9.54.85 24.68 2.21 33.76 2.21 58.66 0 257.41 42.07 257.41 42.07s30.33 19.89 68.3 44.86c15.82 10.4 31.57 18.86 47.83 30.59 13.46 9.7 27.81 22.41 37.99 33.37 20.31 21.88 24.87 56 24.87 70.02s-4.88 39.71-19.15 66.44c-23.74 44.45-61.89 91.51-61.89 91.51s-4.15 14.01-12.89 32.87c-3.23 6.97-14.59 27.04-27.66 53.98-12.19 25.13-26.01 56.79-31.94 74.33-6.08 18-13.02 44.34-12.79 68 .35 36.39 6.74 67.13 15.78 102.64a7571 7571 0 0 0 14.83 57.39l-527.75.57 7.32-47.42 10.67-49.19 8.89-48.11 4.14-42.42-1.17-36.13-3.32-38.27-6.58-42.04-7.77-45.12-4.65-48.09-2.5-38.26 4.3-34.6z" class="uuid-cf2984af-ec8e-466c-97b1-3ca3b7801557" style="display:inline;fill:var(--color-character-clothing-1, #8275bd);fill-opacity:1"/><path id="path23" d="M1671.12 604.95c3.35-12.66 6.51-48.24 11.96-86.06 4.49-31.12 10.54-66.91 25.39-94.79 29.78-55.52 85.82-88.86 121.81-94.54 7.26-1.14 20.45-.76 30.29 2.44 15.08 4.92 27.49 13.56 39.45 10.68 23.75-5.38 48.27-10.24 89.63 14.17 20.45 10.31 42.08 35.3 54.62 62.84 13.53 24.78 45.69 97.38 59.49 117.34 4.53 6.54 21.73 18.64 38.82 30.66 16.53 11.63 32.79 23.02 47.05 38.06 15.95 16.82 21.9 39.55 22.49 52.63.73 9.32 2.23 20.95-3.16 36.77-6.29 18.46-17.73 39.7-21.64 57.29-1.99 8.97-1.65 15.95.71 22.82 2.71 7.91 7.94 14.97 15.91 19.07 6.95 3.57 16.42 1.86 20.68-1.65 3.68-3.03 9.45-10.75 9.42-18.46-.03-8.61-5.99-17.07-3.84-16.29 6.86 2.49 12.92 7.65 16.11 13.78 6.69 12.85 5.56 29.96 2.71 39.06-2.46 7.86-9.89 17.87-16.55 21.88-8.23 4.96-13.72 5.63-19.94 4.62-4.09-.67 7.12 3.49 22.53 9.98 11.94 5.03 26.55 10.64 37.56 21.62 23.45 23.39 29.87 63.78 28.98 78.28-.1 1.73-.95 18.26-5.43 31.25-7.22 20.9-19.68 43.3-22.17 60.13-1.2 8.11.39 17.65 2.36 24.16.8 2.65 7.71 12.05 13.83 17.36s11.41 6.52 17.17 4.27c4.57-1.8 11.49-7.63 14.15-13.93 3.69-8.76 2.36-18.03 3.74-15.19 13.63 28.08-18.11 66.53-45.6 74.55-3.68 1.07-11.02 2.95-16.1 3.62-12.17 1.62-22.74.37-22.74.37s-14.5 9.27-30.32 9.16-32.96-9.57-32.96-9.57 44.2-61.36 45.45-112.44c.49-20-7.15-40.36-16.12-54.63-11.62-18.49-25.47-28.26-26.81-29.5-19.55-18.13-91.36-62.67-106.85-72.04-17.49-10.59-40.52-28.81-56.36-40.74-66.95-50.43-161.43-39.9-199.83-26.67-6.03 2.08-17.55 5.3-34.77 5.51-17.27.21-36.64-1.62-52.66-2.7-15.74-1.06-28.26-1.37-28.26-1.37s14.29-13 8.08-25.14c-6.15-12.01-18.63-21.45-29.76-32.7-9.84-9.94-18.74-22.29-19.64-24.9-3.06-8.29-5.5-21.18-5.32-32.03.57-34.78 10.34-55.97 16.44-79.06z" class="uuid-3fe2a766-4544-4c26-894d-2617ca39b2e7" style="display:inline;fill:var(--color-character-woman-hair, #130d0c);fill-opacity:1"/><path id="path24" d="M1829.98 766.93s-21.68-17.9-34.56-37.18c-12.2-20.21-24.19-49.48-24.19-49.48s-14.07-1.32-24.9-7.98c-10.84-6.65-18.45-18.65-18.45-18.65s17.08-20.23 32.02-38.05c15.92-19.3 21.84-28.01 33.21-49.48 15.71-30.35 14.87-68.73 40.3-84.22 37.35-23.11 73.05-9.88 78.23-8.24s20.02 2.15 33.86 17.18c19.91 22.28 37 58.29 55.18 80.02 3.68 4.59 15.98 15.93 27.04 22.48 13.51 7.99 25.4 12.17 25.4 12.17s-2.58 10.61-10.48 18.78-20.75 12.59-20.75 12.59.04 26.83-5.9 51.54-23.26 55.32-23.26 55.32-41.78 48.99-73.3 52.32c-36.73 3.87-89.47-29.12-89.47-29.12z" class="uuid-717aacc1-6679-4699-8a19-3c3f0b971fb2" style="fill:var(--color-character-woman-skin, #ecded3);fill-opacity:1"/><path id="path25" d="M1786.75 803.22s10.52-.53 15.97-1.59 15.15-3.61 15.15-3.61-.71-18.05-1.09-22.85-2.63-26.37-2.63-26.37l194.99-36.34s-.75 15.64-1.32 22.99-.95 22.81-1.13 31.48c-.19 8.67 1.32 23.93 2.45 32.6s.95 16.4 5.47 21.3c4.53 4.9 6.41 6.41 12.44 10.93a963 963 0 0 1 17.34 13.57s-22.31 40.39-60.2 66.34c-17.01 11.65-33.95 20.24-54.11 24.44-18.09 3.77-39.51 3.89-53.53 1.6-29.66-4.84-61-29.29-75.44-59.06-16.92-34.88-14.35-75.42-14.35-75.42z" class="uuid-717aacc1-6679-4699-8a19-3c3f0b971fb2" style="fill:var(--color-character-woman-skin, #ecded3);fill-opacity:1"/><path id="path26" d="m1012.71 889.58 469.69-.36 42.66 54.3s1.14 14.51 2.31 21.47 1.54 18.5 1.81 26.96a86 86 0 0 1-1.37 20.06c-1.24 7.55-4.11 11.1-4.11 11.1s-9.84-2.41-21.31-4.58-70.7-8.18-80.28-9.23-67.69-6.38-80.71-6.65c-13.01-.26-61.34-3.92-69.15-4.49s-33.63-5.41-40-7.11-45.89-14.47-60.7-21.87-74.43-32.36-90.83-41.39-34.14-17.92-45.13-23.86-22.88-14.36-22.88-14.36z" class="uuid-717aacc1-6679-4699-8a19-3c3f0b971fb2" style="fill:var(--color-character-woman-skin, #ecded3);fill-opacity:1"/><path id="path27" d="M667.55 355.43h846.69v533.96H667.55Z" class="uuid-f426c98c-41bb-478a-ae00-679de1d450f2"/><path id="path28" d="M624.49 623.82s-8.73-12.23-8.84-20.73 8.39-13.26 8.39-13.26-4.46-10.48-2.59-19.06 10.06-15.25 10.06-15.25-4.59-9.2-2.58-14.63c3.15-8.49 14.14-13.93 22.08-18.35a825 825 0 0 1 16.17-8.79l.46 37.04s24.7 10.18 32.67 18.19-.76 13.84-.76 13.84 10.65 6.58 12.02 12.32-6.55 10.65-6.55 10.65 9.97 4.03 8.22 9.89-15.21 13.54-15.21 13.54 6.91 6.52 6.09 9.81c-1.2 4.77-8.01 9.97-16.38 14.59-10.42 5.74-23.27 10.41-30.78 10.28-8.52-.15-26.54-10.31-33.27-19.46-6.37-8.67.81-20.62.81-20.62z" class="uuid-717aacc1-6679-4699-8a19-3c3f0b971fb2" style="display:inline;fill:var(--color-character-woman-skin, #ecded3);fill-opacity:1"/><path id="path29" d="M1721.79 1231.5c-3.94-4.95-29.73-36.63-56.55-80.78-22.22-36.58-49.65-76.56-62.86-100.24-3.73-6.69-51.72-78.19-68.84-100.61-2.08-2.71-9.28-8-9.28-8s-13.81-5.37-24.32-18.61c-10.52-13.25-17.75-34.36-17.75-34.36l29.87-.26 1.34-41.29s-14.95-.3-25.76-6.07c-9.68-5.15-15.25-15.41-16.8-21.98-1.58-6.71-3.96-17-2.74-24.42.88-5.29 5.5-7.79 4.88-12.49-.41-3.06-.46-20.6 9.41-27.86 8.14-5.99 26.55-1.87 26.19-4.22-.37-2.38-10.21-7.12-20.45-4.21-4.92 1.39-13.67 7.41-19.72 11.95-12.42 9.33-23.54 19.84-37.31 23.12-13.12 3.13-13.49-6.46-13.12-9.16.65-4.8 9.08-11.53 20.89-23.65 9.42-9.66 21.26-24.54 30.96-31.54 6.94-5.01 19.85-9.56 22.31-10.04 10.21-2.01 18.05 3.48 28.81 9.96 9.91 5.97 23.56 12.91 23.46 11.72-.49-5.74-8.15-21.29-16.49-29.55-10.87-10.77-31.97-15.39-43.4-23.36-11.67-8.14-13.55-19.55-11.91-22.67 1.19-2.26 15.84.7 34.73 6.07 5.66 1.61 14.42 3.35 19.89 5.34 12.23 4.46 24.42 12.17 27.56 14.74 6.36 5.21 14.66 19.91 19.55 27.61 11.16 17.59 22.66 35.46 26.65 52.49 4.27 18.24.6 35.13-.1 37.76-3.31 12.53-6.12 46.85-5.35 71.95.59 19.3 4.28 31.47 5.5 34.3 5.13 11.84 36.31 54.88 66.39 87.21 40.17 43.19 81.26 76.61 85.64 80.41 12.67 11 37.96 29.03 65.38 47.91 39.05 26.88 80.31 54.61 80.31 54.61s15.32-12.91 32.54-32.26c17.23-19.34 36.89-45.57 36.89-45.57s6.73 15.62 20.43 35.01c8.44 11.95 20.39 25.52 32.45 37.19 14.88 14.39 33.49 27.8 47.52 36.44 15.83 9.75 26.63 14.96 26.63 14.96s-6.8 9.91-27.75 32.1c-12.96 13.73-35.53 35.91-53.46 49.75-21.49 16.59-40.77 31.34-62.8 42.17-26.5 13.03-54.79 20.53-66.57 20.74-22.32.41-61.79-24.26-93.43-53.06-31.7-28.86-55.57-61.87-69.4-79.25z" class="uuid-717aacc1-6679-4699-8a19-3c3f0b971fb2" style="display:inline;fill:var(--color-character-woman-skin, #ecded3);fill-opacity:1"/></g><g id="uuid-6489cb88-abb3-4ec8-96b6-aa7e46fa20a2" data-name="Ñëîé 2" style="display:inline" transform="translate(-611.696 -324.685)"><path id="path30" d="M1914.56 801.11c-10.09 0-34.55-2.2-68.66-19.85-30.59-15.63-43.21-35.37-50.75-47.16-14.12-21.13-25.59-51.24-32.98-72.04a4.58 4.58 0 0 1 8.62-3.06c7.23 20.34 18.42 49.74 32.02 70.11 7.54 11.8 18.87 29.52 47.27 44.03 41.72 21.58 68.15 18.71 68.42 18.67a4.57 4.57 0 0 1 1.14 9.07c-.28.03-2.01.24-5.08.24z" class="uuid-3cc5c57a-8690-493b-892d-ecdaf7f7d6c4" style="display:inline;fill:#000000;fill-opacity:1"/><path id="path31" d="M1891.73 669.12a4.58 4.58 0 0 1-2.89-8.12c3.22-2.63 11.24-10.94 9.68-17.69-.54-2.22-1.95-3.2-5.1-5.2-4.39-2.8-10.41-6.63-13.18-17.21-1.61-5.23-1.85-13.33-.71-26.07a4.57 4.57 0 0 1 9.11.81c-1 11.19-.87 18.63.4 22.75 1.91 7.3 5.33 9.47 9.3 11.99 3.58 2.28 7.63 4.86 9.08 10.8 3.13 13.52-11.17 25.57-12.81 26.9a4.5 4.5 0 0 1-2.87 1.02z" class="uuid-3cc5c57a-8690-493b-892d-ecdaf7f7d6c4" style="fill:#000000;fill-opacity:1"/><path id="path32" d="M1814.23 620.2c-1.39-8.8 2.28-16.75 8.55-18.56 6.4-1.01 13.01 4.51 14.52 14.11 1.38 8.8-2.28 16.76-8.55 18.56-6.4 1.01-13.13-5.3-14.52-14.11" class="uuid-b0b01164-f04b-489a-988c-1e43be76ac67" style="fill:#000000;fill-opacity:1"/><path id="path33" d="M1703.29 800.4a4.57 4.57 0 0 1-3.43-7.59c12.66-14.35 3.68-23.59-14.66-40.01-11.47-10.27-24.48-21.92-29.39-37.23-10.2-31.76-1.81-62.83 5.6-90.26a791 791 0 0 0 3.19-12.04c4.9-20.62 7.59-42.43 10.43-65.52 3.66-29.75 7.45-60.5 16.42-92.14 13.97-48.54 50.14-91.93 96.76-116.08 59.02-30.6 87.81-4.59 89.01-3.47a4.58 4.58 0 0 1-6.23 6.69c-1.08-.98-25.74-22.48-78.57 4.9-44.43 23.03-78.89 64.33-92.17 110.48-8.77 30.94-12.51 61.35-16.13 90.75-2.88 23.35-5.59 45.4-10.63 66.59a870 870 0 0 1-3.24 12.24c-7.07 26.2-15.09 55.89-5.72 85.08 4.16 12.95 15.66 23.25 26.79 33.21 16.25 14.55 34.68 31.05 15.42 52.87a4.6 4.6 0 0 1-3.43 1.55z" class="uuid-3cc5c57a-8690-493b-892d-ecdaf7f7d6c4" style="fill:#000000;fill-opacity:1"/><path id="path34" d="M1792.31 574.11a4.57 4.57 0 0 1-3.07-7.94c1.02-.93 25.33-22.54 56.97-11.66a4.57 4.57 0 1 1-2.97 8.65c-26.49-9.1-47.01 9.01-47.87 9.79a4.5 4.5 0 0 1-3.06 1.17z" class="uuid-3cc5c57a-8690-493b-892d-ecdaf7f7d6c4" style="fill:#000000;fill-opacity:1"/><path id="path35" d="M1804.17 618.16a4.57 4.57 0 0 1-3.33-7.7c7.44-7.92 28.28-14.93 41.87-8.39a4.57 4.57 0 0 1-3.97 8.23c-9.42-4.54-25.88.71-31.23 6.41a4.6 4.6 0 0 1-3.33 1.44z" class="uuid-3cc5c57a-8690-493b-892d-ecdaf7f7d6c4" style="fill:#000000;fill-opacity:1"/><path id="path36" d="M1919.86 800.78a4.57 4.57 0 0 1-.58-9.1c.38-.06 22.63-3.53 55.32-36.52 23.37-23.35 32.07-46.74 35.17-58.6 6.69-23.64 8.3-55.06 8.92-76.65a4.7 4.7 0 0 1 4.7-4.44 4.6 4.6 0 0 1 4.44 4.7c-.64 22.08-2.29 54.26-9.24 78.79-3.32 12.67-12.64 37.79-37.51 62.65-35.35 35.68-59.64 39.01-60.66 39.14z" class="uuid-3cc5c57a-8690-493b-892d-ecdaf7f7d6c4" style="fill:#000000;fill-opacity:1"/><path id="path37" d="M1956.5 596.95c-1.39-8.8-7.32-15.24-13.85-15.03-6.4 1.01-10.99 8.29-9.48 17.89 1.39 8.8 7.32 15.24 13.85 15.03 6.4-1.01 10.99-8.29 9.48-17.89" class="uuid-b0b01164-f04b-489a-988c-1e43be76ac67" style="fill:#000000;fill-opacity:1"/><path id="path38" d="M1906.33 553.68a4.56 4.56 0 0 1-2.74-8.23c26.79-20.07 56.55-6.99 57.8-6.43a4.56 4.56 0 1 1-3.77 8.32c-1.04-.47-26.17-11.36-48.56 5.42-.82.62-1.79.91-2.74.91z" class="uuid-3cc5c57a-8690-493b-892d-ecdaf7f7d6c4" style="fill:#000000;fill-opacity:1"/><path id="path39" d="M1927.11 597.14a4.57 4.57 0 0 1-3.31-7.71c10.69-11.28 32.7-10.51 42.58-5.06a4.57 4.57 0 1 1-4.42 8c-6.37-3.52-24.06-4.53-31.53 3.35a4.6 4.6 0 0 1-3.32 1.43z" class="uuid-3cc5c57a-8690-493b-892d-ecdaf7f7d6c4" style="fill:#000000;fill-opacity:1"/><path id="path40" d="M1711.18 730.38a4.6 4.6 0 0 1-4.28-2.96c-14.66-38.83 13.78-71.62 25.92-85.61 1.56-1.8 2.89-3.33 3.88-4.58 6.04-7.72 11.75-14.52 17.28-21.11 21.27-25.33 38.06-45.34 47.8-89.11 7.52-33.81 21.76-75.4 46.9-81.47 13.17-3.16 27.01 3.89 41.21 21a4.57 4.57 0 1 1-7.04 5.83c-11.78-14.21-22.56-20.25-32.03-17.95-15.81 3.82-30.43 31-40.12 74.57-10.22 45.95-27.66 66.71-49.73 93a760 760 0 0 0-17.1 20.88c-1.07 1.35-2.49 3-4.16 4.92-12.01 13.85-37.02 42.66-24.28 76.4a4.57 4.57 0 0 1-4.28 6.19z" class="uuid-3cc5c57a-8690-493b-892d-ecdaf7f7d6c4" style="fill:#000000;fill-opacity:1"/><path id="path41" d="M2074.12 612.96c-11.93 0-51.68-3.97-88.19-52.92-6.2-8.36-11.92-17.95-17.45-27.21-16.42-27.5-31.94-53.47-60.13-54.08a4.57 4.57 0 0 1-4.47-4.67 4.65 4.65 0 0 1 4.67-4.47c33.25.72 50.81 30.11 67.78 58.54 5.42 9.07 11.02 18.45 16.95 26.44 39.34 52.75 81.63 49.33 83.43 49.14a4.56 4.56 0 0 1 .92 9.09c-.29.03-1.5.14-3.51.14" class="uuid-3cc5c57a-8690-493b-892d-ecdaf7f7d6c4" style="fill:#000000;fill-opacity:1"/><path id="path42" d="M1901.13 432.34a4.57 4.57 0 0 1-4.55-4.21c-1.25-15.72-7.3-27.46-17.98-34.89-12.45-8.66-30.23-10.62-48.8-5.39a4.57 4.57 0 0 1-2.48-8.8c21.21-5.98 41.81-3.54 56.5 6.68 12.84 8.94 20.4 23.35 21.87 41.66a4.57 4.57 0 0 1-4.2 4.92l-.37.01z" class="uuid-3cc5c57a-8690-493b-892d-ecdaf7f7d6c4" style="fill:#000000;fill-opacity:1"/><path id="path43" d="M1769.13 684.19c-2.18 0-4.29-.35-6.21-.67-14.63-3-26.64-10.68-34.89-22.24a4.58 4.58 0 0 1 7.45-5.32c6.89 9.65 16.95 16.07 29.11 18.57 2.06.34 4.16.69 5.82.43a4.57 4.57 0 0 1 1.41 9.03q-1.36.2-2.68.2z" class="uuid-3cc5c57a-8690-493b-892d-ecdaf7f7d6c4" style="fill:#000000;fill-opacity:1"/><path id="path44" d="M1754.53 646.48a4.6 4.6 0 0 1-3.72-1.91 43 43 0 0 0-4.47-5.14 4.57 4.57 0 1 1 6.36-6.56c3.17 3.07 5.45 6.26 5.55 6.39a4.57 4.57 0 0 1-3.72 7.22" class="uuid-3cc5c57a-8690-493b-892d-ecdaf7f7d6c4" style="fill:#000000;fill-opacity:1"/><path id="path45" d="M2022.59 641.12a4.56 4.56 0 0 1-.71-9.09c1.65-.26 3.52-1.23 5.5-2.25 10.34-5.11 18.07-14.52 21.89-26.56a4.56 4.56 0 1 1 8.71 2.77c-4.58 14.43-13.96 25.77-26.42 31.93-2.4 1.24-5.15 2.66-8.26 3.16q-.36.06-.72.06z" class="uuid-3cc5c57a-8690-493b-892d-ecdaf7f7d6c4" style="fill:#000000;fill-opacity:1"/><path id="path46" d="M2059.73 611.49q-1.19 0-2.29-.62c-27.78-16.1-37.08-38.11-47.86-63.59-8.65-20.47-18.47-43.67-39.83-69.77a4.57 4.57 0 0 1 7.07-5.79c22.2 27.12 32.28 50.96 41.18 72 10.55 24.97 18.9 44.68 44.02 59.25a4.56 4.56 0 0 1-2.3 8.53z" class="uuid-3cc5c57a-8690-493b-892d-ecdaf7f7d6c4" style="fill:#000000;fill-opacity:1"/><path id="path47" d="M1803.13 849.88a4.58 4.58 0 0 1-2.64-8.31c13.45-9.48 15.48-64.28 8.36-85.61a4.57 4.57 0 0 1 8.67-2.89c7.6 22.77 6.91 82.81-11.76 95.97-.8.56-1.72.83-2.63.83z" class="uuid-3cc5c57a-8690-493b-892d-ecdaf7f7d6c4" style="fill:#000000;fill-opacity:1"/><path id="path48" d="M2028 855.18a4.5 4.5 0 0 1-3.08-1.2c-18.61-16.99-27.58-75.6-20.87-136.33a4.58 4.58 0 0 1 9.08 1.01c-7.05 63.79 3.59 115.47 17.94 128.58a4.56 4.56 0 0 1-3.08 7.95z" class="uuid-3cc5c57a-8690-493b-892d-ecdaf7f7d6c4" style="fill:#000000;fill-opacity:1"/><path id="path49" d="M1601.21 816.04a4.58 4.58 0 0 1-.67-9.09 2175 2175 0 0 0 25.49-3.96c31.64-5.04 56.69-9.02 89.79-8.16 7.53.19 16.33.97 25.64 1.79 25.63 2.26 54.67 4.82 73.34-2.74a4.57 4.57 0 1 1 3.43 8.47c-20.72 8.39-50.92 5.73-77.58 3.38-9.17-.81-17.83-1.57-25.07-1.76-32.32-.79-56.95 3.09-88.12 8.06-8.04 1.28-16.49 2.63-25.59 3.97q-.34.05-.67.05z" class="uuid-3cc5c57a-8690-493b-892d-ecdaf7f7d6c4" style="fill:#000000;fill-opacity:1"/><path id="path50" d="M1884.25 1368.11q-4.74 0-7.89-.84c-53.51-14.08-98.53-61.07-135.52-105.16-46.03-54.89-82.95-114-118.64-171.17-27.93-44.73-56.81-90.98-90.08-135.34a4.57 4.57 0 1 1 7.31-5.48c33.51 44.67 62.49 91.09 90.52 135.98 35.53 56.9 72.27 115.74 117.9 170.14 33.95 40.48 79.51 88.69 130.84 102.2 12.39 3.26 71-7.06 140.15-67.64 22.15-19.4 48.44-46.04 72.15-73.09a4.57 4.57 0 0 1 6.87 6.03c-23.96 27.34-50.56 54.28-73 73.93-59.81 52.4-115.81 70.45-140.61 70.45z" class="uuid-3cc5c57a-8690-493b-892d-ecdaf7f7d6c4" style="fill:#000000;fill-opacity:1"/><path id="path51" d="M2112.71 1228.37q-1.08 0-2.1-.51a4.6 4.6 0 0 1-1.95-6.16c4.15-7.98 13.58-20.29 25.52-35.88 33.28-43.46 88.98-116.2 84.29-171.87-4.61-54.77-50.18-83.36-98.42-113.63a1670 1670 0 0 1-19.81-12.56c-6.3-4.08-12.6-8.04-18.83-11.96-25.16-15.84-48.93-30.81-67.96-49.84a4.56 4.56 0 1 1 6.46-6.46c18.31 18.31 41.65 33.01 66.37 48.57 6.26 3.94 12.58 7.92 18.92 12.02 6.55 4.24 13.15 8.38 19.7 12.49 50.23 31.52 97.68 61.28 102.67 120.61 4.99 59.19-49.85 130.8-86.14 178.19-11.67 15.24-20.89 27.27-24.66 34.54a4.6 4.6 0 0 1-4.06 2.46z" class="uuid-3cc5c57a-8690-493b-892d-ecdaf7f7d6c4" style="fill:#000000;fill-opacity:1"/><path id="path52" d="M1923.8 1283.46q-.56 0-1.11-.14a4.56 4.56 0 0 1-3.32-5.54c7.89-31.59-6.47-71.27-15.73-92.11-2.59-5.83-23.57-19.91-47.87-36.23-64.35-43.2-184.12-123.59-258.6-242.18a4.57 4.57 0 1 1 7.74-4.86c73.45 116.94 192.18 196.64 255.96 239.45 32.06 21.52 47.62 32.21 51.13 40.1 11.9 26.77 24.38 65.51 16.24 98.04a4.56 4.56 0 0 1-4.43 3.46z" class="uuid-3cc5c57a-8690-493b-892d-ecdaf7f7d6c4" style="fill:#000000;fill-opacity:1"/><path id="path53" d="M1902.3 1175.2a4.58 4.58 0 0 1-3.01-8.01c21.19-18.53 47.49-50.04 65.03-73.37a4.57 4.57 0 0 1 7.3 5.5c-17.82 23.68-44.6 55.76-66.32 74.75a4.6 4.6 0 0 1-3.01 1.13z" class="uuid-3cc5c57a-8690-493b-892d-ecdaf7f7d6c4" style="fill:#000000;fill-opacity:1"/><path id="path54" d="M1962.52 1084.2a4.57 4.57 0 0 1-3.19-7.84c16.26-15.83 31.4-32.64 46.04-48.9 23.93-26.57 46.53-51.67 68.51-65.74a4.57 4.57 0 0 1 4.92 7.71c-20.94 13.4-43.15 38.05-66.65 64.15-14.75 16.37-29.99 33.3-46.46 49.34a4.5 4.5 0 0 1-3.19 1.3z" class="uuid-3cc5c57a-8690-493b-892d-ecdaf7f7d6c4" style="fill:#000000;fill-opacity:1"/><path id="path55" d="M1529.33 925.98a4.6 4.6 0 0 1-3.63-1.79c-15.63-20.32-13.5-49.18-11.63-74.64 1.21-16.48 2.36-32.04-2.43-39.21a4.58 4.58 0 0 1 7.6-5.08c6.53 9.78 5.33 26.08 3.95 44.95-1.75 23.83-3.75 50.84 9.76 68.4a4.56 4.56 0 0 1-3.62 7.36z" class="uuid-3cc5c57a-8690-493b-892d-ecdaf7f7d6c4" style="fill:#000000;fill-opacity:1"/><path id="path56" d="M1515.03 831.75c-7.9 0-17.52-7.25-26.82-15.23l-.89-.76a4.57 4.57 0 1 1 5.93-6.95l.91.78c10.81 9.27 18.05 13.61 21.37 12.98a4.57 4.57 0 1 1 1.72 8.98q-1.09.21-2.23.21z" class="uuid-3cc5c57a-8690-493b-892d-ecdaf7f7d6c4" style="fill:#000000;fill-opacity:1"/><path id="path57" d="M1509.76 852.14c-10.47 0-24.42-6.14-29.05-9.84-9.72-7.77-17.33-25.66-17.33-40.72 0-10.29 3.37-18.43 9.75-23.53 8.55-6.83 21.58-5.29 31.1-4.18l3.16.36c14.14 1.49 25.42 2.18 35.5 2.18a4.57 4.57 0 1 1 0 9.14c-10.41 0-21.99-.71-36.45-2.23l-3.28-.37c-7.93-.93-18.77-2.21-24.32 2.24-5.22 4.18-6.32 11.22-6.32 16.39 0 12.39 6.24 27.45 13.9 33.58 6.77 5.42 23.93 9.65 26.66 7.33-.07 0 .16-1.98-3.34-7.23a4.57 4.57 0 0 1 7.61-5.07c5.71 8.56 6.35 14.96 1.92 19.03-2.28 2.08-5.65 2.91-9.51 2.91z" class="uuid-3cc5c57a-8690-493b-892d-ecdaf7f7d6c4" style="fill:#000000;fill-opacity:1"/><path id="path58" d="M1472.63 785.48a4.57 4.57 0 0 1-4.57-4.57c0-13 3.24-22.11 9.91-27.86 11.26-9.72 29.42-7.03 46.97-4.43 7.78 1.15 15.81 2.34 22.76 2.34a4.57 4.57 0 1 1 0 9.14c-7.62 0-16-1.24-24.1-2.44-15.51-2.3-31.56-4.68-39.66 2.31-4.54 3.91-6.74 10.76-6.74 20.94a4.57 4.57 0 0 1-4.57 4.57" class="uuid-3cc5c57a-8690-493b-892d-ecdaf7f7d6c4" style="fill:#000000;fill-opacity:1"/><path id="path59" d="M1425.74 786.03c-2.75 0-5.36-.45-7.43-1.64a9 9 0 0 1-4.57-7.67c-.41-9.64 6.33-16.02 14.86-24.1 2.92-2.76 6.23-5.9 9.58-9.47 1.95-2.08 3.87-4.25 5.86-6.51 5.37-6.09 11.47-13 19.91-20.04 11.33-9.44 23.7-14.32 33.89-13.37 9.3.86 25.45 9.58 42.55 18.81 12.32 6.65 25.05 13.52 32.91 15.97a4.57 4.57 0 0 1-2.71 8.73c-8.71-2.71-21.26-9.48-34.54-16.66-14.82-8-31.61-17.06-39.06-17.75-7.66-.71-17.85 3.5-27.19 11.29-7.91 6.59-13.5 12.93-18.91 19.07-2.06 2.33-4.04 4.58-6.05 6.72-3.53 3.77-6.95 7-9.97 9.86-8.05 7.62-12.24 11.84-12.01 17.07 1.9 1.72 12.95-.72 17.01-2.86 8.39-4.43 14.19-9.29 20.32-14.44 6.6-5.54 13.42-11.27 23.44-16.15 4.62-2.25 15.61-3.64 22.32-.69 4.02 1.77 5.58 4.56 6.18 6.58a4.58 4.58 0 0 1-8.77 2.59c-.07-.23-.5-.55-1.1-.81-4.04-1.78-12.12-.69-14.63.54-9.01 4.39-15.11 9.51-21.57 14.93-6.23 5.23-12.67 10.65-21.93 15.53-1.56.82-10.59 4.48-18.41 4.48z" class="uuid-3cc5c57a-8690-493b-892d-ecdaf7f7d6c4" style="fill:#000000;fill-opacity:1"/><path id="path60" d="M1601.17 909.24a4.6 4.6 0 0 1-4.32-3.09c-10.18-29.58-6.11-62.85-2.84-89.58q.69-5.57 1.28-10.79.45-3.9 1-8.05c1.8-13.87 3.84-29.59-.75-41.67-7.15-18.8-36.19-68.11-40.85-72.02-8.36-6.69-24.49-13.65-34.31-15.94-6.28-1.46-12.87-3.45-19.25-5.37-7.99-2.4-19.83-5.93-23.78-5.57.85 12.68 15.66 18.74 30 24.61 6.99 2.86 13.59 5.56 18.7 9.06 10.79 7.38 18.16 18.75 22.55 34.76a4.57 4.57 0 0 1-8.82 2.41c-3.84-14.02-9.84-23.44-18.89-29.62-4.31-2.95-10.48-5.47-17.01-8.14-15.84-6.49-35.57-14.56-35.71-34.03a7.5 7.5 0 0 1 2.99-6.27c5.25-3.93 14.79-1.32 32.61 4.05a316 316 0 0 0 18.69 5.22c10.75 2.51 28.31 9.99 37.94 17.71 7.32 5.85 37.17 58.79 43.67 75.9 5.4 14.23 3.21 31.16 1.27 46.1q-.54 4.07-.98 7.89-.6 5.26-1.3 10.88c-3.16 25.8-7.08 57.91 2.41 85.5a4.57 4.57 0 0 1-4.32 6.06z" class="uuid-3cc5c57a-8690-493b-892d-ecdaf7f7d6c4" style="fill:#000000;fill-opacity:1"/><path id="path61" d="M1534.52 955.6a4.6 4.6 0 0 1-3.63-1.79c-3.41-4.45-8.92-7.96-14.74-11.68-5.17-3.31-10.52-6.73-14.78-11.1-8.02-8.26-12.78-17.94-17.39-27.31-1.44-2.93-2.89-5.89-4.45-8.82a4.56 4.56 0 1 1 8.07-4.29c1.61 3.02 3.1 6.06 4.59 9.08 4.48 9.13 8.72 17.76 15.74 24.97 3.52 3.62 8.2 6.61 13.15 9.77 6.23 3.98 12.67 8.1 17.07 13.83a4.56 4.56 0 0 1-3.62 7.35z" class="uuid-3cc5c57a-8690-493b-892d-ecdaf7f7d6c4" style="fill:#000000;fill-opacity:1"/><path id="path62" d="M1516.8 1025.96q-.38 0-.75-.06c-50.92-8.4-118.47-13.62-172.74-17.82-42.62-3.29-79.42-6.14-98.25-9.64-39.17-7.28-170.93-66.23-230.67-100.68a4.57 4.57 0 1 1 4.56-7.92c57.86 33.37 190.11 92.61 227.78 99.61 18.35 3.42 54.93 6.24 97.28 9.52 54.45 4.21 122.22 9.44 173.53 17.91a4.56 4.56 0 0 1-.74 9.08" class="uuid-3cc5c57a-8690-493b-892d-ecdaf7f7d6c4" style="fill:#000000;fill-opacity:1"/><path id="path63" d="M1560.73 1570.66q-.3 0-.6-.04a4.57 4.57 0 0 1-3.93-5.13c5.21-39.34 10.44-61.93 15.5-83.77 5.04-21.77 9.8-42.33 13.7-77.35 4.34-39.09-3.67-91.81-11.42-142.8-7.2-47.36-14.65-96.33-11.96-133.89 2.16-30.15 11.74-60.38 19.44-84.68q1.97-6.18 3.75-11.92a4.57 4.57 0 1 1 8.74 2.68q-1.8 5.77-3.77 12c-7.55 23.83-16.95 53.5-19.03 82.57-2.61 36.54 4.76 85 11.88 131.86 7.84 51.57 15.95 104.9 11.47 145.18-3.95 35.56-8.77 56.37-13.88 78.4-5.01 21.63-10.19 44-15.34 82.9a4.6 4.6 0 0 1-4.52 3.97z" class="uuid-3cc5c57a-8690-493b-892d-ecdaf7f7d6c4" style="fill:#000000;fill-opacity:1"/><path id="path64" d="M2086.42 1573a4.6 4.6 0 0 1-4.48-3.67c-3.67-18.35-7.22-31.03-10.64-43.29-6.44-23.03-12.52-44.78-18.62-99.63-6.48-58.35 29.29-128.76 63.88-196.84 7.77-15.3 15.11-29.75 21.96-44.03a4.56 4.56 0 0 1 6.1-2.14 4.56 4.56 0 0 1 2.14 6.1 2108 2108 0 0 1-22.05 44.21c-33.98 66.89-69.13 136.06-62.94 191.7 6.01 54.12 12 75.52 18.33 98.17 3.48 12.42 7.07 25.27 10.8 43.95a4.57 4.57 0 0 1-4.48 5.47" class="uuid-3cc5c57a-8690-493b-892d-ecdaf7f7d6c4" style="fill:#000000;fill-opacity:1"/><path id="path65" d="M694.67 588.27q-1.75 0-3.8-.22c-17.73-1.92-40.12-6.16-56.03-22.02-4.98-4.97-10.85-12.72-10.59-21.46.16-5.33 2.56-10.07 7.11-14.09 5.74-5.07 12.89-8.73 19.8-12.27 3.81-1.95 7.41-3.8 10.67-5.81a4.58 4.58 0 0 1 4.8 7.78c-3.57 2.21-7.5 4.22-11.3 6.17-6.41 3.28-13.03 6.68-17.92 10.99-2.62 2.32-3.94 4.77-4.02 7.52-.13 4.27 2.68 9.49 7.91 14.71 13.81 13.78 33.3 17.54 50.55 19.41 5.2.56 7.03-.41 7.23-.7.68-1.47-3.19-8.27-10.24-12.08a106 106 0 0 0-14.8-6.79c-5-1.8-8.78-4.49-12.44-7.08-2.69-1.91-5.23-3.71-8.09-5.02a4.57 4.57 0 0 1 3.81-8.31c3.64 1.67 6.66 3.81 9.57 5.88 3.3 2.35 6.42 4.56 10.25 5.94a114 114 0 0 1 16.05 7.35c8.94 4.84 17.07 14.94 14.61 22.83-.89 2.86-3.79 7.29-13.15 7.29z" class="uuid-3cc5c57a-8690-493b-892d-ecdaf7f7d6c4" style="fill:#000000;fill-opacity:1"/><path id="path66" d="M672.31 614.46c-9.55 0-19.11-.92-26.84-3.81-14.35-5.37-25.67-17.2-28.17-29.42-1.33-6.5-.88-16.19 8.79-25.4a4.57 4.57 0 1 1 6.3 6.62c-5.33 5.08-7.4 10.78-6.14 16.95 1.86 9.12 11.08 18.45 22.42 22.69 11.76 4.4 30.12 3.38 42.91 2.23 8.85-.8 14.87-4.72 15.29-7.18.18-1.05-1.27-3.64-7.82-6.64a4.57 4.57 0 1 1 3.81-8.31c12.15 5.56 13.79 12.04 13.03 16.49-1.51 8.81-13.23 13.81-23.48 14.74-6.24.56-13.17 1.04-20.09 1.04z" class="uuid-3cc5c57a-8690-493b-892d-ecdaf7f7d6c4" style="fill:#000000;fill-opacity:1"/><path id="path67" d="M656.06 642.38q-10.88 0-17.58-3.83c-9.74-5.58-25.6-19.7-26.72-33.85-.53-6.69 2.25-12.69 8.03-17.34a4.57 4.57 0 0 1 5.73 7.11c-3.46 2.79-4.94 5.81-4.65 9.51.75 9.53 13.35 21.59 22.15 26.63 7.71 4.41 23.74 3.22 45.16-3.34 8.12-2.48 20.34-9.81 20.56-13.1.01-.15-.61-1.25-3.61-2.62a4.57 4.57 0 0 1 3.81-8.31c7.77 3.56 9.14 8.24 8.92 11.53-.83 12.47-26.74 21.15-27 21.23-13.83 4.24-25.46 6.36-34.8 6.36z" class="uuid-3cc5c57a-8690-493b-892d-ecdaf7f7d6c4" style="fill:#000000;fill-opacity:1"/><path id="path68" d="M659.4 668.45c-10.35 0-19.87-4.29-29.83-12.98-4.51-3.94-11.24-9.81-12.14-17.07-.44-3.63.44-6.69 1.23-9.39.42-1.44.81-2.79.95-4.07a4.56 4.56 0 1 1 9.08.98 32 32 0 0 1-1.26 5.64c-.62 2.12-1.15 3.96-.93 5.72.47 3.79 6.02 8.64 9.01 11.25 15.15 13.23 27.33 14.19 46.58 3.73 11.22-6.1 16.99-10.89 17.16-14.24.08-1.61-1.86-3.27-3.49-4.38a4.58 4.58 0 0 1 5.12-7.58c5.21 3.52 7.73 7.69 7.5 12.39-.43 8.95-10.79 15.78-21.92 21.83-9.99 5.43-18.79 8.17-27.07 8.17z" class="uuid-3cc5c57a-8690-493b-892d-ecdaf7f7d6c4" style="fill:#000000;fill-opacity:1"/><path id="path69" d="M1901.28 944.65c-11.24 0-22.43-1.53-33.41-4.66-53.27-15.22-86.68-66.9-85.12-131.64a4.57 4.57 0 0 1 4.57-4.46h.11a4.6 4.6 0 0 1 4.46 4.68c-1.46 60.45 29.35 108.59 78.49 122.63 59.44 17.01 125.86-17.1 169.32-86.81a4.57 4.57 0 1 1 7.76 4.84c-37.77 60.58-92.5 95.43-146.17 95.43z" class="uuid-3cc5c57a-8690-493b-892d-ecdaf7f7d6c4" style="fill:#000000;fill-opacity:1"/><path id="path70" d="M2213.66 800.93q-2.37 0-4.78-.49c-9.97-2.05-19.83-10.7-23.96-21.04-7.51-18.77 2.12-40.7 9.85-58.31 1.68-3.83 3.29-7.49 4.64-10.92 8.86-22.55 10.84-44.4 5.86-64.94-8.13-33.52-34.18-51.54-61.76-70.61-13.7-9.48-27.87-19.28-39.76-31.17-8.68-8.68-21.94-36.41-37.3-68.52-11.27-23.56-22.92-47.91-34.15-67.83-16.85-29.87-50.88-55.35-82.76-61.97-20.88-4.34-39.87-.6-54.94 10.8a4.56 4.56 0 1 1-5.51-7.29c17.24-13.04 38.77-17.35 62.31-12.46 34.82 7.23 70.53 33.93 88.86 66.43 11.39 20.19 23.1 44.68 34.44 68.38 14.38 30.05 27.95 58.43 35.52 66 11.31 11.31 25.13 20.87 38.5 30.12 27.78 19.21 56.5 39.08 65.44 75.98 5.43 22.4 3.33 46.1-6.23 70.43a315 315 0 0 1-4.78 11.26c-7.42 16.89-15.82 36.03-9.73 51.24 3.01 7.52 10.29 14.03 17.31 15.48 4.93 1.01 9.4-.44 13.29-4.32 4.38-4.39 6.55-11.25 5.27-16.68a9.4 9.4 0 0 0-6.51-7.18 4.57 4.57 0 0 1 2.89-8.67 18.5 18.5 0 0 1 12.51 13.75c2.01 8.48-1.09 18.63-7.7 25.24-4.79 4.79-10.63 7.3-16.81 7.3z" class="uuid-3cc5c57a-8690-493b-892d-ecdaf7f7d6c4" style="fill:#000000;fill-opacity:1"/><path id="path71" d="M2216.5 842.04q-2.55 0-5.06-.42a4.57 4.57 0 0 1 1.5-9.02c6.3 1.05 13.02-.76 18.91-5.08 7.4-5.42 12.56-13.89 13.82-22.67 3.26-22.8-2.77-36.68-18.42-42.42a4.57 4.57 0 1 1 3.14-8.58c13.78 5.05 29.19 18.22 24.33 52.29-1.6 11.16-8.12 21.91-17.47 28.75-6.39 4.68-13.61 7.13-20.76 7.14z" class="uuid-3cc5c57a-8690-493b-892d-ecdaf7f7d6c4" style="fill:#000000;fill-opacity:1"/><path id="path72" d="M2302.61 1089.62c-3.82 0-7.68-1.05-11.46-3.14-12.55-6.94-21.51-24.38-22.01-36.32-.79-18.94 6.36-34.46 13.28-49.48 2.87-6.24 5.85-12.69 8.24-19.36 13.58-37.7 3.5-85.61-23.44-111.42-10.13-9.71-22.71-14.15-36.03-18.86-13.72-4.84-27.9-9.85-39.12-21.07a4.56 4.56 0 1 1 6.46-6.46c9.75 9.75 22.36 14.21 35.7 18.92 13.65 4.82 27.76 9.81 39.31 20.88 29.87 28.62 40.68 79.56 25.71 121.12-2.53 7.04-5.59 13.67-8.54 20.09-6.76 14.68-13.15 28.54-12.45 45.28.38 9.24 7.86 23.48 17.3 28.7 4.74 2.62 9.24 2.65 13.74.08 4.88-2.79 10.69-9.95 10.86-15 .07-1.89-.7-3.27-2.49-4.46a4.57 4.57 0 0 1 5.07-7.61c4.41 2.94 6.73 7.34 6.56 12.38-.33 9.59-9.43 19.17-15.46 22.62a22.5 22.5 0 0 1-11.23 3.12z" class="uuid-3cc5c57a-8690-493b-892d-ecdaf7f7d6c4" style="fill:#000000;fill-opacity:1"/><path id="path73" d="M2253.47 1139.15a62 62 0 0 1-6.44-.33c-16.26-1.67-29.92-9.65-39.5-23.07a4.56 4.56 0 1 1 7.43-5.31c8.02 11.22 19.43 17.89 33.01 19.29 18.56 1.9 39.97-6 55.85-20.66 9.92-9.16 20.05-24.34 20.31-37.64.12-6.43-1.99-11.74-6.49-16.23a4.56 4.56 0 1 1 6.46-6.46 30.4 30.4 0 0 1 9.17 22.88c-.34 17.08-12.74 34.47-23.25 44.17-15.97 14.74-37.1 23.36-56.55 23.36" class="uuid-3cc5c57a-8690-493b-892d-ecdaf7f7d6c4" style="fill:#000000;fill-opacity:1"/><path id="path74" d="M2208.33 1147.68c-9.9 0-19.4-2.31-27.67-6.93a4.57 4.57 0 1 1 4.46-7.98c14.26 7.98 33.92 7.52 51.31-1.17a4.57 4.57 0 0 1 4.09 8.17c-10.53 5.27-21.6 7.91-32.2 7.91z" class="uuid-3cc5c57a-8690-493b-892d-ecdaf7f7d6c4" style="fill:#000000;fill-opacity:1"/><path id="path75" d="M1577.48 1063.28c-.89 0-1.79-.26-2.58-.8-12.35-8.47-24.71-11.8-35.61-14.73-6.22-1.67-12.09-3.25-17.29-5.6-15.06-6.81-16.18-13.92-16.17-15.94a5.3 5.3 0 0 1 2.87-4.56 4.8 4.8 0 0 1 5.04.86c1.66 1.5 2.71 1.79 2.96 1.69 1.8-.81 6.86-9.83 6.53-39.71-.12-11.42-1.14-24.03-3.33-40.9a4.6 4.6 0 0 1 3.95-5.12 4.6 4.6 0 0 1 5.12 3.95c2.23 17.24 3.28 30.19 3.4 41.97.29 26.67-3.27 42.6-10.58 47.41q1.69.97 3.98 2.01c4.52 2.04 10.04 3.53 15.89 5.11 11.6 3.12 24.76 6.66 38.4 16.01a4.58 4.58 0 0 1-2.59 8.34z" class="uuid-3cc5c57a-8690-493b-892d-ecdaf7f7d6c4" style="fill:#000000;fill-opacity:1"/><path id="path76" d="M2111.87 1228.41q-.55 0-1.11-.14c-65.73-16.43-140.29-95.93-152.96-147.07a4.56 4.56 0 1 1 8.87-2.19c11.97 48.33 85.07 125.09 146.3 140.4a4.57 4.57 0 0 1-1.1 9" class="uuid-3cc5c57a-8690-493b-892d-ecdaf7f7d6c4" style="fill:#000000;fill-opacity:1"/><g id="g78"><path id="path77" d="M1863.15 708.16s18.54-7.12 39.13-10.94c19.68-3.65 40.1-6.08 40.1-6.08s-2.19 41.08-29.89 47.16c-29.21 6.4-49.34-30.14-49.34-30.14" class="uuid-dfba4e42-f769-49bf-86d1-129a0a1152ff" style="display:inline"/><path id="path78" d="M1905.49 743.64c-27.67 0-45.54-31.8-46.35-33.28a4.57 4.57 0 0 1 2.37-6.47c.77-.3 19.17-7.32 39.94-11.16 19.6-3.63 40.18-6.1 40.39-6.12a4.58 4.58 0 0 1 5.1 4.78c-.1 1.82-2.73 44.63-33.48 51.37q-4.11.89-7.97.88m-35.41-33.1c6.23 8.97 21.79 27.58 41.42 23.3 18.3-4.02 23.98-26.76 25.65-37.42-7.44.98-20.97 2.88-34.05 5.3a246 246 0 0 0-33.03 8.82z" class="uuid-3cc5c57a-8690-493b-892d-ecdaf7f7d6c4" style="fill:#000000;fill-opacity:1"/></g><g id="g93"><path id="path79" d="M1514.28 893.98H667.43a4.6 4.6 0 0 1-4.57-4.57V669.88a4.58 4.58 0 0 1 9.14 0v214.96h837.71v-30.55a4.57 4.57 0 1 1 9.14 0v35.12a4.57 4.57 0 0 1-4.57 4.57" class="uuid-3cc5c57a-8690-493b-892d-ecdaf7f7d6c4" style="fill:#000000;fill-opacity:1"/><path id="path80" d="M1514.28 712.41a4.57 4.57 0 0 1-4.57-4.57v-12.29a4.57 4.57 0 1 1 9.14 0v12.29a4.57 4.57 0 0 1-4.57 4.57" class="uuid-3cc5c57a-8690-493b-892d-ecdaf7f7d6c4" style="fill:#000000;fill-opacity:1"/><path id="path81" d="M1514.28 658.89a4.57 4.57 0 0 1-4.57-4.57V360.59H672v183.76a4.58 4.58 0 0 1-9.14 0V356.02a4.6 4.6 0 0 1 4.57-4.57h846.85a4.57 4.57 0 0 1 4.57 4.57v298.3a4.57 4.57 0 0 1-4.57 4.57" class="uuid-3cc5c57a-8690-493b-892d-ecdaf7f7d6c4" style="fill:#000000;fill-opacity:1"/><path id="path82" d="M1095.52 604.93c-.78 0-1.56-.2-2.25-.59L667.95 363.23a4.56 4.56 0 1 1 4.51-7.95l423.04 239.81 414.15-240.75a4.57 4.57 0 1 1 4.6 7.91l-416.42 242.06q-1.08.62-2.3.62z" class="uuid-3cc5c57a-8690-493b-892d-ecdaf7f7d6c4" style="fill:#000000;fill-opacity:1"/></g></g></svg>