<svg xmlns="http://www.w3.org/2000/svg" id="uuid-34f28f90-ce96-480d-8c43-dba4c957c7ae" data-name="&amp;lt;Layer&amp;gt;" viewBox="0 0 2083.8 1176.7"><defs><clipPath id="uuid-658873ae-1453-43f0-8d8d-579824076f00"><path d="M256.25 1033.1c44.33 548.21 500.48 777.13 1117.9 777.13s1086.2-265.07 1117.9-777.13C2522.55 539.87 2286.21 21 1374.15 21S216.45 540.46 256.25 1033.1" class="uuid-42b88642-46a0-4f02-aac1-c2b0a388f945"/></clipPath><style>.uuid-cb370d5a-d46d-4b74-86c4-4fbfbf89a18a {
        clip-path: url(#uuid-658873ae-1453-43f0-8d8d-579824076f00);
      }

      .uuid-85a3b159-a6d5-4774-9eab-51927924b804 {
        fill: #bbc0cb;
      }

      .uuid-7f8afa59-6768-48d7-9140-3081915ce7f5 {
        fill: #e2dcdc;
      }

      .uuid-5b005c62-ffdb-4e70-8cbf-799b12eb7cda, .uuid-d4ed8e31-f7e7-46a5-88a1-18397f29645d {
        fill: #fff;
      }

      .uuid-2ea9db6c-572b-40f7-afbd-414955cef2b4 {
        fill: #576784;
      }

      .uuid-d4ed8e31-f7e7-46a5-88a1-18397f29645d, .uuid-a787dda1-3d3c-44ac-81b4-1702e8f6dfea {
        fill-rule: evenodd;
      }

      .uuid-42b88642-46a0-4f02-aac1-c2b0a388f945 {
        fill: none;
      }

      .uuid-6016fd8e-8ba3-4f92-85ce-0cc06f9cebd2 {
        fill: #b7bdc8;
      }

      .uuid-79f6700f-312d-42ac-918b-4a35160fcf1a {
        fill: #39465e;
      }

      .uuid-d4ec3462-6e28-437f-b19a-3500cbccebd2 {
        fill: var(--color-character-woman-hair, #130d0c);
      }

      .uuid-9127ec59-c79c-454d-a901-3bad1eeceb7c {
        fill: var(--color-character-woman-skin, #ecded3);
      }

      .uuid-b1c10787-bfd1-479b-bb93-c0a8b439ebd3 {
        fill: #6acfee;
      }</style></defs><g class="uuid-cb370d5a-d46d-4b74-86c4-4fbfbf89a18a" clip-path="url(#uuid-658873ae-1453-43f0-8d8d-579824076f00)" transform="translate(-334.08 -325.14)"><g data-name="Ñëîé-3"><path d="m1983.2 872.13-14.38-27.89-119.67 12.51-11.6 22.09s-100.43 31.06-110.95 60.96c-10.88 30.91-15.04 81.88-17.57 121.03-3.32 51.49-5.5 90.31-5.5 90.31s-29.23-4.39-66.16-15.77-81.52-29.74-81.52-29.74l-28.35 55.19 5.56 17.82s93.05 51.25 149.67 70.23 76.8 5.69 76.8 5.69l-10.06 73.37 222.5-.83 91.16-83.58 9.72-105.58 26.23 103.18 94.62-6.31s1.58-22.65-2.52-46.9c-10.81-64.05-38.42-181.72-68.5-241.38-16.38-32.49-50-44.66-82.49-55.31-28.33-9.29-57.01-19.09-57.01-19.09z" class="uuid-5b005c62-ffdb-4e70-8cbf-799b12eb7cda" style="fill:var(--color-character-clothing-4, #fef556)"/><path d="m2366.7 1228.7-4.88-3.95-357.92 20.52-4.76 6.38-47.63 132.09-197.08 11.66-3.71 5.83 2.53 7.28 159.19 83.57 3.09 6.55 351.97-40.62 8.13-7.19z" class="uuid-85a3b159-a6d5-4774-9eab-51927924b804"/><path d="M2007.6 660.77s-7.9-13.62-22.44-26.71c-9.85-8.87-17.65-20.64-30.05-24.69-39.67-12.96-94.75 4.41-122.38 9.65-27.65 5.24-43.11 26.75-41.79 46.99 1.06 16.33 14.26 33.37 14.26 33.37l87.95 91.2 58.37 14.18s17.1-4.6 32.69-16.16 29.67-30.09 29.67-30.09.47 23.91 6.58 52.82c4.08 19.28-2.89 40-6.08 55.03-1.89 8.93-.23 17.82-.23 17.82l34.84 9.98 33.94 12.41s-2.63-12.95-2.27-24.4c.44-13.77 3.73-27.45 1.28-41.5-4.33-24.86-16.59-34.78-19.57-63.44-3.86-37.2 2.61-60.77-3.93-84.93-13.34-49.35-50.86-31.52-50.86-31.52z" class="uuid-d4ec3462-6e28-437f-b19a-3500cbccebd2"/><path d="M1511.6 1093.2c-11.68-7.08-26.52-3.44-39.29-.56-12.12 2.74-22.49 4.55-22.49 4.55l-85.02 43.43s-10.98.01-15.31 2.59-2.04 7.73-2.04 7.73-5.3 4.22-1.38 7.82 17.08 6.57 17.08 6.57 25.94 22.5 54.29 22.38c24.7-.1 61-23.86 87.86-29.92 14.12-3.19 38.99 12.83 38.99 12.83s8.5-13.33 11.09-27.08-.33-29.91-.33-29.91-23.3-8.22-43.45-20.43" class="uuid-9127ec59-c79c-454d-a901-3bad1eeceb7c"/><path d="M1417.8 987.61s-59.02-14.67-120.95-23.42-126.76-11.58-126.76-11.58-3.05 18.7-21.12 47.37c-18.06 28.67-51.14 67.33-51.14 67.33l11.93 1.32-4.14 8.32s84.23-5.08 165.44 17.04c44.28 12.06 88.98 35.4 119.27 51.23 25.28 13.21 40.13 20.21 40.13 20.21l-4.45-23.02 19.18 4.77-6.85-22.68 19.65 4.71z" class="uuid-5b005c62-ffdb-4e70-8cbf-799b12eb7cda"/><path d="M893.58 721.63c-11.69-26.26-35.29-4.52-35.29-4.52l-17.28-3.21s-11.29-15.64-32.08-29.03-51.08-24.53-51.08-24.53l-76.11-11.37s-39.48 2.94-68.27 10.08c-43.83 10.87-44.68 26.26-44.68 26.26l-16.46 6.38s-24.36-30.77-40.51 19.32c-20.97 65.06-34.73 217.84-31.47 250.69 2.91 29.26 22.09 32.2 35.11 29.55 12.85-2.61 19.56-10.62 19.56-10.62s5.96-29.72 14.71-64.52S570 841.43 570 841.43s10.81 45.02 16.35 84.35c4.22 29.97 1.71 55.48 1.69 57.19-.07 4.5 7.38 19.41 26.3 26.85 40.26 15.83 117.36 24.13 163.54 3.13 18.42-8.38 24.96-29.86 32.95-50.23 13.92-35.51 20.83-73.34 20.83-73.34l26.98 115.2s6.86 7.36 26.87 7.53c20 .16 27.49-21.78 27.49-21.78s2.27-44.44.37-100.49c-2.17-63.81-8.15-142.08-19.77-168.19zM788.12 1096.5s-5.94-18.52-44.56-24.06-109.94 1.9-109.94 1.9-18.13 3.56-30.42 11.51-18.73 20.3-18.73 20.3-11.59-15.38-23.54-19.28-24.25 3.65-24.25 3.65l-3.12 101.43 27.23 135.3 65.33-.96 10.57-63.69s17.9 10.75 39.09 12.91 45.67-4.25 45.67-4.25l5.94 55.36h103.08s18.76-151.43 8.17-208.95c-10.58-57.53-50.5-21.16-50.5-21.16zm75.48-622.98s-32.78-23.37-62.99-34.24-59.49-13.56-59.49-13.56 26.89-56.2 23.38-56.78-33.69 56.3-33.69 56.3-49.65.36-64.16 18.12c-19.98 24.45-32.1 84.69-22.52 106.8 5.13 11.85 17.06 24.96 26.43 34.56 25.56 26.2 81.73 60.24 117.06 67.79 31.49 6.73 43.81-11.66 43.81-11.66l50.75-112.76s7.8-16.17 5.12-28.46c-2.69-12.29-15.86-20.69-15.86-20.69s20.26-56.63 18.4-58.45-26.24 53.03-26.24 53.03" class="uuid-5b005c62-ffdb-4e70-8cbf-799b12eb7cda" style="fill:var(--color-character-extra, #e9edf2)"/><path d="M1147.1 973.56s-18.42 3-31.14 7.29-19.71 9.87-19.71 9.87-6.52 11.31 3.83 33.88c4.54 9.89 29.85 8.62 29.85 8.62l31.01-43.2z" class="uuid-5b005c62-ffdb-4e70-8cbf-799b12eb7cda"/><path d="M546.79 1217.5c-13.92-12.79-38.73-3.77-41.11 1.02-4.44 8.94-4.99 47.79-4.99 47.79l11.72 10.02 53.55.23s-5.25-46.27-19.17-59.06" class="uuid-5b005c62-ffdb-4e70-8cbf-799b12eb7cda" style="fill:var(--color-character-extra, #e9edf2)"/><path d="M1940.2 736.01c-8.23-1.86-29.74 8.59-53.86-8.71-29.13-20.9-60.79-70-60.79-70s-9.6 7.49-14.2 27.11c-3.17 13.53.16 36.52-6.02 51.83-2.55 6.32-17.78 5.58-20.07 11.93-4.36 12.06 7.72 15.37 9.16 29.72 1.81 17.88-5.14 46.75 9.29 59.63 6.78 6.05 43.2 2.51 48.27 7.47 7.12 6.97 10.36 29.63 10.36 29.63l12.75 28.7s5.08 29.01 9.63 46.76c4.54 17.75 8.55 24.24 8.55 24.24l19.71-70.69s17.9-12.58 29.92-25.38a112 112 0 0 0 18.16-25.8l-9.96-56.55-11.33-16.37s10.53-7.24 14.2-18.87c2.55-8.07 4.45-20.55-13.78-24.66z" class="uuid-9127ec59-c79c-454d-a901-3bad1eeceb7c"/><path d="M882.69 527.6s-26.82-3.79-54.23-14.66-55.4-28.82-55.4-28.82-8.9.63-20.57 24.73c-8.88 18.34-22.67 58.26-16.1 75.2 15.19 39.2 97.46 56.87 97.46 56.87s16.9-17.1 33.2-56.42c18.2-43.89 15.64-56.91 15.64-56.91z" class="uuid-79f6700f-312d-42ac-918b-4a35160fcf1a"/><path d="M887.6 718.51c-5.28-20.41-30.24-1.22-30.24-1.22l-10.22 83.58-1.43 16.11s20.64 2.24 31.96-20.06c10.99-21.63 12.72-67.64 9.94-78.41z" class="uuid-6016fd8e-8ba3-4f92-85ce-0cc06f9cebd2"/><path d="m1095.2 992.38-13.75 2.49 2.53 37.32 9.8.83 8.68-3.39-7.25-37.26zM874.23 737.15c-7.8-20.53-34.08-24.6-34.08-24.6s8.54 12.28 10.06 33.96c1.52 21.69-3.99 52.8-3.99 52.8s18.36-3.4 25.36-18.94 10.46-22.68 2.65-43.22M551.61 689.7s17.75 20.35 27.52 40.37 11.56 39.72 11.56 39.72 22.7-23.72 16.68-45.17c-13.01-46.35-55.77-34.91-55.77-34.91zm-22.44 293.6s-12.34 8.92-23.42 8.49c-11.07-.43-20.88-10.23-20.88-10.23l-3.5 10.25.75 14.61 16.56 6.41 22.51 4.66s8.74-5.92 10.73-14.46-2.75-19.73-2.75-19.73m363.98 26.6-26.81-1.2s1.07 5.52 5.61 10.43 12.55 9.18 12.55 9.18zm-353.91 186.7-36.32 4.49v8.16l1.8 7.75 37.19-4.66.71-6.97z" class="uuid-b1c10787-bfd1-479b-bb93-c0a8b439ebd3"/><path d="M755.94 1075.6c-14.73-4.73-87.03-4.65-116.79-1.41s-2.26 14.39-2.26 14.39l116.94-.28s16.85-7.97 2.11-12.7" class="uuid-6016fd8e-8ba3-4f92-85ce-0cc06f9cebd2"/><path d="M567.91 1280.7s22.79 25.72 19.79 3.29c-.61-4.58-9.27-23.2-15.3-31.96-8.16-11.85-14.2-13.69-14.2-13.69l5.23 30.52s-6.59-1.8-9.67 1.94-2.66 13-2.66 13-6.51-9.23-11.34-9.18c-4.82.03-7.95 9.33-7.95 9.33s-4.44-8.77-8.97-10.51-9.15 3.54-9.15 3.54-2.73-19.91-14.11-7.23c-3.86 4.3-1.16 15.66.76 24.37 3.74 16.99 11.59 33.28 11.59 33.28l51.91.28 4.07-46.99zm183.14-259.6s-28.77 3.99-57.93 2.6-58.71-8.16-58.71-8.16l1.01 72.88s27.61 6.48 56.37 6.73 58.66-5.72 58.66-5.72l.6-68.32zm-22.83-392.13-34.88-24.7s-3.07 5.39-6.85 24.22c-3.78 18.84-8.27 51.12-8.27 51.12s16.59 8.65 34.47 10.98 37.05-1.65 37.05-1.65l8.56-45.1z" class="uuid-2ea9db6c-572b-40f7-afbd-414955cef2b4"/><path d="m761.63 584.61.49-.02c3.1-.27 5.4-3 5.13-6.1-1.14-13.31 5.11-28.59 11.74-44.77q1.62-3.95 3.21-7.91a5.64 5.64 0 0 0-10.48-4.18q-1.57 3.92-3.17 7.82c-7.16 17.48-13.92 33.98-12.54 50.01a5.63 5.63 0 0 0 5.61 5.15z" class="uuid-5b005c62-ffdb-4e70-8cbf-799b12eb7cda" style="fill:var(--color-character-extra, #e9edf2)"/><path d="M827.21 1097.9c-6.07-26.54-39.1-1.13-39.1-1.13s-5.2 47.81-16.38 86.65-28.33 68.72-28.33 68.72 21.28-9.79 43.63-46.38c20.93-34.27 43.12-95.03 40.19-107.87zm-210.49 22.8c-12.14-23.6-32.44-11.84-32.44-11.84s12.92 15.32 25.76 38.55c12.84 23.24 25.58 54.38 25.58 54.38s4.51-35.57-18.9-81.09m-9.83-371.23-16.45 21.04-5.38 24.83s12.01-10.7 17.47-22.17 4.36-23.7 4.36-23.7m74.79-96.6s-7.94.01-11.11 7.98a13.9 13.9 0 0 0 1.47 13.6l7.16 2.66zm80.03 23.27c.5-5.2-7.77-9.08-7.77-9.08l-2.02 20.8s9.29-6.52 9.79-11.71z" class="uuid-6016fd8e-8ba3-4f92-85ce-0cc06f9cebd2"/><path d="M1960.6 854.89q.4 0 .81-.09a3.76 3.76 0 0 0 2.87-4.48c-4.24-19.34-7.17-37.14-8.73-52.91a3.75 3.75 0 1 0-7.48.74c1.58 16.06 4.57 34.15 8.86 53.78a3.8 3.8 0 0 0 3.67 2.96m232 383.21a3.76 3.76 0 0 0 3.72-3.23c1.5-10.59 2.27-28.26-2.52-52.37-9.65-48.52-43.64-210.04-75.58-251.11-20.96-26.94-59.57-38.07-90.59-47.01-18.15-5.23-33.83-9.75-42.3-16.1a3.75 3.75 0 1 0-4.51 6.01c9.58 7.18 25.87 11.88 44.73 17.31 29.98 8.64 67.28 19.39 86.74 44.4 24.58 31.6 54.41 148.81 74.14 247.96 4.59 23.06 3.87 39.84 2.45 49.84a3.76 3.76 0 0 0 3.73 4.29zm-266.8-452.6.3-.01c15.4-1.2 25.45-7.78 30.73-20.12 3.83-8.93 2.83-18.36-2.59-24.62-5.87-6.78-15.82-8.89-27.28-5.82a3.75 3.75 0 1 0 1.94 7.26c8.58-2.3 15.75-1.03 19.66 3.48 3.57 4.12 4.08 10.38 1.36 16.73-4.13 9.65-11.89 14.6-24.41 15.58a3.76 3.76 0 0 0 .28 7.51z"/><path d="M1933.2 765.17c1.13 0 2.24-.5 2.98-1.47.01-.02 2.18-2.77 5.2-4.38a3.76 3.76 0 0 0-3.53-6.64 26 26 0 0 0-7.63 6.44 3.75 3.75 0 0 0 2.98 6.05m-88.6-60.75a3.75 3.75 0 0 0 2.56-6.51c-.42-.39-10.57-9.59-26.31-4.63a3.76 3.76 0 0 0 2.25 7.17c11.62-3.65 18.87 2.91 18.94 2.97.72.67 1.64 1 2.56 1"/><path d="M1812.5 837.08s25.01 3.19 52.07-2.12c17.16-3.36 25.87-9.93 25.87-9.93s-3.91 8.58-12.11 16.75c-7.37 7.35-19.29 12.96-19.29 12.96s-4.72-9.58-12.03-11.12c-9.44-2-34.51-6.54-34.51-6.54" class="uuid-a787dda1-3d3c-44ac-81b4-1702e8f6dfea"/><path d="M1824.1 787.04c-9.83-.07-19.5-2.39-19.5-2.39s1.36 22.86 16.42 23.61c15.43.77 21.52-21.75 21.52-21.75s-8.62.6-18.44.53" class="uuid-d4ed8e31-f7e7-46a5-88a1-18397f29645d"/><path d="M1820.9 812.02c-18.22-.9-19.92-26.07-19.99-27.15a3.8 3.8 0 0 1 1.34-3.1c.91-.77 2.13-1.05 3.29-.77.09.02 9.36 2.22 18.65 2.28 9.58.08 18.07-.51 18.16-.52 1.21-.1 2.39.42 3.16 1.36s1.04 2.2.73 3.37c-.28 1.02-6.85 24.55-24.35 24.55q-.5 0-.99-.02m3.24-21.22a96 96 0 0 1-14.99-1.43c1.22 5.82 4.36 14.75 12.12 15.14 8.22.44 13.33-8.19 15.85-13.94-3.41.14-8.03.27-12.99.23zm85.76-52.21q2.09 0 4.07-.36a3.77 3.77 0 0 0 3.02-4.38 3.77 3.77 0 0 0-4.38-3.02c-25.85 4.76-77-56.2-85.8-83.34a3.76 3.76 0 0 0-7.16 2.31c8.45 26.06 58.12 88.78 90.25 88.78zm57.9 63.49q.72 0 1.45-.29c1.53-.64 37.56-16.05 50.15-53.91 7.17-21.59 6.48-85.59-27.47-111.59a3.76 3.76 0 0 0-4.57 5.97c30.67 23.49 31.38 83.78 24.91 103.25-11.52 34.65-45.56 49.2-45.91 49.34a3.76 3.76 0 0 0 1.45 7.23zm7-175.2a3.76 3.76 0 0 0 3.04-5.97c-21.66-29.78-98.48-21.62-120.66-9.19a3.76 3.76 0 0 0 3.67 6.56c20.47-11.46 92.54-18.2 110.9 7.06a3.8 3.8 0 0 0 3.04 1.55z"/><path d="M1807.4 704.43a3.75 3.75 0 0 0 2.75-6.32c-15.07-16.19-19.26-33.75-11.81-49.45 7.78-16.4 27.28-26.91 47.46-25.62a3.8 3.8 0 0 0 4-3.51 3.77 3.77 0 0 0-3.51-4c-23.52-1.53-45.52 10.48-54.74 29.9-8.73 18.4-3.96 39.46 13.09 57.8.74.8 1.75 1.2 2.75 1.2z"/><path d="M1821 729.13c.39-4.72 3.71-8.3 7.43-7.99s6.41 4.38 6.02 9.09-3.72 8.3-7.43 7.99c-3.72-.31-6.41-4.38-6.02-9.09" class="uuid-a787dda1-3d3c-44ac-81b4-1702e8f6dfea"/><path d="M1862 879.78q.4 0 .8-.09a3.76 3.76 0 0 0 2.88-4.47c-3.25-14.96-6.06-25.04-10-29.02-5.55-5.6-15.99-6.48-27.04-7.41-5.36-.45-10.91-.92-15.67-1.94a14.2 14.2 0 0 1-10.87-9.33c-3.22-8.75-3.48-29.04-3.6-38.79-.03-2.52-.06-4.49-.12-5.61-.3-5.77-.52-9.94-2.96-16.19a37 37 0 0 0-3.36-6.26c-1.77-2.84-3.31-5.3-2.98-7.7.28-2.09 1.34-2.68 5.76-4.31a42 42 0 0 0 6.61-2.91c6.02-3.43 9.34-9.76 10.16-19.34.28-3.3.45-7.02.62-10.96.45-10.09.96-21.53 3.56-32.12a71 71 0 0 1 11.46-24.44 3.76 3.76 0 0 0-5.9-4.67c-.36.46-8.99 11.48-12.87 27.32-2.77 11.31-3.3 23.13-3.77 33.57-.17 3.86-.33 7.51-.6 10.66-.88 10.3-4.88 12.58-6.38 13.44a37 37 0 0 1-5.5 2.39c-4.31 1.6-9.67 3.58-10.6 10.35-.7 5.09 1.82 9.13 4.05 12.7 1.07 1.72 2.09 3.34 2.73 5.01 2 5.12 2.16 8.22 2.45 13.85.06 1.07.08 2.93.11 5.32.14 10.95.39 31.33 4.06 41.29a21.8 21.8 0 0 0 16.35 14.08c5.23 1.13 11.02 1.61 16.62 2.08 9.21.77 18.72 1.57 22.33 5.21 3.2 3.22 6.68 19.27 7.99 25.32a3.76 3.76 0 0 0 3.67 2.96z"/><path d="M1843 940.45c1.54 0 2.95-.95 3.51-2.42 4.12-10.86 13.57-28.76 21.34-30.57 1.2-.28 2.86-.33 5.08 1.75a3.76 3.76 0 0 0 5.14-5.49c-4.5-4.21-8.97-4.27-11.93-3.58-8.33 1.94-15.65 12.63-20.52 21.78l-3.14-40.68c4.89-12.83 11.02-24.6 13.53-25.9 1.83-.95 2.59-3.21 1.67-5.05s-3.11-2.61-4.96-1.71c-6.63 3.23-14.49 22.61-17.56 30.79a4 4 0 0 0-.23 1.61l4.32 56a3.76 3.76 0 0 0 3.75 3.47M1749.7 1331a3.8 3.8 0 0 0 3.67-2.94c8.39-37.75 12.29-85.75 11.61-142.67-.21-17.23-2.42-33.81-4.76-51.36-1.77-13.25-3.59-26.96-4.47-40.94-.62-9.94-.22-21.98.21-34.72.68-20.1 1.38-40.88-1.82-56.86a3.75 3.75 0 1 0-7.37 1.48c3.02 15.12 2.34 35.46 1.67 55.13-.44 12.92-.85 25.13-.21 35.43.89 14.25 2.74 28.09 4.52 41.47 2.31 17.32 4.49 33.67 4.69 50.45.68 56.35-3.17 103.77-11.43 140.95a3.75 3.75 0 0 0 3.67 4.57zm288.6-300.7c2.03 0 3.7-1.62 3.76-3.66 1.47-55.45 28.31-83.12 28.58-83.4a3.77 3.77 0 0 0-5.32-5.32c-1.19 1.19-29.22 29.88-30.78 88.51a3.77 3.77 0 0 0 3.66 3.86h.1zm60.1 212.4q.29 0 .59-.05a3.76 3.76 0 0 0 3.13-4.29c-6.87-43.87-34.39-136.08-51.66-173.08a3.76 3.76 0 0 0-6.82 3.17c17.06 36.56 44.25 127.68 51.05 171.07a3.8 3.8 0 0 0 3.71 3.18"/><path d="M2063.2 1245.1a3.76 3.76 0 0 0 3.73-3.35c4.58-42.23 7.9-88.05 7.9-108.96a3.76 3.76 0 1 0-7.52 0c0 20.67-3.31 66.15-7.86 108.15a3.76 3.76 0 0 0 3.33 4.14l.41.02z"/><path d="M1911.2 1499.2c-2.49-3.1-.94-7.8-.45-9.04l84.59-239.32c.14-.38 1.47-3.76 4.09-5.94 2.65-2.21 6.18-2.84 6.57-2.91l.39-.04 351.67-20.44c1.45-.17 6.37-.49 8.94 2.44 2.68 3.05 1.41 7.78.87 9.4l-88.36 218.03c-.18.37-1.85 3.68-5.21 5.92-3.13 2.09-7.38 2.99-7.85 3.09l-.3.05-346.12 41.3c-.39.05-1.05.11-1.84.11-2.12 0-5.21-.43-6.99-2.63zm358.93-48.16a9 9 0 0 0 2.59-2.89l88.13-217.48c.15-.52.26-1.17.29-1.65-.61-.1-1.56-.12-2.42-.03l-351.64 20.45c-.62.13-2 .54-2.83 1.23a8 8 0 0 0-1.84 2.74l-84.61 239.36a9 9 0 0 0-.4 1.5c.53.05 1.2.05 1.74 0l345.96-41.28c.95-.21 3.49-.91 5.03-1.94zM1336.5 956.63a3.76 3.76 0 0 0 2.5-6.57c-5.49-4.89-25.95-20-58.59-9.7a3.76 3.76 0 1 0 2.27 7.17c28.08-8.88 45.25 2.75 51.33 8.15.72.64 1.61.95 2.5.95zm-10.3-20.68a3.77 3.77 0 0 0 2.35-6.7c-9.39-7.51-23.02-9.3-35.57-4.65a3.76 3.76 0 1 0 2.61 7.05c10.09-3.74 20.92-2.4 28.27 3.48.69.55 1.52.82 2.35.82z"/><path d="m1912.2 1496.1-157.27-82.8c-.58-.35-5.66-3.54-6.78-8.66-.75-3.46-.36-6.33 1.18-8.52a7.7 7.7 0 0 1 5.28-3.2l197.31-13.14a3.76 3.76 0 0 1 .5 7.5l-196.88 13.12c-.2.2-.39 1.06-.04 2.65.34 1.55 2.39 3.25 3.12 3.71l157.08 82.7a3.76 3.76 0 1 1-3.51 6.66zm-156.63-95.75h.02zM337.84 1331.1h1634.1a3.76 3.76 0 1 0 0-7.52H337.84a3.76 3.76 0 1 0 0 7.52m1988.36 0h87.96a3.76 3.76 0 1 0 0-7.52h-87.96a3.76 3.76 0 1 0 0 7.52M1704 1156.8a3.76 3.76 0 0 0 3.71-3.2c2.28-15.16 3.67-40.87 5.29-70.63 3.09-56.82 6.93-127.54 18.74-144.51 15.51-22.25 47.37-33.2 75.47-42.87 7.75-2.67 15.08-5.18 21.67-7.81a3.76 3.76 0 0 0-2.79-6.99c-6.42 2.56-13.66 5.05-21.32 7.69-29.19 10.04-62.29 21.42-79.2 45.68-13.04 18.72-16.78 87.62-20.08 148.4-1.61 29.57-2.99 55.11-5.22 69.92a3.76 3.76 0 0 0 3.72 4.32zm-244-38a40 40 0 0 0-5.37-.63 3.76 3.76 0 1 1 .43-7.5c2.34.13 4.42.38 6.37.75a3.76 3.76 0 1 1-1.42 7.38zm92.76-1.61c-13.99-5.21-23.35-10.37-30.86-14.52-9.73-5.37-16.16-8.92-26.21-9.18-10.16-.24-18.05 2.07-25.69 4.33-4.35 1.28-8.45 2.5-12.91 3.26-2.79.48-5.27.81-7.58 1.01a3.76 3.76 0 0 1-.67-7.49c2.11-.19 4.4-.5 6.99-.93 4.02-.69 7.91-1.84 12.04-3.06 7.82-2.31 16.68-4.93 28.01-4.64 11.89.31 19.34 4.42 29.65 10.11 7.3 4.03 16.38 9.04 29.85 14.06a3.76 3.76 0 0 1-2.62 7.05"/><path d="M1361 1144.5c-2-2.63-1.64-4.95-1.25-6.1 1.2-3.52 5.34-5 8.35-5.81a3.77 3.77 0 0 1 1.95 7.26c-1.26.34-2.08.65-2.6.9a3.77 3.77 0 0 1-6.45 3.75m91.08-24.68a3.76 3.76 0 0 1 1.77-5.02l2.08-1.01c9.54-4.7 13.59-7.41 13.62-7.43a3.76 3.76 0 0 1 4.22 6.22c-.18.12-4.43 2.98-14.51 7.95l-2.16 1.05a3.75 3.75 0 0 1-5.01-1.77z"/><path d="M1345.8 1155.2a3.76 3.76 0 0 0 3.09-5.9c-.1-.15-.6-.9-.38-1.31.36-.67 2.35-1.92 7.35-1.92h.25c7.67.06 11.17.33 16.97.77 2.35.18 5.08.39 8.59.62q1.7.12 3.55.19a3.76 3.76 0 0 0 .31-7.51q-1.75-.07-3.36-.18c-3.48-.23-6.18-.44-8.52-.62-5.96-.46-9.55-.73-17.48-.79-9.09-.01-12.85 3.18-14.3 5.93-1.48 2.8-1.17 6.2.84 9.11a3.8 3.8 0 0 0 3.1 1.62z"/><path d="M1362.4 1169a3.76 3.76 0 0 0 1.02-7.37l-3.3-.93c-5.15-1.44-10.47-2.94-11.26-3.98.03-.19.05-.57.53-1.06 1.03-1.06 3.57-1.99 6.93-1.7 7.04.62 13.15 1.95 18.54 3.12 4.79 1.04 9.31 2.02 13.71 2.35 4.68.35 11.87.74 20.24-.04a3.76 3.76 0 1 0-.69-7.49c-7.81.72-14.58.36-18.99.03-3.89-.29-7.96-1.18-12.69-2.2-5.61-1.21-11.96-2.59-19.48-3.26-5.29-.47-10.13 1.01-12.99 3.95a8.9 8.9 0 0 0-2.54 7.34c.67 5.7 6 7.2 16.63 10.18l3.28.92q.52.14 1.03.14z"/><path d="M1417.4 1191.2q1.99 0 3.97-.16c4.47-.35 18.68-3.43 31.11-8.34 2.33-.92 5.71-2.36 9.72-4.07 13.94-5.94 42.93-18.31 50.93-17.14 2.38.35 9.26 2.24 28.65 11a3.76 3.76 0 0 0 3.09-6.85c-15.64-7.06-25.67-10.85-30.65-11.58-9.3-1.4-31.31 7.58-54.97 17.66-3.93 1.67-7.24 3.09-9.53 3.99-12.19 4.82-25.81 7.6-28.92 7.84-7.79.61-15.28-.79-24.27-4.54-9.97-4.14-26.57-11.04-28.5-14.05-.06-.9.28-1.22.43-1.37.84-.81 3.18-1.44 7.25-.79 4.75.77 9.82 2.52 14.72 4.21 6.06 2.09 12.32 4.26 18.23 4.64 11.07.7 19.08-2.38 37.57-10.73a3.76 3.76 0 0 0-3.09-6.85c-18.7 8.44-25.03 10.65-33.99 10.07-4.9-.32-10.42-2.22-16.26-4.24-5.2-1.79-10.57-3.65-15.97-4.52-7.64-1.24-11.65.84-13.68 2.8a9.1 9.1 0 0 0-2.64 7.94c.74 5.88 9.65 10.1 33.06 19.83 8.52 3.54 16.18 5.24 23.77 5.24zm41.9-38.3q.88 0 1.7-.41c6.51-3.31 11.58-7.95 16.48-12.44 4.84-4.43 9.41-8.61 15.03-11.24a3.76 3.76 0 0 0-3.19-6.81c-6.66 3.11-11.88 7.89-16.92 12.5-4.74 4.34-9.22 8.44-14.81 11.28a3.77 3.77 0 0 0 1.7 7.12zm272.6 37.1a3.76 3.76 0 0 0 3.4-5.35c-8.99-19.33-23.82-33.6-32.41-35.74a599 599 0 0 0-20.13-4.52c-12.68-2.71-25.79-5.5-37.85-9.47-43.55-14.32-76.33-27.2-86.76-31.96-7.39-3.38-13.28 1.12-15.42 4.96a3.77 3.77 0 0 0 6.55 3.7c.63-1.06 2.44-3.33 5.75-1.82 10.58 4.82 43.7 17.85 87.53 32.26 12.46 4.1 25.76 6.93 38.64 9.68 7 1.49 13.61 2.9 19.88 4.46 5.16 1.29 18.73 12.95 27.41 31.62a3.8 3.8 0 0 0 3.41 2.17z"/><path d="M1735.1 1263.7c10.58 0 18.91-2.33 25.89-6.91a3.76 3.76 0 0 0-4.11-6.29c-15.72 10.29-42.25 6.65-91.56-12.59-47.95-18.7-91.99-42.35-113.16-53.72-7.6-4.08-12.18-6.54-14.2-7.34-3.6-1.43-4.58-7.68-5.1-11.03a26 26 0 0 0-.46-2.47 3.75 3.75 0 1 0-7.25 1.96c.1.37.18.96.29 1.67.7 4.5 2.17 13.84 9.75 16.85 1.62.64 6.83 3.44 13.42 6.98 21.3 11.43 65.61 35.24 113.98 54.1 32.47 12.67 55.42 18.78 72.52 18.78z"/><path d="M1536 1182.3c.69 0 1.39-.19 2.02-.59 21.48-13.72 26.04-53.27 19.85-75.58a3.76 3.76 0 0 0-7.25 2c5.31 19.14 1.37 55.72-16.66 67.24a3.75 3.75 0 0 0 2.03 6.93zm42.2 5.5a3.7 3.7 0 0 0 2.49-.95c11.33-10.03 17.64-33.76 14.38-54.03a3.76 3.76 0 1 0-7.42 1.2c2.79 17.38-2.67 39-11.94 47.21a3.75 3.75 0 0 0 2.5 6.57zM743.46 640.75c-42.42-20.56-93.81-61-105.49-95.43-5.87-17.28 4.89-83.96 26.82-105.27 11.56-11.24 35.8-17.75 64.67-17.54a3.77 3.77 0 0 1-.07 7.52c-26.67-.23-49.34 5.66-59.37 15.41-19.39 18.84-30.08 82.32-24.94 97.47 9.51 28.06 54.17 68.07 101.65 91.08 29.01 14.06 54.1 19.12 68.82 13.89 3.79-1.35 8.11-4.76 12.82-10.15a3.75 3.75 0 0 1 5.66 4.95c-5.57 6.37-10.94 10.5-15.96 12.29-4.63 1.64-9.98 2.46-15.96 2.46-15.8 0-35.98-5.68-58.66-16.67zm138.76-109.54c-2-.53-3.2-2.59-2.67-4.59 3.73-14.15 4.75-21.27 3.74-26.26-3.11-15.45-54.55-51.36-109.64-64.74a199 199 0 0 0-31.51-5.03c-2.07-.16-3.62-1.97-3.46-4.04s1.99-3.58 4.04-3.46a207 207 0 0 1 32.7 5.22c51.63 12.54 110.86 48.81 115.23 70.56 1.27 6.31.27 14.08-3.84 29.66a3.76 3.76 0 0 1-4.59 2.67z"/><path d="M833.19 643.59c-1.59-.07-15.84-.86-32.97-7.61-21-8.27-50.74-22.31-66.38-48.56-7.68-12.88 4.68-55.65 13.76-75.98 7.87-17.63 14.34-26.45 20.96-28.61a10 10 0 0 1 8.19.85c67.9 38.91 106.53 41.12 106.99 41.14a3.76 3.76 0 0 1 3.57 3.3c2.59 21.26-33.22 97.9-47.54 112.22-1.43 1.43-3.58 3.27-6.13 3.27l-.44-.02zM773.01 490.2a2.4 2.4 0 0 0-2.12-.23c-2.39.78-7.7 5-16.43 24.53-11.52 25.79-18.81 61.29-14.17 69.06 14.46 24.27 42.69 37.54 62.67 45.41 15.17 5.98 28.17 6.96 30.31 7.08 8.32-4.79 45.75-79.29 46.67-104.05-11.09-1.32-48.03-8.06-106.93-41.81z"/><path d="M729.37 513.6c5.43-22.78-1.24-40.79-16.17-43.5-14.92-2.72-30.2 12.52-34.12 34.04s5 41.17 19.93 43.88 24.93-11.62 30.36-34.42" class="uuid-b1c10787-bfd1-479b-bb93-c0a8b439ebd3"/><path d="M698.33 551.72c-16.94-3.08-27.24-24.73-22.95-48.26s21.55-40.14 38.49-37.07c6.43 1.17 11.79 4.8 15.51 10.48 5.87 8.98 7.2 22.68 3.65 37.59-7.49 31.45-21.08 37.62-30.59 37.62q-2.23-.02-4.1-.38zm27.38-38.99c3.07-12.91 2.11-24.48-2.63-31.74-2.59-3.97-6.14-6.39-10.56-7.19-12.84-2.34-26.2 11.57-29.75 31.02-3.54 19.44 4.04 37.17 16.9 39.51 14.61 2.66 22.25-15.7 26.03-31.59z"/><path d="M725.84 478.49c1.65 0 3.17-1.1 3.63-2.77 15.71-57.81 40.52-103.43 53.85-127.94 9.11-16.76 10.51-19.33 6.84-21.94a4.2 4.2 0 0 0-3.51-.53c-6.23 1.98-49.67 65.79-76.49 141.86a3.77 3.77 0 0 0 7.1 2.49c11.6-32.9 26.33-63.2 39.52-86.96-11.75 24.41-24.98 55.78-34.56 91.03a3.75 3.75 0 0 0 3.63 4.74zm145.77 4.86c1.48 0 2.89-.89 3.48-2.35 19.04-46.92 30.47-92.63 27.85-97.62a4.2 4.2 0 0 0-2.65-2.04c-4.43-.97-5.38 1.82-11.65 19.84-5.32 15.28-14.21 40.84-27.69 69.64a3.76 3.76 0 0 0 6.81 3.19c5-10.68 9.38-20.92 13.17-30.36a617 617 0 0 1-12.81 34.51 3.76 3.76 0 0 0 3.48 5.18zM591.2 997.73c-5.18-5.77-7.45-12.02-6.72-18.56 4.57-41.11-7.14-92.1-17.47-137.09a3.76 3.76 0 0 1 7.33-1.68c10.46 45.57 22.32 97.23 17.62 139.61-.49 4.38 1.09 8.53 4.84 12.7 14.61 16.27 60.46 28.45 106.91 28.45h.89c42.55-.14 75.45-9.41 81.53-17.91 36.73-51.39 65.16-216.48 60.67-265.49-2.69-29.27-48.21-59.83-91.79-74.89a3.77 3.77 0 0 1 2.45-7.11c44.45 15.36 93.7 47.36 96.82 81.31 4.69 51.2-23.71 216.93-62.04 270.55-9.77 13.66-51.47 20.93-87.62 21.05h-.84c-42.27 0-94.28-10.58-112.57-30.94zm-28.03-306.04a3.77 3.77 0 0 1-1.34-5.15 62 62 0 0 1 1.9-3.02c16-23.67 71.51-37.22 118.07-38.37 2.16-.11 3.8 1.59 3.85 3.67s-1.59 3.8-3.67 3.85c-51.2 1.26-99.37 16.34-112.02 35.05q-.79 1.16-1.66 2.63a3.77 3.77 0 0 1-5.14 1.34z"/><path d="M726.59 695.55c7.74 0 14.96-.9 21.1-2.67 10.69-3.09 17.06-8.58 17.94-15.47.48-3.76-.51-9.53-7.98-15.68a3.76 3.76 0 0 0-4.77 5.81c2.18 1.79 5.77 5.33 5.3 8.92-.46 3.62-5.16 7.06-12.57 9.2-8.67 2.51-19.94 3.05-31.72 1.55-11.77-1.51-22.54-4.87-30.3-9.48-6.63-3.93-10.31-8.44-9.85-12.07.39-3.06 3.83-6.03 9.44-8.16a3.76 3.76 0 0 0-2.67-7.03c-10.78 4.09-13.69 10-14.24 14.23-.88 6.89 3.9 13.81 13.47 19.49 8.63 5.12 20.42 8.84 33.19 10.48 4.65.59 9.24.89 13.66.89z"/><path d="M735.42 675.41c7.26 0 13.61-.76 18-2.22a3.75 3.75 0 1 0-2.38-7.13c-11.43 3.81-47.34 1.89-64.52-10.62a3.76 3.76 0 1 0-4.42 6.08c13.04 9.49 35.81 13.89 53.33 13.89zm7.86-20.57c5.9 0 10.92-.57 14.34-1.71a3.76 3.76 0 1 0-2.37-7.14c-12.16 4.05-49.46-.9-66.23-13.11a3.76 3.76 0 0 0-4.42 6.08c14.55 10.59 40.73 15.88 58.69 15.88zm-20.07-25.22a3.76 3.76 0 0 0 .77-7.44c-12.65-2.68-23.3-6.84-29.99-11.72a3.76 3.76 0 1 0-4.42 6.08c7.53 5.48 19.2 10.09 32.85 12.99q.4.08.78.08z"/><path d="M751.7 689.34a3.76 3.76 0 0 0 3.74-3.44c.02-.25 2.21-25.49 6.79-40.27a3.75 3.75 0 1 0-7.18-2.22c-4.82 15.56-7.01 40.79-7.1 41.86a3.76 3.76 0 0 0 3.42 4.07zm-72.44-8.62a3.77 3.77 0 0 0 3.74-3.39c.03-.32 3.26-32.07 12.93-71.98a3.76 3.76 0 1 0-7.31-1.77c-9.81 40.44-13.08 72.69-13.11 73a3.75 3.75 0 0 0 3.37 4.11zm-87.75 93.4c12.32-9.21 19.68-24.16 19.68-39.99 0-27.07-21.03-49.09-46.87-49.09-4.11 0-8.19.56-12.14 1.66l2.02 7.24a38 38 0 0 1 10.12-1.38c21.7 0 39.35 18.65 39.35 41.57 0 13.47-6.23 26.17-16.66 33.97z"/><path d="M584.18 800.58q1 0 1.93-.53c19.8-11.85 30.88-45.98 24.7-76.09-4.96-24.13-20.1-39.62-41.55-42.51a3.8 3.8 0 0 0-4.23 3.22 3.77 3.77 0 0 0 3.23 4.23c24.76 3.33 32.68 24.34 35.19 36.57 5.5 26.76-4.21 57.96-21.19 68.12a3.77 3.77 0 0 0 1.93 6.99z"/><path d="M505.16 994.97c-15.47-1.11-25.42-10.72-27.31-26.36-4.63-38.31 2.13-111.68 10.88-167.4 6.83-43.51 21.03-117.14 39.36-121.41 7.71-1.79 16.45.95 25.28 7.96 21.34 16.94 40.07 55.59 40.07 82.72 0 10.61-4.53 24.49-12.03 47.48-6.23 19.1-14.76 45.25-23.96 80.15-10.29 39.08-14.91 61.27-17.39 73.19-.91 4.37-1.51 7.26-2 9.09-2.15 7.99-16.24 14.7-29.98 14.7q-1.46 0-2.92-.1zm24.65-307.86c-7.78 1.82-21.62 38.65-33.65 115.26-10.41 66.34-14.77 132.79-10.84 165.33 1.84 15.26 12.1 19.17 20.39 19.76 12.6.88 24.14-5.5 25.1-9.05.44-1.62 1.02-4.42 1.9-8.66 2.5-11.99 7.14-34.3 17.48-73.58 9.25-35.11 17.82-61.38 24.08-80.57 7.02-21.52 11.66-35.73 11.66-45.14 0-24.75-17.74-61.37-37.22-76.83-4.14-3.29-10-6.87-15.86-6.87q-1.52-.01-3.03.34zm318.14 116.66q.6 0 1.21-.2c19.36-6.59 32.37-25.36 32.37-46.69 0-25.28-18.08-46.27-42.06-48.84a3.76 3.76 0 0 0-.8 7.48c20.15 2.15 35.34 19.93 35.34 41.36 0 18.12-10.96 34.02-27.27 39.58a3.76 3.76 0 0 0 1.21 7.32zm35.81 211.93c2.2 0 4.35-.11 6.36-.33a3.76 3.76 0 1 0-.8-7.48c-14.27 1.52-26.99-3.18-27.44-6.24-.24-1.62-2.27-10.22-6.85-29.53a8562 8562 0 0 1-19.66-84.29 3.75 3.75 0 1 0-7.33 1.66c6.97 30.8 14.31 61.76 19.67 84.37 3.64 15.36 6.52 27.5 6.73 28.89 1.33 9.05 16.28 12.96 29.31 12.96z"/><path d="M913.08 991.42a3.77 3.77 0 0 0 3.75-3.51c2.61-39.61 1.13-106.99-3.6-163.85-6.07-73.11-15.63-112.52-28.39-117.14-8.47-3.07-18.78-.48-29.85 7.47a3.76 3.76 0 1 0 4.39 6.11c6.25-4.49 15.29-9.27 22.9-6.51 6.78 2.45 16.99 32.91 23.45 110.69 4.7 56.54 6.17 123.46 3.59 162.74a3.76 3.76 0 0 0 3.5 4z"/><path d="M845.58 820.62h.06c13.97-.23 25.16-6.61 33.26-18.98 17.73-27.07 14.82-76.36 8.8-90.8a3.76 3.76 0 1 0-6.94 2.9c5.39 12.95 7.95 59.21-8.15 83.79-6.65 10.15-15.76 15.39-27.09 15.58a3.76 3.76 0 0 0 .06 7.52z"/><path d="M535.52 1038.8c-2.13-18.67-45.45-42.5-59.71-32.48-12.03 8.45 4.47 137.61 22.72 183.85 9.13 23.13 42.46 11.21 42.29 2.69-.1-4.68-2.17-28.05-3.18-66.86-1.42-54.39-.62-74.05-2.12-87.19z" class="uuid-5b005c62-ffdb-4e70-8cbf-799b12eb7cda" style="fill:var(--color-character-extra, #e9edf2)"/><path d="M495.03 1191.5c-16.93-42.9-37.13-177.24-21.38-188.31 6.77-4.76 18.61-3.9 32.47 2.33 14.92 6.71 31.66 19.84 33.14 32.81.87 7.65.98 17.08 1.18 34.2.15 12.59.35 29.81.96 53.31.74 28.24 2.03 48.18 2.72 58.88q.4 6.05.46 8c.14 6.69-9 12.04-18.09 13.87-2.28.46-4.67.71-7.09.71-9.68 0-19.74-4.11-24.36-15.82zm36.75-152.32c-.95-8.33-13.31-19.86-28.75-26.8-10.88-4.89-20.72-6.08-24.99-3.09-2.73 2.75-4.68 25.74 1.69 75.73 5.39 42.35 14.14 83.07 22.29 103.72 4.27 10.81 14.37 11.49 20 10.94 8.74-.86 14.74-5.18 15.04-6.79q-.06-1.88-.45-7.67c-.7-10.76-2-30.79-2.73-59.18-.61-23.55-.81-40.81-.96-53.42-.2-16.87-.31-26.17-1.13-33.44z"/><path d="M924.62 983.88c-18.79.09-47.17 40.58-38.76 55.84 7.1 12.87 137.28 10.46 185.23-2.67 23.99-6.57 15.74-41 7.26-41.75-4.67-.41-28.13-.89-66.82-4.08-54.22-4.48-73.68-7.4-86.9-7.33z" class="uuid-5b005c62-ffdb-4e70-8cbf-799b12eb7cda" style="fill:var(--color-character-extra, #e9edf2)"/><path d="M882.56 1041.5c-3.99-7.24-1.87-18.92 5.83-32.02 8.29-14.11 23.15-29.33 36.21-29.4 7.74.01 17.08.88 34.12 2.53 12.53 1.22 29.68 2.88 53.11 4.82 28.15 2.33 48.1 3.21 58.83 3.68q6.06.26 8.02.41c6.67.59 11 10.25 11.83 19.49 1.04 11.6-3.25 25.47-18.42 29.62-24.62 6.75-77.2 11.45-120.82 11.45-35.19 0-64.54-3.06-68.7-10.59zm42.07-53.89c-8.39.04-21.18 11.08-29.76 25.68-6.04 10.29-8.28 19.94-5.78 24.5 2.44 3.01 25.11 7.43 75.46 6.53 42.7-.77 84.12-5.06 105.53-10.93 11.2-3.07 12.98-13.01 13.04-18.67.1-8.79-3.55-15.23-5.12-15.71q-1.87-.15-7.68-.39c-10.77-.47-30.82-1.35-59.11-3.69a3420 3420 0 0 1-53.22-4.83c-16.48-1.6-25.7-2.5-32.95-2.5h-.41zM636.02 1265.8a20 20 0 0 1-3.07-4.96l6.82-3.16c.89 1.93 1.5 2.74 1.79 3.05 5.72 6.27 25.1 10.94 45.25 10.94h.57c21-.09 37.87-4.98 45.14-13.08 35.13-39.19 51.48-143.66 52.23-154.28 1.12-15.87-18.86-24.02-35.83-28.06l1.74-7.32c35.86 8.54 42.41 24.24 41.58 35.9-.89 12.68-17.35 117.75-54.13 158.77-12.48 13.92-39.61 15.54-50.7 15.58h-.6c-19.31 0-42.35-4.12-50.81-13.39zm-52.43-158.02q.09-1.09.24-2.24c2.02-15.94 20.12-28.75 50.96-36.06l1.74 7.32c-27.18 6.44-43.67 17.27-45.24 29.68q-.13 1-.21 1.97z"/><path d="M636.66 1263.8a3.8 3.8 0 0 0 3.72-3.24l.15-1.1c1.18-8.38 3.17-22.41 2.89-33.86-.94-38.21-11.64-104.95-36.33-121.41-5.86-3.9-12.31-4.67-18.65-2.2a3.75 3.75 0 0 0-2.14 4.87 3.75 3.75 0 0 0 4.87 2.14c4.08-1.58 7.92-1.11 11.75 1.45 18.92 12.61 31.86 69.69 32.98 115.34.26 10.83-1.67 24.47-2.82 32.62l-.16 1.1a3.76 3.76 0 0 0 3.73 4.28zm55.95-165.3c7.34 0 71.74-.49 71.74-17.3 0-6.61-9.62-9.7-12.78-10.71l-2.3 7.16c5.06 1.63 6.82 3 7.38 3.58-3.07 3.68-25.89 9.75-64.04 9.75s-60.97-6.08-64.04-9.75c.55-.57 2.25-1.9 7.08-3.48l-2.34-7.14c-3.08 1.01-12.43 4.08-12.43 10.6 0 16.82 64.39 17.3 71.74 17.3zM828.6 1329a3.77 3.77 0 0 1-3.06-4.35c14.23-80.86 18.96-220.06-2.28-232.44-8.21-4.79-21.87.86-31.07 7.15a3.77 3.77 0 0 1-4.25-6.21c5.6-3.83 24.98-15.68 39.11-7.43 28.82 16.8 17.2 176.01 5.9 240.24a3.77 3.77 0 0 1-4.35 3.05zm-105.55-3.87c-2.08-20.3-5.5-50.77-5.54-51.07a3.77 3.77 0 0 1 3.32-4.16 3.8 3.8 0 0 1 4.15 3.32c.03.31 3.46 30.81 5.54 51.15a3.76 3.76 0 0 1-3.35 4.12l-.39.02a3.76 3.76 0 0 1-3.73-3.38"/><path d="M626.24 1328.2a3.8 3.8 0 0 0 3.7-3.11l1.1-6.12c5.11-28.32 15.73-87.26 9.65-108.47-14.85-51.87-47.4-113.66-78.46-126.02-8.84-3.52-17.16-3.03-24.73 1.45a3.76 3.76 0 1 0 3.83 6.47c5.53-3.28 11.46-3.58 18.12-.94 27.78 11.05 59.45 70.26 74.01 121.1 5.6 19.53-5.21 79.47-9.82 105.06l-1.11 6.15a3.76 3.76 0 0 0 3.71 4.42zm113.55-67.8c.68 0 1.37-.19 1.99-.58 40.06-25.06 84.85-109.65 87.8-152.15.75-10.85-1.36-18.43-6.27-22.55a3.76 3.76 0 1 0-4.83 5.77c2.88 2.41 4.16 8.18 3.6 16.27-2.8 40.4-46.86 122.89-84.28 146.3a3.76 3.76 0 0 0 2 6.95zm9.9-171.2h.09a3.75 3.75 0 0 0 3.67-3.84c-.32-14.11 1.78-63.6 1.8-64.1a3.77 3.77 0 0 0-7.51-.33c-.09 2.05-2.13 50.24-1.8 64.59a3.76 3.76 0 0 0 3.75 3.68m-114.08-.6h.05a3.75 3.75 0 0 0 3.71-3.8c-.19-15.43.37-67.2.38-67.72a3.76 3.76 0 0 0-3.72-3.8h-.04a3.77 3.77 0 0 0-3.76 3.72c0 .52-.57 52.38-.37 67.9a3.75 3.75 0 0 0 3.76 3.71zm-116.58-73c6.53-4 10.43-10.8 10.43-18.2 0-3.66-.97-7.28-2.82-10.45l6.5-3.78a28.4 28.4 0 0 1 3.83 14.23c0 10.04-5.24 19.24-14.02 24.61zm-42.21-18.2a28.6 28.6 0 0 1 7.06-18.74l5.67 4.94a21 21 0 0 0-4.38 19.63l-7.21 2.12a28 28 0 0 1-1.14-7.95m409.5 33.2 1.27-7.41c-8.61-1.47-15.61-7.66-17.82-15.75l-7.25 1.98c2.99 10.91 12.33 19.22 23.81 21.18zM498.18 1208c0-3.64.93-7.27 2.69-10.49l6.6 3.6a14 14 0 0 0-1.76 6.88c0 3.01.95 5.93 2.74 8.43l-6.11 4.38a22 22 0 0 1-4.15-12.81zm39.76 3.64a14.4 14.4 0 0 0-2.8-12.76l5.85-4.73a21.9 21.9 0 0 1 4.22 19.4z"/><path d="m561.47 1276 7.51-.33c-.62-14.1-13-61.89-27.72-66.88-4.41-1.5-32.41-1.84-38.99 8.25-2.86 4.38-7.01 37.43-6.14 54.05l7.51-.39c-.9-17.28 3.58-46.64 5.03-49.71 3.46-5.28 26.35-6.32 30.18-5.07 8.5 2.88 21.91 43.82 22.62 60.09zm516.73-244.2 4.62-5.94a14.6 14.6 0 0 0 10.62 3.06c2.7-.3 5.26-1.37 7.4-3.1l4.71 5.86a22 22 0 0 1-13.72 4.85 22 22 0 0 1-13.62-4.74zm-.12-38.48a22 22 0 0 1 19.13-3.71l-2.01 7.24a14.2 14.2 0 0 0-12.56 2.45z"/><path d="m1126.6 1035.9.33-7.51c-12.86-.56-20.61-1.6-22.01-2.17-5.55-3.41-7.31-27.02-6.13-31 1.93-6.28 25.09-14.7 49.56-18.01l-1.01-7.45c-2.07.28-50.77 7.06-55.74 23.26-1.41 4.58-.92 33.3 9.62 39.74 3.12 1.9 17.23 2.78 25.37 3.14zm-426.46 39.3c22.83 0 44.24-2.37 51.68-7.8a3.76 3.76 0 1 0-4.43-6.07c-12.5 9.13-92.59 7.96-109.87-1.59a3.76 3.76 0 1 0-3.64 6.58c10.02 5.54 39.14 8.89 66.26 8.89zm.22-26c22.6 0 43.89-2.36 51.27-7.74a3.75 3.75 0 1 0-4.43-6.07c-12.72 9.28-90.27 8.28-107.76-1.4a3.76 3.76 0 1 0-3.64 6.58c9.76 5.4 38.06 8.64 64.56 8.64z"/><path d="M1149 981.58c5.72 2.08 12.39 4.06 25.54 5.48 14.21 1.53 34.15 8.7 34.57-1.92.26-6.45-32.89-18.96-49.81-18.48-14.01.4-14.71 13.31-10.3 14.92" class="uuid-2ea9db6c-572b-40f7-afbd-414955cef2b4"/><path d="M1185 992.54c-3.66-.68-7.45-1.39-10.78-1.75-12.76-1.38-19.79-3.27-26.42-5.69-3.54-1.29-5.48-5.45-4.72-10.12.87-5.39 5.64-11.79 16.19-12.09 15.11-.49 43.22 8.84 51.09 16.8q2.69 2.72 2.58 5.58a8.8 8.8 0 0 1-3.27 6.84c-2.29 1.83-5.38 2.49-9.05 2.49-4.49 0-9.84-1-15.63-2.07zm-25.51-22.12c-4.25.12-7.28 1.64-8.52 4.29-.74 1.57-.56 2.95-.32 3.43 4.89 1.77 11.27 3.76 24.38 5.18 3.62.39 7.55 1.12 11.36 1.83 6.84 1.28 16.21 3.02 18.61 1.1.11-.09.32-.26.41-.86-2.92-4.4-30.16-15.37-45.91-14.97zm-10.43 11.16h.02zM582.51 1297.6c-6.45-.92-11.44-8.69-17.21-17.69-2.01-3.13-4.1-6.38-6.11-9.04a3.77 3.77 0 0 1 6-4.54c2.19 2.9 4.35 6.26 6.44 9.52 3.76 5.85 8.9 13.87 11.95 14.31.14.02.41.06.91-.29 1.21-5.14-9.45-32.54-20.55-43.7-2.32-2.33-4.76-3.56-7.06-3.56a3.76 3.76 0 1 1 0-7.52c3.03 0 7.63 1 12.38 5.78 10.62 10.67 23.17 37.53 22.77 48.73q-.14 3.82-2.3 5.71a9 9 0 0 1-7.22 2.3z"/><path d="M563.04 1330.4a3.8 3.8 0 0 0 3.67-2.94c3.04-13.6 4.86-37.69 2.6-50.53-2.1-11.98-9.19-12.69-11.34-12.62-4.72.15-8.96 3.95-9.46 8.46-.85 7.72-1.23 15.66-.32 29.29.24 3.64.28 7.87.32 11.97.04 4.27.08 8.7.35 12.5a3.76 3.76 0 0 0 7.5-.54c-.26-3.56-.3-7.86-.34-12.02-.04-4.2-.08-8.55-.34-12.4-.97-14.54-.35-22.06.29-27.96.07-.66 1.12-1.73 2.22-1.77 1.43-.09 3 2.47 3.69 6.41 2.04 11.62.35 34.71-2.53 47.59a3.76 3.76 0 0 0 3.67 4.58z"/><path d="M537.18 1330.5q.17 0 .33-.02c2.07-.18 3.6-2 3.42-4.07l-.39-4.75c-.33-4.21-.68-8.56-1.21-12.4-1.99-14.41-1.91-21.97-1.68-27.92.02-.66 1-1.81 2.09-1.92 1.52-.2 3.17 2.25 4.14 6.14 2.48 9.97 2.7 27.96 1.63 40.59a3.76 3.76 0 1 0 7.49.63c1.09-12.83.98-31.77-1.83-43.04-2.94-11.8-10.07-12.03-12.2-11.8-4.7.48-8.66 4.57-8.84 9.11-.3 7.79-.12 15.74 1.74 29.24.5 3.62.84 7.87 1.16 11.97l.4 4.81a3.75 3.75 0 0 0 3.74 3.43z"/><path d="M533.07 1331h.25a3.76 3.76 0 0 0 3.51-3.99c-.21-3.22-.58-6.78-.94-10.22-.42-4.06-.86-8.25-1.03-11.88-.63-13.62-1.91-21.47-3.63-29.07-1-4.43-5.67-7.74-10.35-7.34-2.12.17-9.1 1.68-9.84 13.82-.74 12.24 3.04 32.76 6.98 45.85a3.77 3.77 0 0 0 7.2-2.16c-3.81-12.64-7.34-32.27-6.67-43.23.24-4 1.4-6.66 2.94-6.78 1.16-.11 2.26.86 2.41 1.5 1.31 5.81 2.77 13.22 3.45 27.76.18 3.84.63 8.14 1.06 12.31.35 3.37.71 6.85.91 9.93a3.76 3.76 0 0 0 3.75 3.52z"/><path d="M511.75 1327.9c-9.19-2.01-17.04-40.28-16.47-52.82.51-11.25 7.39-12.88 9.49-13.11 4.42-.5 8.71 2.17 9.76 6.06l-3.63.98 3.63-.98c1.75 6.47 3.09 13.2 3.92 25 .22 3.1.7 6.69 1.16 10.15 1.61 12.02 2.4 19.56-1.56 23.21a6.6 6.6 0 0 1-4.51 1.71q-.84 0-1.81-.2zm-6.36-58.42c-1.44.33-2.44 2.61-2.59 5.94-.62 13.65 6.74 38.77 10.47 44.47.59-3.13-.44-10.84-1.09-15.7-.48-3.58-.98-7.29-1.21-10.63-.88-12.42-2.35-18.66-3.67-23.53-.17-.27-1.01-.76-1.9-.56zm952.71-136.68a3.75 3.75 0 0 0 3.61-4.81l-40.59-140.14a3.8 3.8 0 0 0-2.61-2.58c-.54-.15-54.99-15.02-116.11-24.07-61.08-9.04-130.41-12.48-131.11-12.52a3.8 3.8 0 0 0-3.89 3.13c0 .05-.83 4.81-3.58 13.21l7.14 2.35c1.59-4.86 2.58-8.57 3.15-11 14.29.79 73.92 4.39 127.18 12.28 54.04 7.99 102.81 20.58 113.19 23.34l38.08 131.47c-22.42-6.62-97.9-28.02-171.77-38.7-73.01-10.55-146.03-10.85-168.9-10.64 8.81-13.01 29.78-44.55 42.63-68.84 3.21-6.07 6.13-12.1 8.69-17.9l-6.88-3.03a278 278 0 0 1-8.45 17.42c-16.3 30.82-45.97 73.64-46.27 74.07a3.76 3.76 0 0 0 3.19 5.9c.87-.02 87.92-2.11 174.92 10.46 87.03 12.58 176.37 40.16 177.26 40.43q.56.17 1.11.17z"/><path d="M1444.7 1152.3c-.87-.35-87.52-35.48-173.15-55.46a977 977 0 0 0-60.69-12.01 3.76 3.76 0 1 1 1.24-7.42 977 977 0 0 1 61.16 12.1c71.37 16.65 143.4 43.73 166.59 52.77l-6.24-17.82a3.76 3.76 0 0 1 7.09-2.49l8.96 25.59a3.76 3.76 0 0 1-4.97 4.72zm-334.8-79.99a572 572 0 0 0-11.73-.86 3.79 3.79 0 0 1-2.67-6.16c.33-.4 33.56-40.53 52.44-69.85 5.49-8.52 8.26-12.16 8.37-12.31a3.77 3.77 0 0 1 5.98 4.56c-.03.04-2.74 3.61-8.03 11.82-14.87 23.1-38.46 52.72-48.36 64.93l4.61.36a3.76 3.76 0 0 1-.3 7.51z"/><path d="M1431.2 1171a3.76 3.76 0 0 0 3.67-4.59l-6-26.44a3.75 3.75 0 1 0-7.33 1.67l4.17 18.34c-22.53-12.07-93.42-48.98-162.68-73.71a3.75 3.75 0 1 0-2.52 7.08c82.8 29.56 168.03 76.71 168.89 77.18q.87.47 1.83.47zm484.8 313.6a3.76 3.76 0 0 0 1.73-7.1l-160.18-83.07a3.76 3.76 0 0 0-3.47 6.68l160.18 83.07a4 4 0 0 0 1.73.42z"/><path d="M2161.5 1356.7c2.68-9.21-.68-18.28-7.51-20.27s-14.54 3.86-17.23 13.06c-2.68 9.21.68 18.28 7.51 20.27s14.54-3.86 17.22-13.07z" class="uuid-5b005c62-ffdb-4e70-8cbf-799b12eb7cda"/><path d="M2143.2 1373.4c-8.81-2.57-13.33-13.75-10.07-24.93s13.07-18.18 21.88-15.62c4.47 1.3 7.95 4.76 9.8 9.73 1.7 4.58 1.79 9.98.27 15.2-2.8 9.62-10.46 16.15-18.16 16.15q-1.88 0-3.72-.53m-2.85-22.82c-2.06 7.08.21 14.23 4.95 15.61 4.74 1.41 10.5-3.43 12.56-10.5 1.06-3.63 1.02-7.45-.1-10.48-1-2.69-2.72-4.51-4.85-5.13a6 6 0 0 0-1.68-.24c-4.35 0-9.06 4.49-10.88 10.75zM1879 1327.2a3.8 3.8 0 0 0 3.68-2.99c4.08-19.51 3.3-70.5 2.41-129.55-.57-37.19-1.15-75.66-.61-110.75.77-50.18 7.52-92.83 10.96-104.52 1.9-6.45 4.08-14.75 6.39-23.55 4.76-18.14 11.95-45.55 15.81-49.67 4.57-4.89 9.63-9.76 14.51-14.48 14.83-14.31 30.17-29.11 36.55-47.95a3.76 3.76 0 0 0-7.12-2.42c-5.8 17.11-20.47 31.26-34.66 44.95a411 411 0 0 0-14.78 14.75c-4.8 5.13-10.09 24.28-17.6 52.91a877 877 0 0 1-6.33 23.32c-4.1 13.91-10.51 57.39-11.27 106.53-.54 35.21.05 73.73.61 110.98.85 56.16 1.66 109.2-2.25 127.9a3.77 3.77 0 0 0 3.68 4.53z"/><path d="M1946.2 944.67a3.7 3.7 0 0 1-3.31-2.1c-5.83-11.82-17.79-31.35-25.03-33.45-.87-.25-1.29-.1-1.61.09a3.76 3.76 0 1 1-3.92-6.42 9.3 9.3 0 0 1 7.63-.9c9.78 2.84 20.72 20.64 26.35 30.95l32.16-60.19c-1.87-4.53-7.42-17.61-12.52-26.25a93 93 0 0 0-5.81-2.68 3.75 3.75 0 0 1 .67-7.46c.83 0 1.69 0 9.49 3.89q.96.49 1.53 1.41c6.69 10.97 13.99 29.14 14.29 29.91a3.8 3.8 0 0 1-.17 3.17l-36.35 68.04a3.8 3.8 0 0 1-3.32 1.99h-.06zm-54.2 35.45a3.76 3.76 0 0 0 3.4-5.36c-6.24-13.26-9.8-34.04-13.25-54.14-.88-5.16-1.77-10.31-2.69-15.34-1.25-6.81-18.93-39.94-22.46-46.51a3.76 3.76 0 1 0-6.62 3.56c7.96 14.82 20.88 39.95 21.69 44.31.92 5 1.8 10.12 2.68 15.24 3.53 20.59 7.18 41.89 13.86 56.07a3.8 3.8 0 0 0 3.4 2.16zm194.2-66.88a3.77 3.77 0 0 0 2.98-6.06c-6.96-9.01-5.74-20.11-4.19-34.16.89-8.1 1.91-17.28 1.22-26.96-1.05-14.81-6.14-27-11.07-38.78-2.84-6.8-5.79-13.84-7.86-21.25-3.01-10.72-2.63-26.1-2.22-42.37.55-22.02 1.11-44.79-6.12-62.06-9.06-21.62-27.17-31.13-48.48-25.42-2 .54-3.19 2.6-2.66 4.6a3.77 3.77 0 0 0 4.61 2.66c24.97-6.7 36.01 12.5 39.6 21.06 6.61 15.79 6.07 37.74 5.54 58.97-.42 16.86-.81 32.78 2.5 44.59 2.2 7.85 5.24 15.11 8.17 22.12 4.91 11.74 9.55 22.84 10.5 36.41.64 9-.29 17.44-1.19 25.61-1.6 14.49-3.11 28.17 5.71 39.58a3.7 3.7 0 0 0 2.98 1.46zm-71.5-25.87a3.75 3.75 0 0 0 3.47-5.21c-3.47-8.3-1.12-15.11 2.13-24.53 3.76-10.89 8.43-24.44 4.78-44.84-.81-4.52-1.87-9.02-2.89-13.37-3.67-15.6-7.47-31.73-1.75-55.1a3.77 3.77 0 0 0-7.31-1.8c-6.16 25.12-1.97 42.91 1.73 58.61 1.05 4.45 2.04 8.66 2.81 12.98 3.31 18.47-.83 30.47-4.49 41.06-3.36 9.74-6.53 18.94-1.96 29.88.6 1.44 2 2.31 3.47 2.31z"/></g></g></svg>