<svg xmlns="http://www.w3.org/2000/svg" id="uuid-837ef93e-dbf9-40e9-8140-1493c8a327c5" data-name="&amp;lt;Layer&amp;gt;" viewBox="0 0 1331.88 1632.61"><defs id="defs1"><style id="style1">.uuid-c22f8f2e-73e8-402e-9148-a9b23f26ecb1, .uuid-b2430a12-67f7-4cce-a148-6fc39d9befda, .uuid-c9b328c6-995f-4c2f-8605-451227117b9e, .uuid-4ab4001d-69d0-4fa5-adff-3f5dff107b15, .uuid-84a928ab-fa59-4599-9f54-fb8c840097c0, .uuid-b1a40110-89ba-4983-9fa7-a5fcd49eb5b0, .uuid-fa8b91be-5b75-468c-a297-42fdd119e9b0, .uuid-493f11d7-db53-4724-860e-148562fba0d3 {
        stroke-width: 0px;
      }

      .uuid-c22f8f2e-73e8-402e-9148-a9b23f26ecb1, .uuid-c9b328c6-995f-4c2f-8605-451227117b9e {
        fill: #571519;
      }

      .uuid-b2430a12-67f7-4cce-a148-6fc39d9befda, .uuid-c9b328c6-995f-4c2f-8605-451227117b9e, .uuid-4ab4001d-69d0-4fa5-adff-3f5dff107b15, .uuid-84a928ab-fa59-4599-9f54-fb8c840097c0, .uuid-b1a40110-89ba-4983-9fa7-a5fcd49eb5b0, .uuid-fa8b91be-5b75-468c-a297-42fdd119e9b0, .uuid-493f11d7-db53-4724-860e-148562fba0d3 {
        fill-rule: evenodd;
      }

      .uuid-b2430a12-67f7-4cce-a148-6fc39d9befda {
        fill: var(--color-character-man-hair, #393127);
      }

      .uuid-4ab4001d-69d0-4fa5-adff-3f5dff107b15 {
        fill: var(--color-character-clothing-1, #8275bd);
      }

      .uuid-84a928ab-fa59-4599-9f54-fb8c840097c0 {
        fill: #556569;
      }

      .uuid-b1a40110-89ba-4983-9fa7-a5fcd49eb5b0 {
        fill: var(--color-character-man-skin, #ffddc0);
      }

      .uuid-fa8b91be-5b75-468c-a297-42fdd119e9b0 {
        fill: var(--color-character-extra, #e9edf2);
      }

      .uuid-493f11d7-db53-4724-860e-148562fba0d3 {
        fill: #747a83;
      }</style></defs><g id="uuid-c681d7d5-9d20-4b26-a055-7e6a87ac5e6e" data-name="Ñëîé 3" transform="translate(-801.46 -194.353)"><path id="path3" d="m1018.81 344.52-28.16-21.34s-8.64-25.2-9.07-31.13a94 94 0 0 1 .8-18.82c.82-5.47 3.57-13.33 3.57-13.33l-10.92-9.01s15.79-20.4 19.22-23.76c3.43-3.35 16.65-14.12 21.01-16.17s18.15-7.5 23.64-8.28 17.42-3.04 22.23-2.75 10.44.69 14.74 1.83a32 32 0 0 1 10.92 5.23c3.45 2.43 248.24 162.22 248.24 162.22s7.33 10.59 8.36 15.17-1.42 18.02-3.46 21.08-6 11.92-11.5 16.2-9.88 9.78-15.17 12.94c-5.3 3.16-29.33 14.67-29.33 14.67l-31.78-24.33s-5.88 6-11.16 10.59-19.06 12.32-25.01 15.46-23.62 7.63-28.67 8.19c-5.04.56-15.79.51-20.53-1.78s-12.05-5.2-16.6-9.59-37.45-29.25-37.45-29.25l-38.31-42.6-51.3-38.35-4.34 6.93z" class="uuid-fa8b91be-5b75-468c-a297-42fdd119e9b0"/><path id="path4" d="M808.12 503.28c0-34.32 8.99-66.35 17.51-81.3 2.04-3.58 5.59-2.81 7.9-4.55a9.8 9.8 0 0 1 5.92-2.19c14.79 0 26.77 39.98 26.77 89.3s-11.99 89.3-26.77 89.3c-2.56 0-7.3.51-9.87-1.78-12.28-10.98-21.45-47.98-21.45-88.77z" class="uuid-fa8b91be-5b75-468c-a297-42fdd119e9b0"/><path id="path5" d="m835.09 479.41 200.01.58-.34-10.87s22.01 1.81 30.19 1.23 29.07-2.7 29.07-2.7l1.47 55.32s-21.09 2.95-27.63 2.96c-6.52 0-26.63-2.37-26.63-2.37s-1.23-1.35-5.2-.98-58.06 1.44-79.88 4.17-37.85 4.48-49.69 6.61-21.94 3.31-31.57 5.21l-41.17 8.07 1.36-67.22z" class="uuid-fa8b91be-5b75-468c-a297-42fdd119e9b0"/><path id="path6" d="m1155.4 387.13 7.1 4.84s17.21-7.78 25.13-11.38c7.91-3.59 19.23-7.12 27.27-9.82s11.45-3.61 20.48-5.44c9.02-1.83 23.78-3.69 23.78-3.69s-3.42 13.58-5.63 18.59-12.27 21.06-16.22 26.21-14.93 15.1-19.82 18.78-14.47 8.89-20.88 11.43-13.49 4.4-20.23 3.19-12.59-4.37-15.6-8.11c-3.02-3.74-6.27-7.91-7.47-14.32-1.19-6.42-2.04-11.4-.94-16.83s3.02-13.44 3.02-13.44z" class="uuid-84a928ab-fa59-4599-9f54-fb8c840097c0"/><path id="path7" d="m1023.53 338.24 51.15 38.55 39.19 41.34-28.22-9.86.44 31.08s3.31 6.54 4.08 10.08.36 10.47-1.07 13.03c-1.42 2.56-3.05 6.33-3.05 6.33s-15.21.92-20.81.96c-5.61.04-19.16-.46-19.16-.46s-3.82-6.29-5.15-10.35-.16-10.72 1.33-13.79 3.84-4.36 4.05-9.78 1.03-23.5 1.03-23.5l-21.53-19.97 8.59-14.63-22.79-19.67 11.94-19.37z" class="uuid-84a928ab-fa59-4599-9f54-fb8c840097c0"/><path id="path8" d="M1043.46 523.79s14.56 1.83 22.2 1.71 26.3-1.93 26.3-1.93-.59 5.89-3.02 8.88c-2.42 2.99-6.74 7.75-11.57 9.92s-11.94 1.84-14.97 1.67c-3.03-.16-8.89-3.01-10.91-5.08-2.03-2.07-5.86-5.61-6.89-7.88s-1.13-7.3-1.13-7.3z" class="uuid-84a928ab-fa59-4599-9f54-fb8c840097c0"/><path id="path9" d="M1015.09 480.93s-1.03-6.98-.77-12.92.61-9.89 3.89-12.81c3.27-2.93 5.73-1.71 7.18-3.58s1.73-3.93 3.54-8.12 1.44-4.88 5.03-5.23c3.58-.35 8.01 2.93 8.01 2.93s-3.5 4.6-3.17 11.06c.32 6.47 5.41 17.41 5.41 17.41l-12.11-1.12.63 11.31z" class="uuid-b1a40110-89ba-4983-9fa7-a5fcd49eb5b0"/><path id="path10" d="M1473.68 1432.65c0-22.29-3.35-154.46-3.35-154.46s-17.32-6.13-37.11-10.01-42.04-5.49-42.04-5.49-7.43-16.8-10.96-37.42c-3.61-21.08-3.28-46.29.15-74.74 2.47-20.54 8.19-46.18 14.46-64.05 10.89-31.08 23.45-48.87 23.45-48.87s21.62 5.93 46.61 11.38c24.28 5.29 54.48 6.93 85.94 14.35 27.5 6.48 56.11 18.54 80.66 26.12 52.55 16.25 248.86 51.89 276.31 61.51 26.29 9.22 60.33 16.83 92.09 26.54 23.38 7.15 47.4 15.68 56.55 25.58 15.89 17.17 25.69 39.9 33.32 67.78 12.92 47.26 20.81 102.42 28.34 135.81 1.29 5.7-14.9 18.84-23.96 26.96-21.29 19.06-114.55 174.38-124.78 268.37-3.11 28.55 2.25 119.85 2.25 119.85l-500.75.25s5.82-57.18 6.4-120.72c.8-85.58-3.57-191.58-3.57-268.73z" class="uuid-4ab4001d-69d0-4fa5-adff-3f5dff107b15" style="display:inline"/><path id="path11" d="M1757.22 707.63c24.65-13.81 66.12-24.11 86.31-19.89 18.83 3.94 29.77 2 44.32 19.78 9.47 11.81 33.86 12.69 52.47 27.81 19.14 15.93 25.64 28.53 31.04 43s6.43 36.45 6.43 36.45-3.36 46.35-10.8 65.15-28.12 57.33-28.12 57.33-30.23 20.37-48.76 11.59c-31.28-14.96-59.72-63.72-79.23-67.8-23.55-4.92-93.32 36.69-121.18 15.42-7.9-5.86-10.02-59.67-5.6-87.54 5.23-28.4 10.84-38.46 19.46-52.81 9.96-14.07 32.4-37.48 53.65-48.48z" class="uuid-b2430a12-67f7-4cce-a148-6fc39d9befda"/><path id="path12" d="M1709.89 1028.46s-6.22-13.93-9.97-32.97c-3.61-19.72-4.32-46.54-4.32-46.54s-25.54-8.85-26.5-37.83c-1.75-31.96 23.98-30.8 23.98-30.8l18.33 16.47s-2.21-9.59-.25-19.01c1.97-9.42 10.31-22.42 10.31-22.42l18.51-21.41s12.62-10 19.83-17.63c10.74-11.1 19.78-27.47 42.54-25.52 9.7.62 32.07 1.08 43.88 8.46 17.43 10.66 14.42 31.8 25.49 46.05 11.74 14.39 37.02 21.07 36.75 22.42-1.55 7.4 9.44 15.31 9.29 32.84.02 13.34-11.51 38.32-10.3 39.28 6.7 4.9 27.31-9.75 27.31-9.75s25.84 3.99 11.4 39.59c-6.88 16.12-40.11 23.93-40.11 23.93s-7.58 19.48-19.73 37.31c-12.14 17.82-28.73 33.32-28.73 33.32s-53.46 27.02-78.91 22.15c-29.87-5.7-68.79-57.91-68.79-57.91z" class="uuid-b1a40110-89ba-4983-9fa7-a5fcd49eb5b0"/><path id="path13" d="M1631.4 1090.52s18.24 2.77 25.71 2.56 20.89.48 26.86-1.75c5.96-2.24 12.83-8.66 15.71-14.78s5.46-18.76 7.1-25.26 4.07-29.91 4.07-29.91l159.57 28.08s-3.14 15.66-4.41 21.85c-1.28 6.19-3.02 21.35-2.61 28.77s-.03 18.89 3.94 24.57 6.85 9.39 15.77 14.19 25.12 11.68 25.12 11.68-12.12 26.7-39.81 45.08c-29.55 19.62-75.86 30.78-111.59 23.05-32.75-7.1-70.53-28.98-92.88-57.64-24.88-31.89-32.54-70.47-32.54-70.47z" class="uuid-b1a40110-89ba-4983-9fa7-a5fcd49eb5b0"/><path id="path14" d="M1411.23 1047.15s-4.66 12.17-8.82 21.39-9.89 25.58-12.88 36.85-7.03 32.32-8.46 42.36-4.44 23.33-3.37 38.35 3.93 46.72 3.93 46.72-19.72-5.63-36.36-12.79-51.42-19.92-77.24-29.05c-25.81-9.14-48.4-17.51-63.39-24.46s-52.84-22.72-64.64-27.96-31.85-13.97-38.11-18.66-12.62-19.03-18.98-37.5c-6.35-18.46-15.99-62.88-18.5-76.8s-10.09-82.31-14.5-115.73-7.52-81.22-9.71-98.53-8.65-60.82-10.21-73.3-5.21-28.04-5.21-28.04-6.41-15.56-7.08-23.11-3.57-28.16-1.12-35.95c2.46-7.79 5.86-26.28 6.28-34.96s-2.26-14.9-6.85-25.16-10.07-19.21-12.01-25.45-5.86-20.56-5.86-20.56l35.13-2.4s5.19-5.06 7.56-8.13 5.19-5.07 8.26-1.33 2.98 5.74 4.2 9.76.63 9.26 2.42 15.25c1.8 5.99 1.68 7.3 5.03 15.08s5.27 7.42 7.18 4.91a19 19 0 0 0 4.07-9.45c.48-3.95 2.03-3.95 6.23-7.78 4.19-3.83 6.94-5.63 8.62-10.77 1.67-5.15 1.67-7.54 1.56-12.45-.12-4.9-3.89-14.97-6.13-21.19-2.25-6.23-6.88-16.87-8.49-23.42-1.6-6.55-4.14-15.18-4.29-19.93s-.52-10.46 2.97-13.32 6.29-1.07 8.69 3.61 13.18 24.11 17.39 31.31c4.21 7.21 10.57 17.6 17.27 30.94s8.74 19.84 9.42 26.97c.69 7.13.59 11.9-2.72 25.95s-6 24.8-9.17 41.83-8.73 40-10.2 47.88c-1.48 7.88-3.67 11.11-1.66 20.83s4.85 45.28 9.96 63.02 8.63 47.56 15.92 66.22c7.3 18.65 15.25 42.18 23.42 60.49 8.16 18.32 16.95 37.08 22.56 52.34s12.76 30.99 15.68 39.33 7.91 28.51 10.68 37.06c2.78 8.56 17.87 12.53 31.86 18.06s42.87 15 55.49 18.28 40.3 10.93 53.03 13.15 29.16 5.56 40.37 7.11c11.2 1.54 30.78 3.15 30.78 3.15z" class="uuid-b1a40110-89ba-4983-9fa7-a5fcd49eb5b0"/><path id="path15" d="m1683.72 1536.9 67.69-263.07 10.18-12.82 13.46-3.25 116.57 30.99 10.42 12.53-.21 19.81-46.87 158.47-83.64 99.45-76.24-22.41-8.74-9.44z" class="uuid-493f11d7-db53-4724-860e-148562fba0d3" style="display:inline"/><path id="path17" d="M1889.82 1320.94h-8.44a4.57 4.57 0 0 1-4.56-4.24q-4.22-.94-8.47-1.81a215 215 0 0 1-17.45-4.12c-8.87-2.63-17.71-6.54-26.25-10.32-14.76-6.53-30.02-13.29-45.37-13.29a4.56 4.56 0 1 1 0-9.14c17.28 0 33.44 7.15 49.07 14.07 8.66 3.83 16.84 7.45 25.15 9.92a202 202 0 0 0 16.7 3.93q4.98 1 9.92 2.14l1.6.37c9.55 2.17 13.5 3.06 13.44 7.57 0 .66-.26 3.99-4.45 4.82q-.44.09-.9.09zm-1.85-1.39h.04z" class="uuid-c22f8f2e-73e8-402e-9148-a9b23f26ecb1" style="display:inline;fill:#000000;fill-opacity:1"/><path id="path18" d="M1734 1423.79q-1.04 0-2.04-.48a4.56 4.56 0 0 1-2.04-6.13c8.83-17.66 12.48-43.35 15.7-66.03 1.47-10.33 2.86-20.1 4.64-28.79.16-.79.44-2.26.79-4.16 6.04-32.3 7.69-34.42 10.55-35.84a5.2 5.2 0 0 1 4.39 0 4.56 4.56 0 0 1 .69 7.76c-1.3 3.16-3.53 13.16-6.64 29.77-.37 1.98-.66 3.5-.83 4.32-1.73 8.42-3.09 18.04-4.54 28.24-3.32 23.36-7.08 49.85-16.57 68.83a4.6 4.6 0 0 1-4.09 2.53z" class="uuid-c22f8f2e-73e8-402e-9148-a9b23f26ecb1" style="display:inline;fill:#000000;fill-opacity:1"/><path id="path16" d="m1977.87 1562.89 12.37-96.51s17.01.31 21.92.16c4.91-.16 29.03-4.44 41.91-10.33 12.89-5.88 22.24-11.97 28.18-15.67a703 703 0 0 0 14.95-9.7s.45 17.99 1.25 28.83c.81 10.84 2.15 43.31 6.19 60.41s12.35 40.81 14.76 63.27 9.74 44.73 9.13 58.13c-.62 13.41-1.95 32.33-7.69 47.14-5.75 14.8-8.39 16.35-14.4 30.01s-13.09 23.02-19.58 27.47-22.8 3.45-31.44 1.68-29.24-6.71-44.02-15.13c-14.78-8.41-27.91-16.37-41.65-28.67s-30.5-24.39-49.91-39.17-36.14-25.29-48.82-34.88-20.21-12.02-31.19-17.2-30.14-11.54-49.25-23.14-37.25-21.28-46.74-27.51c-9.48-6.22-16-9.91-22.09-15.54a41 41 0 0 1-12.29-20.46c-1.94-7.86-4.31-28.05-4.99-35.08s1.24-13.42-.08-23.28c-1.32-9.85-2.95-13.99-4.92-20.63-1.97-6.65-5.51-15.85-4.69-18.5s1.57-4.88-1.19-10.09-3.69-11.76-.64-13.67 4.27-3.88 12.1-1.19c7.83 2.7 8.37 1.13 13.75-1.06 5.37-2.2 4.39-5.52 15.12 1.54s15.45 10.08 26.36 19.1c10.91 9.01 15.75 19.23 30.12 27.02a468 468 0 0 0 36.69 18.04 421 421 0 0 0 28.15 10.92l19-64.02s4.24 12.19 8.35 20.75 9 17.46 11.62 27.84 4.55 15.13 5.26 29.33 1.88 20.35 3.27 30.27c1.38 9.92.92 13.89 3.95 16.82 3.04 2.94 10.03 5.96 16.47 8.71s15.59 3.76 22.78 6.47a96 96 0 0 0 16.79 4.82c5.75 1.2 15.15 2.72 15.15 2.72z" class="uuid-b1a40110-89ba-4983-9fa7-a5fcd49eb5b0" style="display:inline"/><path id="path19" d="M1857.58 1437.61q-.72 0-1.45-.24a4.57 4.57 0 0 1-2.89-5.78c3.67-11.03 7.67-22.26 11.54-33.12 8.56-24.08 17.42-48.98 23.68-73.99a4.57 4.57 0 0 1 8.87 2.22c-6.36 25.44-15.29 50.55-23.93 74.84a1777 1777 0 0 0-11.48 32.95 4.6 4.6 0 0 1-4.33 3.12z" class="uuid-c22f8f2e-73e8-402e-9148-a9b23f26ecb1" style="fill:#000000;fill-opacity:1"/></g><g id="uuid-398636f8-b05d-499f-9ff8-d7f8e25eb90e" data-name="Ñëîé 2" style="display:inline" transform="translate(-801.46 -194.353)"><path id="path20" d="M1778.02 1091.23q-.66 0-1.33-.16c-1-.24-24.8-6.23-53.57-38.29-19.92-21.98-24.05-41.74-26.52-53.55-4.88-21.15-4.93-48.66-4.55-67.51a5.6 5.6 0 0 1 5.83-5.6 5.7 5.7 0 0 1 5.6 5.83c-.37 18.24-.34 44.79 4.28 64.82 2.41 11.48 6 28.65 23.85 48.35 26.15 29.16 47.56 34.79 47.77 34.84a5.72 5.72 0 0 1-1.36 11.26z" class="uuid-c22f8f2e-73e8-402e-9148-a9b23f26ecb1" style="fill:#000000;fill-opacity:1"/><path id="path21" d="M1794.7 987.99a5.7 5.7 0 0 1-1.7-11.16c3.58-1.14 11.23-4.95 11.92-9.43.16-1.12-.28-1.88-2.06-4.36-2.61-3.61-6.55-9.08-5.32-19 .38-4.78 2.79-11.45 7.8-21.37a5.71 5.71 0 0 1 10.2 5.14c-4.14 8.2-6.37 14.05-6.64 17.39-.7 5.71 1.03 8.11 3.22 11.15 2.08 2.88 4.93 6.83 4.1 12.7-1.95 12.76-17.99 18.11-19.82 18.68q-.86.27-1.7.26" class="uuid-c22f8f2e-73e8-402e-9148-a9b23f26ecb1" style="fill:#000000;fill-opacity:1"/><path id="path22" d="M1744.28 931.35c1.54-7.4 5.08-.93 10.61-.48 5.38 1.12 10.73-4.19 9.05 3.88-1.55 7.4-6.85 12.61-12.37 12.16-4.71-.98-8.16-8.02-7.29-15.56" class="uuid-c9b328c6-995f-4c2f-8605-451227117b9e" style="fill:#000000;fill-opacity:1"/><path id="path23" d="M1697.08 954.26a6 6 0 0 1-2.27-.47c-18.77-8.15-30.56-26.22-30.05-46.05.21-8.14 1.43-19.78 9.51-26.84 5.46-4.76 13.13-6.63 22.8-5.57a5.71 5.71 0 0 1-1.25 11.36c-6.38-.71-11.09.25-14.04 2.82-3.57 3.12-5.36 9.01-5.6 18.53a37.6 37.6 0 0 0 23.18 35.27 5.71 5.71 0 0 1-2.28 10.96z" class="uuid-c22f8f2e-73e8-402e-9148-a9b23f26ecb1" style="fill:#000000;fill-opacity:1"/><path id="path24" d="M1789.44 898.17a5.6 5.6 0 0 1-3.64-1.32c-17.4-14.44-38.23-6.66-39.11-6.32a5.73 5.73 0 0 1-7.39-3.26 5.7 5.7 0 0 1 3.22-7.38c1.13-.44 27.89-10.65 50.57 8.17a5.72 5.72 0 0 1-3.65 10.1z" class="uuid-c22f8f2e-73e8-402e-9148-a9b23f26ecb1" style="fill:#000000;fill-opacity:1"/><path id="path25" d="M1908.18 996.22c-3.28-.11-5.8-2.53-5.8-5.72a5.7 5.7 0 0 1 5.71-5.7h.09a37.6 37.6 0 0 0 35.28-23.06c3.67-9.25 3.99-17.58.81-22.25-2.55-3.75-7.71-5.65-15.35-5.65h-.08a5.7 5.7 0 0 1-5.71-5.7 5.8 5.8 0 0 1 5.8-5.72c11.65 0 20 3.58 24.8 10.64 7.65 11.25 2.78 26.78.34 32.93-7.47 18.38-25.47 30.22-45.89 30.22z" class="uuid-c22f8f2e-73e8-402e-9148-a9b23f26ecb1" style="fill:#000000;fill-opacity:1"/><path id="path26" d="M1695.36 918.8a5.7 5.7 0 0 1-5.45-4.02c-.65-2.05-2.31-5.65-3.81-6.84a5.71 5.71 0 1 1 7.08-8.95c4.76 3.76 7.19 10.99 7.63 12.4a5.7 5.7 0 0 1-5.46 7.41z" class="uuid-c22f8f2e-73e8-402e-9148-a9b23f26ecb1" style="fill:#000000;fill-opacity:1"/><path id="path27" d="M1925.22 964.67a5.71 5.71 0 0 1-4.32-9.44c.96-1.12 6.08-6.77 11.94-8.31a5.71 5.71 0 0 1 2.92 11.04c-1.84.49-4.81 3.13-6.23 4.76a5.7 5.7 0 0 1-4.31 1.96z" class="uuid-c22f8f2e-73e8-402e-9148-a9b23f26ecb1" style="fill:#000000;fill-opacity:1"/><path id="path28" d="M1760.88 936.95c-9.29 0-20.52-3.12-26.73-10.61a5.71 5.71 0 0 1 8.8-7.28c5.24 6.32 19.3 7.6 24.26 5.58a5.7 5.7 0 1 1 4.31 10.57c-2.75 1.13-6.5 1.74-10.64 1.74" class="uuid-c22f8f2e-73e8-402e-9148-a9b23f26ecb1" style="fill:#000000;fill-opacity:1"/><path id="path29" d="M1811.67 1025.13c-14.28 0-31.56-4.78-42.59-9.71a5.72 5.72 0 0 1 4.66-10.44c11.35 5.07 29.29 9.64 41.75 8.56a5.7 5.7 0 1 1 .98 11.38q-2.33.2-4.8.2z" class="uuid-c22f8f2e-73e8-402e-9148-a9b23f26ecb1" style="fill:#000000;fill-opacity:1"/><path id="path30" d="M1785.88 1091.94c-5.36 0-8.23-.66-8.54-.74a5.72 5.72 0 0 1 2.66-11.11c.44.1 18.7 3.75 53.72-12.23 25.19-11.34 38.88-27 44.8-35.32 12.32-16.61 22.98-40.93 29.93-57.79a5.71 5.71 0 0 1 10.56 4.36c-7.18 17.42-18.24 42.61-31.25 60.15-6.52 9.18-21.71 26.59-49.33 39.01-25.28 11.53-42.94 13.67-52.56 13.67z" class="uuid-c22f8f2e-73e8-402e-9148-a9b23f26ecb1" style="fill:#000000;fill-opacity:1"/><path id="path31" d="M1864.72 956.5c1.55-7.4-3.43-2.5-8.67-4.29-5.38-1.12-9.01-8.52-10.7-.45-1.55 7.4 1.23 14.3 6.47 16.1 4.71.98 10.68-4.09 12.9-11.35z" class="uuid-c9b328c6-995f-4c2f-8605-451227117b9e" style="fill:#000000;fill-opacity:1"/><path id="path32" d="M1885.24 920.28a5.7 5.7 0 0 1-4.04-1.68c-.66-.64-16.63-16.12-38.36-9.84a5.7 5.7 0 1 1-3.16-10.97c28.29-8.17 48.76 11.89 49.61 12.75a5.72 5.72 0 0 1-4.04 9.75z" class="uuid-c22f8f2e-73e8-402e-9148-a9b23f26ecb1" style="fill:#000000;fill-opacity:1"/><path id="path33" d="M1866.63 960.1c-11.24 0-23.26-6.73-28.04-13.1a5.71 5.71 0 1 1 9.13-6.87c3.33 4.43 15.77 10.91 23.41 7.76a5.72 5.72 0 0 1 4.35 10.57 23 23 0 0 1-8.85 1.64" class="uuid-c22f8f2e-73e8-402e-9148-a9b23f26ecb1" style="fill:#000000;fill-opacity:1"/><path id="path34" d="M1946.23 934.67q-1.26 0-2.46-.56a5.7 5.7 0 0 1-2.69-7.62c13.16-27.54 29.53-61.83 30.92-101.41 1.39-34.15-14.27-77.17-51.93-91.02a5.72 5.72 0 0 1 3.94-10.73c43.03 15.82 60.95 64.06 59.4 102.18-1.47 41.92-18.41 77.4-32.03 105.9a5.7 5.7 0 0 1-5.16 3.25z" class="uuid-c22f8f2e-73e8-402e-9148-a9b23f26ecb1" style="fill:#000000;fill-opacity:1"/><path id="path35" d="M1684.18 884.87a5.7 5.7 0 0 1-5.66-5.04c-.45-3.77-10.55-92.96 27.21-138.63 36.21-43.69 99.64-60.75 131.05-58.55 42.75 3.59 71.8 21.45 74.09 45.51a5.71 5.71 0 0 1-11.38 1.09c-1.69-17.72-27.84-32.2-63.6-35.2-29.04-2.08-87.72 13.84-121.37 54.45-34.67 41.94-24.77 129.12-24.67 129.99a5.73 5.73 0 0 1-5.68 6.39z" class="uuid-c22f8f2e-73e8-402e-9148-a9b23f26ecb1" style="fill:#000000;fill-opacity:1"/><path id="path36" d="M1914.48 870.25c-10.62 0-22.82-2.69-34.11-11.62-16.47-13.04-23.89-28.01-29.96-46.48-2.01-5.78-8.06-23.17-15.6-24.8-3.5-.75-7.58 2.57-10.38 5.5a5.72 5.72 0 0 1-8.27-7.89c7.01-7.34 14.09-10.3 21.06-8.78 13.81 3 20.66 22.69 23.95 32.16 6.67 20.29 13.77 31.43 26.28 41.33 9.21 7.28 19.33 9.27 28.05 9.16-15.08-6.75-33.05-21.29-42.19-52.6a5.71 5.71 0 0 1 10.97-3.2c14.85 50.86 54.37 50.23 56 50.2a5.6 5.6 0 0 1 5.74 4.34 5.7 5.7 0 0 1-3.03 6.5 71 71 0 0 1-28.51 6.18" class="uuid-c22f8f2e-73e8-402e-9148-a9b23f26ecb1" style="fill:#000000;fill-opacity:1"/><path id="path37" d="M1910.28 945.41a5.7 5.7 0 0 1-4.99-8.5c.15-.27 15.37-28.35 4.74-56.63a5.71 5.71 0 1 1 10.7-4.02c7.25 19.29 4.53 37.99.8 50.57 3.34-3.34 6.54-8.13 8.39-14.98a5.72 5.72 0 0 1 11.03 2.99c-6.97 25.73-28.65 30.28-29.57 30.46q-.56.1-1.1.11" class="uuid-c22f8f2e-73e8-402e-9148-a9b23f26ecb1" style="fill:#000000;fill-opacity:1"/><path id="path38" d="M1948.41 815.11c-48.16 0-67.64-38.11-75.97-54.4-1.31-2.56-2.93-5.73-3.58-6.47-7.94-6.57-24.72-3.91-38.79 12.19a5.71 5.71 0 0 1-8.6-7.52c19.36-22.15 42.7-23.39 54.83-13.32 2.09 1.65 3.59 4.59 6.32 9.92 8.02 15.69 24.7 48.33 66.08 48.18h.02a5.7 5.7 0 0 1 .02 11.42z" class="uuid-c22f8f2e-73e8-402e-9148-a9b23f26ecb1" style="fill:#000000;fill-opacity:1"/><path id="path39" d="M1719.64 837.83q-5.92.01-12.8-.8a5.72 5.72 0 0 1 1.35-11.35c33.68 3.99 44.89-9.38 55.74-22.31 8.15-9.72 16.58-19.78 33.07-20.1h.11a5.71 5.71 0 0 1 .11 11.42c-11.3.22-17.15 7.19-24.55 16.02-10.26 12.24-22.73 27.12-53.03 27.12" class="uuid-c22f8f2e-73e8-402e-9148-a9b23f26ecb1" style="fill:#000000;fill-opacity:1"/><path id="path40" d="M1712.04 906.13a5.7 5.7 0 0 1-3.25-1.02c-.77-.53-18.82-13.38-14.91-39.74a5.7 5.7 0 1 1 11.3 1.68c-1.04 7.02-.03 12.69 1.7 17.09 1.62-13.02 6.61-31.25 20.98-46.03a5.72 5.72 0 0 1 8.2 7.96c-21.06 21.67-18.35 53.49-18.32 53.81a5.7 5.7 0 0 1-5.69 6.25z" class="uuid-c22f8f2e-73e8-402e-9148-a9b23f26ecb1" style="fill:#000000;fill-opacity:1"/><path id="path41" d="M1667.83 1098.5c-14.97 0-32.79-1.79-37.43-2.87a5.7 5.7 0 1 1 2.6-11.12c8.1 1.89 44.07 3.98 50.12 1.32 17.08-7.51 19.68-35.1 21.4-53.37q.28-3.04.56-5.73a5.7 5.7 0 1 1 11.36 1.2q-.27 2.64-.54 5.6c-1.97 20.93-4.94 52.55-28.18 62.76-3.7 1.62-11.33 2.21-19.88 2.21z" class="uuid-c22f8f2e-73e8-402e-9148-a9b23f26ecb1" style="fill:#000000;fill-opacity:1"/><path id="path42" d="M1870.17 1136a5.7 5.7 0 0 1-5.03-2.99c-14.13-26.14-6.65-56.91-1.69-77.27l.84-3.49a5.73 5.73 0 0 1 11.12 2.66l-.86 3.53c-4.81 19.78-11.4 46.87.64 69.14a5.7 5.7 0 0 1-5.02 8.43z" class="uuid-c22f8f2e-73e8-402e-9148-a9b23f26ecb1" style="fill:#000000;fill-opacity:1"/><path id="path43" d="M1408.02 1052.58q-.37 0-.74-.04c-53.68-6.88-125.22-18.93-202.57-51.36a5.72 5.72 0 0 1 4.42-10.54c60.17 25.22 119.86 40.34 199.6 50.56a5.71 5.71 0 0 1-.72 11.38z" class="uuid-c22f8f2e-73e8-402e-9148-a9b23f26ecb1" style="fill:#000000;fill-opacity:1"/><path id="path44" d="M1631.87 1095.51q-.6 0-1.21-.13c-13.88-2.99-26.83-7.74-40.53-12.77-18.46-6.77-37.55-13.78-62.22-17.93-10.1-1.7-19.32-3.09-28.06-4.41-27.23-4.11-50.75-7.67-82.56-17.81a5.73 5.73 0 0 1 3.47-10.89c30.95 9.87 52.95 13.2 80.8 17.41 8.81 1.33 18.07 2.74 28.25 4.45 25.71 4.32 46.19 11.84 64.26 18.47 13.32 4.89 25.9 9.51 39.01 12.33a5.72 5.72 0 0 1-1.2 11.3z" class="uuid-c22f8f2e-73e8-402e-9148-a9b23f26ecb1" style="fill:#000000;fill-opacity:1"/><path id="path45" d="M1186.99 1077.02a5.72 5.72 0 0 1-4.78-8.82c27.16-41.74 11.74-89.49-6.38-134.82-6-15-12.12-29.17-18.04-42.87-24.81-57.41-48.24-111.63-61.89-221.3a5.7 5.7 0 1 1 11.33-1.41c13.46 108.05 36.57 161.54 61.05 218.18 5.95 13.77 12.11 28.02 18.16 43.16 19.23 48.11 35.49 98.96 5.35 145.29a5.7 5.7 0 0 1-4.79 2.6z" class="uuid-c22f8f2e-73e8-402e-9148-a9b23f26ecb1" style="fill:#000000;fill-opacity:1"/><path id="path46" d="M1491.86 1294.89a5.7 5.7 0 0 1-3.94-1.57c-11.3-10.74-42.75-18.97-96.14-25.15a5.7 5.7 0 0 1-5.02-6.33 5.8 5.8 0 0 1 6.33-5.02c57.49 6.66 89.16 15.36 102.7 28.22a5.72 5.72 0 0 1-3.93 9.86z" class="uuid-c22f8f2e-73e8-402e-9148-a9b23f26ecb1" style="fill:#000000;fill-opacity:1"/><path id="path47" d="M1377.57 1238.52q-1 0-1.99-.36-11.18-4.14-23.01-8.47-13.38-4.91-27.45-10.12c-21.89-8.12-214.39-79.91-230.88-99.69-12.74-15.26-25.74-60.95-36.6-128.64-8.03-50.03-12.74-98.36-17.29-145.1-5.4-55.41-10.5-107.74-20.5-154.43a5.7 5.7 0 1 1 11.17-2.39c10.14 47.33 15.27 99.98 20.71 155.72 4.54 46.56 9.23 94.71 17.2 144.39 15.16 94.52 29.93 118.15 34.09 123.14 8.57 10.27 105.76 51.67 226.08 96.3q14.05 5.2 27.42 10.1 11.84 4.34 23.04 8.49a5.7 5.7 0 0 1-1.99 11.07z" class="uuid-c22f8f2e-73e8-402e-9148-a9b23f26ecb1" style="fill:#000000;fill-opacity:1"/><path id="path48" d="M1046.79 680.43a5.7 5.7 0 0 1-5.11-3.16c-8.29-16.58-5.31-33.92-2.42-50.69 1.64-9.52 3.18-18.5 2.65-27.01-.55-8.76-3.48-17.2-6.59-26.12-3.08-8.85-6.27-17.99-7.12-27.82-.02-.28-2.07-27.58 8.35-36.47a12.2 12.2 0 0 1 11.08-2.52c9.1 2.27 11.33 15.37 13.29 26.93.5 2.94 1.12 6.6 1.58 7.71l2.18 5.28c4.37 10.61 8.89 21.57 14.74 31.32a58 58 0 0 0 4.37 5.86c3.42 4.25 7.3 9.06 8.63 14.36 2.77 11.08 6.27 23.91 11.21 35.03a5.71 5.71 0 0 1-10.44 4.64c-5.3-11.92-8.96-25.34-11.85-36.9-.71-2.86-3.76-6.63-6.44-9.96a67 67 0 0 1-5.27-7.15c-6.29-10.48-10.97-21.85-15.51-32.84l-2.17-5.24c-.96-2.31-1.55-5.79-2.3-10.19-.82-4.83-2.74-16.14-5.13-17.89-.3-.03-.35.07-.57.26-3.62 3.08-5.13 18.14-4.38 26.79.73 8.4 3.55 16.49 6.53 25.05 3.23 9.26 6.56 18.84 7.21 29.17.62 9.84-1.12 19.91-2.79 29.66-2.69 15.64-5.23 30.41 1.38 43.64a5.7 5.7 0 0 1-5.1 8.26z" class="uuid-c22f8f2e-73e8-402e-9148-a9b23f26ecb1" style="fill:#000000;fill-opacity:1"/><path id="path49" d="M1101.34 673.27a5.7 5.7 0 0 1-5.7-5.43c-.93-18.51 4.39-39.17 10.03-61.04 3.02-11.72 6.14-23.84 8.45-36.17a314 314 0 0 1 2.16-10.35c2.88-13.14 5.38-24.49 1.39-36.84-4.83-14.95-14.32-30.3-23.5-45.13a503 503 0 0 1-11.43-19.08c-.29-.52-.74-1.44-1.3-2.6-2.62-5.44-4.43-8.52-5.68-10.23-1.05 3.77-.56 10.51 1.44 17.88 3.95 14.58 9.92 27.93 16.23 42.06a767 767 0 0 1 6.77 15.45c8.07 19.11-12.77 52.15-19.34 61.82a5.72 5.72 0 0 1-9.45-6.43c11.82-17.38 22.58-40.74 18.26-50.95-2.16-5.12-4.42-10.18-6.67-15.23-6.21-13.91-12.64-28.29-16.82-43.73-2.22-8.16-4.87-23.03 2.3-30.89a8.6 8.6 0 0 1 7.81-2.95c6.64.97 11.1 9.18 15.46 18.24.42.88.75 1.57.97 1.97 3.36 6.01 7.16 12.15 11.18 18.65 9.53 15.42 19.39 31.36 24.65 47.63 4.94 15.29 1.87 29.27-1.1 42.8-.72 3.27-1.45 6.59-2.09 10-2.37 12.71-5.54 25.02-8.61 36.92-5.41 21.01-10.52 40.85-9.68 57.62a5.7 5.7 0 0 1-5.42 5.99h-.29z" class="uuid-c22f8f2e-73e8-402e-9148-a9b23f26ecb1" style="fill:#000000;fill-opacity:1"/><path id="path50" d="M1025.41 695.1a5.7 5.7 0 0 1-5.21-3.35c-14.78-32.51-9.67-58-5.56-78.49 1.75-8.71 3.26-16.24 2.77-22.52-.37-4.71-5.06-14.69-9.59-24.33-6.21-13.19-12.62-26.84-13.84-37.58a5.72 5.72 0 0 1 11.35-1.29c1.01 8.87 7.29 22.23 12.83 34.01 5.43 11.54 10.12 21.51 10.64 28.31.61 7.86-1.04 16.1-2.95 25.65-3.78 18.87-8.49 42.36 4.76 71.52a5.7 5.7 0 0 1-5.2 8.07" class="uuid-c22f8f2e-73e8-402e-9148-a9b23f26ecb1" style="fill:#000000;fill-opacity:1"/><path id="path51" d="M1068.87 561.89q-.77 0-1.55-.22a5.7 5.7 0 0 1-3.95-7.04 51 51 0 0 0 1.62-8.56 5.7 5.7 0 1 1 11.36 1.14 61 61 0 0 1-1.99 10.51 5.7 5.7 0 0 1-5.5 4.17z" class="uuid-c22f8f2e-73e8-402e-9148-a9b23f26ecb1" style="fill:#000000;fill-opacity:1"/><path id="path52" d="M2070.42 1755.57c-18.62 0-47.32-7.65-70.37-22.15-14.37-9.05-28.41-20-46.17-33.86-24.69-19.27-55.42-43.25-104.99-76.67a5.7 5.7 0 1 1 6.39-9.47c49.9 33.64 82.11 58.78 105.63 77.13 17.51 13.67 31.34 24.46 45.23 33.2 28.95 18.22 65.68 23.33 73.79 19.05 13.78-7.27 26.49-29.19 36.76-63.41 11.36-37.87 1.88-78.62-7.29-118.02-2.99-12.83-6.07-26.09-8.34-38.92-5.46-30.95-7.39-61.04-8.55-86.4a5.7 5.7 0 0 1 5.45-5.97 5.8 5.8 0 0 1 5.97 5.45c1.14 24.99 3.03 54.62 8.38 84.93 2.21 12.53 5.13 25.05 8.22 38.32 9.51 40.86 19.34 83.11 7.1 123.89-11.33 37.75-25.58 61.38-42.37 70.23-3.38 1.79-8.54 2.67-14.84 2.67" class="uuid-c22f8f2e-73e8-402e-9148-a9b23f26ecb1" style="fill:#000000;fill-opacity:1"/><path id="path53" d="M2118.51 1414.22a5.7 5.7 0 0 1-5.41-3.86c-2.17-6.35-4.48-19.27-7.66-37.15-8.9-50.06-25.49-143.24-58.67-170.9-8.94-7.45-36.98-15.17-66.66-23.36-41.94-11.56-89.48-24.66-112.38-43.92a5.72 5.72 0 0 1 7.35-8.75c20.98 17.65 67.24 30.4 108.06 41.65 32.25 8.89 60.1 16.57 70.93 25.6 36.4 30.33 52.81 122.56 62.61 177.67 2.98 16.72 5.32 29.93 7.22 35.44a5.72 5.72 0 0 1-5.4 7.57z" class="uuid-c22f8f2e-73e8-402e-9148-a9b23f26ecb1" style="fill:#000000;fill-opacity:1"/><path id="path54" d="M2102.46 1649.54a5.7 5.7 0 0 1-5.34-3.7c-6.66-17.62-18.75-32.6-27.08-40.08-18.62-16.71-51.78-25.23-86.9-34.25-26.93-6.92-54.77-14.07-78.9-25.55a5.7 5.7 0 1 1 4.91-10.31c23.13 11.01 50.43 18.03 76.83 24.8 36.5 9.38 70.98 18.23 91.69 36.81 9.73 8.73 22.76 25.02 30.13 44.55a5.7 5.7 0 0 1-5.35 7.73z" class="uuid-c22f8f2e-73e8-402e-9148-a9b23f26ecb1" style="fill:#000000;fill-opacity:1"/><path id="path55" d="M1907.39 1554.17c-2.5 0-4.8-1.66-5.5-4.19-3.99-14.42-5.18-29.47-6.33-44.02-1.04-13.23-2.03-25.72-5.05-36.3-2.54-8.9-6.29-17.31-10.26-26.21-3.77-8.46-7.67-17.2-10.43-26.4a5.7 5.7 0 1 1 10.94-3.28c2.55 8.5 6.13 16.53 9.92 25.03 3.96 8.87 8.05 18.05 10.81 27.73 3.33 11.67 4.36 24.72 5.45 38.53 1.11 14.01 2.25 28.5 5.95 41.86a5.7 5.7 0 0 1-5.51 7.24z" class="uuid-c22f8f2e-73e8-402e-9148-a9b23f26ecb1" style="fill:#000000;fill-opacity:1"/><path id="path56" d="M1791.36 1503.32a5.7 5.7 0 0 1-3.75-1.41c-14.45-12.62-27.1-28.27-39.34-43.4-7.57-9.36-15.39-19.04-23.43-27.7-.62-.67-1.44-1.49-2.35-2.4-6.47-6.51-15.34-15.42-13.56-24.25.57-2.82 2.48-6.69 8.31-9.08 11.17-4.59 24.95 6.98 35.02 15.44 2.11 1.77 3.91 3.3 5.27 4.25 6.13 4.33 11.64 9.59 16.98 14.66 6.1 5.81 11.87 11.3 18.34 15.38 17.07 10.73 35.17 18.1 54.33 25.9q6.74 2.73 13.49 5.54a5.73 5.73 0 0 1-4.41 10.55q-6.7-2.8-13.38-5.5c-18.78-7.65-38.2-15.55-56.11-26.81-7.44-4.68-13.89-10.83-20.13-16.77-5.27-5.02-10.25-9.76-15.69-13.61a101 101 0 0 1-6.02-4.84c-5.08-4.26-18.55-15.56-23.33-13.62-1.19.49-1.5.89-1.5.89-.16 1.22 1.48 4.73 10.5 13.8 1.02 1.03 1.92 1.94 2.62 2.69 8.3 8.94 16.25 18.78 23.94 28.29 11.93 14.75 24.27 30.01 37.97 41.98a5.7 5.7 0 0 1-3.77 10.02" class="uuid-c22f8f2e-73e8-402e-9148-a9b23f26ecb1" style="fill:#000000;fill-opacity:1"/><path id="path57" d="M1777.36 1530.35c-1.61 0-3.2-.67-4.33-1.99-3.01-3.5-7.92-7.44-13.12-11.61-6.36-5.1-12.93-10.38-18.01-16.29-2.19-2.55-6.72-9.48-15.19-22.53-7.99-12.31-17.94-27.63-27.63-41.5q-1.04-1.48-2.41-3.31c-5.27-7.14-12.5-16.91-11.86-25.45a11 11 0 0 1 7.25-9.82c8.56-3.21 21.98 2.53 26.14 6.62a5.72 5.72 0 0 1-8.01 8.15c-2.68-2.62-12.14-5.31-14.22-4.03-.09 4.23 6.4 13.01 9.89 17.73.96 1.31 1.85 2.51 2.58 3.56 9.8 14.03 19.8 29.44 27.84 41.82 6.7 10.31 12.48 19.21 14.28 21.31 4.39 5.11 10.55 10.05 16.5 14.83 5.62 4.51 10.92 8.76 14.62 13.06a5.72 5.72 0 0 1-4.32 9.44z" class="uuid-c22f8f2e-73e8-402e-9148-a9b23f26ecb1" style="fill:#000000;fill-opacity:1"/><path id="path58" d="M1759.67 1555.38a5.7 5.7 0 0 1-3.19-.98c-30.12-20.32-37.55-39.36-47.85-65.71a833 833 0 0 0-5.44-13.69c-4.74-11.58-10.11-24.69-12.98-37.3l-.19-.78c-1.16-4.55-2.91-11.42 1.47-15.2 1.07-.92 4.04-2.85 8.59-.95a5.73 5.73 0 0 1 .33 10.39q.24 1.23.68 2.94l.26 1.07c2.66 11.68 7.84 24.34 12.41 35.5 2.01 4.9 3.81 9.5 5.52 13.87 10.25 26.23 16.43 42.07 43.6 60.4a5.71 5.71 0 0 1-3.2 10.45z" class="uuid-c22f8f2e-73e8-402e-9148-a9b23f26ecb1" style="fill:#000000;fill-opacity:1"/><path id="path59" d="M1851.39 1623.44q-1.1 0-2.2-.44c-32.8-13.73-78.69-37.99-106.74-56.43a153 153 0 0 0-6.95-4.18c-8.87-5.15-18.93-10.98-23.45-18.68-6.27-10.69-8.47-25.45-10.41-38.47a271 271 0 0 0-1.94-11.91c-4.95-25.01-2.09-27.34.21-29.22a6.5 6.5 0 0 1 6.74-.93 5.73 5.73 0 0 1 1.73 9.42c0 2.82.62 8.87 2.5 18.36.78 4 1.41 8.22 2.06 12.6 1.79 12 3.81 25.59 8.96 34.37 3 5.11 12.05 10.36 19.33 14.58a167 167 0 0 1 7.49 4.51c27.54 18.11 72.63 41.94 104.87 55.44a5.73 5.73 0 0 1-2.21 10.99z" class="uuid-c22f8f2e-73e8-402e-9148-a9b23f26ecb1" style="fill:#000000;fill-opacity:1"/><path id="path60" d="M1970.57 1817.19a5.7 5.7 0 0 1-5.69-5.21c-2.6-29.2-2.12-64.9-1.46-96.07a5.7 5.7 0 0 1 5.71-5.59h.12a5.7 5.7 0 0 1 5.59 5.83c-.65 30.87-1.13 66.19 1.41 94.82a5.7 5.7 0 0 1-5.7 6.21z" class="uuid-c22f8f2e-73e8-402e-9148-a9b23f26ecb1" style="fill:#000000;fill-opacity:1"/><path id="path61" d="M1979.39 1565.51q-.31.01-.62-.04a5.7 5.7 0 0 1-5.06-6.29c2.15-19.77 4.16-36.15 5.48-46.76l.37-3c6.3-50.41 15.82-126.58 28.31-176.54a5.72 5.72 0 0 1 11.09 2.77c-12.33 49.29-21.79 125.05-28.06 175.18l-.37 3a2887 2887 0 0 0-5.46 46.58 5.7 5.7 0 0 1-5.67 5.1z" class="uuid-c22f8f2e-73e8-402e-9148-a9b23f26ecb1" style="fill:#000000;fill-opacity:1"/><path id="path62" d="M1470.82 1826.96q-.53 0-1.07-.1a5.7 5.7 0 0 1-4.55-6.68c11.47-60.49 6.63-239.77 2.73-383.83-1.71-63.34-3.19-118.04-3.19-156.22a5.7 5.7 0 1 1 11.42 0c0 38.02 1.48 92.65 3.19 155.91 3.91 144.61 8.78 324.58-2.92 386.27a5.7 5.7 0 0 1-5.61 4.65" class="uuid-c22f8f2e-73e8-402e-9148-a9b23f26ecb1" style="fill:#000000;fill-opacity:1"/><path id="path63" d="M1783.96 1226.12q-5.99 0-12.02-.44c-70.24-5.18-123.45-53.42-145.99-132.34a5.71 5.71 0 1 1 10.99-3.13c21.14 74.04 70.65 119.27 135.84 124.08 55.21 4.05 110.72-23.65 129.21-64.48a5.71 5.71 0 1 1 10.41 4.71c-19.34 42.68-72.12 71.6-128.43 71.6z" class="uuid-c22f8f2e-73e8-402e-9148-a9b23f26ecb1" style="fill:#000000;fill-opacity:1"/><path id="path64" d="M1392.26 1268.15a5.7 5.7 0 0 1-5.02-2.98c-30.54-56.13-10.68-172.43 26.13-231.31a5.7 5.7 0 1 1 9.68 6.06c-34.99 55.96-53.75 168.38-25.78 219.79a5.7 5.7 0 0 1-5.02 8.45z" class="uuid-c22f8f2e-73e8-402e-9148-a9b23f26ecb1" style="fill:#000000;fill-opacity:1"/><path id="path65" d="M2003.87 1472.58q-5.71 0-10.97-.73a5.71 5.71 0 0 1 1.59-11.31c36.81 5.16 96.99-22.35 119.23-54.58a5.72 5.72 0 0 1 9.41 6.49c-22.58 32.72-78.48 60.13-119.27 60.13z" class="uuid-c22f8f2e-73e8-402e-9148-a9b23f26ecb1" style="fill:#000000;fill-opacity:1"/><path id="path66" d="M1179.39 445.09c-7.67 0-14.73-2-20.6-6.21-13.74-9.85-17.69-29.32-10.57-52.08a5.71 5.71 0 0 1 10.9 3.42c-5.5 17.56-3.08 32.65 6.32 39.38 15.62 11.18 46.42-1.82 67.25-28.41 9.46-12.08 15.89-25.62 18.1-38.13a5.72 5.72 0 0 1 11.25 1.99c-2.53 14.32-9.76 29.66-20.35 43.19-18.29 23.35-42.36 36.86-62.29 36.86z" class="uuid-c22f8f2e-73e8-402e-9148-a9b23f26ecb1" style="fill:#000000;fill-opacity:1"/><path id="path67" d="M1180.33 465.58c-10.45 0-20.08-2.57-28.01-8.01-20.92-14.34-25.24-44.31-10.99-76.35a5.72 5.72 0 0 1 10.44 4.64c-11.9 26.76-9.15 51.21 7.01 62.28 22.9 15.7 64.36.82 92.42-33.16 13.85-16.78 22.25-35.53 23.65-52.8a5.71 5.71 0 0 1 11.39.93c-1.59 19.58-10.9 40.59-26.23 59.15-22.63 27.4-53.69 43.31-79.68 43.31z" class="uuid-c22f8f2e-73e8-402e-9148-a9b23f26ecb1" style="fill:#000000;fill-opacity:1"/><path id="path68" d="M1016.52 349.59a5.7 5.7 0 0 1-3.51-1.21l-26.94-21.06a6 6 0 0 1-1.39-1.58c-.79-1.32-19.08-32.7-5.06-68.21a5.71 5.71 0 1 1 10.63 4.19c-10.73 27.18 1.2 52.38 3.78 57.31l26.02 20.34a5.7 5.7 0 0 1-3.53 10.21z" class="uuid-c22f8f2e-73e8-402e-9148-a9b23f26ecb1" style="fill:#000000;fill-opacity:1"/><path id="path69" d="M1149.85 453.82a5.6 5.6 0 0 1-3.51-1.21l-36.37-28.43a5.7 5.7 0 1 1 7.04-9l36.37 28.43a5.7 5.7 0 0 1-3.53 10.21" class="uuid-c22f8f2e-73e8-402e-9148-a9b23f26ecb1" style="fill:#000000;fill-opacity:1"/><path id="path70" d="M1112.5 424.82q-1.1 0-2.18-.43l-51.56-21.25a5.67 5.67 0 0 1-2.78-8.1l9.35-16.46-47.1-35.86a5.72 5.72 0 0 1 6.93-9.09l51.39 39.13q.37.28.7.63l39.42 41.81a5.7 5.7 0 0 1-4.16 9.63zm-43.39-29.78 21.02 8.66-16.19-17.17z" class="uuid-c22f8f2e-73e8-402e-9148-a9b23f26ecb1" style="fill:#000000;fill-opacity:1"/><path id="path71" d="M1059.41 404.05a5.7 5.7 0 0 1-3.59-1.28l-48.79-39.58a5.7 5.7 0 0 1-1.43-7.15l11.06-20.45a5.7 5.7 0 1 1 10.05 5.43l-8.81 16.29 45.11 36.59a5.73 5.73 0 0 1-3.6 10.15" class="uuid-c22f8f2e-73e8-402e-9148-a9b23f26ecb1" style="fill:#000000;fill-opacity:1"/><path id="path72" d="M1044.8 443.39h-.12a5.7 5.7 0 0 1-5.59-5.83l.49-23.9-18.83-17.5a5.7 5.7 0 0 1-1.16-6.85l8.13-15.4a5.72 5.72 0 0 1 10.11 5.33l-6.09 11.53 17.5 16.26a5.7 5.7 0 0 1 1.82 4.3l-.54 26.45a5.7 5.7 0 0 1-5.71 5.6z" class="uuid-c22f8f2e-73e8-402e-9148-a9b23f26ecb1" style="fill:#000000;fill-opacity:1"/><path id="path73" d="M1060.35 434.79a5.7 5.7 0 0 1-5.7-5.44l-1.43-29.42a5.71 5.71 0 0 1 11.41-.55l1.43 29.42a5.7 5.7 0 0 1-5.43 5.98z" class="uuid-c22f8f2e-73e8-402e-9148-a9b23f26ecb1" style="fill:#000000;fill-opacity:1"/><path id="path74" d="M1083.74 442.18a5.7 5.7 0 0 1-5.71-5.63l-.37-26.82a5.7 5.7 0 0 1 5.63-5.79 5.86 5.86 0 0 1 5.79 5.63l.37 26.82a5.7 5.7 0 0 1-5.63 5.79z" class="uuid-c22f8f2e-73e8-402e-9148-a9b23f26ecb1" style="fill:#000000;fill-opacity:1"/><path id="path75" d="M1042.98 473.45a5.7 5.7 0 0 1-4.79-2.59 30 30 0 0 1-4.86-16.37c0-16.73 13.66-30.19 30.76-30.23 12.73 0 26.59 6.5 27.83 24.76a5.72 5.72 0 0 1-11.4.78c-.8-11.73-9.52-14.27-16.46-14.11-10.72 0-19.3 8.43-19.3 18.8 0 3.61 1.04 7.11 3.01 10.13a5.72 5.72 0 0 1-4.78 8.84z" class="uuid-c22f8f2e-73e8-402e-9148-a9b23f26ecb1" style="fill:#000000;fill-opacity:1"/><path id="path76" d="M1063.24 531.18q-2.5 0-4.9-.12a5.71 5.71 0 0 1 .51-11.41q2.57.13 5.31.1c6.88-.07 14.23-1.02 18.85-1.73l-.08-5.45a5.7 5.7 0 0 1 5.63-5.79 5.63 5.63 0 0 1 5.79 5.63l.14 10.34a5.7 5.7 0 0 1-4.62 5.68c-.54.11-13.44 2.6-25.59 2.74h-1.06z" class="uuid-c22f8f2e-73e8-402e-9148-a9b23f26ecb1" style="fill:#000000;fill-opacity:1"/><path id="path77" d="M1033.12 484.61a5.7 5.7 0 0 1-5.7-5.52l-.34-9.8a5.68 5.68 0 0 1 6.13-5.89c.15.01 15.74 1.12 30.21.81q2.03-.05 4.05-.13a5.71 5.71 0 1 1 .46 11.42q-2.1.09-4.24.14c-9.33.22-18.9-.15-24.97-.46l.12 3.52a5.7 5.7 0 0 1-5.51 5.9z" class="uuid-c22f8f2e-73e8-402e-9148-a9b23f26ecb1" style="fill:#000000;fill-opacity:1"/><path id="path78" d="M1063.13 551.61a5.7 5.7 0 1 1 0-11.42c9 0 16.67-6.01 18.67-14.61a5.72 5.72 0 0 1 11.13 2.57 30.34 30.34 0 0 1-29.8 23.46" class="uuid-c22f8f2e-73e8-402e-9148-a9b23f26ecb1" style="fill:#000000;fill-opacity:1"/><path id="path79" d="M831.68 552.09a5.7 5.7 0 0 1-5.71-5.79l.92-66.85a5.7 5.7 0 0 1 5.71-5.63h.03l206.77 1.14a5.7 5.7 0 0 1 5.68 5.84l-.62 25.92a5.67 5.67 0 0 1-5.85 5.57 5.7 5.7 0 0 1-5.57-5.85l.48-20.1-195.28-1.08-.75 54.09c16.76-3.36 60.84-11.83 101.58-16.52a982 982 0 0 1 89.72-5.85 5.7 5.7 0 1 1 .22 11.42 970 970 0 0 0-88.63 5.78c-50.82 5.85-106.95 17.66-107.51 17.78a6 6 0 0 1-1.18.12z" class="uuid-c22f8f2e-73e8-402e-9148-a9b23f26ecb1" style="fill:#000000;fill-opacity:1"/><path id="path80" d="M838.6 599.42c-21.05 0-32.07-47.51-32.07-94.43s11.01-94.44 32.07-94.44c22.66 0 29.3 51.08 30.79 66.74a5.71 5.71 0 1 1-11.37 1.09c-3.8-39.86-14.52-56.4-19.42-56.4-7.01 0-20.64 29.3-20.64 83.01S831.6 588 838.6 588c4.93 0 13.86-14.45 18.28-46.58a5.72 5.72 0 0 1 11.32 1.56c-2.33 16.97-9.89 56.45-29.6 56.45z" class="uuid-c22f8f2e-73e8-402e-9148-a9b23f26ecb1" style="fill:#000000;fill-opacity:1"/><path id="path81" d="M833.53 600.03c-21.05 0-32.07-47.51-32.07-94.44s11.01-94.44 32.07-94.44a5.7 5.7 0 1 1 0 11.42c-7.01 0-20.64 29.3-20.64 83.01s13.64 83.01 20.64 83.01c1.89 0 5.55-.35 5.55-.35l1.05 11.38s-4.36.4-6.6.4z" class="uuid-c22f8f2e-73e8-402e-9148-a9b23f26ecb1" style="fill:#000000;fill-opacity:1"/><path id="path82" d="M1160.76 397.32a5.8 5.8 0 0 1-3.43-1.14L970.61 256.04a5.7 5.7 0 0 1-1.44-7.56c.89-1.45 22.12-35.56 51.26-46.64 41.57-15.8 64.45-1.78 65.4-1.17l253.45 166.08a5.72 5.72 0 0 1-5.86 9.8c-.3-.16-31.81-16.63-84.43-8.2-42.05 6.73-85.25 28.16-85.68 28.37q-1.23.6-2.56.6zM981.8 250.15l179.61 134.8c11.01-5.21 48.21-21.87 85.78-27.89 21.93-3.51 40.41-3.01 54.9-1.03l-222.45-145.76c-.66-.4-19.35-11.35-55.15 2.25-19.86 7.55-36.27 28.52-42.69 37.63" class="uuid-c22f8f2e-73e8-402e-9148-a9b23f26ecb1" style="fill:#000000;fill-opacity:1"/><path id="path83" d="M1283.06 454.28a5.7 5.7 0 0 1-3.35-1.09l-31.58-22.89a5.71 5.71 0 1 1 6.71-9.25l29.01 21.03c9.09-3.88 37.88-17.5 48.38-38.2 9.42-18.58.54-26.61.16-26.94a5.76 5.76 0 0 1-.68-8.01 5.66 5.66 0 0 1 7.92-.83c.68.55 16.58 13.76 2.79 40.95-14.5 28.6-55.6 44.22-57.35 44.88q-.99.36-2 .36z" class="uuid-c22f8f2e-73e8-402e-9148-a9b23f26ecb1" style="fill:#000000;fill-opacity:1"/><path id="path84" d="M1193.76 406.12c-3.84 0-7.23-1.27-9.89-3.72-5.15-4.75-6.29-13.08-2.97-21.75a5.71 5.71 0 0 1 10.67 4.07c-1.79 4.69-1.23 8.09.04 9.27q.87.78 2.6.68c2.55-.18 6.93-2.09 10.87-6.89 4.27-5.2 5.54-10.7 4.9-13.85a5.71 5.71 0 1 1 11.2-2.26c1.45 7.18-1.33 16.14-7.27 23.37-5.3 6.46-12.37 10.58-18.91 11.03q-.63.04-1.24.04z" class="uuid-c22f8f2e-73e8-402e-9148-a9b23f26ecb1" style="fill:#000000;fill-opacity:1"/><path id="path85" d="M1034.55 559.26q-1.3 0-2.55-.6c-7.64-3.82-14.54-16.09-20.86-28.77l-.4-.8a5.7 5.7 0 1 1 10.22-5.1l.4.81c6.94 13.94 12.24 21.9 15.74 23.65a5.7 5.7 0 0 1-2.56 10.82z" class="uuid-c22f8f2e-73e8-402e-9148-a9b23f26ecb1" style="fill:#000000;fill-opacity:1"/><path id="path86" d="M1030.23 480.49a5.7 5.7 0 0 1-5.71-5.71c0-.68-.26-2.91-.5-4.88-1.86-15.81-2.86-30.41 5.13-35.31 2.73-1.67 7.38-2.72 14.08 1.74a5.71 5.71 0 0 1-6.34 9.5c-.85-.57-1.48-.88-1.89-1.05-1.27 2.86-1.15 10.85.37 23.79.35 2.93.57 4.87.57 6.22a5.7 5.7 0 0 1-5.71 5.71z" class="uuid-c22f8f2e-73e8-402e-9148-a9b23f26ecb1" style="fill:#000000;fill-opacity:1"/><path id="path87" d="M1016.19 485.64a5.7 5.7 0 0 1-5.42-3.91c-2.26-6.76-2.91-20.5 2.87-28.51a14.2 14.2 0 0 1 11.91-6.16 5.7 5.7 0 1 1 0 11.42c-.98 0-1.8.24-2.64 1.41-2.88 3.99-2.77 13.81-1.3 18.22a5.72 5.72 0 0 1-5.42 7.53" class="uuid-c22f8f2e-73e8-402e-9148-a9b23f26ecb1" style="fill:#000000;fill-opacity:1"/><path id="path88" d="M1398.71 305.93h-.03a5.7 5.7 0 0 1-5.69-5.74c.1-21.33-9.35-41.03-25.95-54.04-16.81-13.18-38.44-17.6-59.34-12.12a5.71 5.71 0 0 1-2.89-11.05c24.39-6.38 49.64-1.21 69.28 14.19 19.39 15.21 30.45 38.2 30.33 63.09a5.7 5.7 0 0 1-5.71 5.69z" class="uuid-c22f8f2e-73e8-402e-9148-a9b23f26ecb1" style="fill:var(--color-home-service-icon-waves, #edf55b);fill-opacity:1"/><path id="path89" d="M1371.61 310.97q-.3 0-.6-.03a5.7 5.7 0 0 1-5.09-6.27 41.5 41.5 0 0 0-15.59-37.18 41.5 41.5 0 0 0-39.1-6.52 5.7 5.7 0 1 1-3.66-10.81 52.8 52.8 0 0 1 69.73 55.71 5.7 5.7 0 0 1-5.67 5.12z" class="uuid-c22f8f2e-73e8-402e-9148-a9b23f26ecb1" style="fill:var(--color-home-service-icon-waves, #edf55b);fill-opacity:1"/><path id="path90" d="M1342.3 311.02q-.7 0-1.4-.18a5.7 5.7 0 0 1-4.14-6.94 13 13 0 0 0-4.48-13.39 13 13 0 0 0-14.7-.8 5.7 5.7 0 1 1-5.91-9.77 24.5 24.5 0 0 1 27.66 1.58 24.4 24.4 0 0 1 8.51 25.18 5.7 5.7 0 0 1-5.53 4.32z" class="uuid-c22f8f2e-73e8-402e-9148-a9b23f26ecb1" style="fill:var(--color-home-service-icon-waves, #edf55b);fill-opacity:1"/><path id="path91" d="M1314.41 301.9a7.64 7.64 0 0 1 10.73-1.27 7.64 7.64 0 0 1 1.33 10.73 7.64 7.64 0 0 1-10.73 1.27 7.63 7.63 0 0 1-1.33-10.72z" class="uuid-c9b328c6-995f-4c2f-8605-451227117b9e" style="fill:var(--color-home-service-icon-waves, #edf55b);fill-opacity:1"/><path id="path92" d="M1769.58 1584.9q-.78 0-1.56-.21l-67.05-18.95a30.2 30.2 0 0 1-20.98-37.14l15.84-58.82a5.7 5.7 0 1 1 11.03 2.97l-15.85 58.86a18.8 18.8 0 0 0 13.04 23.13l67.08 18.95a5.72 5.72 0 0 1-1.54 11.21z" class="uuid-c22f8f2e-73e8-402e-9148-a9b23f26ecb1" style="fill:#000000;fill-opacity:1"/><path id="path93" d="M1855.86 1483.54q-.81 0-1.64-.24a5.7 5.7 0 0 1-3.84-7.11l47.45-158.99a18.76 18.76 0 0 0-13.08-22.98l-105.37-29.24a18.8 18.8 0 0 0-23.09 13.06l-31.36 122.79a5.72 5.72 0 0 1-11.07-2.83l31.39-122.9a30.24 30.24 0 0 1 37.18-21.12l105.37 29.24a30.2 30.2 0 0 1 21.01 37.14l-47.47 159.09a5.7 5.7 0 0 1-5.47 4.08z" class="uuid-c22f8f2e-73e8-402e-9148-a9b23f26ecb1" style="fill:#000000;fill-opacity:1"/><path id="path94" d="M1905.26 1380.77a5.7 5.7 0 0 1-3.66-10.1c5.09-4.24 9.69-8.87 14.57-13.77l2.43-2.44a5.72 5.72 0 0 1 8.08 8.08l-2.41 2.42c-4.85 4.87-9.86 9.91-15.36 14.49a5.7 5.7 0 0 1-3.65 1.33z" class="uuid-c22f8f2e-73e8-402e-9148-a9b23f26ecb1" style="fill:#000000;fill-opacity:1"/><path id="path95" d="M1912.71 1401.48a5.72 5.72 0 0 1-1.81-11.13l2.28-.76q4.46-1.49 7.65-2.42c1.99-.58 5.25-1.54 11.77-3.49a5.7 5.7 0 1 1 3.28 10.94c-6.56 1.97-9.84 2.93-11.84 3.52q-3.02.88-7.24 2.29l-2.28.76q-.9.3-1.81.29" class="uuid-c22f8f2e-73e8-402e-9148-a9b23f26ecb1" style="fill:#000000;fill-opacity:1"/><path id="path96" d="M1925.95 1428.81c-.92 0-1.86-.22-2.73-.7l-9.68-5.1a5.7 5.7 0 1 1 0-11.42h1.66q1.36 0 2.56.61l1.66.83 9.28 5.06a5.71 5.71 0 0 1-2.74 10.73z" class="uuid-c22f8f2e-73e8-402e-9148-a9b23f26ecb1" style="fill:#000000;fill-opacity:1"/></g></svg>