<svg xmlns="http://www.w3.org/2000/svg" viewBox="0 0 2000.1 2146.6"><defs><clipPath id="clipPath6"><path d="M893.81 7139.4c677.4-5392.7 5379.4-6852.2 12015-6852.2 6635.9 0 11151 1331.8 12015 6852.2 889.9 5682.7-2677.1 12023-12015 11953-9735-73.5-12771-5937.3-12015-11953"/></clipPath><clipPath id="clipPath8"><path d="M893.81 7139.4c677.4-5392.7 5379.4-6852.2 12015-6852.2 6635.9 0 11151 1331.8 12015 6852.2 889.9 5682.7-2677.1 12023-12015 11953-9735-73.5-12771-5937.3-12015-11953"/></clipPath><clipPath id="clipPath10"><path d="M893.81 7139.4c677.4-5392.7 5379.4-6852.2 12015-6852.2 6635.9 0 11151 1331.8 12015 6852.2 889.9 5682.7-2677.1 12023-12015 11953-9735-73.5-12771-5937.3-12015-11953"/></clipPath><clipPath id="clipPath12"><path d="M893.81 7139.4c677.4-5392.7 5379.4-6852.2 12015-6852.2 6635.9 0 11151 1331.8 12015 6852.2 889.9 5682.7-2677.1 12023-12015 11953-9735-73.5-12771-5937.3-12015-11953"/></clipPath><clipPath id="clipPath14"><path d="M893.81 7139.4c677.4-5392.7 5379.4-6852.2 12015-6852.2 6635.9 0 11151 1331.8 12015 6852.2 889.9 5682.7-2677.1 12023-12015 11953-9735-73.5-12771-5937.3-12015-11953"/></clipPath><clipPath id="clipPath16"><path d="M893.81 7139.4c677.4-5392.7 5379.4-6852.2 12015-6852.2 6635.9 0 11151 1331.8 12015 6852.2 889.9 5682.7-2677.1 12023-12015 11953-9735-73.5-12771-5937.3-12015-11953"/></clipPath><clipPath id="clipPath18"><path d="M893.81 7139.4c677.4-5392.7 5379.4-6852.2 12015-6852.2 6635.9 0 11151 1331.8 12015 6852.2 889.9 5682.7-2677.1 12023-12015 11953-9735-73.5-12771-5937.3-12015-11953"/></clipPath><clipPath id="clipPath20"><path d="M893.81 7139.4c677.4-5392.7 5379.4-6852.2 12015-6852.2 6635.9 0 11151 1331.8 12015 6852.2 889.9 5682.7-2677.1 12023-12015 11953-9735-73.5-12771-5937.3-12015-11953"/></clipPath><clipPath id="clipPath22"><path d="M893.81 7139.4c677.4-5392.7 5379.4-6852.2 12015-6852.2 6635.9 0 11151 1331.8 12015 6852.2 889.9 5682.7-2677.1 12023-12015 11953-9735-73.5-12771-5937.3-12015-11953"/></clipPath><clipPath id="clipPath24"><path d="M893.81 7139.4c677.4-5392.7 5379.4-6852.2 12015-6852.2 6635.9 0 11151 1331.8 12015 6852.2 889.9 5682.7-2677.1 12023-12015 11953-9735-73.5-12771-5937.3-12015-11953"/></clipPath><clipPath id="clipPath26"><path d="M893.81 7139.4c677.4-5392.7 5379.4-6852.2 12015-6852.2 6635.9 0 11151 1331.8 12015 6852.2 889.9 5682.7-2677.1 12023-12015 11953-9735-73.5-12771-5937.3-12015-11953"/></clipPath><clipPath id="clipPath28"><path d="M893.81 7139.4c677.4-5392.7 5379.4-6852.2 12015-6852.2 6635.9 0 11151 1331.8 12015 6852.2 889.9 5682.7-2677.1 12023-12015 11953-9735-73.5-12771-5937.3-12015-11953"/></clipPath><clipPath id="clipPath30"><path d="M893.81 7139.4c677.4-5392.7 5379.4-6852.2 12015-6852.2 6635.9 0 11151 1331.8 12015 6852.2 889.9 5682.7-2677.1 12023-12015 11953-9735-73.5-12771-5937.3-12015-11953"/></clipPath><clipPath id="clipPath32"><path d="M893.81 7139.4c677.4-5392.7 5379.4-6852.2 12015-6852.2 6635.9 0 11151 1331.8 12015 6852.2 889.9 5682.7-2677.1 12023-12015 11953-9735-73.5-12771-5937.3-12015-11953"/></clipPath><clipPath id="clipPath34"><path d="M893.81 7139.4c677.4-5392.7 5379.4-6852.2 12015-6852.2 6635.9 0 11151 1331.8 12015 6852.2 889.9 5682.7-2677.1 12023-12015 11953-9735-73.5-12771-5937.3-12015-11953"/></clipPath><clipPath id="clipPath36"><path d="M893.81 7139.4c677.4-5392.7 5379.4-6852.2 12015-6852.2 6635.9 0 11151 1331.8 12015 6852.2 889.9 5682.7-2677.1 12023-12015 11953-9735-73.5-12771-5937.3-12015-11953"/></clipPath><clipPath id="clipPath38"><path d="M893.81 7139.4c677.4-5392.7 5379.4-6852.2 12015-6852.2 6635.9 0 11151 1331.8 12015 6852.2 889.9 5682.7-2677.1 12023-12015 11953-9735-73.5-12771-5937.3-12015-11953"/></clipPath><clipPath id="clipPath40"><path d="M893.81 7139.4c677.4-5392.7 5379.4-6852.2 12015-6852.2 6635.9 0 11151 1331.8 12015 6852.2 889.9 5682.7-2677.1 12023-12015 11953-9735-73.5-12771-5937.3-12015-11953"/></clipPath><clipPath id="clipPath42"><path d="M893.81 7139.4c677.4-5392.7 5379.4-6852.2 12015-6852.2 6635.9 0 11151 1331.8 12015 6852.2 889.9 5682.7-2677.1 12023-12015 11953-9735-73.5-12771-5937.3-12015-11953"/></clipPath><clipPath id="clipPath44"><path d="M893.81 7139.4c677.4-5392.7 5379.4-6852.2 12015-6852.2 6635.9 0 11151 1331.8 12015 6852.2 889.9 5682.7-2677.1 12023-12015 11953-9735-73.5-12771-5937.3-12015-11953"/></clipPath><clipPath id="clipPath46"><path d="M893.81 7139.4c677.4-5392.7 5379.4-6852.2 12015-6852.2 6635.9 0 11151 1331.8 12015 6852.2 889.9 5682.7-2677.1 12023-12015 11953-9735-73.5-12771-5937.3-12015-11953"/></clipPath><clipPath id="clipPath48"><path d="M893.81 7139.4c677.4-5392.7 5379.4-6852.2 12015-6852.2 6635.9 0 11151 1331.8 12015 6852.2 889.9 5682.7-2677.1 12023-12015 11953-9735-73.5-12771-5937.3-12015-11953"/></clipPath><clipPath id="clipPath50"><path d="M893.81 7139.4c677.4-5392.7 5379.4-6852.2 12015-6852.2 6635.9 0 11151 1331.8 12015 6852.2 889.9 5682.7-2677.1 12023-12015 11953-9735-73.5-12771-5937.3-12015-11953"/></clipPath><clipPath id="clipPath52"><path d="M893.81 7139.4c677.4-5392.7 5379.4-6852.2 12015-6852.2 6635.9 0 11151 1331.8 12015 6852.2 889.9 5682.7-2677.1 12023-12015 11953-9735-73.5-12771-5937.3-12015-11953"/></clipPath><clipPath id="clipPath54"><path d="M893.81 7139.4c677.4-5392.7 5379.4-6852.2 12015-6852.2 6635.9 0 11151 1331.8 12015 6852.2 889.9 5682.7-2677.1 12023-12015 11953-9735-73.5-12771-5937.3-12015-11953"/></clipPath><clipPath id="clipPath56"><path d="M893.81 7139.4c677.4-5392.7 5379.4-6852.2 12015-6852.2 6635.9 0 11151 1331.8 12015 6852.2 889.9 5682.7-2677.1 12023-12015 11953-9735-73.5-12771-5937.3-12015-11953"/></clipPath><clipPath id="clipPath58"><path d="M893.81 7139.4c677.4-5392.7 5379.4-6852.2 12015-6852.2 6635.9 0 11151 1331.8 12015 6852.2 889.9 5682.7-2677.1 12023-12015 11953-9735-73.5-12771-5937.3-12015-11953"/></clipPath><clipPath id="clipPath60"><path d="M893.81 7139.4c677.4-5392.7 5379.4-6852.2 12015-6852.2 6635.9 0 11151 1331.8 12015 6852.2 889.9 5682.7-2677.1 12023-12015 11953-9735-73.5-12771-5937.3-12015-11953"/></clipPath><clipPath id="clipPath62"><path d="M893.81 7139.4c677.4-5392.7 5379.4-6852.2 12015-6852.2 6635.9 0 11151 1331.8 12015 6852.2 889.9 5682.7-2677.1 12023-12015 11953-9735-73.5-12771-5937.3-12015-11953"/></clipPath><clipPath id="clipPath64"><path d="M893.81 7139.4c677.4-5392.7 5379.4-6852.2 12015-6852.2 6635.9 0 11151 1331.8 12015 6852.2 889.9 5682.7-2677.1 12023-12015 11953-9735-73.5-12771-5937.3-12015-11953"/></clipPath><clipPath id="clipPath66"><path d="M893.81 7139.4c677.4-5392.7 5379.4-6852.2 12015-6852.2 6635.9 0 11151 1331.8 12015 6852.2 889.9 5682.7-2677.1 12023-12015 11953-9735-73.5-12771-5937.3-12015-11953"/></clipPath><clipPath id="clipPath68"><path d="M893.81 7139.4c677.4-5392.7 5379.4-6852.2 12015-6852.2 6635.9 0 11151 1331.8 12015 6852.2 889.9 5682.7-2677.1 12023-12015 11953-9735-73.5-12771-5937.3-12015-11953"/></clipPath><clipPath id="clipPath70"><path d="M893.81 7139.4c677.4-5392.7 5379.4-6852.2 12015-6852.2 6635.9 0 11151 1331.8 12015 6852.2 889.9 5682.7-2677.1 12023-12015 11953-9735-73.5-12771-5937.3-12015-11953"/></clipPath><clipPath id="clipPath72"><path d="M893.81 7139.4c677.4-5392.7 5379.4-6852.2 12015-6852.2 6635.9 0 11151 1331.8 12015 6852.2 889.9 5682.7-2677.1 12023-12015 11953-9735-73.5-12771-5937.3-12015-11953"/></clipPath><clipPath id="clipPath74"><path d="M893.81 7139.4c677.4-5392.7 5379.4-6852.2 12015-6852.2 6635.9 0 11151 1331.8 12015 6852.2 889.9 5682.7-2677.1 12023-12015 11953-9735-73.5-12771-5937.3-12015-11953"/></clipPath><clipPath id="clipPath76"><path d="M893.81 7139.4c677.4-5392.7 5379.4-6852.2 12015-6852.2 6635.9 0 11151 1331.8 12015 6852.2 889.9 5682.7-2677.1 12023-12015 11953-9735-73.5-12771-5937.3-12015-11953"/></clipPath><clipPath id="clipPath78"><path d="M893.81 7139.4c677.4-5392.7 5379.4-6852.2 12015-6852.2 6635.9 0 11151 1331.8 12015 6852.2 889.9 5682.7-2677.1 12023-12015 11953-9735-73.5-12771-5937.3-12015-11953"/></clipPath><clipPath id="clipPath80"><path d="M893.81 7139.4c677.4-5392.7 5379.4-6852.2 12015-6852.2 6635.9 0 11151 1331.8 12015 6852.2 889.9 5682.7-2677.1 12023-12015 11953-9735-73.5-12771-5937.3-12015-11953"/></clipPath><clipPath id="clipPath82"><path d="M893.81 7139.4c677.4-5392.7 5379.4-6852.2 12015-6852.2 6635.9 0 11151 1331.8 12015 6852.2 889.9 5682.7-2677.1 12023-12015 11953-9735-73.5-12771-5937.3-12015-11953"/></clipPath><clipPath id="clipPath84"><path d="M893.81 7139.4c677.4-5392.7 5379.4-6852.2 12015-6852.2 6635.9 0 11151 1331.8 12015 6852.2 889.9 5682.7-2677.1 12023-12015 11953-9735-73.5-12771-5937.3-12015-11953"/></clipPath><clipPath id="clipPath86"><path d="M893.81 7139.4c677.4-5392.7 5379.4-6852.2 12015-6852.2 6635.9 0 11151 1331.8 12015 6852.2 889.9 5682.7-2677.1 12023-12015 11953-9735-73.5-12771-5937.3-12015-11953"/></clipPath><clipPath id="clipPath88"><path d="M893.81 7139.4c677.4-5392.7 5379.4-6852.2 12015-6852.2 6635.9 0 11151 1331.8 12015 6852.2 889.9 5682.7-2677.1 12023-12015 11953-9735-73.5-12771-5937.3-12015-11953"/></clipPath><clipPath id="clipPath90"><path d="M893.81 7139.4c677.4-5392.7 5379.4-6852.2 12015-6852.2 6635.9 0 11151 1331.8 12015 6852.2 889.9 5682.7-2677.1 12023-12015 11953-9735-73.5-12771-5937.3-12015-11953"/></clipPath><clipPath id="clipPath92"><path d="M893.81 7139.4c677.4-5392.7 5379.4-6852.2 12015-6852.2 6635.9 0 11151 1331.8 12015 6852.2 889.9 5682.7-2677.1 12023-12015 11953-9735-73.5-12771-5937.3-12015-11953"/></clipPath><clipPath id="clipPath94"><path d="M893.81 7139.4c677.4-5392.7 5379.4-6852.2 12015-6852.2 6635.9 0 11151 1331.8 12015 6852.2 889.9 5682.7-2677.1 12023-12015 11953-9735-73.5-12771-5937.3-12015-11953"/></clipPath><clipPath id="clipPath96"><path d="M893.81 7139.4c677.4-5392.7 5379.4-6852.2 12015-6852.2 6635.9 0 11151 1331.8 12015 6852.2 889.9 5682.7-2677.1 12023-12015 11953-9735-73.5-12771-5937.3-12015-11953"/></clipPath><clipPath id="clipPath98"><path d="M893.81 7139.4c677.4-5392.7 5379.4-6852.2 12015-6852.2 6635.9 0 11151 1331.8 12015 6852.2 889.9 5682.7-2677.1 12023-12015 11953-9735-73.5-12771-5937.3-12015-11953"/></clipPath><clipPath id="clipPath100"><path d="M893.81 7139.4c677.4-5392.7 5379.4-6852.2 12015-6852.2 6635.9 0 11151 1331.8 12015 6852.2 889.9 5682.7-2677.1 12023-12015 11953-9735-73.5-12771-5937.3-12015-11953"/></clipPath><clipPath id="clipPath102"><path d="M893.81 7139.4c677.4-5392.7 5379.4-6852.2 12015-6852.2 6635.9 0 11151 1331.8 12015 6852.2 889.9 5682.7-2677.1 12023-12015 11953-9735-73.5-12771-5937.3-12015-11953"/></clipPath><clipPath id="clipPath104"><path d="M893.81 7139.4c677.4-5392.7 5379.4-6852.2 12015-6852.2 6635.9 0 11151 1331.8 12015 6852.2 889.9 5682.7-2677.1 12023-12015 11953-9735-73.5-12771-5937.3-12015-11953"/></clipPath><clipPath id="clipPath106"><path d="M893.81 7139.4c677.4-5392.7 5379.4-6852.2 12015-6852.2 6635.9 0 11151 1331.8 12015 6852.2 889.9 5682.7-2677.1 12023-12015 11953-9735-73.5-12771-5937.3-12015-11953"/></clipPath><clipPath id="clipPath108"><path d="M893.81 7139.4c677.4-5392.7 5379.4-6852.2 12015-6852.2 6635.9 0 11151 1331.8 12015 6852.2 889.9 5682.7-2677.1 12023-12015 11953-9735-73.5-12771-5937.3-12015-11953"/></clipPath><clipPath id="clipPath110"><path d="M893.81 7139.4c677.4-5392.7 5379.4-6852.2 12015-6852.2 6635.9 0 11151 1331.8 12015 6852.2 889.9 5682.7-2677.1 12023-12015 11953-9735-73.5-12771-5937.3-12015-11953"/></clipPath><clipPath id="clipPath112"><path d="M893.81 7139.4c677.4-5392.7 5379.4-6852.2 12015-6852.2 6635.9 0 11151 1331.8 12015 6852.2 889.9 5682.7-2677.1 12023-12015 11953-9735-73.5-12771-5937.3-12015-11953"/></clipPath><clipPath id="clipPath114"><path d="M893.81 7139.4c677.4-5392.7 5379.4-6852.2 12015-6852.2 6635.9 0 11151 1331.8 12015 6852.2 889.9 5682.7-2677.1 12023-12015 11953-9735-73.5-12771-5937.3-12015-11953"/></clipPath><clipPath id="clipPath116"><path d="M893.81 7139.4c677.4-5392.7 5379.4-6852.2 12015-6852.2 6635.9 0 11151 1331.8 12015 6852.2 889.9 5682.7-2677.1 12023-12015 11953-9735-73.5-12771-5937.3-12015-11953"/></clipPath><clipPath id="clipPath118"><path d="M893.81 7139.4c677.4-5392.7 5379.4-6852.2 12015-6852.2 6635.9 0 11151 1331.8 12015 6852.2 889.9 5682.7-2677.1 12023-12015 11953-9735-73.5-12771-5937.3-12015-11953"/></clipPath><clipPath id="clipPath120"><path d="M893.81 7139.4c677.4-5392.7 5379.4-6852.2 12015-6852.2 6635.9 0 11151 1331.8 12015 6852.2 889.9 5682.7-2677.1 12023-12015 11953-9735-73.5-12771-5937.3-12015-11953"/></clipPath><clipPath id="clipPath122"><path d="M893.81 7139.4c677.4-5392.7 5379.4-6852.2 12015-6852.2 6635.9 0 11151 1331.8 12015 6852.2 889.9 5682.7-2677.1 12023-12015 11953-9735-73.5-12771-5937.3-12015-11953"/></clipPath><clipPath id="clipPath124"><path d="M893.81 7139.4c677.4-5392.7 5379.4-6852.2 12015-6852.2 6635.9 0 11151 1331.8 12015 6852.2 889.9 5682.7-2677.1 12023-12015 11953-9735-73.5-12771-5937.3-12015-11953"/></clipPath><clipPath id="clipPath126"><path d="M893.81 7139.4c677.4-5392.7 5379.4-6852.2 12015-6852.2 6635.9 0 11151 1331.8 12015 6852.2 889.9 5682.7-2677.1 12023-12015 11953-9735-73.5-12771-5937.3-12015-11953"/></clipPath><clipPath id="clipPath128"><path d="M893.81 7139.4c677.4-5392.7 5379.4-6852.2 12015-6852.2 6635.9 0 11151 1331.8 12015 6852.2 889.9 5682.7-2677.1 12023-12015 11953-9735-73.5-12771-5937.3-12015-11953"/></clipPath><clipPath id="clipPath130"><path d="M893.81 7139.4c677.4-5392.7 5379.4-6852.2 12015-6852.2 6635.9 0 11151 1331.8 12015 6852.2 889.9 5682.7-2677.1 12023-12015 11953-9735-73.5-12771-5937.3-12015-11953"/></clipPath><clipPath id="clipPath132"><path d="M893.81 7139.4c677.4-5392.7 5379.4-6852.2 12015-6852.2 6635.9 0 11151 1331.8 12015 6852.2 889.9 5682.7-2677.1 12023-12015 11953-9735-73.5-12771-5937.3-12015-11953"/></clipPath><clipPath id="clipPath134"><path d="M893.81 7139.4c677.4-5392.7 5379.4-6852.2 12015-6852.2 6635.9 0 11151 1331.8 12015 6852.2 889.9 5682.7-2677.1 12023-12015 11953-9735-73.5-12771-5937.3-12015-11953"/></clipPath><clipPath id="clipPath136"><path d="M893.81 7139.4c677.4-5392.7 5379.4-6852.2 12015-6852.2 6635.9 0 11151 1331.8 12015 6852.2 889.9 5682.7-2677.1 12023-12015 11953-9735-73.5-12771-5937.3-12015-11953"/></clipPath><clipPath id="clipPath138"><path d="M893.81 7139.4c677.4-5392.7 5379.4-6852.2 12015-6852.2 6635.9 0 11151 1331.8 12015 6852.2 889.9 5682.7-2677.1 12023-12015 11953-9735-73.5-12771-5937.3-12015-11953"/></clipPath><clipPath id="clipPath140"><path d="M893.81 7139.4c677.4-5392.7 5379.4-6852.2 12015-6852.2 6635.9 0 11151 1331.8 12015 6852.2 889.9 5682.7-2677.1 12023-12015 11953-9735-73.5-12771-5937.3-12015-11953"/></clipPath><clipPath id="clipPath142"><path d="M893.81 7139.4c677.4-5392.7 5379.4-6852.2 12015-6852.2 6635.9 0 11151 1331.8 12015 6852.2 889.9 5682.7-2677.1 12023-12015 11953-9735-73.5-12771-5937.3-12015-11953"/></clipPath><clipPath id="clipPath144"><path d="M893.81 7139.4c677.4-5392.7 5379.4-6852.2 12015-6852.2 6635.9 0 11151 1331.8 12015 6852.2 889.9 5682.7-2677.1 12023-12015 11953-9735-73.5-12771-5937.3-12015-11953"/></clipPath><clipPath id="clipPath146"><path d="M893.81 7139.4c677.4-5392.7 5379.4-6852.2 12015-6852.2 6635.9 0 11151 1331.8 12015 6852.2 889.9 5682.7-2677.1 12023-12015 11953-9735-73.5-12771-5937.3-12015-11953"/></clipPath><clipPath id="clipPath148"><path d="M893.81 7139.4c677.4-5392.7 5379.4-6852.2 12015-6852.2 6635.9 0 11151 1331.8 12015 6852.2 889.9 5682.7-2677.1 12023-12015 11953-9735-73.5-12771-5937.3-12015-11953"/></clipPath><clipPath id="clipPath150"><path d="M893.81 7139.4c677.4-5392.7 5379.4-6852.2 12015-6852.2 6635.9 0 11151 1331.8 12015 6852.2 889.9 5682.7-2677.1 12023-12015 11953-9735-73.5-12771-5937.3-12015-11953"/></clipPath><clipPath id="clipPath152"><path d="M893.81 7139.4c677.4-5392.7 5379.4-6852.2 12015-6852.2 6635.9 0 11151 1331.8 12015 6852.2 889.9 5682.7-2677.1 12023-12015 11953-9735-73.5-12771-5937.3-12015-11953"/></clipPath><clipPath id="clipPath154"><path d="M893.81 7139.4c677.4-5392.7 5379.4-6852.2 12015-6852.2 6635.9 0 11151 1331.8 12015 6852.2 889.9 5682.7-2677.1 12023-12015 11953-9735-73.5-12771-5937.3-12015-11953"/></clipPath><clipPath id="clipPath156"><path d="M893.81 7139.4c677.4-5392.7 5379.4-6852.2 12015-6852.2 6635.9 0 11151 1331.8 12015 6852.2 889.9 5682.7-2677.1 12023-12015 11953-9735-73.5-12771-5937.3-12015-11953"/></clipPath><clipPath id="clipPath158"><path d="M893.81 7139.4c677.4-5392.7 5379.4-6852.2 12015-6852.2 6635.9 0 11151 1331.8 12015 6852.2 889.9 5682.7-2677.1 12023-12015 11953-9735-73.5-12771-5937.3-12015-11953"/></clipPath><clipPath id="clipPath160"><path d="M893.81 7139.4c677.4-5392.7 5379.4-6852.2 12015-6852.2 6635.9 0 11151 1331.8 12015 6852.2 889.9 5682.7-2677.1 12023-12015 11953-9735-73.5-12771-5937.3-12015-11953"/></clipPath><clipPath id="clipPath162"><path d="M893.81 7139.4c677.4-5392.7 5379.4-6852.2 12015-6852.2 6635.9 0 11151 1331.8 12015 6852.2 889.9 5682.7-2677.1 12023-12015 11953-9735-73.5-12771-5937.3-12015-11953"/></clipPath><clipPath id="clipPath164"><path d="M893.81 7139.4c677.4-5392.7 5379.4-6852.2 12015-6852.2 6635.9 0 11151 1331.8 12015 6852.2 889.9 5682.7-2677.1 12023-12015 11953-9735-73.5-12771-5937.3-12015-11953"/></clipPath></defs><g fill-rule="evenodd"><path fill="var(--color-character-man-hair, #393127)" d="M18323 15969c-225.1 141.2-526 100.5-860.7 164.5-174.5 33.3-421 171.5-606.1 194.6-548.5 68.6-1201.4-52.1-1592-332.4-347.4-249.3-464.7-658.6-464.7-658.6s-173.1-438.1-168-921.8c5-483.7 188.4-1012.9 188.4-1012.9l3871.8-3.6s140.6 39.8 294.9 184.4c159.4 149.2 332.9 406.3 347.7 607.5 35.5 483.1-462.2 1433.7-1011.3 1778.3" clip-path="url(#clipPath6)" transform="matrix(.13333 0 0 -.13333 -697.226 2184.932)"/><path fill="var(--color-character-woman-hair, #130d0c)" d="M11075 14409c-446.3 630.1-1284.7 905.4-1941.1 827.4-568.71-67.6-1115.1-373.5-1115.1-373.5s-237.39-190.2-502.23-374.8c-203.9-142.1-422.19-233.8-572.62-523.1-129.82-249.6-141.99-683.6-133.72-1010 5.68-224.7-42.5-660.9-87.75-1202.9-34.92-418.1-39.15-906.8-195.28-1363.1-344.95-1008.2-1111.5-1936.9-1246.5-2717.8-194.08-1122.3 661.09-1149.8 661.09-1149.8s124.16-138 289.95-212.7c165.76-74.8 370.25-41.2 370.25-41.2l4449.8 3501.6s428.5 167.04 702.1 554.88c172.3 244.3 260.7 640.4 272.4 905.6 44.8 1020.4-453.4 2476.5-951.3 3179.4" clip-path="url(#clipPath8)" transform="matrix(.13333 0 0 -.13333 -697.226 2184.932)"/><path fill="var(--color-character-clothing-1, #8275bd)" d="m11161 9707.9-2639-441s-272.18-174.2-568.1-381.9c-334.95-235.3-705.84-520.2-850.34-768.8-189.2-325.6-238.4-576.7-256.17-835-17.88-259.5-71.9-645.5-71.9-645.5S6421.97 5872 6355.4 5522.5c-95.94-504.2 70.65-1281 106.15-2072.7 42.38-946.2-.49-1819-19.94-2426.7-20.55-641.4-19-991.8-19-991.8l5430.3-3.3-80.7 756.8 1391 4935.2s235 2054 19.3 2518.4c-89.8 193.3-153.3 315.4-298.3 458.7-377.2 372.7-948.2 635.9-1302 782.48-222.4 92.23-421.2 228.32-421.2 228.32" clip-path="url(#clipPath10)" transform="matrix(.13333 0 0 -.13333 -697.226 2184.932)"/><path fill="var(--color-character-clothing-2, #76bdb1)" d="M19776 8351c-50.7 574.1-619.5 954.4-1099.9 1268.2-469.2 306.65-872.2 548.18-872.2 548.18l-2813.2 445s-222.5-140.3-482.1-256c-326.8-145.7-730.7-294.9-1028.8-552.92-534.7-462.88-628-1042.9-628-1042.9s303.9-249.2 388.8-931.8c84.8-682.5-49.3-1798.4-49.3-1798.4l491.8-3189.9s62.6-429 34.3-1130.7c-28.2-701.7-157.7-1704.7-157.7-1704.7l6243.9 46.1s59.9 1919.5 57.1 3236.3-68.4 2031-68.4 2031l-27.8 1311.1s85.7 460.7 92.8 868.6c6.4 361.2-64.5 661.3-81.3 852.8" clip-path="url(#clipPath12)" transform="matrix(.13333 0 0 -.13333 -697.226 2184.932)"/></g><g fill="var(--color-character-man-skin, #ffddc0)" fill-rule="evenodd"><path d="M18214 14691c-113 223.1-503.3 295.1-795.5 189.5-139.3-50.3-238.2-339.7-503.6-745.9-260.2-398.3-704.9-250.4-704.9-250.4s-173.9-311.5-422.7-343.5c-206.6-26.5-403.9 98.9-591.5 107.9-91.3 4.3-234.4-44.7-271.1-102.8-75.5-119.1-133-389.2-49.7-573.5 96.6-213.4 343-334.4 343-334.4s93.4-1000.2 34.2-1507.3c-59.2-507.2-270.9-521.3-270.9-521.3s231.5-275.1 587.6-491.4c317.4-192.68 741.1-325.51 1074.8-379.15 369.8-59.4 801.9-9.65 1006.7 114.7 187.3 113.75 163.4 300.75 163.4 300.75l-331.7 310.8 4.9 439.1s547.1 274.7 824.1 817.3 283.9 1353 283.9 1353l151.3 668.6s-219.9-17-293.5 113.5c-150.7 267.2-217.9 793.4-238.8 834.5" clip-path="url(#clipPath14)" transform="matrix(.13333 0 0 -.13333 -697.226 2184.932)"/><path d="M20160 5893c-75.6 98-338.4 165.5-472 243.7-120.6 70.6-488.7 466.4-642.5 522.9-56.9 20.9-323.6 26.9-383.4 45-220 66.5-446.1 437.1-682.2 470.9-196.3 28.1-297.3-201.6-370.1-436.7-53-171-103.8-365.5-103.8-365.5s-138-16.4-191.5-100.7c-53.4-84.3-22.3-236.3-22.3-236.3s-239.2-393.5-647.2-808c-407.9-414.4-984.7-849.9-984.7-849.9s-140.9 335.2-262.6 832.7c-121.6 497.4-245.3 1178.1-245.3 1178.1s-444 125.3-932.8 27.7c-488.9-97.6-1022.7-418.1-1022.7-418.1l-89-934.9s177.1-1158.1 471.8-1964.2c331.3-906.2 635.4-1372.4 952.2-1640.7 269.3-228 728.2-278.9 1183.7 111.9 567.5 486.9 1146.4 1415.8 1558.2 2048.6 299.3 459.8 524.5 728.1 524.5 728.1s703.8-127.4 913.8-70.6c264.4 71.6 117.6 440.1 117.6 440.1s258.6-80.6 416.5 225.1c72.8 140.9-147.8 349.4-147.8 349.4s164.7-24.3 248.6 60.5c84 84.8 87.4 278.8 87.4 278.8s386.5-72.7 598.2-20.9c175 42.8 190.1 201.6 127.4 283" clip-path="url(#clipPath16)" transform="matrix(.13333 0 0 -.13333 -697.226 2184.932)"/></g><g fill="var(--color-character-woman-skin, #ecded3)" fill-rule="evenodd"><path d="M9616.7 12611c-254.39 102.5-611.23 307.5-892.09 549.7-274.67 236.8-474.11 510.7-656.92 642-253.85 182.5-354.6 3.8-354.6 3.8s-82.01-188.8-147.12-548.7c-62.55-345.4-185.66-815.5-185.66-815.5s149.55-506 218.06-707.6c28.76-84.6 118.18-678.1 362-1029.8 336.95-485.9 851.28-751.81 851.28-751.81l24.72-406.22L8547.76 9297s-85.58-190.3-147.23-609.6c-40.32-274.1-60.98-869.9-32.26-1076.2 44.02-316.4 82.7-618.2 201.54-604.7 302.45 34.5 1181.3 877 1712.4 1482.3 620.8 707.5 876.8 1200.1 876.8 1200.1s-288.6 190.85-303.9 356.39c-49.8 537.9-33.7 1777.9-33.7 1777.9s328.5 182.4 340.2 573.3c10.7 356.4-273.8 454.5-485 389.8-273.8-83.8-580.9-368.2-1059.9-175.3" clip-path="url(#clipPath18)" transform="matrix(.13333 0 0 -.13333 -697.226 2184.932)"/><path d="M13163 5707s-556 276-1128.8 327.6c-572.8 51.5-1162.2-121.3-1162.2-121.3s-35.8-509.1-88.5-1007.3c-52.6-498.1-122.1-985.4-122.1-985.4s-427.2 442.3-698.99 846.5-388.21 770.5-388.21 770.5 55.05 122.5 18.65 207.9c-36.38 85.3-164.13 133.5-164.13 133.5s-44.55 614.3-181.87 744.2c-183.49 173.6-728.53-263.7-728.53-263.7s-404.79 55.6-518.49-21.2c-175.58-118.6-397.72-278-605.13-362.2-213.49-86.6-410.83-97.2-484.7-164.9-103.4-94.7-44.33-259.5 96.04-315.5 196.9-78.6 523.71-29.4 523.71-29.4s-18.52-188.5 47.96-278.3 218-81.1 218-81.1-313.5-128.6-143.04-446.6c73.09-136.2 310.32-148.9 310.32-148.9s-212.66-212.2 28.89-421.7c113.57-98.5 850.45-91.5 850.45-91.5s89.94-104.4 229.52-399.9c226.16-478.9 598.07-1304.3 1043.6-1842.3 352.5-425.8 691.6-812 1047.7-952.6 371.1-146.5 756.1-33.3 961.1 227.8 469.3 598.2 705.7 2005.2 853.7 3145 105.4 811.6 185.1 1530.8 185.1 1530.8" clip-path="url(#clipPath20)" transform="matrix(.13333 0 0 -.13333 -697.226 2184.932)"/></g><path d="M14845 13334c6.9 0 13.9 1.4 20.5 4.5 24.4 11.4 35.1 40.4 23.8 64.8-3 6.3-292 639.3-179.2 1225.2 5 26.5-12.3 52.1-38.8 57.2-26.4 5-52-12.3-57.1-38.8-118.8-617.3 174-1257.7 186.5-1284.7a48.8 48.8 0 0 1 44.3-28.2" clip-path="url(#clipPath22)" transform="matrix(.13333 0 0 -.13333 -697.226 2184.932)"/><path d="M14367 14767c2.6 0 5.3.2 7.9.6 267.4 43.6 346.6 246.8 438.3 482.1 81.7 209.7 174.3 447.5 421 649.4 479.5 392.6 1550.2 555.1 2116 185.2 22.5-14.8 52.8-8.4 67.6 14.1a48.9 48.9 0 0 1-14.2 67.6c-598.1 391-1726.8 221.6-2231.3-191.4-266.4-218.1-368.3-479.5-450.1-689.5-87.4-224.4-150.6-386.5-363-421.1-26.6-4.4-44.7-29.4-40.3-56 3.9-24 24.6-41 48.1-41" clip-path="url(#clipPath24)" transform="matrix(.13333 0 0 -.13333 -697.226 2184.932)"/><path d="M19206 15249c25.6 0 47 19.9 48.6 45.8a48.64 48.64 0 0 1-45.6 51.7c-281.2 17.5-336.9 85.8-544.1 339.8l-29.2 35.9c-221.7 271.1-454.5 440.1-929.2 445h-.5c-26.8 0-48.6-21.6-48.8-48.4a48.8 48.8 0 0 1 48.3-49.3c438.6-4.4 645.5-153.4 854.6-409.2l29.2-35.7c210.9-258.6 289.8-355.4 613.6-375.5 1 0 2.1-.1 3.1-.1" clip-path="url(#clipPath26)" transform="matrix(.13333 0 0 -.13333 -697.226 2184.932)"/><path d="M18893 13466c10 0 20.1 3.1 28.8 9.5 272.2 199.7 431.3 448.1 460.2 718.3 33.3 311.3-100.2 639-396.8 973.9-17.9 20.2-48.7 22.1-68.9 4.2s-22.1-48.8-4.2-69c277.6-313.4 403.1-615.8 372.8-898.8-25.8-242.1-171.4-466.8-420.8-649.9a48.67 48.67 0 0 1-10.5-68.2c9.5-13.1 24.3-20 39.4-20" clip-path="url(#clipPath28)" transform="matrix(.13333 0 0 -.13333 -697.226 2184.932)"/><path d="M16347 13806c52.6-.1 105.7 4.7 158.1 15.1 194.2 38.8 348.7 147.7 459.1 323.9 43.1 68.8 84.9 139.5 125.2 207.8 157.7 267.2 306.7 519.6 470.2 540.8 72.2 9.4 148.2-26.8 232.8-110.4 19.2-18.9 50.1-18.8 69 .4a48.7 48.7 0 0 1-.4 69c-107.3 106.2-210 151.4-313.9 137.8-210.8-27.3-364.2-287.1-541.8-588-40-67.7-81.4-137.9-123.8-205.5-95.6-152.6-228.7-246.8-395.5-280-246.7-49.3-498.7 48.2-607.9 125.7-22 15.6-52.5 10.4-68.1-11.6s-10.4-52.4 11.6-68c117.6-83.5 317.6-157 525.4-157" clip-path="url(#clipPath30)" transform="matrix(.13333 0 0 -.13333 -697.226 2184.932)"/><path d="M18722 13705c58 0 121.5 8.8 191.1 26.3 26.2 6.5 42 33.1 35.5 59.2a48.76 48.76 0 0 1-59.2 35.5c-149.5-37.6-262.4-29.8-345.3 23.9-145.7 94.3-187.1 326.1-227 550.3-43.1 241.7-83.8 470-251.1 559.8a48.9 48.9 0 0 1-66.1-20 48.9 48.9 0 0 1 20-66.1c125.6-67.3 162.3-273.1 201.1-490.8 43.6-244.8 88.7-497.8 270.1-615.2 64.9-42 141.2-62.9 230.9-62.9" clip-path="url(#clipPath32)" transform="matrix(.13333 0 0 -.13333 -697.226 2184.932)"/><path d="M15763 13503c181.4 0 319.5 118.2 375 195.1a48.8 48.8 0 0 1-11 68.2 48.7 48.7 0 0 1-68.1-11c-6.4-8.7-161.6-216.2-402.2-137.2-25.5 8.4-53.1-5.5-61.6-31.1a48.96 48.96 0 0 1 31.2-61.7c47.7-15.6 93.4-22.3 136.7-22.3" clip-path="url(#clipPath34)" transform="matrix(.13333 0 0 -.13333 -697.226 2184.932)"/><path d="M17949 15196c5 0 10.2.8 15.3 2.5a48.77 48.77 0 0 1 31 61.7c-5.5 16.7-138.4 412.5-378.1 527-24.2 11.7-53.4 1.4-65.1-23a48.75 48.75 0 0 1 23-65c202.6-96.8 326.3-465.9 327.5-469.6a49 49 0 0 1 46.4-33.6" clip-path="url(#clipPath36)" transform="matrix(.13333 0 0 -.13333 -697.226 2184.932)"/><path d="M9099.5 9863.4c310.23 0 1067.5 459.1 1302.7 934.3 11.9 24.2 2 53.5-22.2 65.4-24.1 12-53.4 2.1-65.4-22.1-217.1-438.9-933.87-879.96-1214.6-879.96l-2.61.01c-221.31 2.15-466.19 122.95-770.63 380.15-352.55 297.9-482.66 650.3-522.22 788.1-51.96 180.6-65.34 241.8-92.03 363.6-8.32 38-17.95 82-30.44 137.3-27.9 123.6-65.37 227.4-105.07 337.2-21 58.2-42.73 118.3-64.75 185.8-60.33 184.9-48.25 338.3-48.12 339.8a48.85 48.85 0 0 1-44.42 52.8c-27.08 2.2-50.47-17.5-52.82-44.3-.61-7-14.27-173.7 52.56-378.6 22.47-68.9 44.49-129.8 65.75-188.7 40.29-111.5 75.09-207.8 101.66-325.5 12.39-55 21.99-98.8 30.28-136.7 27.14-123.9 40.78-186 93.59-369.7 42.01-146.3 180.03-520.6 553.05-835.7 327.19-276.41 584-400.76 832.66-403.18l3.05-.02" clip-path="url(#clipPath38)" transform="matrix(.13333 0 0 -.13333 -697.226 2184.932)"/><path d="M10724 11739c6.1 0 12.4 1.2 18.5 3.7 291.1 119.4 445 308.9 470.4 579.4 18.1 192.3-56.2 368.7-193.9 460.2-121.3 80.8-270 81.4-418.5 2.1a48.9 48.9 0 0 1-20-66.1 48.94 48.94 0 0 1 66.1-20c115.4 61.7 228.4 62.6 318.4 2.7 106-70.5 165.2-215.6 150.7-369.8-22-234.1-152.4-392.4-410.3-498.2a48.76 48.76 0 0 1-26.6-63.6c7.7-18.9 26-30.4 45.2-30.4" clip-path="url(#clipPath40)" transform="matrix(.13333 0 0 -.13333 -697.226 2184.932)"/><path d="M10740 12197c20 0 38.8 12.4 46 32.4.2.6 28 76 83.3 133 18.7 19.4 18.3 50.3-1.1 69-19.3 18.8-50.2 18.3-69-1-70.4-72.5-103.8-164.3-105.1-168.1-9.1-25.4 4.1-53.4 29.5-62.4 5.4-2 10.9-2.9 16.4-2.9" clip-path="url(#clipPath42)" transform="matrix(.13333 0 0 -.13333 -697.226 2184.932)"/><path fill-rule="evenodd" d="M8820.4 9959.8s265.6-139.32 589.58 18c300.35 145.82 732.9 530.82 732.9 530.82s-331.88-572.84-659.52-797.48c-308.85-211.8-631.95-107.86-631.95-107.86z" clip-path="url(#clipPath44)" transform="matrix(.13333 0 0 -.13333 -697.226 2184.932)"/><path d="M8689.8 11283a48.8 48.8 0 0 1 39.09 19.6c16.17 21.5 11.78 52.1-9.79 68.3-92.7 69.5-115.93 111.3-119.08 134.1-3.46 25.1 15.12 51 45.79 91 39.53 51.6 88.79 115.9 91.14 213.2 4.87 203.3-167.78 488.9-175.13 501a48.97 48.97 0 0 1-67.08 16.3 48.84 48.84 0 0 1-16.3-67.1c1.65-2.7 165.09-273.3 160.89-447.8-1.56-65.6-35.3-109.6-71.03-156.3-36.48-47.6-74.2-96.9-64.98-163.6 8.61-62.6 57.1-123.9 157.24-198.9a48.5 48.5 0 0 1 29.24-9.8" clip-path="url(#clipPath46)" transform="matrix(.13333 0 0 -.13333 -697.226 2184.932)"/><path d="M8937.3 12893c8.55 0 17.19 2.3 25.07 7 255.62 153.2 470.19 56.3 479.19 52.1 24.27-11.4 53.42-.9 64.89 23.4 11.45 24.3 1.17 53.3-23.07 64.8-10.9 5.2-269.17 124.4-571.22-56.6a48.73 48.73 0 0 1-16.75-66.9 48.7 48.7 0 0 1 41.89-23.8" clip-path="url(#clipPath48)" transform="matrix(.13333 0 0 -.13333 -697.226 2184.932)"/><path d="M7612.4 12621c12.62 0 25.24 4.9 34.77 14.6 6.19 6.1 140.17 136.3 366.78 78.3a48.83 48.83 0 0 1 59.43 35.2 48.8 48.8 0 0 1-35.14 59.4c-283.15 72.7-453.61-97.3-460.74-104.6-18.83-19.2-18.48-50.1.77-69a48.7 48.7 0 0 1 34.13-13.9" clip-path="url(#clipPath50)" transform="matrix(.13333 0 0 -.13333 -697.226 2184.932)"/><path d="M9959.9 12505c126.97 0 250.77 26.7 367.87 88.6a48.76 48.76 0 0 1 20.3 65.9 48.8 48.8 0 0 1-66 20.4c-785.28-415-1996.2 989.3-2008.3 1003.6a48.87 48.87 0 0 1-68.79 5.4c-20.53-17.4-22.98-48.3-5.5-68.8 44.55-52.2 961.09-1115.1 1760.4-1115.1" clip-path="url(#clipPath52)" transform="matrix(.13333 0 0 -.13333 -697.226 2184.932)"/><path d="M11258 9832.1c7.3 0 14.7 1.63 21.6 5.09 867.1 429.37 923.2 1600.7 686.6 2553.7-177.2 713.8-416.9 1333.2-693.2 1791.3-268.7 445.4-588.8 768.2-856.5 863.7-25.4 9-53.3-4.2-62.3-29.6a48.8 48.8 0 0 1 29.6-62.4c247-88.1 548.2-395.4 805.6-822.1 271.3-449.9 507.2-1060 682-1764.4 227.5-916.2 180.1-2039-635.1-2442.7a48.75 48.75 0 0 1-22.1-65.4 48.8 48.8 0 0 1 43.8-27.17" clip-path="url(#clipPath54)" transform="matrix(.13333 0 0 -.13333 -697.226 2184.932)"/><path d="M7760.5 14623c13.09 0 26.13 5.2 35.75 15.6 349.5 375.9 1779.6 812.3 2282 390.2a48.84 48.84 0 0 1 68.8 6 48.8 48.8 0 0 1-6 68.7c-547.79 460.3-2038.4 7.9-2416.2-398.5a48.7 48.7 0 0 1 2.51-68.9 48.4 48.4 0 0 1 33.24-13.1" clip-path="url(#clipPath56)" transform="matrix(.13333 0 0 -.13333 -697.226 2184.932)"/><path d="M5755.1 6517.4a48.8 48.8 0 0 1 47.39 37.2c6.42 26.1-9.59 52.5-35.79 59-143.19 35.2-255.05 130-332.46 281.8-160.16 314.1-141.09 817.9 48.58 1283.5 96.33 236.5 250.14 508.4 412.97 796.3 332.4 587.71 709.14 1253.8 798.66 1942.4 81.93 630.1 120.15 1291.2 150.89 1822.4 28.24 488.7 50.59 874.7 94.15 1021.7 150.7 508.4 721.92 651.6 727.67 653 26.19 6.3 42.33 32.7 36.04 58.9s-32.47 42.3-58.79 36c-25.71-6.1-631.57-156.9-798.53-720.2-46.78-157.8-69.37-548.8-98.01-1043.8-30.63-529.6-68.73-1188.7-150.22-1815.4-87.07-669.7-458.85-1327-786.84-1906.9-164.42-290.7-319.69-565.3-418.37-807.5C5192.5 7725 5174.77 7189.3 5347.3 6851c89.55-175.7 226.54-290.6 396.15-332.2 3.9-1 7.81-1.4 11.65-1.4" clip-path="url(#clipPath58)" transform="matrix(.13333 0 0 -.13333 -697.226 2184.932)"/><path d="M7035.5 10394c6.41 0 12.93 1.3 19.18 3.9 24.8 10.7 36.27 39.4 25.65 64.1-253.5 591.6 66.23 1305.4 257.28 1731.8 56.63 126.5 101.35 226.3 121.49 299 81.64 294.6 126.17 569.6 173.3 860.9 9.87 61 19.85 122.6 30.31 185.3 18.34 109.9 72.8 252.6 165.92 293.3 54.3 23.7 119.96 10.5 195.34-39a48.84 48.84 0 0 1 53.64 81.6c-104.77 68.8-201.67 84.6-288.07 46.9-162.08-70.9-211.74-298.6-223.12-366.7-10.49-62.8-20.5-124.7-30.39-185.8-46.71-288.5-90.82-561-170.99-850.4-18.18-65.6-63.75-167.3-116.54-285.1-197.56-441.1-528.25-1179.4-257.91-1810.2a48.9 48.9 0 0 1 44.91-29.6" clip-path="url(#clipPath60)" transform="matrix(.13333 0 0 -.13333 -697.226 2184.932)"/><g fill-rule="evenodd"><path d="M7961.4 11932c-25.49 97 10.96 190.6 81.38 209 70.42 18.5 148.15-45.1 173.61-142.1 25.48-97-10.97-190.6-81.39-209.1-70.43-18.5-148.12 45.1-173.6 142.2" clip-path="url(#clipPath62)" transform="matrix(.13333 0 0 -.13333 -697.226 2184.932)"/><path d="M9198.1 12237c-21.8 97.9 23.01 191.2 100.11 208.4 77.09 17.1 157.27-48.3 179.07-146.2 21.83-97.8-22.98-191.1-100.08-208.3s-157.27 48.2-179.1 146.1" clip-path="url(#clipPath64)" transform="matrix(.13333 0 0 -.13333 -697.226 2184.932)"/><path fill="#fff" d="M8908.1 11073c249.65 56.2 526.48 139.1 526.48 139.1s16.59-501.7-375.98-644.5c-409.98-149.1-649.68 436.5-649.68 436.5s249.49 12.6 499.18 68.9" clip-path="url(#clipPath66)" transform="matrix(.13333 0 0 -.13333 -697.226 2184.932)"/></g><path d="M8918.8 11026c-172.02-38.8-341.84-57.1-434.95-64.9 72.26-138.2 272.24-451 558.06-347 274 99.7 329.92 399.9 341.15 532.7-97.56-28.1-288.46-81.3-464.26-120.8m-555.08-39.8a49 49 0 0 0 3.97 44.7 49 49 0 0 0 38.74 22.5c2.45.2 248.48 13.2 490.95 67.8 245.04 55.2 520.43 137.4 523.17 138.2a49.2 49.2 0 0 0 42.52-7.1 49 49 0 0 0 20.28-38c.73-22 12.93-538.8-408.08-692-50.97-18.5-100.03-26.8-146.93-26.8-283.48 0-488.19 304-564.62 490.7" clip-path="url(#clipPath68)" transform="matrix(.13333 0 0 -.13333 -697.226 2184.932)"/><path d="M9432.1 5826.1c1.71 0 3.43.1 5.15.2a48.94 48.94 0 0 1 43.47 53.7c-1.46 13.9-36.51 344.4-97.68 591.4-29.25 117.9-104.91 198.2-213.12 226.1-120.43 30.9-261.28-12.8-350.42-109-119.32-128.9-153.52-289.2-87.07-408.4 61.14-109.6 192.97-156.4 352.61-125.1a48.8 48.8 0 0 1 38.52 57.3c-5.14 26.4-30.69 43.9-57.26 38.5-117.87-23-208.54 4.9-248.61 76.9-45.47 81.6-16.65 197.1 73.45 294.4 65.42 70.7 167.53 103.2 254.44 80.8 50.82-13.1 116.83-50.6 142.69-155 59.55-240.3 94.99-574.8 95.34-578.1a48.8 48.8 0 0 1 48.49-43.7" clip-path="url(#clipPath70)" transform="matrix(.13333 0 0 -.13333 -697.226 2184.932)"/><path d="M8421.2 6034.8a48.84 48.84 0 0 1 48.15 41.3c17.57 111.8 57.61 195.2 126.03 262.5 120.4 118.3 312.57 210.7 314.51 211.6a48.85 48.85 0 0 1 23.04 65.1 48.8 48.8 0 0 1-65.02 23c-8.49-4-208.72-100.1-340.99-230.1-82.94-81.6-133.3-185.2-153.99-317a48.83 48.83 0 0 1 48.27-56.4" clip-path="url(#clipPath72)" transform="matrix(.13333 0 0 -.13333 -697.226 2184.932)"/><path d="M8752.9 3970.6c326.1 0 663.12 32.8 739.8 160.3 78.15 129.9 52.08 261.5 33.04 357.6-7.72 38.9-14.99 75.7-12.89 101 2.25 27.5 26.56 58.6 54.69 94.6 49.7 63.7 111.54 142.9 116.94 271.7 2.51 60.7-31.84 130-68.19 203.5-29.3 59.2-59.59 120.4-64.42 166.9-2.8 26.9 16.52 65.3 36.99 106 44.74 89 105.98 211 22.12 366.9-145.42 270.2-1495.3 19.1-1969.2-173.9-83.96-34.2-148.41-126-164.2-233.9-16.58-113 23.65-217.9 110.37-287.7 110.08-88.4 388.11-35 442.74-23.3a48.75 48.75 0 0 1 37.57 57.8c-5.6 26.4-31.73 43.3-57.87 37.6-117.11-24.8-306.55-40-361.24 4-80.87 65.1-81.7 151.6-74.99 197.5 10.55 72 53.51 136.8 104.42 157.5 243.39 99.2 689.59 203.7 1085.1 254.4 547.89 70.1 736.31 10.2 761.29-36.2 59.84-111.3 19.45-191.7-23.36-276.8-27.04-53.9-52.6-104.7-46.88-160 6.68-64 40.91-133.2 74.04-200.1 27.94-56.4 59.63-120.4 58.13-156.1-4.06-97.5-50.97-157.6-96.32-215.7-36.19-46.3-70.35-90.1-75.06-146.6-3.21-38.9 5.37-82.3 14.43-128.1 17.74-89.4 37.78-190.7-20.91-288.3-75.7-125.8-745.15-141.4-1322.8-76.9-115.61 12.9-148.91 104.9-157.88 143.8-20.81 90.4 14.21 184.9 85.1 229.7a48.8 48.8 0 0 1 15.23 67.3 48.9 48.9 0 0 1-67.34 15.2c-107.06-67.6-158.55-201.8-128.13-334.1 27.96-121.5 120.76-205.4 242.22-218.9 6.41-.7 335.99-36.7 677.46-36.7" clip-path="url(#clipPath74)" transform="matrix(.13333 0 0 -.13333 -697.226 2184.932)"/><path d="M7921 4475.9c320.65 0 1106.8 39 1115.1 39.4a48.9 48.9 0 0 1 46.31 51.2c-1.34 26.9-23.68 47.5-51.2 46.3-8.46-.4-850.9-42.6-1143-39.1-134.75 1.4-221.28 113-237.07 222.5-5.97 41.4-13.54 180.2 140.55 227.4 295.8 90.8 1295.5 220.7 1305.6 222 26.71 3.5 45.6 28 42.12 54.7-3.46 26.7-27.96 45.7-54.65 42.1-41.44-5.3-1018-132.2-1321.7-225.4-149.46-45.8-231.34-177.2-208.6-334.8 21.78-150.6 143.05-304.2 332.7-306.2 10.58-.1 21.87-.1 33.81-.1" clip-path="url(#clipPath76)" transform="matrix(.13333 0 0 -.13333 -697.226 2184.932)"/><path d="M7363.2 5402.4c95.44 0 167.06 7.4 174.44 8.1a48.87 48.87 0 0 1 43.31 53.8c-2.89 26.8-26.41 46.4-53.74 43.3-119.23-12.7-454.97-22.8-575.25 82.7-27.05 23.7-40.61 51.6-41.44 85.3-2.64 103.5 71.31 130.9 267.71 177.7 101.97 24.3 217.55 51.8 325.31 109.3 91.62 48.9 194.39 119.6 285.08 181.9 96.93 66.6 197.13 135.4 238.8 145.1 91 21.1 183.38 18.6 272.75 16.3 127.74-3.4 248.44-6.5 334.5 66.1a48.7 48.7 0 0 1 5.85 68.7 48.9 48.9 0 0 1-68.78 5.9c-57.67-48.6-155.58-46.1-269.03-43.1-90.92 2.4-194.2 5.1-297.35-18.8-56.76-13.2-140.37-69.3-272.03-159.8-88.57-60.8-188.95-129.8-275.75-176.1-96.66-51.7-205.76-77.6-301.98-100.5-170.88-40.7-347.54-82.8-342.71-275.1 1.56-61.7 26.73-114.3 74.79-156.4 108.98-95.5 322.77-114.4 475.52-114.4" clip-path="url(#clipPath78)" transform="matrix(.13333 0 0 -.13333 -697.226 2184.932)"/><path d="M10858 9925.8a48.9 48.9 0 0 1 48.4 55.59c-.8 5.5-76.6 560.7-39.4 1578.5 1 27-20 49.6-47 50.6-26.7 1.3-49.6-20-50.6-47-37.5-1027.6 39.5-1590.1 40.3-1595.7a48.8 48.8 0 0 1 48.3-42.01" clip-path="url(#clipPath80)" transform="matrix(.13333 0 0 -.13333 -697.226 2184.932)"/><path d="M8838.5 9319.8a48.8 48.8 0 0 1 48.52 44.3c25.55 274.76-29.65 598.85-32 612.51a48.7 48.7 0 0 1-56.44 39.79 48.85 48.85 0 0 1-39.78-56.42c.56-3.22 55.36-325.19 31.05-586.78a48.67 48.67 0 0 1 44.08-53.1q2.28-.3 4.57-.3" clip-path="url(#clipPath82)" transform="matrix(.13333 0 0 -.13333 -697.226 2184.932)"/><path d="M6343.7 6221.9a48.76 48.76 0 0 1 48.05 40.5 48.84 48.84 0 0 1-39.85 56.4c-153.49 26.4-276.73 120-366.25 278.3-223.5 395.1-185.88 1092.1-22.85 1511.2 9.76 25.2-2.7 53.5-27.81 63.2a48.93 48.93 0 0 1-63.2-27.8c-171.06-439.9-208.7-1174.6 28.88-1594.7 104.68-185 250.93-294.8 434.71-326.4 2.79-.5 5.55-.7 8.32-.7" clip-path="url(#clipPath84)" transform="matrix(.13333 0 0 -.13333 -697.226 2184.932)"/><path d="M6714.2 6499a48.84 48.84 0 0 1 48.81 48.8c0 27-21.86 48.8-48.81 48.8-109.22 0-263.1 100.1-337.36 382.2a48.63 48.63 0 0 1-59.62 34.8 48.9 48.9 0 0 1-34.77-59.7c88.38-335.8 287.82-454.9 431.75-454.9" clip-path="url(#clipPath86)" transform="matrix(.13333 0 0 -.13333 -697.226 2184.932)"/><path d="M11511 685.1c114.2 0 233.2 20.4 357.9 64.9 430.3 153.5 727.5 1135.9 797.7 1468 433.8 2053.5 894.5 5432 505.2 6161.8-350.3 656.9-1018 925.9-1505.4 1122.3l-54.5 21.98c-262.6 106.14-564 311.14-567 313.2-22.3 15.15-52.7 9.49-67.8-12.77a48.7 48.7 0 0 1 12.7-67.84c12.7-8.63 313-212.95 585.5-323.1l54.6-22.01c473.6-190.78 1122.2-452.18 1455.8-1077.7 361.4-677.6-66.7-3975.5-514.7-6095.7-81.2-384.3-378.9-1269.3-734.9-1396.3-112.6-40.1-220.3-59.1-324.3-59.1-553.6-.1-1002.9 537.1-1547.1 1268a48.9 48.9 0 0 1-68.29 10 48.8 48.8 0 0 1-10.02-68.3c479.83-644.3 973.53-1307.3 1624.6-1307.4" clip-path="url(#clipPath88)" transform="matrix(.13333 0 0 -.13333 -697.226 2184.932)"/><path d="M9763.1 2235.4c8.23 0 16.52 2.1 24.15 6.5a48.67 48.67 0 0 1 18.2 66.5c-301 527.5-470.19 878.9-593.71 1135.5-112.5 233.6-193.76 402.3-309.11 571.6a48.66 48.66 0 0 1-67.82 12.8c-22.28-15.1-28.03-45.5-12.84-67.8 111.22-163.2 191.15-329.2 301.81-559 124.15-257.8 294.2-611 596.9-1141.4a48.8 48.8 0 0 1 42.42-24.7" clip-path="url(#clipPath90)" transform="matrix(.13333 0 0 -.13333 -697.226 2184.932)"/><path d="M11894 2562.4c10 0 20.2 3.1 28.9 9.6 21.7 15.9 26.3 46.5 10.3 68.2-227.4 308.4-497.8 574.9-784.1 857.1-512.9 505.6-1094.2 1078.6-1512.3 2018.5a48.63 48.63 0 0 1-64.41 24.7 48.77 48.77 0 0 1-24.76-64.4c425.52-956.8 1013.9-1536.7 1532.9-2048.3 283.5-279.4 551.3-543.4 774.2-845.6a48.7 48.7 0 0 1 39.3-19.8" clip-path="url(#clipPath92)" transform="matrix(.13333 0 0 -.13333 -697.226 2184.932)"/><path d="M10700 4021.7c23.7 0 44.5 17.3 48.2 41.4 1.9 12.7 193.8 1278.8 193.8 2661 0 27-21.8 48.8-48.8 48.8a48.8 48.8 0 0 1-48.8-48.8c0-1374.4-190.8-2633.6-192.7-2646.2a48.8 48.8 0 0 1 40.9-55.6c2.5-.4 5-.6 7.4-.6" clip-path="url(#clipPath94)" transform="matrix(.13333 0 0 -.13333 -697.226 2184.932)"/><path d="M11847-21.8c1.5 0 3.1.1 4.6.2 26.9 2.6 46.6 26.4 44 53.2l-70.2 743.8c-2.5 26.9-26.7 46.8-53.2 44a48.93 48.93 0 0 1-44-53.2l70.2-743.7a48.93 48.93 0 0 1 48.6-44.3" clip-path="url(#clipPath96)" transform="matrix(.13333 0 0 -.13333 -697.226 2184.932)"/><path d="M6422.9-35.3a48.83 48.83 0 0 1 48.81 48.2c6.38 542.4 20.08 1015.6 32.19 1433.2 22.3 770.1 39.94 1378.5 5.56 2041-23.46 452.2-61.24 796-91.62 1072.2-56.76 516.4-88.03 800.8 38.86 1155.7 121.59 340 232.47 585.9 339.66 823.6 147.48 327.1 286.79 636 419.92 1127.9a48.9 48.9 0 0 1-34.39 59.9c-25.9 7-52.78-8.3-59.86-34.4-131.06-484.4-268.82-789.9-414.65-1113.3-108.01-239.5-219.68-487.1-342.58-830.8-134.48-376.1-100.42-685.9-43.98-1199.3 30.22-274.9 67.85-617.2 91.14-1066.6 34.2-658.6 16.62-1265.1-5.65-2033.1-12.11-417.9-25.84-891.7-32.23-1434.8a48.8 48.8 0 0 1 48.25-49.4z" clip-path="url(#clipPath98)" transform="matrix(.13333 0 0 -.13333 -697.226 2184.932)"/><path d="M6874.1 7482.9a48.8 48.8 0 0 1 47.99 40.3c121.33 683.3 635.03 1022.5 1131.8 1350.5 246.38 162.6 479.1 316.3 646.89 504.4a48.8 48.8 0 0 1-3.94 68.9 48.65 48.65 0 0 1-68.9-3.93c-159.33-178.67-386.9-328.87-627.82-487.97-490.06-323.5-1045.5-690.2-1174.1-1414.8a48.75 48.75 0 0 1 39.5-56.6c2.89-.5 5.78-.8 8.61-.8" clip-path="url(#clipPath100)" transform="matrix(.13333 0 0 -.13333 -697.226 2184.932)"/><path d="M8560.3 6960.1c263.87 0 1141.4 863.9 1244.9 966.7 676.93 672.5 1188.4 1322.7 1368.2 1739.1a48.8 48.8 0 0 1-25.4 64.16c-24.7 10.73-53.5-.73-64.2-25.46-173.2-401.24-670.6-1033.6-1330.5-1691.6-651.69-649.9-1109.3-972.9-1189.8-956.4-1.81.8-28.28 14-60.02 110-143.81 435-134.05 1699.7 128 2130.6a48.8 48.8 0 0 1-16.34 67.1 48.77 48.77 0 0 1-67.05-16.4c-279.08-458.8-289.79-1750.7-137.31-2212 31.93-96.6 69.14-150.6 117.1-170.1 9.4-3.8 20.27-5.7 32.41-5.7" clip-path="url(#clipPath102)" transform="matrix(.13333 0 0 -.13333 -697.226 2184.932)"/><path d="M10549 12825c24.8 0 46 18.8 48.5 43.9a48.84 48.84 0 0 1-43.7 53.5c-365.3 36.5-835.66 350.9-1070.8 715.8a48.82 48.82 0 1 1-82.04-52.9c253.59-393.5 745.03-720.3 1143.1-760.1 1.6-.1 3.3-.2 4.9-.2" clip-path="url(#clipPath164)" transform="matrix(.13333 0 0 -.13333 -697.226 2184.932)"/><path d="M13165 5646.2c16.2 0 32.1 8.1 41.4 22.9 14.3 22.9 7.3 53-15.5 67.3-446.5 279.1-1501.1 511.2-2320.1 221.1a48.8 48.8 0 0 1-29.8-62.3c9-25.3 36.8-38.7 62.4-29.7 779.5 276.1 1816.8 50 2235.7-211.9 8.1-5 17-7.4 25.9-7.4" clip-path="url(#clipPath104)" transform="matrix(.13333 0 0 -.13333 -697.226 2184.932)"/><path d="M17152 10750c15.1 0 29.4.8 42.8 2.2 262.6 28.9 521.1 187.7 838.1 514.8 361.4 373 467.9 783.7 496.9 942.9 36.8 201.8 44.6 269.6 60.4 404.8 4.7 40.3 10.1 86.9 17.2 145.1 30.1 246.1 60.6 361.4 92.8 483.4 14.1 53.3 28.7 108.4 43.4 175.4 18.7 85.2 39.4 187.7 51.2 301.3a48.75 48.75 0 0 1-43.4 53.6c-26.7 2.9-50.9-16.7-53.6-43.5-11.4-108.5-30.6-203.7-49.6-290.5-14.2-64.9-28.5-119.1-42.3-171.4-33.2-125.3-64.5-243.7-95.4-496.5-7.1-58.4-12.6-105.1-17.3-145.6-16-137.3-23.2-199.9-59.5-398.6-27.4-150.5-128.1-538.7-470.9-892.4-296-305.5-543.5-459.9-778.7-485.7-295.5-32.6-1108.6 360.9-1386.8 805.3a48.8 48.8 0 0 1-67.3 15.5 48.86 48.86 0 0 1-15.4-67.3c287.8-459.8 1085.1-852.8 1437.4-852.8" clip-path="url(#clipPath106)" transform="matrix(.13333 0 0 -.13333 -697.226 2184.932)"/><path d="M15360 12551c21 0 40.5 13.7 46.8 34.9 7.7 25.9-7.1 53-32.9 60.7-285.8 85.1-441.5 239.9-490 487.1-31.9 163 15.9 324.4 121.7 411.1 90.1 73.9 211.3 84.9 341.1 31.4a48.9 48.9 0 0 1 63.8 26.5 48.83 48.83 0 0 1-26.6 63.7c-164.6 68-321 51.6-440.1-46.1-135.4-110.8-195-304.5-155.7-505.3 55.4-282.9 237.9-466.7 558-561.9 4.6-1.4 9.3-2.1 13.9-2.1" clip-path="url(#clipPath108)" transform="matrix(.13333 0 0 -.13333 -697.226 2184.932)"/><path d="M15294 13034c7 0 14.2 1.5 20.9 4.7 24.3 11.6 34.7 40.7 23.1 65-1.8 3.9-46.6 97-128.5 166.1-20.6 17.4-51.4 14.7-68.8-5.9a48.9 48.9 0 0 1 5.9-68.8c65.3-55 102.9-132.6 103.3-133.4a48.9 48.9 0 0 1 44.1-27.7" clip-path="url(#clipPath110)" transform="matrix(.13333 0 0 -.13333 -697.226 2184.932)"/><path fill-rule="evenodd" d="M17477 10880s-266.8-175.9-626.9-43.4c-333.8 122.7-833.2 485-833.2 485s412.5-572.1 783.6-775.5c350-191.8 681.5-47.3 681.5-47.3z" clip-path="url(#clipPath112)" transform="matrix(.13333 0 0 -.13333 -697.226 2184.932)"/><path d="M17470 12300c11.8 0 23.6 4.2 33 12.8 97.5 89.6 142.1 159.1 144.6 225.3 2.6 70.5-42.1 118.2-85.4 164.3-41.3 44.1-83.9 89.6-92.7 159.9-23.1 185.6 121.9 490.6 123.4 493.6a48.9 48.9 0 0 1-22.9 65.2c-24.3 11.6-53.5 1.4-65.1-22.9-6.5-13.5-158.9-333.9-132.3-547.9 12.7-101.9 71.3-164.4 118.4-214.6 37.3-39.8 60.1-65.6 59-93.9-1.3-36.6-39.4-89.4-113-157a48.8 48.8 0 0 1 33-84.8" clip-path="url(#clipPath114)" transform="matrix(.13333 0 0 -.13333 -697.226 2184.932)"/><path d="M17084 13951c18.3 0 35.9 10.3 44.2 28 11.5 24.4 1 53.5-23.4 65-337.9 159.1-597.6 6.2-608.5-.4-23-14-30.4-44-16.5-67 14-23.1 43.9-30.5 66.9-16.6 9.6 5.6 227.9 131.6 516.5-4.4 6.8-3.1 13.8-4.6 20.8-4.6" clip-path="url(#clipPath116)" transform="matrix(.13333 0 0 -.13333 -697.226 2184.932)"/><path d="M18465 13762c14.1 0 28 6 37.6 17.7a48.53 48.53 0 0 1-6.1 68.4c-8.3 7-205.4 168-496.4 61.5-25.3-9.2-38.3-37.3-29.1-62.6a48.9 48.9 0 0 1 62.6-29.1c236.4 86.6 393.8-39.4 400.4-44.8 9.1-7.4 20.1-11.1 31-11.1" clip-path="url(#clipPath118)" transform="matrix(.13333 0 0 -.13333 -697.226 2184.932)"/><path fill-rule="evenodd" d="M18191 13077c16.8 105.5-31.8 200.9-108.4 213-76.6 12.2-152.3-63.5-169-169.1-16.7-105.5 31.8-200.9 108.4-213 76.7-12.2 152.3 63.6 169 169.1" clip-path="url(#clipPath120)" transform="matrix(.13333 0 0 -.13333 -697.226 2184.932)"/><path fill-rule="evenodd" d="M16863 13206c12.7 106.1-44.7 200.2-128.2 210.3-83.6 10-161.6-67.9-174.4-173.9-12.7-106.1 44.7-200.2 128.2-210.3 83.6-10.1 161.6 67.8 174.4 173.9" clip-path="url(#clipPath122)" transform="matrix(.13333 0 0 -.13333 -697.226 2184.932)"/><path fill="#fff" fill-rule="evenodd" d="M17266 12052c-270.7 33.1-573 91.6-573 91.6s35.6-533.6 466.9-643.4c450.5-114.7 642.5 531.6 642.5 531.6s-265.8-13-536.4 20.2" clip-path="url(#clipPath124)" transform="matrix(.13333 0 0 -.13333 -697.226 2184.932)"/><path d="M17260 12003c-193.3 23.7-404.5 60.6-509.4 79.7 25-137.9 115.3-457.7 421.4-535.7 319-81.3 499.5 281 560.2 433.4-98.3-1.6-282.9-.6-472.2 22.6m-112.1-550.6c-460.3 117.2-502 664.2-503.6 687.4-1 15.1 5.1 29.9 16.4 39.9 11.4 10 26.8 14.2 41.6 11.3 3-.6 303.7-58.5 569.6-91.1 263.1-32.2 525.5-19.9 528.1-19.8 15.8 1.1 31.1-6.2 40.8-18.6a48.9 48.9 0 0 0 8.4-44.1c-63.8-214.7-262.2-579.9-586.1-579.9-36.7 0-75.2 4.7-115.2 14.9" clip-path="url(#clipPath126)" transform="matrix(.13333 0 0 -.13333 -697.226 2184.932)"/><path d="M15221 10805c24.1 0 45 17.8 48.3 42.3 1 7.5 100 755.1 22.9 1585.7-2.5 26.9-26.4 46.7-53.1 44.1a48.73 48.73 0 0 1-44.1-53.1c76-819.1-21.5-1556.3-22.4-1563.6a48.8 48.8 0 0 1 41.8-54.9c2.2-.3 4.4-.5 6.6-.5" clip-path="url(#clipPath128)" transform="matrix(.13333 0 0 -.13333 -697.226 2184.932)"/><path d="M17520 10203a48.77 48.77 0 0 1 48 58.2c-53.7 275.4-29.6 622.7-29.3 626.1a48.8 48.8 0 0 1-45.2 52.2c-27.1 1.7-50.3-18.3-52.2-45.2-1.1-14.7-25.3-363.7 30.9-651.8a48.74 48.74 0 0 1 47.8-39.5" clip-path="url(#clipPath130)" transform="matrix(.13333 0 0 -.13333 -697.226 2184.932)"/><path d="M17506 6338c21.4 0 41 14.1 47 35.6 1 3.6 101.1 358.6 204.4 601.2 45.3 106.6 122.1 135.2 178.4 140.5 96.3 9.1 199.1-43 256.4-129.2 78.9-118.5 89.6-246.1 27.2-325.2-55.1-69.9-156.3-84.3-277.4-39.7-25.3 9.4-53.4-3.6-62.7-28.9s3.7-53.4 28.9-62.7c161.1-59.3 306.1-32.8 387.9 70.8 89 112.9 80.1 285.5-22.6 439.8-76.7 115.2-216.1 184.3-346.7 172.3-117.1-10.9-209.2-81.7-259.3-199.5-105.7-248.5-204.3-598.2-208.5-613-7.3-26 7.9-52.9 33.8-60.2 4.4-1.2 8.9-1.8 13.2-1.8" clip-path="url(#clipPath132)" transform="matrix(.13333 0 0 -.13333 -697.226 2184.932)"/><path d="M18608 6395.8c26.9 0 48.8 21.8 48.8 48.7.6 143-33.6 256.5-107.5 356.9-116.6 158.4-310.1 292.9-318.3 298.5-22.2 15.4-52.6 9.8-67.9-12.4s-9.8-52.6 12.4-67.9c1.9-1.3 188.5-131.1 295.2-276 60.9-82.8 89-177.7 88.5-298.8a48.87 48.87 0 0 1 48.6-49z" clip-path="url(#clipPath134)" transform="matrix(.13333 0 0 -.13333 -697.226 2184.932)"/><path d="M18636 4209.1c121.8 0 225.5 70.7 272.8 187.4 53.8 132.5 22.8 280.8-77.2 368.9-20.2 17.9-51 15.9-68.9-4.3-17.8-20.3-15.9-51.1 4.3-68.9 67.9-59.8 89-166.3 51.4-259-16.2-39.9-67.6-132.1-193.1-126.2-618.3 30-1319.8 160.3-1378.4 306.2-45.6 113.5-7.2 217 26.7 308.4 17.2 46.4 33.4 90.3 36.6 131.2 4.6 59.2-23.7 110.5-53.6 164.9-38 69.1-77.4 140.5-65.1 244.6 4.6 38.4 47 98 88 155.5 45.9 64.4 93.4 131 111 196.5 15.2 56.2-2.9 113.5-22.1 174.1-29.4 93.2-59.8 189.5 22.8 297.4 46.3 60.6 314.3 56.3 808.6-89.6 406.9-120 858-305.3 1096.9-450.6 50.9-30.9 85.6-107.3 84.5-185.8-.7-49.9-16.4-141.8-113.7-197.3-65.6-37.5-263.2 10.7-382.4 56.7a49 49 0 0 1-63.2-27.9 48.83 48.83 0 0 1 27.9-63.1c55.2-21.4 336.8-124 466.1-50.5 101.8 58 161.2 160.4 162.9 280.7 1.7 114.9-49.9 221.1-131.3 270.6-464.3 282.3-1836.6 774-2033.9 516.1-113.4-148.3-70-285.7-38.3-386.1 15.4-48.6 28.7-90.7 21-119.3-13.1-48.5-55.4-107.8-96.3-165.2-50.3-70.7-97.9-137.4-105.4-200.7-16-135.2 35.2-228.4 76.5-303.2 23.6-43 44.1-80.2 41.7-110.3-2.1-27.3-16-64.9-30.8-104.7-36-97.2-85.4-230.4-25.7-378.8 120-298.6 1450.8-366.7 1464.3-367.3 5.1-.2 10.3-.4 15.4-.4" clip-path="url(#clipPath136)" transform="matrix(.13333 0 0 -.13333 -697.226 2184.932)"/><path d="M18951 4665.8c171.6 0 300.9 127.9 344.4 267.1 50.1 160-13 310.3-160.8 383-302.8 149-1306.3 447.1-1348.9 459.8-25.9 7.5-53-7.1-60.7-32.9-7.6-25.9 7.1-53.1 33-60.7 10.3-3.1 1038.1-308.5 1333.5-453.8 156.1-76.8 124.2-223.2 110.8-266.3-35.5-113.6-146.6-217.3-289.9-195.7-307.1 46.1-1184.7 232.4-1193.5 234.3a48.83 48.83 0 0 1-57.9-37.6 48.83 48.83 0 0 1 37.6-57.9c8.9-1.9 889.3-188.8 1199.3-235.3 18.1-2.7 35.8-4 53.1-4" clip-path="url(#clipPath138)" transform="matrix(.13333 0 0 -.13333 -697.226 2184.932)"/><path d="M19842 5532.7c104.1 0 206.4 15.1 278.7 60.4 56.8 35.5 91.6 85.8 103.5 149.4 37.1 198.7-132.2 268.9-311.4 343.3-97.3 40.4-207.7 86.2-300.8 156.9-83.4 63.4-177.2 152.9-260 231.8-122.6 117-200.7 189.8-257.6 213-111 45.4-213 52.8-303 59.4-105.3 7.8-188.4 13.9-260.4 73.8a48.7 48.7 0 0 1-68.7-6.2 48.84 48.84 0 0 1 6.2-68.8c96.1-80 202.8-87.8 315.8-96.1 86.8-6.4 176.5-13 273.2-52.4 42.7-17.5 136.5-106.9 227.2-193.4 84.6-80.6 180.5-172.1 268.3-238.8 103.1-78.4 219.6-126.7 322.4-169.4 181-75.1 274.4-119.7 252.9-235.1-6.8-36.2-26.2-63.9-59.4-84.7-145-90.9-497-23.5-620.3 10.1a48.85 48.85 0 0 1-60-34.2c-7.1-26 8.2-52.9 34.2-60 13-3.5 219.4-59 419.2-59" clip-path="url(#clipPath140)" transform="matrix(.13333 0 0 -.13333 -697.226 2184.932)"/><path d="M12896 8896.5c21.7 0 41.5 14.6 47.2 36.6 16.9 65.1 36.8 119.9 59.2 162.9 356.4 684.57 875.2 912.1 1377.1 1132.1l25.4 11.2c491.9 215.8 743.2 440.9 753.7 450.4 19.9 18.1 21.5 49 3.4 68.9-18 20-48.9 21.6-68.9 3.5-2.5-2.2-251.4-224.5-727.4-433.4l-25.5-11.2c-517.2-226.8-1052.1-461.36-1424.4-1176.4-25.8-49.5-48.3-111.2-67.1-183.6a48.8 48.8 0 0 1 35-59.5q6.15-1.5 12.3-1.5" clip-path="url(#clipPath142)" transform="matrix(.13333 0 0 -.13333 -697.226 2184.932)"/><path d="M15025 1241.2c782.2 0 1445.3 1039.2 2039.3 1970.3 270.3 423.5 525.5 823.6 762.5 1074.1a48.7 48.7 0 0 1-1.9 69 48.73 48.73 0 0 1-69-1.9c-243.4-257.3-501.1-661.1-773.9-1088.7-660.6-1035.4-1409.3-2209-2272.1-1861.7-352.5 141.8-761.8 785.8-1068.3 1680.6-279.9 817.5-355.4 1171.1-487.3 2047.9-4 26.7-28.8 45.3-55.5 41-26.7-4-45-28.9-41-55.5 132.9-883.7 209-1240.2 491.5-2065 320.1-934.8 740.4-1585.1 1124.1-1739.6 119.9-48.2 237.1-70.5 351.6-70.5" clip-path="url(#clipPath144)" transform="matrix(.13333 0 0 -.13333 -697.226 2184.932)"/><path d="M14376 3337.3c12.3 0 24.6 4.7 34.1 14 285.3 279.7 611 511.7 956 757.2 631.1 449.2 1346.5 958.5 1954.5 1890.5 14.8 22.5 8.4 52.8-14.2 67.5s-52.8 8.4-67.5-14.2c-598-916.5-1305.4-1420-1929.5-1864.3-348.1-247.8-676.9-481.9-967.6-767a48.7 48.7 0 0 1-.7-69c9.6-9.8 22.2-14.7 34.9-14.7" clip-path="url(#clipPath146)" transform="matrix(.13333 0 0 -.13333 -697.226 2184.932)"/><path d="M15588 4522.2c5 0 10 .7 15 2.3a48.9 48.9 0 0 1 31.5 61.5c-4.9 15.1-487.9 1523.6-546.9 2856.4-1.2 26.9-23.6 48-50.9 46.6-26.9-1.2-47.8-24-46.6-50.9 59.5-1346.2 546.6-2866.9 551.5-2882.1a48.7 48.7 0 0 1 46.4-33.8" clip-path="url(#clipPath148)" transform="matrix(.13333 0 0 -.13333 -697.226 2184.932)"/><path d="M13566-72.7a48.9 48.9 0 0 1 48.3 41.9c2.5 17.9 257.4 1809.5 108 2890.8-3.7 26.7-28.3 45.1-55 41.7-26.7-3.8-45.4-28.4-41.7-55.1 147.5-1067.5-105.4-2845.7-108-2863.5a48.92 48.92 0 0 1 48.4-55.8" clip-path="url(#clipPath150)" transform="matrix(.13333 0 0 -.13333 -697.226 2184.932)"/><path d="M19768 6303.8h2.2c27 1.2 47.8 24.1 46.6 51-26 574.3-160.3 1399.5-161.7 1407.7-4.4 26.6-29.3 44.8-56 40.3a48.64 48.64 0 0 1-40.3-56c1.3-8.3 134.7-827.8 160.5-1396.4a48.74 48.74 0 0 1 48.7-46.6" clip-path="url(#clipPath152)" transform="matrix(.13333 0 0 -.13333 -697.226 2184.932)"/><path d="M19835 2899.2c26.9 0 48.7 21.6 48.9 48.6 1.7 406.4 1 768.1-2.1 1075-2 206.2-11.7 443.4-21.1 672.9-9.4 231.4-19.1 470.7-21 677.5-.3 26.8-22.1 48.4-48.8 48.4h-.5c-27-.3-48.6-22.3-48.4-49.3 2-208.3 11.7-448.4 21.2-680.6 9.3-228.7 19-465.2 21-669.9 3-306.4 3.7-667.7 2-1073.6a48.8 48.8 0 0 1 48.6-49z" clip-path="url(#clipPath154)" transform="matrix(.13333 0 0 -.13333 -697.226 2184.932)"/><path d="M19797-28a48.7 48.7 0 0 1 48.8 48c.2 12.6 18.5 1268.6 27.2 2559.6.2 27-21.5 48.9-48.4 49.1h-.4c-26.8 0-48.6-21.6-48.8-48.4-8.7-1290.6-27-2546.3-27.2-2558.8-.4-27 21.1-49.1 48.1-49.5z" clip-path="url(#clipPath156)" transform="matrix(.13333 0 0 -.13333 -697.226 2184.932)"/><path d="M19846 7315.7c25 0 46.3 19.1 48.6 44.4 58 649.8-64.7 1271-312.5 1582.7-293.1 368.7-740.3 635.33-1134.8 870.55-288.3 171.91-560.7 334.35-716.5 505.55-18.2 20-49 21.5-69 3.3a48.73 48.73 0 0 1-3.2-68.9c165.6-182.1 444-348.05 738.7-523.78 387.4-230.96 826.4-492.72 1108.4-847.42 191-240.2 355.2-801.3 291.6-1513.3a48.77 48.77 0 0 1 44.3-52.9c1.5-.2 2.9-.2 4.4-.2" clip-path="url(#clipPath158)" transform="matrix(.13333 0 0 -.13333 -697.226 2184.932)"/><path d="M16973 9675c320.4 0 598.9 61.43 756.9 175.87 138.3 100.14 169.8 234.3 86.6 368.2-14.2 22.9-44.3 30-67.2 15.7s-30-44.4-15.7-67.3c55.8-89.7 35.9-167.4-60.9-237.53-367.6-266.19-1814.2-278.49-2629.3 694.13a48.8 48.8 0 0 1-68.7 6 48.7 48.7 0 0 1-6.1-68.7c490.7-585.57 1165.9-779.7 1524.7-843.31 163.7-29.01 326.5-43.06 479.7-43.06" clip-path="url(#clipPath160)" transform="matrix(.13333 0 0 -.13333 -697.226 2184.932)"/><path d="M13216 5976.3c9.3 0 18.7 2.6 27 8.2 485.2 323.4 1285.4 544.8 1876 342.2a48.82 48.82 0 1 1 31.6 92.4c-649.5 222.8-1472.2-27-1961.7-353.4a48.78 48.78 0 0 1 27.1-89.4" clip-path="url(#clipPath162)" transform="matrix(.13333 0 0 -.13333 -697.226 2184.932)"/></svg>