<svg xmlns="http://www.w3.org/2000/svg" viewBox="0 0 2744.6 1809.6"><path fill="var(--color-character-man-hair, #393127)" d="M481.34 70.4c11.4-9.73 28.36-18.4 48.43-30.63 18.67-11.4 39.59-26.6 72.9-30.5C650.9 3.65 737 14.03 772.45 37.63c27.41 18.27 90.99 63.16 99.28 101.41 5.58 25.74 14.4 43.23 2.56 69.2C864.2 230.27 833.02 243 833.02 243l-106.98 41.6-265.58-1.12s-8.37-16.36-12.22-58.3c-4.42-48.19-2.4-124.5 33.1-154.79"/><path fill="var(--color-character-man-skin, #ffddc0)" d="M466.65 274.66c2.68-5.68 16.6-13.31 29.6-12.18 19.18 1.68 41.54 13.43 65 5.4 28.53-9.77 52.06-56.44 52.06-56.44s39.73-48.67 73.78-56.93c41.31-10.02 106.95 11.04 126.33 29.52 17.15 16.36 19.94 56.25 11.68 91.07-2.35 9.92-15.06 42.53-20.6 69.2-6.4 30.91-6.41 57.2-21.02 84.47-45.2 84.39-110.74 101.96-110.74 101.96l-13.71 53.38s-47.75-40.34-92.67-73c-44.93-32.69-87.04-57.71-87.04-57.71s9.59-26.43 15.72-49.8c6.12-23.37 8.8-43.7 8.8-43.7s-64.7-27.03-37.2-85.24"/><path fill="#fff" d="m1404.73 1114.1 29.86-17.3 574.59 114.54 3.84 7.32 10.13 50.56-55.16-11.42-123.07 89.16-13.66 4.76-370.93-88.25z"/><path fill="var(--color-character-clothing-3, #be4158)" d="M453 448.78s20.75-2.42 71.15 30.2S654.6 579.25 654.6 579.25l11.48-28.8s72.33 54.5 59.5 66.39-21.81 29-21.81 29 34.26 40.56 73.45 133.6 82.57 243.67 82.57 243.67l64.52 95.6s68.19 9.67 131.1 10.06 120.56-8.5 120.56-8.5l10.58 39.37 141.43 3.61s23.32 32.67 30.87 70.76-.65 81.66-.65 81.66-167.45 36.1-274.26 51.48c-106.81 15.36-152.97 10.01-152.97 10.01s.64 23.68 19.3 71.03 19.19 74.57 19.19 74.57-71.13 6.9-152.2 104.99c-48.05 58.17-89.66 103.93-121.07 130.09-21.57 17.95-41.91 25.75-41.91 25.75l-68.34-5.68s-72.88-372.32-124.3-580.74-100.6-360.4-100.6-360.4-2.31-6.78-13.82-15.4c-11.51-8.61-34.77-18.77-34.77-18.77s4.7-81.12 39.2-169.5c19.34-49.55 49.6-79.82 71.8-115.9 17.4-28.25 29.56-68.44 29.56-68.44"/><path fill="#576580" d="M826.54 1618.42c85.73-93.53 138.84-90.54 138.84-90.54s235.6 29.02 433.83 94.32c66.8 22 114.05 46.42 142.68 76.85 48.54 51.6 43.06 97.09 43.06 97.09s-175.2 19.28-501.37 11.68c-203.26-4.72-346.37-15.55-425.37-23.03 0 0 27.18-17.35 57.78-46.45 31.5-30 67.07-72.48 110.55-119.92"/><path fill="var(--color-character-man-skin, #ffddc0)" d="M1351.4 1093.97c33.5-5.24 73.31 38.21 73.31 38.21s91.82-76.12 117.12-81.62 46.04 55.3 46.04 55.3 9.47 9.56 22.23 28.6c12.74 19.05 28.77 47.59 28.77 47.59s49.48 38.53 27.95 53.29c-3.42 2.33-14.3 1.48-32.44-10.21a102 102 0 0 0-70.16-14.76c-34.5 5.32-74.65 43.26-108.73 53.51-46.8 14.08-94.81 19.52-94.81 19.52s-2.78-43.24-11.59-72.62c-8.79-29.39-23.63-44.92-23.63-44.92l-147.73 11.21 1.11-42.53s25.99-1.73 61.08-10.6c39.3-9.9 89.32-26.52 111.48-29.97"/><path fill="#37445c" d="m968.47 63.33 15.5-6.9 1003.41 31.7s25.65 5.66 36.59 13.5c10.9 7.84 7.09 17.84 7.09 17.84l.23 251.73-73.32 334.6-1000.68-89.33V78.94z"/><path fill="#e1e2e3" d="m956.34 613.05 1005.59 90.89-12.86 50.74-96.38 93.01-252.9-27.57 14.2 77.8-3.35 12.98-108.8 74.47-24.57 5.07-231.62-31.17-1.72-16.98 138.21-70.6 4.3-10.75-14.6-65.42-394.02-42.2-12.97-6.87-6.92-17.77z"/><path fill="#475774" d="m978.2 91.06 12.1-10.1 989.23 32 9.02 8.7.3 434.19-36.68 149.37-973-90.72z"/><path fill="#7085ab" d="m2047.91 354.52 650.47 26.88 9.57 13.96-113.68 412.03-5.28 10.5 1.14 17.82-219.77 269.23-19.66 7.19-658.45-81.3-6.74-11.1 247.87-253.91 9.9-8.5-.31-14.8 92.69-382.38 12.25-5.6"/><path fill="#8490a8" d="M1789.79 1006.92c48.98 3.34 53.93 41.76 53.93 41.76l34.86 5.24-31.2 12.36-101.03-14.72s-5.56-47.98 43.44-44.64m405.85 54.25c48.99 3.35 55.05 38.98 55.05 38.98l26.51 4.95-23.96 15.41-101.04-14.7s-5.56-47.97 43.44-44.64"/><path fill="#475774" d="m2052.05 376.65 612.71 25.94-107.05 389.48-593.38-51.22z"/><path d="M504.18 363.99q-1.12 0-2.23-.43c-28.84-11.35-44.27-29.83-47.17-56.5-2.07-19.08 5.1-36.74 18.7-46.07 12.06-8.27 26.93-8.59 41.87-.87a6.08 6.08 0 1 1-5.58 10.83c-10.78-5.56-21.22-5.52-29.4.1-9.75 6.67-15.03 20.3-13.47 34.68 2.4 22.06 14.95 36.83 39.51 46.48a6.1 6.1 0 0 1-2.23 11.78"/><path d="M501.95 319.72a6.1 6.1 0 0 1-5.7-3.97c-.03-.06-2.72-7.04-7.93-12.26a6.1 6.1 0 0 1 8.62-8.6c7.13 7.12 10.57 16.22 10.72 16.6a6.1 6.1 0 0 1-5.7 8.23m197.74 82.53a6.11 6.11 0 0 1-3.74-10.92c8.95-6.9 10.62-10.62 10.81-12.21.24-1.9-1.47-4.17-4.26-7.72-3.81-4.83-9.03-11.44-9.4-21.3-.77-19.69 17.53-51.76 19.62-55.36a6.1 6.1 0 0 1 10.54 6.13c-5.18 8.92-18.52 35.06-18 48.76.24 5.89 3.43 9.94 6.8 14.22 3.6 4.55 7.67 9.71 6.8 16.75-.8 6.45-5.56 12.73-15.45 20.37a6 6 0 0 1-3.73 1.28m-14.97-157.73a6 6 0 0 1-3.33-1c-23.42-15.3-45.77-5.6-46.72-5.18a6.09 6.09 0 0 1-5.05-11.1c1.19-.54 29.24-13 58.44 6.08a6.1 6.1 0 0 1-3.34 11.2m119.4 21.07c-1.4 0-2.8-.47-3.94-1.44-.6-.5-13.33-10.77-34.57-4.99a6.1 6.1 0 0 1-3.2-11.76c27.77-7.57 44.96 6.86 45.68 7.48a6.1 6.1 0 0 1-3.97 10.7"/><path fill-rule="evenodd" d="M655.76 303.85c2.11-10.07-2.87-19.62-11.11-21.31-8.25-1.7-16.65 5.08-18.76 15.16-2.11 10.06 2.87 19.6 11.11 21.31 8.25 1.71 16.66-5.09 18.76-15.16m117.26 23.2c2.11-10.06-2.87-19.6-11.11-21.32-8.25-1.69-16.65 5.08-18.76 15.16-2.1 10.08 2.87 19.62 11.11 21.32 8.25 1.71 16.65-5.08 18.76-15.16"/><path d="M554.52 462.25s27.9 21.83 57.94 40.32c30.03 18.48 58.25 28.25 58.25 28.25l-6.96 20.5s-31.97-5.46-60.09-31.07c-28.1-25.61-49.14-58-49.14-58"/><path fill="#fff" fill-rule="evenodd" d="M632.33 409.19s-.71 48.93 38.68 58.33c39.38 9.38 57.85-39.13 57.85-39.13s-21.05-1.27-45.18-6.07-51.35-13.13-51.35-13.13"/><path d="M638.99 417.59c1.65 13.18 8.15 38.06 33.43 44.09 25.16 5.98 40.68-15.75 47.2-27.86a385 385 0 0 1-37.13-5.43c-16.18-3.22-33.5-7.94-43.5-10.8m41.8 57.3q-5.35.02-11.2-1.36c-34.9-8.32-43.62-45.73-43.35-64.34a6.1 6.1 0 0 1 7.88-5.74c.27.08 27.22 8.3 50.75 12.99a375 375 0 0 0 44.36 5.96 6.06 6.06 0 0 1 5.33 8.24c-6.27 16.48-24.9 44.25-53.77 44.25"/><path d="M667.12 535.98q-2.37 0-4.72-.25c-34.6-3.84-79.53-34.84-108.73-63.84-20.82-20.67-32.53-52.58-33.02-53.93a6.09 6.09 0 0 1 11.46-4.16c.11.3 11.3 30.73 30.15 49.45 32.76 32.53 74.5 57.36 101.48 60.37 18.15 2.04 45.66-13.93 71.95-41.61 23.7-24.96 46.17-61.48 52.25-84.94 3.29-12.7 4.4-20.86 5.6-29.5a282 282 0 0 1 4.47-25.73c3.06-13.63 6.8-23.27 10.1-31.77a200 200 0 0 0 5.67-15.99c4.6-15.58 18.56-63.02 1.23-100.66a6.1 6.1 0 0 1 11.07-5.1c19.24 41.79 4.3 92.54-.6 109.2-1.8 6.1-3.84 11.36-6 16.95-3.3 8.5-6.72 17.3-9.58 30.05a269 269 0 0 0-4.29 24.72c-1.19 8.6-2.4 17.5-5.87 30.88-6.64 25.63-29.86 63.6-55.21 90.29-13.39 14.08-46.75 45.57-77.41 45.57m697.34 753.04a6.09 6.09 0 0 1-1.3-12.04c11.66-2.62 24.4-4.78 36.74-6.87 23.24-3.93 45.2-7.67 57.3-13.67 24.5-12.16 46-24.42 63.3-34.26 14.03-8 24.16-13.77 30.08-16.13 16.13-6.44 55.21-2.7 64.9.73 3.3 1.17 8 4.05 13.96 7.7 7.46 4.58 30.12 18.5 34.5 14.34.56-.53.66-2.16.28-4.15-2.46-12.34-22.07-35.93-48.46-46.28-15.36-6.02-56.64-6.76-71.3-6.52a6.1 6.1 0 1 1-.19-12.19c2.24-.03 55.19-.77 75.93 7.37 29.2 11.44 52.5 37.8 55.96 55.26 1.62 8.1-1.16 12.79-3.78 15.3-11.12 10.7-32.3-2.3-49.31-12.74-4.7-2.88-9.56-5.86-11.65-6.6-7.99-2.82-43.9-5.85-56.34-.9-5.12 2.04-15.46 7.94-28.55 15.4-16.51 9.4-39.1 22.27-63.91 34.6-13.7 6.8-36.52 10.66-60.68 14.77-12.18 2.06-24.77 4.2-36.14 6.72q-.67.15-1.34.16M461.4 295.19a6.1 6.1 0 0 1-5.7-3.9c-.77-2.03-19-50.23-13.35-111.51a6.08 6.08 0 1 1 12.13 1.1c-5.4 58.48 12.42 105.56 12.6 106.03a6.08 6.08 0 0 1-5.69 8.28m-10.08-140.53a6.1 6.1 0 0 1-6.07-5.64c-4.13-55.64 33.39-96.35 70.79-106.41a6.1 6.1 0 0 1 3.16 11.77c-32.68 8.79-65.45 44.63-61.8 93.73a6.1 6.1 0 0 1-5.62 6.54zM873.58 112q-.6 0-1.2-.11c-20.36-4.1-35.38-18.67-49.9-32.76-9.6-9.32-19.53-18.96-31.05-25.74l-3.5-2.06c-17.83-10.58-36.27-21.5-72.52-24.65a6.1 6.1 0 1 1 1.05-12.14c39.02 3.39 59.56 15.56 77.67 26.3l3.48 2.05c12.78 7.52 23.24 17.68 33.36 27.5 13.87 13.46 26.96 26.16 43.8 29.54a6.1 6.1 0 0 1-1.19 12.06M538.42 48.8a6.1 6.1 0 0 1-5.23-9.21c15.68-26.4 51.4-36.93 77.21-37.91 11.72-.47 23.42.52 34.73 1.46 19.89 1.66 38.68 3.22 55.73-2.8a6.09 6.09 0 1 1 4.06 11.5c-19.52 6.88-40.5 5.13-60.8 3.44-10.95-.91-22.28-1.84-33.24-1.43-24.57.95-54.88 11.2-67.22 31.96a6.1 6.1 0 0 1-5.24 2.98M313.74 806.26l-.6-.03a6.1 6.1 0 0 1-5.47-6.66c13.95-143.46 57-206.29 91.58-256.76a898 898 0 0 0 16.94-25.34c13.07-20.54 23.05-43.16 30.53-69.14a9.5 9.5 0 0 1 6.87-6.61c24.53-6.75 147.12 79.87 220.9 149.35 6.11 5.76 5.26 16 4.07 30.17-.76 9.04-1.62 19.3-.76 29.83.7 8.67 6.7 19.27 14.3 32.68 7.6 13.44 17.06 30.16 25.16 51.8a6.1 6.1 0 1 1-11.42 4.27c-7.76-20.74-16.96-37-24.35-50.07-8.33-14.72-14.9-26.35-15.83-37.7-.95-11.51 0-22.78.76-31.82.61-7.37 1.55-18.52-.28-20.28-80.81-76.1-189.28-147.17-208.2-146.62-7.75 26.44-18.05 49.57-31.48 70.68-5.42 8.53-11.13 16.86-17.17 25.69-33.8 49.32-75.85 110.72-89.5 251.05a6.1 6.1 0 0 1-6.06 5.5"/><path d="M480.07 457.58a6.1 6.1 0 0 1-5.43-8.85c.16-.3 15.06-29.96 21.75-75.48a6.1 6.1 0 0 1 12.06 1.78c-7.01 47.64-22.3 77.97-22.95 79.23a6.1 6.1 0 0 1-5.43 3.32m156.54 200.4a6.1 6.1 0 0 1-5.22-9.23c1.56-2.61 3.76-7.57 6.08-12.82 7.91-17.92 17.76-40.24 31.6-42.4a6.1 6.1 0 1 1 1.9 12.02c-7.28 1.15-17.46 24.22-22.36 35.31-2.58 5.84-4.81 10.9-6.76 14.16a6.1 6.1 0 0 1-5.24 2.96m-64.22-52a6 6 0 0 1-3.9-1.41c-36.65-30.64-89.88-72.21-135.35-96.35a6.1 6.1 0 0 1 5.71-10.76c46.4 24.62 100.36 66.75 137.45 97.76a6.1 6.1 0 0 1-3.91 10.76"/><path d="M955.67 1383.52c-66.96 0-98.52-12.37-119.3-27.86-116.07-86.62-223.17-220.96-294.05-309.88-24.98-31.33-46.55-58.38-62.93-76.46a6.1 6.1 0 0 1 9.03-8.19c16.63 18.36 38.32 45.56 63.43 77.07 70.48 88.4 177 222.02 291.82 307.68 39.91 29.79 131.48 48.9 507.73-35.13 7.9-8.76-.21-87.97-18.3-125.88-5.38-11.25-9.31-13.32-10.31-13.26-60.73 8.45-233.45 21.42-357.47 13.22-10.58-.7-11.67-12.82-12.48-21.68-.4-4.42-1-11.12-2.63-12.76-5.04-5.14-10.44-8.02-15.19-10.57-5.46-2.93-10.64-5.7-12.64-11.15-3.29-8.89-14.46-24.78-31.37-48.83-36.16-51.47-103.49-147.25-182.89-306.22-53.38-106.89-109.4-143.85-120.1-150.17-3.93-2.32-3.8-5.46-3.37-7.11l5.9 1.5 3.33-5.09c16.09 9.52 71.62 48.23 125.14 155.41 79 158.16 143.45 249.88 181.96 304.66 18.08 25.72 28.99 41.24 32.83 51.63.4 1.12 4.2 3.14 6.96 4.62 4.97 2.67 11.78 6.32 18.13 12.78 4.66 4.74 5.38 12.6 6.08 20.2.3 3.36.8 8.82 1.76 10.66 123.1 8.07 294.15-4.8 354.36-13.17 22.83-3.19 35.72 54.64 40.24 79.62 4.3 23.66 12.2 79.14-6.81 83.38-201.98 45.13-323.07 60.98-398.86 60.98M455.62 994.06a6 6 0 0 1-3.9-1.4c-44.9-37.43-43.78-164.82-21.14-229.16a6.1 6.1 0 0 1 11.5 4.04c-21.12 60.02-21.7 183.12 17.44 215.73a6.1 6.1 0 0 1-3.9 10.79m377.26-743.54a6.1 6.1 0 0 1-2.13-11.81c21.25-7.92 35.33-22.17 40.7-41.2 5.92-20.93.6-45.42-13.87-63.94a6.09 6.09 0 1 1 9.6-7.51c16.82 21.52 22.95 50.17 16 74.76-4.51 15.98-16.53 37.52-48.17 49.32a6 6 0 0 1-2.13.38m-261.89-22a83.6 83.6 0 0 1-37.3-8.82 6.09 6.09 0 1 1 5.38-10.94c31.2 15.38 62.5 4.86 81.39-10.13 10.56-8.39 18.77-18.67 26.7-28.63 16.65-20.86 32.37-40.6 64.12-33.6a6.09 6.09 0 1 1-2.62 11.91c-24.32-5.37-35.93 9.19-51.97 29.3-7.97 10-17 21.31-28.66 30.57-14.21 11.28-34.55 20.34-57.04 20.34m-16.4 45.34c-7.7 0-15.34-2.8-22.37-8.23a6.1 6.1 0 0 1 7.46-9.64c5.96 4.6 12.07 6.41 18.18 5.41 7.66-1.28 13.72-6.81 16.84-11.56a6.1 6.1 0 1 1 10.18 6.7c-5.87 8.93-15.22 15.25-25.02 16.88q-2.63.44-5.27.44m239.82-99.34a6.1 6.1 0 0 1-2.16-11.78c5.72-2.19 12.96-9.12 16.1-22.1a6.1 6.1 0 0 1 11.85 2.89c-3.56 14.69-12.62 26.4-23.63 30.6q-1.07.4-2.16.4m-40.27-13.07h-.08a6.1 6.1 0 0 1-6.01-6.17c.15-12.04-3.64-23.14-10.13-29.67-4.86-4.88-11.06-7.2-18.84-7.28h-.04a6.1 6.1 0 0 1-.04-12.19h.3c10.76 0 20.18 3.76 27.26 10.88 8.88 8.94 13.87 22.94 13.68 38.42a6.1 6.1 0 0 1-6.1 6m890.85 1033.62a6 6 0 0 1-4.85-2.4c-2.72-3.57-5.31-8.24-8.31-13.64-7.24-13.04-16.24-29.29-29.95-33.64-26.05-8.25-70.65-8.36-71.1-8.36a6.1 6.1 0 0 1 0-12.18c1.9 0 46.93.1 74.78 8.93 18.34 5.81 29.08 25.19 36.92 39.35 2.66 4.77 5.16 9.29 7.35 12.16a6.08 6.08 0 0 1-4.84 9.78"/><path d="M1611.26 1145.55a6.1 6.1 0 0 1-5.76-4.09c-11.83-33.97-41.22-34.97-94.59-36.79a6.1 6.1 0 0 1-5.88-6.29c.1-3.36 3.03-6.13 6.3-5.88 54.86 1.87 91.11 3.1 105.67 44.96a6.1 6.1 0 0 1-5.74 8.1"/><path d="M1343 1185.11a6.1 6.1 0 0 1-.84-12.13c3.14-.44 12.7-1.77 15.64-3.4 19.56-10.88 56.85-38.59 92.9-65.4 46.67-34.68 75.77-56.05 85.59-58.45 37.57-9.21 57.33 58.28 58.15 61.16a6.1 6.1 0 0 1-11.72 3.37c-.16-.6-17.78-58.9-43.54-52.7-7.92 1.94-46.85 30.88-81.2 56.4-36.39 27.05-74 55-94.25 66.26-4.08 2.28-10.9 3.57-19.9 4.83q-.4.06-.83.06"/><path d="M1535.53 1103.58a6.08 6.08 0 0 1-3.55-11.04 453 453 0 0 0 11.55-8.64l7.45 9.66s-6.68 5.14-11.9 8.89a6 6 0 0 1-3.55 1.13m-879-521.07q-.65 0-1.31-.14a6.1 6.1 0 0 1-4.64-7.26c.14-.64 3.61-16.06 18.63-46.9a6.08 6.08 0 1 1 10.96 5.33c-14.27 29.3-17.66 44.05-17.69 44.2a6.1 6.1 0 0 1-5.95 4.77"/><path d="M701.5 682.11a6.1 6.1 0 0 1-6.04-5.26c-4.28-31.12 9-46.08 17.79-55.99 5.9-6.65 7.36-8.87 6.37-11.68-3.76-10.7-34.88-36.76-53.6-50.68a6.1 6.1 0 0 1 7.26-9.78c5.26 3.9 51.61 38.71 57.83 56.4 3.51 10-2.72 17.03-8.75 23.82-8.17 9.21-18.34 20.68-14.82 46.24a6.1 6.1 0 0 1-6.05 6.93"/><path d="M864.72 1037.41a6.1 6.1 0 0 1-5.73-4c-11.45-31.41-22.55-64.52-34.3-99.56-20.52-61.19-41.73-124.46-65.16-178.73-10.73-24.86-25.45-49.78-39.68-73.87-7.23-12.24-14.06-23.8-19.97-34.72a6.1 6.1 0 0 1 10.71-5.8c5.81 10.72 12.58 22.18 19.75 34.33 14.43 24.41 29.34 49.66 40.38 75.23 23.63 54.74 44.93 118.26 65.53 179.7 11.72 34.96 22.8 67.98 34.19 99.24a6.1 6.1 0 0 1-5.72 8.18M655.7 1789.32a6.1 6.1 0 0 1-2.59-11.6c39.76-18.71 85.66-70.69 130.04-120.95 25.1-28.4 51.04-57.79 75.42-80.5 35.85-33.4 72.04-47.38 91.46-54.87 4.6-1.78 9.68-3.75 11.92-4.99.84-24.61-9-47.17-16.96-65.38-2.16-4.96-4.18-9.6-5.82-13.88-8.25-21.43-11.16-36.14-14.64-56.14a6.1 6.1 0 1 1 12-2.09c3.36 19.28 6.16 33.47 14 53.85 1.6 4.12 3.54 8.59 5.64 13.38 8.66 19.86 19.46 44.6 17.86 72.86-.36 6.32-6.4 8.65-19.6 13.75-18.68 7.2-53.42 20.62-87.55 52.42-23.94 22.32-49.7 51.47-74.6 79.67-45.2 51.18-91.94 104.1-133.99 123.9q-1.27.58-2.59.57M891.94 1229a6.08 6.08 0 0 1-5.64-8.39c12.03-29.64 35.95-47.27 36.96-48a6.1 6.1 0 0 1 7.16 9.85c-.21.16-22.16 16.41-32.83 42.75a6.1 6.1 0 0 1-5.65 3.8"/><path d="M1588.2 1802.18a6.1 6.1 0 0 1-6.05-5.35 174 174 0 0 0-3.85-21.57c-13.83-53.65-57.27-92.33-74.97-101.75-149.39-79.4-430.86-125.82-544.95-142.09a6.1 6.1 0 0 1 1.72-12.06c114.72 16.36 397.86 63.08 548.96 143.4 19.97 10.62 66.08 51.34 81.05 109.46a189 189 0 0 1 4.13 23.1 6.1 6.1 0 0 1-6.05 6.86M584.9 1781.71a6.1 6.1 0 0 1-5.97-4.95c-80.87-424.5-153.89-730.96-223.22-936.88-6.28-18.64-52.94-39.57-116.12-52.07-63-12.46-110.25-10.67-117.9-1.87-.48.56-.79 1.07-.29 2.5 93.35 268 200.53 665.56 254.88 945.31a6.08 6.08 0 1 1-11.96 2.32c-54.25-279.27-161.24-676.11-254.42-943.63-1.85-5.3-.93-10.45 2.6-14.5 16.22-18.66 89-10.1 129.45-2.1 26.41 5.23 113.48 25 125.31 60.14 69.5 206.45 142.66 513.43 223.64 938.5a6.1 6.1 0 0 1-6 7.22m804.5-622a6 6 0 0 1-4.2-1.68c-7.6-7.23-32.79-6.92-49.5-6.73-8.25.09-15.37.17-20.44-.43a6.08 6.08 0 1 1 1.46-12.1c4.26.51 11.34.42 18.84.34 20.88-.25 46.85-.55 58.04 10.1a6.09 6.09 0 0 1-4.2 10.5m-208-19.79a6.1 6.1 0 0 1 0-12.18c9.72 0 25.61-1.28 35.97-3.64 18.46-4.2 38-10.27 56.9-16.14 37.65-11.67 73.22-22.7 97.23-18.23 21.34 3.96 51.61 32.58 52.9 33.8a6.1 6.1 0 0 1-8.4 8.82c-8-7.59-31.96-27.9-46.74-30.65-21.05-3.92-55.2 6.7-91.38 17.9-19.12 5.94-38.9 12.07-57.8 16.38-11.35 2.58-28.04 3.94-38.67 3.94"/><path d="M1178.33 1181.66q-.7 0-1.42-.17a6.1 6.1 0 0 1-4.5-7.35c4.16-17.44.46-41.5-2.8-47.7-103.38 14.94-166.11 6.86-212.02.97-12.22-1.58-23.77-3.07-34.44-3.9a6.1 6.1 0 0 1-5.6-6.53 6.17 6.17 0 0 1 6.55-5.61c10.97.85 22.67 2.36 35.05 3.94 45.52 5.86 107.87 13.87 210.9-1.25 1.67-.24 4.87-.17 7.83 3.07 7.67 8.37 11.05 40.25 6.37 59.85a6.1 6.1 0 0 1-5.92 4.68m154.8-31.31a6.1 6.1 0 0 1-2.12-11.8c10.95-4.06 30.33-10.57 37.13-8.82a6.1 6.1 0 0 1-2.92 11.82c-3.48-.4-18.24 4.07-29.97 8.43q-1.05.37-2.12.37m519.45-296.38q-.32 0-.65-.03l-874.27-94.89c-16.23-2.1-26.63-16.61-26.63-37l.6-634.9a35.2 35.2 0 0 1 10.78-25.4 35 35 0 0 1 25.73-9.94l994.45 31a35.24 35.24 0 0 1 34.31 35.46l-.68 348.6a6.1 6.1 0 0 1-6.1 6.07 6.1 6.1 0 0 1-6.09-6.1l.68-348.6A23.1 23.1 0 0 0 1982.22 95L987.77 64a23 23 0 0 0-16.88 6.52 23 23 0 0 0-7.07 16.66l-.6 634.89c0 11.03 4.17 23.38 15.88 24.89l874.14 94.87a6.1 6.1 0 0 1-.66 12.15"/><path d="M978.74 618.65a6.1 6.1 0 0 1-6.1-6.1l.13-518.49c0-4.88 1.92-9.43 5.42-12.81 3.5-3.4 8.1-5.2 12.98-5.03l985.36 30.72c9.72.3 17.3 8.16 17.29 17.88l-.84 435.06a6.1 6.1 0 1 1-12.19-.01l.84-435.08a5.64 5.64 0 0 0-5.49-5.66L990.78 88.4a5.66 5.66 0 0 0-5.83 5.65l-.12 518.5a6.1 6.1 0 0 1-6.1 6.09"/><path fill="#7d74f9" d="M1197 127.46h-.19l-50.7-1.59a6.1 6.1 0 1 1 .37-12.18l50.7 1.6a6.1 6.1 0 0 1-.18 12.17m-72.93-2.26q-.1 0-.19-.02l-52.62-1.65c-3.36-.1-6-2.92-5.9-6.28s2.9-6.1 6.28-5.9l52.62 1.66a6.09 6.09 0 0 1-.2 12.18m-72.52-2.26-.19-.02-36.5-1.13a6.1 6.1 0 1 1 .37-12.19l36.52 1.15a6.1 6.1 0 0 1-.2 12.19"/><path fill="#5581d5" d="m1183.13 253.19-.3-.01-84.43-4.22a6.07 6.07 0 0 1-5.77-6.38 6.15 6.15 0 0 1 6.39-5.78l84.42 4.22a6.1 6.1 0 0 1-.3 12.17m-115.07-5.73-.3-.02-56.4-2.81a6.1 6.1 0 0 1-5.76-6.39 6.15 6.15 0 0 1 6.38-5.78l56.37 2.82a6.08 6.08 0 0 1-.29 12.18"/><path fill="#6bc255" d="M1478.73 168q-.12 0-.22-.02l-73.58-2.41a6.1 6.1 0 1 1 .4-12.2l73.58 2.44a6.1 6.1 0 0 1-.18 12.18m-94.67-3.06h-.2l-100.62-3.31a6.1 6.1 0 0 1-5.9-6.3 6.17 6.17 0 0 1 6.3-5.89l100.62 3.32a6.08 6.08 0 0 1-.2 12.17m-116.93-3.86h-.21l-51.75-1.7a6.1 6.1 0 0 1-5.89-6.3 6.2 6.2 0 0 1 6.3-5.9l51.74 1.71a6.09 6.09 0 0 1-.19 12.19m-73.6-2.4h-.2l-88.49-2.9a6.1 6.1 0 0 1 .39-12.2l88.5 2.91a6.1 6.1 0 0 1-.2 12.19m-109.86-3.6h-.2l-69.59-2.3a6.08 6.08 0 1 1 .4-12.17l69.59 2.28a6.1 6.1 0 0 1-.2 12.19"/><path fill="#66d6eb" d="M1316.6 226.12h-.22l-79-2.73a6.1 6.1 0 0 1-5.87-6.3 6.14 6.14 0 0 1 6.3-5.89l78.99 2.75c3.37.1 6 2.93 5.88 6.3a6.1 6.1 0 0 1-6.08 5.87m-103.33-3.6h-.22l-86.7-3c-3.36-.12-6-2.94-5.88-6.3s2.99-6.1 6.3-5.88l86.71 3.01a6.1 6.1 0 0 1-.21 12.17m-118.67-4.13h-.21l-79.93-2.77a6.1 6.1 0 0 1 .41-12.19l79.93 2.77a6.1 6.1 0 0 1-.2 12.19"/><path fill="#faaa47" d="M1392.46 198h-.24l-127.91-4.85a6.1 6.1 0 0 1 .45-12.19l127.93 4.84a6.1 6.1 0 0 1-.23 12.2m-148.39-5.6h-.23l-55.53-2.12a6.1 6.1 0 0 1 .47-12.17l55.51 2.1a6.1 6.1 0 0 1-.22 12.18M1161 189.2l-.23-.02-80.78-3.06a6.1 6.1 0 0 1 .47-12.18l80.77 3.06a6.1 6.1 0 0 1-.23 12.2m-103.73-3.88h-.24l-42.65-1.6a6.1 6.1 0 0 1-5.85-6.33 6 6 0 0 1 6.31-5.87l42.66 1.62a6.1 6.1 0 0 1-.23 12.18"/><path fill="#ef588b" d="M1218.6 284.39h-.28l-70.52-3.21a6.1 6.1 0 0 1 .55-12.18l70.53 3.22a6.09 6.09 0 0 1-.28 12.17m-106.8-4.8h-.3l-97.22-4.43a6.1 6.1 0 0 1-5.8-6.36 6.16 6.16 0 0 1 6.35-5.81l97.24 4.41a6.1 6.1 0 0 1-.27 12.19"/><path fill="#6bc255" d="m1197 405.05-.33-.01-61.9-3.39a6.1 6.1 0 1 1 .66-12.16l61.9 3.39a6.1 6.1 0 0 1-.33 12.17m-92.93-5.06-.33-.02-91.1-4.97a6.1 6.1 0 0 1-5.74-6.41 6.1 6.1 0 0 1 6.41-5.76l91.1 4.98a6.1 6.1 0 0 1-.33 12.17"/><path fill="#66d6eb" d="M1306.46 320.12h-.29l-93.18-4.47a6.1 6.1 0 0 1-5.8-6.37 6.2 6.2 0 0 1 6.38-5.8l93.19 4.47a6.08 6.08 0 0 1-.3 12.17m-115.99-5.47h-.3l-92.6-4.44c-3.35-.16-5.94-3-5.78-6.37s3.12-5.81 6.37-5.8l92.59 4.44a6.1 6.1 0 0 1-.28 12.17m-121.73-5.86-.3-.02-55.1-2.64c-3.37-.16-5.96-3-5.8-6.37s3.07-5.81 6.37-5.8l55.12 2.64a6.1 6.1 0 0 1-.3 12.19m296.93 74.26h-.3l-101.2-4.94a6.1 6.1 0 0 1-5.8-6.39 6.1 6.1 0 0 1 6.39-5.79l101.2 4.95a6.08 6.08 0 0 1-.29 12.17m-128.39-6.26-.3-.02-125.14-6.12a6.1 6.1 0 0 1 .6-12.17l125.13 6.12a6.1 6.1 0 0 1-.3 12.19m-165.72-8.14h-.3l-55.54-2.72a6.09 6.09 0 1 1 .6-12.17l55.53 2.72a6.09 6.09 0 0 1-.3 12.17"/><path fill="#faaa47" d="M1466.06 356.65h-.3l-94.72-4.81a6.1 6.1 0 0 1-5.78-6.39c.16-3.36 3-5.98 6.39-5.77l94.72 4.8a6.09 6.09 0 0 1-.31 12.17M1345 350.52l-.32-.01-135.33-6.87a6.09 6.09 0 1 1 .62-12.16l135.32 6.85a6.1 6.1 0 0 1-.3 12.19m-166.79-8.4h-.32l-60.46-3.07a6.1 6.1 0 0 1-5.8-6.4 6.1 6.1 0 0 1 6.4-5.77l60.49 3.07a6.09 6.09 0 0 1-.3 12.17m-82.67-4.27h-.32l-81.52-4.13a6.08 6.08 0 1 1 .62-12.16l81.51 4.12a6.1 6.1 0 0 1-.3 12.17"/><path fill="#ef588b" d="m1226.2 438.92-.36-.02-45.72-2.7a6.1 6.1 0 0 1-5.7-6.45c.18-3.36 2.98-6 6.43-5.72l45.71 2.72a6.1 6.1 0 0 1-.36 12.17m-64.27-3.74h-.36l-64.74-3.86c-3.36-.2-5.92-3.08-5.72-6.44s3.07-6 6.44-5.72l64.74 3.85a6.09 6.09 0 0 1-.36 12.17m-101.19-5.99-.36-.02-49.76-2.94a6.1 6.1 0 0 1-5.72-6.44 6.04 6.04 0 0 1 6.44-5.72l49.76 2.94a6.09 6.09 0 0 1-.36 12.18"/><path fill="#faaa47" d="M1210.2 604.11h-.45l-48.32-3.58a6.09 6.09 0 1 1 .9-12.15l48.31 3.56a6.1 6.1 0 0 1-.44 12.17m-73.86-5.46-.46-.02-55.8-4.12a6.1 6.1 0 0 1 .9-12.16l55.8 4.14a6.1 6.1 0 0 1-.44 12.16m-88.8-6.54-.47-.02-39.1-2.88a6.1 6.1 0 0 1-5.62-6.54 6 6 0 0 1 6.52-5.62l39.1 2.9a6.1 6.1 0 0 1-.44 12.17"/><path fill="#5581d5" d="m1259.8 568.78-.4-.01-82.04-5.33a6.1 6.1 0 0 1-5.68-6.48 6.16 6.16 0 0 1 6.48-5.68l82.04 5.33a6.1 6.1 0 0 1-.4 12.17m-127.33-8.26-.4-.02-124.04-8.05a6.1 6.1 0 0 1-5.7-6.48 6.2 6.2 0 0 1 6.49-5.7l124.04 8.07a6.1 6.1 0 0 1-.4 12.18"/><path fill="#7d74f9" d="m1323 477.45-.39-.01-56.25-3.47a6.08 6.08 0 1 1 .75-12.16l56.25 3.47a6.1 6.1 0 0 1-.36 12.17m-86-5.33-.37-.02-101.76-6.26a6.09 6.09 0 1 1 .75-12.16l101.75 6.26a6.08 6.08 0 0 1-.37 12.18m-145.2-8.8-.37-.02-79.96-4.92a6.1 6.1 0 0 1 .75-12.16l79.96 4.91a6.1 6.1 0 0 1-.38 12.19"/><path fill="#ef588b" d="m1347.93 544.65-.41-.01-80.55-5.27a6.1 6.1 0 0 1-5.68-6.48 6.2 6.2 0 0 1 6.48-5.68l80.55 5.25a6.1 6.1 0 0 1-.39 12.19m-133.86-8.8-.42-.01-107.35-7a6.1 6.1 0 0 1-5.7-6.48 6.15 6.15 0 0 1 6.48-5.68l107.37 7a6.1 6.1 0 0 1-.39 12.17m-140.26-9.2-.4-.01-62.49-4.08a6.1 6.1 0 0 1-5.7-6.48 6.13 6.13 0 0 1 6.49-5.68l62.5 4.08a6.09 6.09 0 0 1-.4 12.17"/><path d="m1930.98 557.85-.44-.01-919.67-66.39a6.1 6.1 0 0 1 .88-12.16l919.67 66.39a6.09 6.09 0 0 1-.44 12.17"/><path fill="#5581d5" d="M2237.1 451.98h-.27l-84.45-3.78a6.1 6.1 0 0 1-5.82-6.36 6.17 6.17 0 0 1 6.36-5.83l84.45 3.8a6.1 6.1 0 0 1-.26 12.17m-115.07-5.2h-.28l-56.4-2.53a6.09 6.09 0 1 1 .55-12.17l56.4 2.53a6.1 6.1 0 0 1-.27 12.17"/><path fill="#66d6eb" d="M2370.84 427.32h-.27l-78.96-3.48a6.09 6.09 0 1 1 .54-12.17l78.95 3.46a6.1 6.1 0 0 1-.26 12.19m-103.34-4.53-.27-.02-86.68-3.81a6.09 6.09 0 0 1 .53-12.17l86.68 3.8a6.09 6.09 0 0 1-.25 12.2m-118.8-5.2q-.15 0-.27-.02l-79.91-3.5c-3.36-.15-5.96-3-5.82-6.36s3.08-5.9 6.35-5.82l79.92 3.5a6.1 6.1 0 0 1-.27 12.2"/><path fill="#ef588b" d="m2258.57 484.92-.3-.02-70.5-3.42a6.09 6.09 0 1 1 .58-12.18l70.52 3.43a6.1 6.1 0 0 1-.3 12.19m-106.66-5.2h-.3l-97.22-4.74a6.1 6.1 0 0 1 .59-12.17l97.22 4.73a6.08 6.08 0 0 1-.29 12.18"/><path fill="#6bc255" d="M2218.04 581.71h-.33l-61.9-3.38a6.1 6.1 0 1 1 .66-12.17l61.9 3.38a6.1 6.1 0 0 1-.33 12.17m-92.93-5.06q-.18 0-.35-.02l-91.09-4.97a6.09 6.09 0 0 1 .67-12.17l91.1 4.97a6.1 6.1 0 0 1-.33 12.19"/><path fill="#66d6eb" d="M2386.7 559.72h-.3l-101.21-4.95a6.1 6.1 0 0 1-5.79-6.39c.17-3.36 3-5.9 6.39-5.8l101.2 4.96a6.09 6.09 0 0 1-.29 12.18m-128.26-6.27h-.3L2133 547.33a6.1 6.1 0 0 1-5.8-6.39 6.15 6.15 0 0 1 6.39-5.78l125.14 6.12a6.09 6.09 0 0 1-.29 12.17m-165.73-8.13-.3-.02-55.55-2.72a6.09 6.09 0 1 1 .6-12.17l55.54 2.72a6.1 6.1 0 0 1-.29 12.19"/><path fill="#faaa47" d="m2497.23 530.25-.32-.01-94.71-4.8a6.1 6.1 0 0 1 .62-12.18l94.72 4.8a6.1 6.1 0 0 1-.3 12.19m-121.07-6.13-.32-.02-135.33-6.85a6.1 6.1 0 0 1 .61-12.17l135.33 6.86a6.09 6.09 0 0 1-.29 12.18m-166.79-8.4-.32-.02-60.47-3.06a6.08 6.08 0 1 1 .61-12.16l60.48 3.05a6.1 6.1 0 0 1-.3 12.19m-82.8-4.14h-.3l-81.53-4.14a6.1 6.1 0 1 1 .62-12.16l81.51 4.13a6.09 6.09 0 0 1-.3 12.17m74.66 224.88-.44-.02-48.32-3.46a6.09 6.09 0 0 1 .87-12.16l48.32 3.47a6.09 6.09 0 0 1-.43 12.17m-74-5.31-.44-.02-55.8-4a6.1 6.1 0 0 1 .86-12.16l55.81 4.01a6.08 6.08 0 0 1-.43 12.17m-88.79-6.37-.44-.02-39.11-2.8a6.1 6.1 0 0 1-5.64-6.52 6.13 6.13 0 0 1 6.52-5.64l39.1 2.8a6.1 6.1 0 0 1-.43 12.18"/><path fill="#5581d5" d="m2256.04 706.11-.43-.01-82-5.7a6.1 6.1 0 1 1 .83-12.15l82.01 5.69a6.1 6.1 0 0 1-.41 12.17m-127.33-8.8-.43-.01-124-8.63a6.08 6.08 0 1 1 .85-12.16l124 8.63a6.1 6.1 0 0 1-.42 12.17"/><path fill="#7d74f9" d="m2338.44 617.98-.35-.01-56.26-3.06a6.1 6.1 0 0 1 .66-12.17l56.27 3.07a6.09 6.09 0 0 1-.32 12.17m-86-4.67-.33-.01-101.81-5.53a6.1 6.1 0 0 1 .66-12.18l101.81 5.54a6.09 6.09 0 0 1-.33 12.18m-145.2-7.86-.34-.02-79.99-4.34a6.1 6.1 0 0 1 .67-12.18l79.98 4.35a6.09 6.09 0 0 1-.32 12.19"/><path fill="#ef588b" d="m2347.1 681.31-.42-.01-80.52-5.59a6.1 6.1 0 0 1-5.67-6.5 6.17 6.17 0 0 1 6.51-5.66l80.52 5.6a6.1 6.1 0 0 1-.41 12.16m-134.01-9.33-.42-.01-107.34-7.44a6.1 6.1 0 0 1-5.66-6.51 6.13 6.13 0 0 1 6.51-5.65l107.33 7.45a6.1 6.1 0 0 1-.41 12.16m-140.13-9.73-.43-.02-62.48-4.34a6.08 6.08 0 1 1 .84-12.16l62.48 4.34a6.1 6.1 0 0 1-.41 12.17"/><path d="m2545.77 665.98-.4-.01-526.38-34.16a6.09 6.09 0 1 1 .79-12.16l526.37 34.16a6.1 6.1 0 0 1-.38 12.17m-596.39 43.86L960.82 619.3l1.1-12.14 988.57 90.56zm-116.53 646.58c-4.43 0-8-.76-8.53-.88l-367.03-86.79a6.1 6.1 0 1 1 2.81-11.87l366.96 86.78c1.36.3 5.87.96 9.48.26 4.34-.85 8.55-3.78 8.6-3.81l159.59-115.1c2.41-1.74 2.08-4.27 1.92-5s-.91-3.2-3.84-3.76l-395.2-77.54a6.1 6.1 0 1 1 2.34-11.96l395.2 77.54c6.79 1.33 11.92 6.36 13.4 13.12s-1.09 13.46-6.69 17.5l-159.65 115.13c-.7.48-6.5 4.5-13.33 5.84-2.06.39-4.12.54-6.03.54m-428.92-236.15a6.1 6.1 0 0 1-2.83-11.49l26.67-13.96a17.3 17.3 0 0 1 11.21-1.62l19.85 3.89a6.1 6.1 0 0 1-2.34 11.97l-19.84-3.9a5 5 0 0 0-3.23.46l-26.66 13.96q-1.38.71-2.83.7"/><path d="M2023.78 1274.67q-.5 0-1.01-.08l-53.32-8.96a6.1 6.1 0 0 1 2.02-12.03l44.42 7.47-8.63-39.13a6.08 6.08 0 1 1 11.9-2.61l10.57 47.94a6.06 6.06 0 0 1-5.95 7.4m-182.26 48.48q-.66 0-1.34-.16l-299.83-67.52a6.08 6.08 0 1 1 2.68-11.88l299.82 67.52a6.09 6.09 0 0 1-1.33 12.04m36.4-27.48q-.67 0-1.35-.15l-191.18-43.29a6.1 6.1 0 0 1 2.68-11.9l191.2 43.3a6.1 6.1 0 0 1 4.6 7.3 6.1 6.1 0 0 1-5.95 4.74m39.2-27.63q-.64 0-1.28-.13l-225.17-48.45a6.1 6.1 0 1 1 2.56-11.9L1918.4 1256a6.09 6.09 0 0 1-1.28 12.04m40.53-26.2q-.62 0-1.26-.12l-262.63-54.63c-3.28-.7-5.4-3.92-4.72-7.22s3.88-5.4 7.21-4.72l262.62 54.63a6.1 6.1 0 0 1-1.23 12.07"/><path d="M1786.19 1322.48a6.09 6.09 0 0 1-3.26-11.24l153.7-97.02a6.09 6.09 0 1 1 6.5 10.3l-153.7 97.03a6 6 0 0 1-3.24.93m-61.2-14a6.1 6.1 0 0 1-3.27-11.25l153.69-97.02a6.09 6.09 0 1 1 6.5 10.3l-153.68 97.03c-1 .64-2.14.94-3.24.94m-65.2-14.42a6.1 6.1 0 0 1-3.27-11.26l153.7-97.02a6.1 6.1 0 0 1 6.52 10.3l-153.71 97.03c-1 .64-2.13.95-3.24.95m32.4-75.56a6.11 6.11 0 0 1-3.24-11.27l53.8-33.54a6.1 6.1 0 0 1 6.45 10.33l-53.8 33.55c-1 .62-2.12.93-3.21.93m-96.55 61.38a6.09 6.09 0 0 1-3.33-11.18l40.77-26.52a6.1 6.1 0 0 1 6.64 10.21l-40.77 26.5a6 6 0 0 1-3.3 1m49.07-87.49a6.1 6.1 0 0 1-3.18-11.29l34.92-21.46a6.09 6.09 0 0 1 6.38 10.38l-34.93 21.47c-.99.61-2.1.9-3.19.9m-102.93 62.92a6.11 6.11 0 0 1-3.18-11.29l62.17-38.08a6.08 6.08 0 1 1 6.36 10.39l-62.16 38.08c-1 .61-2.1.9-3.19.9m-64.93-259.76c-1.68 0-2.76-.04-2.9-.04q-.33 0-.63-.06l-225.68-29.8c-3.7-.49-10.77-4.2-11.1-14.75-.3-9.31 5.92-15.43 9.64-17.58l126.37-64.6q.3-.16.64-.27c1.22-.48 4.13-2.1 5.08-3.95.96-1.89.88-5.72.52-7.83l-11.87-56.46a6.09 6.09 0 1 1 11.92-2.5l11.9 56.64c.2 1.09 1.6 9.4-1.62 15.68-3.04 5.98-9.5 8.96-11.28 9.68L1252 944.03c-.04.04-3.41 2.27-3.28 6.5.07 2.05.63 3 .99 3.14l224.86 29.67c1.83.06 11.4.15 17.87-1.06 5.45-1.02 14.26-6.19 16.92-7.92l89.55-62.76c1.44-1 5.8-4.54 7.28-7.86 1.34-2.99.8-7.1.47-8.41l-13.56-71.67a6.09 6.09 0 1 1 11.97-2.26l13.5 71.32c.13.5 2.06 8.58-1.24 15.99-3.15 7.05-10.62 12.32-11.46 12.9l-89.69 62.84c-1.42.93-12.7 8.17-21.52 9.81-5.97 1.12-13.69 1.3-17.81 1.3"/><path d="M1479.53 976.54a97 97 0 0 1-6.32-.2l-227-27.62a6.1 6.1 0 0 1-5.32-6.78 6.03 6.03 0 0 1 6.79-5.3l226.67 27.57c2.95.2 9.24.3 12.19-.33 2.67-.57 9.32-4.07 13.19-6.36l81.6-57.97c.75-.58 2.87-2.62 3.55-4.36.68-1.77.36-4.47.2-5.28l-12.8-68.25a6.1 6.1 0 0 1 12-2.25l12.74 68.1c.1.46 1.37 6.54-.78 12.07-2.1 5.44-7.12 9.36-7.68 9.8l-82.2 58.34c-2.25 1.36-11.71 6.9-17.29 8.08-2.76.58-6.41.74-9.54.74"/><path d="M1610.59 903.2q-.38 0-.73-.04l-195.81-23.57a6.1 6.1 0 0 1-5.33-6.78 6.15 6.15 0 0 1 6.78-5.33l195.81 23.57a6.1 6.1 0 0 1-.72 12.15m420.52-519.35a6.1 6.1 0 0 1-6.09-6.08l-.59-258.38q0-.3.03-.61c.01-.25.5-8.23-7.33-13.53-8.16-5.55-25.82-9.11-31.94-10.02a6.1 6.1 0 0 1-5.13-6.92 6.06 6.06 0 0 1 6.92-5.14c1.01.16 24.88 3.76 37 12a28.2 28.2 0 0 1 12.64 24.4l.59 258.18a6.07 6.07 0 0 1-6.08 6.1zm380.53 1262.85q-.59 0-1.19-.12l-1365.17-268.53a6.1 6.1 0 0 1 2.36-11.95l1365.17 268.52a6.09 6.09 0 0 1-1.17 12.08M244.08 1220a7 7 0 0 1-1.19-.11l-226.75-44.71c-.42-.03-8.28-1.12-12.52-7.3-3.76-5.46-3.67-13.63-3.61-15.22l.06-44.92c.04-1.3.58-11.08 6.62-18.05 5.84-6.75 15.94-9.73 17.07-10.05l169.66-37.27a6.1 6.1 0 0 1 2.62 11.9l-169.32 37.18c-1.76.52-7.89 2.84-10.82 6.23-2.74 3.17-3.57 8.53-3.65 10.33l-.06 44.86c-.07 2.52.4 6.55 1.47 8.11.9 1.3 3.41 2.04 4.43 2.17l227.17 44.78a6.09 6.09 0 0 1-1.18 12.06m584.74-303.15a6.1 6.1 0 0 1-1.25-12.06l395.26-83.5c.36-.07 8.18-1.66 15.57-2.04 7.48-.4 14.27.47 14.56.5l127.96 14.13a6.1 6.1 0 0 1-1.34 12.12l-128.07-14.15c-.18-.02-6.11-.76-12.47-.44a109 109 0 0 0-13.73 1.81l-395.22 83.5q-.64.13-1.26.13m986.42-25.28q-.32 0-.64-.03l-203.8-21.27a6.1 6.1 0 0 1-5.42-6.69 6 6 0 0 1 6.7-5.43l203.79 21.27a6.09 6.09 0 0 1-.63 12.15m923.18 99.26q-.32.01-.65-.04l-248.3-26.54a6.1 6.1 0 0 1 1.31-12.12l248.28 26.54a6.1 6.1 0 0 1-.64 12.16m-244.26 586.35q-.57 0-1.14-.1l-1237.16-233.65a6.1 6.1 0 0 1 2.25-11.98l1237.17 233.65a6.08 6.08 0 0 1-1.12 12.08"/><path d="M222.96 1148.71q-.57 0-1.14-.1L7.46 1108.2a6.1 6.1 0 1 1 2.25-11.97l214.37 40.4a6.08 6.08 0 0 1-1.12 12.07m1817.49-791.65h.06zm-90.87 387.26c-.25 2.42-.03 5.87.7 6.9.53.75 2.89 1.44 4.49 1.52l622.94 59.47c1.95.25 5.2.13 6.68-.8 1.46-.92 2.9-3.74 3.4-5.36l112.37-407.47c.06-.21.87-3.46-1.32-7.38-1.81-3.27-4.37-3.7-4.66-3.74l-642.81-26.81c-1.74-.13-5.55.07-7.36 1.36l-.02.01c-1.81 1.28-3.2 4.8-3.58 6.3zm630.07 80.2c-1.76 0-3.04-.17-3.36-.21l-622.34-59.42c-.58 0-9.26-.46-13.63-6.65-3.92-5.58-3-14.15-2.8-15.8l.13-.63 90.93-376.43c.24-.95 2.39-9.04 8.33-13.28 5.92-4.24 14.27-3.7 15.22-3.61l642.89 26.8c1.06.09 9.42.88 14.48 9.98 4.73 8.5 2.6 15.94 2.34 16.75L2599.5 809.46c-.3 1-2.72 8.53-8.6 12.24-3.68 2.34-8.2 2.8-11.24 2.8"/><path d="M2346.57 1118.42c-7.62 0-14.86-.99-16.06-1.16l-81.9-10.53a6.1 6.1 0 0 1-5.28-6.83 6.1 6.1 0 0 1 6.83-5.25l81.99 10.53c4.5.64 17.37 1.9 23.6.19 6.91-1.92 11.82-7.2 11.89-7.25l214.89-263.5c.68-1.3 3.54-7.47 1.18-15.76a6.1 6.1 0 1 1 11.74-3.33c4.12 14.54-2.43 25.3-2.71 25.76q-.2.33-.44.63l-215.44 264.14c-.49.56-7.44 8.16-17.88 11.05-3.56.98-8.04 1.31-12.4 1.31m-194.14-24.09q-.38 0-.78-.05l-309.96-39.83a6.1 6.1 0 0 1-5.26-6.84 6.1 6.1 0 0 1 6.82-5.25l309.96 39.82a6.1 6.1 0 0 1-.77 12.15m-407.06-52.32q-.39-.01-.79-.05l-49.85-6.4c-.62-.06-8.1-.96-11.86-9.06a13.6 13.6 0 0 1 2.95-15.73l245-249.9c.34-.41 6.12-6.99 14.78-8.96a6.08 6.08 0 1 1 2.7 11.89c-4.8 1.09-8.46 5.26-8.5 5.3l-245.58 250.48c-.76.8-.48 1.4-.3 1.77.8 1.7 2 2.05 2.37 2.1l49.84 6.4a6.1 6.1 0 0 1-.76 12.15"/><path d="M2341.77 1098.68c-1.98 0-3.41-.2-3.73-.23l-101.01-12.61a6.1 6.1 0 1 1 1.5-12.1l101.1 12.63c1.24.16 4.93.32 7.5-.75 2.6-1.06 5.15-3.81 5.9-4.78l218.82-265.65a6.1 6.1 0 0 1 9.4 7.75l-218.7 265.51c-.37.47-4.7 5.93-10.77 8.44a27 27 0 0 1-10 1.79m-181.2-22.44q-.39 0-.76-.04l-322.62-40.28a6.1 6.1 0 0 1 1.5-12.1l322.62 40.28a6.08 6.08 0 0 1-.74 12.14m-409.99-51.19q-.37 0-.76-.04l-55-6.87a6.1 6.1 0 0 1 1.5-12.09l55.02 6.87a6.08 6.08 0 0 1-.76 12.13m825.18-219.35a6.1 6.1 0 0 1-5.88-7.73L2685 383.5a6.1 6.1 0 0 1 11.75 3.25l-115.12 414.47a6.1 6.1 0 0 1-5.86 4.47m-603.99-71.13 581.53 52.8 103.37-378.8-599.66-25.4zM2557.86 800q-.28 0-.56-.03l-593.67-53.9a6.12 6.12 0 0 1-5.36-7.5l88.08-363.13a6.2 6.2 0 0 1 6.18-4.65l612.3 25.93a6.1 6.1 0 0 1 5.63 7.7l-106.73 391.1a6.1 6.1 0 0 1-5.87 4.48"/><path d="m1831.25 907.44 571.44 65.15 105.46-121.8-567.71-55.3zm573.95 77.67q-.34 0-.7-.04l-586.97-66.93a6.07 6.07 0 0 1-3.68-10.3l119.9-122.95c1.3-1.32 3.13-2 4.97-1.81l582.34 56.71a6.1 6.1 0 0 1 4.01 10.06L2409.8 983a6 6 0 0 1-4.6 2.1m-437.69 30.15 187.77 23.52 49.43-53.52-182.82-22.96zm190.12 36.05q-.37 0-.76-.04l-203.44-25.49a6.1 6.1 0 0 1-3.49-10.41l65.55-63.85a6 6 0 0 1 5.01-1.68l197.49 24.8a6.1 6.1 0 0 1 3.7 10.19l-59.58 64.52a6 6 0 0 1-4.48 1.96m1.08 49.56 85.66 11.64c-.85-12.5-7.16-39.25-44.66-43.81-15.05-1.83-26.1.76-32.85 7.68-7.16 7.37-8.19 18.39-8.15 24.5m91.74 24.7q-.4.01-.8-.05l-97.54-13.24a6.1 6.1 0 0 1-5.2-5.14c-.15-.98-3.43-24.21 11.21-39.25 9.54-9.8 24.03-13.6 43.04-11.28 60.21 7.3 55.41 62.91 55.36 63.47a6.1 6.1 0 0 1-6.07 5.5m-498.26-79.92 85.69 11.64c-.87-12.5-7.18-39.26-44.68-43.82-15-1.83-26.05.74-32.8 7.64-7.24 7.4-8.27 18.42-8.21 24.54m91.77 24.7q-.41 0-.83-.04l-97.52-13.26a6.1 6.1 0 0 1-5.21-5.13c-.15-.99-3.41-24.23 11.23-39.27 9.53-9.8 24.05-13.57 43.04-11.29 60.2 7.32 55.4 62.95 55.35 63.5a6.2 6.2 0 0 1-2.29 4.2 6 6 0 0 1-3.77 1.3"/><path d="M1845.52 1070.42a6.1 6.1 0 0 1-1.86-11.9l32.2-10.27a6.09 6.09 0 0 1 3.71 11.61l-32.2 10.28q-.93.29-1.85.28m405.98 55.09a6.08 6.08 0 0 1-2.66-11.57l28.95-13.99a6.1 6.1 0 0 1 5.29 10.98l-28.93 13.98q-1.3.62-2.64.6m174.66-83.67a6.1 6.1 0 0 1-2.65-11.58l75.9-36.66c.85-.38 1.43-.84 1.55-1.08-.1.06-.64-.15-1.03-.22l-30.6-3.02a6.1 6.1 0 0 1-5.46-6.67 6.2 6.2 0 0 1 6.66-5.47l30.93 3.26c5.49.32 11.27 4.44 11.67 11.3.43 7.48-6.04 10.56-9.55 11.9l-74.78 37.64c-.85.41-1.76.6-2.64.6M113.3 1663.6a6.1 6.1 0 0 1-6.08-6.1v-466.84a6.1 6.1 0 0 1 12.18 0v466.84a6.1 6.1 0 0 1-6.1 6.1m145.95 51.33a6.1 6.1 0 0 1-6.1-6.1v-442.25a6.09 6.09 0 1 1 12.2 0v442.25a6.1 6.1 0 0 1-6.1 6.1m283.21 60.27a6.1 6.1 0 0 1-6.01-5.13c-52.72-331.22-155.8-724.06-212.21-907.3-4.08-13.24-66.1-37.42-112.48-43.86a6.1 6.1 0 0 1 1.67-12.07c37.7 5.23 115.1 28.45 122.45 52.34 56.53 183.57 159.8 577.13 212.61 908.96a6.1 6.1 0 0 1-6.03 7.06m743.87-179.2a6.1 6.1 0 0 1-6.1-6.1v-170.03a6.1 6.1 0 1 1 12.2 0v170.03a6.1 6.1 0 0 1-6.1 6.1m146 44.53a6.1 6.1 0 0 1-6.1-6.1V1455a6.08 6.08 0 1 1 12.18 0v179.43a6.1 6.1 0 0 1-6.08 6.1"/><path fill="#9f5800" fill-opacity=".5" d="M1237.88 830.43c-59.78 10.4-118.17 24.26-177.64 36.31-76.53 16.57-155.27 32.6-230.25 49.57 12.45 36.13 25.52 77.15 40.2 112.46 16.2 29.63 38.2 54.42 56.98 82.39 34.78 7.55 71.2 9.15 106.67 11.62 46.35 2.25 92.13-3.4 138.08-8.58 9.52-.26 5.65 16.73 15.9 14.5 46.58-3.91 92.53-25.38 137.92-35.17 22.95-5.83 51-7.96 69.86 8.11 12.03 10.38 14.4 3.63 22.14-1.56 15.85-7.43 24.6-6.89 37.27-2.63 8.74 2.75 10.23-2.75 22.56-13 19.79-13.26 37.82-30.25 60.3-38.85 21.5-4.33 35.55 16.91 44.27 33.67 5.33 8.68 8.06 20.01 12.97 28.66 6.6 5.97 13.43 12.15 17.43 20.28 132.23 26.22 265.34 49.95 397.34 77.3 12.17 7.45 9.81 24.37 13.87 36.49 1.07 10.08 6.11 20.18 4.94 30.95-8.56 3.01-18.57-1.37-27.53-1.87-10.76-1.08-21.18-6.11-31.52-5.42-42.4 28.2-82.34 61-124.63 88.55-14.06 5.95-28.68-2.83-42.8-4.44-114.25-25.98-229.03-53.87-343.08-80.7-13.84 6.9-80.02 16.43-91.92 19.56-.42 1.47 1.05 30.57-13.4 34.15-19.74 3.54-46.93 10.1-65.65 13.95.66 1.11 43.6 8.75 49.8 9.83 389.94 73.16 758.37 142.62 1148.1 217.17 4.55-.91 11.75 5.3 14.74 1.45 79.87-191.17 160.05-382.95 239.22-574.41-161.31-17.4-163.27-17.74-247.68-26.18-.25.65-6.66 7.38-11.18 13.72 22.22 2.78 25.52 1.05 30.5 8.3 1.73 3.55 1.8 6.85.98 9.27-1.42 4.14-5.29 5.98-11.92 9.18-23.83 12.11-46.77 22.57-70.6 35.43-20.06 23.52-40.28 51.15-60.98 72.2-7.46 3.55-13.95 5.64-21.4 5.68-10.76.05-22.42-2.5-35.5-3.55-10.67-1.17-19.73-3.82-29.4-3.72-12.74 6.05-14.16 7.04-31.69 14.31-37.08-5.95-62.78-7.84-101.88-14.54-4.13-4.96-1.62-10.8-2.3-17.28-88.1-11.02-177.65-23.9-265.8-34.07-12.83 2.45-25.52 7.82-37.92 10.96-33.51-4.93-67.42-8-100.55-14.98-4.2-4.95 1.62-17.18-6.18-14.88-15.1-3.05-33.36-1.85-47.66-7.75-8.21-5.65-8.33-17.9-.15-23.77 38.5-39.7 77.39-79.41 115.85-118.7-62.57-7.64-111.38-12.67-190.46-20.28 2.23 17.07 11.35 32.77-3.04 46.96-35.34 25.52-69.63 49.8-105.82 73.55-19.97 9-42 2.38-63.57.46-64-9-128.13-16-191.99-25.5-15.13-1.38-17.3-24.68-3.76-30.42 42.15-26.07 89.68-43.28 132-69.02 5.08-4.66.26-10.91-.26-21.58-46.1-3.57-93.44-10.5-139.73-14.13zm-1118.07 597.2c-.1 77.87-.44 155.88-.65 233.65 15.24 7.5 31.85 12.09 47.72 18.18 28.28 9.88 56.7 20.45 84.97 29.68 1.37-41.36.63-82.78.92-124.16.07-106.78.03-213.57.04-320.35-4.19-14.82-7.67-29.98-12.5-44.54-39.87-8.76-80.04-16.14-120.06-24.18zm72.31-371.3c-53.18 10.12-105.97 22.3-158.76 34.26-4.5 1.94-12.26 1.71-14.6 6.21 65.5 13.92 131.74 25.56 197.65 37.91-7.08-26.29-14.64-52.69-23.19-78.46h-.24zm-178.77 78.3c.58 8.72-1.58 18.48 1.54 26.62 73.34 16.43 147.6 29.61 221.1 44.72a601 601 0 0 0-15.87-56.98c-68.7-13.67-137.6-26.23-206.4-39.31q-.2 12.47-.36 24.95zm1243.23 208.9c-52.16 9.47-120.4 21.6-172.83 29.58 10.64 3.22 37.06 7.85 45.24 8.86 426.34 85.44 823.29 160.82 1249.6 246.52 12.79 3.22 26.58 4.35 38.76 9 4.18 3.38 8.21-5.57 12.16-6.81 21.07-17.48 43.18-34.84 63.02-53.1-146-28.31-292.29-55.31-438.4-83.12-265.99-50.11-518.3-99.62-784.44-148.97zm36.4 83.6c-1.12 49.13-.76 98.3-.45 147.44.45 3.28-.54 7.33 1.24 10.17 42.89 11.77 85.69 24.17 127.43 39.55 3.63 2.74 5.47.7 4.65-3.36.84-55.27.67-110.58-.04-165.86.32-4.78-7.68-2.27-10.67-4.17-40.73-7.84-81.43-16.09-122.17-23.77z"/><path fill="#7fcfc5" d="M157.55 779.53c-11.53 1.29-25.44-1.3-35 6.53.9 12.31 7.44 23.93 10.6 35.91 81.35 244.22 149.85 492.66 207.56 743.5 12.42 56.65 25.85 113.17 35.4 170.4.08 5.03 8.49 3.65 11.83 5.53a5680 5680 0 0 0 148.42 29.67c-34.57-213.79-82.66-425.18-136.18-634.95-23.42-89.93-47.37-179.8-75.04-268.52-4-15.34-21.5-19.6-33.98-25.95-26.37-11.58-54.64-17.49-82.52-24-5.9-4.05 1.17-13.26 7.3-10.55 36.2 6.48 72.7 16.36 104.42 35.5 9.9 5.32 16.28 14.82 18.4 25.76 46.46 153.7 86.37 309.33 123.06 465.62 32.39 140.45 62.35 281.58 85.02 423.96 3.1 4.97-2.59 16.32 4.68 16.28 8.92.73 18.48 3.8 27.11 3.26-42.4-222.58-88.05-444.95-144.02-664.66-23.76-93.04-50.1-185.44-80.23-276.63-18.89-20.15-46.17-29.35-71.8-37.58-40.58-11.5-82.77-19.1-125.03-19.08"/></svg>