<svg xmlns="http://www.w3.org/2000/svg" id="svg1" viewBox="0 0 132.93 149.61"><g id="g1" transform="translate(341.38 58.329)"><g id="group-R5"><path id="path2626" d="M-223.03-13.53a2 2 0 0 0-.43-.26l-.28-.08-.16-.1q-.56-.41-1.16-.74c-.7-.75-1.54-1.44-2.34-2.12q-.26-.23-.51-.48c.25-2.36-1.23-4.79-2.55-6.66-2.05-2.9-4.07-6.15-6.52-8.74-.3-.7-.89-1.02-1.54-1.07-1.18-1.64-3.2-2.99-4.72-3.85a24 24 0 0 0-9.39-3.05c-2.7-1.67-6.66-.98-9.6-.7-1.77.15-4.1.28-6.24.73-2.45-.49-5.24-.3-7.33-.19-1.9.1-4.82.1-7.24.7q-1.22.08-2.52 0c-3.77-.28-6.57 1.08-9.47 3.39-2.38 1.9-6.87 5.15-8.73 8.55-4.36 2.71-8.1 6.24-12.25 9.23-2.84 2.04-6 4.37-5.04 8.2.4 1.6 1.5 3.07 2.22 4.54 1.34 2.74 2.41 5.6 3.9 8.26 1.45 2.56 3.07 5 4.65 7.5 1.39 2.18 2.49 4.54 3.78 6.78.11 3.47 3.76 8.1 5.25 10.5 1.6 2.57 3.15 5.14 4.59 7.81 1.7 3.14 3.53 8.8 7.2 10.06l.15.28q.2.45.3.95c.11.41.39.66.72.79 4.03 6.64 9.2 12.45 13.88 18.66.3.4.73.67 1.19.82l.04.18c0 2.02 2.67 3.48 4.1 1.53.54-.73.75-1.63.83-2.56 1.58-3.57 2.83-7.28 4.18-10.95q.35-.96.84-1.97c2.92-.37 4.4-3.92 5.47-6.3q.75-1.66 1.6-3.27a2.7 2.7 0 0 0 1.4-1.37q.68-1.4 1.3-2.8a124 124 0 0 1 7.6-12.87c2.23-3.42 5.83-7.9 6.7-12.16 2.58-2.76 4.22-6.35 6.4-9.42 2.73-3.88 6.5-6.89 8.77-11.09.43-.8.4-1.51.09-2.1q.37-.29.58-.7c.5-.2.94-.6 1.17-1.12.4-.94-.04-2.19-.88-2.74" style="fill:#ae2a7c;fill-opacity:1;fill-rule:nonzero;stroke:none;stroke-width:0.133333"/><path id="path2627" d="M-225.07-7.6c-.12-.65-.9-.99-1.37-.43a16 16 0 0 1-4.08 3.12 2 2 0 0 0-.43-.17c-2.34-.56-5.41 2.08-7.07 3.48-.91.77-2.3 2.15-3.01 3.6q-.46.36-.77.92a52 52 0 0 0-4.14 10.3q-.8 1.44-1.53 2.92-.43.96-.2 1.81l-1.8 3.5c-2.23 4.33-4.48 8.73-5.95 13.37-1.47 4.66-4.4 9.1-5.06 13.98a.94.94 0 0 0 1.64.76c2.7-3 3.96-7.44 5.6-11.08 1.03-2.27 2.4-4.37 3.52-6.6 1.15-2.32 3.01-4.03 4.24-6.24a99 99 0 0 0 3.25-6.2q.28-.32.44-.77l.15-.5c3.16-5.35 5.9-10.99 9.72-15.92 2.3-2.96 7.61-5.55 6.85-9.85" style="fill:#81296b;fill-opacity:1;fill-rule:nonzero;stroke:none;stroke-width:0.133333"/><path id="path2628" d="M-291.48-22.24c-.92-.52-1.9-.66-2.72-1.39a2 2 0 0 0-.98-.49c-.49-.77-.96-1.56-1.56-2.22-.97-1.08-2.33-4.07-4.15-3.36l-.07.02q-.36.16-.63.42c-1.1.25-2.05 1.01-3.13 1.84-2.21 1.7-4.32 3.57-6.45 5.38-3.42 2.9-8.26 5.16-10.17 9.44-.82 1.83 1.05 3.33 2.75 2.85q.72-.2 1.46-.48c.48.7 1.25 1.3 1.8 1.7q.7.48 1.55.9c1.28.9 2.7 1.69 3.69 2.42 1.49 1.1 2.9 2.29 4.35 3.45l1.26 1.07a3 3 0 0 0 2.3 1.3l.16.06q.34.07.66-.08a2.4 2.4 0 0 0 2.03-2.32c.22-3.02 3.24-6.47 4.7-8.99.39-.66 2.54-3.67 3.5-6.11a2.7 2.7 0 0 0 .86-1.88c.56-1.13.36-2.65-1.21-3.53" style="fill:#81296b;fill-opacity:1;fill-rule:nonzero;stroke:none;stroke-width:0.133333"/><path id="path2629" d="m-241.96-2.34-.25-.27.35.05c-2.4-3.91-5.1-7.63-7.24-11.71-1-1.9-1.55-5.6-3.73-6.5a2.6 2.6 0 0 0-2.52.42c-1.56-.37-3.52.1-5 .11h-1.78c-3.08-.03-6.19-.14-9.24.18q-2.59.29-5.14.62l-4.56-.7a15 15 0 0 0-3-.1 2.1 2.1 0 0 0-2.66-1.18c-1.15.42-2.53 1.35-3.01 2.52a2.6 2.6 0 0 0-.08 1.75c-1.8 1.32-3.2 3.95-4.14 5.43q-1.6 2.57-3.13 5.18c-.67 1.12-1.84 2.39-2.25 3.63-.24.72-.05 1.58.4 2.2l-.49.14c-1.75.56-.45 3.2.98 2.45l.52-.11q.27.08.6.05 2.4-.28 4.81-.26c1.99.17 3.96.49 6.07.6 1.2.05 2.44-.12 3.66-.43 3.6-.1 7.09-.62 10.7-1.1l3.2-.37.3.1c6.03 1.14 14.06 1.24 19.82-1.28q.37-.06.76-.1 1.27 1.08 2.73 1.94c2.08 1.24 5.2-1.06 3.32-3.26" style="fill:#de86b3;fill-opacity:1;fill-rule:nonzero;stroke:none;stroke-width:0.133333"/><path id="path2630" d="M-276.24 60.61c-.52-2.62-2-5.21-3.26-7.57-1.63-3.06-3.32-6.15-4.8-9.28-1.95-4.1-3.93-7.97-6.47-11.54-.02-2.2-.91-4.23-1.65-6.37-1-2.89-2.13-5.72-3.24-8.57-.8-2.02-1.67-5.24-3.08-7.75-.5-2.34-1.1-4.78-2.3-6.43a1 1 0 0 0-.8-.44c.13-.5.07-1.04-.28-1.52-2.14-3-6.16-4.48-9.33-6.11a97 97 0 0 0-6.59-3.18c-.5-.21-1.22.17-1.12.78.17 1 .97 1.83 1.93 2.52-.3.48-.39 1.08-.08 1.7 2.98 6 6.25 11.88 9.56 17.7 1.19 2.08 2.6 4 3.89 6.02.17 3.33 2.6 6.37 4.37 9.09 1.56 2.4 3.18 4.74 4.68 7.18 1.8 2.9 3.33 6.12 5.49 8.77l.05.12a39 39 0 0 0 5.25 8.5c.84 1.03 1.56 2.18 2.5 3.12 1.34 1.35 2.08 3.07 3.67 4.1.62.41 1.8.1 1.61-.84" style="fill:#de86b3;fill-opacity:1;fill-rule:nonzero;stroke:none;stroke-width:0.133333"/><path id="path2631" d="M-250-34.2a4.7 4.7 0 0 0-1.56-3.72c-1.58-1.4-4.58-2.14-6.6-1.48-1.13.37-1.6 1.93-.85 2.85.54.67 1.2 1.05 1.96 1.42.26.13.56.21.83.33l.68.32q-.1.38-.29.85c-3.49.52-7 1.28-10.46 1.84-2.16.35-7.37.89-7.08 4.09.29 3.22 5.88 2.29 7.9 2.18 4.81-.27 9.14-1.47 13.75-2.71 1.27-.34 1.77-1.41 1.78-2.53v.03c.14-1.2.17-2.35-.06-3.47" style="fill:#de86b3;fill-opacity:1;fill-rule:nonzero;stroke:none;stroke-width:0.133333"/><path id="path2632" d="M-276.83-12.61a4 4 0 0 0-2.7-2.43c-1.33-1.85-4.04-.86-5.52.28a7.8 7.8 0 0 0-3.2 6.1 4.8 4.8 0 0 0 4.39 4.64c2.3.1 4.21-1.15 5.67-2.83 1.35-1.55 2.09-3.77 1.36-5.76" style="fill:#ffffff;fill-opacity:1;fill-rule:nonzero;stroke:none;stroke-width:0.133333"/><path id="path2633" d="M-269.46-13.25c-.62-.5-1.5-.5-2.13-.04-.3.2-.56.5-.67.85-.25.76-.15 1.55.51 2.08.62.5 1.49.5 2.13.04.3-.2.56-.49.68-.84.24-.76.15-1.56-.52-2.09" style="fill:#ffffff;fill-opacity:1;fill-rule:nonzero;stroke:none;stroke-width:0.133333"/><path id="path2634" d="M-240.18-.65c-.45-2.55-3.4-6.96-4.28-8.63q-2.11-3.97-4.36-7.85c-.55-.94-1.18-2.38-2-3.38a1 1 0 0 0 .56-.25c4.31-3.63 8.66-7.22 12.85-11 3.16 4.44 5.39 9.46 8.69 13.79q1.94 2.51 3.97 4.96l1.37 1.7c-5.61 3.6-11.99 5.92-16.8 10.66m4.32 8.17c-4.27 6.8-8.87 13.38-12.92 20.3-3.98 6.8-7.45 13.86-11.1 20.82l-.8 1.48c2.18-4.5 4.33-9 6.24-13.62 2.48-6 4.79-12.06 7.43-18 2.43-5.44 3.83-11.62 7.36-16.5l.03-.04q.23-.18.33-.54l.02-.06.05-.25.07-.05c3.9-3.45 8.55-5.66 13.05-8.13a223 223 0 0 0-9.76 14.59m-35.5 60.76c-2.71-4.76-4.4-9.79-6.4-14.94-2.3-5.87-5.5-11.37-8.16-17.07-5.18-11.07-10.12-22.29-13.84-33.94 7.82 2.13 16.6.09 24.46-.39 5.71-.35 11.49-.2 17.2-.33 5.18-.11 10.99-.64 16.2.24-2.63 3.9-4.03 8.42-5.77 12.77-2.5 6.25-5.33 12.39-7.86 18.63a284 284 0 0 1-8.36 18.3c-2.67 5.45-4.7 11.35-7.47 16.73m-11.8-15.23c-4.71-6.38-8.94-13.16-13.14-19.89a324 324 0 0 1-22.27-41.58c5.32 3.4 10.73 6.66 16.34 9.58l.03.13-.02.69c-.02.32.18.6.44.75 2.6 11.96 8.6 23.41 13.59 34.47 2.75 6.1 6.1 11.9 8.53 18.14q.81 2.11 1.58 4.22-2.62-3.17-5.07-6.51m-37.24-65.29c1.75-3.32 5.85-5.88 8.53-8.2q2.96-2.58 6-5.06c1.39-1.12 3.67-2.43 5.03-4a39 39 0 0 0 10.24 8.96l-.05.16c-.68 3.69-3.27 6.86-5.2 9.98-1.97 3.21-3.32 6.75-5.13 10.06a353 353 0 0 1-19.41-11.9zm67.98-6.85c1.6 3.2 3.57 6.26 5.22 9.42q1.79 3.4 3.5 6.84.54 1.05 1.02 2.12c-3.87-.47-8-.2-11.79-.16-6.07.06-12.14.42-18.21.47-8.92.06-17.82 2.38-26.69.93 2.78-3.43 4.24-8.03 6.59-11.75 1.49-2.35 3.7-5.2 4.1-8.1 7.31-.66 14.77.38 22.07.77 4.45.24 9.87.94 14.19-.54m-37.26-20.47c7.1-.82 14.2-.56 21.32-.77 5.45-.17 10.78-.96 16.18.2q.43.06.7-.11c2.27 1.28 4.63 2.4 6.96 3.55q2.1 1.02 4.08 2.24c.55.34 1.02.72 1.52 1.03a235 235 0 0 1-8.73 7.68l-1.96 1.37c-1.15.81-2.65 1.74-3.47 3-4.33 1.6-10.01.68-14.52.44-7.17-.38-14.37-1.2-21.52-.27.1-.35.01-.74-.36-.95-4.12-2.41-7.3-5.89-10.4-9.44l-.08-.19c3.35-2.7 6.84-5.2 10.28-7.78m68.5 27.1c-1.1-2.15-3.8-4.68-5.2-6.46-3.77-4.78-6.03-10.5-9.95-15.21a1.3 1.3 0 0 0-.62-.4c-1.01-1.68-3.55-2.64-5.18-3.47-2.99-1.52-6.12-2.72-9.07-4.33q-.49-.23-.82-.02c-4.24-1.89-10.52-.58-14.9-.31-7.32.45-14.58.16-21.86 1.06-.34-.44-.95-.66-1.51-.24-3.89 2.97-8 5.7-11.43 9.21l-.19.3c-.24.2-.4.5-.35.83-2.12 1.18-4.17 3.55-5.84 4.91q-3.32 2.78-6.56 5.65c-2.08 1.82-8.7 6.32-7.97 9.69.07.35.38.62.7.73 6.12 14.5 13.64 28.35 21.84 41.78a422 422 0 0 0 13.02 20.16c2.3 3.32 4.8 6.49 7.28 9.66 1.4 1.81 3.02 3.37 4.42 5.11.9 1.9 1.95 3.72 3.24 5.44a1.2 1.2 0 0 0 2.07-.28l.22-.57q.18-.15.3-.4c3.11-6.95 7.45-13.22 11.2-19.83 4.18-7.37 7.73-15.08 12.02-22.4 3.83-6.57 8.24-12.8 12.28-19.24 4.23-6.75 8.53-13.46 13.67-19.57.64-.77-.02-1.7-.82-1.8" style="fill:#422000;fill-opacity:1;fill-rule:nonzero;stroke:none;stroke-width:0.133333"/><path id="path2635" d="M-288.26 19.6v.07z" style="fill:#422000;fill-opacity:1;fill-rule:nonzero;stroke:none;stroke-width:0.133333"/><path id="path2636" d="M-286.9 23.7v.07z" style="fill:#422000;fill-opacity:1;fill-rule:nonzero;stroke:none;stroke-width:0.133333"/><path id="path2637" d="M-286.38 14.73c-.54-.03-1.04-.25-1.58-.29-.6-.04-.64.83-.04.83.54 0 1.06.17 1.6.16.39 0 .42-.67.02-.7" style="fill:#422000;fill-opacity:1;fill-rule:nonzero;stroke:none;stroke-width:0.133333"/><path id="path2638" d="M-283.95 18.02c-.37-.37-1-.38-1.5-.45a14 14 0 0 0-1.74-.17c-.82-.03-.7 1.28.13 1.28.54 0 1.09.07 1.63.1.47.03 1.08.1 1.46-.24.17-.15.19-.36.02-.52" style="fill:#422000;fill-opacity:1;fill-rule:nonzero;stroke:none;stroke-width:0.133333"/><path id="path2639" d="M-282.2 21.85a10 10 0 0 0-2.79-.66c-.74-.06-.77 1.03-.04 1 .9-.03 1.76.16 2.64.27.34.04.54-.47.19-.6" style="fill:#422000;fill-opacity:1;fill-rule:nonzero;stroke:none;stroke-width:0.133333"/><path id="path2640" d="M-276.1 33.89a16 16 0 0 1-3.04-1.12c-.67-.33-1.15.74-.47 1.07 1.05.51 2.17.97 3.33 1.16.73.12.88-.93.19-1.11" style="fill:#422000;fill-opacity:1;fill-rule:nonzero;stroke:none;stroke-width:0.133333"/><path id="path2641" d="M-272.93 41.09c-.41-.82-1.32-.88-2.12-1.19a23 23 0 0 1-2.88-1.38c-.87-.48-1.46.93-.61 1.42q1.38.79 2.86 1.4c.83.36 1.71.87 2.55.4.2-.12.3-.45.2-.65" style="fill:#422000;fill-opacity:1;fill-rule:nonzero;stroke:none;stroke-width:0.133333"/><path id="path2642" d="M-233.57-19.57q-.34 1.08-.92 2.04c-.44.68-1.04 1.06-1.64 1.55-.57.46-.1 1.42.61 1.15 1.66-.62 2.59-2.68 3.06-4.24.23-.74-.86-1.25-1.11-.5" style="fill:#422000;fill-opacity:1;fill-rule:nonzero;stroke:none;stroke-width:0.133333"/><path id="path2643" d="M-231.94-15.38q-.69.79-1.34 1.58c-.44.5-1.1.95-1.38 1.57-.28.61.35 1.15.93.97.65-.19 1.16-.88 1.59-1.38.5-.56.97-1.17 1.47-1.74.68-.78-.58-1.77-1.27-1" style="fill:#422000;fill-opacity:1;fill-rule:nonzero;stroke:none;stroke-width:0.133333"/><path id="path2644" d="M-296.29-50.34c-1.3-1.4-2.76-2.62-4.64-3.08-1.3-.32-1.53 1.68-.29 2.02 1.28.34 2.37 1.39 3.22 2.35.92 1.03 2.65-.29 1.71-1.3" style="fill:#422000;fill-opacity:1;fill-rule:nonzero;stroke:none;stroke-width:0.133333"/><path id="path2645" d="M-291.79-52.08a12 12 0 0 0-2.5-4.52c-.84-.98-2.43.2-1.6 1.2q1.51 1.82 2.14 4.1c.35 1.32 2.31.52 1.96-.78" style="fill:#422000;fill-opacity:1;fill-rule:nonzero;stroke:none;stroke-width:0.133333"/><path id="path2646" d="M-287.9-56.85c-.4-1.15-2.12-.46-1.74.68.41 1.26.85 2.51 1.03 3.84.1.74-.25 2.03.8 2.23.28.05.65-.08.81-.32 1.13-1.7-.31-4.72-.9-6.43" style="fill:#422000;fill-opacity:1;fill-rule:nonzero;stroke:none;stroke-width:0.133333"/><path id="path2647" d="M-245.22-57.74q-.25.86-.6 1.68c-.26.64-.65 1.23-.78 1.92-.12.68.8 1.34 1.36.81.95-.9 1.4-2.43 1.77-3.67.34-1.16-1.4-1.92-1.75-.74" style="fill:#422000;fill-opacity:1;fill-rule:nonzero;stroke:none;stroke-width:0.133333"/><path id="path2648" d="M-230.78-55.53c-.06-.27-.4-.42-.64-.4-.7.05-.93.44-1.37.95-.57.66-1.23 1.23-1.9 1.8-1.24 1.04-2.57 1.98-3.82 3.02-.8.67.14 1.96.97 1.3 1.37-1.1 2.84-2.09 4.22-3.19 1-.8 2.87-2.04 2.54-3.48" style="fill:#422000;fill-opacity:1;fill-rule:nonzero;stroke:none;stroke-width:0.133333"/><path id="path2649" d="M-325.16-26.8c-.46-1.3-2.1-1.51-3.29-1.8-1.64-.4-3.32-.6-4.95-1.04-1.24-.33-1.49 1.63-.28 1.96 1.46.4 2.96.64 4.44.96 1.16.24 2.58 1.07 3.75.63.29-.1.43-.43.33-.71" style="fill:#422000;fill-opacity:1;fill-rule:nonzero;stroke:none;stroke-width:0.133333"/><path id="path2650" d="M-330.13-16.89c-.7-1.4-2.5-1.37-3.9-1.47-2.07-.16-4.14-.03-6.2-.22-1.32-.12-1.62 1.92-.29 2.04 1.85.18 3.71.14 5.57.2 1.48.06 3.28.8 4.63.08.19-.1.29-.43.19-.63" style="fill:#422000;fill-opacity:1;fill-rule:nonzero;stroke:none;stroke-width:0.133333"/><path id="path2651" d="M-327.46 15.3c-1.23-.2-2.54.93-3.55 1.54-1.48.9-2.91 1.9-4.2 3.06-.77.68.16 1.98.95 1.3a27 27 0 0 1 3.85-2.73c1.11-.66 2.82-1.1 3.43-2.28.19-.37-.1-.82-.48-.88" style="fill:#422000;fill-opacity:1;fill-rule:nonzero;stroke:none;stroke-width:0.133333"/><path id="path2652" d="M-315.5 30.66c-1.09.24-1.92 1.01-2.84 1.62-1.18.78-2.43 1.47-3.66 2.18-1.1.63.1 2.2 1.18 1.57q1.66-.95 3.3-1.95c1-.64 2.26-1.33 2.69-2.5.15-.41-.15-1.03-.66-.92" style="fill:#422000;fill-opacity:1;fill-rule:nonzero;stroke:none;stroke-width:0.133333"/><path id="path2653" d="M-306.68 48.2c-1.16.29-2.06 1.32-2.99 2.03-1.04.78-2.1 1.53-3.03 2.43-.79.76.23 2.16 1.03 1.39 1.02-.99 2.18-1.8 3.31-2.65.93-.7 2.1-1.5 2.2-2.76.03-.32-.22-.52-.52-.44" style="fill:#422000;fill-opacity:1;fill-rule:nonzero;stroke:none;stroke-width:0.133333"/><path id="path2654" d="M-295.54 61.58c-1.04 1.2-1.7 2.77-2.54 4.11a72 72 0 0 1-2.75 3.98c-.75 1.02.8 2.24 1.56 1.2a81 81 0 0 0 3.08-4.48c.83-1.3 1.75-2.67 2.04-4.2.16-.8-.9-1.18-1.4-.6" style="fill:#422000;fill-opacity:1;fill-rule:nonzero;stroke:none;stroke-width:0.133333"/><path id="path2655" d="M-269.64 78.12c-.15-.42-.84-.5-1-.04-1.27 3.66-.25 8.22-.37 12.04-.05 1.33 2.02 1.64 2.07.29.13-3.86.62-8.63-.7-12.3" style="fill:#422000;fill-opacity:1;fill-rule:nonzero;stroke:none;stroke-width:0.133333"/><path id="path2656" d="M-245.8 73.8q-1.5-1.68-2.93-3.4c-.88-1.06-1.7-2.66-3.01-3.2-.5-.2-1.1.2-1.03.75.18 1.3 1.3 2.3 2.12 3.26q1.61 1.91 3.31 3.74c.83.9 2.37-.23 1.54-1.15" style="fill:#422000;fill-opacity:1;fill-rule:nonzero;stroke:none;stroke-width:0.133333"/><path id="path2657" d="M-231.14 59.36c-3.2-1.87-6.82-3.23-10.15-4.9-.96-.47-1.6 1.05-.65 1.54 3.23 1.65 6.78 4.16 10.49 4.38.62.04.85-.71.3-1.02" style="fill:#422000;fill-opacity:1;fill-rule:nonzero;stroke:none;stroke-width:0.133333"/><path id="path2658" d="M-227.5 50.93c-1.51-1.07-3.24-1.53-5-2.04-1.89-.55-3.7-1.23-5.56-1.89-.78-.28-1.57.82-.8 1.33 1.52.99 3.2 1.55 4.92 2.1 1.94.6 3.9 1.34 5.89 1.74.67.13 1.11-.84.54-1.24" style="fill:#422000;fill-opacity:1;fill-rule:nonzero;stroke:none;stroke-width:0.133333"/><path id="path2659" d="M-212 29.84c-.39-1.34-2.19-1.8-3.36-2.14-1.56-.45-3.17-.66-4.75-1.04-1.35-.32-1.63 1.81-.3 2.13 1.23.29 2.47.48 3.7.76 1.28.29 2.58 1.24 3.85 1.34.62.05 1.03-.47.86-1.05" style="fill:#422000;fill-opacity:1;fill-rule:nonzero;stroke:none;stroke-width:0.133333"/><path id="path2660" d="M-211.96 20.34c-2.56-.2-5.3-.05-7.87.08-1.06.05-.87 1.68.17 1.62 2.51-.13 5.45.43 7.8-.63.46-.2.5-1.02-.1-1.07" style="fill:#422000;fill-opacity:1;fill-rule:nonzero;stroke:none;stroke-width:0.133333"/><path id="path2661" d="M-209.9-8.8c-.85-.06-1.7-.25-2.55-.3-1.14-.08-1.17 1.6-.04 1.55.85-.03 1.7.08 2.55.05.74-.03.79-1.26.04-1.3" style="fill:#422000;fill-opacity:1;fill-rule:nonzero;stroke:none;stroke-width:0.133333"/><path id="path2662" d="M-208.76-17.01c-.93-.38-1.88-.07-2.8.23-1.4.45-2.72.92-4.2.97-1.28.05-1.04 2.02.23 1.98a14 14 0 0 0 3.8-.8c1.08-.36 2.42-.67 3.16-1.57.22-.25.12-.68-.2-.81" style="fill:#422000;fill-opacity:1;fill-rule:nonzero;stroke:none;stroke-width:0.133333"/></g></g></svg>