<svg xmlns="http://www.w3.org/2000/svg" id="svg1" viewBox="0 0 153.9 160.77"><g id="g1" transform="translate(-933.264 -206.28)"><g id="group-R5"><path id="path3100" d="M1055.73 241.36c1.7-3.47 3.97-6.66 5.63-10.17 1.04-2.2 1.98-4.45 3.18-6.56 1.58-2.79 4.2-7.24 7.9-7.32-.38-1.1-1.3-1.95-2.58-1.85q-.83.08-1.43.4l-.3.32c-2.52 2.9-4.24 6.3-5.94 9.72q-4.45 8.94-9.07 17.84z" style="fill:#7c1d15;fill-opacity:1;fill-rule:nonzero;stroke:none;stroke-width:0.133333"/><path id="path3101" d="M1035.43 343.7c-.2.06-.44 0-.56-.18-.2-.3-.1-.59-.22-.92-.12-.35.25-.79.62-.58.56.31.99 1.36.16 1.67m-1.2 6.08q-.45-.47-.52-1.1c-.06-.76 1.1-.89 1.18-.12.03.22.16.35.3.5.53.58-.44 1.27-.96.72m-2.85-6.06c-.41-.5-.48-1.06-.45-1.68.02-.21.32-.25.42-.1.27.4.63.75.94 1.12.46.56-.45 1.23-.9.66m-.2 9.1q-.46-.62-.68-1.38a.57.57 0 0 1 1.07-.41c.17.35.5.65.72.98.47.73-.59 1.54-1.1.82m-1.15-17.94c-.12-.28.14-.52.41-.5.74.05 1.4.9 1.29 1.61-.07.48-.77.7-1.04.26-.15-.24-.21-.48-.33-.73-.1-.22-.24-.41-.33-.64m-.54 21.46c-.5.47-1.15.37-1.77.26-.33-.05-.28-.49.02-.54.56-.09 1.13-.23 1.68-.04zm-2.74-16.73c-.33-.46-.88-1.28-.46-1.83a.4.4 0 0 1 .36-.14c.5.1.92.77 1.18 1.17.47.72-.57 1.5-1.08.8m-1.38 6.32c-.15-.36-.42-.82-.44-1.2a.36.36 0 0 1 .4-.38c.53.08.89.74 1.06 1.2.26.65-.74 1.03-1.02.38m.22 7.3c-.72-.24-1.08-1.13-1.22-1.81-.12-.58.86-.8 1-.24.15.58.5.82.88 1.24.41.43-.2.98-.66.82m-4.16-9.42c-.5-.41-.83-1.15-.66-1.8.1-.43.71-.56.89-.1.17.47.37.86.6 1.3.25.48-.45.9-.83.6m-.58 13.27c-.4.27-.9.2-1.38.2-.5-.01-1-.05-1.5 0-.37.02-.4-.51-.04-.58.86-.15 2.15-.56 2.94-.05.15.1.12.34-.01.43m-2.32-9.87c.26.4.5.74.62 1.2.15.6-.73.95-.91.34-.1-.35-.15-.76-.34-1.08-.25-.43.35-.88.63-.46m-2.17 6.6c-.34-.38-.76-.97-.8-1.5-.01-.3.3-.56.6-.42.53.26.94.87 1.2 1.37.32.63-.6.98-1 .54m-.3-13.47c.23.5.55 1.08.48 1.64-.06.45-.6.48-.85.2a3 3 0 0 1-.57-1.63c-.05-.57.7-.69.93-.21m-3.1 6.06c-.4-.44-.9-1.18-.85-1.78.03-.36.52-.54.78-.3.43.39.85.99 1.12 1.5.34.66-.64 1.03-1.06.58m25.1-2.5c-.2-3.08-.63-6.24-1.94-9.07-1.57-3.38-4.22-5.64-8.07-3.94-3.15 1.38-5.5 3.86-5.89 7.37-.08.72-1.04.94-1.46.38a5.55 5.55 0 0 0-7.31-1.63 7.9 7.9 0 0 0-3.91 7.9c.6 5.65 4.75 9.96 8.17 14.18l.04.08a96 96 0 0 0 19.22-3.17.5.5 0 0 1 0-.42l.14-.33q-.06-.21.14-.35c1.25-3.18 1.1-7.84.88-11" style="fill:#ca363b;fill-opacity:1;fill-rule:nonzero;stroke:none;stroke-width:0.133333"/><path id="path3102" d="M1054.4 312.13c-3.02 8.52-12.77 11.57-19.97 15.56-.34.18-.79-.08-.91-.4-1.63-4.27-5.12-7.61-6.13-12.16-.85-3.85-.64-8.07 1.63-11.43 1.7-2.48 4.45-5.28 7.73-5.16 2.15.08 3.5 1.38 4.34 3.09l.1-.28c1.96-3.14 7.65-3.54 10.34-1.26 3.5 2.96 4.37 7.78 2.87 12.04m-9.2 39.37q.35-.15.73-.2c.21-.03.26.24.13.36-.2.17-.44.24-.68.36-.3.15-.51-.39-.18-.52m-43.4 5.56c-.4.13-.78.06-1.18 0q-.8-.11-1.6-.13c-.43-.01-.5-.66-.06-.66.9 0 2.14-.09 2.91.42.14.1.08.33-.07.37m7.16.58c.54-.24 1.13-.3 1.72-.28.44.02.93.02 1.22.38l-.07.4c-.36.24-.88.14-1.3.12-.51-.03-1.02 0-1.52-.07-.3-.05-.3-.44-.05-.55m-16.43-1.47c-.46.21-1.04.06-1.5-.07a8 8 0 0 1-1.56-.6c-.26-.13-.13-.46.14-.45.6.04 1.18.16 1.76.27.42.08.9.14 1.23.44.14.13.1.33-.07.41m-7.57-.99c-.82.3-1.73-.06-2.53-.28q-1.23-.33-2.4-.79c-.26-.1-.2-.54.1-.55.95-.03 1.87.24 2.79.47.68.18 1.46.22 2.07.59.21.13.25.47-.03.56m79.19-57.76c-5.1-1.3-18.75-15.14-16.36-19.77-1.85 1.2-3.38 3.4-4.33 5.12a.8.8 0 0 1-.73.43c-2 1.28-4.38.07-6.47-1.12-1.42-.8-2.93-1.98-4.64-2.04-2.24-.07-4.5.88-6.28 2.2-2.53 1.9-4.92 4.37-8.16 4.99q-.74.14-1.5.24c2.57 2.94 1.5 9.3 1.04 12.52-1.21 8.5-3.4 17.04-7.33 24.73-.18.35-.63.64-1.03.43-3.28-1.8-6.28-4.08-9.67-5.66a54 54 0 0 1-9.28-5.73c-4.55-3.35-10.45-6.91-10.49-13.28-.03-4.54 3.9-8.34 7.8-10.06 2.92-1.29 8.7-2.68 11.48-.14.8-1.6 1.94-3.1 2.65-3.86.98-1.06 2.32-2.44 3.84-2.6-.19-1.97.9-4.86-.95-6.12-1.49-1.02-3.97-1.62-5.72-.9-4.13 1.69-5.31 10.1-10.47 9.44l-.14-.05q-.9.09-1.86-.08c-2.07-.37-2.26-2.58-3.46-3.86-1.7-1.8-3.03-.07-4.37 1.43 1.59 2.01.75 5.9-.9 7.64-2 2.07-4.6 2.7-7.31 2.77 2.5 2.63 3.97 7.07 1.47 9.89-3.39 3.82-9.94.33-13.49-2.6a47 47 0 0 0 .09 8.8 80 80 0 0 0 5.04 19.32c.9-4.24 5.06-9.19 7.31-11.03 3.07-2.51 7.64-4.17 10.94-1.18 1.85 1.66 2.05 4.62 1.59 7.16 5.49-3.36 13.68 1.22 12.5 8.36-.74 4.43-4.62 7.77-8.17 10.2-4.05 2.75-8.53 4.83-13.39 5.64 1.36 1.79 2.75 3.63 3.6 5.55l.05.25.8.7q.21.22.19.45 1.17.4 2.41.66c3.6.76 7.25 1.2 10.9 1.66 7.44.93 14.74 1.84 22.25 1.5q1.5-.07 3-.17c-4.77-4.82-11.08-11.63-8.1-18.98 2.07-5.09 8.31-7.33 12.38-3.78 1.88-5.94 10.45-11.33 15.03-5.2 2.43 3.25 3.43 7.47 3.7 11.46.25 3.56.43 8-.86 11.55q.45-.13.9-.16c.22 0 .35.3.15.42-.4.27-.9.4-1.38.54l-.26.53c2.62-.8 5.2-1.73 7.82-2.52l.36-.12q.03-.26.25-.49a31 31 0 0 0 3.97-4.6c-5.14-3.4-8.82-10.72-7.63-16.76.5-2.54 2.27-4.42 4.85-4.7 2.83-.29 4.6 1.5 6.44 3.22.44-2.31 1.14-4.59 3.13-6.07 1.02-.76 2.51-1.87 3.84-1.52l.04-.02.23-.07q.99-3.73 1.6-7.53a98 98 0 0 0 1.09-17.03" style="fill:#b31d15;fill-opacity:1;fill-rule:nonzero;stroke:none;stroke-width:0.133333"/><path id="path3103" d="M1050.53 346.9c-.9-.77-1.74-1.6-2.74-2.22a2 2 0 0 0-.59-.22q-.53-.75-1.02-1.54a8 8 0 0 0-.98-3.31c-.1-.15-.35-.1-.37.07l-.14 1.2c-.2-.13-.5-.07-.55.22a7 7 0 0 0 .24 3.18l-.1.84c-.38 1.1-.64 2.27-1.03 3.34a51 51 0 0 1-2.13 4.84c-.75 1.51 1.38 2.54 2.4 1.42l.59-.62a1.8 1.8 0 0 0 1.83.04q.38-.27.74-.56l.37-.28.04-.03q.39-.34.73-.74c.72-.78 1.38-1.64 2.08-2.45q.22-.26.28-.54c.87-.42 1.24-1.86.35-2.64" style="fill:#7c1d15;fill-opacity:1;fill-rule:nonzero;stroke:none;stroke-width:0.133333"/><path id="path3104" d="M988.25 329.33c.26-.37.65-.64 1.02-.88.7-.46 1.48.57.78 1.05-.42.3-.85.55-1.35.65-.47.1-.67-.5-.45-.82m.1 5.48c-.17.53-.8.92-1.26 1.2-.23.13-.46.27-.7.34-.3.08-.44.07-.73.06-.22 0-.33-.26-.15-.4.38-.29.78-.63 1.11-.97s.62-.77 1.09-.92c.44-.15.79.27.65.69m-.64 5a1 1 0 0 1-.42.13c-.23.04-.4-.15-.44-.36-.06-.33.23-.6.51-.7.62-.21.9.64.35.93m-2.84-8.89q-.53.4-1.03.84c-.27.23-.53.5-.9.5-.2 0-.44-.12-.43-.35 0-.43.24-.7.52-1q.5-.55 1.06-1.05c.63-.55 1.47.55.78 1.06m-.62 9.7c-.3.36-.85.67-1.32.7a.42.42 0 0 1-.36-.68c.32-.42.92-.73 1.44-.65.29.05.42.4.24.63m-3.34-1.9c-.17.37-.82.83-1.25.85a.4.4 0 0 1-.38-.24c-.32-.74.82-1.42 1.43-1.16.2.09.3.34.2.54m-1.82 3.97c-.33.56-.84.88-1.43 1.15-.47.21-1.01.53-1.54.54-.22 0-.48-.24-.34-.48.3-.5.87-.75 1.32-1.09.41-.3.8-.65 1.28-.86.42-.18.95.32.7.74m-2.5-8.35c.45-.26 1.1.3.68.73a3 3 0 0 0-.47.6c-.14.3-.29.67-.66.77q-.23.06-.4-.07c-.77-.7.25-1.67.84-2.03m-1.96-3.76c.32-.57.88-1.4 1.58-1.52l.21.18c.05.38-.08.66-.26 1-.17.31-.32.66-.56.93-.4.46-1.3 0-.97-.59m-.52-6.58c-.13-.55.26-.97.61-1.36.33-.36.65-.68 1.14-.77.29-.06.5.3.38.54-.18.38-.44.7-.7 1.03-.22.3-.44.73-.83.84-.22.06-.54-.01-.6-.28m-2.73.33c-.26.46-.34 1.23-.89 1.42q-.3.1-.51-.16c-.47-.55.18-1.5.53-1.98.36-.5.9-1.09 1.57-1.02.14.02.25.17.21.3-.14.56-.64.94-.91 1.44m.55 18.76c-.24.15-.48.33-.62.6a.44.44 0 0 1-.46.24l-.2-.1a.44.44 0 0 1-.06-.6q.45-.55 1.16-.64c.28-.04.4.35.18.5m-2.78-5.53c.17-.78.93-1.49 1.76-1.38.22.03.28.29.17.45-.27.37-.74.62-.85 1.1-.15.68-1.23.52-1.08-.17m-2.6-6.62c-.4.5-.27 1.41-.85 1.74-.17.1-.37.09-.49-.08-.28-.38-.12-.84.13-1.2.28-.4.6-.53 1.02-.74.16-.08.29.16.19.28m3.02.69c.2-.97.9-1.93 1.87-2.2.18-.05.38.13.29.32l-1.1 2.19c-.26.55-1.2.33-1.06-.31m22.07 4.93c2.32-2.92 2.8-8.12-.7-10.5-2.74-1.85-7.1-1.57-9.28 1.04-.55.65-1.61.05-1.29-.75 1.1-2.7 1.57-7.95-2.07-9.02-3.37-1-6.83 1.19-9 3.64-2.23 2.52-6.14 7.26-5.59 11.15q.6 1.38 1.26 2.75a84 84 0 0 0 7.43 12.45q.14-.1.33-.13c7.04-1.02 14.45-5.02 18.9-10.63" style="fill:#ca363b;fill-opacity:1;fill-rule:nonzero;stroke:none;stroke-width:0.133333"/><path id="path3105" d="M1050.14 312.64c-.19.08-.47-.04-.52-.25-.13-.54.11-.94.27-1.46.2-.67.4-1.33.37-2.04-.03-.52.73-.59.8-.07.13 1.1.33 3.24-.92 3.82m-2.11-5.95c-.2.52-.95.34-1.01-.16-.06-.48-.05-.96-.15-1.44-.07-.34.39-.53.63-.33.55.46.78 1.26.53 1.93m-3.2 5.05c-.06.44-.2.83-.55 1.11-.4.33-.98-.07-.9-.55.09-.6.57-1.22.51-1.85-.03-.46.62-.5.7-.06.1.48.31.84.24 1.35m-2.74 6.26c-.33.17-.58.44-.83.7-.22.25-.44.37-.7.56-.35.24-.74-.13-.61-.5.15-.42.27-.7.59-1.03q.49-.5 1.16-.76c.67-.27 1 .72.39 1.03m-2.7-6.62c-.26.4-.16.73-.25 1.16-.11.53-.77.71-1.11.27-.58-.72.1-1.67.7-2.13.46-.35.94.26.66.7m-2.8-8.18c-.07.28-.06.59-.14.85-.1.33-.37.7-.73.4-.75-.6-.1-2.27.78-2.36.2-.03.44.19.38.41-.07.25-.24.45-.3.7m-4.31 12.81c-.2-.77 0-1.49.07-2.25.05-.45.72-.4.77.03.07.65.25 1.3.31 1.95.07.65-.98.95-1.15.27m-.67-8.18c-.56-.87.32-2.4 1.42-1.95.25.1.27.4.14.6-.1.16-.28.3-.36.48-.1.26-.11.53-.25.77-.18.34-.7.49-.95.1m16.36-7.75c-1.9-.06-4.57.42-5.65 2.15-.23.38-.62.36-.9.15q.29.75.47 1.54c.07.28-.33.56-.5.25-1.53-2.8-3.36-5.76-7.05-3.77-2.78 1.5-5.16 4.44-5.77 7.58a15.8 15.8 0 0 0 2.07 11.42c1.35 2.2 2.85 4.29 3.88 6.65 5.47-2.93 12-5.25 16.02-10.12 2.38-2.88 4.09-7.26 2.67-10.99-.81-2.15-2.65-4.78-5.24-4.86" style="fill:#ca363b;fill-opacity:1;fill-rule:nonzero;stroke:none;stroke-width:0.133333"/><path id="path3106" d="M976.54 219.86c.4-1.32 1.9-4.98 3.85-4.16.16.07.1.28-.06.3-1.94.32-3.54 3.64-3.24 5.44.3 1.78 1.61 2.79 2.58 4.2.17.25-.15.52-.39.35-1.88-1.33-3.48-3.75-2.74-6.13m17.09-3.9c1.43-.02 3.12.8 4.55 1.86.04-4.28 7.28-6.42 10.5-3.84q.89.76 1.3 1.78c.9-2.03 2.34-3.54 4.63-3 1.72.4 2.23 2.22 2.16 4.09a6.7 6.7 0 0 1 3.73-1.17c1.94-.04 4.64.87 5.37 2.88 1.01 2.77-1.46 5.02-3.6 6.33-4.63 2.8-10.01 3.94-14.62 6.75-.58.35-1.3-.02-1.23-.73q.12-1.28.14-2.55a16 16 0 0 1-3.25 3.65c-.53.43-1.11.04-1.24-.47-4.89-.9-12.94-5.86-12.77-11.31.07-2.58 1.76-4.23 4.33-4.27m38.17 15.37c3.8-2.23 20.73-8.12 12.75-14.28-.22-.16.05-.47.26-.32 8.85 6.06-7.45 14.41-12.84 15.07-.25.04-.4-.34-.17-.47m-61.95-5.57c.38.66.82 2.18 1.45 2.6 1.12.78 2.27 1.53 3.5 2.14a38 38 0 0 0 7.12 2.73c4.9 1.3 9.96 1.87 15 2.42 8.1.88 16.2 1.79 24.36.88 6.5-.72 13.39-1.98 19.55-4.18 3.09-1.1 6.2-2.46 8.7-4.64 1.9-1.67 4.5-4.31 4.21-7.12-.47-4.73-6.17-7.34-10.09-8.76-5.97-2.17-12.42-2.7-18.72-3.07-7.85-.48-15.9-1.01-23.77-.67-6.95.3-14.1 1.34-20.62 3.85-3.31 1.28-6.9 2.82-9 5.83a10 10 0 0 0-1.98 5c-.04.59-.13 1.68-.05 2.71q.2.03.34.28" style="fill:#6b98c2;fill-opacity:1;fill-rule:nonzero;stroke:none;stroke-width:0.133333"/><path id="path3107" d="M1060.38 290.12c-.63-.49-.81-1.1-1.01-1.82-.1-.37.34-.6.58-.3.38.46.85.88 1.26 1.31.47.5-.33 1.2-.83.8m-2.03-6.8c-.22-.29-.49-.54-.63-.88-.1-.24.1-.55.35-.56.86-.03 1.9.94 2.11 1.75.15.57-.44 1.14-.97.72-.36-.28-.58-.68-.86-1.03m-3.87-.47c-.75-.3-1.8-1.57-1.59-2.43.04-.15.22-.24.36-.18.25.1.47.3.67.5l.42.35v.05c.3.26.63.52.83.84.3.48-.14 1.08-.69.87m3.17-3.53c-2.09.33-3.33-.86-5.02-1.87a4 4 0 0 0-3.28-.5q.05.21-.05.4c-2.05 3.33 3.62 8.71 5.67 10.85 2.71 2.82 5.67 5.59 9.13 7.46q-.05-1.62-.14-3.23c-.2-3.39-.52-6.84-1.6-10.07-.51-1.54-1.22-3.21-1.42-4.87-.97.87-2.02 1.64-3.28 1.83" style="fill:#ca363b;fill-opacity:1;fill-rule:nonzero;stroke:none;stroke-width:0.133333"/><path id="path3108" d="m1058.47 329.34-.24.1c-.23 0-.45-.1-.53-.33a6 6 0 0 1-.23-1.13c-.05-.36.5-.6.7-.25q.29.49.48 1.02c.07.22.01.46-.18.6m-2.24 6.16-.28-.09c-.2-.26-.19-.66-.27-.98-.04-.14.04-.27.19-.3.72-.08 1.02 1.08.36 1.37m-3.34 1.46a6 6 0 0 1 0-1.86c.04-.2.33-.28.45-.1q.59.9.56 1.99c-.02.6-.94.52-1.01-.03m-.2 5.42-.37.03c-.34-.34-.3-.77-.33-1.23-.02-.19.24-.35.39-.2.37.38.69.92.31 1.4m-2.2-10.75c-.16.17-.27.23-.5.2a.6.6 0 0 1-.43-.35c-.26-.75-.58-1.6-.33-2.4.11-.36.65-.28.77.03.13.35.15.72.27 1.07l.3.92c.06.17.05.39-.08.53m-1.7 9.75a2.8 2.8 0 0 1-.5-1.85c.05-.35.53-.45.73-.17.3.42.37.94.68 1.35.44.6-.5 1.28-.91.67m-2.9-7.63c-.48-.12-.79-.52-.7-1.02.06-.37.58-.41.7-.07.1.25.29.41.35.68.05.2-.1.47-.35.41m3.05-.22c.35.55.65 1.18.76 1.82.07.43-.53.62-.77.29-.38-.54-.43-1.28-.54-1.9-.06-.31.4-.46.55-.21m8.19-7.65c-1.08 1.63-1.38 3.42-1.7 5.31-.08.53-.74.85-1.17.48-1.8-1.54-3.2-3.68-5.84-3.75-3.6-.1-4.61 3.86-4.22 6.8.68 4.97 3.52 8.9 6.96 12.34a60 60 0 0 0 5.77-11.46c1.57-3.96 2.99-8.01 4.13-12.13-1.13-.43-3.38 1.58-3.93 2.4" style="fill:#ca363b;fill-opacity:1;fill-rule:nonzero;stroke:none;stroke-width:0.133333"/><path id="path3109" d="M1002.51 230.56c1.88-1.67 3.32-4.08 4.36-6.33.98-2.13 2.6-5.47 1.54-7.84-1.9-4.21-9.14-1.77-8.94 2.51q.82.8 1.34 1.55c.48.7-.38 1.6-1.07 1.05-1.7-1.32-4.14-4.28-6.57-3.85-3.48.61-2.06 4.57-.48 6.37 2.77 3.11 6.61 4.18 9.82 6.54" style="fill:#ca363b;fill-opacity:1;fill-rule:nonzero;stroke:none;stroke-width:0.133333"/><path id="path3110" d="M959.58 289.16c.53 0 1.24.44 1.11 1.04l-.2.23c-.5.11-.9-.32-1.15-.75-.12-.2-.04-.52.24-.52m1.03 8.11c-.55-.26-1.39-1.34-.95-1.96.28-.4 1.4 1.1 1.51 1.27.23.38-.11.9-.56.7m2.26-8.75c.55 0 1.36.07 1.51.72.05.23-.05.42-.3.46-.6.11-.92-.5-1.32-.85-.11-.1-.07-.33.1-.33m1.47-2.33c.6-.34 2.14-.4 2.24.53s-1.93-.01-2.21-.19c-.12-.07-.18-.26-.03-.34m3.08 14.15a.51.51 0 0 1-.83.6c-.21-.25-.32-.58-.53-.82-.17-.19.05-.48.27-.44.44.1.84.25 1.1.66m-2.48-5.34c-.13.3-.5.28-.69.06-.15-.17-.18-.38-.3-.57-.1-.13-.21-.22-.29-.36-.1-.18-.07-.43.16-.5.73-.23 1.4.7 1.12 1.37m2.96-11.57c.54-.53 1.32-.35 1.77.2.3.34-.16.88-.55.67-.37-.18-.74-.3-1.12-.45-.15-.06-.22-.3-.1-.42m1.98 5.08c.69-.3 1.56.03 1.76.8.12.47-.36.87-.77.56-.37-.27-.62-.74-1.01-.97-.16-.1-.16-.31.02-.39m-12.1 8.52-.21 3.15c3.26 2.07 8.72 5.91 12 3.1 3.03-2.61-.02-7.79-2.7-9.4-.72-.42-.1-1.4.57-1.35 2.32.16 5.38.2 7.3-1.38 1.44-1.2 3.2-4.53 1.9-6.4q-.37.31-.76.46c-1.3.48-2.7.53-3.76-.5-1.42-1.4-2.41-3.74-4.79-3.2-3.45.79-6.1 3.22-8.63 5.55-.17.6-.41 1.2-.5 1.8l-.05.6q.04.54 0 1.17z" style="fill:#ca363b;fill-opacity:1;fill-rule:nonzero;stroke:none;stroke-width:0.133333"/><path id="path3111" d="M994.45 308.62c-.97-.48-1.25-1.53-1.5-2.5-.16-.54.6-.84.83-.3.31.76.85 1.33 1.35 1.95.34.44-.18 1.1-.68.85m-1.98-10.61c-.54-.69-1.15-2.07-.6-2.88.16-.22.49-.17.64.02.23.3.3.73.45 1.08s.37.65.58.98c.46.72-.54 1.48-1.07.8m-.75 13.74c-.65-.16-1-.88-.94-1.52.03-.26.4-.4.58-.22.36.34.77.8.85 1.29.04.25-.24.52-.49.45m-4.16-11.22c-.52-.24-.7-.94-.75-1.45-.03-.49.23-.84.5-1.2.28-.35.77.02.64.4-.18.54.14 1.12.27 1.62.1.4-.23.81-.66.63m-.53 4.96c-.78-.44-.96-1.35-1.43-2.05-.26-.4.3-.78.6-.43.5.56 1 1.17 1.38 1.8.2.35-.12.92-.55.68m10.9-4.23c.02-.4.59-.57.76-.21.18.14.3.37.43.55.24.34.6.69.75 1.08.2.52-.33.95-.82.78s-.82-.83-1-1.28c-.09-.26-.22-.63-.13-.92m1.79 11.42c-.33-.48-.35-1.06-.62-1.54-.22-.38.29-.76.56-.4.31.43.77.74 1.08 1.18.46.68-.56 1.43-1.02.76m4.35-20.1c.21-.45.96-.25.85.25-.13.6.28 1.17.54 1.67.33.64-.63 1.04-1.05.57a2.2 2.2 0 0 1-.34-2.49m.14-3.33c.64-.25 1.56.1 1.6.86.02.33-.29.51-.59.42-.35-.12-.7-.38-1.03-.55a.4.4 0 0 1 .02-.73m1.07 17.45c-.17-.5-.15-1.03-.34-1.52-.14-.36.4-.66.6-.32.33.54.8 1.07.76 1.74-.02.54-.85.58-1.02.1m2.26 4.25q.38.36.66.81c.53.82-.86 1.43-1.1.6-.07-.26-.12-.51-.28-.73-.32-.45.3-1.08.72-.68m2.11-11.76c.48.57 1.15 1.35.99 2.16-.1.45-.69.63-.97.23-.4-.54-.33-1.32-.69-1.9-.27-.46.33-.9.67-.49m2.97-7.81c.3.52.6.94.7 1.55a.4.4 0 0 1-.14.4l-.2.13.02-.02c-.25.1-.57.02-.68-.28-.16-.47-.16-.99-.33-1.45-.13-.37.42-.68.63-.33m-7.79 25.34c-.52-.5-.51-1.05-.65-1.7-.08-.33.48-.44.58-.12.15.43.57.74.8 1.12.3.46-.28 1.11-.73.7m-20.06-23.44c-3.96 3-5.93 7.97-2.59 12.33 3.11 4.07 8.24 7.3 12.55 10 2.28 1.42 4.75 2.42 7.06 3.77 2.19 1.29 4.27 2.75 6.51 3.95a84 84 0 0 0 6.73-22.37c.54-3.3 2.07-10.45-.65-13.35a18 18 0 0 1-4.84-.21c-1.41-.28-3.27-.8-4.23-2.01-.34-.13-.67-.2-1.24.13a10 10 0 0 0-2.9 2.67 14 14 0 0 0-2.04 3.5q0 .26-.15.45c-.32 1.04-.28 1.96-.4 3.04-.04.26-.42.44-.62.23-.87-.9-.84-2.24-.39-3.63-2.94-3.22-10.06-.6-12.8 1.5" style="fill:#ca363b;fill-opacity:1;fill-rule:nonzero;stroke:none;stroke-width:0.133333"/><path id="path3112" d="M1078.9 247.15q.27.68.3 1.47c1.4-2.47 2.32-6.12-.51-7.22-2.2-.85-4.7 0-6.83.63-2.7.8-5.31 1.74-7.86 2.97q-1.88.91-3.73 1.87l.91-.36c3.41-1.28 7.11-2.59 10.78-2.85 3.06-.22 5.68.46 6.94 3.5" style="fill:#7c1d15;fill-opacity:1;fill-rule:nonzero;stroke:none;stroke-width:0.133333"/><path id="path3113" d="M1081.5 235.5c-3.1.26-5.89 1.87-8.63 3.2-5.96 2.9-11.94 5.7-17.6 9.08l.5-.23c3.69-1.76 7.21-3.9 11.03-5.4 3.33-1.3 12.08-5.2 14.44-.38 2.05 4.16.06 8.33-3.32 10.74-.5.6-1.13 1.06-1.87 1.25l-.3-.03q-1.36.58-2.8.78c-4.13.55-8.3-.04-12.44-.1-2.04-.02-4.1-.07-6.14-.33 5.87 2.04 12.6 2.18 18.6 2.8 3.36.35 10.21 1.44 11.56-2.88.87-2.8.6-5.99.78-8.9.18-2.86.84-9.99-3.8-9.6" style="fill:#ca363b;fill-opacity:1;fill-rule:nonzero;stroke:none;stroke-width:0.133333"/><path id="path3114" d="M1008.05 229.63c2.7-1.47 5.57-2.5 8.42-3.67 2.45-1.02 7.12-2.6 7.95-5.5.58-2.03-1.91-3.1-3.54-3.18a4.8 4.8 0 0 0-4.69 2.6q-.2.57-.43.98c-.5.88-1.78.38-1.46-.6q.16-.5.38-.94c.55-1.96.95-6.38-1.42-5.11-1.7.9-2.41 2.38-2.9 4.01a13 13 0 0 1-.87 4.16q-.65 1.8-1.55 3.6.2 1.81.1 3.65" style="fill:#ca363b;fill-opacity:1;fill-rule:nonzero;stroke:none;stroke-width:0.133333"/><path id="path3115" d="M1032.37 259.2c3.09-.4 6.26-.91 9.15-2.12 1.11-.47 5.84-2.92 6.67-5.18-3.12 3.2-9.76 4.64-13.03 5.4a89 89 0 0 1-20.16 2.48c5.8.24 11.56.15 17.37-.59" style="fill:#ca363b;fill-opacity:1;fill-rule:nonzero;stroke:none;stroke-width:0.133333"/><path id="path3116" d="M977.3 253.89c3.3 1.65 6.93 2.53 10.51 3.34 6.02 1.36 11.94 1.7 17.97 2.03q-1.72-.19-3.45-.45c-8.03-1.27-16.26-2.7-23.64-6.26-.76-.37-5.05-2.55-6.34-4.4.09.89.55 1.87.94 2.46a11 11 0 0 0 4.02 3.28" style="fill:#ca363b;fill-opacity:1;fill-rule:nonzero;stroke:none;stroke-width:0.133333"/><path id="path3117" d="M1067.66 235.52c2.84-2.37 5.76-4.82 7.89-7.88 2.15-3.1 4.18-7.77 2.76-11.6-1.44-3.84-4.91-3.63-7.73-1.93q.52.04 1 .24c3.53 1.38 2.83 5.24 1.53 8.03-2.55 5.49-6.39 10.17-10.54 14.51-2.13 2.23-4.33 4.4-6.5 6.59-1.56 1.58-3.55 3-4.95 4.77 2.27-1.59 4.9-2.81 7-4.54 3.24-2.66 6.34-5.5 9.54-8.19" style="fill:#ca363b;fill-opacity:1;fill-rule:nonzero;stroke:none;stroke-width:0.133333"/><path id="path3118" d="M1063.44 271.96c-.45 0-.7.16-1.08.38-.27.17-.75-.02-.65-.4.25-.94 1.36-1.22 2.2-.94.16.06.26.24.28.4.06.45-.4.56-.75.56m-10.9.66c.15.19.09.48-.1.62-.45.31-.92.12-1.44.13a7 7 0 0 0-1.5.16c-.34.08-.6-.34-.3-.56q.76-.56 1.7-.69c.58-.07 1.24-.16 1.64.34m-4.13-2.66c.5-.13 1-.27 1.51-.3.44-.04.9-.13 1.24.18.16.16.14.36-.02.5-.36.34-.88.2-1.33.2-.43 0-.84-.04-1.26.04-.36.07-.5-.53-.14-.62m-1.1-11.36a7 7 0 0 1-1.23-1.82c-.17-.37.44-.69.64-.33q.5.86 1.25 1.52c.4.34 1.13.72 1.2 1.28 0 .12-.08.27-.2.3-.64.18-1.27-.52-1.66-.95m-19.62 12.8c-.72.24-1.48.16-2.22.3-.9.15-1.77.4-2.64.65-.45.13-.7-.52-.25-.69 1.46-.54 3.6-1.53 5.13-.79.22.1.23.46-.02.54m-.26 3.84c-.56.44-1.44.22-2.12.37-.9.2-1.66.55-2.48.93-.32.14-.67-.33-.4-.58a5.7 5.7 0 0 1 2.65-1.36c.77-.2 1.84-.47 2.43.18.13.14.05.36-.08.46m-.9 3.28c-.67.58-1.8.5-2.6.88-1.07.52-1.56 1.26-2.36 2.07-.24.25-.62.07-.6-.28.08-1.15 1.43-2.13 2.36-2.62.85-.45 2.32-1.2 3.22-.5.15.12.11.33-.02.45m-29.24-11.6c-.35.32-.86.2-1.3.22q-.76.06-1.53.15c-.17.02-.23-.2-.1-.3q.73-.55 1.6-.76c.47-.12.96-.27 1.35.07.21.18.17.45-.02.62m-.09 3.25c-.5.54-1.43.53-2.08.91q-.91.58-1.8 1.24c-.13.1-.33-.06-.25-.21q.62-1.17 1.74-1.9c.58-.38 1.54-1.05 2.25-.66.2.12.33.41.14.62m-.82 2.1c-.4.32-.93.42-1.38.7q-.6.36-1.13.8c-.68.58-1.33 1.26-2.11 1.7-.14.07-.35-.06-.26-.22.5-.91 1.29-1.7 2.1-2.35.68-.55 1.7-1.4 2.65-1.21.28.06.35.4.13.58m-.11 2.52c-.45.39-1.05.52-1.53.87q-.78.57-1.43 1.27c-.68.73-1.33 1.73-2.24 2.19-.26.13-.52-.21-.4-.45.52-1.1 1.63-2.14 2.48-3 .74-.74 1.82-1.7 2.94-1.64.4.02.42.55.18.76m-2.31-10.58q.55-.55 1.32-.72c.48-.12 1.11-.38 1.5.02.14.15.2.37.06.54-.37.4-.86.25-1.36.3q-.68.1-1.36.17c-.16.01-.28-.19-.16-.3m-16.58-.06c-.08.15-.26.28-.44.23-.57-.14-.65-.73-1.05-1.1-.46-.41-1.17-.75-1.79-.53-.21.08-.32-.24-.11-.33.77-.31 1.48-.54 2.27-.06.54.33 1.48 1.06 1.12 1.79m-2.35 2.16-.35.13c-.63-.14-.78-1.04-1.2-1.5-.51-.55-1.14-.78-1.78-1.15-.11-.07-.14-.28.02-.32a2.8 2.8 0 0 1 2.34.71c.5.46 1.45 1.42.97 2.13m.03 4.62c-.57 1.42-1.93 2.67-2.8 3.92-.52.74-1.09 1.53-1.41 2.39-.1.26-.15.54-.28.78l-.08.07-.13.05c-1.65-.42 3.46-7.04 4.18-7.64.28-.23.64.13.52.43m-4.1-14.76c.3-.6.95-1.08 1.43-1.55.38-.37.75-.87 1.25-1.09l.22.2c-.12.58-.64 1.08-1.02 1.51-.43.49-.9 1.08-1.48 1.38-.25.13-.53-.21-.4-.45M959 269.9c-.48.53-.82-.2-1.05-.55q-.48-.75-1.25-1.17c-.17-.08-.14-.36.06-.37a2.5 2.5 0 0 1 2.31 1.63c.06.15.03.34-.07.46m-2.73 2.53c-.06.2-.3.4-.52.27-.4-.23-.48-.7-.74-1.07a3 3 0 0 0-1.1-1.02c-.2-.08-.09-.36.11-.34.6.05 1.06.24 1.49.68.34.36.9.93.76 1.48m-2.01 3.1c-.09.24-.44.37-.64.21-.27-.2-.21-.49-.24-.79-.04-.38-.17-.8-.48-1.05-.2-.17-.54-.5-.82-.5-.22.02-.23-.3-.02-.33.36-.06.57-.18.96-.06q.49.16.82.57c.45.55.68 1.27.42 1.96m-2.41 3.9c-.48-.42-.62-1.13-.87-1.7-.29-.66-.52-1.34-.8-2-.05-.13.14-.27.24-.16.47.5.9 1.02 1.22 1.65.3.57.8 1.27.77 1.92 0 .27-.32.52-.56.3m115.14-10.02c-2.83-2.22-6-3.88-8.95-5.9-3.07-2.12-8.65-5.12-9.57-9.23a9 9 0 0 1-1.35 1.42 18 18 0 0 1-3.46 2.24c.34.41.61.87.91 1.32.4.58.84 1.11 1.14 1.75.22.48-.43.89-.8.58a5 5 0 0 1-1.26-1.66c-.29-.52-.6-1.04-.8-1.6q-1.74.78-3.6 1.3c.12.95.22 1.9.4 2.86.18.9.76 2.03.44 2.93-.09.24-.44.39-.67.26-.96-.54-1.06-2.03-1.2-3.03-.05-.42-.26-1.75-.15-2.72q-.53.13-1.07.24c-3.05.63-6.1.98-9.16 1.18.34.77.57 1.6.8 2.4.21.75.54 1.57.17 2.32-.14.28-.47.28-.66.07-.64-.73-.71-2.03-.94-2.95-.14-.6-.3-1.17-.35-1.76q-1.2.05-2.37.07c.01.87.04 1.72.17 2.59.12.78.46 1.74-.07 2.43-.13.18-.4.2-.57.06-.71-.58-.65-1.84-.72-2.67a7 7 0 0 1 .12-2.38q-3.7.07-7.43-.06c.07.78-.01 1.62-.04 2.36-.06 1.14.03 2.5-.75 3.4-.2.25-.67.23-.76-.12-.3-1.11.05-2.34.16-3.48.06-.71.08-1.5.26-2.2l-6-.27q-2.89-.14-5.75-.25c.05.64.03 1.32 0 1.9-.02.23-.21.4-.4.5q-.25.12-.49-.02c-.2-.1-.37-.28-.38-.52-.04-.58-.05-1.27 0-1.92-3.4-.17-6.79-.44-10.19-1.1l-.01.1c-.27.82-.72 1.63-1.05 2.43-.26.62-.52 1.35-1.14 1.7-.26.13-.6.03-.63-.3-.07-.82.4-1.7.71-2.43.26-.6.53-1.22.96-1.72q-2.11-.42-4.28-.91-.34.63-.73 1.26c-.26.45-.49 1.14-.96 1.41-.19.1-.4.05-.49-.15-.26-.67.3-1.45.67-1.97q.3-.43.63-.76a36 36 0 0 1-7.9-2.77q-.95-.49-1.81-1.05c.05.74-.94 1.68-1.34 2.15l-1.26 1.53c-.21.26-.47.59-.85.42-.86-.4.95-2.07 1.23-2.37l1.25-1.43c.2-.23.34-.45.6-.56a9.6 9.6 0 0 1-3.55-4.1c-1.05 2.05-3.15 3.52-5.2 4.5-3.7 1.8-7.61 3.13-11.42 4.64-7.97 3.15-15.37 7.03-19.83 14.6 2.7 1.26 6 .3 8.75 1.56a10.2 10.2 0 0 1 4.8 4.45c1.52 2.73 2.19 6.07 1.31 8.96l.1-.13q2.02-2.91 3.92-5.88c2.7-4.24 4.92-8.88 7.86-12.95.33-.46.94.01.8.48-1.54 4.77-4.71 9.26-7.43 13.42a111 111 0 0 1-4.42 6.4c-.3.37-.6.9-.94 1.36 1.76-.64 3.56-2.19 4.73-3.16 2.23-1.85 4.22-4 6.56-5.71 2.63-1.92 7-4.51 9.83-1.58.83.86 1.7 2.28 2.78 2.72.65-2.37 2.19-4.61 3.45-6.66 1.73-2.8 3.33-5.8 5.3-8.44.2-.28.77-.06.66.3-.8 2.69-2.47 5.04-3.95 7.4-1.53 2.43-2.87 4.96-4.3 7.44q.5-.14 1.05-.64c1.12-1.04 1.76-3 3.46-3.28 1.2-.2 2.4.05 3.28.79 1.8-4.4 3.32-10.03 6.78-13.26.1-.08.3-.03.25.12-.68 2.5-2.04 4.82-3.03 7.2q-1.49 3.6-3.05 7.2c.59 1.12 1.18 2.64 2.64 2.7.2.01.73.05 1.35.07 1.32-.61 2.36-1.16 3.24-2.47.7-1.06 1.3-2.18 2-3.24 1.17-1.77 2.89-3.82 5.15-4.12s4.66-.02 6.5 1.36c-.07-1.15.3-2.88.33-3.17.2-2.45-.01-5.1.45-7.52.05-.3.5-.46.68-.16 1.05 1.84.52 4.93.41 6.95-.06 1.12.18 4.24-.91 4.83 1.49 2.25-.53 6.26 1.54 7.54 2.46 1.51 6.14 1.33 8.89.89 3.7-.6 5.86-3.33 8.88-5.2 2.4-1.49 5.2-2.54 8.03-1.84 3 .74 5.88 4.39 9.1 3.45q.36-1.05.97-2c-.71-1.18-.64-3.57-.83-4.63-.44-2.43-.83-5.21-2.1-7.38-.13-.21.07-.43.3-.35 2.08.68 2.6 3.92 3 5.77a89 89 0 0 1 .9 4.91 11 11 0 0 1 4.93-3.21c2.9-.87 4.26 1.52 6.7 2.28q.84.25 1.64.02a63 63 0 0 1-3.46-5.63c-.83-1.58-2.25-4.03-1.77-5.9.08-.33.54-.4.67-.06 1.5 3.93 3.75 7.36 6.09 10.84 1.77-1.2 3.43-3.3 5.26-3.79 2.34-.63 5.04.1 7.55 1.01a51 51 0 0 0-4.95-4.62" style="fill:#8abfd9;fill-opacity:1;fill-rule:nonzero;stroke:none;stroke-width:0.133333"/><path id="path3119" d="M1054.07 225.48c-1.94 3.08-5.26 5.42-8.41 6.92-5.47 2.6-11.43 3.76-17.34 4.91a82 82 0 0 1-22.56 1.15c-7.24-.6-14.75-1.2-21.83-2.84a40 40 0 0 1-9.84-3.42 31 31 0 0 1-3.9-2.36c-.76-.57-1-1.03-1.12-1.6a4 4 0 0 1-.9-1.81c-.36 3.19-.15 6.46.96 9.5 1.99 5.43 6.02 9.4 8.7 14.4q.77.38 1.56.74c-.1-1.04-.3-2.08-.51-3.1-.3-1.33-.6-3.1-1.3-4.3-.08-.14.04-.3.2-.24 1.33.57 1.81 2.14 2.18 3.43.45 1.59.83 3.24.89 4.89q.61.27 1.24.52c-.1-2.98-.85-6.13-.52-9.07l.27-.05c1.39 2.7 1.55 6.44 1.58 9.43l-.05.23h.01q1.91.74 3.91 1.32c-.54-1.28-.02-3.65-.02-4.75q0-1.89-.14-3.76c-.06-.82-.26-1.57.08-2.33.08-.18.3-.21.45-.1 1.5 1.1 1.2 4.36 1.2 6 .01 1.28.5 4.15-.37 5.3l1.23.31c-.13-.58.04-1.46.06-1.87.04-1.3-.12-3.23.86-4.24.1-.1.29-.1.33.06.27 1.03.16 2.21.16 3.27 0 .9.08 1.86-.1 2.75l-.14.33q1.09.26 2.2.47c-.7-1.28-.33-3.34-.3-4.72.04-2.19-.18-4.6.51-6.7.08-.26.5-.22.57.02.67 2.1.35 4.52.36 6.7 0 1.46.5 3.6-.27 4.9l2.57.47c.03-1.8.5-3.62.75-5.39.3-2.02.4-4.22 1.2-6.12.06-.12.28-.13.31.02.45 2.03.03 4.25-.24 6.3-.23 1.77-.34 3.66-.83 5.4q3.16.51 6.27.9a.5.5 0 0 1-.11-.29c-.05-2.6-.67-5.12-1.05-7.67-.1-.67.93-.77 1.03-.1.39 2.55 1 5.07 1.05 7.67a.5.5 0 0 1-.28.47l1.9.24q2.33.27 4.64.38c-.68-1.23-.64-3.14-.8-4.47-.25-1.85-.56-3.84-.06-5.67.05-.17.3-.23.36-.03.56 1.79.7 3.71 1.01 5.56.24 1.4.92 3.25.5 4.65l.92.02a.5.5 0 0 1-.18-.35c-.1-.94-.03-1.9 0-2.85.03-.9-.12-1.99.34-2.78.14-.23.54-.37.7-.07.46.8.3 1.75.24 2.65-.06 1.02-.08 2.06-.2 3.08a.5.5 0 0 1-.18.33q3.75.04 7.46-.28a3 3 0 0 1-.3-1.24c-.36-1.09-.27-2.68-.3-3.48-.07-1.93-.27-4.21.43-6.05.12-.32.67-.32.76.03.46 1.86.22 3.94.33 5.84.06.95.58 2.6.45 3.76q.12.38.2.75v.25l.44-.05c-.19-.7-.01-1.61.01-2.29.04-1.34.3-2.65.37-3.98.01-.3.5-.27.51.03.08 1.33.33 2.64.37 3.98.02.63.17 1.43.04 2.11q4.46-.56 8.9-1.56l-.02-.07c-.01-4.43-.69-9.76.83-13.98.1-.3.52-.17.55.1.57 4.4.1 9.17.11 13.62l1.58-.35c-.23-1.4.2-3.22.29-4.5.22-3.23.82-6.5 1.42-9.68.07-.37.6-.34.65.03.46 3.27-.44 6.58-.62 9.85-.06 1.08-.16 2.15-.21 3.23l-.01.7a37 37 0 0 0 3.51-1.04c-.5-2.48.53-5.58 1.2-7.94.7-2.4 1.35-5.22 2.92-7.21.17-.22.5-.04.47.22-.37 2.75-1.68 5.44-2.32 8.16-.47 2.03-.55 4.32-1.13 6.33q1.18-.47 2.24-1.07a.7.7 0 0 1 .06-.64c1.71-2.72 3.81-5.03 5.22-7.98 1.25-2.65 2.3-5.4 2.94-8.26.76-3.4.92-6.67.9-9.98" style="fill:#8abfd9;fill-opacity:1;fill-rule:nonzero;stroke:none;stroke-width:0.133333"/><path id="path3120" d="M1045.2 217.7q-.06-.6-.23-1.22c-.75-2.55-3.8-5.7-6.52-3.63a.6.6 0 0 0-.15.84c1.34 2.17 3.76 3.61 1.89 6.43-1.4 2.11-3.91 3.53-6.08 4.7-2.62 1.41-9.11 2.98-10.2 6.12-.2.57-.03 1.21.56 1.48 2.28 1 6.03-.89 8.1-1.8a38 38 0 0 0 7.59-4.24q.42-.26.82-.48c1.63-.9 3.34-2.07 4.35-3.69.88-1.41 1-3.2-.14-4.5" style="fill:#8abfd9;fill-opacity:1;fill-rule:nonzero;stroke:none;stroke-width:0.133333"/><path id="path3121" d="M986.53 224.93c-1-1.95-4.58-6.86-.62-8.08.73-.23.65-1.43-.13-1.51-1.3-.15-2.36-.2-3.45.63s-1.57 2.32-1.7 3.64q-.05.56 0 1.16l-.02-.03c-.58-1.32-.42-2.44-.15-3.79.05-.26-.27-.5-.5-.32-2.57 2.05-1.84 7.14 1.66 7.6h.11c.78 1.3 1.94 2.28 3.4 2.38.83.05 1.88-.75 1.4-1.68" style="fill:#8abfd9;fill-opacity:1;fill-rule:nonzero;stroke:none;stroke-width:0.133333"/><path id="path3122" d="M996.5 213.36a3.3 3.3 0 0 0-2.89-1.19c-.96.15-1.44.83-1.57 1.73-.07.53.57 1.07 1.05.67l.1-.08.15-.02.14.05c.34.15.93.64 1.38.85 1.14.53 2.57-1 1.64-2.01" style="fill:#8abfd9;fill-opacity:1;fill-rule:nonzero;stroke:none;stroke-width:0.133333"/><path id="path3123" d="M1045.63 242.2c-.64 1.38-1.38 2.63-2.12 3.92a1.9 1.9 0 0 0-.91-1.39l.3-1.37a1.8 1.8 0 0 0-.32-1.54l.02-.13c.13-1.13-1.48-2.13-2.2-1l-.32.55c-.46.18-.88.5-1.14 1-1.34 2.51-1.84 5.24-2.32 8-1.53.89-1.92-.28-1.77-2.17.14-1.78-1.55-2.66-2.84-2.3-1.3-.74-3.23-.5-3.29 1.42-.04 1.57-.1 3.1-.04 4.63-.8.77-2.15 1.11-3.51 1.1q-.63-.09-1.27-.11a2.3 2.3 0 0 0-1.77.54q.47-1.36.35-3.24c-.13-1.96-2.84-2.74-4.04-1.27l.06-1.02c.1-2.38-3.51-3.83-4.34-1.2q-.43 1.38-.93 2.7l-.1-1c-.17-2.48-3.81-2.4-4.22-.08-.35 2.07-.43 4-.06 5.9q-2.3-.23-4.6-.5l-.13-.38c-.94-2.21-1.12-4.2-1.5-6.51-.34-2.05-3.09-2.53-3.98-.59q-.62 1.39-1.26 2.7c-.26-1.15-.44-2.34-.7-3.39-.48-1.85-3.03-1.5-3.71-.05l-.34-1.25c-.44-1.56-2.49-.77-2.53.58l-.12.85q-.03.21.12.34.06 2.63.8 5.13-1.38-.32-2.71-1.04l-.01.03a1.8 1.8 0 0 0-1.73.26c-1.52-.4-2.94-1-4.14-2.03-1.56-1.35-3.93-4.68-6.36-3.49-1.12.55-1.7 1.91-.87 3 1.53 2.02 4 3.97 6.07 5.43 2.97 2.1 7.97 2.32 11.64 2.68a2.5 2.5 0 0 0 2.25 1.33c6.05-.08 11.98 1.43 18.02 1.62 1.13.04 1.94-.53 2.29-1.33 3.78 2 8.86 1.65 12.73.21q.65-.25.99-.7a9 9 0 0 0 1.48-.6c1 .28 2.18-.1 2.7-1.26l.13-.3a4 4 0 0 0 2.29.42c6.8 2.52 12.37-5.8 14-11.4.76-2.64-2.82-4.32-4.04-1.7" style="fill:#6b98c2;fill-opacity:1;fill-rule:nonzero;stroke:none;stroke-width:0.133333"/><path id="path3124" d="M1054.12 261.74c-1.22-2.21-2.55-4-2.77-6.59-.36-2.1-3.33-2.23-3.73-.08q-.06.36-.07.72c-.57-.42-1.32-.6-1.96-.27l-.48.27h-.01l-.86.48a10 10 0 0 0-2 1.1q-.59.46-.72 1.07l-.9.5c-.3.17-.46.45-.56.75-.6-.63-1.57-.96-2.34-.56q-.9.45-1.81.79l-1.5.4q-.67.13-1.29.35l-.88.22q-.57.14-.95.47c-2.15-.7-4.62-.38-6.81.08a17 17 0 0 0-8.8.44l-.12.07q-.14-.2-.33-.37c-3.85-3.13-10.84-2.39-15.42-1.66q-.26.04-.48.15a2.4 2.4 0 0 0-1.38-.37q-3 .08-6 .1-.57.01-.95.25l-.11.03q-.29-.39-.8-.58c-1.62-.53-3.25-.9-4.93-1.27a2 2 0 0 0-1.37.15 26.5 26.5 0 0 1-10.76-6.76c-1.63-1.71-4.49.2-3.03 2.23 1.5 2.1 2.8 4 1.94 6.8-.32 1.04.12 1.9.85 2.26-.87 1.22-1.8 2.4-2.68 3.63l-.16.28a.8.8 0 0 0-.78.1 36 36 0 0 0-3.24 2.56 2.1 2.1 0 0 0-2.45.4 85 85 0 0 0-7.82 9.65c-2.46 3.47-4.07 7.35-6.85 10.6-.96 1.13.56 2.59 1.73 1.83 5.5-3.52 14.9-9.69 15.63-16.83q.02-.39-.21-.7 1.97-3 4.13-5.85c.5.86 1.57 1.34 2.48.5 2.55-2.33 5.34-4.62 7-7.69a23 23 0 0 0 6.51 2.27c-1.15 2.36-2.46 4.64-3.55 7.04-.71 1.59.68 3.03 2.1 3.1a21 21 0 0 1-2.63 3.7c-1.97 2.18 1.65 4.96 3.62 2.8 4.08-4.52 5.11-12.95 10.84-15.57l1.08.1.6.04c.82.05 1.45-.28 1.87-.78 2.33 1.1 4.75 1.95 5.1 4.63l.06.75c.12 1.07.75 1.65 1.5 1.83q.09.67.13 1.34.11 2.11.16 4.16c.04 2.9 4.47 2.33 4.45-.51a49 49 0 0 0-.3-5.61c-.03-2.05.23-4.04 1.36-5.63q.17-.24.27-.5.78.11 1.6.1.58-.01.95-.35.13.11.31.19c2.09.77 4.47.58 6.66.72l.25.03q.78 1.28 1.8 2.33c.1.59.2 1.24.4 1.9.59 2.02 4.1 1.69 4.14-.47l.01-1.81v-.02q.07-.97.1-1.92.86.07 1.63.44c1.12.56 2.06.05 2.53-.78a24 24 0 0 0 3.28-.72c.07 3 .25 5.97.45 8.96-1.18 3.43-.82 8.17 2.32 9.93 2.94 1.65 3.98-1.08 4.32-3.99q.36-.55.38-1.24c0-1.25-.07-2.42-.25-3.66a2.2 2.2 0 0 0-1.26-1.76q-.45-1.6-.85-3.2-.12-.46-.4-.82-.29-3.28-.46-6.57c.53.4 1.26.43 1.92.04.13-.07.32-.22.5-.37l1.07-.51q.4.15.82.13c1.32-.05 1.62-1.1 2.38-1.82l.12-.07.26-.18q.15.4.5.65a26 26 0 0 0 2.18 4.1c1.26 2.04 4.88.05 3.71-2.07" style="fill:#6b98c2;fill-opacity:1;fill-rule:nonzero;stroke:none;stroke-width:0.133333"/><path id="path3125" d="M1060.57 270.27c-1.3-2.14-3.55-3.39-5.24-5.15-.44-.46-1.2.26-.82.76 1.37 1.8 2.12 4.01 3 6.05 1.03 2.33 4.39.54 3.06-1.66" style="fill:#6b98c2;fill-opacity:1;fill-rule:nonzero;stroke:none;stroke-width:0.133333"/><path id="path3126" d="M1023.36 279.37c.92-.63 1.87-1.22 2.88-1.63h.07l-1.48.86q-.69.38-1.47.77m6.62-5.05q-1.23-.02-2.55 0a2.6 2.6 0 0 0-.64-1.14c-3.16-3.05-7.8 1.95-9.77 4.14-1.38 1.52.76 3.3 2.29 2.38l.03.04.92-.8a6 6 0 0 1 1.95-.86q-1.17 1.03-1.9 2.46c-.13.29.08.57.34.61l-.06.05a.5.5 0 0 0 .06.68c1.18.97 2.84.1 4.01-.45 1.9-.88 3.71-1.84 5.63-2.66.75-.32.93-1.23.63-1.85 1.17-.82.48-2.74-.94-2.6" style="fill:#a9dcff;fill-opacity:1;fill-rule:nonzero;stroke:none;stroke-width:0.133333"/><path id="path3127" d="M1022.32 266.69c-1.92-1.1-4.37.51-5.56 2-.7.89-.33 1.95.48 2.45.13.4.43.75.8.9 1.23.52 2.71-.43 3.62-1.24.53-.48.7-1.08.6-1.62l.3-.18c.88-.64.62-1.82-.24-2.31" style="fill:#a9dcff;fill-opacity:1;fill-rule:nonzero;stroke:none;stroke-width:0.133333"/><path id="path3128" d="M1057.25 276.39c-.44-.56-1.14-.91-1.72-1.31l-.34-.21c.34-.8.22-1.76-.7-2.43a7 7 0 0 0-2.86-1.23q-.6-1.95-1.41-3.84-.3-.7-.81-1.01-.38-.61-.83-1.16c-1.2-1.42-3.5-.26-2.9 1.57l.35 1.1q-.05.27-.05.55c.03.9.3 2.52-.43 3.23-1.47 1.4-.8 4.21 1.56 3.93l1.36-.17c.68.6 1.78.6 2.64.18q.36.12.68.34c.77.57 1.6.54 2.26.2l.02.02.45.7c.22.36.28.76.55 1.1 1.07 1.36 3.26-.2 2.18-1.56" style="fill:#a9dcff;fill-opacity:1;fill-rule:nonzero;stroke:none;stroke-width:0.133333"/><path id="path3129" d="M1040.8 228.7c-1.62-.38-2.53.18-4.05.83-2.64 1.13-5.54 1.64-8.35 2.11-3.75.63-8.44.06-11.62 2.4-.22.17-.28.55-.03.73 3.6 2.6 9.37 1.3 13.45.74 3.63-.5 10.48-1.25 11.65-5.33.2-.7-.44-1.33-1.06-1.48" style="fill:#a9dcff;fill-opacity:1;fill-rule:nonzero;stroke:none;stroke-width:0.133333"/><path id="path3130" d="M989.85 233.33c-1.1-1.3-3.1-1.15-4.69-1.34-1.5-.19-3.71-.85-4.99.26-.12.1-.24.3-.15.48.72 1.48 2.61 1.76 4.08 2.13 1.72.43 4.36 1.16 5.7-.34.28-.3.31-.87.05-1.19" style="fill:#a9dcff;fill-opacity:1;fill-rule:nonzero;stroke:none;stroke-width:0.133333"/><path id="path3131" d="M975.8 225.73c-.17-.68-.67-1.25-1.03-1.84-.36-.62-.66-1.34-1.22-1.8a.74.74 0 0 0-1.13.25c-.37.8-.1 1.62.17 2.4a4.5 4.5 0 0 0 1.48 2.23c.94.61 2.02-.14 1.74-1.24" style="fill:#a9dcff;fill-opacity:1;fill-rule:nonzero;stroke:none;stroke-width:0.133333"/><path id="path3132" d="M965.19 260.3q-.55.26-1.07.56a2.4 2.4 0 0 0-2.86-1.1q-3 1.12-5.8 2.6a2 2 0 0 0-1.24.07c-3.3 1.17-5.8 3.48-8.39 5.77a2.28 2.28 0 0 0 .3 3.73q-.44.6-.86 1.23c-1.47 2.24 1.52 4.63 3.3 2.57 2.68-3.1 5.34-6.67 9.45-7.65q.33.07.68 0c1.77-.31 3.28-.98 4.78-1.76.6.38 1.4.44 2.09-.04a8 8 0 0 0 2.26-2.47c1.07-1.71-.42-4.63-2.64-3.52" style="fill:#a9dcff;fill-opacity:1;fill-rule:nonzero;stroke:none;stroke-width:0.133333"/><path id="path3133" d="M979.65 265.5c-2.35.42-4.24 2.3-5.83 3.95-1.43 1.47-3.95 4.4-2.2 6.5.43.52 1.04.76 1.64.77.79.9 2.4 1.2 3.28.04q.96-1.24 1.82-2.6c1.33-1.8 2.67-3.6 3.51-5.67.57-1.43-.58-3.27-2.22-2.98" style="fill:#a9dcff;fill-opacity:1;fill-rule:nonzero;stroke:none;stroke-width:0.133333"/><path id="path3134" d="M999.18 267.39a7 7 0 0 0-2.32 3.36q-.35.38-.6.82c-.49.8-.64 1.7-.08 2.5-.1.89.5 1.93 1.65 1.93.93 0 1.35-.66 1.35-1.37 1.64-.9 2.8-2.9 3.48-4.53.89-2.08-1.67-4.12-3.48-2.71" style="fill:#a9dcff;fill-opacity:1;fill-rule:nonzero;stroke:none;stroke-width:0.133333"/><path id="path3135" d="M994.47 241.37c-2.34-3-8.05-2.71-11.5-2.62-1.46.04-1.51 2-.42 2.58 1.53.81 3.26 1.04 4.94 1.32 1.96.34 3.9 1.13 5.89 1.15 1.17 0 1.76-1.58 1.1-2.43" style="fill:#a9dcff;fill-opacity:1;fill-rule:nonzero;stroke:none;stroke-width:0.133333"/><path id="path3136" d="M1031.84 237.96c-2.07-.54-4.26.1-6.32.5-2.14.4-4.22.79-6.15 1.83-.33.17-.27.74.07.87 2.09.75 4.2.64 6.38.35s4.62-.53 6.4-1.89c.67-.51.4-1.45-.38-1.66" style="fill:#a9dcff;fill-opacity:1;fill-rule:nonzero;stroke:none;stroke-width:0.133333"/><path id="path3137" d="M1013.13 215.1c-.07-.4-.48-.61-.85-.4-5 2.97-4.98 9.56-4.7 14.66.08 1.29 2.04 1.11 2-.16-.1-2.78 1.42-4.26 2.2-6.77.79-2.56 1.77-4.68 1.35-7.32" style="fill:#7c1d15;fill-opacity:1;fill-rule:nonzero;stroke:none;stroke-width:0.133333"/><path id="path3138" d="M1064.16 298.75v-.3a1.9 1.9 0 0 0-1.38-1.67q-1.29-1.21-3.21-2.1l-.14-.06q.29-.52.08-1.15c-.91-2.38-3.67-3.47-5.56-5a18 18 0 0 1-2.37-2.27 3 3 0 0 0-.3-.73c-.97-1.65-1.75-3.39-2.54-5.13a2 2 0 0 0-.54-.7l.17-.44q.1-.22.08-.46l-.02-.16c.03.03.07.03.15-.1.23-.38-.23-.7-.56-.63-.16.04-.19.07-.18.09l-.15-.03c-.23-.05-.43.02-.64.11a4 4 0 0 0-1.58 1.36q-.48.27-.7.77l-.25.17c-1.57 1.28-2.05 2.64-4.33 2.4-.96-.1-1.93-.41-2.85-.69q-.47-.12-1.05-.23c-1.32-2.17-4.71-2.6-7.1-1.88-2.93.9-5 3.8-7.5 5.4-.41.27-.26.94.21 1.01 2.3.38 4-.52 6.1-1.42 1-.42 2.08-.97 3.2-.87 1.27.12 1.97 1.46 3.4 1.56q.56.03 1.04-.17a8.6 8.6 0 0 0 4.31 2.06 8.3 8.3 0 0 0 5.44-.99 9 9 0 0 0 2.23 2.54q.57.44 1.14.54.38.44.8.86c1.29 1.26 3.06 3.03 4.98 4.1-.78 3.08.22 6.92.7 10.37-.26.04-.49.22-.52.47-.55 4.56-1.29 8.94-4.3 12.6q-1.14 1.37-2.5 2.49a1.5 1.5 0 0 0-1.12-.1c-4.16 1.16-9.3 4.1-12.31 7.27-1.41 1.5.75 3.2 2.26 2.4 5-2.67 11.34-4.05 15.82-7.66a19 19 0 0 0-.9 5.26q-.05.45-.04.9c-.03 2.4 3.32 2.06 3.87.11.48-1.71 1-2.97 2.14-4.35.56-.67 1.27-1.15 1.98-1.64a2.9 2.9 0 0 0 2.69-2.44c1.08-5.9 2.07-12.28 2.38-18.27a7 7 0 0 0-.53-3.2" style="fill:#7c1d15;fill-opacity:1;fill-rule:nonzero;stroke:none;stroke-width:0.133333"/><path id="path3139" d="M1017.72 287.12c-.73-.73-2.15.04-1.98 1.04 2.09 12.08-3.35 24.14-7.7 35.3-1.19-.88-2.6-1.59-3.7-2.23-.79-.45-2.1-1.1-3.04-1-.46.03-1.64.29-1.55 1 .21 1.67 1.88 2.43 3.2 3.27 1.56 1 3.03 2.67 4.74 3.35.58.23 1.13.14 1.56-.11.9.35 1.96.2 2.69-.82 4.5-6.26 6.22-14.63 7.66-22.09 1.07-5.55 2.56-13.26-1.88-17.71" style="fill:#7c1d15;fill-opacity:1;fill-rule:nonzero;stroke:none;stroke-width:0.133333"/><path id="path3140" d="M1006.28 280.91a3 3 0 0 0 0-.62l-.03-.2-.13-.47-.13-.29-.12-.2a3 3 0 0 0-.3-.4l-.2-.2-.25-.2q-.18-.15-.4-.25l-.13-.07-.05-.02q-.26-.4-.64-.72l.04-.04a5.9 5.9 0 0 0-6.08-.9l-.19.07-.04.02-.09.05-.19.1a6.4 6.4 0 0 0-2.5 2.07 5 5 0 0 0-.67 1.82c.05-.36-.6.45-.7.6q-.24.38-.28.86l-.44.55c-.62.79-1.6 1.45-1.91 2.4-.07.21-.07.46.13.6 1.25.95 2.8.03 3.96-.68.81-.5 1.8-1.33 2.84-1.93.42-.1.88-.22 1.2-.5l.1-.08a2.8 2.8 0 0 1 2.7.46q.3.24.65.38c.63.26 1.31.25 1.93.05a2.7 2.7 0 0 0 1.62-1.37l.08-.13.02-.03q.13-.3.18-.63l.01-.05z" style="fill:#7c1d15;fill-opacity:1;fill-rule:nonzero;stroke:none;stroke-width:0.133333"/><path id="path3141" d="m982.93 282.52-.05-.09c-.33-.66-.92-1.39-1.74-1.41-.9-.03-1.89.2-2.58.83-.63.58-1.34 1.33-.78 2.22.35.56 1.04.88 1.67 1l.11.02.22.13c.62.3 1.25.28 1.89.07 1.03-.34 1.77-1.75 1.26-2.77" style="fill:#7c1d15;fill-opacity:1;fill-rule:nonzero;stroke:none;stroke-width:0.133333"/><path id="path3142" d="M978.79 291.2c-.3-.59-.84-1.12-1.57-1-1.4.23-2 1.67-3.03 2.49-1.14.9-1.92 1.13-3.29.68-1.14-.38-2.28.75-1.54 1.86 1.28 1.92 3.99 1.73 5.85.9 1.5-.65 4.6-2.96 3.58-4.94" style="fill:#7c1d15;fill-opacity:1;fill-rule:nonzero;stroke:none;stroke-width:0.133333"/><path id="path3143" d="M969.62 304.03c-.72.07-1.3.51-1.92.83-.79.4-1.75.14-2.56-.04-1.7-.39-4.74-3.04-6.83-2.87-.01-.15-.16-.22-.32-.21-.07-.25-.1-.47-.3-.68-.13-.13-.35-.09-.46.04-.33.36-.28 1.04-.07 1.6-1.04 2.65 4.5 5.52 6.18 6.2 2.54 1.04 7.97 1.25 8.55-2.46a2.08 2.08 0 0 0-2.27-2.4" style="fill:#7c1d15;fill-opacity:1;fill-rule:nonzero;stroke:none;stroke-width:0.133333"/><path id="path3144" d="M995.9 332.77c-.28-.4-.92-.17-.9.32.12 2.19-3.93 6.07-5.33 7.54-3.27 3.45-8.53 5.21-13 6.4a2.5 2.5 0 0 0-1.33.79c-1.72-.46-2.99 1.83-1.55 3.06l.33.28c.43.37 1.1.5 1.66.34.7.74 1.75 1.17 2.97.86 5.66-1.47 11.18-3.96 14.97-8.56 2.78-3.38 4.9-7.22 2.18-11.03" style="fill:#7c1d15;fill-opacity:1;fill-rule:nonzero;stroke:none;stroke-width:0.133333"/><path id="path3145" d="M1049.5 353.23c-1.52-1.1-3.35.02-4.87.65-1.54.63-3 1.42-4.25 2.51-4.56.74-9.09 2.01-13.61 2.84a104 104 0 0 1-20.88 1.7c-6-.13-12.02-1.19-17.9-2.35q-2.87-.57-5.74-1.23c-2.01-.47-4.73-.32-6.6-1.2-.37-.17-.83.2-.67.6 3.6 9.08 20.49 9.45 28.29 10.02 7.44.54 15.06-.22 22.41-1.3 6.75-1 14.15-2.63 19.74-6.72.49-.36.67-.88.63-1.38 1.43-.75 3.46-1.31 3.87-3.02.09-.39-.1-.9-.42-1.12" style="fill:#7c1d15;fill-opacity:1;fill-rule:nonzero;stroke:none;stroke-width:0.133333"/><path id="path3146" d="M996.16 319.9a3.2 3.2 0 0 0-1-2.78 16 16 0 0 0-3.5-2.5 3 3 0 0 0-1.22-.37q-.17-.19-.35-.36l-.03-.02a56 56 0 0 0-3.15-2.96c-1.33-1.63-2.9-3-5-3.6a5 5 0 0 0-.41-1.2l-.06.06c-.67-1.44-2.9-2.27-4-.16q-.29.58-.45 1.24a3.5 3.5 0 0 0-.5 1.87c-.01 1.17-.07 2.41.02 3.62v.56q.03.39.17.73l.02.12a2.9 2.9 0 0 0 2.71 2.36 2.4 2.4 0 0 0 1.89 2.2c.26.72.4 1.45.6 2.17-1.35 1.84.64 4.28 2.74 3.55 1.84-.64 4.07.37 5.91.62a2.7 2.7 0 0 0 2.73-1.25c1.8-.07 3.3-2 2.88-3.9" style="fill:#d65e54;fill-opacity:1;fill-rule:nonzero;stroke:none;stroke-width:0.133333"/><path id="path3147" d="M1008.84 348.04a9.3 9.3 0 0 1-.72-4.99c.1-1.23.46-2.27.1-3.33.32-.62.6-1.25.33-1.96a1.7 1.7 0 0 0-1.8-1.13c-2.47.23-3.71 3.76-4.2 5.73a11 11 0 0 0-.05 4.44c.12 1.17.42 2.32.94 3.35 1.26 3.53 6.89 1.31 5.4-2.1" style="fill:#d65e54;fill-opacity:1;fill-rule:nonzero;stroke:none;stroke-width:0.133333"/><path id="path3148" d="M1039.9 294.79c-1.96-1.92-5.01-1.74-7.37-.69-2.48 1.12-4.29 3.39-5.68 5.64-1.43 2.32-1.29 3.96-.74 6.49.1.43.65.5.97.31.99-.57 1.97-.99 2.85-1.75 1.18-1.02 1.84-2.73 2.8-3.96.9-1.15 1.96-2.03 3.44-2.19 2.07-.22 2.67 1.12 4.09 2.15.4.3.95.28 1.29-.12 1.54-1.81-.22-4.5-1.64-5.88" style="fill:#d65e54;fill-opacity:1;fill-rule:nonzero;stroke:none;stroke-width:0.133333"/><path id="path3149" d="M980.96 286.97c-.21-.84-1.23-1.35-2.03-1.27-.82.08-1.7.77-1.75 1.64-.05.66-.14 1.38.15 1.99.74 1.56 2.85 1.73 3.65.1.41-.83.19-1.62-.02-2.46" style="fill:#d65e54;fill-opacity:1;fill-rule:nonzero;stroke:none;stroke-width:0.133333"/><path id="path3150" d="M969.11 317.34c.05-.55-.31-1-.89-.98-1.31.04-2.8.99-3.78 1.84a5.7 5.7 0 0 0-2.13 4.6c0 2.18 3.37 2.59 4.11.65.22-.58.69-1.02.8-1.67a2 2 0 0 0-.11-1.05c.7-1.11 1.9-2.1 2-3.39" style="fill:#d65e54;fill-opacity:1;fill-rule:nonzero;stroke:none;stroke-width:0.133333"/><path id="path3151" d="M976.46 314.68c-1.03-.72-2.37-.6-3.49-.1-1.05.49-2.55 2.22-.95 3.07.88.47 1.57-.3 2.4-.43.4-.07.83.07 1.25.06.63-.02 1.24-.6 1.31-1.22.06-.5-.08-1.07-.52-1.38" style="fill:#7c1d15;fill-opacity:1;fill-rule:nonzero;stroke:none;stroke-width:0.133333"/><path id="path3152" d="M1025.2 328.12c-1.87-.05-3.5 1.69-4.62 3.01-.93 1.1-2.26 3.42-1.13 4.8.95 1.15 2.6.48 2.62-.96 0-.35-.02-.33.2-.75.27-.55.72-1.05 1.12-1.5.76-.9 1.74-1.57 2.69-2.23 1.15-.8.35-2.33-.87-2.37" style="fill:#7c1d15;fill-opacity:1;fill-rule:nonzero;stroke:none;stroke-width:0.133333"/><path id="path3153" d="M1036.46 300.56c-2-1.1-5.12.44-6.4 2.07-1.37 1.76-3.4 5.6-2.21 7.83.7 1.34 2.1 1.57 3.18.52 1.22-1.16 1.43-3.66 2.06-5.2.29-.71.67-1.5 1.07-2.16.47-.75 1.13-.61 1.9-.76 1.2-.22 1.51-1.7.4-2.3" style="fill:#ca363b;fill-opacity:1;fill-rule:nonzero;stroke:none;stroke-width:0.133333"/><path id="path3154" d="M1040.72 305.83c-1.9-1.39-4.33-.93-5.9.7a5.1 5.1 0 0 0-.63 6.07c1.19 1.85 4.42 3.09 6.27 1.55a2.6 2.6 0 0 0 1-2.27q.21-.3.38-.6c1-1.8.57-4.21-1.12-5.45" style="fill:#f26660;fill-opacity:1;fill-rule:nonzero;stroke:none;stroke-width:0.133333"/><path id="path3155" d="M1022.26 345.88a2.7 2.7 0 0 0-1.07-1.54 4.3 4.3 0 0 0-2.63-3.29c-2.12-.88-4.83.2-5.2 2.62-.34 2.23 1.14 3.9 3.03 4.8 1.51.72 3.81.87 5.13-.29 1.18-.13 1.39-1.5.74-2.3" style="fill:#f26660;fill-opacity:1;fill-rule:nonzero;stroke:none;stroke-width:0.133333"/><path id="path3156" d="M1028.09 346.78c-.9-.7-2.02-.64-2.94-.05l-.06.04c-1.37.86-1.26 2.97-.07 3.9 1.42 1.13 3.72.3 3.95-1.55l.01-.08c.1-.86-.2-1.72-.9-2.26" style="fill:#f26660;fill-opacity:1;fill-rule:nonzero;stroke:none;stroke-width:0.133333"/><path id="path3157" d="M1051.95 335.12c-1.17-1.57-3.89-1.56-4.9.14q-.24.3-.4.71a2.8 2.8 0 0 0 .83 3.21c.79.74 2.18.95 3.17.52a3.03 3.03 0 0 0 1.3-4.58" style="fill:#f26660;fill-opacity:1;fill-rule:nonzero;stroke:none;stroke-width:0.133333"/><path id="path3158" d="M995.8 298.21c-.67-1.8-2.76-3.49-4.75-2.39a4.4 4.4 0 0 0-2.28 2.9q-.32.12-.63.28c-1.02.55-1.64 1.7-1.93 2.76a3.4 3.4 0 0 0 1.32 3.46c1.45 1.03 3.28.8 4.75-.02 2.17-1.2 4.48-4.42 3.53-6.99" style="fill:#f26660;fill-opacity:1;fill-rule:nonzero;stroke:none;stroke-width:0.133333"/><path id="path3159" d="M977.27 325.7a2.5 2.5 0 0 0-.93-.82c-1.15-1.52-3.16-1.97-5.05-1.48-2 .52-3.08 2.76-3.5 4.57a5.7 5.7 0 0 0 1.83 5.55c2.07 1.82 5.26 1.16 7-.71a5.86 5.86 0 0 0 .65-7.1" style="fill:#f26660;fill-opacity:1;fill-rule:nonzero;stroke:none;stroke-width:0.133333"/><path id="path3160" d="M983.32 330.3a2.6 2.6 0 0 0-1.88-.53c-.76.08-1.24.46-1.77.98-.87.86-.91 2.13-.45 3.18q.08.8.77 1.38c.64.5 1.4.58 2.1.33q.24-.04.5-.13c1.03-.4 1.49-1.27 1.58-2.28l.02-.03v-.02a2.7 2.7 0 0 0-.87-2.87" style="fill:#f26660;fill-opacity:1;fill-rule:nonzero;stroke:none;stroke-width:0.133333"/><path id="path3161" d="M968.1 287.5q-.11-.3-.27-.56c.16-1.1-.13-2.3-1.11-2.9a3.5 3.5 0 0 0-2.94-.42c-.95.23-1.62 1.25-2.03 2.05a6 6 0 0 0-.53 1.71c-1.03 1.4-.78 3.15.79 4.07q.38.23.82.24c1.54.93 3.62.56 4.77-.96.72-.95.87-2.12.5-3.23" style="fill:#f26660;fill-opacity:1;fill-rule:nonzero;stroke:none;stroke-width:0.133333"/><path id="path3162" d="M1058.33 280.42a2.8 2.8 0 0 0-3.3.86 5 5 0 0 0-.84 1.98c-.2.86.03 1.6.45 2.26q.33.64.92 1.04l.15.1c.64.38 1.42.54 2.14.38.4-.1.85-.1 1.22-.3.97-.53 1.73-1.22 1.92-2.37.3-1.88-1.1-3.22-2.66-3.95" style="fill:#f26660;fill-opacity:1;fill-rule:nonzero;stroke:none;stroke-width:0.133333"/><path id="path3163" d="M1037.45 345.55c-.29-2.12-.51-4.6-1.9-6.32-.32-.41-1.14-.5-1.35.12-.6 1.81-.37 3.77-.36 5.66.01 1.8-.34 3.77.21 5.43-1.48.9-.83 3.86 1.42 3.86 1.69 0 2.14-1.63 1.58-2.85 1.14-1.62.65-4.02.4-5.9" style="fill:#ac253b;fill-opacity:1;fill-rule:nonzero;stroke:none;stroke-width:0.133333"/><path id="path3164" d="M1049 306.8c-.29-.52-.6-.96-1.07-1.34-.35-.28-.8-.21-1.13-.42-.5-.32-1.33.23-.86.79.62.74-.68 3.46-1 4.2-.73 1.7-2.16 2.95-2.8 4.66-.57 1.5.75 2.97 2.3 2.46 2.5-.82 3.9-4 4.64-6.32.4-1.27.59-2.8-.08-4.02" style="fill:#ac253b;fill-opacity:1;fill-rule:nonzero;stroke:none;stroke-width:0.133333"/><path id="path3165" d="M1004.51 295.56c-.48.03-.69.5-.6.92a14 14 0 0 1-.16 6.97c-.56 2.34-1.74 4.51-1.8 6.94-.04 1.45 2 2.24 3.05 1.38 2.58-2.12 3.47-6.36 3.71-9.55.2-2.55-.93-6.8-4.2-6.66" style="fill:#ac253b;fill-opacity:1;fill-rule:nonzero;stroke:none;stroke-width:0.133333"/><path id="path3166" d="M983.39 336.62c-1.6-.28-3.34.9-4.81 1.4-1.7.58-3.23.77-4.98.86a.9.9 0 0 0-.78.7c-.65 4.63 11.71 3.18 11.95-1.02.06-.92-.4-1.77-1.38-1.94" style="fill:#ac253b;fill-opacity:1;fill-rule:nonzero;stroke:none;stroke-width:0.133333"/><path id="path3167" d="m967.53 299.82.05-.05z" style="fill:#ac253b;fill-opacity:1;fill-rule:nonzero;stroke:none;stroke-width:0.133333"/><path id="path3168" d="m967.83 298.13-.44-.66a4 4 0 0 0-.79-.44c-.4-.18-.8-.34-1.18-.58-.44-.28-.9-.67-1.39-.89-.66-.3-1.7-.06-1.98.68-.51 1.35.67 2.39 1.7 3.08q.87.62 1.89.92c.27.07.6.11.88.09q.43-.04.79-.3l.27-.26c.51-.45.57-1.05.25-1.64" style="fill:#ac253b;fill-opacity:1;fill-rule:nonzero;stroke:none;stroke-width:0.133333"/><path id="path3169" d="M993.17 217.65c2.43-.43 4.88 2.53 6.57 3.85.7.54 1.55-.36 1.07-1.05q-.52-.76-1.34-1.55c-.2-4.28 7.04-6.72 8.94-2.51 1.06 2.37-.56 5.71-1.54 7.84-1.04 2.25-2.48 4.66-4.36 6.33-3.2-2.36-7.05-3.43-9.82-6.54-1.58-1.8-3-5.76.48-6.37m16.32 4.73c.45-1.2.84-2.7.87-4.16.49-1.63 1.2-3.1 2.9-4.01 2.37-1.27 1.97 3.15 1.42 5.1q-.21.45-.38.94c-.32.99.96 1.49 1.46.61q.23-.4.43-.98a4.8 4.8 0 0 1 4.7-2.6c1.62.08 4.1 1.15 3.53 3.18-.83 2.9-5.5 4.48-7.95 5.5-2.85 1.18-5.73 2.2-8.42 3.67q.1-1.84-.11-3.65.9-1.8 1.55-3.6m-7.42 9.16c.13.5.7.9 1.24.47a16 16 0 0 0 3.25-3.65q-.02 1.27-.14 2.55c-.07.71.65 1.08 1.23.73 4.6-2.81 10-3.95 14.61-6.75 2.15-1.3 4.62-3.56 3.61-6.33-.73-2.01-3.43-2.92-5.37-2.88-1.42.02-2.7.44-3.73 1.17.07-1.87-.44-3.68-2.16-4.1-2.3-.53-3.74.98-4.64 3a4 4 0 0 0-1.3-1.77c-3.21-2.58-10.45-.44-10.49 3.84-1.43-1.07-3.12-1.88-4.55-1.86-2.57.04-4.26 1.69-4.33 4.27-.17 5.45 7.88 10.4 12.77 11.3" style="fill:#422000;fill-opacity:1;fill-rule:nonzero;stroke:none;stroke-width:0.133333"/><path id="path3170" d="M974.54 270.5c-.72.6-5.83 7.22-4.18 7.64l.13-.05.08-.07c.13-.24.18-.52.28-.78.32-.86.89-1.65 1.4-2.4.88-1.24 2.24-2.49 2.8-3.91.13-.3-.23-.66-.5-.43" style="fill:#422000;fill-opacity:1;fill-rule:nonzero;stroke:none;stroke-width:0.133333"/><path id="path3171" d="M996.09 274.03c-1.12-.05-2.2.9-2.94 1.65-.85.85-1.96 1.9-2.49 3-.1.23.15.57.41.44.91-.46 1.56-1.46 2.24-2.19q.65-.7 1.43-1.27c.48-.35 1.08-.48 1.53-.87.24-.2.22-.74-.18-.76" style="fill:#422000;fill-opacity:1;fill-rule:nonzero;stroke:none;stroke-width:0.133333"/><path id="path3172" d="M996.25 271.69c-.94-.2-1.97.66-2.66 1.2-.8.65-1.6 1.45-2.09 2.36-.1.16.12.3.26.22.78-.44 1.43-1.12 2.11-1.7q.54-.44 1.13-.8c.45-.28.97-.38 1.38-.7a.33.33 0 0 0-.13-.58" style="fill:#422000;fill-opacity:1;fill-rule:nonzero;stroke:none;stroke-width:0.133333"/><path id="path3173" d="M997.06 269.55c-.71-.4-1.67.28-2.25.66a5 5 0 0 0-1.74 1.9c-.08.15.12.31.26.21q.86-.66 1.8-1.24c.64-.38 1.57-.37 2.07-.91.2-.2.07-.5-.14-.62" style="fill:#422000;fill-opacity:1;fill-rule:nonzero;stroke:none;stroke-width:0.133333"/><path id="path3174" d="M995.97 266.23q-.88.22-1.62.76c-.12.1-.06.32.11.3q.76-.09 1.53-.15c.44-.03.95.1 1.3-.22.2-.17.23-.44.02-.62-.39-.34-.88-.19-1.34-.07" style="fill:#422000;fill-opacity:1;fill-rule:nonzero;stroke:none;stroke-width:0.133333"/><path id="path3175" d="m994.12 264.52 1.36-.17c.5-.05 1 .1 1.36-.3.15-.17.08-.4-.06-.54-.39-.4-1.02-.14-1.5-.02q-.76.17-1.32.72c-.12.12 0 .32.16.31" style="fill:#422000;fill-opacity:1;fill-rule:nonzero;stroke:none;stroke-width:0.133333"/><path id="path3176" d="M950.42 275.56c-.1-.11-.29.03-.23.16.27.66.5 1.34.79 2 .25.57.4 1.28.87 1.7.24.23.56-.02.56-.3.02-.64-.48-1.34-.77-1.91a7 7 0 0 0-1.22-1.65" style="fill:#422000;fill-opacity:1;fill-rule:nonzero;stroke:none;stroke-width:0.133333"/><path id="path3177" d="M953.02 273c-.39-.12-.6 0-.96.06-.21.04-.2.35.02.34.28-.02.62.32.82.49.31.25.44.67.48 1.05.03.3-.03.59.24.8.2.15.55.02.64-.21.26-.7.03-1.4-.42-1.96-.22-.26-.5-.48-.82-.57" style="fill:#422000;fill-opacity:1;fill-rule:nonzero;stroke:none;stroke-width:0.133333"/><path id="path3178" d="M954.02 270.26c-.2-.02-.32.26-.11.34.45.2.83.63 1.1 1.02.26.38.33.84.74 1.07.23.13.46-.06.52-.27.15-.55-.42-1.12-.76-1.48a2.2 2.2 0 0 0-1.49-.68" style="fill:#422000;fill-opacity:1;fill-rule:nonzero;stroke:none;stroke-width:0.133333"/><path id="path3179" d="M956.76 267.8c-.2 0-.23.29-.06.37q.77.42 1.25 1.17c.23.34.57 1.08 1.05.55.1-.12.13-.31.07-.46a2.5 2.5 0 0 0-2.3-1.63" style="fill:#422000;fill-opacity:1;fill-rule:nonzero;stroke:none;stroke-width:0.133333"/><path id="path3180" d="M974.06 264.18a2.8 2.8 0 0 0-2.34-.7c-.16.03-.13.24-.02.31.64.37 1.27.6 1.78 1.16.42.45.57 1.35 1.2 1.5l.35-.14c.48-.7-.46-1.67-.97-2.13" style="fill:#422000;fill-opacity:1;fill-rule:nonzero;stroke:none;stroke-width:0.133333"/><path id="path3181" d="M976.26 262.36c-.79-.48-1.5-.25-2.27.06-.21.09-.1.41.11.33.62-.22 1.33.12 1.79.53.4.37.48.96 1.05 1.1.18.05.36-.08.44-.23.36-.73-.58-1.46-1.12-1.8" style="fill:#422000;fill-opacity:1;fill-rule:nonzero;stroke:none;stroke-width:0.133333"/><path id="path3182" d="M971.36 256.62c.59-.3 1.05-.9 1.48-1.38.38-.43.9-.93 1.02-1.52l-.22-.19c-.5.22-.87.72-1.25 1.1-.48.46-1.12.94-1.43 1.54-.13.24.15.58.4.45" style="fill:#422000;fill-opacity:1;fill-rule:nonzero;stroke:none;stroke-width:0.133333"/><path id="path3183" d="M979.28 225.99c.24.17.56-.1.39-.35-.97-1.41-2.28-2.42-2.58-4.2-.3-1.8 1.3-5.12 3.24-5.44.15-.02.22-.23.06-.3-1.94-.82-3.45 2.84-3.85 4.16-.74 2.38.86 4.8 2.74 6.13" style="fill:#422000;fill-opacity:1;fill-rule:nonzero;stroke:none;stroke-width:0.133333"/><path id="path3184" d="M1031.97 231.8c5.39-.66 21.69-9 12.84-15.07-.21-.15-.48.16-.26.32 7.98 6.16-8.95 12.05-12.75 14.28-.23.13-.08.5.17.47" style="fill:#422000;fill-opacity:1;fill-rule:nonzero;stroke:none;stroke-width:0.133333"/><path id="path3185" d="M1046.72 256.45c-.2-.36-.8-.04-.64.33a7 7 0 0 0 1.23 1.82c.39.43 1.02 1.13 1.66.96.12-.04.2-.19.2-.31-.07-.56-.8-.94-1.2-1.28q-.75-.66-1.25-1.52" style="fill:#422000;fill-opacity:1;fill-rule:nonzero;stroke:none;stroke-width:0.133333"/><path id="path3186" d="M1023.33 278.57c-.93.5-2.28 1.47-2.36 2.62-.02.35.36.53.6.28.8-.81 1.3-1.55 2.37-2.07.8-.38 1.92-.3 2.59-.88.13-.12.17-.33.02-.45-.9-.7-2.37.05-3.22.5" style="fill:#422000;fill-opacity:1;fill-rule:nonzero;stroke:none;stroke-width:0.133333"/><path id="path3187" d="M1025.08 274.6c-.97.24-1.94.67-2.66 1.36-.26.25.1.72.4.58.83-.38 1.6-.74 2.5-.93.67-.15 1.55.07 2.11-.37.13-.1.2-.32.08-.46-.6-.65-1.66-.38-2.43-.18" style="fill:#422000;fill-opacity:1;fill-rule:nonzero;stroke:none;stroke-width:0.133333"/><path id="path3188" d="M1027.7 270.87c-1.52-.74-3.66.25-5.12.8-.44.16-.2.81.25.68q1.3-.4 2.64-.65c.74-.14 1.5-.06 2.22-.3.25-.07.24-.42.02-.53" style="fill:#422000;fill-opacity:1;fill-rule:nonzero;stroke:none;stroke-width:0.133333"/><path id="path3189" d="M1049.2 272.97c-.3.22-.04.64.3.56q.74-.16 1.5-.16c.52-.01.99.18 1.44-.13.19-.14.25-.43.1-.62-.4-.5-1.06-.41-1.65-.34q-.93.13-1.68.69" style="fill:#422000;fill-opacity:1;fill-rule:nonzero;stroke:none;stroke-width:0.133333"/><path id="path3190" d="M1048.55 270.58c.42-.08.83-.03 1.26-.04.45 0 .97.14 1.33-.2.16-.14.18-.34.02-.5-.34-.31-.8-.22-1.24-.19-.52.04-1 .18-1.51.3-.35.1-.22.7.14.63" style="fill:#422000;fill-opacity:1;fill-rule:nonzero;stroke:none;stroke-width:0.133333"/><path id="path3191" d="M1062.36 272.34c.37-.22.63-.38 1.08-.38.35 0 .8-.11.75-.56-.02-.16-.12-.34-.29-.4-.83-.28-1.94 0-2.19.94-.1.38.38.57.65.4" style="fill:#422000;fill-opacity:1;fill-rule:nonzero;stroke:none;stroke-width:0.133333"/><path id="path3192" d="M982.92 354.03c-.92-.23-1.84-.5-2.8-.47-.28.01-.35.44-.1.55q1.18.46 2.4.79c.81.22 1.72.58 2.54.28.28-.1.24-.43.03-.56-.61-.37-1.39-.41-2.07-.59" style="fill:#422000;fill-opacity:1;fill-rule:nonzero;stroke:none;stroke-width:0.133333"/><path id="path3193" d="M991.37 355.32c-.58-.11-1.17-.23-1.76-.27-.27-.01-.4.32-.14.46q.75.37 1.57.59c.45.13 1.03.28 1.49.07.16-.08.21-.28.07-.41-.33-.3-.81-.36-1.23-.44" style="fill:#422000;fill-opacity:1;fill-rule:nonzero;stroke:none;stroke-width:0.133333"/><path id="path3194" d="M998.96 356.27c-.43 0-.37.65.05.66q.8.01 1.6.14c.41.05.8.12 1.2 0 .14-.05.2-.29.06-.38-.77-.51-2.02-.43-2.91-.42" style="fill:#422000;fill-opacity:1;fill-rule:nonzero;stroke:none;stroke-width:0.133333"/><path id="path3195" d="M1009 358.19c.51.08 1.02.04 1.53.07.42.02.94.12 1.3-.13l.07-.39c-.3-.36-.78-.36-1.22-.38a4 4 0 0 0-1.72.28c-.25.1-.25.5.05.55" style="fill:#422000;fill-opacity:1;fill-rule:nonzero;stroke:none;stroke-width:0.133333"/><path id="path3196" d="M1017.93 356.7c-.36.07-.33.6.05.57.5-.04 1 0 1.49 0 .47 0 .97.08 1.38-.19.14-.09.17-.33.02-.43-.8-.51-2.08-.1-2.94.05" style="fill:#422000;fill-opacity:1;fill-rule:nonzero;stroke:none;stroke-width:0.133333"/><path id="path3197" d="M1027.74 356.06c-.3.05-.35.5-.02.54.62.1 1.28.2 1.77-.26l-.07-.32c-.55-.2-1.12-.05-1.68.04" style="fill:#422000;fill-opacity:1;fill-rule:nonzero;stroke:none;stroke-width:0.133333"/><path id="path3198" d="M1085.31 245.1c-.18 2.91.09 6.1-.78 8.9-1.35 4.32-8.2 3.23-11.55 2.88-6-.62-12.74-.76-18.6-2.8 2.03.26 4.09.31 6.13.34 4.15.05 8.3.64 12.44.1q1.45-.2 2.8-.8l.3.04a3.7 3.7 0 0 0 1.87-1.25c3.38-2.4 5.37-6.58 3.32-10.74-2.36-4.81-11.11-.92-14.44.38-3.82 1.5-7.34 3.64-11.04 5.4l-.5.23c5.67-3.37 11.65-6.18 17.6-9.08 2.75-1.33 5.55-2.94 8.65-3.2 4.64-.39 3.98 6.74 3.8 9.6m-25.04 1.77q1.86-.96 3.73-1.87a51 51 0 0 1 7.86-2.97c2.14-.63 4.64-1.48 6.83-.63 2.83 1.1 1.9 4.75.52 7.22a4 4 0 0 0-.31-1.47c-1.26-3.03-3.88-3.71-6.94-3.5-3.67.27-7.37 1.58-10.78 2.86zm6.7-.66c2.52-.69 5.52-1.43 8.1-.73 2.18.6 2.76 3.01 2.14 4.93q-.18.52-.5.97c-2.35 1.5-5.5 1.62-8.19 1.57-2.87-.06-5.72-.31-8.6-.34a38 38 0 0 1-6.85-.56 52 52 0 0 1 13.9-5.84m-15.76 5.38c.97-1.26 3.13-2.05 4.72-2.68a19 19 0 0 0-3.92 2.9zm4.86-8.11c2.17-2.2 4.37-4.36 6.5-6.59 4.15-4.34 8-9.02 10.54-14.5 1.3-2.8 2-6.66-1.52-8.04q-.5-.19-1-.24c2.81-1.7 6.28-1.9 7.72 1.94 1.42 3.82-.61 8.48-2.76 11.59-2.13 3.06-5.05 5.51-7.89 7.88-3.2 2.7-6.3 5.53-9.53 8.19-2.1 1.73-4.74 2.95-7 4.54 1.4-1.77 3.38-3.2 4.94-4.77m-11.06 8.22a.7.7 0 0 0-.05.64q-1.06.6-2.24 1.07c.58-2.01.65-4.3 1.13-6.33.64-2.72 1.94-5.4 2.32-8.16.03-.26-.3-.44-.48-.22-1.57 2-2.22 4.81-2.9 7.21-.68 2.36-1.72 5.46-1.21 7.94q-1.78.61-3.52 1.04l.01-.7c.05-1.08.16-2.15.22-3.23.17-3.27 1.07-6.58.62-9.85-.06-.37-.58-.4-.65-.03-.6 3.17-1.2 6.45-1.43 9.67-.09 1.29-.52 3.11-.29 4.5l-1.57.36c-.01-4.45.45-9.23-.11-13.63-.04-.26-.45-.38-.56-.1-1.51 4.23-.83 9.56-.83 14l.02.06q-4.43 1.01-8.9 1.56c.14-.68-.01-1.48-.03-2.11-.05-1.34-.3-2.65-.37-3.99-.02-.29-.5-.32-.52-.02-.07 1.33-.32 2.64-.37 3.98-.02.68-.2 1.58 0 2.3l-.45.04v-.25q-.07-.37-.2-.75c.13-1.15-.39-2.81-.44-3.76-.11-1.9.13-3.98-.33-5.84-.1-.35-.65-.35-.77-.03-.7 1.83-.5 4.12-.43 6.05.03.8-.06 2.4.31 3.48.02.42.09.9.3 1.24q-3.72.32-7.46.28.14-.11.18-.33c.12-1.02.13-2.06.2-3.09.05-.89.21-1.84-.24-2.64-.17-.3-.57-.16-.7.07-.46.8-.32 1.88-.35 2.78-.03.94-.1 1.9 0 2.85q.04.23.18.35l-.9-.02c.41-1.4-.28-3.26-.51-4.65-.3-1.85-.45-3.77-1.01-5.56-.06-.2-.32-.14-.36.02-.5 1.84-.2 3.83.05 5.68.17 1.33.12 3.24.8 4.47q-2.31-.12-4.64-.38l-1.9-.24a.5.5 0 0 0 .28-.47c-.04-2.6-.66-5.12-1.04-7.68-.1-.66-1.14-.56-1.04.1.39 2.56 1 5.08 1.05 7.68q.01.19.11.29-3.1-.39-6.26-.9c.48-1.75.6-3.63.83-5.4.27-2.05.68-4.27.24-6.3-.04-.15-.25-.14-.3-.02-.81 1.9-.92 4.1-1.21 6.12-.26 1.77-.72 3.6-.76 5.39q-1.27-.22-2.56-.48c.76-1.3.27-3.43.26-4.89 0-2.18.32-4.6-.36-6.7-.07-.24-.48-.28-.56-.02-.7 2.1-.48 4.51-.52 6.7-.02 1.38-.4 3.44.3 4.72q-1.1-.22-2.2-.47l.14-.33c.18-.89.1-1.85.1-2.75 0-1.06.11-2.24-.16-3.27-.04-.16-.23-.16-.32-.06-.99 1-.83 2.94-.87 4.24-.01.4-.19 1.29-.06 1.87q-.6-.14-1.23-.32c.88-1.14.39-4 .38-5.3-.01-1.63.3-4.9-1.2-6-.16-.1-.37-.07-.45.1-.35.77-.15 1.52-.08 2.34q.14 1.87.13 3.76c0 1.1-.51 3.47.03 4.75q-2-.59-3.91-1.32h-.01l.04-.23c-.02-3-.19-6.73-1.57-9.43l-.27.05c-.33 2.94.4 6.09.52 9.07l-1.25-.52a21 21 0 0 0-.88-4.89c-.37-1.29-.86-2.86-2.19-3.43-.15-.06-.28.1-.2.24.7 1.2 1.01 2.97 1.3 4.3.22 1.02.42 2.06.51 3.1l-1.56-.74c-2.68-5-6.7-8.97-8.7-14.4a21 21 0 0 1-.96-9.5c.17.7.46 1.33.9 1.8.13.58.36 1.04 1.12 1.6a31 31 0 0 0 3.91 2.37 40 40 0 0 0 9.83 3.42c7.08 1.64 14.6 2.23 21.83 2.83 7.58.63 15.1.31 22.57-1.14 5.9-1.15 11.87-2.31 17.33-4.91 3.16-1.5 6.48-3.84 8.41-6.92.03 3.31-.13 6.58-.89 9.97a39 39 0 0 1-2.94 8.26c-1.4 2.96-3.51 5.27-5.22 8zm-30.01 8.08a89 89 0 0 0 20.16-2.48c3.27-.76 9.9-2.2 13.03-5.4-.83 2.26-5.56 4.7-6.67 5.18-2.9 1.21-6.06 1.72-9.15 2.11-5.81.74-11.57.83-17.37.59m-42.65-11.63c1.3 1.85 5.58 4.03 6.34 4.4 7.38 3.55 15.6 4.99 23.64 6.26q1.72.26 3.45.45c-6.03-.32-11.95-.67-17.97-2.03-3.58-.81-7.2-1.7-10.5-3.34a11 11 0 0 1-4.02-3.28 6 6 0 0 1-.94-2.46m85.69 15.35c2.95 2.02 6.12 3.68 8.95 5.9 1.77 1.38 3.36 3 4.94 4.62-2.51-.92-5.2-1.64-7.55-1-1.82.48-3.48 2.58-5.26 3.78-2.34-3.48-4.6-6.91-6.09-10.84-.13-.34-.58-.27-.67.06-.48 1.87.95 4.32 1.78 5.9a63 63 0 0 0 3.46 5.63 3 3 0 0 1-1.65-.02c-2.43-.76-3.8-3.15-6.7-2.29a11 11 0 0 0-4.92 3.22l-.08-.39a89 89 0 0 0-.83-4.52c-.4-1.85-.91-5.09-3-5.77-.23-.08-.42.14-.3.35 1.28 2.17 1.67 4.95 2.1 7.37.2 1.07.12 3.46.83 4.64q-.6.95-.97 2c-3.21.94-6.09-2.7-9.1-3.45-2.83-.7-5.62.35-8.02 1.84-3.03 1.87-5.18 4.6-8.89 5.2-2.74.44-6.43.62-8.89-.9-2.07-1.27-.05-5.28-1.54-7.53 1.1-.6.86-3.71.92-4.83.1-2.02.63-5.11-.42-6.95-.17-.3-.62-.14-.68.16-.46 2.41-.24 5.07-.45 7.52-.02.28-.4 2.02-.32 3.17-1.85-1.38-4.23-1.66-6.5-1.36s-3.99 2.35-5.16 4.12c-.7 1.06-1.29 2.18-2 3.24-.88 1.3-1.91 1.86-3.23 2.47-.62-.02-1.16-.06-1.36-.07-1.46-.06-2.05-1.58-2.63-2.7q1.55-3.6 3.04-7.2c1-2.38 2.35-4.7 3.03-7.2.04-.15-.16-.2-.25-.12-3.46 3.23-4.97 8.86-6.78 13.26a4 4 0 0 0-3.28-.79c-1.7.28-2.34 2.24-3.46 3.28q-.56.5-1.05.64c1.44-2.48 2.77-5.01 4.3-7.45 1.48-2.35 3.16-4.7 3.95-7.39.1-.36-.45-.58-.66-.3-1.97 2.65-3.56 5.64-5.3 8.44-1.26 2.05-2.8 4.3-3.44 6.66-1.08-.44-1.95-1.86-2.78-2.72-2.83-2.93-7.2-.34-9.83 1.58-2.34 1.7-4.34 3.86-6.57 5.71-1.17.97-2.96 2.52-4.73 3.16.35-.46.65-.99.94-1.37 1.57-2.06 3-4.22 4.43-6.39 2.71-4.16 5.88-8.65 7.42-13.42.15-.47-.46-.94-.8-.48-2.94 4.07-5.16 8.7-7.86 12.95a190 190 0 0 1-3.91 5.88l-.1.13c.87-2.9.2-6.23-1.32-8.96a10.2 10.2 0 0 0-4.8-4.45c-2.75-1.25-6.04-.3-8.75-1.56 4.46-7.57 11.87-11.45 19.83-14.6 3.81-1.51 7.73-2.85 11.42-4.63 2.05-1 4.16-2.46 5.2-4.5a9.7 9.7 0 0 0 3.54 4.09c-.24.11-.39.33-.59.56l-1.25 1.43c-.27.3-2.08 1.98-1.22 2.37.37.17.63-.16.84-.42l1.27-1.53c.39-.47 1.39-1.4 1.33-2.15q.87.56 1.82 1.05a36 36 0 0 0 7.9 2.77q-.35.33-.64.76c-.37.52-.92 1.3-.66 1.97.08.2.3.25.48.15.47-.27.7-.96.97-1.41q.38-.63.73-1.26 2.16.5 4.27.9a6 6 0 0 0-.95 1.73c-.32.74-.78 1.61-.72 2.43.02.33.38.43.63.3.62-.35.89-1.08 1.14-1.7.34-.8.78-1.6 1.05-2.43l.02-.1c3.4.66 6.78.93 10.18 1.1a13 13 0 0 0 0 1.92c.01.24.18.43.38.52.18.09.31.1.49.01.19-.1.38-.26.4-.5.03-.58.06-1.25 0-1.9l5.75.26q3 .16 6 .26c-.18.72-.2 1.5-.26 2.21-.1 1.14-.45 2.37-.16 3.48.1.35.57.37.77.13.77-.92.69-2.27.74-3.4.03-.75.11-1.59.05-2.37q3.72.12 7.43.06a7 7 0 0 0-.12 2.38c.06.83 0 2.1.71 2.67.17.14.44.12.58-.06.52-.69.18-1.66.06-2.44a20 20 0 0 1-.17-2.58q1.2-.02 2.37-.07c.05.6.2 1.17.36 1.76.22.92.3 2.22.93 2.95.2.21.53.2.66-.07.38-.75.05-1.57-.17-2.33-.22-.79-.46-1.62-.8-2.39a68 68 0 0 0 10.24-1.42c-.12.97.1 2.3.15 2.72.13 1 .24 2.5 1.2 3.03.22.13.57-.02.66-.26.33-.9-.26-2.03-.43-2.93-.19-.95-.29-1.9-.4-2.87q1.85-.5 3.6-1.3c.19.57.5 1.1.8 1.61.35.62.7 1.21 1.25 1.66.38.3 1.02-.1.8-.58-.3-.64-.74-1.17-1.13-1.75-.3-.45-.57-.91-.91-1.32q1.84-.92 3.46-2.24.72-.61 1.35-1.42c.91 4.11 6.5 7.11 9.56 9.23m4.32 18.86c1.08 3.23 1.4 6.68 1.6 10.07q.09 1.6.14 3.23c-3.46-1.87-6.42-4.64-9.13-7.46-2.05-2.14-7.72-7.52-5.67-10.86a.5.5 0 0 0 .05-.39 4 4 0 0 1 3.28.5c1.69 1.01 2.93 2.2 5.02 1.87a6.6 6.6 0 0 0 3.29-1.83c.2 1.66.9 3.33 1.42 4.87m-64.4 13.05c.2.2.58.03.61-.23.13-1.08.1-2 .41-3.04q.15-.2.15-.45a14 14 0 0 1 2.04-3.5 10 10 0 0 1 2.9-2.67c.57-.32.9-.26 1.24-.13.96 1.22 2.82 1.73 4.23 2 1.56.3 3.22.35 4.84.22 2.72 2.9 1.19 10.05.65 13.35a84 84 0 0 1-6.73 22.37c-2.24-1.2-4.32-2.66-6.51-3.95-2.31-1.35-4.78-2.35-7.06-3.77-4.3-2.7-9.44-5.93-12.55-10-3.34-4.36-1.37-9.32 2.59-12.33 2.74-2.1 9.86-4.72 12.8-1.5-.45 1.39-.48 2.73.39 3.63m-39.8-5.96q0-.3.04-.58c.09-.61.33-1.2.5-1.8 2.54-2.34 5.18-4.77 8.63-5.56 2.38-.54 3.37 1.8 4.79 3.2 1.06 1.03 2.47.98 3.76.5q.39-.15.76-.45c1.3 1.86-.46 5.2-1.9 6.4-1.92 1.57-4.98 1.53-7.3 1.37-.68-.04-1.29.93-.57 1.36 2.68 1.6 5.73 6.78 2.7 9.38-3.28 2.82-8.74-1.02-12-3.09l.2-3.15.38-6.4q.04-.62 0-1.18m104.9 25q-.61 3.8-1.6 7.53l-.23.07-.04.02c-1.33-.35-2.82.76-3.84 1.52-1.99 1.48-2.69 3.76-3.13 6.07-1.84-1.72-3.61-3.51-6.44-3.21-2.58.27-4.34 2.15-4.85 4.69-1.2 6.04 2.5 13.36 7.63 16.77a31 31 0 0 1-3.97 4.6 1 1 0 0 0-.25.48l-.36.12c-2.62.79-5.2 1.72-7.82 2.52l.26-.53c.49-.14.98-.27 1.38-.54.2-.13.07-.43-.15-.42q-.45.03-.9.16c1.3-3.55 1.1-7.99.86-11.55-.27-3.99-1.27-8.21-3.7-11.47-4.58-6.12-13.15-.73-15.03 5.2-4.07-3.54-10.3-1.3-12.37 3.79-3 7.35 3.32 14.16 8.1 18.98q-1.5.1-3 .17c-7.52.34-14.82-.57-22.26-1.5-3.65-.45-7.3-.9-10.9-1.66q-1.24-.26-2.41-.66a.5.5 0 0 0-.19-.44l-.8-.71-.06-.25c-.84-1.92-2.23-3.76-3.59-5.55 4.86-.8 9.34-2.89 13.4-5.65 3.54-2.42 7.42-5.76 8.15-10.19 1.2-7.14-7-11.72-12.5-8.36.47-2.54.27-5.5-1.58-7.16-3.3-2.99-7.87-1.33-10.94 1.18-2.25 1.84-6.4 6.8-7.3 11.03a80 80 0 0 1-5.05-19.31 47 47 0 0 1-.09-8.8c3.55 2.92 10.1 6.41 13.49 2.59 2.5-2.82 1.03-7.26-1.47-9.89 2.71-.06 5.31-.7 7.3-2.77 1.66-1.73 2.5-5.63.91-7.64 1.34-1.5 2.67-3.24 4.37-1.43 1.2 1.28 1.4 3.5 3.46 3.86q.95.17 1.86.08l.14.05c5.16.66 6.34-7.75 10.47-9.44 1.75-.72 4.23-.12 5.72.9 1.84 1.26.76 4.15.95 6.12-1.52.16-2.86 1.54-3.84 2.6a18 18 0 0 0-2.65 3.86c-2.79-2.54-8.56-1.15-11.48.14-3.9 1.72-7.83 5.52-7.8 10.06.04 6.37 5.94 9.93 10.49 13.28a54 54 0 0 0 9.28 5.73c3.4 1.58 6.4 3.87 9.67 5.66.4.21.85-.08 1.03-.43 3.93-7.69 6.12-16.22 7.33-24.73.45-3.22 1.53-9.58-1.04-12.52q.76-.1 1.5-.24c3.24-.62 5.63-3.1 8.16-4.99a10.2 10.2 0 0 1 6.28-2.2c1.7.06 3.22 1.24 4.64 2.04 2.1 1.2 4.47 2.4 6.47 1.12a.8.8 0 0 0 .73-.43c.95-1.72 2.48-3.93 4.33-5.12-2.4 4.63 11.25 18.47 16.36 19.77.1 5.7-.2 11.44-1.09 17.03m-6.13 21.15a60 60 0 0 1-5.77 11.46c-3.44-3.44-6.28-7.37-6.96-12.35-.4-2.93.63-6.88 4.22-6.79 2.63.07 4.04 2.2 5.84 3.75.43.37 1.1.05 1.18-.48.3-1.89.61-3.68 1.69-5.31.55-.83 2.8-2.84 3.93-2.4a122 122 0 0 1-4.13 12.12M1036.9 356a96 96 0 0 1-19.22 3.17l-.04-.08c-3.42-4.22-7.58-8.53-8.17-14.18a7.9 7.9 0 0 1 3.91-7.9 5.55 5.55 0 0 1 7.31 1.63c.42.56 1.38.34 1.46-.38.38-3.5 2.74-5.99 5.89-7.37 3.85-1.7 6.5.56 8.07 3.94 1.31 2.83 1.74 5.99 1.95 9.07.22 3.16.37 7.82-.88 11a.3.3 0 0 0-.14.35l-.13.33a.5.5 0 0 0-.01.42m4.31 3.9a71 71 0 0 1-11.84 3.76c-6.02 1.43-12.53 1.52-18.68 1.62-8.27.15-16.72-.23-24.79-2.2-4.53-1.1-9.58-3.07-10.87-7.35 2.03 1.38 4.64 1.92 6.96 2.41a135 135 0 0 0 29.98 3.08c10.5-.19 20.79-1.88 30.77-5.15 2.26-.74 4.68-1.4 6.9-2.33-1.66 3-5.39 4.84-8.43 6.16m-68.82-12.58-.9-1.24a84 84 0 0 1-7.79-13.96c-.55-3.89 3.36-8.63 5.59-11.15 2.17-2.45 5.63-4.63 9-3.64 3.64 1.07 3.17 6.33 2.07 9.02-.32.8.74 1.4 1.29.75 2.17-2.6 6.54-2.89 9.27-1.03 3.52 2.37 3.03 7.57.7 10.5-4.45 5.6-11.86 9.6-18.9 10.62a1 1 0 0 0-.33.13m-2.84-124.56a10 10 0 0 1 1.98-5c2.1-3 5.69-4.54 9-5.82 6.53-2.51 13.67-3.55 20.62-3.85 7.87-.34 15.92.19 23.77.67 6.3.38 12.75.9 18.72 3.07 3.92 1.42 9.62 4.03 10.1 8.76.27 2.8-2.32 5.45-4.22 7.12-2.5 2.18-5.61 3.54-8.7 4.64-6.16 2.2-13.06 3.46-19.55 4.18-8.16.9-16.25 0-24.36-.88-5.04-.55-10.1-1.11-15-2.42a38 38 0 0 1-7.13-2.73 29 29 0 0 1-3.49-2.13c-.63-.43-1.07-1.95-1.45-2.61a.5.5 0 0 0-.34-.28c-.08-1.03 0-2.12.05-2.72m103.03-4.46c.04 1.89-1.37 4.08-2.2 5.62a44 44 0 0 1-4.11 6.08 83 83 0 0 1-5.92 6.7c1.4-2.6 2.56-5.37 3.7-7.85 1.7-3.76 4.05-9.54 8.53-10.55m-10.4 7.6c1.7-3.41 3.42-6.82 5.93-9.72l.3-.32q.6-.32 1.44-.4c1.28-.1 2.2.75 2.57 1.85-3.69.08-6.3 4.53-7.89 7.32-1.2 2.11-2.14 4.36-3.18 6.56-1.66 3.5-3.93 6.7-5.63 10.17q-1.3 1.17-2.6 2.38 4.61-8.9 9.06-17.84m22.95 9.32c-2.33-2.52-6.57-.82-9.14.29-4.46 1.92-8.83 4.22-13.17 6.4 3.08-2.57 6.18-5.15 9.18-7.82 2.93-2.61 5.5-5.57 7.13-9.18 1.4-3.14 2.12-7.73.2-10.81-1.8-2.85-4.7-3.38-7.74-2.29-3.76 1.35-6.22 5.15-8.12 8.42-2.6 4.47-4.67 9.27-7.06 13.84q-1.21 2.31-2.47 4.65.23-.74.4-1.46c1.22-4.7 2-10.22 1.17-15.23l.01-.04c.86-3.9-2.4-7.13-5.34-9.07-3.55-2.34-7.8-3.75-11.95-4.57-7.86-1.53-16-1.7-23.98-1.93-11.47-.34-22.67-.33-33.62 3.64-4.29 1.56-9.02 3.88-11.17 8.16-.36.7-.75 1.78-1.05 2.99l-.68 1.38c-.68 1.4-.93 3.22-1.11 4.75-.35 2.82.04 5.65.79 8.37.93 3.4 2.8 6.77 4.92 9.89-1 .41-1.32 1.52-1.18 2.73-2.2 3.14-4.81 4.77-8.47 6.24-3.88 1.57-7.81 3.01-11.67 4.65-7.4 3.14-13.74 7.57-17.69 14.74-.16.3-.02.8.27.98 3.67 2.32 8.32.56 11.85 3.36 4.15 3.3 4.65 9.85 1.3 13.77-.27.33-.03.77.3.87q.11.23.37.34c3.03 1.22 7.04-2.24 9.68-4.71q-.16.64-.2 1.33l-.08.54c-.32 2.28-.38 4.65-.54 6.95-.32 4.64-.73 9.26-.16 13.9 1.04 8.38 3.71 16.57 7.27 24.2 2.81 6.05 6.82 11.2 10.4 16.7-.83.41-1.02 1.23-.3 2.16-.18 4.05 3.59 7.05 7.26 8.67 7.14 3.15 15.55 3.64 23.25 3.9 14.24.49 31-.06 43.28-8.28 2.5-1.67 4.56-4.06 4.8-7.07v-.12q.04-.34.04-.7c-.02-.54-.56-.76-1-.67 2.86-3.68 4.98-7.9 6.81-12.22 2.9-6.83 5.14-13.98 6.55-21.27 1.44-7.4 1.45-14.94 1.26-22.45-.1-3.56-.31-7.4-1.37-10.84-.7-2.25-1.85-4.49-2.22-6.83l-.03-.07q.55-.54 1.1-.98c3.17-2.5 8.8.61 12 1.78 1 .36 1.6-.87.88-1.55-2.47-2.33-4.8-4.8-7.33-7.07-2.52-2.26-5.6-3.86-8.46-5.64-3.98-2.46-8.44-5.23-10.98-9.26 7.48 4.3 17.29 4.46 25.68 5.14 3.56.3 8.2.36 10.5-2.88 1.98-2.81 1.29-7.36 1.5-10.61.22-3.29.55-7.5-1.86-10.1" style="fill:#422000;fill-opacity:1;fill-rule:nonzero;stroke:none;stroke-width:0.133333"/><path id="path3199" d="M1045.38 352.02c.24-.12.48-.19.68-.36.13-.12.08-.39-.13-.36q-.39.05-.73.2c-.33.13-.13.67.18.52" style="fill:#422000;fill-opacity:1;fill-rule:nonzero;stroke:none;stroke-width:0.133333"/><path id="path3200" d="M1016.16 351.9c-.29-.15-.61.11-.6.42.04.52.46 1.11.8 1.48.4.44 1.32.09 1-.54a3 3 0 0 0-1.2-1.37" style="fill:#422000;fill-opacity:1;fill-rule:nonzero;stroke:none;stroke-width:0.133333"/><path id="path3201" d="M1025.37 351.18c-.14-.57-1.12-.34-1 .24.14.68.5 1.57 1.22 1.82.46.16 1.07-.39.66-.82-.38-.42-.73-.66-.88-1.24" style="fill:#422000;fill-opacity:1;fill-rule:nonzero;stroke:none;stroke-width:0.133333"/><path id="path3202" d="M1031.57 351.03a.57.57 0 0 0-1.07.4q.22.77.69 1.4c.51.72 1.57-.09 1.1-.82-.22-.33-.55-.63-.72-.98" style="fill:#422000;fill-opacity:1;fill-rule:nonzero;stroke:none;stroke-width:0.133333"/><path id="path3203" d="M1034.9 348.56c-.09-.77-1.25-.64-1.19.12q.07.63.52 1.1c.52.55 1.5-.14.97-.71-.15-.16-.28-.29-.3-.51" style="fill:#422000;fill-opacity:1;fill-rule:nonzero;stroke:none;stroke-width:0.133333"/><path id="path3204" d="M1050.54 315.93c-4.03 4.87-10.55 7.19-16.02 10.12-1.03-2.36-2.53-4.45-3.88-6.65a15.8 15.8 0 0 1-2.07-11.42c.61-3.14 3-6.08 5.77-7.58 3.69-1.99 5.52.97 7.06 3.77.16.3.56.03.5-.25q-.2-.8-.48-1.54c.28.21.67.23.9-.15 1.08-1.73 3.76-2.2 5.65-2.15 2.59.08 4.43 2.71 5.24 4.86 1.42 3.73-.3 8.1-2.67 10.99m.99-15.84c-2.69-2.28-8.38-1.88-10.34 1.26l-.1.28c-.84-1.71-2.2-3.01-4.34-3.1-3.28-.11-6.04 2.69-7.73 5.17-2.27 3.36-2.48 7.58-1.63 11.43 1.01 4.55 4.5 7.89 6.13 12.16.12.32.57.58.9.4 7.21-4 16.96-7.04 19.98-15.56 1.5-4.26.62-9.08-2.87-12.04" style="fill:#422000;fill-opacity:1;fill-rule:nonzero;stroke:none;stroke-width:0.133333"/><path id="path3205" d="M1036.5 302.09c-.89.1-1.53 1.76-.78 2.36.36.3.62-.07.73-.4.08-.26.07-.57.13-.85.06-.25.23-.45.3-.7.06-.22-.17-.44-.38-.41" style="fill:#422000;fill-opacity:1;fill-rule:nonzero;stroke:none;stroke-width:0.133333"/><path id="path3206" d="M1032.56 307.73c.14-.24.15-.51.25-.77.08-.17.25-.32.36-.48.13-.2.1-.5-.14-.6-1.1-.44-1.98 1.08-1.42 1.95.25.39.77.24.95-.1" style="fill:#422000;fill-opacity:1;fill-rule:nonzero;stroke:none;stroke-width:0.133333"/><path id="path3207" d="M1032.35 313.76c-.08.76-.26 1.48-.07 2.25.17.68 1.22.38 1.15-.27-.06-.66-.24-1.3-.31-1.95-.05-.43-.72-.48-.77-.03" style="fill:#422000;fill-opacity:1;fill-rule:nonzero;stroke:none;stroke-width:0.133333"/><path id="path3208" d="M1038.73 310.68c-.6.46-1.28 1.4-.7 2.13.34.44 1 .26 1.11-.27.1-.43-.01-.76.25-1.16.28-.44-.2-1.05-.66-.7" style="fill:#422000;fill-opacity:1;fill-rule:nonzero;stroke:none;stroke-width:0.133333"/><path id="path3209" d="M1043.9 310.45c.05.63-.43 1.24-.53 1.85-.07.48.51.88.9.55.36-.28.5-.67.56-1.11.07-.51-.14-.87-.24-1.35-.08-.43-.73-.4-.7.06" style="fill:#422000;fill-opacity:1;fill-rule:nonzero;stroke:none;stroke-width:0.133333"/><path id="path3210" d="M1046.87 305.1c.1.47.09.95.15 1.43.06.5.82.68 1 .16.26-.67.03-1.47-.52-1.93-.24-.2-.7 0-.63.33" style="fill:#422000;fill-opacity:1;fill-rule:nonzero;stroke:none;stroke-width:0.133333"/><path id="path3211" d="M1050.26 308.89c.04.7-.16 1.37-.37 2.04-.16.52-.4.92-.27 1.46.05.2.33.33.52.25 1.25-.58 1.05-2.72.91-3.82-.06-.52-.82-.45-.8.07" style="fill:#422000;fill-opacity:1;fill-rule:nonzero;stroke:none;stroke-width:0.133333"/><path id="path3212" d="M1041.7 316.97q-.67.26-1.16.76c-.32.33-.44.6-.6 1.03-.12.37.27.74.62.5.26-.19.48-.31.7-.55.25-.27.5-.54.83-.7.62-.32.28-1.3-.4-1.04" style="fill:#422000;fill-opacity:1;fill-rule:nonzero;stroke:none;stroke-width:0.133333"/><path id="path3213" d="M993.54 297.2q-.32-.46-.58-.97c-.15-.35-.22-.77-.45-1.08-.15-.2-.48-.24-.64-.02-.55.81.06 2.2.6 2.88.53.68 1.53-.08 1.07-.8" style="fill:#422000;fill-opacity:1;fill-rule:nonzero;stroke:none;stroke-width:0.133333"/><path id="path3214" d="M987.95 298.28c.13-.38-.36-.75-.64-.4-.27.36-.53.71-.5 1.2.04.51.23 1.21.75 1.45.43.18.77-.22.66-.63-.13-.5-.45-1.08-.27-1.62" style="fill:#422000;fill-opacity:1;fill-rule:nonzero;stroke:none;stroke-width:0.133333"/><path id="path3215" d="M986.2 303.01c-.3-.35-.86.03-.6.43.47.7.65 1.6 1.43 2.05.43.24.76-.33.55-.67-.38-.64-.88-1.25-1.38-1.8" style="fill:#422000;fill-opacity:1;fill-rule:nonzero;stroke:none;stroke-width:0.133333"/><path id="path3216" d="M993.78 305.82c-.23-.54-.99-.24-.84.3.26.97.54 2.02 1.5 2.5.5.26 1.03-.41.69-.85-.5-.62-1.04-1.2-1.35-1.95" style="fill:#422000;fill-opacity:1;fill-rule:nonzero;stroke:none;stroke-width:0.133333"/><path id="path3217" d="M999.1 311.14c.27.48.3 1.06.62 1.54.46.67 1.48-.08 1.02-.76-.3-.44-.77-.75-1.08-1.17-.27-.37-.78.01-.56.4" style="fill:#422000;fill-opacity:1;fill-rule:nonzero;stroke:none;stroke-width:0.133333"/><path id="path3218" d="M999.05 303.46c.5.17 1.02-.26.82-.78-.14-.39-.51-.74-.75-1.08-.13-.18-.25-.4-.43-.55-.17-.36-.74-.18-.77.2-.1.3.04.67.14.93.17.45.5 1.12 1 1.28" style="fill:#422000;fill-opacity:1;fill-rule:nonzero;stroke:none;stroke-width:0.133333"/><path id="path3219" d="M1004.94 305.18c.2.5.17 1.03.34 1.52.17.48 1 .44 1.02-.1.04-.67-.43-1.2-.76-1.74-.2-.34-.74-.04-.6.32" style="fill:#422000;fill-opacity:1;fill-rule:nonzero;stroke:none;stroke-width:0.133333"/><path id="path3220" d="M990.78 310.23c-.05.64.29 1.36.94 1.52.25.07.53-.2.49-.45-.08-.5-.49-.95-.85-1.29-.19-.18-.55-.04-.58.22" style="fill:#422000;fill-opacity:1;fill-rule:nonzero;stroke:none;stroke-width:0.133333"/><path id="path3221" d="M1004.76 314.9c-.1-.32-.66-.21-.58.12.14.65.13 1.2.65 1.7.45.41 1.02-.24.74-.7-.24-.38-.66-.7-.8-1.12" style="fill:#422000;fill-opacity:1;fill-rule:nonzero;stroke:none;stroke-width:0.133333"/><path id="path3222" d="M1007.1 312.36c.24.83 1.63.22 1.1-.6q-.28-.45-.66-.81c-.42-.4-1.04.23-.72.68.16.22.21.47.29.73" style="fill:#422000;fill-opacity:1;fill-rule:nonzero;stroke:none;stroke-width:0.133333"/><path id="path3223" d="M1009.67 301.58c.28.4.88.22.97-.23.16-.8-.51-1.59-.99-2.16-.34-.4-.94.03-.67.48.36.6.29 1.37.69 1.91" style="fill:#422000;fill-opacity:1;fill-rule:nonzero;stroke:none;stroke-width:0.133333"/><path id="path3224" d="M1005.46 294.5c-.26-.5-.67-1.07-.54-1.67.11-.5-.64-.7-.85-.25-.39.84-.3 1.77.34 2.49.42.47 1.38.07 1.05-.57" style="fill:#422000;fill-opacity:1;fill-rule:nonzero;stroke:none;stroke-width:0.133333"/><path id="path3225" d="M1004.19 289.98c.33.17.68.43 1.03.55.3.1.6-.09.59-.42-.04-.76-.96-1.11-1.6-.86a.4.4 0 0 0-.02.73" style="fill:#422000;fill-opacity:1;fill-rule:nonzero;stroke:none;stroke-width:0.133333"/><path id="path3226" d="M1012.32 293.16c.11.3.43.37.68.28l-.01.02.19-.12q.17-.15.14-.41c-.1-.61-.4-1.03-.7-1.55-.21-.35-.76-.04-.63.33.17.46.17.98.33 1.45" style="fill:#422000;fill-opacity:1;fill-rule:nonzero;stroke:none;stroke-width:0.133333"/><path id="path3227" d="M1054.35 281.14v-.05q-.22-.17-.42-.35c-.2-.2-.42-.4-.68-.5-.13-.06-.32.03-.36.18-.2.86.84 2.13 1.6 2.43.55.21.97-.39.68-.87-.2-.32-.53-.58-.82-.84" style="fill:#422000;fill-opacity:1;fill-rule:nonzero;stroke:none;stroke-width:0.133333"/><path id="path3228" d="M1060.18 283.63c-.2-.81-1.25-1.78-2.1-1.75-.27.01-.46.32-.36.56.14.34.4.6.63.88.28.35.5.75.86 1.03.53.42 1.12-.15.97-.72" style="fill:#422000;fill-opacity:1;fill-rule:nonzero;stroke:none;stroke-width:0.133333"/><path id="path3229" d="M1059.37 288.3c.2.73.38 1.33 1 1.82.51.39 1.3-.31.84-.8-.4-.44-.88-.86-1.26-1.33a.33.33 0 0 0-.58.3" style="fill:#422000;fill-opacity:1;fill-rule:nonzero;stroke:none;stroke-width:0.133333"/><path id="path3230" d="M1012.9 344.32c-.27-.24-.76-.06-.79.3-.05.6.44 1.34.84 1.78.42.45 1.4.08 1.06-.58a6 6 0 0 0-1.12-1.5" style="fill:#422000;fill-opacity:1;fill-rule:nonzero;stroke:none;stroke-width:0.133333"/><path id="path3231" d="M1016.54 341.98c.07-.56-.25-1.14-.49-1.64-.23-.48-.98-.36-.93.21.05.52.22 1.24.57 1.63.26.28.8.25.85-.2" style="fill:#422000;fill-opacity:1;fill-rule:nonzero;stroke:none;stroke-width:0.133333"/><path id="path3232" d="M1018.24 348.75c.18.6 1.06.25.9-.34-.1-.46-.35-.8-.6-1.2-.3-.42-.89.03-.64.46.19.32.23.73.34 1.08" style="fill:#422000;fill-opacity:1;fill-rule:nonzero;stroke:none;stroke-width:0.133333"/><path id="path3233" d="M1025.34 344.35a.36.36 0 0 0-.41.37c.02.4.3.85.44 1.2.28.66 1.28.28 1.02-.38-.17-.45-.53-1.1-1.05-1.2" style="fill:#422000;fill-opacity:1;fill-rule:nonzero;stroke:none;stroke-width:0.133333"/><path id="path3234" d="M1021.66 341.92c-.18-.47-.78-.34-.9.08-.16.66.16 1.4.67 1.81.38.3 1.08-.12.83-.6a10 10 0 0 1-.6-1.3" style="fill:#422000;fill-opacity:1;fill-rule:nonzero;stroke:none;stroke-width:0.133333"/><path id="path3235" d="M1027.83 338.8c-.26-.4-.68-1.06-1.18-1.16a.4.4 0 0 0-.36.14c-.42.55.13 1.37.46 1.83.51.7 1.55-.08 1.08-.8" style="fill:#422000;fill-opacity:1;fill-rule:nonzero;stroke:none;stroke-width:0.133333"/><path id="path3236" d="M1031.73 336c.1-.73-.55-1.57-1.29-1.62-.27-.02-.53.22-.41.5.09.23.23.42.33.64.12.25.18.5.33.73.27.44.97.22 1.04-.26" style="fill:#422000;fill-opacity:1;fill-rule:nonzero;stroke:none;stroke-width:0.133333"/><path id="path3237" d="M1031.35 341.94c-.1-.15-.4-.11-.42.1-.03.62.04 1.18.45 1.68.46.57 1.37-.1.9-.66-.3-.37-.66-.72-.93-1.12" style="fill:#422000;fill-opacity:1;fill-rule:nonzero;stroke:none;stroke-width:0.133333"/><path id="path3238" d="M1035.27 342.02c-.37-.2-.74.23-.62.58.11.33.02.61.22.92.12.18.37.24.56.17.83-.3.4-1.36-.16-1.67" style="fill:#422000;fill-opacity:1;fill-rule:nonzero;stroke:none;stroke-width:0.133333"/><path id="path3239" d="M1049.7 335.35a5 5 0 0 0-.76-1.82c-.15-.25-.6-.1-.55.2.1.63.16 1.37.54 1.9.24.34.84.15.77-.28" style="fill:#422000;fill-opacity:1;fill-rule:nonzero;stroke:none;stroke-width:0.133333"/><path id="path3240" d="M1052.9 335.1q-.16.93 0 1.86c.07.55.99.63 1 .03a3.4 3.4 0 0 0-.55-1.99c-.12-.18-.42-.1-.45.1" style="fill:#422000;fill-opacity:1;fill-rule:nonzero;stroke:none;stroke-width:0.133333"/><path id="path3241" d="M1049.02 339.36c-.2-.28-.68-.18-.72.17a2.8 2.8 0 0 0 .49 1.85c.41.6 1.35-.08.91-.67-.3-.41-.39-.93-.68-1.35" style="fill:#422000;fill-opacity:1;fill-rule:nonzero;stroke:none;stroke-width:0.133333"/><path id="path3242" d="M1050.27 330.18c-.12-.35-.14-.72-.27-1.07-.12-.3-.66-.4-.77-.02-.25.78.07 1.64.33 2.39.06.18.23.32.42.35.24.03.35-.03.51-.2.13-.14.14-.36.09-.53z" style="fill:#422000;fill-opacity:1;fill-rule:nonzero;stroke:none;stroke-width:0.133333"/><path id="path3243" d="M1045.9 332.66c-.13-.34-.65-.3-.7.07-.1.5.21.9.7 1.02.24.06.39-.2.34-.41-.06-.27-.25-.43-.34-.68" style="fill:#422000;fill-opacity:1;fill-rule:nonzero;stroke:none;stroke-width:0.133333"/><path id="path3244" d="M1058.16 327.73c-.2-.34-.74-.1-.7.25q.07.58.24 1.13c.08.23.3.33.53.33l.24-.1a.5.5 0 0 0 .18-.59q-.2-.54-.49-1.02" style="fill:#422000;fill-opacity:1;fill-rule:nonzero;stroke:none;stroke-width:0.133333"/><path id="path3245" d="M1055.87 334.14c-.15.02-.23.15-.2.3.09.31.07.71.28.97l.28.09c.66-.3.36-1.45-.36-1.36" style="fill:#422000;fill-opacity:1;fill-rule:nonzero;stroke:none;stroke-width:0.133333"/><path id="path3246" d="M1051.99 341.18c.04.46 0 .89.33 1.23l.37-.03c.38-.48.06-1.02-.31-1.4-.15-.15-.4.01-.4.2" style="fill:#422000;fill-opacity:1;fill-rule:nonzero;stroke:none;stroke-width:0.133333"/><path id="path3247" d="M975.55 323.44c.25-.34.51-.65.7-1.03.11-.24-.1-.6-.4-.54-.48.1-.8.4-1.13.77-.35.39-.74.8-.6 1.36.05.27.37.34.6.28.38-.11.6-.54.83-.84" style="fill:#422000;fill-opacity:1;fill-rule:nonzero;stroke:none;stroke-width:0.133333"/><path id="path3248" d="M972.08 322.6c-.67-.08-1.2.52-1.57 1.01-.35.47-1 1.43-.53 1.98q.2.25.51.16c.55-.19.63-.96.89-1.42.27-.5.77-.88.91-1.44.04-.13-.07-.28-.2-.3" style="fill:#422000;fill-opacity:1;fill-rule:nonzero;stroke:none;stroke-width:0.133333"/><path id="path3249" d="M976.16 330.24c.18-.34.31-.62.26-1l-.21-.18c-.7.12-1.26.95-1.58 1.52-.33.6.56 1.05.97.59.24-.27.4-.62.56-.93" style="fill:#422000;fill-opacity:1;fill-rule:nonzero;stroke:none;stroke-width:0.133333"/><path id="path3250" d="m970.64 331.94 1.09-2.2c.09-.18-.1-.36-.3-.31-.97.27-1.65 1.23-1.86 2.2-.13.64.8.86 1.07.3" style="fill:#422000;fill-opacity:1;fill-rule:nonzero;stroke:none;stroke-width:0.133333"/><path id="path3251" d="M966.36 330.66c-.43.2-.74.34-1.02.74-.25.36-.41.82-.13 1.2.12.17.32.18.5.08.57-.33.44-1.24.84-1.74.1-.12-.03-.36-.2-.28" style="fill:#422000;fill-opacity:1;fill-rule:nonzero;stroke:none;stroke-width:0.133333"/><path id="path3252" d="M971.08 336.63c.11-.16.05-.42-.17-.45-.83-.11-1.59.6-1.76 1.38-.15.69.93.85 1.08.16.1-.47.58-.72.85-1.1" style="fill:#422000;fill-opacity:1;fill-rule:nonzero;stroke:none;stroke-width:0.133333"/><path id="path3253" d="M976.14 336.44c.37-.1.52-.47.66-.77.11-.21.3-.43.47-.6.43-.44-.23-1-.69-.73-.6.36-1.61 1.33-.85 2.03q.19.13.41.07" style="fill:#422000;fill-opacity:1;fill-rule:nonzero;stroke:none;stroke-width:0.133333"/><path id="path3254" d="M971.75 342.59a1.7 1.7 0 0 0-1.16.65.44.44 0 0 0 .06.6l.2.09q.31.02.46-.25c.14-.26.38-.44.62-.6.23-.14.1-.53-.18-.5" style="fill:#422000;fill-opacity:1;fill-rule:nonzero;stroke:none;stroke-width:0.133333"/><path id="path3255" d="M978.38 341.95c-.47.2-.87.55-1.28.86-.45.34-1.01.6-1.32 1.09-.14.24.12.48.34.48.53 0 1.07-.33 1.54-.54.59-.27 1.1-.59 1.43-1.15.24-.42-.3-.92-.7-.74" style="fill:#422000;fill-opacity:1;fill-rule:nonzero;stroke:none;stroke-width:0.133333"/><path id="path3256" d="M980.7 338.17c-.6-.26-1.74.42-1.42 1.16q.1.25.38.24a1.8 1.8 0 0 0 1.25-.86.4.4 0 0 0-.2-.54" style="fill:#422000;fill-opacity:1;fill-rule:nonzero;stroke:none;stroke-width:0.133333"/><path id="path3257" d="M984.1 329.86q-.56.5-1.07 1.06c-.28.3-.52.56-.52.99 0 .23.22.35.42.35.38 0 .64-.27.91-.5q.5-.44 1.03-.84c.7-.51-.15-1.61-.78-1.06" style="fill:#422000;fill-opacity:1;fill-rule:nonzero;stroke:none;stroke-width:0.133333"/><path id="path3258" d="M987.7 334.12c-.46.15-.75.58-1.08.92s-.73.68-1.1.97c-.2.14-.08.4.14.4.3.01.43.02.72-.06q.37-.12.7-.35c.47-.27 1.1-.66 1.28-1.2.14-.41-.2-.83-.65-.68" style="fill:#422000;fill-opacity:1;fill-rule:nonzero;stroke:none;stroke-width:0.133333"/><path id="path3259" d="M989.27 328.45c-.37.24-.76.51-1.02.88-.22.32-.02.93.45.82.5-.1.93-.36 1.35-.65.7-.48-.08-1.5-.78-1.05" style="fill:#422000;fill-opacity:1;fill-rule:nonzero;stroke:none;stroke-width:0.133333"/><path id="path3260" d="M987.36 338.88c-.28.1-.57.37-.5.7.03.2.2.4.43.36q.22-.02.42-.13c.54-.3.27-1.14-.35-.93" style="fill:#422000;fill-opacity:1;fill-rule:nonzero;stroke:none;stroke-width:0.133333"/><path id="path3261" d="M984 339.99c-.51-.08-1.11.23-1.43.65-.22.3 0 .7.36.68a2 2 0 0 0 1.32-.7.4.4 0 0 0-.24-.63" style="fill:#422000;fill-opacity:1;fill-rule:nonzero;stroke:none;stroke-width:0.133333"/><path id="path3262" d="M964.09 289.7c.24-.04.34-.23.3-.46-.16-.65-.97-.71-1.52-.72-.18 0-.22.23-.1.33.4.35.72.96 1.32.85" style="fill:#422000;fill-opacity:1;fill-rule:nonzero;stroke:none;stroke-width:0.133333"/><path id="path3263" d="M964.37 286.53c.28.18 2.3 1.13 2.21.19-.1-.93-1.65-.87-2.24-.53-.15.08-.09.27.03.34" style="fill:#422000;fill-opacity:1;fill-rule:nonzero;stroke:none;stroke-width:0.133333"/><path id="path3264" d="M969.86 288.9c.4.23.64.7 1 .97.42.3.9-.1.78-.56-.2-.77-1.07-1.1-1.76-.8-.18.08-.18.3-.02.39" style="fill:#422000;fill-opacity:1;fill-rule:nonzero;stroke:none;stroke-width:0.133333"/><path id="path3265" d="M968 283.85c.38.16.75.27 1.12.45.4.2.85-.33.55-.68-.45-.54-1.23-.72-1.77-.19-.12.12-.05.36.1.42" style="fill:#422000;fill-opacity:1;fill-rule:nonzero;stroke:none;stroke-width:0.133333"/><path id="path3266" d="m960.5 290.43.2-.23c.12-.6-.6-1.04-1.12-1.04-.28 0-.36.33-.24.52.24.43.65.86 1.16.75" style="fill:#422000;fill-opacity:1;fill-rule:nonzero;stroke:none;stroke-width:0.133333"/><path id="path3267" d="M959.66 295.3c-.44.63.4 1.71.95 1.97.45.21.79-.31.56-.69-.1-.18-1.23-1.67-1.51-1.27" style="fill:#422000;fill-opacity:1;fill-rule:nonzero;stroke:none;stroke-width:0.133333"/><path id="path3268" d="M963.82 293.63c-.23.07-.25.32-.16.5.08.14.2.23.28.36.13.19.16.4.31.57.19.22.56.23.69-.06.27-.66-.39-1.6-1.12-1.37" style="fill:#422000;fill-opacity:1;fill-rule:nonzero;stroke:none;stroke-width:0.133333"/><path id="path3269" d="M966.06 300.12c.2.24.32.57.53.82a.51.51 0 0 0 .83-.6c-.25-.4-.65-.56-1.09-.66-.22-.04-.44.25-.27.44" style="fill:#422000;fill-opacity:1;fill-rule:nonzero;stroke:none;stroke-width:0.133333"/></g></g></svg>