<svg xmlns="http://www.w3.org/2000/svg" id="svg1" viewBox="0 0 194.97 208.02"><g id="g1" transform="translate(-123.596 307.013)"><g id="group-R5"><path id="path3531" d="M299.49-269.02c0-3.7-.71-7.52-.8-11.25-.11-3.85.54-8.12-.83-11.8.28-3.59.51-7.17.1-10.73a4 4 0 0 0-1.06-2.31l-.11-.22q-.31-.39-.73-.45c-1.9-1.16-4.8-1.07-6.81-.04h-.31l-.34-.02c-1.1 0-2.14.07-3.2.28h-.07v.02l-.4.08c-.3.07-.55.3-.72.57l-.63.13c-2.69.37-5.28 1.35-7.85 2.29a57 57 0 0 0-12.08 6.02c-1.97 1.32-4.78 3.54-4.64 6.15.03.58.31 1.04.74 1.4 1.17 2.45 3.47 4.37 4.93 6.66 1.59 2.48 2.53 5.41 3.56 8.15.57 1.53 4.27 10.93 3.35 11.46-1.28.75.08 2.6 1.35 1.86q.47-.28.7-.77c.34.22.78.28 1.29.02 3.45-1.77 7.16-2.56 10.99-3.1 3.9-.54 7.68-2.66 11.66-1.83 1.02.2 1.8-.73 1.76-1.67v-.36q.14-.22.15-.54" style="fill:#4d4c5e;fill-opacity:1;fill-rule:nonzero;stroke:none;stroke-width:0.133333"/><path id="path3532" d="M295.23-272.75q.78-.53 1.34-1.08c.7-.71.45-2.2-.37-2.72a4 4 0 0 0-.83-.4q.43-.68.66-1.56c.23-1-.67-2.01-1.62-2.13a6 6 0 0 0-.73-.03q.79-.53 1.48-1.2c1.2-1.17.55-3.02-1.2-3q-.56.02-1.1.1.51-.38 1-.82c1.11-1 .6-2.58-.74-2.83a5 5 0 0 0 1.6-1.99c.44-.97-.28-1.9-1.2-2.13h-.02c.77-.87.16-2.23-.95-2.49a9 9 0 0 0-.95-.17q.74-.64 1.28-1.58c.24-.41.14-.86-.09-1.24 1.38-.23 1.54-2.5.02-2.58h-1.24q.45-.37.86-.78c.54-.57.35-1.39-.12-1.9h.14c1.36-.03 1.33-1.82.37-2.36-1.95-1.1-4.2-.9-6.46-.34-2.46.12-4.82 1.43-7.2 2.02-1.62.4-.93 3.11.7 2.84q1.2-.21 2.35-.52c.28.43.77.75 1.4.75h.06q-.89.28-1.78.7c-.6.3-.8.87-.67 1.35-.47.52-.55 1.3-.23 1.83q-.85.4-1.69.86h-.02l-.27.15c-1.21.67-.08 2.35 1.09 2.02 1.2-.34 2.36-.82 3.54-1.27q.3.16.73.1c.46-.07 1.87-.5 3.24-.84-1.75.67-3.86 1-5.17 1.68-1.41.72-1.07 2.54.35 2.8-1.1.89.05 2.65 1.31 2.6 1.8-.06 3.55-.51 5.3-.71-1.52.7-3.33 1.21-4.38 1.97-1.12.81-.64 2.63.71 2.83a9 9 0 0 0 1.01.08q-.67.42-1.27.91c-1.11.9-.68 2.67.74 2.91q.66.1 1.32.11-1.05.65-2 1.46c-1.16 1-.81 3.06.86 3.26q.85.1 1.69-.01-.92.43-1.45.82c-1.59 1.25-.45 3.45 1.36 3.43q-.53.65-.86 1.5-.3.87.08 1.6l-1.03.41c-1.83.77-1.13 3.57.85 3.36 2.03-.2 4-.66 6-.97.88.17 1.84-.25 1.96-1.39l.01-.15q.05-.57-.2-1.04.7-.54 1.4-1.24c1.08-1.08.19-2.51-.97-2.98" style="fill:#3c374a;fill-opacity:1;fill-rule:nonzero;stroke:none;stroke-width:0.133333"/><path id="path3533" d="M315.48-262.62a5 5 0 0 0-1.68-.85c-1-2.45-4.46-2.04-6.74-2.06a73 73 0 0 0-15.52 1.75q-.19 0-.39.05l-1.15.28-.05.02c-4.32 1-9.65.98-13.31 3.47q-.2.15-.34.34c-2.73.48-5.9 1.47-7.99 3.1-.95.12-1.82.48-2.65.93-.89.14-1.76.48-2.6.93-4.09.2-8.1 4.2-10.3 7.3-.56.78-.4 2.17.65 2.5 2.23.68 4.37.99 6.7 1.07 2.16.07 4.62.66 6.74.45a4.6 4.6 0 0 0 3.22-1.67c1.36-1.4 2.65-3 3.96-4.54l.08-.05c.9-.6 1.54-1.55 2.36-2.17 1.64-1.27 3.38-2.22 4.8-3.76q.35-.38.35-.77c.34.26.8.35 1.3.1l.14-.04c.25.28.6.48 1 .45 1.97-.1 3.8-.96 5.8-.9.95.04 1.86.11 2.77.1.6.3 1.41.45 2.1.57 4.02.7 8.1 3.32 9.55 7.18.4 1.05 1.8 1.22 2.49.38l.6-.7a6 6 0 0 0 4.15-3.01q.45-.3.9-.55a24 24 0 0 0 4.11-2.9c2.62-2.37 2.26-6.3-1.05-7" style="fill:#3c374a;fill-opacity:1;fill-rule:nonzero;stroke:none;stroke-width:0.133333"/><path id="path3534" d="M281.18-254.68c-.73-1.45-3.02-.53-4.1-.02-1.36.65-3.17 1.94-3.37 3.57-.1.93 1.15 1.21 1.48.44v.02a5.6 5.6 0 0 1 2.8-2.52c.99-.47 2.32-.4 3.13-1.15z" style="fill:#26213b;fill-opacity:1;fill-rule:nonzero;stroke:none;stroke-width:0.133333"/><path id="path3535" d="M301.51-257.68c-2.45-.98-5.65-.58-7.98.46-.11.05-.16.24-.02.29 1.5.58 3.18.32 4.7 1.01q.75.33 1.49.71.33.19.63.4c-.23.63-.07 1.33.52 1.86l.21.19c1.14 1.02 2.44 0 2.57-1.19.74-1.53-.3-3-2.12-3.73" style="fill:#26213b;fill-opacity:1;fill-rule:nonzero;stroke:none;stroke-width:0.133333"/><path id="path3536" d="M279.36-260.9q-2.4.78-4.58 1.92-.47-.22-.93-.03-.57.3-1.15.56a1.2 1.2 0 0 0-1.12-.25c-3.6 1.22-7.92 3.24-9.3 7.06-.16.41.33.74.64.41q.76-.78 1.59-1.46c-.5.87-.75 1.82-.55 2.87.12.66.86 1.38 1.58.99a15 15 0 0 0 3.4-2.63c.25.75 1.2 1.3 1.94.7 2.77-2.28 6.02-3.25 9.08-4.98.77-.43.18-1.46-.53-1.46q-.66 0-1.32.1l2.4-1.69c1.16-.8.12-2.54-1.15-2.12" style="fill:#4d4c5e;fill-opacity:1;fill-rule:nonzero;stroke:none;stroke-width:0.133333"/><path id="path3537" d="M317.48-261c-.56-1.24-2.71-2.88-4.18-2.27-1.34.56-1.58 1.26-1.45 2.07a8 8 0 0 0-2.4-.38c-.75 0-1.15.73-1.18 1.38a4 4 0 0 0-3.34-.47c-.64.21-.93 1.03-.63 1.61-1.52-.76-3.28-.8-4.6.44-.16.14-.06.4.1.49 1.4.7 6.16 1.6 5.32 4.02q-.18.38-.42.8c-.7 1.2 1.28 2.36 2.08 1.25q.4-.56.58-1.16.52-1.19.64-2.23c.61 1.2 2.72 1.27 2.77-.34.03-1 .14-1.95.18-2.91.81.3 1.5.84 2.26 1.34 1.07.7 2.43 0 2.36-1.32l-.01-.17c.56.13 1.2 0 1.57-.48l.13-.16c.32-.4.44-1.03.22-1.5" style="fill:#4d4c5e;fill-opacity:1;fill-rule:nonzero;stroke:none;stroke-width:0.133333"/><path id="path3538" d="M271.95-298.38c.63-.78-.15-2.18-1.35-1.83-1.73.49-3.62 1.36-4.63 2.91-.48.75-.22 1.92.8 2.04.96.1 1.84-.2 2.72-.52q-.51.56-.88 1.2c-.42.8-.5 1.98.29 2.6.95.77 2.14-.04 2.6 1.51.05.19.37.18.38-.02.1-1.09-.02-1.77-.96-2.41-.61-.42 1.37-2.24 1.67-2.82.53-1.04.29-2.07-.64-2.66" style="fill:#636172;fill-opacity:1;fill-rule:nonzero;stroke:none;stroke-width:0.133333"/><path id="path3539" d="M278-275.37c-.79-3.16-1.4-9.39-4.3-11.35-.58-.39-1.66-.21-1.7.65-.16 3.99 1.8 8.5 2.7 12.34.58 2.44.76 7.1 2.7 8.8.65.55 1.65.35 2.16-.27 1.71-2.1-1-8-1.55-10.17" style="fill:#636172;fill-opacity:1;fill-rule:nonzero;stroke:none;stroke-width:0.133333"/><path id="path3540" d="M306.16-266.54c-3.63-.92-6.95-.08-10.62.42-1.6.22-3.27-.05-4.9.17-2.27.3-4.67.86-6.79 1.7l-.18.13c-3.21-.05-6.48 1.04-9.43 2.15-3.22 1.2-7.73 2.02-10.35 4.55a66 66 0 0 0-4.5 1.86c-3.66 1.7-7.48 4.37-7.72 8.72-.02.3.4.5.54.18l.05-.1c.04-.13-.02-.25-.14-.28.22.06 4.24-4.4 4.82-4.8a29 29 0 0 1 5.88-2.97c1.99-.8 4.2-1.39 6.38-2.06.13.24.4.4.7.25l.15-.08.13-.07q.84-.45 1.62-.98a18 18 0 0 0 4.01-2.04q.22-.16.27-.38c1.48-.51 2.96-1 4.53-1.28 1.92-.34 3.48-.38 5.12-1.43l.08-.08c2.88.14 5.9-.98 8.75-1.27 3.86-.4 7.65-1.5 11.56-1.36.58.02.54-.83.04-.95" style="fill:#636172;fill-opacity:1;fill-rule:nonzero;stroke:none;stroke-width:0.133333"/><path id="path3541" d="M274.4-258.46a8 8 0 0 0-3.76.38c-.87.3-2.19 1.04-2.4 1.98-.04.17.09.33.24.36 1 .2 2.29-.64 3.3-.83 1.16-.22 2.03-.23 2.93-1.08.28-.27.04-.76-.3-.81" style="fill:#4d4c5e;fill-opacity:1;fill-rule:nonzero;stroke:none;stroke-width:0.133333"/><path id="path3542" d="M268.07-258.9c-.5-.1-.98.03-1.45.2l-.24.05-.1-.14c-.85-.7-1.9.28-2.26 1.2l-.32.15c-1.09.56-.5 2.12.68 1.77a7 7 0 0 0 1.43-.65l.64-.26c.82-.33 1.65-.58 2.13-1.37.24-.4-.13-.87-.51-.95" style="fill:#9097a1;fill-opacity:1;fill-rule:nonzero;stroke:none;stroke-width:0.133333"/><path id="path3543" d="M287.86-265.14c-1.04 0-2.07.37-3.09.55-1.26.23-.81 2.04.27 1.78 1.01-.11 2-.43 3-.59 1.15-.08.93-1.75-.18-1.74" style="fill:#9097a1;fill-opacity:1;fill-rule:nonzero;stroke:none;stroke-width:0.133333"/><path id="path3544" d="M273.47-284.39c-.46-1.35-.58-3.28-1.94-4.05-.38-.21-.85.11-.92.5a9 9 0 0 0 .37 3.99c.4 1.45.66 3.52 2.3 4.02.16.05.3-.04.4-.14 1.2-1.17.24-3.01-.2-4.32" style="fill:#9097a1;fill-opacity:1;fill-rule:nonzero;stroke:none;stroke-width:0.133333"/><path id="path3545" d="M276.28-272.67c-.46-1.68-1.3-2.86-2.03-4.4-.1-.18-.39-.15-.38.09.1 1.69.02 3.11.42 4.8.33 1.32.65 2.66 1.43 3.8.31.45 1.13.3 1.18-.28.13-1.4-.26-2.68-.62-4.01" style="fill:#9097a1;fill-opacity:1;fill-rule:nonzero;stroke:none;stroke-width:0.133333"/><path id="path3546" d="M313.7-205.33q-.12-.75-.28-1.5c-.09-3.1-1.69-6.71-2.5-9.15-1.88-5.54-3.56-10.73-3.3-16.64.03-.6-.25-1.04-.64-1.31.94-3.2.07-7.22-.8-10.2a21 21 0 0 0-6.87-10.51c-3.13-2.58-6.88-3.2-10.71-2.18l-.35.1c-4.25-1.1-9.23 2.43-12.28 4.96-3.65 3.03-8.92 8.7-9.45 13.7-6.2 1.65-11.97 6.4-16.47 10.67a87 87 0 0 0-7.84 8.62c-1.59 1.98-4.17 3.93-5.1 6.4-3.7 1.48-6.88 5.32-9.8 7.97-3.8 3.44-8.1 5.84-12.12 8.92l-.24.26c-1.44.2-2.75.9-4.1 1.63-3.15 1.71-6.56 2.83-9.91 4.03-2.31.84-11.96 2.02-12.1 5.16l.02.3c-.19.16-.22.33.18.48q.16.2.42.32.22.3.63.36c4.6.54 9.5-1.05 14.05-1.7q1.2-.16 2.38-.4c-.76.51-1.47 1-2.06 1.27-3.45 1.63-9.02 5.49-12.84 3.73a1 1 0 0 0-.72-.09c-1.57-1.4-3.75-2.34-5.46-3.36-3.44-2.04-6.72-4.35-10.09-6.5-6.54-4.15-12.93-8.48-19.77-12.15-1.63-.87-13.18-6.3-12.48-.43.25 2.12 2.76 4.08 4.09 5.53 1.5 1.63 3.14 2.99 4.74 4.4-6.82-1.3-11.37-6.5-17.24-9.9-3.1-1.78-7.33-.5-6 3.52 1.1 3.37 4.64 6.3 7.11 8.7a78 78 0 0 0 6.84 5.8 44 44 0 0 0 4.78 3.26c.44.25 1.6.73 2.55 1.3q-1.36-.03-2.71-.32c-3.92-1.75-7.97-3.97-12.3-4.19-2.95-1-5.8-1.9-9.1-1.88-.78 0-1.5.81-1.57 1.55-.39 3.8 2.18 6.2 5.16 8.14 2.5 1.62 5.1 3.08 7.72 4.51q.17.16.4.27c1.82.93 3.57 1.98 5.4 2.9.44.23.85.24 1.19.12l1.07.52a17 17 0 0 1 1.63.88q1.09.57 0 .36a15.8 15.8 0 0 0-12.13-1.23c-3.84 1.24-1.87 4.66.48 6 3.57 2.06 8.1 3.01 12.09 3.93 3.59.83 7.26 1.25 10.9 1.8 3.13.48 6.3 1.45 9.47 1.33q.33.42.9.56c3.1.7 7.05 1.6 10.27 1.22 3.28.62 6.55 1.25 9.91 1.32 2.46.04 6.35.78 8.9-.41 1.37.2 2.74.39 4.15.4 3.78.03 8.94 1.46 12.32-.71 1.41 2.47 4 4.18 6.05 6.18 4.07 3.98 8.4 6.14 13.37 8.77l.1.04c.06 1.3.25 2.59.4 3.72.41 2.95 1.26 6.5 3.83 8.31 2.83 2 6.46-.2 8.06-2.7 1-1.55 2.14-4.9 2.05-7.44a19 19 0 0 0 4.27-.83l.54-.2c.77 2.88 2.55 8.74 6.47 7.82 6.36-1.49 5.86-8.53 5.93-13.62q-.01-.75-.38-1.22c.08-.35.33-.48 1.15-.84 2.22-.97 4.52-1.84 6.8-2.65.58-.2.92-.56 1.07-.97 4.56-1.14 10.22-3.07 13-7a27 27 0 0 0 4.37-3.78 69 69 0 0 0 3.04-2.35 33 33 0 0 0 3.44-3.05l.08-.07.02-.02.35-.35-.05-.04a2 2 0 0 0 .3-1.13 63 63 0 0 0 6.58-6.59c2.2-2.45 6.38-7.8 6.47-11.96 1.85-2.58 2.6-6.46 3.2-9.38a22 22 0 0 0-.93-11.1" style="fill:#8197b0;fill-opacity:1;fill-rule:nonzero;stroke:none;stroke-width:0.133333"/><path id="path3547" d="M286.15-247.3c-.12-.48-.6-.8-1.06-.88-.55-.11-1.1.23-1.5.57a2.2 2.2 0 0 0-.82 1.73q.04.35.19.66-.09.52.05 1.08c.18.69 1 1.07 1.63.78q.44-.21.7-.6h.03c.51-.14.73-.76.59-1.24a3.3 3.3 0 0 0 .2-2.1" style="fill:#9ab6d4;fill-opacity:1;fill-rule:nonzero;stroke:none;stroke-width:0.133333"/><path id="path3548" d="M300.86-249.44c-1 .06-1.64.79-1.88 1.71-.19.72-.19 1.6.19 2.19l.05.2c.15.58.78.7 1.26.49.7.24 1.48-.01 2.01-.55 1.39-1.38.42-4.16-1.63-4.04" style="fill:#9ab6d4;fill-opacity:1;fill-rule:nonzero;stroke:none;stroke-width:0.133333"/><path id="path3549" d="M266.53-237.4c-2.03-.26-3.66 1.08-5.37 2.07a36 36 0 0 0-7 4.96l-.74.74c-2.12 1.22-4.05 3.59-5.66 6.2q-.58.3-1.08.79c-3.3 1.11-5.53 5.36-7.51 8.37-.09-.12-.27-.17-.4-.02-1.86 2.15-4.02 4.11-6.1 6.1a.6.6 0 0 0-.44.07 22 22 0 0 0-4.77 3.7 52 52 0 0 1-7.67 5.75c-1.54 1-3.17 1.82-4.83 2.6a26 26 0 0 1-5.11 2.9c-1.31.56-2.63.96-3.96 1.34q-1.14.64-2.23 1.4-.19.13-.24.34a40 40 0 0 1-4.93 1.43c-3.23.7-7.66 1.64-10.14 3.98-.53.5-.3 1.52.55 1.43l.21-.02a.7.7 0 0 0 .53-.37c3.14-2.17 8.04-2.92 11.6-3.63a25 25 0 0 0 9.83-4.47l.34-.13a50 50 0 0 0 7.46-3.62 36 36 0 0 0 2.97-1.97q-.63.75-1.17 1.52c-.34.5.09 1.2.7.98 2.79-.98 5.11-3.38 7.18-5.76l-.29.44c-.39.64.1 1.5.89 1.22 1.76-.6 2.6-1.82 3.66-3.31a95 95 0 0 1 5.79-7.4 23 23 0 0 0 1.96-2.63 19 19 0 0 0-1.52 7.08c0 .71 1.1.85 1.34.22 1.16-3 1.71-6.14 3.02-9.1l.37-.85q-.15.36-.25.7c-.45 1.31 1.3 2.02 1.95.83.72-1.29 1.13-2.62 1.6-4l.06-.16.35-.75q-.24 1.29-.3 2.62c-.04 1.23 1.8 1.57 1.95.29q.4-3.13 1.44-5.77c.35.08.8-.1.9-.41q.5-.73.9-1.57c.13.68.99.98 1.6.4 2.3-2.24 4.07-5.47 6.13-8.33 1.25-1 2.55-1.91 3.41-3.36q.14-.27.06-.52.48-.39.99-.73 1.02-.57 2.07-1.12c.2-.1.1-.44-.1-.47" style="fill:#9ab6d4;fill-opacity:1;fill-rule:nonzero;stroke:none;stroke-width:0.133333"/><path id="path3550" d="M212.34-187.89c-2.4 1.53-4.29 3.32-6.96 4.45-2.42 1.02-4.96 1.75-7.4 2.72-1.52.6-6.56 1.63-6.1 4.09.16.83 1.12.93 1.53.24l.06-.09c.1-.17.05-.45-.06-.6.56.74.58.27 1.58-.12q1.4-.51 2.84-.96c1.82-.58 3.6-1.34 5.4-1.96 3.73-1.27 8.72-2.82 10.29-6.82.3-.74-.52-1.36-1.18-.95" style="fill:#9ab6d4;fill-opacity:1;fill-rule:nonzero;stroke:none;stroke-width:0.133333"/><path id="path3551" d="M218.72-182.87c-2.37 2.38-4.35 4.62-7.26 6.43-2.45 1.53-5.4 2.27-8.1 3.22-1.74.61-6.31 2.18-4.34 4.77.52.68 1.5.23 1.48-.57-.03-1.51 10.28-4.23 11.29-4.73 3.2-1.56 7.92-4.64 8.37-8.5.1-.85-.88-1.19-1.44-.62" style="fill:#9ab6d4;fill-opacity:1;fill-rule:nonzero;stroke:none;stroke-width:0.133333"/><path id="path3552" d="M226.99-178.26c-.12-.58-.68-.85-1.2-.54-1.56.96-2.5 3.14-3.78 4.5-1.76 1.87-3.86 3.4-5.74 5.13-.97.9-4.02 3.81-1.17 4.42.4.08.92-.19 1.04-.58.07-.25.11-.43.04-.65.26-.33.63-.63.98-.88 1.55-1.1 3-2.42 4.44-3.65 1.97-1.67 5.97-4.83 5.39-7.75" style="fill:#9ab6d4;fill-opacity:1;fill-rule:nonzero;stroke:none;stroke-width:0.133333"/><path id="path3553" d="M235.92-175.56c-.07-.6-.96-.97-1.33-.4-1.23 1.9-1.86 4.1-3.09 6.03-1.13 1.8-2.97 3.36-3.84 5.27-.42.92.93 1.74 1.53.91 2.47-3.35 7.25-7.11 6.73-11.81" style="fill:#9ab6d4;fill-opacity:1;fill-rule:nonzero;stroke:none;stroke-width:0.133333"/><path id="path3554" d="M248.29-185.32c-.25-.3-.61-.3-.88-.03-.66.66-.81 1.49-1.1 2.36-.34 1-.81 1.95-1.27 2.89-.7 1.42-1.58 2.6-1.66 4.21-.08 1.7 2.52 2.07 2.63.35.19-2.85 4.7-6.95 2.28-9.78" style="fill:#9ab6d4;fill-opacity:1;fill-rule:nonzero;stroke:none;stroke-width:0.133333"/><path id="path3555" d="m273.57-247.97-.31.44c-.19-.23-.5-.37-.79-.23-1.85.94-2.93 2.92-3.65 4.99l-.07.04a5.3 5.3 0 0 0-1.4 4.58c.04.23.35.18.44.02q.1-.18.18-.45c.33.52 1.14.66 1.5-.08.62-1.32.74-2.8 1.2-4.18q.13-.4.31-.85-.38 1.12-.65 2.27c-.15.72 1.02 1.08 1.25.37.74-2.27 1.66-4.48 2.25-6.8.04-.14-.18-.25-.26-.12" style="fill:#9ab6d4;fill-opacity:1;fill-rule:nonzero;stroke:none;stroke-width:0.133333"/><path id="path3556" d="m291.7-210.62-.18-.05q.4-1.27.7-2.58zm18.64-5.44q-.23-.8-.57-1.6-.17-.37-.4-.62-.17-.66-.36-1.31c-.67-2.13-4.13-1.26-3.79.92q.21 1.4.5 2.78l-.07-.1c-.47-.75-1.47-.92-2.28-.64-.7-1.2-2.75-.91-3.32.47-.41-.03-.84.05-1.19.27-.45-1.24-2.42-1.73-3.02-.18l-2.02 5.27-.22-.13q.3-3.38.34-6.83c0-.53-.83-.55-.9-.05l-.56 3.2q.12-.86.14-1.73c.03-1.4-1.87-1.61-2.6-.75q-.33.37-.61.76.5-1.84.94-3.7c.3-1.3-1.58-2.05-2.34-1.02l-.15.21a8 8 0 0 0-.88-3.94c-.28-.52-.96-.12-.97.35-.07 3.5-.99 6.65-2.09 9.81a20 20 0 0 0-1.68 4.8c-.28 1.36 1.91 2.03 2.34.69l.06-.18-.48 1.79c-.33 1.34 1.81 2.31 2.54 1.09l.6-1.04c-.5 1.74-.77 3.5-.4 5.32a1.37 1.37 0 0 0 2.64.3 90 90 0 0 1-1.7 5.3c-.66 1.87 1.84 2.94 2.8 1.23q1.15-2.1 2.15-4.28c-.19 2.17-.37 4.33-.64 6.49-.28 2.22 3.06 2.74 3.44.53q.67-3.87 1.6-7.63c-.1 2.57-.07 5.15.27 7.75.28 2.02 3.3 2.15 3.6.08q.43-3.2.66-6.4l.47 3.82c.29 2.5 3.79 2 3.8-.4l-.04-9.56a48 48 0 0 0 1.53 4.67c.85 2.14 3.82 1.25 3.75-.9l-.02-.8c1.14.61 3.11-.13 3.14-1.91.06-4.43-2.42-8.2-4-12.2" style="fill:#9ab6d4;fill-opacity:1;fill-rule:nonzero;stroke:none;stroke-width:0.133333"/><path id="path3557" d="M188.3-182.02a11 11 0 0 0-3.49-2.32 84 84 0 0 1-8.84-4.68c-4.53-2.82-8.73-6.3-13.49-8.72-4.03-2.05-7.73-4.66-11.74-6.73-2.48-1.27-5.42-1.65-7.4.55-1 1.1.6 2.6 1.75 1.82 2.2-1.51 6.77 2.47 8.55 3.63 3.72 2.43 7.92 4.06 11.54 6.64a115 115 0 0 0 10.16 6.51c3.58 2.05 8.15 4.5 12.32 4.7.83.04 1.2-.8.64-1.4" style="fill:#9ab6d4;fill-opacity:1;fill-rule:nonzero;stroke:none;stroke-width:0.133333"/><path id="path3558" d="M163.9-184.83c-2.9-1.9-5.52-4.02-8.63-5.65-3.56-1.85-7.38-3.18-10.95-5.05-4.36-2.29-7.85-6.89-12.78-8.02-1.73-.4-2.27 2.15-.8 2.87 4.45 2.15 7.8 6.2 12.17 8.57 6.52 3.55 13.35 6.72 20.63 8.06.41.07.75-.53.37-.78" style="fill:#9ab6d4;fill-opacity:1;fill-rule:nonzero;stroke:none;stroke-width:0.133333"/><path id="path3559" d="M161.2-175.55c-5.89-3.5-12.96-4.33-19.42-6.36l-1.97-.68c-1.98-.66-3.98-1.4-6.01-1.9l-1.09-.41c-2.24-.9-4.41-1.61-6.82-1.08-1 .22-1.75 1.16-1.33 2.21l.02.06c-.03.5.11.82.57 1.4.26.35.77.4 1.06.05l.57-.48c2.19.04 4.3 1.3 6.28 2.07 3.03 1.2 6.23 2.06 9.33 3.04 6.15 1.94 12.22 3.06 18.69 2.75.38-.02.4-.5.12-.67" style="fill:#9ab6d4;fill-opacity:1;fill-rule:nonzero;stroke:none;stroke-width:0.133333"/><path id="path3560" d="M158.48-164.6c-2.22-1.62-4.79-1.67-7.47-1.9-3.61-.3-6.96-1.7-10.54-2.08-2.12-.21-7.08-.47-7.89 2.18-.35 1.13.8 2.3 1.9 1.51 1.85-1.32 7.48.22 9.28.75 4.48 1.3 9.5 1.59 14.17 1.38.9-.04 1.27-1.3.55-1.83" style="fill:#9ab6d4;fill-opacity:1;fill-rule:nonzero;stroke:none;stroke-width:0.133333"/><path id="path3561" d="M264.22-146.55c-2.82 1.03-5.24 2.7-7.86 3.95a1.5 1.5 0 0 0-.73.12c-1.52.63-3 1.17-4.62 1.48-.82.16-1.23.77-1.29 1.41q-.49.24-.97.51c-.84.5-.4 1.8.46 1.94 1.33.21 2.7 0 4-.46-.5.41-.77 1.07-.43 1.78 1 2.04 2.14 4.04 3.7 5.7 1.65 1.75 4.52-.3 3.02-2.29a17 17 0 0 1-2.29-3.84c-.5-1.33.72-1.92.6-3.16q.32-.27.62-.57a20 20 0 0 0 6.86-5.08c.6-.73-.19-1.81-1.07-1.5" style="fill:#667c9a;fill-opacity:1;fill-rule:nonzero;stroke:none;stroke-width:0.133333"/><path id="path3562" d="M274.65-224.42c-.08-.2-.35-.16-.4.03-1.1 4.37-.97 8.98-1.63 13.43-.78 5.32-3.17 10.08-5.87 14.65q-1.71 2.96-3.48 5.92c-4.17 5.39-7.87 11.34-14.4 14.18-.41.18-.69.49-.85.85q-.96.42-1.95.9c-.84.38-1.74.83-2.62.5 0-.91-.33-1.56-1.36-1.51-1.71.07-2.96 3.63-3.7 4.87q-.5.87-1.19 1.56l-.1.1c-2.04 2.05-5.03 3.12-7.6 4.27-1.88.86-1.24 4.2.96 3.68 4.22-.94 8.94-3.6 11.1-7.5.25-.46.95-1.84 1.43-3.26 1.34.51 3.84-.26 5.4-1.42.33.3.77.44 1.32.31 10.03-2.34 15.02-11.5 19.83-19.74 5.59-9.57 9.08-20.86 5.11-31.82" style="fill:#667c9a;fill-opacity:1;fill-rule:nonzero;stroke:none;stroke-width:0.133333"/><path id="path3563" d="m231.82-171.48-.12.06a.2.2 0 0 0-.35-.09c-1.88 1.92-5.03 3.3-7.52 4.25a48 48 0 0 1-9.05 2.71c-.2.04-.28.21-.19.38 1.6 2.93 6.58 1.67 8.99.8a14.3 14.3 0 0 0 7.26-6.26c.5-.45.95-.9 1.28-1.51.1-.19-.11-.41-.3-.34" style="fill:#667c9a;fill-opacity:1;fill-rule:nonzero;stroke:none;stroke-width:0.133333"/><path id="path3564" d="M219.94-173.66c-2.93 1.03-5.72 2.54-8.62 3.67-2.42.95-5.71.8-7.7 2.43l-.02.33c2.05 1.66 5.42.63 7.75 0 3.36-.9 6.76-3.2 9-5.84.24-.28-.06-.7-.41-.59" style="fill:#667c9a;fill-opacity:1;fill-rule:nonzero;stroke:none;stroke-width:0.133333"/><path id="path3565" d="M214.31-180.31c-2.37 1.3-4.21 2.3-6.88 3-3.5.91-7.37 2.44-10.98 2.12-.26-.03-.6.04-.74.29.36-.6-.31.34-.26.46 1.63 3.64 8.47.55 11.13-.26 2.19-.68 8.37-2.32 8.35-5.32 0-.33-.38-.42-.62-.29" style="fill:#667c9a;fill-opacity:1;fill-rule:nonzero;stroke:none;stroke-width:0.133333"/><path id="path3566" d="M173.2-183.69c-.63-1.25-2.02-1.85-3.18-2.49-2.9-1.6-5.87-3.11-8.79-4.68-5.32-2.87-10.67-5.73-15.9-8.76-.24-.14-.43.22-.25.4 2.05 1.97 3.78 4.05 6.08 5.76 2.3 1.7 4.84 3.06 7.3 4.5 2.56 1.52 5.18 2.94 7.81 4.34 1.6.84 4.1 2.67 6.06 2.3.59-.1 1.18-.73.86-1.37" style="fill:#667c9a;fill-opacity:1;fill-rule:nonzero;stroke:none;stroke-width:0.133333"/><path id="path3567" d="M172.37-176.56c-3.31-1.8-7.41-2.19-10.98-3.4a75 75 0 0 1-10.62-4.55c-3.86-2.01-7.39-4.73-11.06-7.05-3.37-2.12-7.21-3.83-10.19-6.55-.13-.11-.34.07-.23.2 2.44 3 4.14 5.8 7.32 8.2 3.62 2.71 7.22 5.47 11.1 7.83a66 66 0 0 0 10.95 5.08c3.87 1.48 9.16 3.68 13.32 2.73 1.29-.29 1.59-1.83.39-2.49" style="fill:#667c9a;fill-opacity:1;fill-rule:nonzero;stroke:none;stroke-width:0.133333"/><path id="path3568" d="M169.16-167.01c-3.47-1-7.22-1.24-10.74-2.2-4.26-1.17-8.54-2.3-12.78-3.52a87 87 0 0 1-11.1-4.28c-2.54-1.13-5.3-3.86-8.02-4.16-.15-.02-.32.06-.34.23-.3 2.71 3.24 4.6 5.22 5.77a68 68 0 0 0 11.5 5.62 211 211 0 0 0 15.17 4.64c3.33.91 8.32 2.9 11.45.8.98-.67.86-2.55-.36-2.9" style="fill:#667c9a;fill-opacity:1;fill-rule:nonzero;stroke:none;stroke-width:0.133333"/><path id="path3569" d="M241.58-127.88c-.69-1.56-1.96-2.73-2.66-4.31a11 11 0 0 1-.82-2.74q.37-.37.48-.96h.02v-.86c0-.53.04-1.07-.08-1.58l-.05-.14-.1-.62a2 2 0 0 0-.13-.4c.68-.88.1-2.09-.98-2.38-.92-.25-2.02-.31-3-.53a1.7 1.7 0 0 0-1.07-.5c-2.25-.2-4.18-1.28-5.95-2.64 1.22-.52 1.92-2.28.5-3.13-1.16-.7-2.41-1.35-3.54-2.14q.38-.25.75-.55c1.49-1.18.16-3.77-1.66-2.97q-.82.36-1.66.58c-.07-.4-.26-.79-.64-1.08l-.19-.16q-.36-.48-.8-.92a2 2 0 0 0-1-.61c-3.13-1.57-7.14-.62-10.49-.24-4.92.56-9.8.86-14.74.97-4.82.1-9.65.06-14.46-.37-1.9-.17-3.8-.65-5.7-.57-2.14.1-4.14.62-6.27.81l-.03.2c3.61 1.7 7.64 1.97 11.54 2.74 4.46.88 9.32.77 13.85.79q7.42.04 14.8-.75c2.04-.22 4.32-.24 6.52-.52q.16.26.46.44c.34.2.7.26 1.08.3-.73.65-.4 2.12.7 2.32v.02l1.04.08.08.29a7.7 7.7 0 0 0 2.76 3.22c3.56 3.05 6.74 6.79 11.46 7.72l.05.04q1.3.69 2.57.86a14 14 0 0 0 .53 6.33c.7 2.43 2.38 5.68 5.1 6.14 1.17.2 2.21-1.08 1.73-2.18" style="fill:#667c9a;fill-opacity:1;fill-rule:nonzero;stroke:none;stroke-width:0.133333"/><path id="path3570" d="M306.7-234.03a9 9 0 0 1-3.2-1.83c-.63-.54-1.03-1.44-1.83-1.78-1.4-.59-3.26.55-3.77 1.89a1 1 0 0 0 .15.96l.06.27c.5 1.29 1.3 2.44 1.76 3.75.17.49.76.86 1.28.76 1.52-.3 2.62-1.23 3.99-1.89h.02l.57.2c1.54.45 2.52-1.85.96-2.33" style="fill:#d3ac68;fill-opacity:1;fill-rule:nonzero;stroke:none;stroke-width:0.133333"/><path id="path3571" d="M300.66-237.74q-.33.23-.5.59-.18.19-.43.28c-.35.12-.85-.03-1.2-.1h.01a.9.9 0 0 0-.88.34c-.47.6-.06 1.34.6 1.51a3.7 3.7 0 0 0 2.49-.12.9.9 0 0 0 .8-.32c.24-.33.32-.72.47-1.1a.9.9 0 0 0-1.36-1.08" style="fill:#d38933;fill-opacity:1;fill-rule:nonzero;stroke:none;stroke-width:0.133333"/><path id="path3572" d="M290.77-240.32a4 4 0 0 0-1.1-.01c-2.24-.47-3.63 1.43-4.18 3.52a3.7 3.7 0 0 0 .11 2.26c.42 1.89 2.4 3.16 4.4 3.02q.54-.04 1-.2a5 5 0 0 0 3.33-3.57c.57-2.38-1.3-4.64-3.56-5.02" style="fill:#b05b68;fill-opacity:1;fill-rule:nonzero;stroke:none;stroke-width:0.133333"/><path id="path3573" d="M305.68-242.05c-.71-.3-1.39-.04-1.86.46q-.42.17-.73.49a3 3 0 0 0-.51 3.04c.3.71.9 1.12 1.55 1.2.7.3 1.52.18 2.08-.55q.29-.38.4-.89c.68-1.2.37-3.2-.93-3.75" style="fill:#b05b68;fill-opacity:1;fill-rule:nonzero;stroke:none;stroke-width:0.133333"/><path id="path3574" d="M246.83-194.22c-.44.33-.82.71-1.24 1.06-.25.21-.67.39-.86.66-.16.02-.2.24-.05.33l.1.2q.17.11.36.12c.3.03.64-.11.89-.25a3.2 3.2 0 0 0 1.41-1.6c.15-.37-.27-.78-.61-.52" style="fill:#6090bf;fill-opacity:1;fill-rule:nonzero;stroke:none;stroke-width:0.133333"/><path id="path3575" d="M236-191.47c-.42.07-.86.1-1.22.32q-.69.42-1.24 1c-.14.14.04.4.22.32q.6-.24 1.16-.54c.43-.23.76-.55 1.18-.8.14-.08.06-.32-.1-.3" style="fill:#6090bf;fill-opacity:1;fill-rule:nonzero;stroke:none;stroke-width:0.133333"/><path id="path3576" d="M250.36-201.49q-.65.34-1.14.87c-.4.43-.86.81-1.27 1.22-.14.13.04.38.2.3.93-.4 2.3-1.07 2.42-2.2.01-.11-.1-.25-.21-.19" style="fill:#6090bf;fill-opacity:1;fill-rule:nonzero;stroke:none;stroke-width:0.133333"/><path id="path3577" d="M260.41-202.96c-.04-.13-.18-.19-.31-.15-.65.19-1.04.73-1.43 1.25q-.27.38-.6.72c-.08.1-.19.24-.23.39h-.04c-.24.07-.1.45.13.37h.03c.16.09.38.1.56.08.45-.04.89-.37 1.2-.66.55-.5.96-1.26.7-2" style="fill:#6090bf;fill-opacity:1;fill-rule:nonzero;stroke:none;stroke-width:0.133333"/><path id="path3578" d="M263.97-213.74c-.08-.16-.28-.18-.37-.02q-.82 1.5-1.33 3.13c-.04.17.15.3.3.25a2.42 2.42 0 0 0 1.4-3.36" style="fill:#6090bf;fill-opacity:1;fill-rule:nonzero;stroke:none;stroke-width:0.133333"/><path id="path3579" d="M260.98-219.61c-.02-.17-.21-.33-.38-.25-1.78.9-1.64 3.23-.84 4.75.09.16.32.08.35-.07.3-1.44.99-2.95.87-4.43" style="fill:#6090bf;fill-opacity:1;fill-rule:nonzero;stroke:none;stroke-width:0.133333"/><path id="path3580" d="M266.78-225.1c-.14-.48-.43-.67-.86-.84-.2-.07-.39.18-.2.33.18.14.26.56.29.78.05.4.09.8.2 1.17l.26.05c.37-.4.46-.97.3-1.5" style="fill:#6090bf;fill-opacity:1;fill-rule:nonzero;stroke:none;stroke-width:0.133333"/><path id="path3581" d="M267.75-213.3c-.12-.3-.58-.35-.73-.02-.22.5-.32 1.03-.44 1.57q-.17.64-.4 1.26c-.56.32-.33 1.43.5 1.43l.12-.02.15-.03.08-.03.18-.15.04-.04c.73-1.04.97-2.78.5-3.96" style="fill:#6090bf;fill-opacity:1;fill-rule:nonzero;stroke:none;stroke-width:0.133333"/><path id="path3582" d="M267.82-218.94c-.16-.21-.44-.04-.39.2a4 4 0 0 1-.04 1.53c-.09.4-.1.79-.2 1.18-.04.16.17.3.3.2.48-.4.8-.77.87-1.4a2.3 2.3 0 0 0-.54-1.71" style="fill:#6090bf;fill-opacity:1;fill-rule:nonzero;stroke:none;stroke-width:0.133333"/><path id="path3583" d="M280.06-189.2c-.17-.41-.43-.62-.68-.94-.13-.16-.39-.08-.38.14.01.26-.15.64-.2.91-.09.42-.16.82-.33 1.21-.25.55-1.2 1.29-.81 1.94.1.16.32.26.5.23 1.17-.15 1.7-.98 1.97-2.06.1-.43.1-1.02-.07-1.44" style="fill:#6090bf;fill-opacity:1;fill-rule:nonzero;stroke:none;stroke-width:0.133333"/><path id="path3584" d="M276.56-198.89c-.1-.18-.36-.08-.4.09-.34 1.56-.95 3.07-1.37 4.61-.08.29.27.44.48.31a3.74 3.74 0 0 0 1.3-5" style="fill:#6090bf;fill-opacity:1;fill-rule:nonzero;stroke:none;stroke-width:0.133333"/><path id="path3585" d="M273.23-186.23c-.04-.16-.32-.19-.38-.02q-.18.54-.57.94c-.3.29-.78.5-.98.86l.1.29c.52.29 1.26-.18 1.57-.59q.48-.67.26-1.48" style="fill:#6090bf;fill-opacity:1;fill-rule:nonzero;stroke:none;stroke-width:0.133333"/><path id="path3586" d="M285.27-194.3c-.15-.15-.38 0-.38.18q.05.89-.1 1.78c-.08.53-.17 1.04-.09 1.59.05.33.51.55.75.23.78-1.06.8-2.84-.18-3.79" style="fill:#6090bf;fill-opacity:1;fill-rule:nonzero;stroke:none;stroke-width:0.133333"/><path id="path3587" d="M287.25-181.48q-.39 1.06-1.02 2c-.4.58-.89 1.26-1.14 1.93-.1.24.12.54.4.43 1.62-.63 2.65-2.53 2.7-4.2.01-.5-.78-.6-.94-.16" style="fill:#6090bf;fill-opacity:1;fill-rule:nonzero;stroke:none;stroke-width:0.133333"/><path id="path3588" d="M295.65-182.77c.05-.37-.51-.38-.49-.03.02.3-.27.69-.39.96-.15.32-.34.66-.4 1.02-.1.63.85.95 1.09.33q.18-.52.2-1.08c.05-.4-.05-.81 0-1.2" style="fill:#6090bf;fill-opacity:1;fill-rule:nonzero;stroke:none;stroke-width:0.133333"/><path id="path3589" d="M301.34-186.98c-.04-.6-1-.65-1.05-.04q-.1 1.04-.32 2.07c-.13.69-.11 1.1.4 1.58l.34.01c.48-.42.58-.72.6-1.37.03-.75.07-1.5.03-2.25" style="fill:#6090bf;fill-opacity:1;fill-rule:nonzero;stroke:none;stroke-width:0.133333"/><path id="path3590" d="M299.6-177.25c-.24.53-.87 1-1.24 1.44-.4.49-.9.93-1.28 1.43-.51.67.29 1.37.96 1a4 4 0 0 0 1.34-1.55c.15-.27.35-.62.4-.93.06-.39.05-.86.2-1.21.09-.25-.28-.43-.39-.18" style="fill:#6090bf;fill-opacity:1;fill-rule:nonzero;stroke:none;stroke-width:0.133333"/><path id="path3591" d="M307.94-185.81c.09-.26-.3-.44-.38-.18-.1.33-.36.58-.57.86-.3.38-.48.9-.66 1.34-.41 1.02 1.2 1.52 1.45.43.1-.39.13-.76.17-1.16.03-.42-.14-.9 0-1.3" style="fill:#6090bf;fill-opacity:1;fill-rule:nonzero;stroke:none;stroke-width:0.133333"/><path id="path3592" d="M309.27-192.6c-.02-.26-.44-.3-.46-.03a9 9 0 0 1-1.31 3.94c-.2.3.12.73.44.49.6-.46 1.03-.94 1.23-1.69.27-.97.15-1.74.1-2.72" style="fill:#6090bf;fill-opacity:1;fill-rule:nonzero;stroke:none;stroke-width:0.133333"/><path id="path3593" d="M301.9-179.59c-.06.83-.52 1.44-.97 2.1-.29.44.07.93.57.8 1.31-.31 1.85-1.6 1.82-2.85-.03-.8-1.35-.85-1.41-.05" style="fill:#6090bf;fill-opacity:1;fill-rule:nonzero;stroke:none;stroke-width:0.133333"/><path id="path3594" d="M262.48-168.34c-.12-.3-.53-.47-.8-.25-.37.29-.53.75-.87 1.06-.2.18-.41.32-.6.5l-.27.2c-.18.13-.23.32-.33.5-.12.23.01.52.23.62.78.37 1.56-.08 2.06-.68.43-.5.83-1.3.58-1.95" style="fill:#6090bf;fill-opacity:1;fill-rule:nonzero;stroke:none;stroke-width:0.133333"/><path id="path3595" d="M270.6-165.76c-.2.12-.43.17-.64.3l-.68.5c-.53.38-1.13.66-1.62 1.09-.54.47-.12 1.34.6 1.12.7-.2 1.23-.7 1.74-1.18.52-.5.82-.92.93-1.62.02-.19-.17-.3-.32-.2" style="fill:#6090bf;fill-opacity:1;fill-rule:nonzero;stroke:none;stroke-width:0.133333"/><path id="path3596" d="M277.72-164.4c-.4.71-1.13 1.32-1.7 1.9q-.4.42-.77.89c-.25.32-.2.57-.14.93.02.12.12.23.26.22.33-.03.47-.02.75-.23.35-.25.61-.7.86-1.05a8 8 0 0 0 1.15-2.47c.09-.27-.27-.46-.41-.19" style="fill:#6090bf;fill-opacity:1;fill-rule:nonzero;stroke:none;stroke-width:0.133333"/><path id="path3597" d="M282.26-161.92a16 16 0 0 1-3.98 2.84c-.52.26-.26 1.08.31.87a13 13 0 0 0 4.77-2.82c.65-.63-.46-1.53-1.1-.89" style="fill:#6090bf;fill-opacity:1;fill-rule:nonzero;stroke:none;stroke-width:0.133333"/><path id="path3598" d="M243.83-159.68c-.5-.18-.96-.03-1.46.05-.47.08-.99.2-1.38.49-.15.1-.18.35-.02.46.77.55 2.41.75 3.09-.05.24-.29.14-.8-.23-.95" style="fill:#6090bf;fill-opacity:1;fill-rule:nonzero;stroke:none;stroke-width:0.133333"/><path id="path3599" d="M245.59-152.97a4 4 0 0 0-1.61-.4 3.4 3.4 0 0 0-1.65.08c-.18.07-.3.32-.15.48.69.81 2.14 1.28 3.18 1.29.83 0 .83-1.13.23-1.45" style="fill:#6090bf;fill-opacity:1;fill-rule:nonzero;stroke:none;stroke-width:0.133333"/><path id="path3600" d="M250.79-147.96c-1.97.46-3.8 1.19-5.83 1.37-.6.05-.68 1.05-.04 1.09 2.26.12 4.63-.2 6.31-1.84.32-.3-.1-.7-.44-.62" style="fill:#6090bf;fill-opacity:1;fill-rule:nonzero;stroke:none;stroke-width:0.133333"/><path id="path3601" d="M251.3-161.31c-.36.01-.72.13-1.07.23l-.61.16-.24.09-.1.08q-.06.19-.06.07c-.2.12-.13.39.04.49s.23.19.44.24q.4.08.8.06c.51-.01 1.08-.28 1.24-.8.1-.32-.07-.64-.43-.62" style="fill:#6090bf;fill-opacity:1;fill-rule:nonzero;stroke:none;stroke-width:0.133333"/><path id="path3602" d="M260.3-174.19a10 10 0 0 0-3.4 2.26c-.16.15 0 .47.22.43a6 6 0 0 0 3.62-2.07c.23-.3-.06-.75-.43-.62" style="fill:#6090bf;fill-opacity:1;fill-rule:nonzero;stroke:none;stroke-width:0.133333"/><path id="path3603" d="m269.89-176.97-.31-.1c-.33.25-.52.71-.73 1.07q-.44.7-1.08 1.22c-.23.2 0 .52.26.38q.78-.43 1.39-1.08c.33-.36.67-1 .47-1.5" style="fill:#6090bf;fill-opacity:1;fill-rule:nonzero;stroke:none;stroke-width:0.133333"/><path id="path3604" d="M182.04-162.08c-.48-.26-1.14-.25-1.67-.3a10 10 0 0 0-1.74-.03c-.46.03-.48.6-.14.8q.69.42 1.46.63c.52.15 1.1.42 1.64.46a.82.82 0 0 0 .45-1.56" style="fill:#6090bf;fill-opacity:1;fill-rule:nonzero;stroke:none;stroke-width:0.133333"/><path id="path3605" d="M182.07-168.64c-1.1-1.69-3.89-2.04-5.74-1.84-.26.03-.34.4-.1.5.87.37 1.76.66 2.65.97.96.34 1.79.84 2.8.98a.4.4 0 0 0 .4-.61" style="fill:#6090bf;fill-opacity:1;fill-rule:nonzero;stroke:none;stroke-width:0.133333"/><path id="path3606" d="M194.53-161.76c-.84-.34-1.77-.39-2.64-.63-.74-.2-1.09 1-.38 1.27.84.32 1.69.72 2.57.92.91.22 1.3-1.22.45-1.56" style="fill:#6090bf;fill-opacity:1;fill-rule:nonzero;stroke:none;stroke-width:0.133333"/><path id="path3607" d="M186.24-173.19c-.35.16-.37.6-.04.78.36.2.73.34 1.07.57.37.26.73.44 1.2.41.19-.01.3-.18.3-.36.02-1.1-1.62-1.8-2.53-1.4" style="fill:#6090bf;fill-opacity:1;fill-rule:nonzero;stroke:none;stroke-width:0.133333"/><path id="path3608" d="M207.46-162.2c-.13-.39-.51-.54-.9-.55-.92 0-1.95.35-2.85.02-.2-.08-.5.16-.31.37.94 1.06 2.14 1.64 3.56 1.28.27-.06.54-.4.55-.67l.02-.24s-.12-.38-.07-.2" style="fill:#6090bf;fill-opacity:1;fill-rule:nonzero;stroke:none;stroke-width:0.133333"/><path id="path3609" d="m289.33-246.2-.23-.2-.25-.24a1.05 1.05 0 0 0-1.44.17.57.57 0 0 0-.73.32c-.2.46-.17.9-.16 1.39v.23c0-.4.03.21.04.27q.1.5.27.98c.3.81 1.2 1.79 2.15 1.29a2 2 0 0 0 1.07-1.75l.11-.33c.2-.77-.32-1.61-.83-2.14" style="fill:#667c9a;fill-opacity:1;fill-rule:nonzero;stroke:none;stroke-width:0.133333"/><path id="path3610" d="m304.45-245.75-.35-.22c-.31-.2-.64-.4-1.03-.35-.54.06-.96.57-.9 1.12v.03l-.08.16-.08.04c-.44.25-.58.82-.5 1.3.1.55.83 1.06 1.34.59.5-.46 1.08-.8 1.57-1.25.4-.37.55-1.06.03-1.42" style="fill:#667c9a;fill-opacity:1;fill-rule:nonzero;stroke:none;stroke-width:0.133333"/><path id="path3611" d="M302.52-251.36a1 1 0 0 0-.64-.43c.18-.49.1-1.08-.38-1.5-3.39-2.93-9.26-5-13.88-3.63l-.72.05c-3.66.41-7.89 2.35-10.36 5.28a17 17 0 0 0-3.97 2.85c-.24.23-.21.69-.02.93.25.33.7.45 1.07.17q1.14-.87 2.39-1.5c.96-.23 1.9-.67 2.8-1.16a53 53 0 0 1 4.2-1.19 38 38 0 0 1 13.98-.87q1.62.66 3.17 1.33.46.18.84.07.19.21.43.37h.01a.7.7 0 0 0 .43.27c.25.05.46-.06.63-.23.2-.22.18-.58.02-.8" style="fill:#667c9a;fill-opacity:1;fill-rule:nonzero;stroke:none;stroke-width:0.133333"/><path id="path3612" d="M277.02-239.76c-.35.49-.73.96-1.05 1.47-.21.33-.64.9-.34 1.29l.15.04c.41-.12.52-.75.68-1.1.24-.53.55-1.02.85-1.51.1-.17-.18-.35-.3-.19" style="fill:#9ab6d4;fill-opacity:1;fill-rule:nonzero;stroke:none;stroke-width:0.133333"/><path id="path3613" d="m277.13-243.38-1.06 1.02c-.34.33-.64.72-.98 1.05-.15.15.07.38.24.27q.58-.42 1.14-.89c.38-.32.68-.78.96-1.19a.2.2 0 0 0-.3-.26" style="fill:#9ab6d4;fill-opacity:1;fill-rule:nonzero;stroke:none;stroke-width:0.133333"/><path id="path3614" d="M272.03-235.82c-.17.1-.3.1-.46.24l-.47.44q-.43.43-.64 1.03c-.09.25.18.53.43.36q.45-.33.77-.76l.4-.54c.13-.18.15-.34.25-.53.09-.19-.12-.31-.28-.24" style="fill:#9ab6d4;fill-opacity:1;fill-rule:nonzero;stroke:none;stroke-width:0.133333"/><path id="path3615" d="M279.54-232.98c-.03-.22-.36-.25-.4-.02-.08.52-1.78 3.23-.74 3.48.65.17 1-.69 1.14-1.16q.15-.52.17-1.05c.03-.44-.12-.81-.17-1.25" style="fill:#9ab6d4;fill-opacity:1;fill-rule:nonzero;stroke:none;stroke-width:0.133333"/><path id="path3616" d="M284.29-230.59c-.11-.23-.5-.1-.39.14s-.03.59-.11.83c-.1.27-.2.5-.1.78.07.24.34.28.53.17.38-.2.4-.69.4-1.05 0-.34-.2-.57-.33-.87" style="fill:#9ab6d4;fill-opacity:1;fill-rule:nonzero;stroke:none;stroke-width:0.133333"/><path id="path3617" d="M281.03-237.24c-.14.41-.36.8-.51 1.21-.1.29.21.47.43.28q.54-.49.81-1.16c.2-.49-.57-.82-.73-.33" style="fill:#9ab6d4;fill-opacity:1;fill-rule:nonzero;stroke:none;stroke-width:0.133333"/><path id="path3618" d="M295.2-242.47c-.09-.16-.38-.1-.39.08-.03.51-.25 1.2.06 1.64.12.17.42.22.55.03.35-.53.06-1.25-.22-1.75" style="fill:#9ab6d4;fill-opacity:1;fill-rule:nonzero;stroke:none;stroke-width:0.133333"/><path id="path3619" d="M293.32-247.77c0-.3-.45-.25-.45.04-.01.57-.07 1.14.13 1.69h.19c.2-.56.14-1.13.13-1.73" style="fill:#9ab6d4;fill-opacity:1;fill-rule:nonzero;stroke:none;stroke-width:0.133333"/><path id="path3620" d="M299.9-241.58c-.16-.45-.5-.73-.72-1.14-.1-.2-.45-.03-.36.18.08.21.05.46.04.68q0 .32.05.63c.04.32.34.73.72.6.41-.15.4-.61.27-.95" style="fill:#9ab6d4;fill-opacity:1;fill-rule:nonzero;stroke:none;stroke-width:0.133333"/><path id="path3621" d="M293.82-227.06c0-.18-.04-.41-.03-.6.02-.23-.3-.3-.36-.06-.1.42-.89 2.25.03 2.35l.1-.02c.36-.2.24-.71.24-1.03z" style="fill:#9ab6d4;fill-opacity:1;fill-rule:nonzero;stroke:none;stroke-width:0.133333"/><path id="path3622" d="M299.19-225.76c-.13-.23-.43-.02-.38.2.16.75.12 1.49.49 2.18l.2-.02c.4-.8.1-1.62-.31-2.36" style="fill:#9ab6d4;fill-opacity:1;fill-rule:nonzero;stroke:none;stroke-width:0.133333"/><path id="path3623" d="m297.73-219.2-.12-.8c-.04-.25-.15-.45-.22-.68-.06-.2-.32-.14-.37.03-.08.27-.2.49-.26.77q-.08.45-.05.92c.03.47.2 1.09.74 1.15.16.01.32-.05.38-.2.18-.4-.04-.8-.1-1.2" style="fill:#9ab6d4;fill-opacity:1;fill-rule:nonzero;stroke:none;stroke-width:0.133333"/><path id="path3624" d="M304.98-221.9q-.42-.52-.95-.94a.22.22 0 0 0-.35.12c-.09.52.1 1.21.55 1.52.46.33 1.12-.2.75-.7" style="fill:#9ab6d4;fill-opacity:1;fill-rule:nonzero;stroke:none;stroke-width:0.133333"/><path id="path3625" d="M305.07-225.6c-.2-.59-.7-1.12-.6-1.8.04-.24-.34-.32-.38-.07-.03.23-.13.43-.16.66q-.03.3 0 .6c.03.44.24.86.62 1.09.3.18.61-.19.52-.48" style="fill:#9ab6d4;fill-opacity:1;fill-rule:nonzero;stroke:none;stroke-width:0.133333"/><path id="path3626" d="M280.17-220.89c-.03-.2-.34-.25-.38-.02-.1.7-.44 1.58.03 2.2l.3.02c.5-.63.16-1.5.05-2.2" style="fill:#9ab6d4;fill-opacity:1;fill-rule:nonzero;stroke:none;stroke-width:0.133333"/><path id="path3627" d="M283.69-221.66c-.03-.26-.44-.3-.47-.03-.08.85-.39 1.66.08 2.46.08.13.25.08.32-.03.45-.78.14-1.58.07-2.4" style="fill:#9ab6d4;fill-opacity:1;fill-rule:nonzero;stroke:none;stroke-width:0.133333"/><path id="path3628" d="M265.47-230.3a4 4 0 0 0-1.5 3.01c-.01.18.25.24.35.11.66-.86.77-1.96 1.4-2.83.13-.17-.07-.43-.25-.28" style="fill:#9ab6d4;fill-opacity:1;fill-rule:nonzero;stroke:none;stroke-width:0.133333"/><path id="path3629" d="M263.85-224.62c-.03-.22-.36-.25-.4-.02-.12.9-.72 1.77-.6 2.72.05.38.57.6.82.26.3-.41.36-.86.38-1.35.03-.58-.13-1.05-.2-1.6" style="fill:#9ab6d4;fill-opacity:1;fill-rule:nonzero;stroke:none;stroke-width:0.133333"/><path id="path3630" d="M270.27-226.6c-.1-.2-.41-.16-.39.08.05.45.03.93.02 1.37v.58c0 .26.08.5.1.75.01.17.27.29.37.12.3-.47.44-.75.42-1.33s-.28-1.05-.52-1.57" style="fill:#9ab6d4;fill-opacity:1;fill-rule:nonzero;stroke:none;stroke-width:0.133333"/><path id="path3631" d="M271.04-216.57c-.08-.24-.44-.1-.37.13.13.43.06.92-.05 1.36-.07.33-.16.6-.04.94l.2.1c1.03-.4.5-1.8.26-2.53" style="fill:#9ab6d4;fill-opacity:1;fill-rule:nonzero;stroke:none;stroke-width:0.133333"/><path id="path3632" d="M263.97-218.11c-.09-.18-.33-.18-.38.03-.24.9-.4 1.91-.87 2.73-.2.34.3.56.53.34.87-.83 1.27-1.98.72-3.1" style="fill:#9ab6d4;fill-opacity:1;fill-rule:nonzero;stroke:none;stroke-width:0.133333"/><path id="path3633" d="M254.1-216.58c-.02-.12-.19-.2-.3-.15-.54.25-.78.82-1.06 1.31-.36.6-.72 1.2-.97 1.86-.13.32.21.6.5.42a4 4 0 0 0 1.26-1.45c.33-.57.72-1.33.58-2" style="fill:#9ab6d4;fill-opacity:1;fill-rule:nonzero;stroke:none;stroke-width:0.133333"/><path id="path3634" d="M256.64-212.35c-.56.99-1.25 1.84-1.92 2.75-.17.23.1.55.33.38.98-.72 2.03-1.76 2-3.06 0-.23-.31-.25-.4-.07" style="fill:#9ab6d4;fill-opacity:1;fill-rule:nonzero;stroke:none;stroke-width:0.133333"/><path id="path3635" d="M251.44-205.24c-.63.54-1.24 1.07-1.92 1.55-.19.14-.04.44.18.37.86-.3 1.62-.85 2.06-1.65.1-.18-.15-.4-.32-.27" style="fill:#9ab6d4;fill-opacity:1;fill-rule:nonzero;stroke:none;stroke-width:0.133333"/><path id="path3636" d="M245.83-206.07a8 8 0 0 0-2.12 1.32c-.2.18-.33.4-.52.59-.17.16.08.41.26.3.18-.13.45-.22.65-.33q.4-.22.77-.48.69-.42 1.23-1c.17-.18-.05-.5-.27-.4" style="fill:#9ab6d4;fill-opacity:1;fill-rule:nonzero;stroke:none;stroke-width:0.133333"/><path id="path3637" d="M258.57-206.62q-.39.3-.79.57c-.24.17-.51.25-.73.46l.03.31c.33.28.76.2 1.12.04.44-.21.69-.52.87-.97.13-.3-.22-.62-.5-.41" style="fill:#9ab6d4;fill-opacity:1;fill-rule:nonzero;stroke:none;stroke-width:0.133333"/><path id="path3638" d="M264.2-204.95c-.4.14-.66.37-.97.65q-.43.34-.91.6c-.55.3-.06 1.1.48.94.82-.26 1.77-.85 1.94-1.74.06-.3-.25-.55-.54-.45" style="fill:#9ab6d4;fill-opacity:1;fill-rule:nonzero;stroke:none;stroke-width:0.133333"/><path id="path3639" d="M260.52-196.47c-1.15 1.05-2.03 2.36-3.21 3.38-.3.25 0 .7.34.5a7.7 7.7 0 0 0 3.26-3.63c.1-.26-.2-.42-.4-.25" style="fill:#9ab6d4;fill-opacity:1;fill-rule:nonzero;stroke:none;stroke-width:0.133333"/><path id="path3640" d="M252.76-193.74c-.68.8-1.4 1.72-2.29 2.28-.27.18-.12.7.22.63 1.34-.28 2.16-1.15 3.02-2.15.51-.6-.44-1.36-.95-.76" style="fill:#9ab6d4;fill-opacity:1;fill-rule:nonzero;stroke:none;stroke-width:0.133333"/><path id="path3641" d="M241.34-196.9c-.58.13-1.16.48-1.7.71q-.84.37-1.65.8l.05.23c1.25.26 2.9-.32 3.55-1.46.1-.17-.1-.3-.25-.27" style="fill:#9ab6d4;fill-opacity:1;fill-rule:nonzero;stroke:none;stroke-width:0.133333"/><path id="path3642" d="M229.62-195.39c-1.36-.38-2.17 1.2-2.94 1.99-.23.23.1.51.35.39.96-.51 1.95-1.24 2.72-2 .14-.14.02-.33-.13-.38" style="fill:#9ab6d4;fill-opacity:1;fill-rule:nonzero;stroke:none;stroke-width:0.133333"/><path id="path3643" d="M222.15-189.8a4 4 0 0 0-1.63.25c-.14.05-.18.29-.02.34.56.2 1.37.24 1.75-.32.06-.09.04-.25-.1-.26" style="fill:#9ab6d4;fill-opacity:1;fill-rule:nonzero;stroke:none;stroke-width:0.133333"/><path id="path3644" d="M226.01-186.07c-.36-.12-.77.07-1.1.24q-.7.36-1.36.79c-.17.11-.07.38.13.37.5-.03.98-.19 1.44-.37.39-.15.87-.38 1.01-.8z" style="fill:#9ab6d4;fill-opacity:1;fill-rule:nonzero;stroke:none;stroke-width:0.133333"/><path id="path3645" d="M217.4-191.76a3 3 0 0 0-.99-.07c-.4.05-.85.01-1.22.2-.27.12-.33.5-.03.65.4.2.9.15 1.33.12.42-.03.78-.25 1.03-.57a.2.2 0 0 0-.12-.33" style="fill:#9ab6d4;fill-opacity:1;fill-rule:nonzero;stroke:none;stroke-width:0.133333"/><path id="path3646" d="M233.16-186.29c-.32-.22-.73-.16-1.1-.14-.5.03-.93.25-1.36.5-.57.33.03 1.14.59.83.3-.18.65-.29.97-.44.3-.15.7-.22.92-.51z" style="fill:#9ab6d4;fill-opacity:1;fill-rule:nonzero;stroke:none;stroke-width:0.133333"/><path id="path3647" d="M233.69-181.64c-.65-.04-1.31.15-1.94.27-.23.05-.3.4-.02.44.71.12 1.51.02 2.05-.53z" style="fill:#9ab6d4;fill-opacity:1;fill-rule:nonzero;stroke:none;stroke-width:0.133333"/><path id="path3648" d="M239.65-182.04c-.89.73-1.67 1.58-2.6 2.27-.21.15.02.49.23.33q1.44-1.03 2.57-2.38c.1-.13-.06-.33-.2-.22" style="fill:#9ab6d4;fill-opacity:1;fill-rule:nonzero;stroke:none;stroke-width:0.133333"/><path id="path3649" d="M242.17-189.14c-.74.02-1.3.88-1.61 1.47-.13.24.2.4.38.24q.37-.33.76-.63c.26-.18.54-.29.75-.54.2-.23 0-.55-.28-.54" style="fill:#9ab6d4;fill-opacity:1;fill-rule:nonzero;stroke:none;stroke-width:0.133333"/><path id="path3650" d="M272.63-191.01a4 4 0 0 0-1.01 1.47c-.16.31-.75 1.14-.2 1.4.52.24.85-.52 1.03-.86.3-.56.58-1.18.6-1.81 0-.2-.27-.32-.42-.2" style="fill:#9ab6d4;fill-opacity:1;fill-rule:nonzero;stroke:none;stroke-width:0.133333"/><path id="path3651" d="M279.69-202.82c-.11-.24-.47-.19-.46.09q.01.65-.14 1.28c-.1.47-.4.85-.48 1.32-.06.34.39.7.68.43.8-.72.84-2.21.4-3.12" style="fill:#9ab6d4;fill-opacity:1;fill-rule:nonzero;stroke:none;stroke-width:0.133333"/><path id="path3652" d="m279.27-213.74-.3-.1c-.52.42-.62 1.12-.76 1.74-.2.87-.25 1.65 0 2.49.07.2.35.2.44.02.36-.68.42-1.3.52-2.05.09-.67.32-1.46.1-2.1" style="fill:#9ab6d4;fill-opacity:1;fill-rule:nonzero;stroke:none;stroke-width:0.133333"/><path id="path3653" d="M282.84-201.8c-.17 1.43-.74 2.75-1.07 4.15-.06.28.3.4.48.22 1.06-1.13 1.41-2.7 1.56-4.2.05-.63-.9-.8-.97-.17" style="fill:#9ab6d4;fill-opacity:1;fill-rule:nonzero;stroke:none;stroke-width:0.133333"/><path id="path3654" d="M280.83-192.22c-.08-.13-.3-.15-.4-.02-.2.26-.24.6-.32.91q-.17.5-.23 1.01c-.02.25.24.36.41.2.48-.46.95-1.48.54-2.1" style="fill:#9ab6d4;fill-opacity:1;fill-rule:nonzero;stroke:none;stroke-width:0.133333"/><path id="path3655" d="M288.33-188.78c-.14-.23-.5-.14-.55.12q-.12.75-.39 1.46c-.19.45-.4.86-.5 1.35-.06.34.38.67.66.42.92-.8 1.5-2.25.78-3.35" style="fill:#9ab6d4;fill-opacity:1;fill-rule:nonzero;stroke:none;stroke-width:0.133333"/><path id="path3656" d="M281.95-181.4q-.38.54-.83 1.01c-.34.36-.64.75-1 1.08-.32.3-.08.99.4.75 1-.5 1.75-1.15 2.37-2.08.43-.64-.49-1.4-.94-.76" style="fill:#9ab6d4;fill-opacity:1;fill-rule:nonzero;stroke:none;stroke-width:0.133333"/><path id="path3657" d="m273.61-179.75-.08-.04c-.42.13-.77.67-1.1.96-.44.41-.85.84-1.33 1.2-.22.18-.05.53.22.45a3.7 3.7 0 0 0 1.7-1.03c.3-.35.75-1.06.59-1.54" style="fill:#9ab6d4;fill-opacity:1;fill-rule:nonzero;stroke:none;stroke-width:0.133333"/><path id="path3658" d="M264.04-179.53c-.89.5-1.97 1.11-2.16 2.2-.04.21.2.34.36.23.84-.5 1.48-1.35 2.1-2.1.17-.2-.09-.45-.3-.33" style="fill:#9ab6d4;fill-opacity:1;fill-rule:nonzero;stroke:none;stroke-width:0.133333"/><path id="path3659" d="m276.73-173.9-.03.05c-.38.12-.73.5-1.05.71q-.34.26-.66.55c-.18.16-.39.3-.44.54l.09.18c.43.24 1.25-.18 1.59-.45q.36-.3.6-.7.14-.19.2-.42l.03-.3c.12-.21-.22-.37-.33-.16" style="fill:#9ab6d4;fill-opacity:1;fill-rule:nonzero;stroke:none;stroke-width:0.133333"/><path id="path3660" d="M288.08-176.05c-.13-.64-1.13-.58-1.03.1.07.5-.04.93-.22 1.4-.27.7.75 1.16 1.06.47.29-.62.33-1.3.2-1.97" style="fill:#9ab6d4;fill-opacity:1;fill-rule:nonzero;stroke:none;stroke-width:0.133333"/><path id="path3661" d="M293.31-185.57c-.14.5-.37 1-.57 1.48-.17.41-.33.86-.07 1.26l.28.05c.36-.28.44-.72.58-1.13.17-.52.34-1 .38-1.55.02-.4-.49-.49-.6-.11" style="fill:#9ab6d4;fill-opacity:1;fill-rule:nonzero;stroke:none;stroke-width:0.133333"/><path id="path3662" d="M299.61-180.51q-.28.5-.36 1.07c-.07.49.7.77.86.27.12-.39.1-.75.13-1.15.02-.37-.44-.54-.63-.2" style="fill:#9ab6d4;fill-opacity:1;fill-rule:nonzero;stroke:none;stroke-width:0.133333"/><path id="path3663" d="M304.77-188.4c-.07-.34-.3-.6-.68-.56a.6.6 0 0 0-.56.67c.11.7.03 1.43.37 2.07.26.48.98.2 1.07-.25.1-.61-.07-1.33-.2-1.93" style="fill:#9ab6d4;fill-opacity:1;fill-rule:nonzero;stroke:none;stroke-width:0.133333"/><path id="path3664" d="M311.8-196.12c-.2.76-.7 1.74-.46 2.52.09.3.54.39.73.12.47-.66.32-1.74.38-2.52.03-.43-.54-.54-.65-.12" style="fill:#9ab6d4;fill-opacity:1;fill-rule:nonzero;stroke:none;stroke-width:0.133333"/><path id="path3665" d="M304.67-175.63c-.78.15-1.43.96-1.46 1.73 0 .43.57.63.88.4.28-.2.44-.46.6-.77.14-.24.33-.45.44-.7.12-.3-.1-.73-.46-.66" style="fill:#9ab6d4;fill-opacity:1;fill-rule:nonzero;stroke:none;stroke-width:0.133333"/><path id="path3666" d="M299.26-170.9c-.8 1.05-1.46 2.2-2.36 3.15-.47.5.25 1.11.77.82 1.24-.7 1.83-2 2.63-3.13.5-.7-.51-1.53-1.04-.84" style="fill:#9ab6d4;fill-opacity:1;fill-rule:nonzero;stroke:none;stroke-width:0.133333"/><path id="path3667" d="m292.75-172.54-.68 1.18c-.26.45-.45.94-.75 1.36-.29.41.19 1 .63.68.46-.35.88-.7 1.2-1.2.3-.46.54-1 .8-1.49.42-.75-.78-1.26-1.2-.53" style="fill:#9ab6d4;fill-opacity:1;fill-rule:nonzero;stroke:none;stroke-width:0.133333"/><path id="path3668" d="M287.16-162.45q-.51.59-1.1 1.11c-.4.35-.8.63-1.06 1.1-.16.3.13.6.42.6 1.13 0 1.95-1.34 2.55-2.15.41-.54-.35-1.16-.81-.66" style="fill:#9ab6d4;fill-opacity:1;fill-rule:nonzero;stroke:none;stroke-width:0.133333"/><path id="path3669" d="M282.23-165.11q-.4.56-.85 1.07c-.12.14.03.37.2.3.51-.22.8-.65 1.08-1.1.15-.24-.27-.51-.43-.27" style="fill:#9ab6d4;fill-opacity:1;fill-rule:nonzero;stroke:none;stroke-width:0.133333"/><path id="path3670" d="M275.15-169.14c-.71.43-1.48.87-2.03 1.5-.29.32.08.71.44.63.82-.2 1.54-.77 2.25-1.2.64-.38-.03-1.31-.66-.93" style="fill:#9ab6d4;fill-opacity:1;fill-rule:nonzero;stroke:none;stroke-width:0.133333"/><path id="path3671" d="M266.68-171.05q-.42.34-.82.7c-.3.27-.44.58-.6.94-.06.14.04.33.2.3.35-.05.61-.1.9-.3.34-.21.63-.5.95-.75.56-.42-.08-1.31-.63-.89" style="fill:#9ab6d4;fill-opacity:1;fill-rule:nonzero;stroke:none;stroke-width:0.133333"/><path id="path3672" d="M258.6-170.22c-.84.76-2.08 1.17-3.12 1.59-.24.09-.18.46.09.44a5 5 0 0 0 3.36-1.76c.2-.2-.13-.45-.33-.27" style="fill:#9ab6d4;fill-opacity:1;fill-rule:nonzero;stroke:none;stroke-width:0.133333"/><path id="path3673" d="M248-169.86c-.37.16-.84.02-1.15.28l-.06.18c.24.62.96.21 1.4.11.38-.09.17-.72-.2-.57" style="fill:#9ab6d4;fill-opacity:1;fill-rule:nonzero;stroke:none;stroke-width:0.133333"/><path id="path3674" d="M251.79-165.14c-.97-.47-2.34.11-3.28.42-.33.1-.22.66.12.6l1.67-.3c.53-.1 1.04-.1 1.52-.35.15-.08.1-.3-.03-.37" style="fill:#9ab6d4;fill-opacity:1;fill-rule:nonzero;stroke:none;stroke-width:0.133333"/><path id="path3675" d="M262-161.44c-.8-.22-1.61-.44-2.43-.18-.31.09-.21.49.04.56.8.25 1.61.02 2.4-.2z" style="fill:#9ab6d4;fill-opacity:1;fill-rule:nonzero;stroke:none;stroke-width:0.133333"/><path id="path3676" d="M269.91-157.29c-.78-.37-1.82.1-2.56.38-.58.22-.26 1.07.32.9.74-.22 1.75-.39 2.31-.96z" style="fill:#9ab6d4;fill-opacity:1;fill-rule:nonzero;stroke:none;stroke-width:0.133333"/><path id="path3677" d="M273.3-151.92q-.6.2-1.2.48c-.42.19-.92.25-1.3.5-.27.16-.14.53.12.6.43.1.91-.09 1.32-.22q.75-.25 1.4-.72c.33-.24.05-.76-.34-.64" style="fill:#9ab6d4;fill-opacity:1;fill-rule:nonzero;stroke:none;stroke-width:0.133333"/><path id="path3678" d="M264.77-142.78c-.3-.82-1.74-.76-1.77.2-.1 3.3-.59 6.36-1.5 9.55-.14.54.56.87.96.6 3-2.06 3.46-7.15 2.31-10.35" style="fill:#9ab6d4;fill-opacity:1;fill-rule:nonzero;stroke:none;stroke-width:0.133333"/><path id="path3679" d="M246.56-140.47c-.33-.3-.87-.27-1.22-.01-.27.2-.46 1.52-.2 1.4-.26.12-.21 1.57-.26 1.93-.13.96-.43 1.9-.72 2.82-.49 1.5-1.31 2.86-1.72 4.38-.27 1.02 1.14 1.7 1.88 1.1 1.62-1.31 2.29-3.9 2.83-5.82.52-1.84 1.04-4.37-.59-5.8" style="fill:#9ab6d4;fill-opacity:1;fill-rule:nonzero;stroke:none;stroke-width:0.133333"/><path id="path3680" d="M241.64-143.88a3.3 3.3 0 0 0-1.48-.64l-.73-.14c-.27-.04-.41.03-.66.09-.13.03-.19.22-.1.32.29.35.55.52 1 .69.59.2 1.14.4 1.77.32.3-.05.45-.43.2-.64" style="fill:#9ab6d4;fill-opacity:1;fill-rule:nonzero;stroke:none;stroke-width:0.133333"/><path id="path3681" d="M253.16-145.44a7 7 0 0 0-2.58.29c-.3.08-.2.47.04.53.9.24 1.91.4 2.66-.28.18-.16.17-.5-.12-.54" style="fill:#9ab6d4;fill-opacity:1;fill-rule:nonzero;stroke:none;stroke-width:0.133333"/><path id="path3682" d="M255.58-151.08a9 9 0 0 0-3.26-.2c-.2.02-.3.34-.07.42 1.06.34 2.28.37 3.35.07.16-.04.11-.25-.02-.29" style="fill:#9ab6d4;fill-opacity:1;fill-rule:nonzero;stroke:none;stroke-width:0.133333"/><path id="path3683" d="M260.86-148.3c-.68-.21-1.37.08-2.04-.08-.36-.09-.47.5-.1.56.74.1 1.55.41 2.22-.11.15-.12.1-.32-.08-.37" style="fill:#9ab6d4;fill-opacity:1;fill-rule:nonzero;stroke:none;stroke-width:0.133333"/><path id="path3684" d="M231.56-153c-.43-.2-.91-.14-1.37-.1-.4.05-.82.03-1.16.26a.3.3 0 0 0-.07.4c.26.37.75.47 1.18.51.58.06 1.14.01 1.57-.4.2-.2.07-.55-.15-.66" style="fill:#9ab6d4;fill-opacity:1;fill-rule:nonzero;stroke:none;stroke-width:0.133333"/><path id="path3685" d="M236.28-157.97c-.38-.77-1.63-.72-2.37-.83-.69-.1-.87.94-.18 1.07.73.15 1.88.64 2.5.04z" style="fill:#9ab6d4;fill-opacity:1;fill-rule:nonzero;stroke:none;stroke-width:0.133333"/><path id="path3686" d="M225.25-157.66c-.45-.26-1.03-.19-1.5-.05-.4.12-.45.8-.04.94l.99.34c.83.25 1.32-.8.55-1.23" style="fill:#9ab6d4;fill-opacity:1;fill-rule:nonzero;stroke:none;stroke-width:0.133333"/><path id="path3687" d="M214.19-160.52c-.31-.4-.74-.29-1.19-.29l-1.44-.01c-.2 0-.32.32-.14.44.44.28.86.48 1.38.6.49.13 1.16.15 1.42-.35z" style="fill:#9ab6d4;fill-opacity:1;fill-rule:nonzero;stroke:none;stroke-width:0.133333"/><path id="path3688" d="M209.88-164.85q-.7-.22-1.43-.19c-.63 0-.52.94.09.96q.46.01.92.16c.32.12.63.33.98.3q.27-.06.27-.32c.02-.47-.45-.77-.83-.9" style="fill:#9ab6d4;fill-opacity:1;fill-rule:nonzero;stroke:none;stroke-width:0.133333"/><path id="path3689" d="M194.47-166.19c-.22-.73-1.48-.66-2.07-.57-.3.05-.34.48-.03.54q.53.09 1.03.27c.34.13.62.27.97.06z" style="fill:#9ab6d4;fill-opacity:1;fill-rule:nonzero;stroke:none;stroke-width:0.133333"/><path id="path3690" d="M187.87-161.92c-.16-.41-.5-.61-.93-.69-.4-.07-.76.1-1.14.18-.21.05-.14.4.08.38.6-.08 1.09.43 1.64.54.22.04.43-.2.35-.41" style="fill:#9ab6d4;fill-opacity:1;fill-rule:nonzero;stroke:none;stroke-width:0.133333"/><path id="path3691" d="M192.72-159.1c-2.22-.48-4.41.38-6.61.62-.25.03-.28.39-.03.43 2.23.39 4.51-.09 6.66-.67.2-.05.16-.34-.03-.38" style="fill:#9ab6d4;fill-opacity:1;fill-rule:nonzero;stroke:none;stroke-width:0.133333"/><path id="path3692" d="M202.13-159.68c-.54-.33-1.21-.17-1.82-.23-.25-.02-.41.35-.14.45q.46.17.96.21c.4.03.67.04 1.02-.18z" style="fill:#9ab6d4;fill-opacity:1;fill-rule:nonzero;stroke:none;stroke-width:0.133333"/><path id="path3693" d="M168.22-158.07c-.97 0-2.08.33-2.99.66-.14.05-.18.3-.02.35 1.06.36 2.44.33 3.29-.48.22-.21-.03-.53-.28-.53" style="fill:#9ab6d4;fill-opacity:1;fill-rule:nonzero;stroke:none;stroke-width:0.133333"/><path id="path3694" d="M173.4-162.24c-.35-.96-1.74-.78-2.42-.34-.31.2-.17.66.16.73q.42.09.85.14c.34.05.61.23.96.17.33-.06.57-.36.45-.7" style="fill:#9ab6d4;fill-opacity:1;fill-rule:nonzero;stroke:none;stroke-width:0.133333"/><path id="path3695" d="M166.4-170.49a6 6 0 0 0-3.7-1.85c-.16 0-.23.25-.1.34.46.33.99.56 1.48.84.67.37 1.28.8 2 1.04.21.07.51-.16.32-.37" style="fill:#9ab6d4;fill-opacity:1;fill-rule:nonzero;stroke:none;stroke-width:0.133333"/><path id="path3696" d="M177.24-174.56c-.46-.4-1.32-.78-1.91-.46l-.06.3c.27.44.9.66 1.31.98.54.41 1.17-.37.66-.82" style="fill:#9ab6d4;fill-opacity:1;fill-rule:nonzero;stroke:none;stroke-width:0.133333"/><path id="path3697" d="M174.4-179.6c-.79-.86-2.47-1.23-3.6-1.15-.23.02-.33.4-.08.47l1.83.6c.57.2 1.13.48 1.76.38.16-.03.2-.2.1-.3" style="fill:#9ab6d4;fill-opacity:1;fill-rule:nonzero;stroke:none;stroke-width:0.133333"/><path id="path3698" d="M181.65-179.73a4 4 0 0 0-1.72-.38c-.24 0-.33.4-.09.48q.7.22 1.34.55c.4.2.74.62 1.23.58q.18-.03.19-.22c.02-.53-.54-.8-.95-1" style="fill:#9ab6d4;fill-opacity:1;fill-rule:nonzero;stroke:none;stroke-width:0.133333"/><path id="path3699" d="M161.16-180.97c-.22.16-.07.45.17.46.35.01.71.02 1.04.16.36.15.65.44 1.02.58.17.06.35-.05.34-.24-.02-1.18-1.76-1.52-2.57-.96" style="fill:#9ab6d4;fill-opacity:1;fill-rule:nonzero;stroke:none;stroke-width:0.133333"/><path id="path3700" d="M155.79-172.43c-.35-.2-.79-.25-1.19-.24q-.33 0-.65.03c-.21.03-.42.15-.63.15-.28.01-.23.42.03.43.34 0 .71.17 1.05.23.42.06.83.16 1.26.16s.45-.59.13-.76" style="fill:#9ab6d4;fill-opacity:1;fill-rule:nonzero;stroke:none;stroke-width:0.133333"/><path id="path3701" d="M158.77-161.91c-.47-.11-.87 0-1.33 0-.24-.01-.22.36.02.36.44.01.9.31 1.3.48.22.09.6.1.65-.17.07-.33-.39-.61-.64-.67" style="fill:#9ab6d4;fill-opacity:1;fill-rule:nonzero;stroke:none;stroke-width:0.133333"/><path id="path3702" d="m306.2-248.9-.95.57a18 18 0 0 0-2.34-3.8c1.1-.76 2.28-2.13 1.94-3.48-.47-1.86-2.43-2.35-4.1-2.6-3.4-.55-6.96-.14-10.44.35-1.82-.04-3.78.12-5.51.77-4.7.72-12.64 2.5-11.4 7.3a38 38 0 0 0-4.5 5.63q-.24-.01-.4.2c-.19.31-2.58.13-2.98.12q-2.61-.08-5.2-.26l-4.04-.3c-1.63-.14-4.4-.3-3.02-2.53 2.65-4.25 8.42-6.42 12.72-8.47a88 88 0 0 1 17-5.99c5.4-1.32 10.95-2.18 16.46-2.92 5.19-.7 11.46-1.18 16.11 1.72 6.66 4.15-6.31 11.9-9.35 13.69m-11.38-8.45c1.71-.13 3.43-.16 5.14 0 1.2.1 2.4.3 3.4 1.03 1.45 1.07-.05 2.62-1.09 3.43q-.96-1.06-2.14-2.03a13 13 0 0 0-5.31-2.43m-20.76 6.9c-.15-2.58 3.35-4.03 6.7-4.87a30 30 0 0 0-6.7 4.86m32.42 15.3-.31-.1a7.2 7.2 0 0 1-4.08-3.31c-.14-.24-.42-.45-.7-.3-1.6.79-3.56 1.69-4.68 3.1-.07.1 0 .25.12.24l.35-.05.02.13.16.16c.21 2.23 2.15 4.04 3.31 5.83.12.2.37.23.58.16a27 27 0 0 0 5.6-2.17c-.06 8.03 4.9 15.34 6.35 23.13.8 4.29.84 8.82.46 13.15-.4 4.5-1.8 8.44-3.4 12.6l-.03.17c-2.2 4.18-5.18 8.02-8.06 11.58a91 91 0 0 1-19.28 17.69c-6.76 4.6-15.05 6.01-21.66 10.88-2.72 2.01-5.03 4.13-8.5 4.6-.74.1-2.62.12-3.9.56a6 6 0 0 0-.37-1.88c-.13-.36-.71-.33-.76.07-.36 3.55-.75 6.62-2.83 9.67-1.44 2.13-4.3 4.34-6.76 2.44-3.6-2.79-3.12-8.5-3.98-12.46-.06-.27-.46-.42-.59-.1q-.15.38-.22.8a34 34 0 0 1-10.48-5.98 79 79 0 0 1-4.65-4.24c-1.02-1.01-1.94-2.56-3.22-3.33 2.19-.34 4.37-.81 6.56-1.08.58-.07.46-.87-.1-.88-2.45-.05-4.83.4-7.24.76-3.06.45-6.15.34-9.23.4-6.34.1-12.67.3-19-.12-9.35-.62-18.49-2.77-27.74-4.18-5.8-.88-11.63-1.83-17.28-3.48-2.39-.7-4.96-1.5-6.96-3.04-2.37-1.83-.53-3.92 1.85-4.47 3.26-.74 6.87-.1 10.3.83q3.22 1.15 6.46 2.1c3.8 1.1 7.7 2.3 11.61 2.89.43.06.63-.58.22-.73-2.87-1.05-5.93-1.66-8.89-2.45-3.5-.93-6.97-2-10.37-3.29-6.02-2.29-12.36-5.47-17.2-9.78-1.48-1.3-3.55-3.45-3.4-5.58.23-3.28 6.54-1.4 8.24-.92q4.44 1.27 8.8 2.77c2.7.94 5.56 2.58 8.46 2.63a75 75 0 0 0 17.23 6.4c.42.1.6-.54.2-.7-6.12-2.58-12.47-4.38-18.43-7.4a53 53 0 0 1-16.27-12.49c-1.65-1.92-3.27-4-3.85-6.52-.4-1.77.47-2.64 2.27-2.55 2.07.1 4 1.56 5.64 2.7a75 75 0 0 0 8.64 5.19c1.76.9 3.96 2.45 6.02 2.86 6.12 4.69 12.93 8.35 20.01 11.43.61.26.95-.62.4-.93-3.83-2.14-7.94-3.72-11.74-5.93a82 82 0 0 1-10.5-7.52c-2.29-1.88-4.63-3.93-5.91-6.66-2.21-4.7 5.7-2.24 7.54-1.46 8.36 3.5 15.72 8.68 23.24 13.65 3.68 2.43 7.43 4.73 11.18 7.05 2.26 1.41 5.02 3.17 7.8 3.2l-.38.18c-1 .53-2.55 1.46-2.17 2.83.27 1 1.27 1.39 2.18 1.61 3.87.95 8.67-.47 12.42-1.37 3.09-.75 5.76-1.55 8.35-3a20 20 0 0 1-4.4 2.8 57 57 0 0 1-5.72 2.53c-1.63.62-7.69 2.32-5.72 5.07 1.96 2.74 8.05.74 10.57.12a42 42 0 0 0 11.16-4.49c-3.98 3.25-8.94 7.42-5.81 8.58 1.16.44 2.71.03 3.86-.26a42 42 0 0 0 5.26-1.73 35 35 0 0 0 8.1-4.31c-1.64 1.96-3.47 3.83-4.25 6.22-.76 2.33 2.04 1.73 3.17 1.05 3.92-2.36 6.96-5.3 10.01-8.67q1.3-1.41 2.62-3.01.06.31.27.7c.31.55.93.82 1.52.93 1.7.33 3.64-1.07 4.94-1.96 4.52-3.08 8.22-7.47 11.66-11.64a58 58 0 0 0 10.76-19.39 48 48 0 0 0 2-10.82c.27-3.38.6-7.7-.72-10.88-.11-.28-.6-.28-.62.06-.22 3.08.39 6.25.26 9.36a49 49 0 0 1-1.38 9.57c-1.56 6.5-4.73 12.6-8.62 18a78 78 0 0 1-10.67 12.14 31 31 0 0 1-4.65 3.56c-.82.49-1.83 1-2.81.94-1.03-.06-.97-.98-.95-1.84a17 17 0 0 0 2.98-5.85c.07-.3-.41-.54-.58-.26-3.48 5.64-7.2 10.93-12.3 15.26q-1.8 1.5-3.83 2.66c-.18.1-2.48 1.65-1.99.14.27-.8.87-1.54 1.36-2.23 1.71-2.4 3.82-4.4 5.16-7.06.28-.57-.52-.93-.9-.53-2.94 3.08-6.45 5.02-10.35 6.62-2.58 1.07-5.73 2.5-8.57 2.35-1.8-.1.27-2.2.77-2.75 1.2-1.28 2.6-2.4 3.95-3.52q1.38-1.16 2.77-2.3c.77-.62 1.93-1.44 2.29-2.46l.64-.53c.34-.31-.03-.86-.43-.6-4.94 3.28-9.93 6.41-15.77 7.81-1.66.4-3.32.8-5.02 1.04-.64.1-6.33.34-5.06-1.44.91-1.28 3.22-1.86 4.62-2.4q2.1-.8 4.17-1.72c3.3-1.46 7.43-3.29 9.03-6.76.22-.5-.4-.97-.83-.65-2.91 2.2-5.64 3.23-9.1 4.14-3.7.99-7.56 1.84-11.4 1.94-.98.02-2.72.09-3.4-.8-.96-1.26 3.44-2.85 4.14-3.13 4.27-1.72 8.61-3.23 12.49-5.75q1.4-.56 2.56-1.43c.36-.28.05-.83-.37-.69-3.2 1.05-6.17 2.18-9.5 2.79-2.39.43-4.75.94-7.14 1.36-1.2.22-2.4.34-3.62.2-.48-.04-2.28-.58-1.68-1.52.29-.44.95-.69 1.4-.9 2.06-.94 4.43-1.47 6.6-2.06 6.7-1.83 12.94-4.71 18.96-8.13q4.07-2.32 7.98-4.92c1.53-1 3.25-2.25 4.49-3.75 6.56-4.82 12-11.1 17.44-17.08 3.31-3.65 6.68-7.43 10.54-10.53a34 34 0 0 1 5.88-3.72c1.27-.65 2.96-.96 4.07-1.91l.3-.14c1.5-2.26 2.51-4.81 4.08-7.06a30.5 30.5 0 0 1 11.96-10.34c2.19-1.1 4.57-1.12 6.86-1.62l1.81-.21c3.22.29 6.37 1.38 8.66 3.22 5.64 4.56 6.61 11.81 6.6 18.6m-8.9-.5c1.33-.36 2.6-1.34 3.81-2a10 10 0 0 0 4.52 3.58 49 49 0 0 1-2.29-.18c-2.12-.22-4-.93-6.05-1.4m9.57 2.68-.17.1a25 25 0 0 1-5.5 2.47c-.61.2-2.46-2.7-3.4-4.3 1.4.89 3.37 1.14 4.87 1.38 1.18.19 2.39.24 3.58.3q.3.01.62.05m-42.28 94.17a12.3 12.3 0 0 1-3.91 8.23c-4.14 3.76-6.72-2.98-7.97-6.13.85-.08 1.56-.14 1.86-.22 3.45-.9 6.19-3.95 9.08-5.86q.48-.32.98-.6c-.18 1.47.08 3.16-.04 4.58m-12.95-108.02q-.01-.35.05-.77c.44-2.7 3.17-4.66 5.22-6.12 5.1-3.62 11.58-5.57 17.4-7.73 6.34-2.37 12.97-3.58 19.69-4.32q2.46-.3 4.94-.47.21.06.42-.02 1.92-.12 3.85-.07 1.3.05 2.52.32c-2.27 0-4.54.24-6.71.51-11.14 1.4-22.29 3.72-32.54 8.41-4.54 2.08-9.4 4.22-13 7.76a9 9 0 0 0-1.84 2.5m17.9-23.76a74 74 0 0 0-4.27-10.47c-1.53-3-3.56-5.45-5.76-7.97-2.63-3.03 2.83-6.27 4.96-7.78 5.37-3.8 12.3-6.4 18.68-7.92a52 52 0 0 1 6.76-1.12c1.8-.18 4.88-.64 6.32.77l.08.05c1.58 6.38.73 12.89 1.02 19.4.17 3.75.47 7.48.7 11.22.14 2.28-.13 4.91.38 7.2-1.89.14-3.77.37-5.65.57-7.45.82-14.37 2.74-21.33 5.3.45-3.11-.93-6.36-1.89-9.25m44.24 5.94a18 18 0 0 0-3.53-1c-2.44-.88-4.72-1.59-7.52-1.69q-1.5-.03-3 .04c-.7-6.34-.88-12.85-1.18-19.22-.16-3.53-.03-7.03-.06-10.56-.02-2.8-.2-5.84-1.47-8.39a.5.5 0 0 0-.16-.43c-1.29-1.26-3.57-1.14-5.24-1.1a43 43 0 0 0-7.92 1.1 60 60 0 0 0-18.8 7.5c-2.36 1.47-5.34 3.44-6.77 5.9-1.67 2.89 1.32 4.9 3.01 6.95 2.68 3.28 4.4 7.32 5.94 11.22q1.18 3.07 2.2 6.2c.73 2.26 1.49 4.53 1.24 6.93l.02.18-1.1.41c-6.02 2.31-13.4 4.66-17.4 10.1-1.04 1.41-1.67 3.25-1.1 4.97.42 1.25 1.59 1.86 2.83 2.09 1.03.23 2.19.21 3.18.3q2.69.2 5.38.34a50 50 0 0 0 5.45.02l-.3.55c-.65 1.25-1.55 2.46-1.84 3.85-1.56 1.03-3.61 1.49-5.28 2.32a32 32 0 0 0-5.02 3.24c-3.6 2.76-6.72 6.32-9.79 9.64-3.38 3.66-6.6 7.48-10.18 10.95-3.42 3.3-7.3 6.09-10.68 9.42l-.06.28a68 68 0 0 1-4.19 2.67c-3.63 2.15-7.2 4.34-10.98 6.22a68 68 0 0 1-11.18 4.5c-2.9.85-5.9 1.49-8.7 2.65-1.2.5-2.66 1.46-2 2.93.86 1.94 3.76 1.68 5.44 1.5 2.71-.29 5.44-1 8.13-1.47a74 74 0 0 0 3.86-.74 64 64 0 0 1-5.51 2.41c-1.59.6-3.2 1.12-4.78 1.77l-.2-.11c-4.6-.6-8.27-3.26-12.13-5.62-4.6-2.82-9.05-5.86-13.55-8.84-4.03-2.67-8.1-5.33-12.45-7.49-3.38-1.68-7.36-3.9-11.24-3.74-2.05.08-3.68 1.33-3.07 3.51.72 2.57 2.71 4.61 4.62 6.37q1 .9 2.04 1.76-.25-.15-.5-.27c-1.87-1.02-3.75-2-5.58-3.1-3.21-1.93-6.28-4.56-9.77-5.94-1.76-.7-4.54-.89-5.22 1.32-.61 1.96.73 4.38 1.74 5.97 3.85 6.09 10.22 10.83 16.35 14.38l1.87 1.04c-1.1-.41-2.17-.94-3.24-1.36q-3.01-1.18-6.12-2.15c-2.99-.96-6.05-2.04-9.16-2.53-1.75-.28-4.36-.26-5.4 1.51-1.05 1.8.18 3.8 1.28 5.27 1.58 2.1 3.74 3.6 5.89 5.08a69 69 0 0 0 10.38 5.8l.66.28c-2.83-.45-6.34-.81-8.85.85-4.16 2.77 1.31 6.04 3.7 7.04 5.47 2.3 11.53 3.34 17.33 4.37 7.24 1.28 14.48 2.67 21.75 3.8a136 136 0 0 0 23.09 1.35l11.72-.19q1.63-.05 3.25-.27c1.15 1.33 2.14 2.76 3.38 4.01a87 87 0 0 0 5.08 4.7c3 2.6 6.69 4.59 10.43 5.88l.1.01c-.08 1.88.47 3.96.9 5.58.67 2.55 1.88 5.48 4.38 6.7.65.31 1.3.4 1.95.36 1.34 5.74 1.53 11.6 2.47 17.4-2.76-.25-6.03-1.3-8.52 0-.22.11-.28.55.06.57 3.04.12 6.06.61 9.1.69l.17-.04c1.55 1.02 3.25 1.8 4.75 2.93 1.64 1.24 3.2 2.83 5.07 3.7h.14c-.05.22.1.52.4.52.5 0 .4-.76-.08-.76l-.08.01-.05-.17c-1.44-1.72-3.44-3.1-5.27-4.38-.71-.5-1.6-1.15-2.52-1.64q2.94.67 5.83 1.72c2.51.91 4.8 2.22 7.23 3.3.45.19.78-.41.43-.72-2.17-1.89-5.14-2.92-7.81-3.87q-1.28-.45-2.67-.89h1.7c2.73.1 5.46.97 8.2.6.56-.09.62-1.03.01-1.04-2.92-.08-5.8-.64-8.72-.7-1.84-.04-4.17-.33-6.18-.06-.87-5.72-.59-11.94-2.63-17.38 1.64-.52 3.14-1.89 4.13-3.11 1.51-1.89 3-4.99 3.24-7.83.52-.36 1.96-.56 3.32-.7.27 3.43 3.11 8.34 6.82 8.12-.84 2-.13 5.2-.07 7.12.1 3.87 0 7.77.74 11.58q-1.3-.14-2.57-.3c-.74-.09-.84.93-.16 1.11 1.18.32 2.25.8 3.47.9h.07c1.24.74 2.62 1.38 3.87 2.05 2.29 1.23 4.61 2.54 7.1 3.33.7.22 1.14-.76.45-1.06a144 144 0 0 1-7.74-3.65c-.48-.24-1.04-.62-1.64-.96l1.15.1q1.76.65 3.51 1.34c1.72.66 3.78 1.88 5.6 2.11.26.04.55-.3.33-.54-1.33-1.43-4.18-1.92-6-2.6l.96.1q1.98.15 3.95.35l1.47.18q.24.05.48-.02t.16-.06c.21 0 .42-.2.3-.44-.6-1.3-4.25-1-5.43-1.1q-4.1-.34-8.18-.73c-.82-3.75-.71-7.66-.83-11.48-.08-2.48-.4-5-.13-7.48l.5-.14c2.75-1.1 4.54-4.62 5.31-7.28.48-1.65.5-3.44.54-5.15.01-.85.15-1.98-.04-2.86 3.01-1.6 6.3-2.69 9.44-3.96a48 48 0 0 0 10.79-6.26 96 96 0 0 0 17.96-17.52c2.95-3.76 6.22-8.09 7.95-12.8 1.25-2.67 1.85-5.75 2.26-8.57.61-4.25.53-8.6.07-12.87-.47-4.47-1.97-8.64-3.59-12.82a56 56 0 0 1-3.56-12.93 9 9 0 0 0 1.58-1.3l.14-.05q.2-.1.21-.29h.23c.42-.04.5-.64.12-.8-.78-.36-1.64-.51-2.48-.71.27-4.35-.08-8.65-1.6-12.48a32 32 0 0 0 7.92-5c2.1-1.72 4.39-3.93 4.93-6.7.56-2.85-2.17-4.6-4.43-5.52" style="fill:#422000;fill-opacity:1;fill-rule:nonzero;stroke:none;stroke-width:0.133333"/><path id="path3703" d="M287.01-246.41c-.5-.07-.85.1-1.09.4a.7.7 0 0 0-.66.31c-.3.45-.15 1.02.08 1.46.59 1.1 1.92 1.86 2.92.76 1.02-1.12.14-2.74-1.25-2.93" style="fill:#422000;fill-opacity:1;fill-rule:nonzero;stroke:none;stroke-width:0.133333"/><path id="path3704" d="M303.89-247.48c-.22-.35-.58-.75-1.02-.78-.64-.03-1.04.5-1.21 1.16q-.12.2-.16.46a2 2 0 0 0-.03.76l.07.19q.06.3.28.48.22.35.63.28.29-.07.51-.3.62-.03 1.05-.47c.52-.51.2-1.27-.12-1.78" style="fill:#422000;fill-opacity:1;fill-rule:nonzero;stroke:none;stroke-width:0.133333"/><path id="path3705" d="M296.02-217.47c-.06-.12-.25-.02-.2.1.2.59.21 1.22.13 1.83-.07.52-.35.97-.49 1.46l.1.1c1.36-.3.94-2.63.46-3.5" style="fill:#422000;fill-opacity:1;fill-rule:nonzero;stroke:none;stroke-width:0.133333"/><path id="path3706" d="M298.72-217.34c-.07-.12-.25-.02-.2.1q.17.67.15 1.36c-.01.41-.21.82-.05 1.22l.18.1c.5-.19.5-.76.5-1.22 0-.57-.27-1.1-.58-1.56" style="fill:#422000;fill-opacity:1;fill-rule:nonzero;stroke:none;stroke-width:0.133333"/><path id="path3707" d="M302.04-215.59c-.02-.45-.27-.86-.5-1.24l-.2.08q.11.57.07 1.14-.05.33-.08.67c-.39.1-.3.75.16.75.23 0 .33-.16.33-.34.24-.27.23-.7.22-1.06" style="fill:#422000;fill-opacity:1;fill-rule:nonzero;stroke:none;stroke-width:0.133333"/><path id="path3708" d="M304.25-215.5c-.16-.5-.46-.94-.63-1.43-.05-.14-.27-.07-.22.08.15.46.18 1 .27 1.47.08.39.04.77.4.99l.24-.06c.26-.32.06-.7-.06-1.06" style="fill:#422000;fill-opacity:1;fill-rule:nonzero;stroke:none;stroke-width:0.133333"/><path id="path3709" d="M306.12-216.31a2 2 0 0 0-.76-.69c-.13-.07-.23.14-.1.22.2.1.3.53.36.73.08.27.13.57.26.82.15.3.65.24.6-.13-.04-.33-.2-.67-.36-.95" style="fill:#422000;fill-opacity:1;fill-rule:nonzero;stroke:none;stroke-width:0.133333"/><path id="path3710" d="M307.95-218.48c-.44-.82-1-1.56-1.52-2.33-.07-.1-.24-.02-.2.1.5 1.37 1.31 2.62 1.8 3.99l.22-.02c.17-.7.05-1.08-.3-1.74" style="fill:#422000;fill-opacity:1;fill-rule:nonzero;stroke:none;stroke-width:0.133333"/><path id="path3711" d="m291.76-217.76-.2.08c-.02.29-.03.57-.12.85-.13.35-.42.6-.44.98l.18.15c.77-.07 1.18-1.58.58-2.06" style="fill:#422000;fill-opacity:1;fill-rule:nonzero;stroke:none;stroke-width:0.133333"/><path id="path3712" d="M290.54-220.53q-.44.4-.86.83c-.23.2-.59.4-.61.72l.14.2c.36.08.63-.27.87-.5q.47-.43.76-1c.08-.17-.15-.38-.3-.25" style="fill:#422000;fill-opacity:1;fill-rule:nonzero;stroke:none;stroke-width:0.133333"/><path id="path3713" d="m288.51-223.9-.68.71c-.21.24-.46.43-.56.74-.03.13.12.22.22.19.31-.1.52-.38.72-.61q.36-.42.5-.94z" style="fill:#422000;fill-opacity:1;fill-rule:nonzero;stroke:none;stroke-width:0.133333"/><path id="path3714" d="m294.18-193.67-.04-.08h-.02c-.03-.13-.16-.14-.22-.05-.21.12-.33.55-.43.73-.21.39-.48.73-.7 1.1l.01.27-.02.04.09.05q.22.14.42-.04c.33-.31.53-.78.7-1.2q.13-.28.2-.58z" style="fill:#422000;fill-opacity:1;fill-rule:nonzero;stroke:none;stroke-width:0.133333"/><path id="path3715" d="m297.62-193.15-.94 1.61c-.1.2-.52.8-.16.97s.6-.51.7-.72a6 6 0 0 0 .62-1.8c.02-.13-.16-.18-.22-.06" style="fill:#422000;fill-opacity:1;fill-rule:nonzero;stroke:none;stroke-width:0.133333"/><path id="path3716" d="M300.53-191.98a.12.12 0 0 0-.22.04c0 .41-.17.65-.34 1-.08.15-.11.3.06.4l.22-.02c.47-.35.5-.93.28-1.42" style="fill:#422000;fill-opacity:1;fill-rule:nonzero;stroke:none;stroke-width:0.133333"/><path id="path3717" d="M306.04-195.6a3.4 3.4 0 0 0-.9-1.97l-.2.13q.28.75.35 1.54c.06.49 0 1.1.3 1.51l.24.12c.51-.07.26-1.04.21-1.33" style="fill:#422000;fill-opacity:1;fill-rule:nonzero;stroke:none;stroke-width:0.133333"/><path id="path3718" d="M309.23-196.52q-.17-.56-.61-.94c-.11-.09-.28.03-.23.16q.19.5.3 1.02c.08.34.06.79.34 1.02l.33-.07c.2-.34-.02-.85-.13-1.2" style="fill:#422000;fill-opacity:1;fill-rule:nonzero;stroke:none;stroke-width:0.133333"/><path id="path3719" d="m280.08-172.86-.22.06-.03.01-.21.17q-.23.22-.5.4c-.35.26-.84.48-1.11.83-.12.16 0 .37.19.37.55-.02 1.12-.55 1.5-.9.26-.25.6-.56.38-.94" style="fill:#422000;fill-opacity:1;fill-rule:nonzero;stroke:none;stroke-width:0.133333"/><path id="path3720" d="M283.6-171.3c-.18.42-.8.75-1.14 1-.34.26-.89.5-.99.95-.03.12.08.22.2.22.44-.02.88-.53 1.21-.8q.26-.24.5-.5c.2-.22.26-.5.43-.73.1-.16-.15-.3-.22-.14" style="fill:#422000;fill-opacity:1;fill-rule:nonzero;stroke:none;stroke-width:0.133333"/><path id="path3721" d="M288.75-169.53c-.4.44-.65 1.09-.86 1.64l.08.31.12.06.29-.15c.23-.55.5-1.17.6-1.75.02-.13-.14-.2-.23-.11" style="fill:#422000;fill-opacity:1;fill-rule:nonzero;stroke:none;stroke-width:0.133333"/><path id="path3722" d="M292.19-168.3c-.02-.17-.28-.12-.24.05.07.25-.13.61-.23.83q-.22.45-.52.85c-.08.11.05.28.17.19q.46-.35.7-.88c.18-.36.16-.66.12-1.04" style="fill:#422000;fill-opacity:1;fill-rule:nonzero;stroke:none;stroke-width:0.133333"/><path id="path3723" d="M260.76-159.95c-.4-.21-.88.12-1.27.28-.54.22-1.11.34-1.67.51-.14.04-.1.23.02.26.58.15 1.13.05 1.7-.1.45-.13 1.17-.27 1.31-.78z" style="fill:#422000;fill-opacity:1;fill-rule:nonzero;stroke:none;stroke-width:0.133333"/><path id="path3724" d="M262.2-156.26c-.3-.15-.6-.04-.9.02-.47.09-.92.23-1.39.3-.13.02-.15.23 0 .24q.63.1 1.29.07c.37-.03.8-.03 1.06-.32z" style="fill:#422000;fill-opacity:1;fill-rule:nonzero;stroke:none;stroke-width:0.133333"/><path id="path3725" d="M265.93-154.4a.3.3 0 0 0-.3.18c-.47-.07-.93.17-1.37.34q-.95.38-1.94.64c-.12.04-.1.22.02.25.59.1 1.13-.01 1.69-.17.53-.15 1.21-.29 1.67-.62q.1.13.3.14c.5 0 .42-.76-.07-.76" style="fill:#422000;fill-opacity:1;fill-rule:nonzero;stroke:none;stroke-width:0.133333"/><path id="path3726" d="M272.62-155.17c-.27 0-.37.22-.32.43-.4.13-.74.41-1.08.63-.43.26-.9.4-1.34.63l.05.23c.48.08.95-.11 1.38-.3.45-.21.95-.46 1.27-.83l.01-.05.1.02c.5 0 .41-.76-.08-.76" style="fill:#422000;fill-opacity:1;fill-rule:nonzero;stroke:none;stroke-width:0.133333"/><path id="path3727" d="M134.97-195.14c-.18-.2-.46-.27-.72-.35q-.59-.2-1.15-.45a3 3 0 0 1-.95-.76c-.24-.32-.11-.68-.15-1.04l-.21-.1c-.74.52-.17 1.53.33 1.99.38.34.9.57 1.36.75.38.15 1 .43 1.4.24z" style="fill:#422000;fill-opacity:1;fill-rule:nonzero;stroke:none;stroke-width:0.133333"/><path id="path3728" d="M135.95-193.48c-.17-.18-.4-.23-.63-.32l-.83-.31c-.13-.06-.23.1-.13.2.37.35.98.86 1.54.7.13-.04.13-.2.05-.27" style="fill:#422000;fill-opacity:1;fill-rule:nonzero;stroke:none;stroke-width:0.133333"/><path id="path3729" d="M138.36-191.2c-.25-.14-.56-.12-.84-.16q-.5-.04-.98-.17c-.14-.05-.22.12-.1.2.52.32 1.34.76 1.94.41z" style="fill:#422000;fill-opacity:1;fill-rule:nonzero;stroke:none;stroke-width:0.133333"/><path id="path3730" d="M139.31-189.52c-.16.01-.18.27-.02.29q.41.06.8.21c.28.1.48.3.78.3l.13-.15c-.07-.73-1.17-.69-1.69-.65" style="fill:#422000;fill-opacity:1;fill-rule:nonzero;stroke:none;stroke-width:0.133333"/><path id="path3731" d="M130.81-180.76c-.19-.17-.43-.2-.66-.3-.2-.07-.36-.2-.57-.27-.14-.04-.24.13-.2.25.16.48.98.93 1.42.58z" style="fill:#422000;fill-opacity:1;fill-rule:nonzero;stroke:none;stroke-width:0.133333"/><path id="path3732" d="M132.03-178.9c-.2-.4-.77-.37-1.13-.6-.14-.09-.3.12-.2.25.25.33.78.81 1.22.59z" style="fill:#422000;fill-opacity:1;fill-rule:nonzero;stroke:none;stroke-width:0.133333"/><path id="path3733" d="M134.44-177.25c-.22-.28-.57-.34-.9-.46l-1.2-.43c-.27-.1-.46.3-.19.41l1.18.5c.33.14.67.3 1.03.22z" style="fill:#422000;fill-opacity:1;fill-rule:nonzero;stroke:none;stroke-width:0.133333"/><path id="path3734" d="M137.31-175.21c-.19-.09-.4-.08-.6-.12a2 2 0 0 1-.67-.29c-.14-.08-.29.15-.15.24.37.25.96.58 1.41.39z" style="fill:#422000;fill-opacity:1;fill-rule:nonzero;stroke:none;stroke-width:0.133333"/><path id="path3735" d="M154.84-193.2c-.2-.17-.38-.2-.63-.2-.26 0-.54-.04-.8.03l-.06.22c.32.38 1.09.46 1.48.16z" style="fill:#422000;fill-opacity:1;fill-rule:nonzero;stroke:none;stroke-width:0.133333"/><path id="path3736" d="M156.28-192.21c-.2-.17-.4-.1-.64-.07q-.49.07-.99.02c-.2-.02-.3.25-.1.35.4.21 1.55.45 1.78-.09z" style="fill:#422000;fill-opacity:1;fill-rule:nonzero;stroke:none;stroke-width:0.133333"/><path id="path3737" d="M157.6-191.58c-.28-.02-.52.11-.8.15-.14.01-.17.24-.02.25.34.04.67.13.91-.16z" style="fill:#422000;fill-opacity:1;fill-rule:nonzero;stroke:none;stroke-width:0.133333"/><path id="path3738" d="M159.95-190.9c-.38.24-.64.42-1.1.47-.16.02-.19.29-.01.3.51.05 1.16-.05 1.3-.64z" style="fill:#422000;fill-opacity:1;fill-rule:nonzero;stroke:none;stroke-width:0.133333"/><path id="path3739" d="M138.74-164.18c-.64-.3-1.47.08-2.13.13-.18.01-.15.26.02.27q.53.03 1.06.02c.34-.02.72 0 1.03-.15.11-.05.14-.2.02-.27" style="fill:#422000;fill-opacity:1;fill-rule:nonzero;stroke:none;stroke-width:0.133333"/><path id="path3740" d="M140.71-163.14c-.5-.33-1.23-.04-1.79-.03-.2 0-.17.3.03.3.53.02 1.27.3 1.75-.01z" style="fill:#422000;fill-opacity:1;fill-rule:nonzero;stroke:none;stroke-width:0.133333"/><path id="path3741" d="M142.6-162.38c-.32-.42-1.12-.12-1.58-.17-.2-.02-.28.24-.1.33.4.2 1.33.56 1.66.12z" style="fill:#422000;fill-opacity:1;fill-rule:nonzero;stroke:none;stroke-width:0.133333"/><path id="path3742" d="M144.88-162.02a1 1 0 0 0-.52.1 2 2 0 0 1-.8.15c-.18 0-.2.25-.07.31.48.22 1.3.28 1.5-.33z" style="fill:#422000;fill-opacity:1;fill-rule:nonzero;stroke:none;stroke-width:0.133333"/><path id="path3743" d="M200.93-186.01c-.31-.44-.98-.32-1.45-.28l-.07.23c.38.3 1.01.55 1.48.3z" style="fill:#422000;fill-opacity:1;fill-rule:nonzero;stroke:none;stroke-width:0.133333"/><path id="path3744" d="M202.67-186.26c-.3-.31-.74-.28-1.13-.3-.17 0-.15.27.02.28.37.01.66.31 1.03.25.12-.01.16-.15.08-.23" style="fill:#422000;fill-opacity:1;fill-rule:nonzero;stroke:none;stroke-width:0.133333"/><path id="path3745" d="M204.89-187.03c-.3.04-.6.1-.9.1-.18 0-.15.25.01.25.32 0 .68.03.95-.18z" style="fill:#422000;fill-opacity:1;fill-rule:nonzero;stroke:none;stroke-width:0.133333"/><path id="path3746" d="M206.16-178.9c-.34-.02-.68.06-1.03.03l-.98-.1c-.13 0-.23.15-.12.24.58.44 1.66.72 2.27.2.16-.14.07-.37-.14-.38" style="fill:#422000;fill-opacity:1;fill-rule:nonzero;stroke:none;stroke-width:0.133333"/><path id="path3747" d="M208.68-179.74c-.47-.26-1.11-.09-1.61 0-.15.02-.18.25-.02.28.52.08 1.17.24 1.65-.02z" style="fill:#422000;fill-opacity:1;fill-rule:nonzero;stroke:none;stroke-width:0.133333"/><path id="path3748" d="M211.19-180.33c-.2-.26-.51-.25-.82-.28q-.62-.06-1.25-.05c-.15 0-.19.24-.05.3q.51.19 1.06.25c.34.04.71.17 1.02-.02z" style="fill:#422000;fill-opacity:1;fill-rule:nonzero;stroke:none;stroke-width:0.133333"/><path id="path3749" d="M213.57-181.28c-.26-.13-.53-.1-.82-.1q-.6 0-1.18.08c-.16.03-.2.27-.02.3q.47.08.94.09c.35 0 .74.06 1.07-.1.11-.05.14-.2.01-.27" style="fill:#422000;fill-opacity:1;fill-rule:nonzero;stroke:none;stroke-width:0.133333"/><path id="path3750" d="M219.86-175.09c-.2-.1-.43-.1-.65-.13q-.34-.07-.66-.18c-.18-.05-.27.25-.1.32.42.15.97.4 1.4.22z" style="fill:#422000;fill-opacity:1;fill-rule:nonzero;stroke:none;stroke-width:0.133333"/><path id="path3751" d="M219.67-176.53c-.19 0-.16.28.02.29.3 0 .62.1.9.15s.53.16.8.08l.09-.17c-.32-.65-1.26-.35-1.81-.35" style="fill:#422000;fill-opacity:1;fill-rule:nonzero;stroke:none;stroke-width:0.133333"/><path id="path3752" d="M222.71-177.5c-.34-.26-.83-.2-1.24-.2-.2 0-.17.3.02.3.38.01.78.12 1.16.1z" style="fill:#422000;fill-opacity:1;fill-rule:nonzero;stroke:none;stroke-width:0.133333"/><path id="path3753" d="M228.35-172.21c-.15-.3-.46-.31-.77-.36q-.24-.04-.47-.05c-.22 0-.42.07-.63.07-.19 0-.16.3.03.3.15 0 .3.08.45.12l.52.12c.27.07.56.2.8.02z" style="fill:#422000;fill-opacity:1;fill-rule:nonzero;stroke:none;stroke-width:0.133333"/><path id="path3754" d="M228.8-173.45c-.17.02-.19.26-.02.3q.39.08.72.28c.2.12.37.25.6.23l.13-.2c-.16-.52-.97-.67-1.43-.61" style="fill:#422000;fill-opacity:1;fill-rule:nonzero;stroke:none;stroke-width:0.133333"/><path id="path3755" d="M231.57-173.8q-.4-.19-.77-.42c-.15-.1-.31.17-.16.27l.73.47c.2.12.4.28.63.3l.12-.19c-.11-.21-.34-.31-.55-.42" style="fill:#422000;fill-opacity:1;fill-rule:nonzero;stroke:none;stroke-width:0.133333"/><path id="path3756" d="M240.75-177.62c-.23-.26-.56-.34-.9-.33-.17 0-.18.27-.01.3.27.04.5.22.77.23z" style="fill:#422000;fill-opacity:1;fill-rule:nonzero;stroke:none;stroke-width:0.133333"/><path id="path3757" d="M240.88-179.24c-.17.02-.19.27-.01.3q.37.06.71.21c.21.09.38.24.61.2l.15-.23c-.14-.54-1.03-.54-1.46-.48" style="fill:#422000;fill-opacity:1;fill-rule:nonzero;stroke:none;stroke-width:0.133333"/><path id="path3758" d="M243.26-180.1c-.38-.14-.82-.06-1.22-.05-.2 0-.17.31.02.32.39 0 .83.09 1.2-.04z" style="fill:#422000;fill-opacity:1;fill-rule:nonzero;stroke:none;stroke-width:0.133333"/><path id="path3759" d="M255.63-185.17c-.38-.12-.78-.03-1.17 0q-.65.03-1.28.14c-.16.04-.11.28.03.31.42.1.87.1 1.3.1.38 0 .82 0 1.14-.24.1-.07.11-.26-.02-.3" style="fill:#422000;fill-opacity:1;fill-rule:nonzero;stroke:none;stroke-width:0.133333"/><path id="path3760" d="M258.1-187.78c-.3-.01-.6.14-.91.2q-.56.12-1.14.1c-.2 0-.17.27-.01.32.66.2 1.71.24 2.24-.28.15-.14-.02-.34-.17-.34" style="fill:#422000;fill-opacity:1;fill-rule:nonzero;stroke:none;stroke-width:0.133333"/><path id="path3761" d="M260.6-190.02c-.44-.1-.96.1-1.37.24-.2.06-.1.35.1.3.43-.12.95-.01 1.31-.3.1-.07.07-.22-.05-.24" style="fill:#422000;fill-opacity:1;fill-rule:nonzero;stroke:none;stroke-width:0.133333"/><path id="path3762" d="M263.2-192.97c-.38-.18-.89-.03-1.27.1-.2.07-.1.36.1.3.38-.09.81.02 1.15-.15z" style="fill:#422000;fill-opacity:1;fill-rule:nonzero;stroke:none;stroke-width:0.133333"/><path id="path3763" d="M264.03-195.24q-.43.03-.81.2c-.18.07-.08.35.1.28.28-.12.55-.14.78-.35z" style="fill:#422000;fill-opacity:1;fill-rule:nonzero;stroke:none;stroke-width:0.133333"/><path id="path3764" d="M295.99-294.8c-.2-.47-1.05-.39-1.43-.21-.17.08-.2.32-.01.4.23.11.47.12.72.16.23.04.4.12.61-.03z" style="fill:#422000;fill-opacity:1;fill-rule:nonzero;stroke:none;stroke-width:0.133333"/><path id="path3765" d="M295.68-291.91c-.13-.57-.86-.54-1.28-.37-.33.13-.23.68.14.62.29-.04.43.1.69.18.3.1.53-.13.45-.43" style="fill:#422000;fill-opacity:1;fill-rule:nonzero;stroke:none;stroke-width:0.133333"/><path id="path3766" d="M295.74-289.51c-.15-.48-.75-.63-1.15-.4-.16.1-.15.37-.01.48q.3.24.61.44c.34.17.64-.21.55-.52" style="fill:#422000;fill-opacity:1;fill-rule:nonzero;stroke:none;stroke-width:0.133333"/><path id="path3767" d="M296.27-286.5c-.31-.63-1.12-.37-1.63-.16-.36.16-.25.77.16.7s.83.13 1.23 0c.2-.06.34-.34.24-.54" style="fill:#422000;fill-opacity:1;fill-rule:nonzero;stroke:none;stroke-width:0.133333"/><path id="path3768" d="M295.33-283.1c-.34-.31-.81-.3-1.22-.14-.43.17-.29.87.18.8a.7.7 0 0 1 .47.07c.5.31 1.01-.3.57-.72" style="fill:#422000;fill-opacity:1;fill-rule:nonzero;stroke:none;stroke-width:0.133333"/><path id="path3769" d="M295.47-280.6c-.34-.02-.66.06-1 .09-.4.03-.44.7-.02.72.34.03.66.11 1 .1.52-.01.55-.9.02-.92" style="fill:#422000;fill-opacity:1;fill-rule:nonzero;stroke:none;stroke-width:0.133333"/><path id="path3770" d="M295.4-277.4c-.27.15-.52.23-.82.15-.5-.12-.73.71-.25.85.52.15 1.07.1 1.54-.14.64-.33.16-1.2-.47-.86" style="fill:#422000;fill-opacity:1;fill-rule:nonzero;stroke:none;stroke-width:0.133333"/><path id="path3771" d="M295.5-274.92c-.49.04-.52.81-.03.85.24.02.46.13.7.12.21 0 .33-.22.33-.4 0-.53-.61-.6-1-.57" style="fill:#422000;fill-opacity:1;fill-rule:nonzero;stroke:none;stroke-width:0.133333"/><path id="path3772" d="M296.88-271.85a2.2 2.2 0 0 0-1.5-.24c-.34.05-.35.52-.02.6.2.04.4.18.6.25.25.08.46.14.71.1.3-.06.54-.5.2-.71" style="fill:#422000;fill-opacity:1;fill-rule:nonzero;stroke:none;stroke-width:0.133333"/><path id="path3773" d="M297.3-270.6c-.54.08-.84.57-1.44.46-.53-.1-.63.68-.13.8.7.18 1.8-.03 1.96-.85.04-.22-.16-.44-.39-.4" style="fill:#422000;fill-opacity:1;fill-rule:nonzero;stroke:none;stroke-width:0.133333"/><path id="path3774" d="M286.18-250.58c-1.75-.5-4.7 1.19-4.43 3.17.02.16.2.27.35.17 1.39-1.03 1.87-3.3 4.03-3.07.18.02.22-.23.05-.27" style="fill:#422000;fill-opacity:1;fill-rule:nonzero;stroke:none;stroke-width:0.133333"/><path id="path3775" d="M301.55-251.27c-.18-.56-.88-.68-1.38-.6-.55.07-.98.3-1.47.5-.2.07-.1.37.1.31.32-.1.74.03 1.06.09q.26.06.51.14l.1.04.04.07c.36.6 1.24.07 1.04-.55" style="fill:#422000;fill-opacity:1;fill-rule:nonzero;stroke:none;stroke-width:0.133333"/></g></g></svg>