<svg xmlns="http://www.w3.org/2000/svg" id="svg1" viewBox="0 0 182.29 196.44"><g id="g1" transform="translate(-434.768 292.17)"><g id="group-R5"><path id="path3944" d="M614.66-210.3c-1-.11-2.06 0-3.14.24q-.2 0-.4.03c-6.2.89-12.08 5.91-17.33 9.05-2.75 1.65-5.63 3.08-8.45 4.62 3.9-4.57 10.06-7.53 14.74-11.12 2.91-2.24 8.51-7.32 7.26-11.46a2 2 0 0 0-1.6-1.25c-2.41-.25-3.87 1.04-5.73 2.46-3.48 2.64-7.66 4.56-11.24 7.12-2.24 1.61-4.86 3.22-7.37 5a79 79 0 0 0 2.27-3.22c1.2-1.27 2.23-2.75 3.14-3.94 1.35-1.76 4.09-4.77 3.97-7.26.8-1.34 1.29-2.74 1.01-4.13-.14-.72-.83-.83-1.27-.56v-.03c-.5.42-.87.88-1.2 1.36-2.85.26-5.61 3.1-7.84 4.64-5.16 3.57-8.98 8.26-13.25 12.8a449 449 0 0 0-12.97 14.47q-3.39 3.9-7.14 7.46-.63.61-1.3 1.18c-.87.05-1.65.59-2.3 1.14-.33.27-.5.67-.53 1.07-5.62-.85-11.24-1.51-16.87-2.32h-.28a2 2 0 0 0-.72-.07c-4.42-1.61-8.64-3.73-13.1-5.24q-1.12-.76-2.21-1.59c-1.31-.98-2.09-2.13-3.76-2.56-1.81-1.7-3.78-3.23-5.56-4.96-1.66-1.6-3.66-5.28-6.28-5.52-1.88-2.27-4.77-4.12-7-5.85-1.14-.88-2.34-1.69-3.47-2.58-1.4-1.11-3.31-3.11-5.27-2.89q-.57-.48-1.04-.93l-4.16-4.07c-1.63-1.62-2.68-3.5-3.8-5.51-.5-.9-.88-1.54-1.57-2.12q-.09-.68-.25-1.34c-.2-.77-1.39-.93-1.83-.3q-.42.59-.74 1.22h-.14l-.02.08.1.06q-.16.26-.27.53-.28.08-.52.24c-2.3 1.58-5.47 1.4-8.14 1.73-1.46.19-2.87.77-4.25 1.24-2.84.98-5.54.41-8.42.7-1.03.1-1.5.85-1.47 1.62q-.12.17-.2.36c-1.62 4.26-1 8.46.74 12.57a28 28 0 0 1 2.32 8.79l.06.71c-1.5 2.77-2.4 6.13-3.6 9.02-1.91 4.66-3.82 9.37-5.17 14.23-1.24 4.44-1.44 9.11-1.28 13.7.07 2.04.77 4.85 1.8 7.3.68 4.72 5.73 10.28 7.84 13.07 3.92 5.16 11.14 9.88 17.92 10.74.45.28.9.5 1.25.63 2.79 1.07 6.26 1.25 9.16 1.82l.6.08c-.7 1.24-.99 2.9-1.12 4.44-.24 2.58-.27 8.34 2.74 9.54 3.79 1.51 5.8-3.88 6.68-6.58.86-2.61 1.75-5.63 1.57-8.5 2.6.69 5.24-.2 8.07-.5l.33-.02c-.9 1.94-.63 4.44-.4 6.5.37 3.27 2.05 12.8 7.45 8.98 2.57-1.82 3.19-5.24 3.69-8.14.48-2.8.8-6.34-.34-9.1 3.68-.28 6.96-3.22 9.81-5.34 5.55-4.1 10.4-9.32 15.4-14.04 5.33-5.02 10.6-10.17 16.15-14.94 2.43-2.08 5.65-3.8 8.6-5.73 1.15-.2 2.39-1 3.31-1.5 1.32-.72 2.58-2.32 4.1-2.47 1.37-.14 1.88-1.53 1.45-2.58 6.86-2.42 13.47-6.34 20.04-9.27q5.4-2.43 10.76-5c1.87-.89 3.83-1.7 5.64-2.7 2.05-.68 4.23-1.32 5.65-2.76 1.88-.84 3.52-2.28 5.22-3.5 2.65-1.88 5.68-3.3 6.89-6.53.4-1.07-.2-2.38-1.42-2.52" style="fill:#b3d1ed;fill-opacity:1;fill-rule:nonzero;stroke:none;stroke-width:0.133333"/><path id="path3945" d="M450.65-149.59a4.6 4.6 0 0 0-1.45-2.05c-.62-.6-1.17-1.32-1.83-1.88-.49-.4-1.08.11-.95.66.22.9.85 1.76 1.4 2.48a4 4 0 0 0 2.14 1.6c.48.12.79-.4.69-.8" style="fill:#dbedff;fill-opacity:1;fill-rule:nonzero;stroke:none;stroke-width:0.133333"/><path id="path3946" d="M457.54-155.41c-.6-.6-1.24-1.35-1.96-1.78-.51-.3-1 .3-.86.77a5.3 5.3 0 0 0 1.74 2.3c.5.4 1.56 1.1 2.22.77.13-.06.24-.17.22-.33-.1-.64-.91-1.29-1.36-1.73" style="fill:#dbedff;fill-opacity:1;fill-rule:nonzero;stroke:none;stroke-width:0.133333"/><path id="path3947" d="M467.4-160.66c-.55-1.55-1.65-2.7-2.8-3.83-.5-.5-1.13.24-.84.76.74 1.38 1.52 2.71 2.8 3.65.4.3 1.03-.07.84-.58" style="fill:#dbedff;fill-opacity:1;fill-rule:nonzero;stroke:none;stroke-width:0.133333"/><path id="path3948" d="M470.75-166.64c-.77-2.22-2.63-4.33-4.4-5.86-.48-.42-1.08.22-.79.73.64 1.09 1.39 2.1 2.08 3.16.65 1 1.24 1.86 2.14 2.65.46.4 1.16-.11.97-.68" style="fill:#dbedff;fill-opacity:1;fill-rule:nonzero;stroke:none;stroke-width:0.133333"/><path id="path3949" d="M462.48-219.63c-.27-.66-.9-1.31-1.64-1.37-1.48-.13-2.37.95-2.62 2.3a1.9 1.9 0 0 0 1.57 2.15q.24.04.5 0 .38.17.84.14c.7-.07 1.52-.7 1.55-1.47.02-.6.04-1.17-.2-1.75" style="fill:#dbedff;fill-opacity:1;fill-rule:nonzero;stroke:none;stroke-width:0.133333"/><path id="path3950" d="M443.89-218.2c-.75.05-1.57.33-1.87 1.1q-.21.6-.04 1.13l-.06.02c-.23.02-.2.35.03.36l.18-.02q.22.38.57.69c.75.66 2.07.14 2.23-.8.15-.15.3-.3.36-.52.34-.99-.28-2.05-1.4-1.97" style="fill:#dbedff;fill-opacity:1;fill-rule:nonzero;stroke:none;stroke-width:0.133333"/><path id="path3951" d="M560.04-178.96c-1.82-.05-3.63-.04-5.44-.07-.17-.49-.56-.9-1.24-.98-3.43-.46-7.82-1.6-11.32-.66-2.86-1.21-6.24-1.16-9.31-1.36a37 37 0 0 1-12.31-2.97 49 49 0 0 1-9.91-5.34c-1.54-1.1-2.9-2.26-4.55-2.82a2 2 0 0 0-.24-.6c-2.2-3.07-5.61-5.29-8.42-7.79a112 112 0 0 0-11.53-9.13c-3.64-2.48-7.88-4.02-10.8-7.42-2.1-2.42-5.4-6.68-6.17-9.83-.18-.73-1.18-.62-1.47-.06-1.47 2.82.75 5.83 2.05 8.34a24 24 0 0 0 8.74 9.68c4.4 2.84 8.6 5.7 12.65 9.06 4.13 3.42 8.07 8.28 13.37 9.77h.06c2.83 4.71 10.3 7.63 14.78 9.56a39 39 0 0 0 11.5 3.15c2.1.22 4.78.66 7.29.63q-.22.34-.28.82c-.1.71.37 1.47 1.12 1.55q.74.09 1.44.24c.89 1.01 2.4 1.26 3.67 1.57 2.08.5 3.93 1.75 6.11 1.82 1.53.05 2.9-1.98 1.31-3.04-.4-.27-1.18-.71-2.18-1.2 3.63.61 7.4 1.01 11.02.67 2.01-.2 2.15-3.54.06-3.6" style="fill:#dbedff;fill-opacity:1;fill-rule:nonzero;stroke:none;stroke-width:0.133333"/><path id="path3952" d="M590.78-224.81c-2.25 0-4.92 3.24-6.72 4.47a43 43 0 0 0-8.85 7.78c-2.92 3.5-5.75 7.12-8.92 10.4-3.13 3.23-6.8 6.05-9.6 9.57-.26.31.05.78.44.64 7.14-2.49 13.16-9.33 18.12-14.81 3.18-3.52 6.17-6.8 9.96-9.7 2.23-1.71 5.53-4.14 6.67-6.8.35-.82-.29-1.56-1.1-1.55" style="fill:#dbedff;fill-opacity:1;fill-rule:nonzero;stroke:none;stroke-width:0.133333"/><path id="path3953" d="M604.92-220.43q-8.37 5.38-16.69 10.87c-4.97 3.29-11.18 6.73-14.32 11.99-.12.2.13.45.34.37 5.7-2.1 10.71-6.63 15.78-9.91 5.58-3.63 11.34-6.96 16.9-10.62 1.81-1.2-.2-3.87-2-2.7" style="fill:#dbedff;fill-opacity:1;fill-rule:nonzero;stroke:none;stroke-width:0.133333"/><path id="path3954" d="m616-210.23-.13-.24c-.27-.48-1-.74-1.53-.67-5.07.67-10.84 4.27-15.25 6.58-3.6 1.89-7.3 3.59-10.83 5.62-3.16 1.82-5.67 4.42-8.67 6.28-.16.1-.16.4.03.45 2.05.67 4.36-1.43 6.05-2.28 4.32-2.18 8.7-4.25 13.07-6.3 3.7-1.74 7.43-3.42 11.14-5.15 1.82-.86 4.16-1.24 5.81-2.28.72-.45.68-1.37.32-2.01" style="fill:#dbedff;fill-opacity:1;fill-rule:nonzero;stroke:none;stroke-width:0.133333"/><path id="path3955" d="M538-172.04c-5.3-.28-11.56-2.22-15.47-6.03-.13-.12-.32-.08-.43.03-2.01 2.12 2.12 4.92 3.52 5.91 3.71 2.64 7.74 4.14 12.33 4.1 2.3-.02 2.33-3.89.04-4.01" style="fill:#dbedff;fill-opacity:1;fill-rule:nonzero;stroke:none;stroke-width:0.133333"/><path id="path3956" d="M529.33-166.03c-3.93-1.35-8.15-1.72-12.03-3.17-3.62-1.36-6.02-4.46-9.36-6.22-.6-.32-1.27.36-1.05.96 3.2 8.5 13.43 11.06 21.27 12.82 2.55.58 3.62-3.55 1.17-4.39" style="fill:#dbedff;fill-opacity:1;fill-rule:nonzero;stroke:none;stroke-width:0.133333"/><path id="path3957" d="m457.69-201.32-.23.02c-.21.64-.19 1.38-.2 2.05 0 .33-.21 1.55.45 1.5 1.1-.1.3-3.02-.02-3.57" style="fill:#dbedff;fill-opacity:1;fill-rule:nonzero;stroke:none;stroke-width:0.133333"/><path id="path3958" d="m447.84-217.14-.05-1.17c0-.17-.26-.14-.26.02l-.05 1c-.01.35-.09.72.06 1.04l.23.01c.13-.29.08-.59.07-.9" style="fill:#dbedff;fill-opacity:1;fill-rule:nonzero;stroke:none;stroke-width:0.133333"/><path id="path3959" d="M450.3-215.32c-.29-.68-.3-1.48-.4-2.2-.01-.15-.23-.18-.26-.02-.12.84-.3 1.64-.05 2.48.06.17.23.24.39.24l.25-.13z" style="fill:#dbedff;fill-opacity:1;fill-rule:nonzero;stroke:none;stroke-width:0.133333"/><path id="path3960" d="M453.7-219.43c-.07-.3-.5-.28-.49.04.03.7-.05 1.4-.08 2.1 0 .29.01.92.45.88.91-.07.2-2.55.11-3.02" style="fill:#dbedff;fill-opacity:1;fill-rule:nonzero;stroke:none;stroke-width:0.133333"/><path id="path3961" d="M447.05-158.09c-.55-1.16-1.17-2.29-1.7-3.46a.28.28 0 0 0-.52.19q.44 1.64 1.1 3.22c.35.9.58 2.12 1.41 2.7l.22-.05c.37-.89-.13-1.79-.51-2.6" style="fill:#dbedff;fill-opacity:1;fill-rule:nonzero;stroke:none;stroke-width:0.133333"/><path id="path3962" d="M443.76-156.52c-.08-.3-.54-.14-.46.16.07.25.03.5.1.75q.09.37.22.73c.14.41.43.85.88.94l.2-.17c.02-.85-.71-1.62-.94-2.41" style="fill:#dbedff;fill-opacity:1;fill-rule:nonzero;stroke:none;stroke-width:0.133333"/><path id="path3963" d="M451.5-156.39c.15-.05-.14-.43-.17-.48q-.5-.97-.95-1.98c-.28-.6-1.18-.3-.99.36.28.94.45 2.09 1.13 2.84.2.22.48.37.78.24.24-.1.43-.3.4-.6z" style="fill:#dbedff;fill-opacity:1;fill-rule:nonzero;stroke:none;stroke-width:0.133333"/><path id="path3964" d="M457.37-159.14q-.46-.76-1.02-1.47c-.18-.23-.62-.04-.48.25q.33.71.62 1.45c.2.48.39 1.08.84 1.38.28.18.68.03.65-.34-.04-.5-.35-.86-.6-1.27" style="fill:#dbedff;fill-opacity:1;fill-rule:nonzero;stroke:none;stroke-width:0.133333"/><path id="path3965" d="m462.83-158.06-1.14-1.43a.26.26 0 0 0-.46.24q.24.88.62 1.7c.38.82.46 1.2 1.1 1.35.26.07.5-.14.55-.38.13-.6-.32-1.04-.67-1.48" style="fill:#dbedff;fill-opacity:1;fill-rule:nonzero;stroke:none;stroke-width:0.133333"/><path id="path3966" d="M468.65-157.8a7 7 0 0 0-1.32-1.4c-.16-.13-.47-.02-.43.21.15.71.4 1.43.96 1.91.47.4 1.13-.23.79-.73" style="fill:#dbedff;fill-opacity:1;fill-rule:nonzero;stroke:none;stroke-width:0.133333"/><path id="path3967" d="m467.98-173.99-1.18-1.95q.21-.59-.06-1.33a97 97 0 0 1-4.67-14.94q-.11-.49-.37-.82c-.02-.9-.27-1.87-.3-2.57-.02-.49-.74-.4-.74.07q0 .87-.02 1.73-.3-.1-.64-.11a.5.5 0 0 0 .14-.3c.16-1.26.26-3.04-.54-4.12-.08-.1-.26-.07-.28.06q-.15.85-.24 1.76c-.7-1.08-2.25-1.35-3.1-.53l-.03-.37a.5.5 0 0 0-.15-.38c.26-.52.1-1.24.08-1.82a4.6 4.6 0 0 0-.55-2.34c-.13-.2-.4-.1-.45.1a5 5 0 0 0-.1 1.43 1.9 1.9 0 0 0-1.65-.49v-.3c0-.64-.88-.76-1.22-.34q-.22.27-.44.5l-.03-.27c-.05-.82-1.16-.71-1.33-.02q-.21.87-.47 1.7a.7.7 0 0 0-.66-.3l-.07-.28c-.07-.22-.41-.24-.5-.02-.35.97-.51 2.01-.86 3a.6.6 0 0 0 .03.49l-.06.18-.24-.08c.2-.55.39-1.12.38-1.62 0-.3-.42-.39-.59-.17l-.01-.01-.04.07-.01.01a7 7 0 0 0-.78 1.75l.02-.35.01-.36c.06-.16.01-.33-.15-.4l-.1-.05c-.22-.11-.43.05-.49.27-.46 1.7-.95 3.4-1.36 5.12q-.17.27.01.52-.37.52-.73 1.07c-3.33 4.38-5.4 10-6.36 15.12q-.08.51 0 .9-.3.28-.42.76a22.6 22.6 0 0 0 2.71 16.91c.8 1.33 2.68.06 2.25-1.26-.6-1.83-1.19-3.52-1.66-5.17.28-.27.46-.67.4-1.04l-.08-.49c.39.08.81-.06 1.14-.33-.08 2.37.57 4.88 1.74 6.88.23.4.9.14.83-.3-.2-1.45-.62-2.87-1.05-4.3q.25.05.54-.01c.4-.1.63-.5.72-.86q.14-.54.18-1.08c.38.09.77 0 1.08-.24.34 1.56 1.04 4.08 2.43 3.41.33-.16.7-.45.72-.87v-.4q.28.57.75.91c.43 1.19 1.38 3 2.57 2.9-.08.65.4 1.4.71 1.93.67 1.14 2.44.07 1.99-1.1q-.3-.79-.57-1.6c-.13-.37-.27-.87-.54-1.22.5-.35.85-.93.78-1.72l-.08-.61q.22.18.46.3.23.74.62 1.38c.27.42 1.05.28 1.08-.25q.04-.62-.12-1.16a1 1 0 0 0 .23-.33q.48.59 1 1.15c-.16 0-.33.14-.26.33.37 1.07.82 2.4 1.66 3.19.14.13.33-.01.34-.17.03-1.1-.81-2.07-1.4-2.98q.56.57 1.14 1.12c1.38 1.26 4.04-.13 3.63-2.01l-.4-1.62.21.07c.84.22 1.58-.81 1.25-1.56l-.04-.09q.1-.21.16-.44l.25.66c.3.81.55 1.75 1.47 2 .38.1.62-.2.66-.5h.03c.09-.84-.56-1.45-.97-2.13-.37-.6-.75-1.23-1.23-1.75l.02-.16.02-.7q.14.06.32.06c.82 0 .95-.9.53-1.42-.12-.82-.67-1.67-.97-2.4-.13-.33-.29-.78-.49-1.22q.18-.21.32-.48c.64.38 1.47.31 2.11-.05l.6 1.26c.4.81.84 1.71 1.62 2.22.2.13.45.06.51-.18.21-.87-.16-1.71-.6-2.45" style="fill:#dbedff;fill-opacity:1;fill-rule:nonzero;stroke:none;stroke-width:0.133333"/><path id="path3968" d="M468.97-165.05c-.44-.63-.9-1.52-1.54-1.94-.13-.08-.3-.06-.37.08-.36.7.02 1.5.29 2.16.3.75.77 1.72 1.44 2.2.35.25.96.12 1-.38.08-.83-.35-1.47-.82-2.12" style="fill:#dbedff;fill-opacity:1;fill-rule:nonzero;stroke:none;stroke-width:0.133333"/><path id="path3969" d="M474.14-155.38c-.4-.56-.88-.97-1.35-1.45a20 20 0 0 1-1.45-1.78c-.38-.51-1.07.02-.78.55.7 1.32 1.5 3.09 3.1 3.44.42.09.71-.43.48-.76" style="fill:#dbedff;fill-opacity:1;fill-rule:nonzero;stroke:none;stroke-width:0.133333"/><path id="path3970" d="M477.45-157.46a4 4 0 0 0-1.17-1.52l-1.59-1.46c-.22-.2-.58.12-.4.36.77 1.04 1.5 2.28 2.54 3.05.3.21.78-.06.62-.43" style="fill:#dbedff;fill-opacity:1;fill-rule:nonzero;stroke:none;stroke-width:0.133333"/><path id="path3971" d="M467.54-152.47a5.5 5.5 0 0 0-2-1.09c-.23-.06-.35.21-.25.38q.51.81 1.14 1.55.31.38.6.8c.13.21.2.46.35.66.49.7 1.48.23 1.46-.55-.02-.72-.8-1.33-1.3-1.75" style="fill:#dbedff;fill-opacity:1;fill-rule:nonzero;stroke:none;stroke-width:0.133333"/><path id="path3972" d="M461.57-150.27a7 7 0 0 1-1.6-1.13c-.19-.19-.48.06-.4.28.1.36.29.7.48 1.03l.3.49q.15.18.17.31c.15.5.8.65 1.2.37.49-.36.38-1.1-.15-1.35" style="fill:#dbedff;fill-opacity:1;fill-rule:nonzero;stroke:none;stroke-width:0.133333"/><path id="path3973" d="M457.95-147.55c-.38-.42-.82-.8-1.16-1.24-.18-.22-.55-.05-.46.24q.26.79.7 1.5c.27.47.56 1.25 1.15 1.38.29.06.6-.17.64-.46.09-.58-.52-1.04-.87-1.42" style="fill:#dbedff;fill-opacity:1;fill-rule:nonzero;stroke:none;stroke-width:0.133333"/><path id="path3974" d="M453.96-148.62c-.1-.3.03-1.01-.36-1.13-.65-.2-.83.8-.77 1.24.1.77.45 1.48 1.15 1.85.24.14.47-.1.48-.33.02-.63-.3-1.07-.5-1.63" style="fill:#dbedff;fill-opacity:1;fill-rule:nonzero;stroke:none;stroke-width:0.133333"/><path id="path3975" d="M460.7-140.52c-.3-.52-1.17-.62-1.66-.84-.59-.27-1.13-.62-1.7-.93-.26-.15-.45.23-.26.42.59.6 2.65 3.19 3.6 1.88q.18-.26.01-.53" style="fill:#dbedff;fill-opacity:1;fill-rule:nonzero;stroke:none;stroke-width:0.133333"/><path id="path3976" d="M466.01-142.15c-.1-.3-.43-.37-.7-.48q-.7-.3-1.38-.67c-.22-.11-.5.18-.32.38.4.49 1.43 1.93 2.21 1.37.2-.13.27-.38.2-.6" style="fill:#dbedff;fill-opacity:1;fill-rule:nonzero;stroke:none;stroke-width:0.133333"/><path id="path3977" d="M470.26-143.53c-.19-.34-.55-.52-.87-.69q-.62-.31-1.16-.73c-.26-.18-.54.1-.4.37.39.74 1.4 1.64 2.3 1.4.17-.04.2-.23.13-.35" style="fill:#dbedff;fill-opacity:1;fill-rule:nonzero;stroke:none;stroke-width:0.133333"/><path id="path3978" d="M473.58-145.8c-.19-.52-.88-.63-1.29-.9q-.45-.31-.88-.66c-.26-.2-.76.05-.58.4.43.85 1.1 1.7 2.09 1.87.25.04.55-.1.64-.35l.01-.02z" style="fill:#dbedff;fill-opacity:1;fill-rule:nonzero;stroke:none;stroke-width:0.133333"/><path id="path3979" d="M476.8-149.13c-.4-.5-.97-.72-1.5-1.05-.57-.36-1.12-.78-1.76-.99-.27-.1-.65.21-.41.5.43.5.96.92 1.48 1.33.5.4 1.05.91 1.72.95.37.02.75-.38.47-.74" style="fill:#dbedff;fill-opacity:1;fill-rule:nonzero;stroke:none;stroke-width:0.133333"/><path id="path3980" d="M481-150.78c-.22-.4-.66-.54-1.04-.74-.41-.22-.79-.5-1.19-.74-.28-.17-.52.21-.38.45.45.75 1.43 1.91 2.4 1.68.3-.07.32-.43.2-.65" style="fill:#dbedff;fill-opacity:1;fill-rule:nonzero;stroke:none;stroke-width:0.133333"/><path id="path3981" d="M485.67-150.67c-.82-.57-1.68-1-2.57-1.45-.31-.15-.54.34-.23.5.87.42 1.76.8 2.6 1.25.18.1.37-.18.2-.3" style="fill:#dbedff;fill-opacity:1;fill-rule:nonzero;stroke:none;stroke-width:0.133333"/><path id="path3982" d="M485.01-144.5c-.5-.52-1.25-.76-1.92-1.02q-1.07-.43-2.07-1.02c-.62-.36-1.26.67-.66 1.07 1.22.8 2.83 1.97 4.35 1.95.54 0 .6-.66.3-.97" style="fill:#dbedff;fill-opacity:1;fill-rule:nonzero;stroke:none;stroke-width:0.133333"/><path id="path3983" d="M481.92-141.08c-1.06-.73-2.35-1-3.49-1.61-.6-.34-1.02.53-.6.96a5.5 5.5 0 0 0 3.76 1.72c.52 0 .76-.78.33-1.07" style="fill:#dbedff;fill-opacity:1;fill-rule:nonzero;stroke:none;stroke-width:0.133333"/><path id="path3984" d="M481.95-139.27c-.92-.26-1.86-.38-2.8-.54s-1.93-.5-2.88-.4c-.3.02-.51.48-.21.67.74.49 1.63.64 2.49.85 1.1.27 2.23.46 3.36.3.52-.07.52-.74.04-.88" style="fill:#dbedff;fill-opacity:1;fill-rule:nonzero;stroke:none;stroke-width:0.133333"/><path id="path3985" d="M497.28-141.57c-.63-.34-1.26-.33-1.95-.35q-1.4-.04-2.8-.05c-.76 0-.64 1.14.1 1.15 1.45.02 3.36.5 4.7-.2.23-.12.14-.45-.05-.55" style="fill:#dbedff;fill-opacity:1;fill-rule:nonzero;stroke:none;stroke-width:0.133333"/><path id="path3986" d="M499.95-147.14q-1.28-.27-2.57-.5c-1.01-.21-1.27 1.38-.25 1.58.77.15 1.54.32 2.31.4.54.06 1.47.17 1.6-.56.11-.64-.63-.83-1.09-.92" style="fill:#dbedff;fill-opacity:1;fill-rule:nonzero;stroke:none;stroke-width:0.133333"/><path id="path3987" d="M476.17-203.19c-.16 0-.25.15-.25.3q0 .46.28.86c.23.34.35.79.77.94.27.1.59.02.71-.27.35-.82-.7-1.87-1.51-1.83" style="fill:#dbedff;fill-opacity:1;fill-rule:nonzero;stroke:none;stroke-width:0.133333"/><path id="path3988" d="M482.8-202.18a4 4 0 0 0-1.2-1.23q-.73-.54-1.36-1.2c-.46-.47-1.27.3-.86.8.78.96 1.73 2.07 2.97 2.35.43.1.64-.4.46-.72" style="fill:#dbedff;fill-opacity:1;fill-rule:nonzero;stroke:none;stroke-width:0.133333"/><path id="path3989" d="M481.12-197.04c-.25-.42-.66-.65-.9-1.09-.31-.6-1.2-.06-1 .54.2.66.61 1.3 1.33 1.45.53.1.8-.5.57-.9" style="fill:#dbedff;fill-opacity:1;fill-rule:nonzero;stroke:none;stroke-width:0.133333"/><path id="path3990" d="M487.8-193.82c-.48-.49-1.05-.9-1.48-1.44-.2-.26-.63.03-.42.3.5.63.85 1.33 1.73 1.5.22.03.3-.22.17-.36" style="fill:#dbedff;fill-opacity:1;fill-rule:nonzero;stroke:none;stroke-width:0.133333"/><path id="path3991" d="M493.11-193.58a10 10 0 0 0-2.76-1.66c-.27-.12-.54.26-.29.44.91.65 1.66 1.53 2.8 1.78.32.08.48-.35.25-.56" style="fill:#dbedff;fill-opacity:1;fill-rule:nonzero;stroke:none;stroke-width:0.133333"/><path id="path3992" d="M494.21-189.38c-.25-.26-.71-.16-.92.1-.24.3-.15.66.1.91.46.47.79 1.05 1.33 1.42.32.21.83.04.78-.4-.1-.84-.72-1.45-1.29-2.03" style="fill:#dbedff;fill-opacity:1;fill-rule:nonzero;stroke:none;stroke-width:0.133333"/><path id="path3993" d="M495.6-185.06c-.47-.49-1.05-.83-1.58-1.25-.7-.57-1.62.55-.89 1.1.63.49 1.26.9 2.03 1.1.59.17.76-.6.43-.95" style="fill:#dbedff;fill-opacity:1;fill-rule:nonzero;stroke:none;stroke-width:0.133333"/><path id="path3994" d="M465.74-217.96a2.8 2.8 0 0 0-3.32.1 2.5 2.5 0 0 0-.92 1.75c-.03.45.03.81.14 1.23l.01.03c-.03.96.75 1.79 1.69 1.96a2.7 2.7 0 0 0 2.7-1.23c.77-1.19.99-2.9-.3-3.84" style="fill:#84a9ce;fill-opacity:1;fill-rule:nonzero;stroke:none;stroke-width:0.133333"/><path id="path3995" d="M445.98-214.66c-.9-.42-1.98-.07-2.63.6-1.02 1.03-.23 2.82 1.05 3.13l.15.01c.83.34 1.72-.24 2.12-.93.6-1 .43-2.29-.7-2.81" style="fill:#84a9ce;fill-opacity:1;fill-rule:nonzero;stroke:none;stroke-width:0.133333"/><path id="path3996" d="M457.56-209.95c-.23-.38-.93-.42-1.17-.03-.26.4-.37.83-.52 1.3-.2.67-.5 1.3-.1 1.97.18.3.64.42.95.28.71-.3.84-1.04.97-1.72.12-.6.2-1.25-.13-1.8" style="fill:#84a9ce;fill-opacity:1;fill-rule:nonzero;stroke:none;stroke-width:0.133333"/><path id="path3997" d="m527.92-160.74-.36.16c-.07-.43-.4-.85-.84-.86-1.77-.07-3.44.39-5.22.53-2.54.22-5.18-.15-7.72-.37-5.28-.46-11.2-2.51-16.43-1.53a.25.25 0 0 0-.09.46 23 23 0 0 0 5.29 2.1c-5.27-1.01-10.22-2.77-15.23-4.69l-.25-.3c-2.08-1.93-4.88-2.9-7.4-4.16-4.12-2.05-6.85-5-9.49-8.7a22 22 0 0 1-3.47-7.2q.55 1.47 1.4 2.89a38.3 38.3 0 0 0 14.46 13.62c.7.37 1.3-.54.92-1.13-1.43-2.22-3.66-3.56-5.46-5.47q-2.67-2.85-5.15-5.85a20 20 0 0 1-4.26-8.2c-.95-3.86.37-7.89.6-11.74l-.08-.27q.56-1.28.94-2.67c.04-.13-.16-.23-.24-.11-2.58 3.77-4.86 6.49-6.07 11.03a17.5 17.5 0 0 0 1.25 13.06 32.7 32.7 0 0 0 16.1 15.66c1.65 1.97 4.5 3.33 6.48 4.46 4.9 2.81 10.44 4.15 15.99 4.96 5.65.82 11.8.95 17.45.08 2.86-.44 7.3-1.61 8.1-4.77.15-.64-.63-1.29-1.22-1" style="fill:#84a9ce;fill-opacity:1;fill-rule:nonzero;stroke:none;stroke-width:0.133333"/><path id="path3998" d="M537.64-169c-5.31.22-9.95.08-15.03-1.67-3.54-1.22-7.07-3.96-10.81-4.21-.24-.02-.42.21-.28.43 2.46 3.87 8.7 5.98 12.82 7.38 4.55 1.53 9.6 2.02 13.8-.58.68-.42.2-1.38-.5-1.35" style="fill:#84a9ce;fill-opacity:1;fill-rule:nonzero;stroke:none;stroke-width:0.133333"/><path id="path3999" d="M547.53-172.45c-1.4-1.48-4.1-1.22-6-1.42-2.25-.23-4.72-1.08-6.95-.95-.18 0-.24.2-.16.33 1.08 1.94 4 2.52 6.02 2.88 1.96.34 5.13 1.21 6.93.13.3-.17.4-.7.16-.97" style="fill:#84a9ce;fill-opacity:1;fill-rule:nonzero;stroke:none;stroke-width:0.133333"/><path id="path4000" d="M591.69-224.41c-4.1 8.31-9.78 15.13-16.79 21.17-1.78 1.53-7.1 5.16-6.84 7.7.09.85.9 1.18 1.63.99 1.24-.31 2.21-1.86 3.05-2.73 2.32-2.38 4.84-4.52 7.25-6.8 5.49-5.23 11.45-12.35 12.1-20.2.02-.23-.29-.36-.4-.13" style="fill:#84a9ce;fill-opacity:1;fill-rule:nonzero;stroke:none;stroke-width:0.133333"/><path id="path4001" d="M607.04-218.22c-.08-.44-.63-.57-.85-.15-3.44 6.55-10.44 10.36-16.26 14.59-3.34 2.43-6.81 4.69-10.16 7.11-3.26 2.37-6.98 4.05-10.16 6.48-.85.65-.32 2.07.77 1.95 4.25-.46 7.97-3.46 11.35-5.88 4.23-3.02 8.5-5.97 12.64-9.1 4.26-3.2 13.86-8.45 12.67-15" style="fill:#84a9ce;fill-opacity:1;fill-rule:nonzero;stroke:none;stroke-width:0.133333"/><path id="path4002" d="M615.54-209.97c-6.14 9.38-19.29 13.63-29.22 17.8-5.3 2.21-10.67 4.23-15.92 6.58a53 53 0 0 0-6.85 3.54c-1.72 1.08-2.76.96-3.2 2.8-.33 1.38 1.6 1.95 2.39 1 1.06-1.27 4.71-2.74 6.07-3.44 2.55-1.3 5.36-2.34 8-3.46 6.04-2.6 12.22-4.8 18.2-7.54 4.9-2.24 9.51-4.8 14-7.78 3.64-2.4 6.53-4.74 7.22-9.18.05-.35-.46-.66-.69-.32" style="fill:#84a9ce;fill-opacity:1;fill-rule:nonzero;stroke:none;stroke-width:0.133333"/><path id="path4003" d="M556.33-174.96c-1.22 0-2.4.09-3.62.18v.02c-.42.04-.67.53-.51.88-4.05 1.71-7.68 5-11.07 7.43-5.93 4.25-11.1 9.4-16.48 14.27q-.37.17-.57.6l-.04.1-.03.15a196 196 0 0 0-4.67 4.23 109 109 0 0 1-7.58 6.49q-.4-.07-.8.2c-7.81 5.57-16.57 7.05-25.93 8.03-5.63.6-11.02.52-16.64-.27-4.46-.64-10.67-.28-14.54-2.75-.14-.1-.26.1-.19.22 1.87 3.24 5.57 3.7 9 4.2l1.5.22c.12.43.45.8 1.03.92 6.66 1.3 12.4 2.03 19.14 1.03 3.3-.48 7.22-.69 10.88-1.41l-.36.24c-.89.66-.27 1.9.73 1.89l.23-.02.09.1c1.63 1.56 3.12 10.94.17 11.64-1.14.27-2 1.92-.73 2.7 5.85 3.64 8.5-6.24 8.4-10.4-.02-.75-.1-1.73-.32-2.69l.05-.57c.16-1.27.15-2.6-.62-3.34 1.9-1.11 3.73-2.38 5.33-3.4 4.74-3 9.01-6.7 13.1-10.5s8-7.72 12.24-11.33c2.52-2.15 5.55-4.23 7.44-7.03 4.82-3.99 9.88-8.1 15.84-10.05 1.2-.39.62-1.98-.47-1.98" style="fill:#84a9ce;fill-opacity:1;fill-rule:nonzero;stroke:none;stroke-width:0.133333"/><path id="path4004" d="M495.84-117.88c-.31-2.1-.52-4.2-.78-6.3-.19-1.42-.3-3.07-1.26-4.23-.4-.5-1.37-.9-1.76-.15-.36.7-.04 1.96 0 2.7.1 1.83.3 3.69.5 5.51.19 1.75.63 7.34 3.37 7.05.43-.04.86-.4.9-.86.1-1.17-.78-2.51-.97-3.72" style="fill:#dbedff;fill-opacity:1;fill-rule:nonzero;stroke:none;stroke-width:0.133333"/><path id="path4005" d="M478.15-115.31c-1.91-2.58-1.85-5.98-1.75-9.12q.12-.28.11-.64c-.01-.6.4-2.76-.8-2.76q-.57.01-.95.26c-.64.07-1.23.48-1.28 1.25-.23 4.18-.92 10 2.64 13.04 1.26 1.08 2.98-.75 2.03-2.03" style="fill:#dbedff;fill-opacity:1;fill-rule:nonzero;stroke:none;stroke-width:0.133333"/><path id="path4006" d="M483.77-127.27c-.06-.62-.72-1.22-1.37-1.08q-.36.1-.73.08c-.96.04-1.2 1.32-.53 1.84-.32 1.64-.52 3.3-.88 4.93-.24 1.1-.15 2.18-.46 3.28a5.6 5.6 0 0 0-.3 2.6c.04.25.35.46.58.27 1.5-1.29 2.14-3.62 2.9-5.41.78-1.89.98-4.49.79-6.5" style="fill:#84a9ce;fill-opacity:1;fill-rule:nonzero;stroke:none;stroke-width:0.133333"/><path id="path4007" d="M493.97-137.93c-1.59-.08-3.2.43-4.75.72-.18.04-.2.27-.02.32 1.55.45 3.37.34 4.82-.4.25-.13.33-.62-.05-.64" style="fill:#84a9ce;fill-opacity:1;fill-rule:nonzero;stroke:none;stroke-width:0.133333"/><path id="path4008" d="M498.3-135.91c-1.52.4-3.06.62-4.58.97-.27.07-.17.53.1.48 1.56-.3 3.28-.23 4.67-1.07.22-.13.03-.44-.2-.38" style="fill:#84a9ce;fill-opacity:1;fill-rule:nonzero;stroke:none;stroke-width:0.133333"/><path id="path4009" d="M504.28-140.92c-.99.44-1.74 1.24-2.75 1.65-.28.11-.14.52.15.43a8 8 0 0 0 2.9-1.51c.24-.22.06-.72-.3-.57" style="fill:#84a9ce;fill-opacity:1;fill-rule:nonzero;stroke:none;stroke-width:0.133333"/><path id="path4010" d="M491.62-146.6c-.4-.52-1.16-.66-1.75-.88-.68-.23-1.36-.32-2.05-.5-.3-.08-.37.38-.08.47.67.2 1.34.65 1.99.95.5.23 1.08.6 1.64.48.23-.04.42-.3.25-.52" style="fill:#84a9ce;fill-opacity:1;fill-rule:nonzero;stroke:none;stroke-width:0.133333"/><path id="path4011" d="M493.55-151.77c-.35-.36-1.05-.34-1.52-.43a6 6 0 0 1-1.8-.57c-.26-.13-.47.24-.27.42q.75.69 1.72.98c.53.16 1.35.42 1.85.09.18-.12.16-.35.02-.5" style="fill:#84a9ce;fill-opacity:1;fill-rule:nonzero;stroke:none;stroke-width:0.133333"/><path id="path4012" d="M504.59-151.05c-.5-.19-.95-.38-1.48-.38-.77 0-1.59.11-2.35.06a.28.28 0 0 0-.1.56c.73.2 1.36.41 2.13.46.65.05 1.16-.09 1.78-.33.15-.06.2-.3.02-.37" style="fill:#84a9ce;fill-opacity:1;fill-rule:nonzero;stroke:none;stroke-width:0.133333"/><path id="path4013" d="M510.5-148.85c-1.59.28-3.08 1.29-4.73 1.2-.26-.02-.44.35-.15.46 1.83.7 3.5-.12 5.08-1.07.28-.16.11-.65-.2-.6" style="fill:#84a9ce;fill-opacity:1;fill-rule:nonzero;stroke:none;stroke-width:0.133333"/><path id="path4014" d="M517.05-153.29c-.56-.02-1.12.36-1.6.6-.59.3-1.1.66-1.63 1.04-.28.19-.05.55.24.49.6-.13 1.2-.23 1.78-.43.57-.2 1.26-.36 1.66-.84.33-.38-.02-.84-.45-.86" style="fill:#84a9ce;fill-opacity:1;fill-rule:nonzero;stroke:none;stroke-width:0.133333"/><path id="path4015" d="M515.24-147.91c-.62.27-1.16.6-1.73.97-.64.42-1.5.56-2.05 1.07-.2.18-.06.48.13.58.65.36 1.47-.05 2.08-.34q1.1-.55 2.06-1.35c.43-.36.1-1.18-.49-.93" style="fill:#84a9ce;fill-opacity:1;fill-rule:nonzero;stroke:none;stroke-width:0.133333"/><path id="path4016" d="M475.03-187.44q-.47-.65-.9-1.33c-.1-.18-.33-.09-.38.08-.18.65-.12 1.22.19 1.82.3.58.7 1.26 1.38 1.4.3.07.66-.23.6-.55-.1-.58-.56-.96-.9-1.42" style="fill:#84a9ce;fill-opacity:1;fill-rule:nonzero;stroke:none;stroke-width:0.133333"/><path id="path4017" d="M480.28-188.2c-.16-.41-.54-.7-.86-.98q-.58-.51-1.07-1.1c-.25-.34-.78.02-.53.37q.42.58.93 1.08c.34.34.67.78 1.1 1.03.23.14.53-.16.43-.4" style="fill:#84a9ce;fill-opacity:1;fill-rule:nonzero;stroke:none;stroke-width:0.133333"/><path id="path4018" d="M485.66-178.88q-.7-.67-1.41-1.32c-.48-.45-.89-1.15-1.49-1.43-.17-.08-.38.05-.36.24.08.7.67 1.36 1.1 1.88.5.59 1.1 1.08 1.88 1.23.36.06.51-.37.28-.6" style="fill:#84a9ce;fill-opacity:1;fill-rule:nonzero;stroke:none;stroke-width:0.133333"/><path id="path4019" d="M495.63-178.03c-.49-.36-1.08-.44-1.63-.68a6 6 0 0 1-1.72-1.21c-.2-.2-.5.1-.35.32.65 1.05 2.3 2.88 3.68 1.96.13-.08.15-.3.02-.39" style="fill:#84a9ce;fill-opacity:1;fill-rule:nonzero;stroke:none;stroke-width:0.133333"/><path id="path4020" d="M503.66-181.57c-.12-.6-.6-.93-1.1-1.25q-.69-.44-1.4-.84c-.25-.15-.47.2-.34.4q.41.64.88 1.25c.3.39.54.9 1 1.12.43.21 1.06-.18.96-.68" style="fill:#84a9ce;fill-opacity:1;fill-rule:nonzero;stroke:none;stroke-width:0.133333"/><path id="path4021" d="M501.68-174.49a9 9 0 0 1-1.87-.67c-.25-.12-.47.22-.26.4q.65.58 1.41.95c.41.2.93.46 1.27.03.28-.34-.3-.66-.55-.7" style="fill:#84a9ce;fill-opacity:1;fill-rule:nonzero;stroke:none;stroke-width:0.133333"/><path id="path4022" d="M510.77-180.07c-.33-.37-.7-.56-1.12-.8q-.6-.37-1.12-.85c-.46-.4-1.23.28-.8.74.7.75 1.59 1.7 2.68 1.67.34-.01.6-.49.36-.76" style="fill:#84a9ce;fill-opacity:1;fill-rule:nonzero;stroke:none;stroke-width:0.133333"/><path id="path4023" d="M560-187.7c-.93-.05-1.73.47-2.45 1-.2.16.01.47.23.33.72-.48 1.53-.78 2.26-1.23z" style="fill:#84a9ce;fill-opacity:1;fill-rule:nonzero;stroke:none;stroke-width:0.133333"/><path id="path4024" d="M563.47-185.95c-.41.26-.8.5-1.18.82-.35.29-.84.6-1.3.69-.25.04-.32.35-.09.47 1.27.7 2.5-.49 3.12-1.52.2-.34-.26-.63-.55-.46" style="fill:#84a9ce;fill-opacity:1;fill-rule:nonzero;stroke:none;stroke-width:0.133333"/><path id="path4025" d="M454.42-210.38c-1.34.51-2.68.34-4.04.6-.6-.3-1.46-.17-1.76.58-.43 1.08-.9 2.12-1.53 3.1l-.4.38q-.24.08-.48.12c-.49.07-1.03.4-1.18.9l-.02.07q-.07.22-.07.43c-.62.5-1.24 1.02-1.79 1.65-.46.52.25 1.18.8.85q.68-.4 1.4-.78l.2.27.05.05c.44.41 1.16.3 1.61 0q.63-.43 1.15-1.06c1.37-.53 2.8-.9 4.18-1.37 2.3-.77 2.87-1.89 3.57-4.06.34-1.06-.57-2.16-1.7-1.73" style="fill:#dda78b;fill-opacity:1;fill-rule:nonzero;stroke:none;stroke-width:0.133333"/><path id="path4026" d="M453.46-209.77c-.68.4-1.54.35-2.29.24-.76-.1-1.36-.49-2.14-.2-.28.1-.5.36-.54.66s-.07.53.06.82q.17.32.5.41c.5.55 1.32.86 2.03 1.05a5.4 5.4 0 0 0 3.81-.45c1.88-1 .4-3.6-1.43-2.53" style="fill:#d68d54;fill-opacity:1;fill-rule:nonzero;stroke:none;stroke-width:0.133333"/><path id="path4027" d="M464.01-211a3.76 3.76 0 0 0-3.65-3.13c-.91 0-1.83.75-2.28 1.5a3.6 3.6 0 0 0-.32 2.9 3.65 3.65 0 0 0 4.49 2.53A2.76 2.76 0 0 0 464-211" style="fill:#d68d90;fill-opacity:1;fill-rule:nonzero;stroke:none;stroke-width:0.133333"/><path id="path4028" d="M448.87-209.95c-.2-1.7-1.94-2.56-3.48-2.07s-2.5 2.9-1.37 4.19l.25.2a2 2 0 0 0 1.14.49c.8.15 1.65-.2 2.14-.87q.23-.25.39-.54l.09-.22c.49-.16.9-.62.84-1.18" style="fill:#d68d90;fill-opacity:1;fill-rule:nonzero;stroke:none;stroke-width:0.133333"/><path id="path4029" d="M466.97-229.63c-2.46 1.39-6.23 2-8.92 2.52-2.77.55-6.88 1.93-9.9 1.18q-.32-.4-.89-.46l-.86-.3q-.27-.19-.56-.24a1 1 0 0 0-.15-.58l-.03-.03c-.3-.46-.88-.45-1.3-.2-1.46.84-2.4.81-3.48 2.07-.6.71-.1 1.86.8 1.98.46.06.77.1 1.05.1q.22.15.5.23c.92.21 1.9.22 2.75-.17 3.62 1.99 8.7-.02 12.42-.74 3.27-.64 8.1-1.24 9.2-4.96.1-.37-.36-.55-.63-.4" style="fill:#f4bd90;fill-opacity:1;fill-rule:nonzero;stroke:none;stroke-width:0.133333"/><path id="path4030" d="M450.7-225.83c-1.28-.29-2.55.1-3.82.32-.78.13-2.54.45-2.11 1.69l.05.13c.13.4.5.64.9.72a11 11 0 0 0 5.23-.63c1.16-.42.82-1.98-.25-2.23" style="fill:#cca170;fill-opacity:1;fill-rule:nonzero;stroke:none;stroke-width:0.133333"/><path id="path4031" d="M461.65-227.5a4.3 4.3 0 0 0-3.16 1.28c-.16.18-.03.44.18.5 1.16.31 2.45.03 3.37-.72a.6.6 0 0 0-.4-1.07" style="fill:#cca170;fill-opacity:1;fill-rule:nonzero;stroke:none;stroke-width:0.133333"/><path id="path4032" d="M455.41-226.54q-.25.07-.51.1c-.6.03-1.03.63-.97 1.2q.07.5.45.75l.03.04c.42.6 1.13.59 1.7.27a.8.8 0 0 0 .4-.73c.4-.7-.22-1.81-1.1-1.63" style="fill:#ffdbc2;fill-opacity:1;fill-rule:nonzero;stroke:none;stroke-width:0.133333"/><path id="path4033" d="M465.56-229.32c-.58 0-1 .63-.94 1.16.07.62.59.94 1.16.94.58 0 1-.63.95-1.16-.07-.62-.6-.94-1.17-.94" style="fill:#ffdbc2;fill-opacity:1;fill-rule:nonzero;stroke:none;stroke-width:0.133333"/><path id="path4034" d="M445.17-225.97c.21-.43.04-1-.33-1.29-.51-.4-1.11-.23-1.54.19q-.21.23-.38.5-.14.22-.18.48c-.24.2-.44.47-.56.7-.5.95.76 1.77 1.56 1.23q.6-.42.99-1.04l.15-.23z" style="fill:#ffdbc2;fill-opacity:1;fill-rule:nonzero;stroke:none;stroke-width:0.133333"/><path id="path4035" d="M559.2-240.48c-1.97.06-4.09.97-6.01 1.56-1.2-.55-2.64-.42-4-.63-2.02-.32-3.74-1.71-4.95-3.26-.9-1.16-1.41-3.03-2.14-4.65l.08-.3c.73-4.55 2.4-8.29 5.12-12 2.05-2.81 4.45-5.34 4.66-8.94v-.03c.18-.31.26-.69.15-1.12l-.14-.46.03-.01-.12-.28q-.1-.3-.24-.57-.15-.4-.22-.83a1.4 1.4 0 0 0-1-1c-.83-.92-1.85-1.7-2.9-2.63-1.14-1-2.38-1.83-3.57-2.77-1.72-1.36-.93-3.45-1.09-5.3l-.05-.22q.21-.9.6-1.8c.38-.79.82-1.62 1.37-2.3.16-.21.72-.43.57-.81l-.03-.07c-.08-.2-.3-.4-.54-.36-.81.17-1.57.69-2.2 1.33-5.12-.34-8.43-5.82-13.75-2.42-2.57 1.64-4.74 4.42-7.01 6.44l-.56.48c-.3.07-.65.19-1.24.37-2.96.91-5.54 1.2-8.64.92-1.73-.16-3.73-1.15-5.48-1.54-1.68-.39-3.5-.3-5.21-.3q-1.47 0-3.08.15c-4.47-1.17-12.14 1.55-14.84 3.17a57 57 0 0 0-4.95 3.36c-3.6 2.4-7.2 4.9-10.23 8a77 77 0 0 0-7.1 8.86l-.2.11c-4.5 3.21-7.14 9.22-9.78 13.9-2.5 4.4-5.6 9.9-5.46 15.13.02.59.23 1.01.54 1.3l.01.1a3 3 0 0 0-.4 1.54c.01.61.44.9.92.95l.17.14c3.52 2.63 8.2 1.42 12.05.24 2.37-.73 6.99-1.65 9.53-3.74q.6.17 1.26-.27c4.93-3.52 9.63-5.84 15.83-5.6 3.97.16 7.8.9 11.78 1.03.93 1.28 2.88 1.75 4.39 2.14 4.24 1.1 8.62 1.84 12.9 2.88 4.24 1.02 8.92 2.05 13.38 1.79l.27.15c1.56.53 2.56.45 4.2.04 3.03-.74 6.19-.96 9.24-1.65 4.11-.92 8.98-2.85 12.26-5.74 2.2-.78 4.48-1.72 6.29-3.2a.71.71 0 0 0-.47-1.28" style="fill:#ccdded;fill-opacity:1;fill-rule:nonzero;stroke:none;stroke-width:0.133333"/><path id="path4036" d="M466.57-231.66q-.3-.14-.63-.2a1.8 1.8 0 0 0-1.39-1.35l-.51-.1q-.15-.18-.37-.34a7.9 7.9 0 0 0-7.68-.53c-1.26.6-.91 2.5.56 2.41a17 17 0 0 1 2.48 0q.1.57.5 1l-.27.15c-1.25.77-.3 2.48.94 2.46 2.05-.04 4.85-.29 6.59-1.42.77-.51.58-1.72-.22-2.08" style="fill:#aecee5;fill-opacity:1;fill-rule:nonzero;stroke:none;stroke-width:0.133333"/><path id="path4037" d="M536.38-275.06c-3.71-.96-7.5-.4-11.25.13q-3.56.48-7.1 1c.37-.82-.18-1.9-1.33-1.88-11.45.13-22.14 2.56-32.14 8.2a77 77 0 0 0-14.55 10.42c-2.6 2.42-6.33 5.04-6.57 8.88-.06 1.01 1.34 1.3 1.57.28.9-3.88 5.57-6.98 8.45-9.42a62 62 0 0 1 7.99-5.65c.15.69.73 1.3 1.5 1.15 3.72-.72 7.2-2.02 10.74-3.39 5.07-1.96 10.3-3.13 15.62-4.21q6.76-1.38 13.62-2.13c4.36-.49 8.63-1.37 13-.43 1.9.42 2.28-2.47.45-2.95" style="fill:#aecee5;fill-opacity:1;fill-rule:nonzero;stroke:none;stroke-width:0.133333"/><path id="path4038" d="M533.14-248.38q-1.34-.08-2.66-.1c2.6-.18 2.44-4.01.03-4.42-10.5-1.75-22.5-1.29-32.98.25a75 75 0 0 0-14.02 3.63c-3.8 1.35-8.75 3.42-11.11 6.87-.36.51.22 1.28.78.85 4.3-3.32 10.08-5.19 15.88-6.3a2.04 2.04 0 0 0 2.15 2.3c7.65-.24 15.27.45 22.9.91 6.26.37 13.33 1.08 19.4-.7 1.61-.47 1.31-3.19-.37-3.29" style="fill:#aecee5;fill-opacity:1;fill-rule:nonzero;stroke:none;stroke-width:0.133333"/><path id="path4039" d="M557.8-238.99c-6.28.38-12 2.22-18.01 3.98-2.58.76-7.62.8-9.58 2.75a.8.8 0 0 0-.13.78c1.22 2.88 7.63.6 9.69.08 2.75-.69 5.48-1.51 8.2-2.35 3.22-1 8.05-1.64 10.36-4.21.38-.42 0-1.06-.53-1.03" style="fill:#aecee5;fill-opacity:1;fill-rule:nonzero;stroke:none;stroke-width:0.133333"/><path id="path4040" d="M450.53-232.05c-.8.05-1.57.67-1.84 1.42a3 3 0 0 0-.12 1.53q-.04.24-.04.5c.02.73.65 1.39 1.14 1.86.35.33.88.5 1.36.45.67-.07 1.18-.58 1.6-1.05.56-.6.77-1.43.75-2.23-.04-1.46-1.47-2.57-2.85-2.48" style="fill:#eaecff;fill-opacity:1;fill-rule:nonzero;stroke:none;stroke-width:0.133333"/><path id="path4041" d="M477.98-270.93c-5.44 2.84-10.1 6.87-14.14 11.43-2.64 2.98-6.42 7.07-6.49 11.25-.01.8 1.21.96 1.5.26q.14-.35.24-.7l-.07-.28q.6-.04.6-1.11c.61-1.47 1.64-2.75 2.59-4a82 82 0 0 1 4.25-5.23c3.64-4.08 8.02-7.37 12.03-11.05.35-.32-.16-.75-.51-.57" style="fill:#eaecff;fill-opacity:1;fill-rule:nonzero;stroke:none;stroke-width:0.133333"/><path id="path4042" d="M513.53-279.87c-1.9-.43-3.93.16-5.8.55-1.94.4-3.99.86-5.6 2.04-.42.3-.2 1 .33.95 1.84-.16 3.62-.75 5.43-1.1 1.9-.36 4-.31 5.74-1.19.57-.28.58-1.1-.1-1.25" style="fill:#eaecff;fill-opacity:1;fill-rule:nonzero;stroke:none;stroke-width:0.133333"/><path id="path4043" d="M519.34-261.09c-11.42-.97-24.18.6-33.96 6.86-.75.48.04 1.58.8 1.13 10.4-6.28 21.82-4.15 33.1-6.52.75-.15.97-1.39.06-1.47" style="fill:#eaecff;fill-opacity:1;fill-rule:nonzero;stroke:none;stroke-width:0.133333"/><path id="path4044" d="M518.32-239.88c-7.08-4.47-16.93-2.76-24.82-2.3-9.25.53-18.77 1.7-26.04 8.01-.2.18-.15.66.2.59 3.39-.67 6.51-2.28 9.76-3.4 4.18-1.44 9-1.58 13.36-1.94q6.04-.51 12.09-.75c5.12-.18 9.57 1 14.52 1.88 1.1.2 1.96-1.43.93-2.09" style="fill:#eaecff;fill-opacity:1;fill-rule:nonzero;stroke:none;stroke-width:0.133333"/><path id="path4045" d="M542.86-261.55c-.22-.58-.75-.83-1.33-.83q-.48.02-.95.15l-.12.06c-.62.06-1.11.74-1.2 1.32-.16.9.77 1.69 1.63 1.35.51-.2 1.05-.23 1.52-.56.47-.32.65-.96.45-1.49" style="fill:#eaecff;fill-opacity:1;fill-rule:nonzero;stroke:none;stroke-width:0.133333"/><path id="path4046" d="M544.69-271.17a1 1 0 0 0-.42-.1c-.43-.26-1.1-.11-1.28.4q-.19.5-.15.97c-.08.73.28 1.46 1.12 1.59q.67.07 1.04-.34.31-.24.38-.72l.05-.44c.03-.58-.18-1.11-.74-1.36" style="fill:#eaecff;fill-opacity:1;fill-rule:nonzero;stroke:none;stroke-width:0.133333"/><path id="path4047" d="M540.24-277.42c-.13-.56-.45-1.03-1.06-1.13a1.2 1.2 0 0 0-1.31.7 1.6 1.6 0 0 0-.2 1.58c.38.87 1.49 1.1 2.13.35.32-.38.55-1 .44-1.5" style="fill:#eaecff;fill-opacity:1;fill-rule:nonzero;stroke:none;stroke-width:0.133333"/><path id="path4048" d="M539.79-285.38a.6.6 0 0 0-.67.13q-.34.3-.55.68l-.13.2c-.44.8.68 1.72 1.37 1.14.24-.22.51-.38.75-.6.59-.56-.06-1.6-.77-1.55" style="fill:#eaecff;fill-opacity:1;fill-rule:nonzero;stroke:none;stroke-width:0.133333"/><path id="path4049" d="m538.15-253.88-.1-.1-.15-.13-.01-.02-.3-.18c-.57-.2-1.2-.1-1.6.4a1.3 1.3 0 0 0-.25.6c-.19.3-.25.72-.12 1.17v.02q.11.34.36.54.2.31.56.46.37.14.75.23c.68.2 1.3-.35 1.46-1 .42-.68.18-1.68-.6-2" style="fill:#eaecff;fill-opacity:1;fill-rule:nonzero;stroke:none;stroke-width:0.133333"/><path id="path4050" d="m538.97-241.63-.08-.18q-.12-.62-.65-.99c-.52-.36-1.19-.43-1.73-.03-.5.36-.73 1.07-.49 1.65q.09.26.27.48.27.3.64.45l.07.07c.73.7 1.84.07 2.03-.78.04-.18.03-.5-.06-.67" style="fill:#eaecff;fill-opacity:1;fill-rule:nonzero;stroke:none;stroke-width:0.133333"/><path id="path4051" d="M541.11-253.6c-.22-.51-.71-.69-1.02-1.11-.2-.29-.65.02-.45.3.2.29.12.76.14 1.1.02.31.09.6.05.92-.07.64-.63 1.01-.77 1.62-.07.29.16.64.46.67 1.12.09 1.72-1.04 1.81-2.03a3 3 0 0 0-.22-1.47" style="fill:#aecee5;fill-opacity:1;fill-rule:nonzero;stroke:none;stroke-width:0.133333"/><path id="path4052" d="M545.16-262.18a2 2 0 0 0-.43-.56l-.32-.15c-.13-.16-.39-.18-.49.04-.04.09-.32.31-.4.48-.15.3-.18.62-.23.94q-.05.39-.16.7c-.04.1-.31.53-.36.8-.13.71.47 1.26 1.15 1.24 1.04-.04 1.6-1.3 1.52-2.22-.03-.42-.1-.89-.28-1.27" style="fill:#aecee5;fill-opacity:1;fill-rule:nonzero;stroke:none;stroke-width:0.133333"/><path id="path4053" d="M547.63-271.33a.9.9 0 0 0-.82-.38c.45-.06-.08-.05-.2-.06q-.21-.01-.3.15l-.08.2c-.17.2-.22.45-.26.72a5 5 0 0 0-.2.6c-.1.35-.28.68-.34 1.06-.14.96 1.13 1.98 1.96 1.2.52-.49.74-.98.85-1.69.1-.7-.24-1.28-.61-1.8" style="fill:#aecee5;fill-opacity:1;fill-rule:nonzero;stroke:none;stroke-width:0.133333"/><path id="path4054" d="M541.95-277.86c-.21-.55-.59-.82-.94-1.24-.21-.26-.65-.07-.54.27.11.32 0 .77-.07 1.1-.08.49-.2.99-.08 1.47.19.68 1.02.64 1.43.25.44-.43.42-1.31.2-1.85" style="fill:#aecee5;fill-opacity:1;fill-rule:nonzero;stroke:none;stroke-width:0.133333"/><path id="path4055" d="M542.26-285.73c-.12-.34-.7-.23-.63.13.07.47-.34 1.16-.54 1.58-.26.55-.37.9-.22 1.49.04.14.22.26.36.24.76-.13 1.09-.56 1.3-1.28.1-.38.17-.74.12-1.13-.04-.38-.27-.66-.4-1.03" style="fill:#aecee5;fill-opacity:1;fill-rule:nonzero;stroke:none;stroke-width:0.133333"/><path id="path4056" d="M542.29-242.08a2.8 2.8 0 0 0-2.23-1.98c-.89-.1-1.4.8-.96 1.53.38.64.83.98.61 1.71-.37 1.2.3 2.16 1.6 1.69 1.18-.43 1.25-1.94.98-2.95" style="fill:#aecee5;fill-opacity:1;fill-rule:nonzero;stroke:none;stroke-width:0.133333"/><path id="path4057" d="M466.14-219.88c-.6.13-1.04.66-1.56.99-.38.25-.88.44-1.32.7l-.17-.1q.24-.22.47-.53c.39-.54.63-1.15.83-1.78.07-.22-.21-.36-.32-.15-.36.65-.73 1.58-1.28 2.22l-.2-.14c.14-.76.16-1.56-.07-2.3-.1-.31-.64-.36-.74-.02-.2.67-.25 1.38-.36 2.07l-.12.01c-.9.24-1.4 1.2-1.36 2.07.03.95.86 1.83 1.74 2.08.96.27 1.98-.12 2.43-1.03.27-.56.13-1.26-.2-1.79q.5-.21.9-.44c.6-.32 1.51-.82 1.59-1.57.01-.14-.1-.32-.26-.29" style="fill:#422000;fill-opacity:1;fill-rule:nonzero;stroke:none;stroke-width:0.133333"/><path id="path4058" d="M614.67-206.65a24 24 0 0 1-4.83 4.62c-3.47 2.68-7.45 4.53-11.4 6.39-4.38 2.07-8.84 4-13.24 6.05-4.17 1.93-8.27 3.97-12.48 5.8a73 73 0 0 0-10.65 5.38c-2-1.83-6.74-2.05-8.58-2.3q-4.13-.55-8.28-1c6.8-4.56 12.33-11.4 17.89-17.26 5.68-6 10.83-12.5 16.98-18.03a47 47 0 0 1 10.25-7.1c.62-.3 1.57-.98 1.44.12-.11.96-.47 2.01-.75 2.92a28 28 0 0 1-3.46 6.8 57 57 0 0 1-8.12 9.85q-1.1.87-2 1.87c-2.77 2.43-5.76 4.72-7.88 7.76-.25.36.2.93.57.6 3.4-3.1 6.9-6.11 10.17-9.34 1.5-1.08 3.04-2.13 4.54-3.26q4.96-3.75 10.14-7.18c2.19-1.45 4.38-2.93 6.64-4.27a13 13 0 0 1 3.72-1.63c2.25-.51 2 2.01 1.55 3.47-.96 3.04-3.93 5.37-6.29 7.32-2.58 2.14-5.12 4.32-7.84 6.3-2.95 2.15-6.13 3.95-9.07 6.1a62 62 0 0 1-9.64 5.92c-.42.2-.3.82.19.8 3.59-.15 6.95-3.23 9.7-5.26q.76-.55 1.56-1.1h.25c7.82-3.75 14.73-9.36 22.9-12.46 1.98-.75 4.34-1.63 6.48-1.32 1.81.26.02 2.79-.46 3.44m-54.38 30.44c-2.47.6-5.2.43-7.71.26-4.64-.33-9.2-1.35-13.82-1.86-.68-.07-.84.93-.16 1.05 1.08.19 5.7 1.13 10.62 1.77l.13.12q.67.19 1.33.4c2.13.68-.15 1.45-.6 1.63-1.2.49-2.52.62-3.8.75-2.86.32-5.76.04-8.57-.5-5.44-1.04-9.77-3.83-14.62-6.26-.44-.22-.74.4-.42.7 3.89 3.72 9.6 5.94 15.2 6.87 1.14.7 1.97 1.5.49 2.62a10 10 0 0 1-2.9 1.35c-3 1.02-6.36.57-9.37-.08-6.73-1.46-12-5.75-18.12-8.57-.53-.25-.96.5-.51.86 6.1 4.85 14.15 8.97 22.1 9.64l.08.22c1.74 2.71-2.95 4.15-4.63 4.3-1.88.17-3.8.08-5.69.15-5.18.21-10.24.33-15.38-.5-9.46-1.53-18.26-5.66-26.1-11.09-7.04-4.88-12.76-13-11.44-21.9.7-4.71 4.32-14.1 10.4-12.55.4.1.48-.44.2-.62-6.13-3.78-10.54 7.74-11.68 11.82-2.65 9.46 3.91 18.62 11.09 24.04a64 64 0 0 0 31.09 12.42c5.77.66 11.93.19 17.72-.17a7 7 0 0 0 4.97-2.15c1-1.1 1.35-2.66.63-3.89l1.2.03c2.55-.03 6.14-.86 7.88-2.9.9-1.07.8-2 .2-2.72q2.13.22 4.13.21c2.55-.02 6.74-.17 8.49-2.42.49-.63.33-1.1-.12-1.43 1.82.17 3.58.26 5.12.23-2.32 1.2-4.55 2.71-6.74 4.03a59 59 0 0 0-8.61 6.13c-6.2 5.45-11.97 11.37-18.25 16.75-5.46 4.68-10.67 9.99-16.86 13.7q-1.99 1.17-4.17 1.88l-.24.08a39 39 0 0 1-6.86 1.5c-2.31.31-4.87-.05-7.13.6-3.9.03-7.82.56-11.72.68-4.78.15-9.56-.52-14.13-1.93A38.7 38.7 0 0 1 443-145.41a37.3 37.3 0 0 1-6.39-27.03c.84-5.59 3.1-10.77 5.62-15.78 2.05-4.1 3.79-8.44 3.75-13.05 2.35-.78 4.66-1.7 6.96-2.6 1.13-.44 2.53-.77 3.17-1.9.69-1.2.65-2.72 1.04-4.04.4-.24.17-.87-.27-1a.6.6 0 0 0-.52 0c-1.1.06-2.16.43-3.25.64a5 5 0 0 1-3.84-.95l-.04-.02c-.2-.4-.98-.3-.99.2-.05 1.94-1.32 3.77-2.9 5.4-.46-2.53-1.75-4.8-2.39-7.27q.23.03.45 0c.18.06.4.03.55-.14l.08-.1c.47-.27.83-.71.93-1.25.15-.87-.54-1.61-1.2-2.06-.23-.17-.6-.17-.78.1q-.2.28-.38.7l.02-.57c.13-1.8.17-4.28.8-6.16 2.77.43 6.23-.2 8.3-.4a48 48 0 0 0 10.5-2.02c2.04-.66 4.54-1.75 5.75-3.64.28.97 1.15 2.08 1.53 2.84.93 1.91 2 3.7 3.09 5.53 1.13 1.9 2.45 3.85 4.45 4.9.6.32 1.53.93 2.43 1.37q1.4.87 2.91 1.66c2.38 1.27 4.37 3.07 6.46 4.75q6.23 4.98 12.29 10.17c6.82 5.88 13.96 11.24 22.77 13.66 4.85 1.33 9.99 1.87 14.96 2.58 5.32.77 10.68 1.22 16.01 1.89 1.27.16 2.5.34 3.74.67.55.15 4.12 1.53 1.68 2.12M503-126.53a61 61 0 0 1-.17 4.11c-.27 3.15-2.34 10.04-6.85 8.3-2.42-.93-2.9-5.11-3.2-7.26-.33-2.28-.04-4.78-.42-7.05l1.48-.12c.25-.01.38-.2.39-.4a30 30 0 0 0 8.48-1.52h.05c.13.36.14.82.18 1.18.1.92.08 1.85.06 2.76m-19.44.79c-.2 1.34-.61 2.64-1.05 3.92-.87 2.53-2.08 5.62-4.32 7.26-2.85 2.07-3.88-4.44-4.06-5.94-.29-2.4.02-4.71.06-7.08 3.12.14 6.26.03 9.4-.18q-.03.24.08.46c-.23-.39-.03.1 0 .28.05.42-.05.87-.1 1.28m-40.27-76.14a48 48 0 0 0 3.63-3.67c.97-1.12 2.2-2.65 2.42-4.24q.22.24.4.34a6 6 0 0 0 2.56.62c1.09.05 2.28-.25 3.41-.56q-.25.92-.4 1.88c-.3 1.79-2.11 2.06-3.57 2.64-2 .78-4 1.56-6.02 2.24-.22-.11-.53-.05-.63.2q-.9.3-1.8.55m-2.26-23.78c.36-.48 1.11-.86 1.62-1.13.6-.31 1.34-.4 1.96-.68l-.05.08.1.04.01-.01c1.73 2.5 6.07 2.03 8.67 1.78 4.96-.48 9.31-2.31 13.91-3.98l.02.02c-.77 1.93-3.18 2.92-5.02 3.6-2.73 1-5.65 1.48-8.53 1.85-2.89.38-5.86.6-8.77.54q-.66-.02-1.31-.1l-.16-.04a8 8 0 0 1-1.01-.22q-1.3-.23-1.44-1.75m4.23-2.91.23-.17c2-3.55 5.83-4.68 9.61-5.4 4.4-.83 8.51.28 11.36 3.6-3.8 1.37-7.42 2.9-11.49 3.55-2.4.38-7.35 1.3-9.3-.8l-.08-.33-.2-.21-.13-.23zm6.16-18.43c2.74-5.61 6.69-10.6 10.88-15.2 4.2-4.61 8.77-9.01 13.5-13.09a46 46 0 0 1 7.97-5.6c3.13-1.7 6.84-1.98 10.32-2.32 6.07-.58 12.03.8 18.05 1.42 4.39.44 8.37.08 11.64-3.08 3.3-3.19 6.31-7.79 11.48-5.39 2.05.95 4.06 2.7 6.47 2.53a5.6 5.6 0 0 0 2.62-.9 14.4 14.4 0 0 0-2.06 6.13c-.29 3.16 1.61 5.13 4.07 6.71 1.44.92 2.93 1.75 4.06 3.06 1.83 2.12 1.56 5.05.23 7.3-.98 1.65-2.4 3.02-3.57 4.53a33 33 0 0 0-2.95 4.66c-2.72 5.1-3.9 12.58 2.08 15.85 3.3 1.8 8.73 2.49 12.55.75-1.88 1.75-4.64 2.9-6.7 3.87-4.17 1.93-8.32 3.82-12.79 4.95-10.24 2.58-20.94 1.39-30.9-1.73-7.4-2.32-14.9-4.88-22.74-5.07a26 26 0 0 0-9.94 1.66c-2.35.9-5.77 2.7-7.37 4.96a.6.6 0 0 0-.44-.03l-.15.05c-3.08-4.01-7.81-5.19-12.73-4.15-3.09.64-7.67 1.8-9.56 4.78.78-5.9 3.37-11.32 5.98-16.65m164.72 36.09c-1.82-.93-4.35-.05-6.16.5-3.75 1.14-7.21 3.17-10.65 5.03l-3.26 1.75a80 80 0 0 0 8.13-6.92c2.23-2.26 4.28-4.94 4.12-8.27-.26-5.37-8.6.44-10.32 1.57-4.22 2.78-8.44 5.54-12.49 8.59q-.56.42-1.16.83a48 48 0 0 0 5.55-7.77 25 25 0 0 0 2.57-5.87c.27-1.03 1.03-2.75.43-3.81-1.23-2.18-6.22 1.72-7.44 2.5-7.64 4.91-13.55 12.15-19.54 18.86a286 286 0 0 1-22.05 22.05c-3.03-.34-6.06-.7-9.08-1.16-5.62-.87-11.13-1.7-16.37-4-4.92-2.14-9.3-5.36-13.42-8.75-4.46-3.67-8.83-7.46-13.34-11.08-2.35-1.89-4.67-4.02-7.27-5.56-.88-.52-1.8-.94-2.73-1.35-.03-.99-2.02-1.51-2.7-1.82-2.72-1.25-4.2-3.23-5.72-5.75-1.13-1.88-2.14-3.8-3.23-5.7-.29-.5-.9-1.85-1.66-2.04l.07-.22c.21 0 .42-.1.55-.34.73-1.36 2.88-2.52 4.14-3.33a20 20 0 0 1 5.86-2.41c3.95-1 8.11-.77 12.1-.16 8.3 1.26 16.03 4.73 24.2 6.5a54 54 0 0 0 28.92-1.7 80 80 0 0 0 11-5c2.5-1.34 5.54-3.1 6.5-5.95.25-.74-.86-1.24-1.14-.48l-.04.08c-4.5 2.15-9.98 2.91-14.35-.08-6.39-4.36-.95-13.89 2.47-18.32 1.79-2.3 3.8-4.3 4.45-7.24.54-2.45-.74-4.99-2.47-6.62-1.96-1.86-4.76-2.63-6.4-4.85-2.52-3.38.54-7.85 2.3-11.03q.36-.3.73-.56c.43-.32-.03-.89-.47-.65-2.67 1.43-4.2 3.35-7.5 2.05-2.4-.95-4.25-2.68-6.94-2.78-3.83-.13-6.65 3.62-9.06 6.06-4.09 4.13-9.46 3.31-14.77 2.6-2.95-.4-5.92-.83-8.88-1.08-3.18-.27-6.39.16-9.53.58-6.14.82-11.02 4.27-15.6 8.24a165 165 0 0 0-13.15 12.82 69 69 0 0 0-10.63 14.82c-2.86 5.47-5.9 11.67-6.16 17.95q-.02.7 0 1.4l-.27.15c-.18.19-1.25.36-1.61.5q-1.2.5-2.19 1.32c-1 .83-1.25 2-.37 2.98a4.7 4.7 0 0 0 2.22 1.3c-.74 1.68-.83 4.66-.95 5.6l-.07.86a16 16 0 0 1-1.73-2.7c-.48-.9-.77-2.12-1.49-2.86-.15-.16-.38 0-.43.16-.3 1.07.6 2.46 1.08 3.35.53.99 1.15 2.1 2.04 2.84l-.07.13a5 5 0 0 1-1.14-.83c-.24-.22-1.1-1.44-1.43-.67-.28.67 1.17 1.66 1.6 1.95l.38.21c-.85.1-1.79.28-2.57.58-.17.07-.23.36-.02.43.69.22 1.4.05 2.08-.1.56-.12 1.21-.14 1.79-.3.33 3.23 1.61 6.53 3 9.28-1.38 1.3-2.85 2.45-3.92 3.44-.46.41-.24 1.37.5 1.23q1.97-.4 3.89-.99c-.8 5.42-2.9 10-5.3 14.99a48 48 0 0 0-4.6 15.58c-1.01 9.23 1.9 18.75 7.25 26.26 4.8 6.75 11.87 11.65 19.66 14.34a42 42 0 0 0 11.26 2.12c-1.47 3.85-.66 13.9 3.38 14.77-.25 3.06-.3 6.18-.33 9.26-1.24-.58-3.12-.49-4.37-.6-2.38-.21-5.57-.58-7.66.77-.35.22-.1.68.25.68 3.2 0 6.76-.72 10.03-.15a22 22 0 0 0-4.81.8c-1.86.47-4.6 1-5.88 2.57-.26.33.09.8.47.66 1.76-.63 3.33-1.56 5.17-2.08a28 28 0 0 1 4.42-.76c-1.6.8-3.13 1.82-4.17 3.04-.33.38.12.88.55.75 2.47-.75 4.41-2.83 6.92-3.68.32-.1.43-.42.43-.72 0-3.45.44-7.07-.03-10.51q.42-.05.87-.23c3.05-1.2 4.64-5.86 5.6-8.63.32-.93 1.86-4.88.88-6.15l2.46-.19q.2.12.45.03l.29-.09 3.01-.24c-.46 2.92.14 6.5.69 9.25s1.8 6.31 5.05 6.58q.54.04 1.04-.03c-.41 2.9.15 6.03-.4 8.88-4.43.25-8.98 2.6-13.09 3.96-.75.25-.3 1.4.45 1.15 2.3-.79 4.56-1.64 6.85-2.44 1.38-.48 2.8-.83 4.21-1.19q-1.26.68-2.53 1.32a14 14 0 0 0-4.43 3.18c-.45.54.39 1.18.86.67 1.4-1.48 3.13-2.38 4.93-3.3q.92-.45 1.86-.94c-.96 1.63-2.41 2.97-3.1 4.74-.19.46.39 1.03.8.64a17 17 0 0 0 4.26-6.5l.09-.34.2-.21c.13-.15.09-.34-.03-.46.16-.9.14-1.83.1-2.76-.13-2.18.09-4.4-.23-6.56 3.15-.94 4.77-4.95 5.36-7.9.41-2.03.38-4.19.41-6.25.02-1.13.2-2.9-.31-4.12q1.61-.6 3.13-1.4c6.07-3.25 11.18-8.48 16.45-12.85A311 311 0 0 0 542.1-162a54 54 0 0 1 8.41-6.51c3-1.96 6.54-3.58 9.2-6 2.06-.26 3.38-.9 3.29-2.14a2 2 0 0 0-.15-.66c4.15-2.66 8.71-4.5 13.21-6.46 5.1-2.23 10.05-4.78 15.11-7.08 8.53-3.85 18.52-7.38 24.41-15.1.87-1.13 2.54-3.95.57-4.96" style="fill:#422000;fill-opacity:1;fill-rule:nonzero;stroke:none;stroke-width:0.133333"/><path id="path4059" d="M480.66-244.93c-1.23-.44-2.65.42-3.35 1.4-.1.16.09.41.25.26.41-.38.88-.62 1.4-.84.54-.23 1.14-.23 1.68-.45.15-.06.2-.31.02-.37" style="fill:#422000;fill-opacity:1;fill-rule:nonzero;stroke:none;stroke-width:0.133333"/><path id="path4060" d="M495.02-246.87c-2.97-.6-6.2.03-9 1.06-.2.06-.14.39.07.35 2.98-.57 5.92-.66 8.91-1.04.22-.02.24-.33.02-.37" style="fill:#422000;fill-opacity:1;fill-rule:nonzero;stroke:none;stroke-width:0.133333"/><path id="path4061" d="M529.59-244.9c-2.02.25-3.82.57-5.88.45-1.86-.1-3.7-.4-5.55-.61-3.77-.44-7.85.43-11.5-.76-.23-.08-.4.25-.16.35 3.62 1.52 7.71.84 11.53 1.28 3.52.4 8.5 1.86 11.76-.17.25-.16.09-.57-.2-.54" style="fill:#422000;fill-opacity:1;fill-rule:nonzero;stroke:none;stroke-width:0.133333"/><path id="path4062" d="M472.33-255.55a27 27 0 0 0-6.68 5.4l.11.12c2.26-1.73 4.53-3.49 6.71-5.32.13-.1 0-.28-.14-.2" style="fill:#422000;fill-opacity:1;fill-rule:nonzero;stroke:none;stroke-width:0.133333"/><path id="path4063" d="M526.92-272.36c-3.7.2-7.4.83-11.07 1.24-3.96.45-7.91.94-11.81 1.77-3.26.7-6.54 1.38-9.77 2.21-3.77.97-6.95 3-10.48 4.55-.19.08-.09.39.1.3 3.29-1.38 6.37-3.05 9.83-4 3.66-1 7.52-1.6 11.24-2.33 7.24-1.42 15-1.07 22.07-3.22.3-.1.18-.54-.11-.52" style="fill:#422000;fill-opacity:1;fill-rule:nonzero;stroke:none;stroke-width:0.133333"/><path id="path4064" d="M540.5-284.98q-.12.61-.54 1.09c-.21.25-.38.37-.73.19-.6-.32.3-1.16.67-1.46l.08-.02.25-.11.27-.16.04-.01c.03.17.01.27-.03.48m-.07-1.4a2 2 0 0 0-.73.36c-.1.1-.3.35-.33.57a1.8 1.8 0 0 0-1.29 1.2c-.23.76.41 1.43 1.13 1.6 1.09.28 1.86-.85 2.13-1.74.21-.7.28-2.27-.91-2" style="fill:#422000;fill-opacity:1;fill-rule:nonzero;stroke:none;stroke-width:0.133333"/><path id="path4065" d="M540-276.53c-.14.75-1.24.6-1.6.14-.24-.3-.3-.72-.23-1.1.06-.42.36-.61.61-.9.2-.12.41-.14.7.14a2 2 0 0 1 .53 1.72m.17-2.45a1.6 1.6 0 0 0-1.36-.51c-.55.08-1.08.52-1.18 1.06q-.19.22-.3.48a2.3 2.3 0 0 0 .17 1.95c.67 1.2 2.6 1.38 3.31.12.55-.98.1-2.35-.64-3.1" style="fill:#422000;fill-opacity:1;fill-rule:nonzero;stroke:none;stroke-width:0.133333"/><path id="path4066" d="M543.69-269.05c-.56-.4-.7-1.07-.56-1.68.5-.26 1-.54 1.56-.2.47.3.88.87.8 1.45-.1.77-1.33.77-1.8.43m1.7-2.6c-.65-.52-1.62-.6-2.25-.18-1.3.57-1.13 2.32-.31 3.24.85.98 2.7 1 3.42-.17.61-1-.02-2.25-.86-2.9" style="fill:#422000;fill-opacity:1;fill-rule:nonzero;stroke:none;stroke-width:0.133333"/><path id="path4067" d="M541.1-260.02c-.48.11-.99.04-1.37-.26a1 1 0 0 1-.3-.49c.38-.5.57-1.08 1.3-1.24.57-.13 1.3-.01 1.63.5.41.63-.83 1.4-1.27 1.5m-.1-3.09c-1.04.02-2.62 1.01-2.42 2.22-.04.35.04.73.22 1.01.4.61 1.15.9 1.85.91 1.32.04 3-1.07 2.79-2.56-.17-1.14-1.44-1.6-2.44-1.58" style="fill:#422000;fill-opacity:1;fill-rule:nonzero;stroke:none;stroke-width:0.133333"/><path id="path4068" d="M537.07-251.3c-.74-.07-1.08-.62-1.14-1.25l.03-.02c.43-.61.68-1.13 1.45-1.36.52-.15 1.44-.07 1.55.58.16 1-.9 2.16-1.89 2.06m-1.74-1.63q-.17.48-.02 1.05a2 2 0 0 0 1.3 1.35c1.6.56 3.04-.99 3.24-2.48.4-3.08-5.05-2.13-4.52.08" style="fill:#422000;fill-opacity:1;fill-rule:nonzero;stroke:none;stroke-width:0.133333"/><path id="path4069" d="M537.12-240.89c-.54-.35-.85-.9-.9-1.48.33-.55.62-.8 1.35-.71.58.07 1.43.53 1.42 1.2a1.23 1.23 0 0 1-1.87 1m.7-3.12c-.82-.21-2.2.13-2.38.99-.46.9.14 2.22.94 2.87 1.36 1.1 3.08.27 3.53-1.3.37-1.32-1.01-2.28-2.1-2.56" style="fill:#422000;fill-opacity:1;fill-rule:nonzero;stroke:none;stroke-width:0.133333"/><path id="path4070" d="M545.36-235.48c-.49.1-1.16.01-1.57-.34.06-.32.12-.63.5-.79a1.5 1.5 0 0 1 1.47.24c.47.38.06.8-.4.9m1.42-1.1c-.45-.84-1.6-1.24-2.5-1.1-.5.08-.98.36-1.25.78-.33.5-.52 1.37.05 1.77l.12.06.17.17c.5.43 1.25.52 1.88.5 1.09-.03 2.12-1.1 1.53-2.19" style="fill:#422000;fill-opacity:1;fill-rule:nonzero;stroke:none;stroke-width:0.133333"/><path id="path4071" d="M489.97-172.11c-.57-.14-1.21 0-1.79.07a7 7 0 0 0-2.02.53c-.22.1-.1.4.12.35q.96-.25 1.95-.33c.58-.05 1.24 0 1.77-.27.16-.08.16-.3-.03-.35" style="fill:#422000;fill-opacity:1;fill-rule:nonzero;stroke:none;stroke-width:0.133333"/><path id="path4072" d="M492.94-171.38c-.47-.08-.86.07-1.3.24-.52.19-1.07.36-1.53.66-.19.12-.07.41.14.4.5-.03.97-.2 1.44-.33.51-.16.99-.27 1.37-.66.1-.1.02-.29-.12-.31" style="fill:#422000;fill-opacity:1;fill-rule:nonzero;stroke:none;stroke-width:0.133333"/><path id="path4073" d="M496.36-170.49c-.42-.04-.74.1-1.12.25q-.8.3-1.62.46c-.47.1-.41.82.07.74.9-.15 2.29-.34 2.81-1.18z" style="fill:#422000;fill-opacity:1;fill-rule:nonzero;stroke:none;stroke-width:0.133333"/><path id="path4074" d="M501.5-169.07c-.47.06-.9.3-1.3.55a5 5 0 0 1-1.84.76c-.55.09-.47.95.09.87 1.13-.17 2.59-.8 3.28-1.76.12-.17.01-.45-.22-.42" style="fill:#422000;fill-opacity:1;fill-rule:nonzero;stroke:none;stroke-width:0.133333"/><path id="path4075" d="M515.13-164.68c-.55-.26-1.35.2-1.82.47-.17.1-.04.33.12.34.53.01 1.43-.04 1.77-.51z" style="fill:#422000;fill-opacity:1;fill-rule:nonzero;stroke:none;stroke-width:0.133333"/><path id="path4076" d="M518.07-164.2c-.3.1-.58.27-.88.37a4 4 0 0 1-.98.18c-.38.02-.42.66-.03.67.78.03 1.72-.06 2.23-.73.18-.25-.05-.58-.34-.49" style="fill:#422000;fill-opacity:1;fill-rule:nonzero;stroke:none;stroke-width:0.133333"/><path id="path4077" d="M526.24-170.09c-.82-.17-1.53.53-2.25.8-.37.13-.25.75.16.69.77-.13 1.98-.25 2.27-1.15.04-.15-.02-.3-.18-.34" style="fill:#422000;fill-opacity:1;fill-rule:nonzero;stroke:none;stroke-width:0.133333"/><path id="path4078" d="M528.7-168.9c-.32.04-.64.17-.97.23q-.52.07-1.03.19c-.36.08-.16.6.19.52.64-.14 1.5-.07 2.01-.56.15-.14-.01-.39-.2-.37" style="fill:#422000;fill-opacity:1;fill-rule:nonzero;stroke:none;stroke-width:0.133333"/><path id="path4079" d="M532.93-169.26c-.39.1-.74.32-1.1.48q-.71.33-1.5.35c-.48.02-.4.73.06.72.97 0 2.21-.3 2.89-1.05.23-.26-.08-.56-.35-.5" style="fill:#422000;fill-opacity:1;fill-rule:nonzero;stroke:none;stroke-width:0.133333"/><path id="path4080" d="M543.12-173.57c-.47-.47-1.26 0-1.7.27-.43.28.03.92.46.65.39-.24.96-.3 1.26-.64z" style="fill:#422000;fill-opacity:1;fill-rule:nonzero;stroke:none;stroke-width:0.133333"/><path id="path4081" d="M546.58-173.23c-.7-.2-1.55.23-2.17.53-.2.1-.09.45.13.35q.48-.24.98-.41c.35-.12.73-.13 1.07-.25z" style="fill:#422000;fill-opacity:1;fill-rule:nonzero;stroke:none;stroke-width:0.133333"/><path id="path4082" d="M557.3-178.33c-.27-.04-.52.03-.79.12q-.53.13-1.08.21c-.45.07-.52.78-.02.84.65.07 1.87.01 2.13-.74.06-.18-.02-.4-.23-.43" style="fill:#422000;fill-opacity:1;fill-rule:nonzero;stroke:none;stroke-width:0.133333"/><path id="path4083" d="M446.15-150.53c-.34-.4-.95-.53-1.42-.77a5 5 0 0 1-1.8-1.49c-.23-.32-.7.02-.5.35.43.7 1 1.31 1.7 1.75.52.31 1.29.77 1.9.54.14-.06.22-.25.12-.38" style="fill:#422000;fill-opacity:1;fill-rule:nonzero;stroke:none;stroke-width:0.133333"/><path id="path4084" d="M447.2-148.26a5 5 0 0 0-1.87-.16c-.26.04-.33.38-.09.5.46.25.96.35 1.46.47s1.04.45 1.56.26a.24.24 0 0 0 .14-.3c-.18-.52-.72-.65-1.2-.77" style="fill:#422000;fill-opacity:1;fill-rule:nonzero;stroke:none;stroke-width:0.133333"/><path id="path4085" d="M451.55-145.4c-.47-.25-.96-.23-1.48-.26-.6-.03-1.17-.07-1.76-.02-.2.01-.26.31-.07.38.92.35 2.35.8 3.29.34.19-.09.22-.34.02-.44" style="fill:#422000;fill-opacity:1;fill-rule:nonzero;stroke:none;stroke-width:0.133333"/><path id="path4086" d="M475.85-136c-.57-.08-1.14.12-1.7.23-.67.13-1.34.25-1.97.48-.24.09-.17.46.09.43q.97-.12 1.93-.32c.59-.1 1.23-.14 1.73-.48.13-.1.09-.33-.08-.35" style="fill:#422000;fill-opacity:1;fill-rule:nonzero;stroke:none;stroke-width:0.133333"/><path id="path4087" d="M479.73-135.49c-.56-.14-1.12.15-1.65.32-.62.2-1.25.34-1.87.54-.16.05-.12.26.03.3a4 4 0 0 0 1.77-.04c.63-.12 1.4-.24 1.88-.69.15-.15 0-.38-.16-.43" style="fill:#422000;fill-opacity:1;fill-rule:nonzero;stroke:none;stroke-width:0.133333"/><path id="path4088" d="M484.7-135.73c-.65.11-1.19.51-1.74.86q-1.19.75-2.5 1.26c-.42.15-.19.75.23.64a13 13 0 0 0 2.43-.98c.65-.33 1.4-.64 1.89-1.2.19-.23 0-.62-.3-.58" style="fill:#422000;fill-opacity:1;fill-rule:nonzero;stroke:none;stroke-width:0.133333"/><path id="path4089" d="M600.35-200.12c-.1-.16-.35-.06-.33.11.07.57-.31 1.14-.67 1.54-.16.17-.43.46-.3.73q.11.26.4.25c.56-.05.91-.74 1.1-1.19.2-.5.07-1-.2-1.44" style="fill:#422000;fill-opacity:1;fill-rule:nonzero;stroke:none;stroke-width:0.133333"/><path id="path4090" d="m602.35-200.75-.2.07c-.16.3-.15.65-.27.98-.15.4-.54.63-.65 1.04-.07.28.2.47.45.47.95 0 1.68-2.17.67-2.56" style="fill:#422000;fill-opacity:1;fill-rule:nonzero;stroke:none;stroke-width:0.133333"/><path id="path4091" d="m605.58-202.26-.15-.2c-.09-.18-.37-.15-.36.08l-.1.27c-.07.17-.1.35-.18.52-.14.38-.38.73-.45 1.12-.08.34.35.58.62.38.39-.28.54-.8.64-1.26q.07-.32.05-.65z" style="fill:#422000;fill-opacity:1;fill-rule:nonzero;stroke:none;stroke-width:0.133333"/><path id="path4092" d="M608.21-204.2c-.13-.1-.37 0-.34.18.05.3.04.55-.06.83-.09.25-.22.46-.11.73l.25.16c.85-.07.77-1.47.26-1.9" style="fill:#422000;fill-opacity:1;fill-rule:nonzero;stroke:none;stroke-width:0.133333"/><path id="path4093" d="M599.62-212.26c-.04-.19-.36-.12-.33.07.13.66-.55 1.36-.32 1.99l.26.12c.4-.14.5-.59.56-.96.07-.46-.07-.8-.17-1.22" style="fill:#422000;fill-opacity:1;fill-rule:nonzero;stroke:none;stroke-width:0.133333"/><path id="path4094" d="M596.51-209.95c-.13-.18-.37-.06-.38.14q.02.66-.13 1.28c-.1.36-.34.66-.42 1.03-.06.25.2.41.42.35 1.12-.33 1.04-2.04.51-2.8" style="fill:#422000;fill-opacity:1;fill-rule:nonzero;stroke:none;stroke-width:0.133333"/><path id="path4095" d="M592.73-207.03c-.05-.28-.43-.31-.5-.02-.13.5-.25.91-.54 1.33-.24.34-.63.6-.77 1-.05.15.05.36.24.33 1.04-.15 1.75-1.7 1.57-2.64" style="fill:#422000;fill-opacity:1;fill-rule:nonzero;stroke:none;stroke-width:0.133333"/><path id="path4096" d="M586.24-217.72c-.03-.16-.27-.2-.3-.01q-.14.7-.22 1.4c-.05.45-.19.96 0 1.38.07.16.27.2.4.07.3-.33.28-.78.29-1.21a8 8 0 0 0-.17-1.63" style="fill:#422000;fill-opacity:1;fill-rule:nonzero;stroke:none;stroke-width:0.133333"/><path id="path4097" d="M583.51-214.02c-.14-.26-.6-.08-.55.2q.12.59.03 1.16c-.05.32-.2.6-.2.93.01.24.33.37.5.23.73-.57.6-1.8.22-2.52" style="fill:#422000;fill-opacity:1;fill-rule:nonzero;stroke:none;stroke-width:0.133333"/><path id="path4098" d="M580.35-210.65c-.1-.22-.44-.16-.43.1q.03.87-.29 1.69c-.18.48-.48.9-.47 1.43 0 .2.23.26.38.17 1.02-.6 1.26-2.38.8-3.39" style="fill:#422000;fill-opacity:1;fill-rule:nonzero;stroke:none;stroke-width:0.133333"/></g></g></svg>