<svg xmlns="http://www.w3.org/2000/svg" id="svg1" viewBox="0 0 88.62 88.63"><g id="g1" transform="translate(146.56 269.528)"><g id="group-R5"><path id="path3086" d="M-60.45-239.77c-1.04-5.63 1.12-10.5 1.05-16.02a2 2 0 0 0-.54-1.43c1.25-4.9-.99-12.06-6.07-11.88-6.2.21-10.5 5.38-15.27 8.64-3.45 2.37-6.35 3.9-7.36 7.41q-.2.1-.4.25c-2.25 1.78-4.7.47-7.2-.2-2.43-.66-4.96-1.03-7.27.2q-.36.21-.6.47l-.38.2c-2.85-4.18-7.36-8.4-12.46-8.8a32 32 0 0 0-5.18-2.88c-3.37-2.21-6.63-4.68-9.82-.9a5 5 0 0 0-1.77 1.02 1.2 1.2 0 0 0-.67.09c-6.71 2.99-5.32 12.31-2.97 17.83 1.33 3.1 2.5 5.64 2.16 9.16-.24 2.51-1.52 4.99-1.85 7.54-.48 3.62 1.76 7.35 3.53 10.3l.14.2c.01.88.54 1.68 1.7 1.72 4.27.15 8.28-2.19 12.13-3.72q1.03-.4 1.98-.94-.32.86-.74 1.7a48 48 0 0 1-5.25 8.38c-4.13 5.09-10.41 7.18-14.76 11.96q-.43.52-.31 1.03a26 26 0 0 0-4.24 4.04c-.11.13.03.38.2.3 2.42-1.08 4.76-2.1 7.13-3.01l.2.05c4.97.32 9.66-2.78 14-4.87a23 23 0 0 0 4.57-2.71q.1.48.17.95c.43 4.2.12 8.72-1.93 12.48-.46.83.58 2 1.45 1.55 5.13-2.69 9.14-6.47 12.95-10.8.54-.61 1.44-1.57 2.37-2.67l.67-1.67c.22-.53 1.07-.67 1.23 0 .52 2.25 1.42 4.38 2.05 6.6 2.8 3.98 6.43 7.13 9.52 10.83a8 8 0 0 0 1.8 2.25v-.01c.8.64 2.15-.17 1.74-1.25-1.93-5.07-2.38-9.07-2.05-14.33 3.59 3.29 8.06 5.84 12.12 8.13 1.13.63 2.07-1.09 1.15-1.88-4.5-3.86-3.39-9.8-5.06-14.75l-.45-1.22c.1-3.42-2.14-7.36-3.38-10.17-.5-1.13-1.25-3.21-2.3-4.82q3.03.78 6.04 1.75l1.52 1.23c1.36 1.1 3.3 2.34 5.18 2.45q.2.27.49.5c4.46 3.44 12.35-2.28 12.7-7.46.3-4.35-.87-8.56-1.66-12.82" style="fill:#b84a72;fill-opacity:1;fill-rule:nonzero;stroke:none;stroke-width:0.133333"/><path id="path3087" d="M-104.78-253.16q-.75-.45-1.49-.97.04-.4-.25-.8c-1.37-1.7-2.74-3.06-4.83-3l-3.33-2.32c-2.79-1.92-6.16-2.68-8.95-4.6-2.42-1.68-4.33-1.35-6.25-.51-2.33.26-4.56 1.07-6.1 2.93q-.39.5-.4.98c-.5.4-.77 1.06-.43 1.72.95 1.84 2.65 2.13 4.59 2.5q2.88.52 5.73.98c.22.49.66.9 1.36 1.05 6.25 1.4 12.9 4.25 19.26 4.53 1.21.05 2.44-1.67 1.09-2.49" style="fill:#77204a;fill-opacity:1;fill-rule:nonzero;stroke:none;stroke-width:0.133333"/><path id="path3088" d="M-97.95-226.52H-98q-.18-.57-.74-.94a4 4 0 0 0 1-.48q.36.38.86.66-.54.31-1.07.76m-6.6-1.96.05-.1q.18-.71.43-1.35.02.81.35 1.46-.4-.03-.83-.01m39.34-40.5c-.88.12-1.68.55-2.39 1.1q-.22-.03-.45.02c-1.6.34-2.81.83-4.11 1.73-2.37 1.3-4.43 3.14-6.65 4.72-2.58 1.84-6.5 2.96-8.5 5.56a5.6 5.6 0 0 0-1.9 2.55c-.2.52.1 1.1.55 1.31a.7.7 0 0 0-.5.5c-.44 1.62.89 4.13 1.36 5.64.32 1 .43 2.04.5 3.07-.24.97-.27 2.02.03 2.86-.47.92-.45 2.2-.11 3.16-.34.1-.65.33-.83.67-.47.9-3.52 6.56-4.26 2.94-.23-1.15-1.61-1.4-2.2-.36-.26.48-1.16 3.2-1.4 2.2l-.02-.13c.08-1.24-.06-2.6-.25-3.95-.2-1.4-2.49-1.6-2.56-.07l-.1 1.98q-.03.21-.1.42-.54 2.3-1.87.94c-.12-1.35-1-2.77-1.56-3.98-.1-.23-.52-.27-.55.05v.01a6 6 0 0 0-1.06-2.45l-.13-.13q.26-.17.47-.37c.69-.72.18-1.83-.28-2.65q-.21-.43-.44-.79a1 1 0 0 0-.4-.32l-.03-.86-.05-1.12a1.2 1.2 0 0 0-.05-1.05 10 10 0 0 1 .34-3.53c.25-.81-.8-1.6-1.36-.81a6 6 0 0 0-1.15 3.5c-2.78-.85-7.73-2.4-8.41-.09-.7.14-1.17.98-.65 1.6.73.87 1.8 1.3 2.88 1.07.49.15 1 .21 1.43.18a.9.9 0 0 0 .8-.58h.37c1.1-.08 2.21.25 3.28-.04l.06-.04.68.16a5 5 0 0 1-.12 1.92c-.19.54-1.63.81-2.08.97-.82.28-.82 1.55-.01 1.85l.38.15c-1.15.12-2.34.05-3.5.04-1.24-.01-4.33-.47-4.8 1.16-.15.48.13.92.66.91 2.28-.04 4.64.02 6.96-.06l-.04.06.1.28c1.6.67 3.25.72 4.1 2.52l.03.05c-.15.48-.53.91-1.28 1.27-2.27 1.1-4.81 1.6-7.1 2.75-.7.35-.79 1.68.2 1.7 2.84.07 5.22-1.26 7.74-2.34-.24.77-.64 1.54-.84 2.28-.12.43.07.74.36.9-.35.32-.6.75-.65 1.18-.8.41-1.55 1-2.22 1.43-1.99 1.26-4.9 3.7-7.34 3.62-2.5-.08-1.16 3.1.22 2.48 2.14-.09 4.02-1.14 5.8-2.31 1.02-.67 2.4-1.4 3.64-2.23.19.82.59 1.54 1.45 1.95 1.26.58 2.4.36 3.5-.1-.94 1.88-1.55 3.91-2.3 5.91-1.06 2.78-2.78 5.48-2.8 8.5 0 .9 1.3 1.02 1.64.28q.91-2.08 1.66-4.2.32-.54.6-1.08c1.24-2.36 2.08-4.9 2.98-7.4 1.07-1.52 2.3-2.92 3.07-4.65l.04-.1q.34-.27.7-.41c-1.43 3.09-1.87 6.47-2.3 9.86-.46 3.53-2.2 7.81-1.76 11.38.42 3.38 3.8 6.94 5.64 9.61 2.34 3.4 4.98 6.79 8.16 9.43.6.49 1.5-.15 1.23-.87-2.41-6.33-12.54-13.38-10.24-20.81 1.76-5.7 2.44-12.38 2.45-18.4.28 0 .18.17.33.96.21 1.15.56 2.23.95 3.34.95 2.72 2.18 5.34 3.32 7.99.7 1.64 3.17.7 2.59-.98-.87-3.48-2.32-6.75-3.38-10.16l-.02-.12c.94.33 1.82.7 2.94.58 2.05-.22 1.96-3.1.05-3.49-1.37-.28-2.83-.68-4.17-.25a2.5 2.5 0 0 0-.91-.74c2.24-.46 3.64-2.94 4.51-5.2 1.44 1.15 3.45 1.68 5.2 2.21 1.36.4 2.33-1.1 1.28-2.12-1.5-1.46-4.1-1.6-5.53-3.06l.22-.27q.14-.36.22-.73c.56-.02 1.13-.48 1.33-1.09h.01a5 5 0 0 0 2.88-.45c1.03-.47 1.72-1.34 2.86-1.61.28-.07.36-.5.12-.66a6 6 0 0 0-4.96-.6q-.32.1-.5.29a8 8 0 0 0-1.02-.1q-.04-.66-.04-1.32c.24-.63.76-.98 1.65-1.3 2.04-.7 5.1-.4 6.17-2.68.15-.34-.13-.84-.53-.76-.82.14-1.54.52-2.35.66-.8.14-1.64.06-2.45.1a8 8 0 0 0-3 .65l-.57-1.46c-.5-1.34-1.16-3.96-2.58-4.67q.24-.02.46-.2.46-.38.9-.77c1.08-.17 2.15-.57 3.19-1.11 1.53-.14 3.15-.06 4.34-.27 2.7-.5 5.32-1.74 7.89-2.68 3.88-1.43 8-2.46 9.6-6.72.92-2.43-.4-5.66-3.37-5.3" style="fill:#77204a;fill-opacity:1;fill-rule:nonzero;stroke:none;stroke-width:0.133333"/><path id="path3089" d="M-90.16-251.05c-3.13-.26-6.71-3.43-9.85-1.8q-.64 0-1.28.22c-1.48.54-2.86 1.32-2.72 3.1.13 1.65.35 7.13 2.95 6.7.34-.06.69-.25.92-.53 1.66.59 3.74 0 4.15-1.97.2-.92-.1-1.83-.47-2.67q.42-.3.73-.74c1.67.6 3.36 1.68 5 1.8 2.67.2 3.25-3.9.57-4.11" style="fill:#ca6d90;fill-opacity:1;fill-rule:nonzero;stroke:none;stroke-width:0.133333"/><path id="path3090" d="M-60.01-228.84c.21-1.52.18-3.07.12-4.7a1.9 1.9 0 0 0-.95-1.57c.03-.87-.1-1.78-.17-2.58-.38-3.92-.4-7.76.31-11.64.15-.81-.2-1.53-.75-2.02a16 16 0 0 0 1.8-3.92c.62-2.32-.62-5.51-.96-7.8-.07-.47-.66-.6-.89-.17l-.1.2c-.33-.08-.7-.04-1.04.24-.7.58-1.3 1.04-1.78 1.84-.5.84-.95 1.73-1.6 2.47a13 13 0 0 1-3.82 2.75c-1 .5-2.18.78-2.83 1.75-.08.13-.14.32-.02.46 1.91 2.18 5.82.1 7.62-1.25q.81-.61 1.5-1.37c-.98 2.33-3.18 4.42-4.16 6.69-.63 1.47.41 2.9 1.8 3.2a53 53 0 0 0-.01 7.1c.28 4.95-4.4 3.64-7.83 4.85-2.07.74-1.6 3.34 0 4.22 2.65 1.43 5.77 2.06 8.54 1.43-1.2 2.28-3.4 3.41-5 6.25-.89 1.56-.06 4.19 2.16 3.73 4.54-.95 9.57-4.34 8.36-9.56a2 2 0 0 0-.3-.6" style="fill:#ca6d90;fill-opacity:1;fill-rule:nonzero;stroke:none;stroke-width:0.133333"/><path id="path3091" d="M-119.21-252.55c-3.07-1.93-6.6-2.3-9.77-4.02a6.5 6.5 0 0 0-3.75-.79c-2.1.2-2.93-1.35-4.81-1.5-.9-.06-1.75.6-1.64 1.56q.13 1 .33 1.97c-.43 3.19.35 6.49 2.2 9.18v.15a6 6 0 0 0 1.31 3.6 24 24 0 0 0 .7 1.53c.03 2.74-.71 5.25-1.17 8.12-.27 1.7-.23 3.2.25 4.81q0 .25.03.54c.26 1.62.5 3.13 1.14 4.52q.4 1.44.87 2.9c.64 1.93 3.2 1.55 3.98 0 .96-1.9.5-4.01-.25-6.02 1.2-.05 2.3-.9 2.03-2.48l-.2-1.12c-.25-2.08.69-2.88 2.59-4.4.76-.61 1.15-1.99.38-2.77-.9-.92-1.8-1.68-2.83-2.46a7 7 0 0 1-1.66-2.1c-.02-2.17-.89-4.27-1.41-6.33q.04-1.94.42-3.87c.08-.39 0-.7-.16-.96a2 2 0 0 0-.17-.41l-.19-.33q.27.07.54.2c3.25 1.5 7.24 2.46 10.82 1.85.58-.1 1.06-.97.42-1.37" style="fill:#ca6d90;fill-opacity:1;fill-rule:nonzero;stroke:none;stroke-width:0.133333"/><path id="path3092" d="M-117.2-208.99c-4.26 1.12-8.1 4.17-12.38 5.64a35 35 0 0 0-8.8 4.57l-.17.04c-.74.25-1.42.7-2.05 1.15-.8.55-2.84 2.33-1.9 3.48.9 1.12 2.06-.57 2.65-1.2q.23-.24.49-.44c1.22-.41 2.4-.93 3.63-1.44 3-1.26 6.07-1.84 9.19-2.69 4.2-1.13 9.48-3.47 10.72-7.96.23-.83-.72-1.32-1.39-1.15" style="fill:#ca6d90;fill-opacity:1;fill-rule:nonzero;stroke:none;stroke-width:0.133333"/><path id="path3093" d="M-99.26-217.54c-.1-.32-.6-.37-.73-.04-.67 1.75-.78 3.31-1.07 5.18-.64 4.22-3.92 8.19-6.88 11-2.19 2.07-4.28 3.78-6.23 5.71a2 2 0 0 0-.69-.31c-.1-.49-.16-.97-.44-1.4-.16-.23-.58-.29-.74-.03-.38.57-.38 1.19-.56 1.82q-.26.3-.37.7c-.15.57-.24 1.16-.36 1.74-.1.5-.29.88-.22 1.36l-.42.55c-.7.73.46 1.96 1.22 1.3l1.1-.92q.4-.19.66-.55c4.42-3.62 9.48-7.2 12.52-11.94 2.4-3.73 4.66-9.82 3.21-14.17" style="fill:#ca6d90;fill-opacity:1;fill-rule:nonzero;stroke:none;stroke-width:0.133333"/><path id="path3094" d="M-74.9-194.33c-1.78-3.58-5.25-5.81-8.18-8.4-.6-.52-5.6-6.4-6.46-4.71-1.28 2.48 2.85 5.81 4.45 7.3 2.79 2.57 5.92 5.15 9.56 6.38.32.1.82-.17.62-.57" style="fill:#ca6d90;fill-opacity:1;fill-rule:nonzero;stroke:none;stroke-width:0.133333"/><path id="path3095" d="M-99.44-246.52c-.83-.84-2.13-.17-2.58.67q-.35.67-.44 1.51a5 5 0 0 0-.23 1.48c-.08.4-.02.82.08 1.22q.12.4.43.61c.76 1.1 2.18 1.1 2.9-.14l.13-.25c.4-.35.63-.85.58-1.36q.12-.38.2-.78a3.3 3.3 0 0 0-1.07-2.96" style="fill:#e1bbc2;fill-opacity:1;fill-rule:nonzero;stroke:none;stroke-width:0.133333"/><path id="path3096" d="M-96.96-246.56c.15-.16.35-.39 0 0" style="fill:#e1bbc2;fill-opacity:1;fill-rule:nonzero;stroke:none;stroke-width:0.133333"/><path id="path3097" d="m-95.21-246.42-.09-.1c-.46-.5-1.17-.58-1.66-.04l-.08.1c-.59.65-.1 1.71.71 1.85.91.14 1.81-1.03 1.12-1.8" style="fill:#e1bbc2;fill-opacity:1;fill-rule:nonzero;stroke:none;stroke-width:0.133333"/><path id="path3098" d="M-86.24-244.16c1.12-.27 2.2-.74 3.3-1.08q1.56-.48 3.14-.7c-2.07.65-4.25 1.02-6.11 2.11l-.06.08-.24-.04q0-.19-.03-.37m8.2 3.63c-2.69 1.36-5.5 1.04-8.48 1.55l.2-1.1c2.77-.6 5.5-.82 8.28-.45m-9.57 6.82q.16-1.09.4-2.14l.06-.3c2.37 1.06 4.92 2.08 6.49 4.18-2.32-.58-4.61-1.92-6.95-1.74m24.9 11.1c-.8.76-1.64 1.5-2.43 2.27-2.66 2.58-5.1.94-7.4-.74a32 32 0 0 0-6.06-3.28 23 23 0 0 0-4.06-2.19l-3.06-1.3c-1.08-.46-2.17-.64-2.74-1.36l.12-.42c.29-1.16.47-2.36.65-3.55 2.5 1.18 5.4 2.37 8.14 2.63.4.04.87-.37.66-.8-1.57-3.23-4.88-4.57-8-5.9l.28-1.27a13 13 0 0 0 10.3-1.87c.38-.28.2-.81-.21-.92-3.17-.8-6.47-.76-9.64 0q.06-.75.04-1.52c.25-.17.5-.35.83-.44l.02-.13-.12-.08a21.4 21.4 0 0 0 8.94-2.76c.5-.3.1-.95-.36-.96-3.08-.07-6.81.55-9.65 2.02l-.04-.19c-.5-1.69-1.1-4.4-2.4-6 1.2-.83 2.94-.86 4.33-1.06 1.96-.28 3.81-1.04 5.65-1.74 1.95-.74 3.92-1.42 5.88-2.14 3.77.23 7.84-2.02 10.28-4.7a16 16 0 0 0 1.83-2.6c.2 1.73.3 3.52.65 5.22.34 1.67.6 3.41.1 5.1-.38 1.3-1.33 2.4-1.74 3.73-.77 2.46.21 5.67.42 8.17.27 3.3.57 6.55 1.18 9.81.72 3.77.42 6.22-2.4 8.96m-19.04 6.6c1.54 3.87 1.66 8.1 2.47 12.15.9 4.42 2.73 8.22 5.66 11.1-1.68-.97-3.3-2.08-4.85-2.92-3.39-1.84-6.02-4.17-8.64-6.92-.28-.8-.69-1.45-1.32-1.74-.12-.06-.26.1-.18.21.72.97.4 3.56.51 4.75.23 2.45.23 4.9.55 7.35q.45 3.35 1.93 6.18a62 62 0 0 1-7.7-7.3 30 30 0 0 1-4.4-6.7c-.93-1.97-1.25-3.97-2.3-5.85a29 29 0 0 0 2.46-8.71c.33-2.68.03-5.9 1.17-8.4.56-1.24 1.3-2.44 1.3-3.82l1.15.05v.06l-.1.1c-.38 1.58.15 3.48.29 5.1.17 1.97.21 4.02.98 5.88.22.55 1.03.36 1-.22-.13-2.17-.43-4.33-.66-6.49-.1-.94-.18-2.04-.51-3v-.24q.06-.54.04-1.1l-.03-.1a8 8 0 0 0 2.7-.55c-.13 1.2.28 2.45.7 3.58A16 16 0 0 0-87-218.8a.5.5 0 0 0 .87-.46c-.43-1.49-1.32-2.85-1.96-4.25-.48-1.03-.73-2.1-1-3.18 1.08.64 2.27 1.13 3.48 1.57.95 3.14 2.65 6.08 3.85 9.12m-22.55 14.13c-2.56 3.44-6.02 6.14-9.45 8.66-1.28.94-2.76 1.82-4.2 2.75 2.16-4.85 2.62-10.55 2.37-15.81l-.02-.29-.01-.36c-.02-.34-.49-.32-.57-.02l-.1.39c-2.66 2.17-4.95 4.43-8.1 5.98-2.74 1.35-5.9 1.88-8.85 2.6-3.24.78-6.47 1.76-9.14 3.56 3.14-4.04 7.64-7.06 11.62-10.18 5.66-4.43 10.72-9.55 14.05-15.97q.14-.32.03-.54c4.5-1.6 8.9-3.47 12.36-6.92q.64.32 1.3.56c-2.02 1.28-3.68 3.1-5.47 4.68-1.4 1.23-2.93 2.29-4.24 3.61-1.88 1.9-4.99 4.97-4.07 7.93.08.25.4.22.5.02.82-1.38 1.34-2.86 2.28-4.22 1.17-1.7 2.76-3.1 4.3-4.44 2.65-2.3 5.34-4.54 7.46-7.36q.48.14.96.23c-.2.22-.43.42-.57.58-.61.7-1.3 1.35-1.95 2.03-1 1.03-2.57 2.2-2.93 3.66-.08.33.31.5.55.36 1.45-.9 2.62-2.54 3.74-3.79.68-.76 1.55-1.7 1.82-2.74q.63.07 1.26.06c-1.26 1.2-2.23 3.03-3.04 4.5-1.93 3.5-3.83 7.47-3.99 11.52-.01.33.5.4.62.11 1.33-3.42 2.45-6.83 4.04-10.15.67-1.39 2.95-4.05 3.1-5.83.64.12 1.46.16 2.15 0-.16 1.33-1.04 2.62-1.6 3.81-.92 2-.77 4.94-.96 7.1a27 27 0 0 1-5.25 13.92m-2.6-30.12c-1.98 1.08-3.97 2.21-6.22 2.41 1.63-1.34 3.95-1.79 5.92-2.33zm-.48-6.48c-1.51.18-3.02.49-4.53.68q-1.57.2-3.15.04c-.08 0-2.32 0-1.4-.3.9-.32 1.95-.34 2.9-.4 2.05-.15 4.12-.11 6.18-.02m-2.85-6.33c-1.21.18-2.41.41-3.45.36a3 3 0 0 1-1.68-.63l.14-1.7q.6.12 1.18.36c.74.27 1.45.64 2.17.98q.77.37 1.64.63m-11.35 23.61c-2.51.8-4.84 1.8-7.28 2.78-3.12 1.23-5.15-1.04-5.41-4.04-.12-1.34-.65-2.67-1.13-3.9-1.32-3.4.39-6.3 1.15-9.55.66-2.8-.37-5.66-1.46-8.2-1.31-3.08-2.72-5.82-2.95-9.22a14 14 0 0 1 .89-5.78c1.54 1.92 6.08 2.83 7.8 3.18 8 1.64 16.19 5.8 24.5 5.9-.42 1.76-.16 3.67.1 5.48-1.48-.5-3.03-.83-4.57-1.11-1.2-.22-2.23-.75-3.36-1.2-.8-.33-3.16-1.23-3.5.3-.37 1.65 1.62 2.66 2.98 3 2.65.64 5.83-1.29 8.2.48q.22.16.47.07c.16 1.33.48 2.63.78 3.92-1.69-.6-5.46-.29-6.44-.3-1.5 0-6.22-.5-7.1 1.24-.11.23.01.52.24.62 4.47 1.94 9.06-.23 13.68.13q.36 1.65.38 3.27c-1.83.63-3.58 1.32-5.5 1.8-2.08.52-4.2 1.21-5.58 2.94-.21.26-.08.77.3.79 3.7.24 7.34-1.99 10.61-3.71q-.25 1.36-1.07 2.71l-.1.05c-4.84 4.15-10.62 6.44-16.63 8.35m-8.25-36.27-1.03-.23-.52-.1c-.11-.42-.45-.81-.75-1.16l1.38.25q.42.67.92 1.24m4.07-2.66-.43-.73q.4.17.78.37.29 1.04.7 2.06c-.36-.59-.74-1.16-1.05-1.7m-3.56 1.63q.5.06 1.03.1.32.57.72 1.1c.41.54 1.2-.04.85-.6l-.27-.42h.02c.25 0 .27-.34.08-.44q-.27-.14-.56-.25c-.73-1.04-1.5-2.06-2.2-3.11l.1.08 1.55.53c.41.8.98 1.57 1.37 2.3q.15.28.28.58l.08.24.06.04c.33.7.67 1.43 1.11 2.05q-1.98-.55-3.98-1 .19-.2.13-.45a3 3 0 0 0-.37-.75m8.39 3.47-.9-.28q-.23-.52-.51-1l1 .43q.19.44.4.85m6.24 1.45c-.4 0-.81 0-1.17-.1-.13-.03-.2.07-.21.18l-.78-.23c-.07-.47-.28-.9-.51-1.33q.82.47 1.69.9c.3.14.63.38.98.58m-21.46-7.97c1.58-2.4 5.32-3.78 7.98-4.33 3.4-.7 6.13 2.82 9.02 4.2 4.58 2.18 11.64 4.81 14.05 9.7q.13.24.32.32l-.1.1h-.01c-1.8.02-3.65-.2-5.5-.54h.24l.19-.14c.1-.16.14-.38.01-.54a7 7 0 0 0-1.9-1.83c-.18-.12-.34.14-.25.29q.66 1.07 1.43 2.05l.22.15-1.13-.22.02-.07c.03-.63-.76-1.33-1.13-1.79-.46-.55-1-1.26-1.74-1.4-.2-.04-.31.18-.22.34q.25.42.56.8l-.67-.34c-.92-.47-1.86-.87-2.73-1.43a.5.5 0 0 0-.55 0 40 40 0 0 0-1.65-2.6c-.13-.19-.47-.03-.36.19q.7 1.4 1.3 2.83l.03.11a.6.6 0 0 0-.4-.15c-.82 0-.69 1.25.12 1.25a.5.5 0 0 0 .53-.44q.15.47.34.91l-1.34-.42q-.14-.47-.37-.9c.15-.12.21-.34.03-.5q-.25-.24-.52-.41l-.2-.39q-.84-1.52-1.6-3.06c-.25-.5-1.06-.23-.84.3l1.04 2.34q-.57-.2-1.15-.37l-.5-.86q-.4-.75-.78-1.51l.6.31c.2.1.46-.17.3-.36a5 5 0 0 0-1.48-1.1l-.47-.93c-.08-.16-.37-.06-.34.12l.12.5q-.54-.2-1.12-.33c-.4-.54-.88-1-1.47-1.17-.16-.05-.26.13-.23.27l.2.55q-.64-.14-1.24-.3c-.15-.04-.22.11-.16.22q-.18-.24-.34-.5c-.14-.21-.45.01-.33.23.54.94.97 1.94 1.44 2.9q-.68-.15-1.4-.24l-.1-.11c-.6-.77-1.3-1.48-1.84-2.3-.12-.18-.42-.03-.34.18q.46 1.11 1.1 2.12-.75-.04-1.49-.05-.7-.78-1.35-1.6c-.13-.16-.38.02-.26.19q.46.66.85 1.39-1.18 0-2.28-.07c-.2 0-.28.3-.06.34q1.37.2 2.77.47l.2.35c.13.21.27.5.44.76-2.13-.5-4.84-1.48-3.51-3.48m32.5 10.73a.6.6 0 0 0-.08-.69c3.17-3.05 9.72.46 13.4.94l.28-.03c.6 1.28.92 2.88 1.38 4.08 1.08 2.83.76 5.3.14 8.18-.55 2.56-1.17 5.1-1.5 7.7-.31 2.53-2.78 2.4-4.82 2.33.22-.78.33-1.63.51-2.25.3-1 .91-2.6.17-3.51-.16-.2-.5-.26-.66-.03-.74 1.07-.8 2.95-1.12 4.2-.12.5-.36 1.25-.35 1.89v.01c-.43.07-.92.04-1.38-.03.82-1.81 1.09-4.08-.17-5.7-.18-.24-.63-.2-.67.15-.2 1.89.05 3.56-.72 5.3-1.36-.22-2.67-.41-3.96-.98 1.45-2.54 1.6-4.9.85-7.9-.93-3.79-3-9.85-1.3-13.66m33.12-10.68-.17.35c-.35.86-.8 1.78-1.04 2.7l-2.04.69c.26-.54.43-1.15.66-1.67q.61-1.43 1.36-2.79.6.37 1.23.72m1.76 1q-.14.48-.17.95-.75.33-1.5.62c.19-.48.33-.98.5-1.46l.2-.66.5.28zm4.73-2.03-.44.4c-.35-.17-.73-.26-1.11-.38l.18-.82c.43.3.9.6 1.37.8m-13.06.35c2.5-1.48 4.58-3.59 7.18-4.9 2.15-1.08 10.48-1.96 7.5 2.74l-.13.2c-.26-.1-.53-.07-.83-.1a2.3 2.3 0 0 1-1.24-.66c-.4-.36-.9.27-.52.65l.06.05c-.56-.29-1.3-.57-1.73-1-.18-.19-.45.13-.26.3.21.2.38.5.58.71l.3.28-.1.21q-.08.42-.2.82l-.34-.17q.16-.37.36-.75c.2-.33-.36-.68-.58-.36q-.25.37-.47.76-.64-.35-1.23-.73c-.21-.13-.39.2-.22.35q.54.53 1.1.99-.24.48-.46.97l-.04.1-1.02-.37.43-1.28c.08-.22-.21-.45-.37-.23q-.44.62-.8 1.25c-.96-.32-1.91-.61-2.75-.96-.22-.1-.36.21-.16.33l.66.4q-.76 1.19-1.44 2.43c-.44.82-1.08 1.8-1.1 2.77q-.67.23-1.36.49c.5-1.5 1.03-3.1 1.88-4.4.14-.2-.15-.44-.3-.24-1.12 1.61-2.15 3.13-2.74 5.04v.04l-1.42.55c.2-.45.4-.92.61-1.31.55-1.01 1.22-2.06 1.37-3.2.03-.2-.22-.34-.36-.18-.74.9-1.28 1.99-1.88 2.98-.41.69-.98 1.46-1.22 2.28l-1.22.44.54-1.16q.7-1.42 1.25-2.9c.08-.22-.24-.37-.32-.15-.4 1-.96 1.88-1.51 2.78-.33.53-.75 1.11-.96 1.72q-.47.16-.96.3.17-.4.36-.78c.31-.61.67-1.21 1-1.82.11-.19-.2-.32-.3-.14l-.96 1.59c-.23.4-.5.81-.64 1.25l-.68.15c-1.18.2-2.52.27-3.72.65 2.22-4.24 7.43-6.45 11.36-8.78m18.26 27.91c-.45-2.4-.55-4.91-.75-7.35-.2-2.46-1.11-5.59-.43-8 .4-1.41 1.3-2.61 1.66-4.06.4-1.54-.08-3.38-.38-4.88-.4-1.98-.6-4.8-1.65-6.76.1-.87-.12-1.78-.82-2.7-1.26-1.65-4.9-1.54-6.7-1.48-3.51.1-6.31 3.27-9.02 5.08-4.6 3.1-12.4 5.78-13.28 12l-.02.02a.5.5 0 0 0-.43.27c-3.2-1.01-10.86-3.34-13.34-.63-.85-2.54-3.53-4.25-5.63-5.66-3.14-2.08-6.46-3.45-9.84-5.06-3.82-1.82-5.1-4.65-9.7-3.74-3.02.6-6.2 2.36-8.2 4.7a4 4 0 0 0-.87 1.56c-2.7 4.2-2.12 10.04-.3 14.51.8 1.96 1.74 3.83 2.4 5.85.89 2.75-.07 5.22-.95 7.8-1.4 4.1.24 6.57.98 10.55.43 2.33.57 5.55 3.58 6.07 3.26.55 6.11-1.48 9.04-2.56q2.58-.94 5.22-1.82c-3.68 6.77-9.33 11.83-15.39 16.48-5.02 3.85-10.48 7.89-12.84 14-.34.89.86 1.36 1.32.57 3.2-5.46 10.02-6.53 15.67-7.9 4.78-1.16 9.7-3.31 12.8-7.25-1.13 5.78-1.13 11.76-4.53 16.62-.83.74-1.58 1.55-2.15 2.47-.46.76.44 1.94 1.2 1.22l.15-.17.03-.03q.98-.96 1.79-2.03c1.13-.96 2.44-1.71 3.7-2.6q3.01-2.1 5.93-4.31a40 40 0 0 0 8.61-8.77q.76-1.1 1.39-2.3c.58 2.08.97 4.19 1.9 6.17a30 30 0 0 0 4.15 6.13c3.53 4.3 8.01 7.78 12.38 11.17.83.65 1.66-.54.97-1.24-3.98-4.08-4.8-8.9-5.25-14.35-.07-.85-.05-2.4-.23-3.9 1.77 2.46 4.07 4.25 6.82 5.85 4.05 2.37 8.13 5.2 12.78 6.13 1.02.2 1.35-1.27.47-1.69-3.39-1.6-6.26-3.69-8.3-6.88-1.91-3-2.5-6.74-3.11-10.17-.57-3.18-1.06-6.21-2.3-9.22-1.12-2.73-2.5-5.35-3.76-8.02q1.28.44 2.49.95c2.37 1.04 4.8 2.07 7.02 3.43 1.56.95 2.88 2.15 4.56 2.92 2.56 1.18 4.71-.3 6.54-2.03 1.85-1.76 4.6-3.56 5.24-6.2.7-2.93-.08-5.87-.62-8.76" style="fill:#422000;fill-opacity:1;fill-rule:nonzero;stroke:none;stroke-width:0.133333"/><path id="path3099" d="M-89.48-219.2c-1.13-2.37-1.66-4.75-2.24-7.28-.06-.28-.47-.2-.52.04-.45 2.08.22 4.1.94 6.04.86 2.33 1.95 5.07 3.5 7.02.19.24.62.13.58-.2-.24-2-1.4-3.83-2.26-5.62" style="fill:#422000;fill-opacity:1;fill-rule:nonzero;stroke:none;stroke-width:0.133333"/></g></g></svg>