<svg xmlns="http://www.w3.org/2000/svg" id="svg1" viewBox="0 0 163.27 174.54"><g id="g1" transform="translate(-306.642 -1018.752)"><g id="group-R5"><path id="path3346" d="M393.58 1038.21c-1.64 4.82-3.33 9.6-4.89 14.45-.66 2.07-1.23 4.2-1.85 6.33l2.47-3.24a98 98 0 0 0 8.23-12.54c2.89-5.37 6.74-12.4 6.34-18.82-.31-5.06-5.7 2.7-6.4 4.1a77 77 0 0 0-3.9 9.72" style="fill:#4c7790;fill-opacity:1;fill-rule:nonzero;stroke:none;stroke-width:0.133333"/><path id="path3347" d="M382.3 1048.6c.54-2.4 1.48-4.56 3.08-6.19.24-.25.63.03.5.34-2.96 6.64-2.29 13.48-2.28 20.53 0 .43-.28.67-.6.75l-.07.3.15.07q.2.11.38.25.33-.83.75-1.61c.75-5.3 2.8-10.68 4.44-15.64 1.53-4.63 3.03-9.3 4.74-13.86 1.47-3.93 3.1-8.2 6.18-11.17q.42-.4 1.08-.83c-3.32-.87-6.71-1.02-10.07.41-4.82 2.06-6.9 5.9-7.85 10.88a69 69 0 0 0-.96 7.4q.2 2.51.3 5.06.1 1.66.23 3.32" style="fill:#7abbc9;fill-opacity:1;fill-rule:nonzero;stroke:none;stroke-width:0.133333"/><path id="path3348" d="M373.6 1062q-.51-.86-.96-1.56a34 34 0 0 1-2.86-5.24c-.12-.27.28-.4.44-.2 1.35 1.71 2.78 3.38 4.17 5.05 1.05 1.26 2.63 2.72 2.97 4.37l.44-.11c-.8-1.8-1.68-3.57-2.4-5.39-.09-.2.17-.4.36-.3 1.9 1.06 3.07 3.36 3.88 5.4l.08-.02c-1.42-4.26-3.86-8-5.8-12.05-2.05-4.29-3.75-8.85-4.48-13.56-.42-2.68-1.08-9.2.74-12.81-2.98.84-5.68 2.2-7.56 5-2.63 3.9-2.89 8.63-1.45 13.04 2.3 7.03 6.9 13.39 12.43 18.37" style="fill:#7abbc9;fill-opacity:1;fill-rule:nonzero;stroke:none;stroke-width:0.133333"/><path id="path3349" d="M373.94 1047.27c1.5 3.68 3.86 7.29 5.6 11.05-.55-4.66-.2-9.67-.02-14.06l.14-3.16a47 47 0 0 0-.6-5.58c-.47-2.66-1.13-7.16-2.94-9.4-2.7-3.33-4.77.93-5.06 3q-.39 2.75-.15 5.51a43 43 0 0 0 3.03 12.64" style="fill:#4c7790;fill-opacity:1;fill-rule:nonzero;stroke:none;stroke-width:0.133333"/><path id="path3350" d="M383.25 1067.15c-.37-.31-.8-.66-1.26-.91l-.01.1c-.04.16-.24.17-.34.05l-.04-.04q-1.08.28-2.2.49-.21.11-.44.09-.8.16-1.57.39c-.91.28-1.8.73-2.73.92-1.5 1.8-1.97 4.11.41 5.77 2.75 1.9 9.33 2.68 10.22-1.85.4-2.06-.46-3.69-2.04-5.01" style="fill:#7abbc9;fill-opacity:1;fill-rule:nonzero;stroke:none;stroke-width:0.133333"/><path id="path3351" d="M384.97 1105.22c-1.7-5.24-2.53-10.64-3.25-16.09-.5-3.83.03-7.76-.73-11.55q-1.56.21-3.12-.12c-1.62 4.77-3.2 9.27-3.92 14.3a118 118 0 0 0-1.23 15.29c-.02 2.3-.1 5.15 1.34 7.1 2.67 3.56 7.16 3.56 11.07 2.34 1.44-.45 3.44-1.43 5.34-2.07-2.7-2.29-4.8-7.05-5.5-9.2" style="fill:#7abbc9;fill-opacity:1;fill-rule:nonzero;stroke:none;stroke-width:0.133333"/><path id="path3352" d="M393.82 1109.6q-.62-3.13-2.03-6.01c-1.64-3.38-3.7-6.53-5.33-9.9-1.24-2.56-1.85-5.15-2.46-7.9-.26-1.17-.49-2.56-.83-3.9q.05 1.29.07 2.5c.1 3.63.63 7.2 1.25 10.78 1.06 6.04 2.44 14.11 7.87 18 2.14 1.55 1.68-2.48 1.46-3.56" style="fill:#4c7790;fill-opacity:1;fill-rule:nonzero;stroke:none;stroke-width:0.133333"/><path id="path3353" d="M407.18 1088.73c1.08.16 3.53.5 2.71-1.42q-.56-1.3-1.42-2.44a29 29 0 0 0-3.86-4.3c-2.35-2.11-5.4-3.64-8.32-4.8-2.37-.95-6.15-2.75-8.96-2.78 1.82 3.3 4.72 6.2 7.47 8.54 3.43 2.91 7.77 6.5 12.38 7.2" style="fill:#4c7790;fill-opacity:1;fill-rule:nonzero;stroke:none;stroke-width:0.133333"/><path id="path3354" d="m331.28 1081.2-.15-.21c.16.2-.34-.22-.11-.1-.2-.11-.26-.09-.22-.1-.2.02-.13-.01-.39.1-.35.16-.87.74-1.27 1.07q-.16.13-.37.23c-.25.79-.17 1.64.7 1.83.47.1.95.14 1.37-.04q.35-.16.55-.56a2.5 2.5 0 0 0-.01-2.04c-.06-.14.04.03-.1-.18" style="fill:#7abbc9;fill-opacity:1;fill-rule:nonzero;stroke:none;stroke-width:0.133333"/><path id="path3355" d="M329.57 1085.84c-1.48-.28-2.64-1.29-2.5-2.9q.07-.68.4-1.26l-.01-.01c-.07-1.19 1.52-2.51 2.6-2.73 2.07-.42 3.46 1.45 3.43 3.4-.04 2.19-1.6 3.95-3.92 3.5m22.24-3.28c-.38-.98.47-2.25 1.43-2.54.9-.28 1.8.04 2.5.62 1.32 1.1 2.55 3.36 1.72 5.09a3 3 0 0 1-2.62 1.63c-1.22.09-2.98-.03-3.7-1.2-.77-1.28-.27-2.62.72-3.53zm-18.37 13.1c.64-1.77 2.3-3.27 4.28-2.98 2.3.34 3.62 2.57 3.93 4.72 3.04.66 6.36 1.23 9.12 2.7l.23.21a67 67 0 0 1 4.41-7.96c2.83-4.46 6.77-9.9 11.6-13.14a20 20 0 0 1-5.39-.3 33 33 0 0 1-11.5-4.84 39 39 0 0 1-9.32-8.37l-.13.09.24.14c.38.33.43 1.1-.08 1.35-4.7 2.36-8.83 5.88-12.91 9.18-2.11 1.7-4.18 3.48-6.4 5.07q-2.79 1.99-5.62 3.93a.6.6 0 0 1-.3.5c-1.64 1.15-3.27 2.34-4.96 3.44 6.09 3.05 12.9 4.34 19.54 5.6q1.64.32 3.26.66" style="fill:#d93b6a;fill-opacity:1;fill-rule:nonzero;stroke:none;stroke-width:0.133333"/><path id="path3356" d="M355.28 1085.23c.27-.12.4-.31.43-.73.07-.73-.46-1.78-1.11-2.37a3.7 3.7 0 0 0-1.66 1.77c-.15.34-.44 1-.08 1.25.58.4 1.78.37 2.42.08" style="fill:#7abbc9;fill-opacity:1;fill-rule:nonzero;stroke:none;stroke-width:0.133333"/><path id="path3357" d="m348.29 1059.96-.06.05-1.4 1.12c-.61.5-1.29 1.15-2.03 1.53a18 18 0 0 0 7.6 3.73 43 43 0 0 1-4.11-6.43" style="fill:#d93b6a;fill-opacity:1;fill-rule:nonzero;stroke:none;stroke-width:0.133333"/><path id="path3358" d="M372.78 1067.67a10 10 0 0 1 1.66-1.62l.33-.24a55 55 0 0 1-9.63-9.86c-2.03 2.92-7.33.78-7.66-2.6l-.13.11c-1.47 1.22-3.2 2.9-5.17 3.15h-.07a32 32 0 0 0 7.23 4.97c4.28 2.17 9.62 3.05 13.44 6.08" style="fill:#d93b6a;fill-opacity:1;fill-rule:nonzero;stroke:none;stroke-width:0.133333"/><path id="path3359" d="M342.07 1064.17a34 34 0 0 0 8.48 7.86c3.42 2.24 7.34 4.33 11.44 4.88 3.27.43 6.37.12 9.47-.54-.9-.4-1.75-.87-2.44-1.22-2.04-1.02-4.48-1.92-6.34-3.23-.35-.25-.18-.86.2-.96 1.72-.47 4 1.05 5.47 1.75 1.18.57 3.23 1.96 4.9 2.32a6 6 0 0 1-1.42-1.85c-.88-.23-1.77-.79-2.5-1.17-1.08-.57-2.15-1.08-3.14-1.8-.2-.14-.04-.43.16-.45 1.34-.13 2.43.36 3.65.87q.66.27 1.4.5l-.01-.1q.06-1.1.57-2.09c-5.2-3.48-11.85-4.16-17.1-7.76a32 32 0 0 1-6.6-5.9 41 41 0 0 0 7.2 11.83c.46.53-.03 1.56-.73 1.52-6.18-.32-11.31-3.8-15.13-8.44q.9 1.84 2.1 3.5.27.19.37.48" style="fill:#7abbc9;fill-opacity:1;fill-rule:nonzero;stroke:none;stroke-width:0.133333"/><path id="path3360" d="M361.02 1055.24c1.02.36 2.28.4 2.76-.73l.15-.24a39 39 0 0 1-2.53-4.23c-.46.41-1.01.79-1.44 1.16l-1.37 1.2.08.17a3.6 3.6 0 0 0 2.35 2.67" style="fill:#7abbc9;fill-opacity:1;fill-rule:nonzero;stroke:none;stroke-width:0.133333"/><path id="path3361" d="M372.7 1087.44c.41-2.1.95-4.23 1.72-6.21a36 36 0 0 0-2.54 4.49c-1.15 2.38-1.84 5.21-3.43 7.33-.2.27-.72.09-.7-.26.36-5.24 4.22-10.63 8-14.4q.4-.66.84-1.28l-.13-.06a1 1 0 0 1-.54.39l-.4.1-.1.25c-2.14 1.25-4 2.53-5.73 4.36-1.31 1.39-2.48 3.25-4.09 4.3-.28.2-.58-.14-.46-.42.92-2.15 3.19-4.3 4.94-5.82.75-.65 1.55-1.34 2.42-1.89l-.12.03c-6.59 3.23-11.77 9.53-15.53 15.66-3.13 5.1-6.5 11.4-6.63 17.63 2.66-4 5.45-7.82 9.07-11.08.59-.52 1.72.04 1.7.8q-.2 4.63.06 9.2a76 76 0 0 1 4.2-8.81c2.48-4.56 4.48-9.47 7.05-13.96q.16-.26.4-.35" style="fill:#7abbc9;fill-opacity:1;fill-rule:nonzero;stroke:none;stroke-width:0.133333"/><path id="path3362" d="M448.54 1087.24c.69.52 2.12.5 2.35-.55.2-.87-.28-1.8-1-2.3-.86-.62-1.35.1-2.17.33-.1.36-.2.7-.08 1.1.18.55.42 1.06.9 1.42" style="fill:#7abbc9;fill-opacity:1;fill-rule:nonzero;stroke:none;stroke-width:0.133333"/><path id="path3363" d="M427.12 1097.56c1.08.47 1.62.2 1.83-.81a4.7 4.7 0 0 0-.42-3.2c-.18-.28-.14-.26-.37-.41 0 0 .03-.03-.14.01.06-.01-.17.09-.3.22-.28.26-.6.52-.94.65a.6.6 0 0 1-.41.03q-.45.54-.67 1.15c-.42 1.21.4 1.92 1.42 2.36" style="fill:#7abbc9;fill-opacity:1;fill-rule:nonzero;stroke:none;stroke-width:0.133333"/><path id="path3364" d="M433.35 1038.84c.06.92.37 1.91 1.1 2.52.88.71 1.83.52 2.77.94.25-2.23.07-4.49-.72-6.64l-.2-.5c-.64.29-1.36.47-1.87 1.01a3.6 3.6 0 0 0-1.08 2.67" style="fill:#7abbc9;fill-opacity:1;fill-rule:nonzero;stroke:none;stroke-width:0.133333"/><path id="path3365" d="M383.75 1076.72c1.83 2.86 3.07 6.2 4.77 9.15 1.88 3.23 3.95 6.54 6.66 9.16 2.85 2.76 5.8 3.4 9.2.97 2.01-1.43 2.92-2.98 3.86-4.78-4.15-.05-9.66-4.13-11.96-5.93-3.49-2.75-7.93-6.6-9.7-11.1a7 7 0 0 1-2.83 2.53" style="fill:#7abbc9;fill-opacity:1;fill-rule:nonzero;stroke:none;stroke-width:0.133333"/><path id="path3366" d="M446.77 1064.89c1.42.74 2.6.08 3.67-.8a39 39 0 0 0-4.06-1.69c-.32.34-.7.73-.56 1.24a2 2 0 0 0 .95 1.25" style="fill:#7abbc9;fill-opacity:1;fill-rule:nonzero;stroke:none;stroke-width:0.133333"/><path id="path3367" d="M464.89 1083.07a5 5 0 0 0 2.06 1.43c-.24-2.25-.85-4.5-1.86-6.65-1.95 1.18-1.62 3.51-.2 5.22" style="fill:#7abbc9;fill-opacity:1;fill-rule:nonzero;stroke:none;stroke-width:0.133333"/><path id="path3368" d="M422.58 1053.79c.79-.3 1.4-1.2.83-1.96-.38-.51-1.07-.92-1.73-.82-.44.06-.67.44-.92.82.27.98.69 2.38 1.82 1.96" style="fill:#7abbc9;fill-opacity:1;fill-rule:nonzero;stroke:none;stroke-width:0.133333"/><path id="path3369" d="M367.68 1101.66q-.82 1.52-1.62 3.05c.67.1 1.35.3 1.96.48.78.23 1.9.43 2.64.94.03-3.83.4-7.74.9-11.52-1.2 2.44-2.65 4.8-3.88 7.05" style="fill:#d93b6a;fill-opacity:1;fill-rule:nonzero;stroke:none;stroke-width:0.133333"/><path id="path3370" d="M337.42 1094.23c-1.3-.17-2.09.7-2.66 1.7q2.52.52 5.02 1.06c-.35-1.26-.96-2.57-2.36-2.76" style="fill:#7abbc9;fill-opacity:1;fill-rule:nonzero;stroke:none;stroke-width:0.133333"/><path id="path3371" d="M447.08 1106.1c-.74.3-1.7.88-1.84 1.75-.17 1.03.72 1.62 1.12 2.43a42 42 0 0 0 4.93-2.03 1 1 0 0 1-.05-.42c.14-2.24-2.62-2.37-4.16-1.73" style="fill:#7abbc9;fill-opacity:1;fill-rule:nonzero;stroke:none;stroke-width:0.133333"/><path id="path3372" d="M404.28 1064.57c1.13-.1 2.39-1.95 1.72-2.88-.48-.65-1.8-.96-2.65-.76-.29.07-.46.12-.62.24-.1.07-.13.04-.2.23.06-.16 0 .17-.01.2.02-.13 0 .22 0 .2a2 2 0 0 1-.06.44l.02-.03-.02.06-.04.12-.05.06-.15.17-.05.06.03-.04-.15.09q.02.4.28.8c.43.6 1.18 1.1 1.95 1.04" style="fill:#7abbc9;fill-opacity:1;fill-rule:nonzero;stroke:none;stroke-width:0.133333"/><path id="path3373" d="M413.66 1034.02c.82-.26 1.77-1.12 1.45-1.9-.2-.5-.89-.99-1.48-.95-.32.02-.55.1-.77.42-.14.2-.2.44-.29.67-.1.32-.24.48-.47.71l-.04.03a.6.6 0 0 0 .11.48c.32.43.96.7 1.49.54" style="fill:#7abbc9;fill-opacity:1;fill-rule:nonzero;stroke:none;stroke-width:0.133333"/><path id="path3374" d="M407.93 1061.59c.54 2.48-2 5.43-4.6 4.66a4.2 4.2 0 0 1-2.78-2.39 3 3 0 0 1 .17-2.46 2 2 0 0 1 .5-1.37 3.5 3.5 0 0 1 2.34-.98c1.72-.1 3.95.63 4.37 2.54m3.12-29.54c-.07-1.4 1.58-2.64 2.95-2.47 1.35.17 2.82 1.38 2.76 2.84-.07 1.89-2.3 3.69-4.19 3.06-.96-.32-1.85-1-2-2.07-.08-.54.13-1.03.48-1.36m7.2 74.22c.83 1.44.29 3.1-1.16 3.88a3.6 3.6 0 0 1-4.28-.61.7.7 0 0 1-.6-.08c-1.62-1.11-.66-3.88.8-4.69 1.65-.92 4.3-.16 5.25 1.5m3.68-57.05c1.4.09 3 1.06 3.33 2.51.42 1.87-1.14 3.93-3.15 3.74a3.1 3.1 0 0 1-2.68-3.23c-1.12-1.51 1.12-3.1 2.5-3.02m2.97 44.42q.44-.42.97-.7c.23-.86 1.3-1.69 2.18-1.65.9.04 1.62.53 2.05 1.31.87 1.55 1.2 3.9.3 5.51-1.28 2.3-4.17 1.54-5.72-.09-1.2-1.25-.96-3.2.22-4.38m3.3-21.21c.26-.5.66-.95 1.07-1.17a3.1 3.1 0 0 1 2.74-.1c1.73.73 3.24 2.58 3.12 4.53-.16 2.53-3.7 3.54-5.72 2.68-2.43-1.04-3.13-4.2-1.2-5.94m18.7 11.43c.25-1.85 2.98-1.81 4.19-.87 1.32 1.02 2.24 3.04 1.49 4.66-.95 2.06-3.8 2.48-5.4.93-.73-.7-1.4-1.68-1.34-2.73.03-.7.32-1.74 1.06-2m-53.52-29.95c-2.77 3.83-6.5 7.65-8.14 12.16 1.24 1.18 2.24 2.68 2.3 4.28q0 .36-.02.68c1.25.06 2.62.6 3.72.9 2 .55 4.01 1.15 5.93 1.97 3.46 1.48 6.98 3.2 9.65 5.91 1.97 2 7.95 7.83 4.19 10.6l-.18.1c.18 5.29-9 10.83-13.43 8.8-4.1-1.86-7.19-6.74-9.35-10.48-.76-1.3-1.56-2.68-2.32-4.1l.1.43a40 40 0 0 0 4.44 11.53c2.23 3.95 4.88 8.2 5.47 12.78l.1.85.09-.02c10.71.14 21.22 2.91 32 2.8a61 61 0 0 0 17.03-2.37c-.93-.76-1.48-2.28-1.19-3.31a4.5 4.5 0 0 1 2.81-2.83c2.68-1.08 6.26-.5 6.6 2.68a35 35 0 0 0 6.27-4.44c5.13-4.57 7.71-10.55 7.61-16.57l-.18.02c-3.8-1-6.92-8.14-2.12-9.07a23 23 0 0 0-3.62-5.2 36 36 0 0 0-9.05-7.07c-1.66 1.91-4.94 2.95-6.88.87-.97-1.04-1.4-2.98-.41-3.92a48 48 0 0 0-16.57-1.92l-.15-.02c-1.97 1.35-4.1 2.62-6.34 3.1-.69.15-1.14-.68-.54-1.12 4.44-3.27 9.57-6.02 12.69-10.75a21 21 0 0 0 3.1-7.4c-2.63 1.13-5.44-2.43-5.39-4.83.03-1.45.5-2.84 1.59-3.85.6-.56 1.6-1.12 2.55-1.2a17.3 17.3 0 0 0-13.46-9.66c-5.42-.64-10.71.6-16.1.56.31 4.15-2.04 9.65-3.34 12.56a93 93 0 0 1-9.46 16.55" style="fill:#d93b6a;fill-opacity:1;fill-rule:nonzero;stroke:none;stroke-width:0.133333"/><path id="path3375" d="M416.13 1108.52c.54-.26.82-.8.46-1.27-.53-.69-1.93-1.31-2.71-.71-.34.26-.5.69-.53 1.1l-.02.22.26.13c.75.6 1.62.98 2.54.53" style="fill:#7abbc9;fill-opacity:1;fill-rule:nonzero;stroke:none;stroke-width:0.133333"/><path id="path3376" d="M430.96 1076.77c.94-.06 2.6-.42 2.2-1.7-.27-.89-1.06-1.92-2-2.17-1.33-.37-1.2 1.05-2.3 1.53l-.24.03c.14 1.26.88 2.41 2.34 2.31" style="fill:#7abbc9;fill-opacity:1;fill-rule:nonzero;stroke:none;stroke-width:0.133333"/><path id="path3377" d="M459.52 1126.82c-.54.61-1.45.76-2.18 1.07-.76.33-1.61.56-2.34.91-.44.21-.87-.4-.42-.66.8-.48 1.5-1.04 2.38-1.42.73-.31 1.58-.75 2.38-.47.24.08.37.35.18.57m-10.09 5.05c-.54.87-1.82 1.19-2.76 1.4-.68.14-1.03-.89-.34-1.05q.83-.18 1.6-.53c.39-.18.71-.35 1.15-.38.27-.01.51.32.35.56m-4.96 1.62c-.4.69-1.1.88-1.83 1.03-.7.14-1.4.26-2.1.19-.68-.07-.57-.97-.07-1.18.68-.3 1.47-.38 2.2-.54.58-.13 1.09-.2 1.65.04.17.07.24.31.15.46m-6.6 1.88c-.42.38-.93.4-1.46.51-.27.06-.53.15-.8.19-.33.04-.67 0-.98.1-.27.08-.45-.3-.2-.46.3-.19.53-.48.84-.69.27-.18.66-.3.98-.37.56-.1 1.14-.22 1.59.22.12.13.17.36.02.5m-7.51 2.36c-.4.6-1.06.77-1.74.88q-.62.1-1.26.07c-.4-.02-.53-.17-.87-.34-.2-.1-.14-.36.04-.44.3-.12.44-.27.78-.32q.55-.08 1.08-.18c.59-.13 1.19-.32 1.77-.11.16.06.32.25.2.43m-6.52.98c-.5.62-1.47.6-2.21.64-.76.04-1.48.07-2.19-.24-.34-.15-.24-.63.06-.74.75-.27 1.56-.27 2.33-.37.7-.09 1.39-.26 1.99.19.16.12.14.37.02.52m-8.6.78c-.48.68-1.45.62-2.2.6a4 4 0 0 1-2.11-.58c-.14-.08-.19-.31-.02-.4.77-.4 1.45-.44 2.32-.48.7-.02 1.43-.15 1.98.35.16.14.14.34.03.5m-8.62.18c-.72.52-1.74.35-2.58.36q-1.18 0-2.3-.33l-.03-.19a6 6 0 0 1 2.6-.82c.81-.09 1.69-.2 2.36.35.21.17.15.49-.05.63m-7.65-.23c-.51.8-1.53.56-2.35.48a5 5 0 0 1-2.33-.71c-.42-.29-.07-.83.31-.9.79-.12 1.62 0 2.42.04.67.04 1.56-.08 1.92.62.08.14.12.33.03.47m-7.16-.7c-.52.3-1.01.18-1.56.05-.57-.13-1.21-.18-1.66-.59a.44.44 0 0 1 .06-.68c.82-.58 2.78-.13 3.26.77.08.15.06.36-.1.45m-5.38-.68c-.55.18-1.16 0-1.71-.1a4 4 0 0 1-1.52-.47c-.2-.13-.29-.47-.03-.6.97-.5 3.05-.48 3.46.8a.3.3 0 0 1-.2.37m-5.33-.5c-.5.52-1.06.37-1.7.3a6 6 0 0 1-2-.6c-.3-.15-.22-.57.07-.69.98-.4 3.29-.75 3.71.61a.4.4 0 0 1-.08.39m-7.46-.71c-.77.36-1.55-.04-2.3-.28-.62-.2-1.4-.3-1.88-.78-.26-.25-.19-.7.17-.81.76-.23 1.76.07 2.5.3.68.2 1.44.37 1.67 1.12.05.15 0 .37-.16.45m-7.69-3.01c-.17.74-.96.62-1.5.34-.64-.35-1.34-.54-1.95-.93-.27-.18-.42-.67-.05-.84a2.5 2.5 0 0 1 2.1-.04c.56.2 1.57.71 1.4 1.47m-6.85-2.2c-.67.43-1.44.06-2.13-.15a5 5 0 0 1-1.9-.92c-.28-.24-.2-.8.2-.88a4.4 4.4 0 0 1 2.28.16c.67.22 1.58.47 1.74 1.27.04.2 0 .41-.2.53m-6.55-2.47c-.61.63-1.56.35-2.3.07a5.4 5.4 0 0 1-2.3-1.41c-.24-.29.05-.75.39-.75.84-.01 1.56.4 2.34.67.66.23 1.48.3 1.9.91.11.15.1.38-.03.5m-7.27-2.55c-.87.34-1.82-.05-2.69-.27-.96-.23-1.7-.57-2.56-1.03-.22-.1-.12-.4.1-.42a9 9 0 0 1 3.09.1c.85.18 1.73.34 2.27 1.07.15.2 0 .47-.2.55m-8.24-2.76c-.62.2-1.1-.25-1.65-.48-.48-.21-1.31-.68-1.85-.62-.3.04-.32-.44-.01-.48.36-.04.66-.25 1.04-.25.44 0 .8.07 1.21.21.62.2 1.5.57 1.46 1.35q-.01.2-.2.27m-7.6-2.04c-.78-.06-1.28-.7-1.85-1.18-.63-.52-1.36-1.17-2.11-1.5-.22-.08-.14-.46.1-.44.94.07 1.71.16 2.53.7.68.45 1.7 1.09 1.7 2 0 .2-.15.44-.38.42m-7.62-4.1c-.65.21-1.3-.2-1.9-.44-.38-.16-.78-.31-1.13-.53-.26-.16-.47-.38-.77-.46-.28-.07-.18-.52.1-.45.4.1.82-.03 1.21.08q.44.1.86.25c.63.24 1.47.4 1.82 1.03.12.2.04.44-.19.51m-6.32-2.82c-.17.1-.4.15-.58.03l-2.7-1.67c-.33-.2-.3-.87.19-.84 1.19.08 2.3.75 3.16 1.56.14.13.24.35.18.55-.05.17-.1.28-.25.37M465.7 1100c-7.44 10.02-20.22 14.84-32.34 15.63-12.64.81-24.92-1.86-37.45-2.8-.1 1.24-.5 2.38-1.57 2.7l-.32.06-.3.18c-4.3 1.63-9.8 4.2-14.45 3.47-5-.78-8.27-4.2-8.55-9.32q-.03-.99-.04-2a1 1 0 0 1-.37.12c-.91.06-2.08-.66-2.93-.96-.7-.25-1.46-.47-2.14-.79a51 51 0 0 0-3.76 9.7 1.08 1.08 0 0 1-2.14-.1 77 77 0 0 1-.6-11.88c-3.34 3.46-5.94 7.49-8.57 11.54-.57.87-1.75.19-1.89-.61-.76-4.5.35-9.16 2.2-13.52-3.88-.06-8.06-1.53-11.86-2.34q-5.49-1.17-11-2.25c-6.45-1.26-13-2.69-18.82-5.82-.32 3.91.63 8.15 1 12.02q.36 3.98.82 7.96c.15 1.22.6 2.76.5 4.02 5.2 3.46 11.43 5.48 17.21 7.73q9.81 3.8 19.68 7.48a188 188 0 0 0 40.4 9.84c13.29 1.77 26.82 1.66 39.99-1.04a107 107 0 0 0 19.53-5.9c5.11-2.12 10.37-4.4 14.52-8.1l-.07.01c-.62.1-.96-.9-.39-1.19s1.1-.67 1.68-.92c1-5.37 1.47-10.86 2.4-16.28.46-2.73.62-5.5.73-8.28q-.5.84-1.1 1.64" style="fill:#ae2a56;fill-opacity:1;fill-rule:nonzero;stroke:none;stroke-width:0.133333"/><path id="path3378" d="M444.19 1178.27c-.33.87-1.53 1.28-2.37 1.48-.93.23-1.85.35-2.8.18-.9-.15-.74-1.42.1-1.52.81-.1 1.65-.12 2.43-.38.66-.22 1.33-.69 2.03-.69.51 0 .78.47.6.93m-11.37 2.68c-.47.94-1.8 1.2-2.72 1.5-.87.28-1.83.62-2.75.4-.34-.07-.53-.53-.27-.8.74-.75 1.83-1 2.8-1.33.85-.3 1.83-.78 2.72-.42.25.1.33.43.22.65m-10.8 3.47c-.45.8-1.43.72-2.24.86-.46.08-.99.25-1.45.23-.47-.03-.8-.13-1.24-.25-.27-.07-.38-.45-.11-.6a8 8 0 0 1 2.5-.94c.77-.16 1.82-.55 2.43.12.15.15.23.38.11.58m-9.53 2.25c-.38 1.12-1.76 1.3-2.8 1.31-1.01.02-1.99 0-2.76-.73-.13-.14-.1-.32.04-.43.85-.68 1.89-.57 2.91-.7.76-.1 1.63-.37 2.35-.01.18.1.34.35.26.56m-11.5 1.54c-.82.05-1.76.17-2.46-.35-.15-.12-.12-.34-.02-.48.57-.77 1.78-.85 2.66-.9.63-.05 1.99-.13 2.03.81.04 1.02-1.6.87-2.2.92m-7.56.18c-.18.86-1.35.76-2 .72-.74-.05-1.55-.08-2.2-.46-.48-.28-.38-.85.07-1.06.72-.34 4.45-.71 4.13.8m-9.92-.92c-1.11.18-2.06 0-3.2-.07-.87-.05-1.77-.06-2.56-.47-.43-.22-.32-.77.07-.94 1.03-.44 2.28-.36 3.37-.26 1.15.1 1.91.32 2.56 1.3.13.2-.03.4-.24.44m-10.6-1.7c-.53.8-1.47.57-2.33.5-1-.1-2.08-.15-2.97-.68-.47-.29-.31-.93.22-1 .94-.15 1.91.01 2.86.05.75.02 1.78-.13 2.19.64.07.14.12.34.02.49m-8.4-1.35c-.64.93-1.84.64-2.77.39-1.02-.28-2.44-.52-3.18-1.3-.2-.23-.27-.69.06-.85 1.12-.54 2.34-.02 3.47.27.82.21 1.97.3 2.4 1.14zm-9.63-1.36c-.4-.11-1.08-.3-1.55-.63a6 6 0 0 1-2.68-.4c-.8-.27-2.6-.86-2.37-2 .2-.96 2-.27 2.5-.1 1.16.4 2.74.36 3.7 1.17l.04.07.7.17c1.11.24.73 2.03-.34 1.72m-10.64-4.9c-.94.92-2.68.26-3.72-.22-.96-.44-2.27-1.02-2.43-2.2-.02-.13.1-.26.22-.3 1.02-.36 2.12.37 3.07.68.9.3 2.43.5 2.9 1.44.1.19.12.42-.04.6m-10.42-3.48c-1.21.26-2.3-.43-3.22-1.18-.7-.57-1.98-1.29-2.26-2.17-.1-.32.09-.59.37-.71.93-.4 2.02.5 2.76.98.83.54 1.9.95 2.64 1.6.44.4.39 1.33-.29 1.48m-9.19-6.05c-.98.1-1.58-.62-2.28-1.19-.78-.63-1.65-1.1-2.46-1.69-.64-.45-.01-1.24.59-1.2 1.06.08 1.98.68 2.81 1.3.8.6 1.75 1.23 1.76 2.32 0 .25-.18.44-.42.46m125.3-33.61q-9.6 4.04-19.77 6.28a117 117 0 0 1-40.94 1.5c-14.28-1.95-28.74-5.13-42.21-10.32-6.96-2.68-13.94-5.33-20.86-8.12-3.78-1.51-7.72-2.97-11.34-4.94.82 2.78.08 6.06.14 8.87.1 4.68.7 9.28 1.07 13.93.37 4.53.89 9.06 1.17 13.6.13 2.1.26 4.2.26 6.29 0 .26-.1 2.73-.25 3.78q.24.2.35.5l.02.02c3.2 4.2 9 7.34 13.5 9.99a77 77 0 0 0 17.47 7.5c12.4 3.62 25.26 5.47 38.12 6.48 24.06 1.88 47.2-4 68.56-14.84q0-.63.02-1.25c-1.66 1.29-4.34 1.95-6.4 2.1-.84.06-1.03-1.15-.26-1.43 1.9-.69 3.96-1.11 5.69-2.21a.85.85 0 0 1 1 0c.14-6.73.03-13.48.2-20.22.2-6.9.21-14.32 1.94-21.08a75 75 0 0 1-7.48 3.57" style="fill:#ae2a56;fill-opacity:1;fill-rule:nonzero;stroke:none;stroke-width:0.133333"/><path id="path3379" d="M446.69 1117.9a1.6 1.6 0 0 0-1.5-.62q-2.4.36-4.78.77.94-.34 1.87-.7c2.3-.96 1.14-4.47-1.26-3.69q-1.26.4-2.5.77a2.1 2.1 0 0 0-1.87-1.15q-1.77-.05-3.51.12a3 3 0 0 0-2.75-1.94c-2.44-.11-27.79 2.14-27.97 1.56a.26.26 0 0 0-.44-.1l-.73.74c-.28.28-.28.72-.1 1.05q.52.86 1.16 1.41c.06.49.41.85.89.97q.65.17 1.34.28c-.28.93-.05 1.96.67 2.68l-1.33.29c-2.18.52-2.24 2.94-1.08 4.34-1.78 1.24-1.21 4 .9 4.73-.28.85.07 1.86 1.24 2.17q1.77.45 3.6.8-.24.32-.32.72c-1.15.67-2.26 1.5-3.32 2.63-1.25 1.32-.72 3.83.98 4.52 5.96 2.42 13.67-.61 19.77-1.31 3.64-.42 13.88-4.2 16-3.4 3.68 1.4 6.34-4 2.93-5.59.56-.68.47-1.7-.05-2.37 1.02-1.15.5-3.14-1.4-3.1a55 55 0 0 0-3.25.17l1.38-.7q3.11-1.16 6.06-2.97c1.5-.92.7-2.74-.63-3.08" style="fill:#d93b6a;fill-opacity:1;fill-rule:nonzero;stroke:none;stroke-width:0.133333"/><path id="path3380" d="M432.98 1176.48a3.5 3.5 0 0 0-.54-1.44q.46-.44.87-.95c1.1-1.33.8-2.88-.2-3.85.4-.22.8-.4 1.2-.64 2.48-1.5 1.4-4.58-.74-5.55 1.52-1.57 1.46-4.77-1.26-5.08a26 26 0 0 0-2.45-.15 29 29 0 0 0 3.18-1.83c1.58-1.06 1.3-3.36-.06-4.28a69 69 0 0 0 3.7-1.93c1.81-1.02 1.13-4.06-.87-4.35q-1.2-.17-2.39-.26c1.22-1.23 1-3.7-1.13-4.05-4.45-.74-8.9-.57-13.36-.43a60 60 0 0 0-5.94.08c-2.34.16-2.77 4-.3 4.2q1.04.09 2.09.11-3.55 1.38-7 3.04c-2.39 1.14-2.14 5.6 1 5.02 5.2-.96 10.34-2.22 15.55-2.85-4.56 1.77-9.23 3.27-13.8 4.99-2.01.75-2.05 3.6-.54 4.54q-.9.4-1.78.86c-2.54 1.33-.72 4.86 1.66 4.85q.6 0 1.23-.04c-1.03 1.4-.6 3.58.82 4.6-1.24 1.5-1 3.72.61 4.68l-.88.15-.06.01v.01l-.79.16c-3.46.75-2.18 6.04 1.09 6a3.3 3.3 0 0 0 2.22 2.06c-1.47 1.82.3 5.12 3.18 4.45l.19-.04a3 3 0 0 0 2.17.26q5.29-1.27 10.5-2.86.75-.25 1.19-.68l2.86-.9c1.88-.6 2.28-2.34 1.74-3.75.7-1.79-.83-4.11-2.96-4.15" style="fill:#d93b6a;fill-opacity:1;fill-rule:nonzero;stroke:none;stroke-width:0.133333"/><path id="path3381" d="M379.64 1184.9c-4.01-2.03-8.54-2.07-12.93-2.85a193 193 0 0 1-15.17-3.55c-4.53-1.2-9.08-2.36-13.56-3.73-4.32-1.32-8.32-3.6-12.73-4.54-.34-.07-.64.31-.44.61 4.72 7.07 15.66 9.08 23.34 11.3 8.9 2.55 22.14 7.82 31.3 4.9.96-.31 1.1-1.68.19-2.14" style="fill:#d93b6a;fill-opacity:1;fill-rule:nonzero;stroke:none;stroke-width:0.133333"/><path id="path3382" d="M383.65 1136.55c-10.55-5-22.2-8.84-33.14-13.03-9.06-3.48-19.52-4-28.03-8.81-.44-.25-1.04.33-.7.76 5.75 7.3 14.68 8.75 23.17 11.21 12.47 3.6 24.75 13.08 38.16 12.36 1.3-.07 1.76-1.9.54-2.49" style="fill:#d93b6a;fill-opacity:1;fill-rule:nonzero;stroke:none;stroke-width:0.133333"/><path id="path3383" d="M334.27 1100.3c-5.37-2.5-11.16-3.35-17.09-3.06-.56.03-.84.9-.26 1.13 5.5 2.25 11.14 3.78 17.06 3.18.63-.06.94-.96.3-1.26" style="fill:#d93b6a;fill-opacity:1;fill-rule:nonzero;stroke:none;stroke-width:0.133333"/><path id="path3384" d="M379.25 1061c-1.45-1.72-3.2-3-5.06-4.28-2.14-1.49-3.79-3.53-5.87-5.01-.67-.48-1.77-.34-1.93.62-.92 5.58 6.57 8.13 9.43 11.7.5.61 1.09.89 1.67.94.44.14.94.01 1.3-.3 1.24-.7 1.9-2.4.46-3.68" style="fill:#4c7790;fill-opacity:1;fill-rule:nonzero;stroke:none;stroke-width:0.133333"/><path id="path3385" d="M384.44 1060.37c.21-5.3.76-10.54.98-15.84.02-.4-.48-.5-.71-.27-4.98 4.8-3.95 13.9-3.98 20.2q.01.63.37 1.03-.15-.07-.32-.1c-2.04-.28-4.33.9-5.75 2.3q-.35.35-.6.74c-.38 0-.76.15-1.03.54-1.08 1.56-.34 3.67 1 4.93q.29 1.44 1.45 2.6a9 9 0 0 1-3.37-.49q-.24-.07-.45.08l.25-.32c1.42.06 1.82-1.66 1.29-2.65-.62-1.16-.92-2.08-.63-3.38.3-2.26-3-2.94-3.48-.68-.1.63-.24 1.22-.3 1.84q-.04.67.26 1.14c-3.38-.72-6.56-2.45-10.07-2.5-.54 0-.6.7-.21.95 2.16 1.4 4.5 2.78 6.96 3.78q-.29.25-.44.6c-2.63.2-4.55.33-6.77 1.82-.25.17-.16.67.19.62 1.52-.23 5.08.3 8.17.21 1 .35 2.16.01 3.16-.45q.94-.29 1.51-.85a.34.34 0 0 0 0 .4c.18.23.37.4.56.6q-.8.39-1.52.88c-2.29 1.3-4.65 4.05-5.36 5.08-.63.9-.29 1.9.38 2.41q-.47.67-.92 1.35l-.21.29-.26.4c-1.08 1.7 1.82 3.59 2.99 1.93 1.37-1.92 2.64-3.9 4.02-5.83h.04l.17-.04q-.21.6-.47 1.17c-1.21 1.93-2.36 3.92-3.52 5.82q-.5.76-.93 1.5c-1.1 1.74 1.8 3.14 2.88 1.4.96-1.52 2.59-3.74 3.9-6.13a37 37 0 0 0 3.3-5.88c-.17 2.29.06 4.71 0 6.75.08 1.81 2.98 1.9 3.04-.18.04-1.4 0-2.82 0-4.22.97.34 2.27-.2 2.11-1.48-.2-1.62-.34-3.37-.98-4.89-.14-.32-.4-.63-.75-.73-.34-.42-.95-.57-1.54-.33.54-.7.65-1.7-.24-2.43-2.35-1.91.79-5.13 2.9-5.54 1.22-.22 1.24-2.02.3-2.57q.44.23.93.13c.44-.04.86-.22 1.17-.57l.47-.57c1.05-.62 1.2-1.16 1.42-2.51.17-1.03-.53-1.8-1.36-2.06" style="fill:#4c7790;fill-opacity:1;fill-rule:nonzero;stroke:none;stroke-width:0.133333"/><path id="path3386" d="m387.97 1075.11-.02-.25-.02-.24-.02.04a2 2 0 0 0-.42-.7c-.94-.98-2.1-.18-2.94.43l-1.35.92-.19.11c-.15.1-.06.05.04 0-.74.37-1.23 1.09-.95 1.96.26.77 1.2 1.33 2 1 .72-.14 1.46-.7 2.07-1.08l.95-.6c.63-.39.87-.95.85-1.6" style="fill:#4c7790;fill-opacity:1;fill-rule:nonzero;stroke:none;stroke-width:0.133333"/><path id="path3387" d="M339.6 1095.98c-.28-.73-.84-1.05-1.3-1.64-.27-.35-.99-.12-.78.36.25.57.17 1.24.33 1.83.3 1.15 2.17.55 1.75-.55" style="fill:#4c7790;fill-opacity:1;fill-rule:nonzero;stroke:none;stroke-width:0.133333"/><path id="path3388" d="M331.89 1081.44q-.06-.3-.25-.56c-.7-.95-1.96-.6-2.31.45l-.02.04c-.28.85.75 1.76 1.56 1.46.7-.06 1.21-.63 1.02-1.39" style="fill:#4c7790;fill-opacity:1;fill-rule:nonzero;stroke:none;stroke-width:0.133333"/><path id="path3389" d="M355.98 1083.68a1 1 0 0 0-.34-.45c-.2-.27-.36-.6-.4-.9s-.44-.4-.6-.16c-.14-.1-.31-.04-.45.02-.53.25-.91.71-1.39 1.05s-.72.95-.53 1.53c.24.73.9.96 1.59.87q.26.23.66.33c1.35.27 2.16-1.27 1.46-2.29" style="fill:#4c7790;fill-opacity:1;fill-rule:nonzero;stroke:none;stroke-width:0.133333"/><path id="path3390" d="M363.08 1051.9c-.41-.62-.94-1.2-1.67-1.4-.2-.05-.48.07-.57.27-.3.73-.1 1.42.12 2.13.27.85.7 1.92 1.48 2.38.8.49 1.94-.3 1.83-1.2-.09-.83-.74-1.52-1.2-2.19" style="fill:#4c7790;fill-opacity:1;fill-rule:nonzero;stroke:none;stroke-width:0.133333"/><path id="path3391" d="M436.86 1039.22c-.33-.07-.75-.72-1.3-.82-.35-.07-.75.07-1 .34l-.04.03-.06.05a1.63 1.63 0 0 0-.92 3.08c.83.49 2.18.57 3.11.41.7-.11 1.3-.5 1.44-1.25.17-.84-.4-1.67-1.23-1.84" style="fill:#4c7790;fill-opacity:1;fill-rule:nonzero;stroke:none;stroke-width:0.133333"/><path id="path3392" d="M386.6 1108.12a4 4 0 0 0-1.15-2.13 1.5 1.5 0 0 0-1.66-.27q-.21-.55-.38-1.17c-.39-1.46-2.91-1.4-3.03.19-.1 1.4-.15 2.78-.39 4.12-.55-1.41-.86-2.98-1.37-4.32-.61-1.6-2.72-1.35-3.17.2q-.33 1.24-.57 2.5l-.23-1.43c-.14-.8-1.4-.83-1.68-.14-1.14 2.68-.55 5.57.84 8.05.58 1.04 2.23.83 2.7-.19q.56-1.24.87-2.53a9 9 0 0 0 1.97 2.89c.83.8 2.08.33 2.6-.54q.8-1.41 1.13-2.91c.57.3 1.24.25 1.73-.13 1 0 2.12-.9 1.78-2.2" style="fill:#9cd3d6;fill-opacity:1;fill-rule:nonzero;stroke:none;stroke-width:0.133333"/><path id="path3393" d="M402.74 1091.5c-.58-1.12-1.74-2.1-2.48-3.14-1.12-1.56-3.88-.34-3.11 1.54.15.37.28.7.32 1.1l-.2-.12q-.43-.46-.9-.9c-1.41-1.28-3.77.74-2.54 2.25l.26.28a10 10 0 0 0 2.73 3.58c1.24 1.02 3.07-.2 2.59-1.74l-.1-.27q.34-.18.6-.43l.21.19c1.66 1.31 3.5-.61 2.62-2.34" style="fill:#9cd3d6;fill-opacity:1;fill-rule:nonzero;stroke:none;stroke-width:0.133333"/><path id="path3394" d="m395.25 1027.51.31-.78c.55-1.66-1.01-3.32-2.67-2.3-1.11.7-2.2 1.45-3.32 2.15.07-.13.08-.28-.06-.4-.55-.46-1.05-1.49-1.92-1.34l-.17.05a1.4 1.4 0 0 0-1.45.23 6.8 6.8 0 0 0-2.56 5.65l.02.15q-.18.75-.3 1.48c-.32 1.71 1.86 2.76 3.01 1.45q.9-1.01 1.55-2.25a25 25 0 0 0 2.46-1.21l-.14.44c-.4 1.71 1.55 2.62 2.87 1.89a6.5 6.5 0 0 0 2.85-2.95c.37-.74.11-1.7-.48-2.26" style="fill:#9cd3d6;fill-opacity:1;fill-rule:nonzero;stroke:none;stroke-width:0.133333"/><path id="path3395" d="m369.27 1032.67.02-.12c.32-1.63-1.7-2.68-2.85-1.91a6 6 0 0 0-.58-1.5c-.46-.8-1.9-.95-2.45-.15-.66.97-1.13 2-1.5 3.07a1.6 1.6 0 0 0-1.65.98 12 12 0 0 0-.63 8.27c.25.92 1.4 1.47 2.28 1.13 2.17-.85 3.8-2.7 5.04-4.78.57.02 1.16-.16 1.55-.58q.9-.94 1.55-2.07c.6-.92.04-1.88-.78-2.34" style="fill:#9cd3d6;fill-opacity:1;fill-rule:nonzero;stroke:none;stroke-width:0.133333"/><path id="path3396" d="M361.01 1068.13c-.26-1.46-1.25-2.51-2.27-3.54a12 12 0 0 0-3.07-2.34c-.66-.34-1.36.3-1.17.98a10 10 0 0 0 1.71 3.17c.7.97 1.38 2.22 2.36 2.93.9.65 2.7.2 2.44-1.2" style="fill:#9cd3d6;fill-opacity:1;fill-rule:nonzero;stroke:none;stroke-width:0.133333"/><path id="path3397" d="M360.07 1094.6c.1-.2.05-.5-.16-.62h.04c-.14-.28-.5-.4-.8-.4-.96-.03-1.84.7-2.55 1.37-1.23.67-2.38 2.3-3.04 3.18-1.5 1.65 1.05 3.76 2.6 2.23.67-.65 1.27-1.36 1.9-2.03.7-.73 1.22-1.22 1.2-2.29l-.02-.07.27-.37c.22-.3.5-.63.56-1" style="fill:#9cd3d6;fill-opacity:1;fill-rule:nonzero;stroke:none;stroke-width:0.133333"/><path id="path3398" d="M385.05 1067.7c.32.14.57-.35.25-.48q-.76-.3-1.56-.46l-.13-.01-.15-.13-.04-.03-.08-.05-.07-.02c-.83-.44-2.04-.18-2.48.75a5.2 5.2 0 0 0-.28 4.12c.18.57.78 1.17 1.4 1.22l.46.03c1.03.06 1.91-.4 2.16-1.47-.12.51-.05.19.04.02l.23-.4q.43-.8.16-1.7l-.03.03a2 2 0 0 0-.66-.87l-.23-.78-.05-.1a4 4 0 0 1 1.06.33" style="fill:#9cd3d6;fill-opacity:1;fill-rule:nonzero;stroke:none;stroke-width:0.133333"/><path id="path3399" d="m428.72 1125.42-.6.14c.99-.77 1.92-1.6 2.73-2.6.86-1.07.4-3.08-1.14-3.22l-.2-.02c.52-.94.4-2.23-.83-2.65l-.32-.1a1.5 1.5 0 0 0-.03-.87c-.41-1.3-1.77-1.7-2.96-2a9 9 0 0 0-3.1-.11 1.1 1.1 0 0 0-1.04 1.25q-1.1-.1-2.21 0a1.2 1.2 0 0 0-.9.12c-.72.24-.98.8-.95 1.38-.1.6.13 1.22.87 1.5q.34.24.76.2l.79.17-.81.29c-1.83.74-1.73 3.43.28 3.85 1.8.37 3.6.51 5.4.6-1.7 1.16-3.52 2.16-5.1 3.47-1.4 1.14-.99 3.14.76 3.62q.54.15 1.07.21a24 24 0 0 0-1.82 1.6c-1.16 1.13-.3 2.7.94 3.22l-.78.47c-1.75 1.01-.93 3.14.55 3.8.39.97 1.41 1.7 2.78 1.35a4 4 0 0 0 1.6-.73l2.64-1.2a2.24 2.24 0 0 0 .73-3.7q.9-.75 1.77-1.58c1.37-1.32.16-3.06-1.33-3.41q.9-.64 1.74-1.35c1.34-1.14.92-4.13-1.3-3.7" style="fill:#ed6a7f;fill-opacity:1;fill-rule:nonzero;stroke:none;stroke-width:0.133333"/><path id="path3400" d="M424.4 1180.37c1.45-2.5 4.11-5.24 1.67-7.84-.87-.92-1.77-1.65-2.99-1.85q.5-.57 1.03-1.1c.82-.84 1.67-1.62 2.43-2.5 1.3-1.53-.04-3.48-1.81-3.53q-1.35 0-2.71-.1c1-1.23 1.97-2.47 2.8-3.88.58-.98-.03-2.42-1.03-2.84q-3.24-.45-.37-2.12c1.1-.8 1.07-2.62.19-3.47a6 6 0 0 0 1.83-3.18 2.1 2.1 0 0 0-.72-2 6 6 0 0 0-1.63-.9c.31-1.34-.84-3.05-2.56-2.48-1.03.34-1.55.55-2.18.9q-.5.17-1.02.32c-1.14.35-1.38 1.38-1.06 2.22-.01.8.35 1.58 1.17 1.85 1.28.42 2.54.68 3.85.95-1.91-.4-3.64 1.41-5.17 2.76-1.59 1.4-.86 3.8 1.32 3.87q-.44 2.19 2.35 4c-1.11 1.48-2.39 2.83-3.46 4.34-.9 1.25-.45 3.21 1.25 3.48q1.1.17 2.17.27c-1.7 1.69-3.04 3.62-1.84 5.47.97 1.48 1.82 2.2 3.7 2.2-.23 0-2.26 5.14-2.47 5.9-.24.88.21 1.7.89 2.2-.45 2.58 3.4 4.22 4.34 1.53.42-1.21.53-1.94.52-3.23 0-.48-.2-.9-.48-1.24" style="fill:#ed6a7f;fill-opacity:1;fill-rule:nonzero;stroke:none;stroke-width:0.133333"/><path id="path3401" d="M457.82 1132.5c.24-.5.22-.94-.23-1.21-.73-.44-1.7.25-2.37.5q-.36.14-.73.26h-.05c-3.3.67-6.23 2.91-9.58 3.84-3.98 1.1-8 1.8-11.83 3.4-2.35.18-2 4.9.97 3.88 4.8-1.64 13.12-1.9 18.45-4.84q.75-.21 1.36-.5c1.81-.78 3.56-2.26 4.08-4.24q.15-.65-.07-1.1" style="fill:#812a48;fill-opacity:1;fill-rule:nonzero;stroke:none;stroke-width:0.133333"/><path id="path3402" d="M467.15 1099.48q.16-.45.31-.94c.41-1.46-1.66-1.97-2.35-.82-2.1 3.48-4.52 6-8.04 8.06-1.72 1.01-.65 3.83 1.27 3.63q.36-.05.7-.13a15 15 0 0 1-2.9 3.23c-1.37 1.1-.84 3.78 1.2 3.5l.24-.04-.38.4c-1.03 1.2-.22 2.77 1.12 3.16q.45.13.9.22l-1.06 1.06c-.8.79-.52 2 .22 2.7q-1.12.82-2.4 1.65c-2.17 1.43.08 4.67 2.29 3.32a9 9 0 0 0 1.36-.97 28 28 0 0 0 3.14-2.63c.78 0 1.54-.41 1.73-1.38.25-1.25.4-3 .1-4.5q.16-.61 0-1.18c1.04-5.1 1.13-10.4 2.67-15.38q.24-.62.39-1.26a1.8 1.8 0 0 0-.5-1.7" style="fill:#812a48;fill-opacity:1;fill-rule:nonzero;stroke:none;stroke-width:0.133333"/><path id="path3403" d="M312.98 1101.54c-.38-2.68-.6-9.44-3.75-10.53-.47-.16-1.07.2-1.27.62-1.18 2.5.42 7.59.69 10.24.41 4.1.55 8.23.88 12.34.2 2.58 4.49 2.93 4.64.22.23-4.26-.6-8.7-1.2-12.9" style="fill:#812a48;fill-opacity:1;fill-rule:nonzero;stroke:none;stroke-width:0.133333"/><path id="path3404" d="M407.05 1142.1c-2.2 1.07-5.95 1.07-9.6.82a1.2 1.2 0 0 0-.8-1.1c-6.13-2.26-13.12-2.77-19.56-3.88-7.97-1.39-15.8-3.5-23.66-5.38a321 321 0 0 1-21.87-6.05c-4.37-1.38-8.13-4.46-12.44-5.75q-1.07-.72-2.23-1.39c-1.79-1.02-3.67 1.23-3.11 2.82q.13.52.66.91 2.76 1.93 5.41 4c.75.6 1.55.65 2.22.38 13.23 6.96 27.88 11.36 42.14 15.62a100 100 0 0 0 25.3 4.18c5.75.17 13.9 1.02 18.96-2.28 1.5-.98.25-3.7-1.42-2.9" style="fill:#812a48;fill-opacity:1;fill-rule:nonzero;stroke:none;stroke-width:0.133333"/><path id="path3405" d="M400.62 1112.87c-.32-1.23-1.83-1.78-2.94-1.4-2.35.79-3.94 2.56-5.85 4.07-1.95 1.53-4.48.92-6.42 2.48a25 25 0 0 0-4.98.62l-.31-.13c-.77-.35-1.4-.97-2.24-1.15-.8-.18-1.4.47-1.42 1.21-.05 1.1.8 2.03 1.62 2.62a5 5 0 0 0 2.67 1.07c3.58 1.25 9.24.43 11.94 0 5.17-.83 9.37-3.71 7.93-9.4" style="fill:#812a48;fill-opacity:1;fill-rule:nonzero;stroke:none;stroke-width:0.133333"/><path id="path3406" d="M368.24 1106.58c.14.04-.63-.23-.9-.31l-.22-.07c-.97-.84-2.98-.67-3.45 1.01q-.13.44-.23.88c-.13.6.03 1.1.33 1.46l-1.1 1.27c-.74.88-3.6 3.58-2.24 4.82 1.27 1.17 3.31-1.05 4.12-1.87 1.12-1.14 2.7-3.15 3.93-3.67 1.74-.74 1.54-3.01-.24-3.52" style="fill:#812a48;fill-opacity:1;fill-rule:nonzero;stroke:none;stroke-width:0.133333"/><path id="path3407" d="M357.12 1103.5c-1.41 1.5-2.33 3.4-3.3 5.19q-.78 1.43-1.72 2.75c-.61.85-1.5 1.25-2.16 2.01s-.2 1.79.68 2.05c2.3.68 4.46-1.91 5.56-3.56 1.2-1.78 2.1-3.84 3.45-5.52l.1-.1.27-.37c1.4-1.97-1.18-4.23-2.88-2.45" style="fill:#812a48;fill-opacity:1;fill-rule:nonzero;stroke:none;stroke-width:0.133333"/><path id="path3408" d="M347.65 1182.77c-3.95-3.67-9.95-4.77-14.76-7-6.16-2.87-9.68-7.08-14.24-11.8-1-1.03-2.5.24-2.18 1.44 1.68 6.16 8 10.24 13.29 13.1 4.97 2.68 11.76 5.9 17.55 5.18.45-.05.7-.58.34-.92" style="fill:#812a48;fill-opacity:1;fill-rule:nonzero;stroke:none;stroke-width:0.133333"/><path id="path3409" d="M411.57 1185.87c-10.54.48-22.07.08-32.44 2-.37.08-.32.56-.07.72 3.75 2.46 8.68 2.26 13.13 2.04 1.66 1 3.72.98 5.64 1.09 2.63.15 5.75.15 8.06-1.26l.04-.04c2.11-.17 4.2-.5 6.29-1.23 1.84-.65 1.28-3.4-.65-3.32" style="fill:#812a48;fill-opacity:1;fill-rule:nonzero;stroke:none;stroke-width:0.133333"/><path id="path3410" d="M452.8 1172.97q-.78.2-1.53.56c-2.2.77-4.72 1.61-5.94 3.45l-.06.14c-.5.36-1 .74-1.4 1.17-1.42 1.5.39 3.54 2.11 3.09 1.48-.38 2.8-1.56 4.05-2.4 1.45-.97 2.95-1.76 4.49-2.58 1.94-1.04.28-4.24-1.72-3.43" style="fill:#812a48;fill-opacity:1;fill-rule:nonzero;stroke:none;stroke-width:0.133333"/><path id="path3411" d="M466.08 1106.66c-.92 5.42-1.39 10.9-2.4 16.28-.57.25-1.11.64-1.67.92-.57.29-.23 1.29.4 1.2l.06-.02c-4.15 3.7-9.4 5.98-14.52 8.1a107 107 0 0 1-19.53 5.9c-13.17 2.7-26.7 2.81-40 1.04a188 188 0 0 1-40.39-9.84q-9.86-3.67-19.68-7.48c-5.78-2.25-12-4.27-17.21-7.73.1-1.26-.35-2.8-.5-4.02-.33-2.65-.57-5.3-.82-7.96-.37-3.87-1.32-8.1-1-12.02 5.82 3.13 12.37 4.56 18.82 5.82q5.51 1.08 11 2.25c3.8.8 7.98 2.28 11.86 2.34-1.85 4.36-2.96 9.02-2.2 13.52.14.8 1.32 1.48 1.9.6 2.62-4.04 5.22-8.07 8.57-11.52-.08 3.96.05 7.91.6 11.86a1.08 1.08 0 0 0 2.13.12c.89-3.4 2.22-6.6 3.76-9.7.68.32 1.44.53 2.14.78.85.3 2.02 1.02 2.93.96a1 1 0 0 0 .37-.11q0 1 .04 2c.28 5.1 3.55 8.53 8.55 9.3 4.66.74 10.15-1.83 14.45-3.46l.3-.18.32-.06c1.08-.32 1.47-1.46 1.57-2.7 12.53.94 24.8 3.61 37.45 2.8 12.12-.79 24.9-5.61 32.34-15.63q.6-.8 1.1-1.64a64 64 0 0 1-.74 8.28m-10.6 45.87c-.18 6.74-.07 13.49-.2 20.23a.85.85 0 0 0-1.01-.01c-1.73 1.1-3.79 1.52-5.7 2.21-.76.28-.57 1.5.28 1.43 2.05-.15 4.73-.81 6.39-2.1l-.02 1.25c-21.36 10.84-44.5 16.72-68.56 14.84-12.86-1.01-25.72-2.86-38.12-6.48a77 77 0 0 1-17.47-7.5c-4.5-2.65-10.3-5.8-13.5-10l-.02-.01a1 1 0 0 0-.35-.5c.16-1.05.25-3.52.25-3.78 0-2.1-.13-4.2-.26-6.3-.28-4.53-.8-9.06-1.17-13.6-.37-4.64-.97-9.24-1.07-13.92-.06-2.81.68-6.09-.14-8.87 3.62 1.97 7.56 3.43 11.34 4.94 6.92 2.79 13.9 5.44 20.86 8.12 13.47 5.19 27.93 8.37 42.21 10.32a117 117 0 0 0 40.94-1.5q10.17-2.25 19.77-6.28a75 75 0 0 0 7.48-3.57c-1.73 6.76-1.75 14.18-1.93 21.08M339.78 1097l-5.02-1.06c.57-1 1.36-1.87 2.66-1.7 1.4.19 2.01 1.5 2.36 2.76m-24.17-11.04q.28-.22.3-.48 2.82-1.94 5.62-3.94c2.2-1.58 4.28-3.36 6.39-5.07 4.08-3.3 8.21-6.82 12.91-9.18.5-.25.46-1.02.08-1.35l-.24-.14.13-.09c2.57 3.3 5.85 6.1 9.33 8.37 3.5 2.3 7.38 4 11.5 4.83a20 20 0 0 0 5.39.3c-4.84 3.26-8.78 8.7-11.6 13.15a67 67 0 0 0-4.42 7.96l-.23-.2c-2.76-1.48-6.08-2.05-9.12-2.71-.3-2.15-1.63-4.38-3.93-4.72-1.98-.29-3.64 1.21-4.28 2.98q-1.63-.34-3.26-.65c-6.65-1.27-13.45-2.56-19.54-5.6 1.69-1.1 3.32-2.3 4.97-3.46m23.99-25.76c3.82 4.63 8.95 8.12 15.13 8.44.7.04 1.19-.99.73-1.52a41 41 0 0 1-7.2-11.84 32 32 0 0 0 6.6 5.9c5.25 3.61 11.9 4.3 17.1 7.77a5 5 0 0 0-.57 2.1v.1q-.73-.25-1.4-.5c-1.2-.52-2.3-1.01-3.64-.88-.2.02-.37.3-.16.45.99.72 2.06 1.23 3.14 1.8.73.38 1.62.94 2.5 1.17q.52 1.05 1.42 1.85c-1.67-.36-3.72-1.75-4.9-2.32-1.46-.7-3.75-2.21-5.47-1.75-.38.1-.55.71-.2.96 1.86 1.3 4.3 2.21 6.34 3.23.7.35 1.54.83 2.44 1.22-3.1.66-6.2.97-9.47.54-4.1-.55-8.02-2.64-11.44-4.88a34 34 0 0 1-8.48-7.85.8.8 0 0 0-.37-.48q-1.2-1.68-2.1-3.5m7.23.94 1.4-1.12.06-.05a43 43 0 0 0 4.11 6.43 18 18 0 0 1-7.6-3.73c.74-.37 1.42-1.03 2.03-1.53m5.35-4.52c1.98-.25 3.7-1.93 5.17-3.15l.13-.1c.33 3.37 5.63 5.5 7.66 2.59a55 55 0 0 0 9.63 9.86l-.33.24q-.92.68-1.66 1.62c-3.82-3.04-9.16-3.92-13.44-6.09a32 32 0 0 1-7.23-4.97zm7.78-5.4c.43-.38.98-.76 1.44-1.17q1.12 2.17 2.53 4.23l-.15.24c-.48 1.14-1.74 1.09-2.76.73a3.6 3.6 0 0 1-2.35-2.67l-.08-.18zm2.66-20.63c1.88-2.8 4.58-4.16 7.56-5-1.82 3.6-1.16 10.13-.74 12.8.73 4.72 2.43 9.28 4.48 13.57 1.94 4.05 4.38 7.8 5.8 12.05l-.08.02c-.81-2.04-1.97-4.34-3.88-5.4-.19-.1-.45.1-.36.3.72 1.82 1.6 3.59 2.4 5.39l-.44.11c-.34-1.65-1.92-3.11-2.97-4.37-1.4-1.67-2.82-3.34-4.17-5.05-.16-.2-.56-.07-.44.2.8 1.85 1.75 3.55 2.86 5.24q.45.7.96 1.55c-5.52-4.99-10.13-11.34-12.43-18.37-1.44-4.42-1.18-9.14 1.45-13.04m8.44-1.47c.3-2.06 2.36-6.32 5.06-2.98 1.81 2.23 2.47 6.73 2.94 9.39.33 1.84.5 3.7.6 5.58l-.14 3.16c-.18 4.39-.53 9.4.01 14.06-1.73-3.76-4.09-7.37-5.59-11.05a43 43 0 0 1-3.03-12.64c-.16-1.83-.11-3.7.15-5.52m11.67 3.72c.96-4.98 3.03-8.82 7.85-10.88 3.36-1.43 6.75-1.28 10.07-.4q-.65.42-1.08.82c-3.09 2.97-4.71 7.24-6.18 11.17-1.7 4.57-3.21 9.23-4.74 13.86-1.64 4.96-3.69 10.33-4.44 15.64a18 18 0 0 0-.75 1.6q-.18-.13-.38-.24l-.15-.07.07-.3c.32-.08.6-.32.6-.75 0-7.05-.68-13.9 2.27-20.53.14-.31-.25-.59-.5-.34-1.6 1.63-2.53 3.8-3.07 6.2q-.14-1.65-.22-3.32-.11-2.55-.3-5.06c.2-2.48.48-4.95.95-7.4m21.15-8.44c.4 6.42-3.45 13.45-6.34 18.82a98 98 0 0 1-8.23 12.54q-1.22 1.58-2.47 3.24c.62-2.12 1.19-4.26 1.85-6.33 1.56-4.84 3.25-9.63 4.89-14.45a77 77 0 0 1 3.9-9.73c.7-1.39 6.09-9.15 6.4-4.1m-19.39 70.78a76 76 0 0 1-1.25-10.78q-.02-1.21-.07-2.5c.34 1.34.57 2.73.83 3.9.61 2.75 1.22 5.34 2.46 7.9 1.63 3.37 3.69 6.52 5.33 9.9a25 25 0 0 1 2.03 6.02c.22 1.08.68 5.1-1.46 3.57-5.43-3.9-6.81-11.97-7.87-18.01m-10.54-3.4c.72-5.04 2.3-9.54 3.92-14.31 1.03.21 2.1.26 3.12.12.76 3.79.23 7.72.73 11.55.72 5.45 1.56 10.85 3.25 16.09.7 2.15 2.8 6.91 5.5 9.2-1.9.64-3.9 1.62-5.34 2.07-3.9 1.22-8.4 1.22-11.07-2.35-1.45-1.94-1.36-4.8-1.34-7.1.06-5.1.5-10.23 1.23-15.27m11.34-19.61c-.89 4.53-7.47 3.75-10.22 1.85-2.38-1.66-1.9-3.97-.4-5.77.92-.19 1.8-.64 2.72-.92q.78-.23 1.57-.39.23.04.45-.09 1.1-.22 2.2-.49l.03.04c.1.12.3.11.34-.06v-.09c.47.25.9.6 1.27.91 1.58 1.32 2.45 2.95 2.04 5.01m2.04.83c2.81.03 6.59 1.83 8.96 2.78 2.93 1.16 5.97 2.69 8.32 4.8a29 29 0 0 1 3.86 4.3q.86 1.14 1.42 2.44c.82 1.93-1.63 1.58-2.7 1.42-4.62-.7-8.96-4.29-12.39-7.2-2.75-2.33-5.65-5.24-7.47-8.54m8.95 12.3c2.3 1.8 7.81 5.88 11.96 5.93-.94 1.8-1.85 3.35-3.86 4.78-3.4 2.43-6.35 1.79-9.2-.97-2.7-2.62-4.78-5.93-6.66-9.16-1.7-2.94-2.94-6.3-4.77-9.15a7 7 0 0 0 2.82-2.53c1.78 4.5 6.22 8.35 9.71 11.1m-31.04 16.46a76 76 0 0 0-4.19 8.81 95 95 0 0 1-.07-9.2c.03-.76-1.1-1.32-1.69-.8-3.62 3.26-6.4 7.08-9.07 11.08.14-6.23 3.5-12.53 6.63-17.63 3.76-6.13 8.94-12.43 15.53-15.66l.12-.03c-.87.55-1.67 1.24-2.42 1.9-1.75 1.51-4.02 3.66-4.94 5.81-.12.28.18.61.46.42 1.61-1.05 2.78-2.91 4.1-4.3a25 25 0 0 1 5.72-4.36l.1-.25.4-.1a1 1 0 0 0 .54-.4l.13.07q-.44.6-.83 1.29c-3.79 3.76-7.65 9.15-8 14.4-.03.34.49.52.69.25 1.6-2.12 2.28-4.95 3.43-7.33a36 36 0 0 1 2.54-4.49c-.77 1.98-1.3 4.1-1.72 6.21a1 1 0 0 0-.4.35c-2.57 4.49-4.57 9.4-7.06 13.96m5.42 4.38c-.74-.51-1.86-.7-2.64-.94-.61-.18-1.29-.39-1.96-.48q.8-1.53 1.62-3.05c1.23-2.25 2.68-4.61 3.88-7.05-.5 3.78-.87 7.69-.9 11.52m80.63 2.12q-2.4 1.17-4.93 2.03c-.4-.8-1.3-1.4-1.12-2.43.14-.87 1.1-1.44 1.84-1.75 1.54-.64 4.3-.51 4.16 1.73q-.01.24.05.42m-45.11-83.45c5.39.03 10.68-1.2 16.1-.55 5.9.7 10.9 4.43 13.46 9.65-.94.09-1.94.64-2.55 1.2a5.3 5.3 0 0 0-1.59 3.85c-.05 2.4 2.76 5.96 5.4 4.84a21 21 0 0 1-3.11 7.4c-3.12 4.72-8.25 7.47-12.7 10.74-.59.44-.14 1.27.55 1.13 2.25-.49 4.37-1.76 6.34-3.11l.15.02c5.65-.3 11.3.3 16.57 1.92-1 .94-.56 2.88.4 3.92 1.95 2.08 5.23 1.04 6.89-.87a36 36 0 0 1 9.05 7.07q2.25 2.46 3.62 5.2c-4.8.93-1.68 8.08 2.12 9.07l.18-.02c.1 6.02-2.48 12-7.6 16.57a35 35 0 0 1-6.28 4.44c-.34-3.19-3.92-3.76-6.6-2.68a4.5 4.5 0 0 0-2.81 2.83c-.3 1.03.26 2.55 1.2 3.3a61 61 0 0 1-17.04 2.39c-10.78.1-21.29-2.67-32-2.8h-.08l-.1-.84c-.6-4.58-3.25-8.83-5.48-12.78a40 40 0 0 1-4.45-11.53l-.09-.43c.76 1.42 1.56 2.8 2.32 4.1 2.16 3.74 5.25 8.62 9.35 10.49 4.44 2.02 13.61-3.52 13.43-8.8l.18-.1c3.76-2.78-2.22-8.61-4.2-10.6-2.66-2.71-6.18-4.44-9.64-5.92a46 46 0 0 0-5.93-1.98c-1.1-.3-2.47-.83-3.72-.88q.03-.34.02-.7c-.06-1.6-1.06-3.09-2.3-4.27 1.64-4.5 5.37-8.33 8.14-12.16a93 93 0 0 0 9.46-16.55c1.3-2.9 3.65-8.41 3.34-12.56m30.32 10.86c.79 2.15.97 4.41.72 6.64-.94-.42-1.89-.23-2.77-.94-.73-.6-1.04-1.6-1.1-2.52a3.6 3.6 0 0 1 1.08-2.67c.51-.54 1.23-.72 1.87-1.01zm9.88 26.74q2.08.74 4.06 1.7c-1.07.87-2.25 1.53-3.67.79a2 2 0 0 1-.95-1.25c-.15-.51.24-.9.56-1.24m20.57 22.1a5 5 0 0 1-2.06-1.43c-1.42-1.7-1.75-4.04.2-5.22a21 21 0 0 1 1.86 6.65m-4.4-14.83c-7.72-8.28-20.1-12.89-31.45-11.93a22 22 0 0 0 5.36-6.02c2.96-4.92 4-10.43 2.56-16.02-3.83-14.7-20.97-15.18-33.06-12.21a5 5 0 0 0-1.15-2.27c-.41-.45-.95-.6-1.53-.6-6.8-4.35-17.48-.65-20.89 6.33a23 23 0 0 0-1.8 5.56q-.27-1.17-.63-2.34c-.73-2.3-1.67-6.16-4.43-6.88-1.57-.4-2.78-.22-3.71.38-7.9.3-13.62 7.88-13.42 15.56.08 3.06.89 6.1 2.16 9.03-1.41.72-2.78 2.44-3.89 3.4a31 31 0 0 1-4.94 3.6c-.26.15-.34.42-.3.68-2.73-2.72-4.8-6.02-5.58-9.85-.22-1.07-2.03-.69-1.88.38a42 42 0 0 0 3.48 11.77l-.26.23q-.7.57-1.38 1.15c-.7.6-1.65 1.26-2.14 2.07a31 31 0 0 1-6.14-8.09c-.46-.85-1.9-.3-1.77.62a23.4 23.4 0 0 0 4.28 10.44l-.67.54q-.44.33-.84.7l-.08.14c-.59.32-1.14.72-1.56.99-3 1.9-5.77 4.16-8.54 6.36-2.38 1.89-4.7 3.85-7.1 5.7-2.14 1.67-4.4 3.18-6.61 4.74-1.12.8-2.48 1.58-3.54 2.57-1.14.7-2.24 1.48-3.4 2.16-.43.25-.54.68-.45 1.08a1 1 0 0 0-.33.56c-.7 3.32.1 7 .4 10.34.44 4.85.59 9.93 1.58 14.7.12.58.56.89 1 .96q1.36 1.1 2.85 2.01l.04.06c.83.65.15 5.71.1 6.5a66 66 0 0 0-.12 6.23c.12 4.61.73 9.2 1.1 13.8.37 4.58.85 9.15 1.07 13.74q.15 3.12.07 6.25c-.03 1.25-.54 2.52.48 3.42.3.26.8.32 1.2.2 2.76 3.79 7.3 6.06 11.09 8.68 4.71 3.26 9.98 5.68 15.34 7.66 12.92 4.79 26.92 6.72 40.57 7.98 24.54 2.25 50.78-2.22 72.16-14.94.7.23 1.73-.2 1.77-1.2.29-7.25.15-14.5.2-21.74.06-8.24.98-16.24 1.71-24.42l-.02-.24a30 30 0 0 0 6.27-5.19c.3-.33.3-.76.15-1.14.6-1.3.6-2.95.69-4.3.24-3.39.6-6.6 1.2-9.95a85 85 0 0 0 1.33-16.6c2.24-8.12-.63-16.93-6.6-23.34" style="fill:#422000;fill-opacity:1;fill-rule:nonzero;stroke:none;stroke-width:0.133333"/><path id="path3412" d="M331.4 1083.42q-.21.41-.56.56c-.42.18-.9.14-1.37.04-.87-.19-.95-1.04-.7-1.83q.2-.1.37-.23c.4-.33.92-.91 1.27-1.07.26-.11.19-.08.39-.1-.04 0 .01-.01.22.1-.23-.12.27.3.1.1l.16.21c.14.2.04.04.1.18.3.68.3 1.43.01 2.04m2.09-1.09c.03-1.94-1.36-3.81-3.43-3.4-1.08.23-2.67 1.55-2.6 2.74v.01q-.32.57-.39 1.26c-.14 1.61 1.02 2.62 2.5 2.9 2.31.45 3.88-1.31 3.92-3.5" style="fill:#422000;fill-opacity:1;fill-rule:nonzero;stroke:none;stroke-width:0.133333"/><path id="path3413" d="M352.94 1083.9a3.7 3.7 0 0 1 1.66-1.77c.65.59 1.18 1.64 1.11 2.37-.03.42-.16.61-.43.73-.64.29-1.84.33-2.42-.08-.36-.25-.07-.9.08-1.25m-1.8 2.26c.72 1.17 2.48 1.29 3.7 1.2a3 3 0 0 0 2.62-1.63c.83-1.73-.4-3.99-1.73-5.1-.7-.57-1.6-.89-2.49-.61-.96.29-1.81 1.56-1.43 2.54l.05.07c-.99.91-1.49 2.25-.71 3.53" style="fill:#422000;fill-opacity:1;fill-rule:nonzero;stroke:none;stroke-width:0.133333"/><path id="path3414" d="M413.35 1107.65c.03-.42.19-.85.53-1.11.78-.6 2.18.02 2.7.7.37.48.09 1.02-.45 1.28-.92.45-1.8.08-2.54-.53l-.26-.13zm-1.13 1.81c.17.12.4.15.59.08a3.6 3.6 0 0 0 4.28.61c1.45-.79 1.99-2.44 1.17-3.88-.95-1.66-3.6-2.41-5.25-1.5-1.46.81-2.42 3.58-.8 4.7" style="fill:#422000;fill-opacity:1;fill-rule:nonzero;stroke:none;stroke-width:0.133333"/><path id="path3415" d="M447.72 1084.72c.82-.23 1.3-.95 2.17-.33.72.5 1.2 1.43 1 2.3-.23 1.05-1.66 1.07-2.35.55a2.7 2.7 0 0 1-.9-1.43c-.13-.38-.01-.73.08-1.09m4.86 2.93c.75-1.62-.17-3.64-1.5-4.66-1.2-.94-3.93-.98-4.18.87-.74.25-1.03 1.28-1.06 1.99-.05 1.05.61 2.04 1.33 2.73 1.6 1.55 4.46 1.13 5.41-.93" style="fill:#422000;fill-opacity:1;fill-rule:nonzero;stroke:none;stroke-width:0.133333"/><path id="path3416" d="M428.86 1074.43c1.1-.48.97-1.9 2.3-1.53.94.25 1.73 1.28 2 2.16.4 1.29-1.26 1.65-2.2 1.71-1.46.1-2.2-1.05-2.34-2.31zm.55 3.94c2.01.86 5.56-.15 5.72-2.68.12-1.95-1.39-3.8-3.12-4.53a3.1 3.1 0 0 0-2.74.1c-.4.22-.81.67-1.06 1.17-1.93 1.74-1.23 4.9 1.2 5.94" style="fill:#422000;fill-opacity:1;fill-rule:nonzero;stroke:none;stroke-width:0.133333"/><path id="path3417" d="m402.2 1062.63-.03.05.05-.06.15-.17.05-.06.04-.12.02-.06-.02.03q.05-.23.06-.45c0 .03.02-.32 0-.18 0-.04.07-.37.02-.21.06-.2.09-.16.19-.23.16-.12.33-.17.62-.24.85-.2 2.17.1 2.65.76.67.93-.59 2.78-1.72 2.88-.77.07-1.52-.44-1.94-1.04a1.6 1.6 0 0 1-.3-.8zm-1.48-1.23a3 3 0 0 0-.17 2.46 4.2 4.2 0 0 0 2.79 2.4c2.6.76 5.13-2.19 4.59-4.67-.42-1.91-2.65-2.64-4.37-2.54a3.5 3.5 0 0 0-2.34.98 2 2 0 0 0-.5 1.37" style="fill:#422000;fill-opacity:1;fill-rule:nonzero;stroke:none;stroke-width:0.133333"/><path id="path3418" d="M412.1 1032.97c.23-.23.36-.4.47-.7q.1-.37.29-.68c.22-.33.45-.4.77-.42.59-.04 1.29.46 1.48.94.32.79-.63 1.65-1.45 1.91-.53.17-1.17-.1-1.49-.54a.6.6 0 0 1-.1-.48zm.47 2.5c1.88.64 4.12-1.16 4.19-3.05.06-1.46-1.41-2.67-2.76-2.84-1.37-.17-3.02 1.08-2.95 2.47-.35.33-.56.82-.48 1.36.15 1.06 1.04 1.75 2 2.07" style="fill:#422000;fill-opacity:1;fill-rule:nonzero;stroke:none;stroke-width:0.133333"/><path id="path3419" d="M421.68 1051c.66-.09 1.35.32 1.73.83.57.77-.04 1.66-.83 1.96-1.13.42-1.55-.98-1.82-1.96.25-.38.48-.76.92-.82m-1.9 2.83c.5.87 1.31 1.53 2.33 1.64 2 .2 3.57-1.87 3.15-3.74-.32-1.45-1.94-2.42-3.33-2.5-1.38-.1-3.62 1.5-2.5 3-.03.58.1 1.17.35 1.6" style="fill:#422000;fill-opacity:1;fill-rule:nonzero;stroke:none;stroke-width:0.133333"/><path id="path3420" d="M425.7 1095.2q.22-.61.67-1.15.19.05.4-.03c.36-.14.67-.4.95-.65.13-.13.36-.23.3-.22.17-.04.14-.01.14-.01.23.15.19.13.37.4.5.8.65 2.17.42 3.2-.21 1.01-.75 1.29-1.83.82-1.03-.45-1.84-1.15-1.42-2.36m4.7 2.91c.9-1.61.57-3.96-.3-5.51a2.4 2.4 0 0 0-2.05-1.31c-.88-.04-1.95.79-2.18 1.66q-.53.26-.97.7c-1.18 1.17-1.42 3.12-.22 4.37 1.55 1.63 4.44 2.4 5.72.1" style="fill:#422000;fill-opacity:1;fill-rule:nonzero;stroke:none;stroke-width:0.133333"/><path id="path3421" d="M312.4 1112.42c-.48-.03-.5.63-.17.84l2.7 1.67c.17.12.4.06.57-.03s.2-.2.25-.37c.06-.2-.04-.42-.18-.55a5.3 5.3 0 0 0-3.16-1.56" style="fill:#422000;fill-opacity:1;fill-rule:nonzero;stroke:none;stroke-width:0.133333"/><path id="path3422" d="M320.19 1116.17q-.42-.15-.86-.25c-.39-.11-.8.03-1.2-.08-.29-.07-.39.37-.1.45s.5.3.76.46c.35.22.75.37 1.13.53.6.24 1.25.65 1.9.43.23-.07.3-.32.2-.51-.36-.63-1.2-.79-1.83-1.03" style="fill:#422000;fill-opacity:1;fill-rule:nonzero;stroke:none;stroke-width:0.133333"/><path id="path3423" d="M328.1 1119.4a5 5 0 0 0-2.52-.7c-.24-.02-.32.36-.1.45.75.32 1.48.98 2.11 1.5.57.46 1.07 1.11 1.84 1.17.23.02.39-.22.39-.42 0-.91-1.03-1.55-1.71-2" style="fill:#422000;fill-opacity:1;fill-rule:nonzero;stroke:none;stroke-width:0.133333"/><path id="path3424" d="M335.78 1122.24c-.4-.14-.77-.2-1.2-.2-.39 0-.7.2-1.05.24-.3.04-.3.52.01.48.54-.06 1.37.4 1.85.62.54.23 1.03.68 1.65.48q.19-.08.2-.27c.04-.78-.84-1.15-1.46-1.35" style="fill:#422000;fill-opacity:1;fill-rule:nonzero;stroke:none;stroke-width:0.133333"/><path id="path3425" d="M343.22 1125a9 9 0 0 0-3.1-.1c-.21.02-.3.31-.1.42.87.46 1.6.8 2.57 1.03.87.22 1.82.61 2.7.27.2-.08.35-.35.2-.55-.54-.73-1.42-.89-2.27-1.07" style="fill:#422000;fill-opacity:1;fill-rule:nonzero;stroke:none;stroke-width:0.133333"/><path id="path3426" d="M350.68 1127.75c-.78-.27-1.5-.68-2.34-.67-.34 0-.63.46-.39.75a5.4 5.4 0 0 0 2.3 1.41c.74.28 1.69.56 2.3-.07a.4.4 0 0 0 .04-.5c-.43-.62-1.25-.69-1.91-.92" style="fill:#422000;fill-opacity:1;fill-rule:nonzero;stroke:none;stroke-width:0.133333"/><path id="path3427" d="M357.55 1129.85a4.4 4.4 0 0 0-2.29-.16c-.39.08-.47.64-.18.88.55.46 1.21.7 1.9.92s1.45.58 2.12.16c.19-.12.23-.33.2-.53-.17-.8-1.08-1.05-1.75-1.27" style="fill:#422000;fill-opacity:1;fill-rule:nonzero;stroke:none;stroke-width:0.133333"/><path id="path3428" d="M364.56 1132.37a2.5 2.5 0 0 0-2.1.04c-.38.17-.23.66.04.84.61.4 1.31.58 1.96.93.53.28 1.32.4 1.49-.34.17-.76-.84-1.26-1.4-1.48" style="fill:#422000;fill-opacity:1;fill-rule:nonzero;stroke:none;stroke-width:0.133333"/><path id="path3429" d="M372.13 1135.27c-.74-.22-1.74-.52-2.5-.29-.36.11-.43.56-.17.81.48.47 1.26.58 1.88.78.75.24 1.53.64 2.3.28.16-.08.21-.3.16-.45-.23-.75-1-.93-1.67-1.13" style="fill:#422000;fill-opacity:1;fill-rule:nonzero;stroke:none;stroke-width:0.133333"/><path id="path3430" d="M377.47 1136.57c-.3.12-.37.54-.06.7q.93.46 1.99.58c.64.08 1.2.23 1.7-.28a.4.4 0 0 0 .08-.39c-.42-1.36-2.73-1-3.71-.6" style="fill:#422000;fill-opacity:1;fill-rule:nonzero;stroke:none;stroke-width:0.133333"/><path id="path3431" d="M383.17 1136.89c-.26.13-.17.47.03.6.47.3.96.4 1.52.48.55.08 1.16.27 1.7.1a.3.3 0 0 0 .2-.39c-.4-1.27-2.48-1.29-3.45-.8" style="fill:#422000;fill-opacity:1;fill-rule:nonzero;stroke:none;stroke-width:0.133333"/><path id="path3432" d="M388.65 1137.52c-.23.17-.27.49-.06.68.45.41 1.09.46 1.66.6.55.12 1.04.23 1.56-.06.16-.09.18-.3.1-.45-.48-.9-2.44-1.35-3.26-.77" style="fill:#422000;fill-opacity:1;fill-rule:nonzero;stroke:none;stroke-width:0.133333"/><path id="path3433" d="M397.02 1138.35c-.8-.04-1.63-.16-2.42-.03-.38.06-.73.6-.31.89.69.48 1.5.62 2.33.7.82.09 1.84.32 2.35-.47.09-.14.05-.33-.03-.47-.36-.7-1.25-.58-1.92-.62" style="fill:#422000;fill-opacity:1;fill-rule:nonzero;stroke:none;stroke-width:0.133333"/><path id="path3434" d="M404.3 1138.69c-.94.09-1.77.35-2.59.82l.03.19q1.12.33 2.3.33c.84-.01 1.86.16 2.58-.36.2-.14.26-.46.05-.63-.67-.55-1.55-.44-2.37-.35" style="fill:#422000;fill-opacity:1;fill-rule:nonzero;stroke:none;stroke-width:0.133333"/><path id="path3435" d="M413.23 1138.63c-.87.04-1.55.08-2.32.48-.17.09-.12.32.02.4.68.43 1.3.55 2.11.58.75.02 1.72.08 2.2-.6.11-.17.13-.37-.03-.51-.55-.5-1.29-.37-1.98-.35" style="fill:#422000;fill-opacity:1;fill-rule:nonzero;stroke:none;stroke-width:0.133333"/><path id="path3436" d="M421.83 1138c-.77.1-1.58.1-2.33.37-.3.11-.4.6-.06.74.71.3 1.43.28 2.19.24.74-.04 1.71-.02 2.21-.64.12-.15.14-.4-.02-.52-.6-.45-1.29-.28-1.99-.19" style="fill:#422000;fill-opacity:1;fill-rule:nonzero;stroke:none;stroke-width:0.133333"/><path id="path3437" d="M430.16 1137.29c-.58-.2-1.18-.02-1.77.11q-.53.1-1.08.18c-.34.05-.49.2-.78.33-.18.07-.24.32-.04.43.34.17.46.32.87.34q.64.02 1.26-.07c.68-.1 1.35-.28 1.74-.88.12-.19-.04-.38-.2-.44" style="fill:#422000;fill-opacity:1;fill-rule:nonzero;stroke:none;stroke-width:0.133333"/><path id="path3438" d="M436.25 1134.65a3 3 0 0 0-.98.37c-.3.21-.54.5-.85.7-.24.14-.06.53.21.45.31-.1.65-.06.98-.1.27-.04.53-.13.8-.19.53-.12 1.04-.13 1.45-.51.15-.14.1-.37-.02-.5-.45-.44-1.03-.33-1.6-.22" style="fill:#422000;fill-opacity:1;fill-rule:nonzero;stroke:none;stroke-width:0.133333"/><path id="path3439" d="M442.67 1133c-.73.15-1.52.23-2.2.53-.5.21-.61 1.11.06 1.18a7 7 0 0 0 2.1-.19c.75-.15 1.44-.34 1.84-1.03.09-.15.02-.4-.15-.46-.56-.24-1.07-.17-1.65-.04" style="fill:#422000;fill-opacity:1;fill-rule:nonzero;stroke:none;stroke-width:0.133333"/><path id="path3440" d="M449.08 1131.31c-.44.03-.76.2-1.15.38q-.77.34-1.6.53c-.69.16-.34 1.2.34 1.04.94-.2 2.22-.52 2.76-1.39.16-.24-.08-.57-.35-.56" style="fill:#422000;fill-opacity:1;fill-rule:nonzero;stroke:none;stroke-width:0.133333"/><path id="path3441" d="M459.34 1126.25c-.8-.28-1.65.16-2.38.47-.88.38-1.58.94-2.38 1.42-.45.27-.02.87.42.66.73-.35 1.58-.58 2.34-.9.73-.32 1.64-.47 2.18-1.08.2-.22.06-.5-.18-.57" style="fill:#422000;fill-opacity:1;fill-rule:nonzero;stroke:none;stroke-width:0.133333"/><path id="path3442" d="M323.29 1165.85a5.6 5.6 0 0 0-2.81-1.3c-.6-.04-1.23.75-.6 1.2.82.58 1.69 1.06 2.47 1.7.7.56 1.3 1.27 2.28 1.18a.45.45 0 0 0 .42-.46c-.01-1.09-.97-1.72-1.76-2.32" style="fill:#422000;fill-opacity:1;fill-rule:nonzero;stroke:none;stroke-width:0.133333"/><path id="path3443" d="M331.47 1171.6c-.74-.49-1.83-1.38-2.76-.98-.28.12-.47.4-.37.7.28.9 1.56 1.61 2.26 2.18.93.75 2 1.44 3.22 1.18.68-.15.73-1.08.29-1.47-.73-.66-1.8-1.07-2.64-1.61" style="fill:#422000;fill-opacity:1;fill-rule:nonzero;stroke:none;stroke-width:0.133333"/><path id="path3444" d="M341.38 1176.12c-.95-.3-2.05-1.04-3.07-.69-.12.05-.24.18-.22.32.16 1.17 1.47 1.75 2.43 2.19 1.04.48 2.78 1.14 3.72.21.16-.17.14-.4.04-.6-.47-.93-2-1.12-2.9-1.43" style="fill:#422000;fill-opacity:1;fill-rule:nonzero;stroke:none;stroke-width:0.133333"/><path id="path3445" d="m355.21 1181.34-.69-.17-.04-.07c-.96-.8-2.54-.78-3.7-1.17-.5-.17-2.3-.86-2.5.1-.24 1.14 1.58 1.73 2.37 2 .8.27 1.8.54 2.68.4.47.33 1.15.52 1.55.63 1.07.31 1.45-1.48.33-1.72" style="fill:#422000;fill-opacity:1;fill-rule:nonzero;stroke:none;stroke-width:0.133333"/><path id="path3446" d="M362.1 1182.93c-1.14-.29-2.36-.8-3.48-.27-.33.16-.27.62-.06.84.74.8 2.16 1.03 3.18 1.3.93.26 2.13.55 2.76-.38l-.01-.35c-.43-.85-1.58-.93-2.4-1.14" style="fill:#422000;fill-opacity:1;fill-rule:nonzero;stroke:none;stroke-width:0.133333"/><path id="path3447" d="M370.69 1184.64c-.95-.04-1.92-.2-2.86-.06-.53.08-.7.72-.22 1 .9.54 1.97.6 2.97.69.86.07 1.8.3 2.32-.5.1-.15.05-.35-.02-.5-.4-.76-1.44-.6-2.19-.63" style="fill:#422000;fill-opacity:1;fill-rule:nonzero;stroke:none;stroke-width:0.133333"/><path id="path3448" d="M381.2 1185.73c-1.1-.1-2.35-.18-3.38.26-.4.17-.5.72-.07.94.8.42 1.69.42 2.57.48 1.13.06 2.08.24 3.2.06.2-.03.36-.24.23-.45-.65-.97-1.41-1.18-2.56-1.29" style="fill:#422000;fill-opacity:1;fill-rule:nonzero;stroke:none;stroke-width:0.133333"/><path id="path3449" d="M389.3 1187.59c-.45.21-.55.78-.08 1.06.66.38 1.47.41 2.22.46.64.04 1.8.14 2-.72.31-1.51-3.42-1.14-4.14-.8" style="fill:#422000;fill-opacity:1;fill-rule:nonzero;stroke:none;stroke-width:0.133333"/><path id="path3450" d="M401.17 1186.47c-.88.06-2.1.14-2.66.91-.1.14-.13.36.02.48.7.52 1.64.4 2.46.35.6-.05 2.25.1 2.2-.92-.03-.94-1.39-.86-2.02-.82" style="fill:#422000;fill-opacity:1;fill-rule:nonzero;stroke:none;stroke-width:0.133333"/><path id="path3451" d="M412.23 1186.1c-.72-.35-1.6-.07-2.35.02-1.02.13-2.06.02-2.91.7-.14.1-.17.3-.04.43.77.73 1.75.75 2.76.73 1.04-.01 2.42-.2 2.8-1.31.08-.21-.08-.47-.26-.56" style="fill:#422000;fill-opacity:1;fill-rule:nonzero;stroke:none;stroke-width:0.133333"/><path id="path3452" d="M419.47 1183.72a8 8 0 0 0-2.5.93c-.26.16-.15.54.12.61.44.12.77.22 1.24.25s.99-.15 1.45-.23c.8-.14 1.8-.06 2.24-.86.12-.2.04-.43-.1-.58-.62-.67-1.67-.28-2.45-.12" style="fill:#422000;fill-opacity:1;fill-rule:nonzero;stroke:none;stroke-width:0.133333"/><path id="path3453" d="M432.6 1180.3c-.89-.36-1.87.12-2.72.42-.97.33-2.06.58-2.8 1.33-.26.27-.07.73.27.8.92.22 1.88-.12 2.75-.4.92-.3 2.25-.56 2.72-1.5.1-.22.03-.54-.22-.65" style="fill:#422000;fill-opacity:1;fill-rule:nonzero;stroke:none;stroke-width:0.133333"/><path id="path3454" d="M443.58 1177.34c-.7 0-1.37.47-2.03.7-.78.25-1.62.27-2.43.37-.84.1-1 1.37-.1 1.52a7 7 0 0 0 2.8-.18c.84-.2 2.04-.61 2.37-1.48.17-.46-.1-.93-.61-.93" style="fill:#422000;fill-opacity:1;fill-rule:nonzero;stroke:none;stroke-width:0.133333"/></g></g></svg>