<svg xmlns="http://www.w3.org/2000/svg" xml:space="preserve" viewBox="-230 0 1660 830"><defs><linearGradient id="linearGradient18" x1="500.43" x2="785.35" y1="357.95" y2="357.95" gradientUnits="userSpaceOnUse"><stop offset="0" stop-color="#bf4056"/></linearGradient></defs><path fill="#263636" fill-rule="evenodd" stroke="#000" stroke-linejoin="round" stroke-width="3.46" d="M-277.63-21.26h1731.2v886.65h-1731.2z" opacity=".5" style="-inkscape-stroke:none;font-variation-settings:normal"/><g style="mix-blend-mode:normal"><path fill="#585858" fill-rule="evenodd" d="M410.96 64.92s2.67-16.55 6.6-38.61a885 885 0 0 0 6.11-38.2L391.46-38c-1.46 4.63-3.15 10.08-4.77 15.38-4.03 13.18-13.28 34.81-14.24 36.92l-1.8 2.21c-6.27-6.08-24.3-23.1-32.74-30.2s-15.7-14.81-15.7-14.81L298.7.5s3.16 5.34 7.48 11.08 14.61 29.02 26.6 48.35 21.9 35.51 21.9 35.51z"/><path fill="#be4158" fill-rule="evenodd" d="M346.3 218.2c2.57.83 4.4-.44 5.15-1.12q-.5-.5-.99-1.03l-3.1-2.97 1.1.46a2.4 2.4 0 0 1-.3-1.02c-.03-.67.3-1.3.65-1.88 3.14-5.1 9.98-7.26 16-6.67l-.36-.4 1.33.5-.96-.1q1.65 1.8 3.28 3.63l.72-.4 1.18-2.7c.68-1.54-.62-2.83-2.65-4.29.76-.4 1.82-.42 2.72-.3q.63.1 1.24.22l-2.7-.07s2.95.06 6.8 1.2c3.87 1.13 22.07 6.13 28.6 7.1 6.52.97 9.5 1.8 13-.82 1.33-1 2.29-2.13 2.97-3.17 2.18.64 4.46.94 6.72 1.23.5.07 1.01.12 1.5 0l-.09-.06c.78-4.75 2.14-9.4 3.96-13.86a71 71 0 0 1 3.73-8.11c.65-1.14 1.44-2.2 1.94-3.42.47-1.16.6-2.37.58-3.6-.01-1.74-.3-3.55-.3-5.33l1.9.2c.87 1.3 1.78 3.03 2.48 3.2 1.2 2.08 3.36 6.98 3.36 6.98l1.32-1s1.34-.56 4.17-.64l.64-.02c2.8.08 7.07.5 10.34 1.76 3.9 1.52 6.19 3.6 8.1 5.67a142 142 0 0 0 4.1 4.24l9.02 7.65s2.75 2.47 4.08 5.83q.3-.12.6-.28c.83-.46 1.61-1.5 1.66-2.43q3.17-3.45 6.62-6.6 1.56-1.44 3.16-2.82l3.26-2.88.1.13c.34.28 1.8 2.22 3.85.14 3.44-3.48 4.08-4.38 6.62-6.6 1.11-.98 2.84-2.38 3.1-3.84.3-1.61-.17-2.09-1.05-3.48-2.55-4.03-5.18-8.14-8.96-11.06-1.73-1.34-4.28-2.38-6-1.02-.58.44-.96 1.1-1.5 1.58-2.28 2.01-4.56 2.7-6.1 4.4-1.24 1.38-2.26 1.78-1.16 3.28l.05.07c-1.73 1.66-3.57 3.2-5.82 3.96-.84.28-1.73.45-2.59.7-2.45.7-4.77 2.07-7.33 2.1-1.25.01-2.49-.3-3.73-.22-.85.05-1.7.29-2.54.15-1.39-.22-2.4-1.38-3.3-2.46-3-3.66-8.43-4.43-12.14-7.37-.85-.67-1.74-1.4-2.81-1.55h-.03c-1.94-6-5.86-18.17-8.84-27.54-4.11-12.97-8.12-30.16-13.5-41.16s-12.3-28.18-13.99-30.39c-3.15-4.12-5.39-5.56-21.52 1.64s-37.61 21.02-38.96 23.92c-1.35 2.89 1.08 2.36 2.42 13.83 1.2 10.22 10.94 46.05 13.04 53.72a3.8 3.8 0 0 0 .3 2.95c.25.44.62.87.65 1.36-9.99-.45-19.42-.64-22.8.01-8.27 1.6-16.64 5.79-19.66 11.98s-1.13 13.7.1 16.69 4.86 5.92 4.86 5.92l.21-.1-.76 1.16c-1.83 2.92 1.06 3.06 3.62 5.92 3.37 3.74 6.22 8.18 9.64 9.3"/><path fill="#ffddc0" d="M348.81 210.64a3.5 3.5 0 0 0-.65 1.88q.03.54.3 1.02l-1.1-.46 3.1 2.97.99 1.03a48 48 0 0 0 5.34 4.77c13.39 11.9 22.42 17.58 23.26 17.78 4.93 1.2 11.98.75 16.9 1.82 3.02.66 6.79 3.8 8.38 4.7 5.74 3.22 7.74 8.14 9.44 6.42s.24-5.06-1.5-7.45c-2.02-2.77-4.46-3.3-7.31-7.35l-.39-.16a31 31 0 0 0 3.22-3.77c4.04-4.77 7.23-10.22 6.57-11.42-.85-1.54-4.08-2.49-4.08-2.49l-.76 1.92a9 9 0 0 0 .37-3.2c-.26-1.78-2.45-2.9-4.3-3.3l.03.7-.33-.23q.07-.64-.02-1.02c-.48-2.18-3.75-1.87-3.75-1.87l.02.35-.31-.2q.05-.3.07-.54c.13-1.49-2.88-2.3-3.96-1.58-1.11.75-3.42 4.22-5.8 5.33l-2.11 1 .1.06c-.8.2-1.58.41-2.31.77-1.47.72-2.58 2-3.92 2.94s-3.18 1.52-4.59.68c-1.12-.67-1.6-2-2.22-3.15a22 22 0 0 0-3.24-4.2l-6.14-6.8q-1.65-1.8-3.29-3.63c-6.02-.58-12.87 1.58-16 6.68"/><path fill="#393127" fill-rule="evenodd" d="M494.36 203.74c-3.85-6.69-12.16-.84-12.16-.84l-39.77 22.16s.02 3.26 2.95 8.14a44 44 0 0 0 9.48 10.47c6.83 4.95 14.79 1.1 14.79 1.1s3.81 1.24 7.7-.86c4.34-2.38 10.47-7.68 14.52-13.4a28 28 0 0 0 5.28-13 22 22 0 0 0-2.8-13.77"/><path fill="#ffddc0" d="M474.44 191.6s-2.55-2.52-4.1-4.23a20.5 20.5 0 0 0-8.1-5.67c-3.27-1.25-7.53-1.68-10.35-1.76q-.33 0-.64.02c-2.82.08-4.16.64-4.16.64l-1.32 1s-2.17-4.9-3.36-6.98c-1.12-.28-2.75-4.43-3.87-4.71q-.2-.04-.48.23c-.18 2.11.26 4.31.27 6.4a9 9 0 0 1-.58 3.6c-.5 1.22-1.3 2.28-1.94 3.43a71 71 0 0 0-3.73 8.1 64 64 0 0 0-3.96 13.87l.08.06c5.82 4.2 12.1 10.3 12.1 10.3s-1.34 3.55-.32 6.36c.73 1.99 3.46 3.42 4.64 4.05 2.73 1.44 6.68-4.57 6.68-4.57s2.26-2.1 5.52-2.3 7.54 1.5 11.44 1.4c3.35-.11 5.8.69 8.25.22 1.9-.28 3.98-1.65 5.7-3.02 3.42-2.74 6.48-7.47 5.92-10.91q-.2-1.06-.6-2.04a18 18 0 0 0-4.07-5.83z"/><path d="M443.56 182.42c1.1-1.37 2.31-2.36 3.6-2.76 1.76-.65 4.6-.74 8.39-.26 5.57.82 10.2 2.6 12.7 4.9 2.11 1.87 3.3 3.14 4.36 4.26.77.82 1.5 1.6 2.49 2.5a41 41 0 0 0 3.3 2.57q1.19.85 2.39 1.8l.13.12c4.46 3.77 7.2 7.7 8.15 11.7a.98.98 0 1 1-1.9.46c-.85-3.59-3.37-7.18-7.51-10.67l-.12-.1q-1.13-.9-2.3-1.73a45 45 0 0 1-3.45-2.7 44 44 0 0 1-2.6-2.6 59 59 0 0 0-4.24-4.16c-2.24-2.05-6.49-3.65-11.67-4.41-3.36-.43-6.02-.37-7.5.17-3.17.98-6.46 7.95-8.1 14.34-1.1 4.23-.77 6-.11 9.53l-.96.2-.97.15c-.66-3.57-1.06-5.72.15-10.37 1.15-4.5 3.18-9.75 5.77-12.94m-3.03 31.33a.98.98 0 0 1 1.59 1.13c-1.84 2.96-2.05 5.53-.65 8.09 1 1.76 2.75 2.81 4.37 2.6 1.57-.2 2.76-1.55 3.34-3.8a.98.98 0 1 1 1.9.5c-.8 3.02-2.6 4.93-4.99 5.24s-4.95-1.13-6.33-3.6c-1.75-3.2-1.52-6.5.7-10.06z"/><path d="M443.74 218.72a.97.97 0 0 1 1.68.3c.05.13.45 1.38.14 2.8a.98.98 0 0 1-1.91-.44c.2-.88-.08-1.73-.08-1.74a1 1 0 0 1 .17-.92"/><path fill-rule="evenodd" d="M443.6 178.57s-6.46 5.16-7.61 10.34c-1.15 5.53 2.16 15.13 2.16 15.13s-.4-7.44 1.3-11.89c1.79-4.72 5.73-10.2 5.73-10.2z"/><path d="M461.04 192.77a1 1 0 0 1 .8-.36c3.82.19 4.07 1.8 4 3.6-.03.7-.06 1.37.34 2 1.4 2.1 3.8 3.24 5.58 3.82a.98.98 0 1 1-.6 1.86c-2.98-.97-5.26-2.57-6.62-4.62a5 5 0 0 1-.66-3.15c.05-1.17.06-1.45-2.13-1.56a.98.98 0 0 1-.71-1.59m4.63 23.02q.2-.24.5-.33c.14-.04 3.3-.98 4.96-4.74a.98.98 0 0 1 1.8.79 10.4 10.4 0 0 1-6.24 5.84.98.98 0 0 1-1.02-1.56m11.87-13.37q.15-.18.4-.29a4.8 4.8 0 0 0 3.1-3.35c.08-.53.59-.89 1.12-.8s.89.58.8 1.11a6.7 6.7 0 0 1-4.3 4.86.98.98 0 0 1-1.12-1.53m-36.14 22.85a.98.98 0 0 1 1.74.52c0 .04.55 4.6 5.53 10.2a.98.98 0 0 1-1.46 1.3c-5.44-6.12-6-11.1-6.02-11.3a1 1 0 0 1 .22-.72m9.04 14.18a.98.98 0 0 1 1.6.1c3.6 5.82 10.07 6.51 13.52 5.14a.98.98 0 1 1 .72 1.82c-4.76 1.9-11.95.46-15.91-5.93a1 1 0 0 1 .07-1.13m47.69-27.2.36-.4a.98.98 0 0 1 1.43 1.33c-1.53 1.63-1.92 3.96-2.35 6.42a24 24 0 0 1-1.39 5.46l-.17.4a22 22 0 0 1-6.3 8.78.98.98 0 1 1-1.28-1.47 20 20 0 0 0 5.79-8.1l.16-.38c.68-1.57.98-3.32 1.27-5.01.42-2.47.85-5.02 2.48-7.03m-30.25 31.82a1 1 0 0 1 1.14-.28c2.91 1.23 6.86-.01 9.3-1.68a34 34 0 0 0 3.54-2.79c1.96-1.7 3.99-3.45 6.59-4.2A.98.98 0 1 1 489 237c-2.18.63-3.96 2.17-5.85 3.8-1.17 1-2.37 2.05-3.73 2.93-2.94 2.02-7.55 3.38-11.15 1.86a.98.98 0 0 1-.38-1.52m16.75-43.27q.18-.24.5-.33c4.2-1.2 6.94.02 8.5 1.25 2.63 2.08 4.1 5.9 3.92 10.22a.98.98 0 0 1-1.95-.08c.15-3.64-1.07-6.93-3.2-8.61q-2.61-2.05-6.75-.9a.98.98 0 0 1-1.02-1.55m-28.73 23.81c1.98-2.43 5.03-4.08 8.98-4.81 2.6-.46 5.02-.18 7.15.08 3.25.38 5.6.66 7.4-1.54a.98.98 0 1 1 1.52 1.24c-2.5 3.03-5.73 2.65-9.16 2.24-2.08-.25-4.25-.5-6.56-.1q-6.73 1.26-8.95 5.95a.98.98 0 0 1-1.77-.84q.56-1.2 1.4-2.22m-2.88-4.74q.61-.75 1.48-1.2a5.3 5.3 0 0 1 4.08-.16.98.98 0 1 1-.67 1.84 3.3 3.3 0 0 0-2.54.08 3 3 0 0 0-1.43 1.86.98.98 0 1 1-1.87-.57q.33-1.08.95-1.85m34.62-9.83a1 1 0 0 1 .54-.33c1.54-.37 3.39.2 4.94 1.54.42.35.46.97.11 1.38a1 1 0 0 1-1.38.1c-1.06-.9-2.3-1.34-3.22-1.12a.98.98 0 0 1-.99-1.57m-3.97 5.28.17-.16a1 1 0 0 1 1.37.19 7.3 7.3 0 0 1 1.54 5.28 5 5 0 0 1-2.07 3.36.98.98 0 1 1-1.15-1.59 3 3 0 0 0 1.29-2.06 5.3 5.3 0 0 0-1.17-3.81 1 1 0 0 1 .02-1.2"/><path fill-rule="evenodd" d="M470.3 194.75c-.63.63-.35 2 .65 2.8 1 .81 2.37.9 2.9.17.64-.64.36-2-.64-2.8-1.1-.9-2.28-1-2.9-.17m-9.44 11.37c-.72.73-.44 2.09.47 3 .91.9 2.27.98 3 .25.72-.73.44-2.09-.47-3-.92-.9-2.28-.98-3-.25"/><path d="M427.38 205.77a1 1 0 0 1 1.25-.23 60 60 0 0 1 8.86 6.22c.4.36.45.97.08 1.38a1 1 0 0 1-1.38.08 59 59 0 0 0-8.55-6 1 1 0 0 1-.26-1.45m-73.2-111.3c3.32-4.1 23.77-17 39.07-23.83 16.15-7.2 19.05-6.1 22.7-1.33.92 1.2 2.98 5.86 6.27 13.34 2.5 5.67 5.32 12.1 7.81 17.2 3.83 7.83 6.92 18.59 9.9 28.99 1.26 4.37 2.44 8.49 3.66 12.3 4.06 12.82 9.97 31.06 10.03 31.25a.98.98 0 0 1-1.86.6c-.06-.18-5.97-18.43-10.04-31.25-1.22-3.84-2.4-7.98-3.67-12.36-2.96-10.32-6.03-21-9.78-28.66-2.5-5.14-5.34-11.6-7.84-17.28-2.68-6.1-5.21-11.86-6.04-12.95-2.63-3.43-4.08-5.32-20.35 1.94-16.59 7.41-37.38 21.08-38.47 23.44-.47 1.01-.37 1.28.16 2.74.61 1.67 1.63 4.47 2.34 10.56 1.32 11.26 13.3 54.6 13.42 55.03a.98.98 0 1 1-1.89.53c-.5-1.8-12.13-43.92-13.47-55.33-.69-5.86-1.66-8.53-2.24-10.12-.57-1.55-.9-2.49-.1-4.24q.12-.26.39-.57"/><path d="M329.59 176.02c4.24-5.24 12.01-8.39 18.52-9.65 8.3-1.6 51.37 1.71 53.2 1.86a.98.98 0 0 1-.15 1.95c-.44-.04-44.63-3.45-52.68-1.89-7.15 1.39-15.88 5.12-18.97 11.45-2.75 5.63-1.21 12.64.13 15.89 1.12 2.72 4.53 5.5 4.57 5.54a.98.98 0 0 1-1.23 1.52c-.16-.13-3.84-3.13-5.15-6.32-1.47-3.55-3.13-11.24-.08-17.49q.75-1.51 1.84-2.86m41.21 23.48a1 1 0 0 1 1.03-.32l3.86 1.13a491 491 0 0 0 26 6.57c6.2 1.33 11.6 2.23 14.73-.13 3.19-2.4 4.1-5.71 4.12-5.75a.98.98 0 0 1 1.89.51c-.05.16-1.1 4-4.83 6.8-3.8 2.86-9.64 1.91-16.32.48a490 490 0 0 1-26.14-6.6l-3.86-1.13a.98.98 0 0 1-.49-1.56M348 209.7a31 31 0 0 1 4.48-4.36c8.11-6.6 14.86-.93 14.93-.87a1 1 0 0 1 .1 1.38 1 1 0 0 1-1.37.1c-.23-.19-5.61-4.64-12.42.9-6.92 5.64-6.07 8.31-6.06 8.34a.95.95 0 0 1-.46 1.29 1 1 0 0 1-1.32-.47c-.23-.47-.94-2.54 2.11-6.3"/><path d="M334.56 199.17c8.13-10.05 19-11.04 21.64-10.31 1.61.44 2.28 1.51 3.04 2.75.7 1.13 1.58 2.54 3.56 4.15 1.16.94 2.35 1.74 3.5 2.53 3.1 2.1 5.77 3.93 4.6 6.61l-1.19 2.7a.98.98 0 1 1-1.79-.8l1.19-2.69c.5-1.13-1.17-2.33-3.92-4.2a54 54 0 0 1-3.62-2.63 17 17 0 0 1-4-4.64c-.72-1.18-1.05-1.67-1.89-1.9-2.5-.69-14.28.76-21.8 12.76-.77 1.22-.57 1.37.98 2.53.73.55 1.65 1.23 2.53 2.21q1.26 1.43 2.44 2.87c2.3 2.78 4.46 5.4 6.77 6.15 2.69.87 4.03-.72 4.08-.79a1 1 0 0 1 1.37-.15c.42.34.5.94.17 1.36-.08.1-2.2 2.75-6.22 1.44-2.85-.92-5.2-3.76-7.68-6.76q-1.16-1.43-2.39-2.81a14 14 0 0 0-2.24-1.95c-1.5-1.12-3.2-2.39-1.47-5.14q1.12-1.8 2.34-3.3M402.05 67.2a1 1 0 0 1 1.19-.26c3.95 1.9 4.23 3.99 4.61 6.86.24 1.79.53 4 1.83 6.99 3.73 8.56 8.92 20.92 12.5 31.22 6.32 18.2 11.82 40.16 12.13 41.42.2.51 1.75 4.71 2.95 8.21 1.34 3.91 2.5 13.52 2.21 16.6-.2 2.18-1.58 4.23-2.69 5.87-.52.77-1 1.5-1.22 2.02a130 130 0 0 0-6.47 20.45.98.98 0 0 1-1.92-.4c.02-.1 2.1-9.92 6.58-20.8.29-.7.81-1.47 1.41-2.37 1.04-1.53 2.21-3.27 2.37-4.94.25-2.81-.9-12.25-2.12-15.8a336 336 0 0 0-2.95-8.21l-.04-.11c-.05-.23-5.64-22.73-12.09-41.3-3.55-10.24-8.73-22.55-12.44-31.08-1.41-3.24-1.72-5.6-1.98-7.51-.35-2.69-.52-3.9-3.52-5.36a.98.98 0 0 1-.34-1.5"/><path d="M426.22 177.4c-.9 7.3-3.76 22.5-4.62 26.99a1.85 1.85 0 0 0 1.55 2.16l.66.09a9.4 9.4 0 0 1 4.1 1.2 1 1 0 0 0 1.35-.31 1 1 0 0 0-.32-1.35 11 11 0 0 0-4.9-1.49l-.5-.06c.9-4.65 3.73-19.7 4.62-27q.07-.75.25-1.3c.7.3 1.35.83 2 1.35.87.72 2.07 1.69 3.57 1.91q1.23.18 2.02-.4.8-.6 1-1.94a.98.98 0 1 0-1.94-.28q-.1.59-.23.65-.09.09-.57.03c-.9-.13-1.72-.75-2.62-1.48-.98-.8-2.09-1.7-3.52-1.96a1 1 0 0 0-.93.34l-.03.04c-.7.87-.84 1.99-.94 2.8m-79.37-2.01a1 1 0 0 1 1.38-.15c4.3 3.48 7.86 10.1 8.37 13.87a.98.98 0 1 1-1.94.26c-.4-3-3.52-9.25-7.66-12.6a1 1 0 0 1-.15-1.38"/><path d="m353.03 174.48.03-.03a1 1 0 0 1 1.38-.09 12 12 0 0 1 3.15 4.33c.35.8.64 1.68.91 2.79.8 3.28.56 5.02-1.13 8.09a.98.98 0 0 1-1.71-.95c1.54-2.79 1.58-4.05.94-6.68-.24-.99-.5-1.78-.8-2.47a10.5 10.5 0 0 0-2.66-3.64 1 1 0 0 1-.11-1.35m-6.43 37.98.06-.06c.38-.4 1-.4 1.39-.02 18.74 18.22 31.43 26 32.27 26.31 2.43.6 5.55.77 8.56.94 2.86.16 5.83.33 8.27.87 2.38.52 5.05 2.35 7 3.7.67.46 1.26.87 1.66 1.1a28 28 0 0 1 6.1 4.88c.73.73 1.73 1.72 2.09 1.76l.06-.06c1.16-1.19.04-3.96-1.58-6.19-.83-1.13-1.73-1.85-2.78-2.7a21 21 0 0 1-4.55-4.66.98.98 0 1 1 1.6-1.13c1.5 2.13 2.86 3.22 4.17 4.27 1.11.89 2.16 1.73 3.14 3.07 1 1.37 4.02 6.03 1.4 8.7-.52.54-1.07.66-1.44.66-1.14 0-2.13-.98-3.5-2.34a25 25 0 0 0-5.67-4.56c-.47-.27-1.1-.7-1.81-1.2-1.82-1.24-4.3-2.95-6.3-3.4-2.3-.5-5.18-.66-7.97-.82-3.1-.17-6.31-.36-8.95-1-1.26-.3-14.4-8.6-33.14-26.8a1 1 0 0 1-.08-1.32"/><path d="M410.51 219.32a1 1 0 0 1 1.04-.32c.37.1 3.65 1.11 4.66 2.95 1.5 2.73-6.65 13.5-11.9 17.74a.98.98 0 1 1-1.23-1.52c5.66-4.57 11.53-13.63 11.39-15.33-.5-.8-2.32-1.62-3.47-1.97a.98.98 0 0 1-.49-1.55"/><path d="M405.83 214.73c.23-.27.6-.42.98-.33 2.22.49 4.71 1.83 5.05 4.1.54 3.72-3.46 11.11-3.92 11.95a.98.98 0 0 1-1.72-.95c1.16-2.1 4.08-8.11 3.7-10.71-.18-1.21-1.96-2.14-3.54-2.48a.98.98 0 0 1-.55-1.58"/><path d="M401.76 212.32q.25-.3.67-.36c1.53-.15 4.27.24 4.8 2.63.53 2.35-2.5 10.04-3.12 11.55a.98.98 0 0 1-1.81-.73c1.43-3.54 3.31-9.1 3.02-10.4-.28-1.28-2.68-1.1-2.7-1.1a.98.98 0 0 1-.86-1.59"/><path d="m364.2 203.96.12-.11a1 1 0 0 1 1.38.07c3 3.34 5.53 6.38 7.77 9.06 3.39 4.05 7.22 8.64 8.2 8.34 1.75-1.5 5.25-3.48 10.42-5.89 1.37-.64 2.77-2.2 3.9-3.47.73-.82 1.3-1.47 1.81-1.8 1.1-.74 2.96-.47 4.13.22.93.55 1.42 1.37 1.35 2.25-.24 2.96-3.51 9.05-3.65 9.3a.98.98 0 1 1-1.72-.93c.9-1.65 3.25-6.41 3.42-8.53 0-.08-.13-.25-.4-.4-.75-.45-1.8-.46-2.04-.29-.3.2-.88.85-1.45 1.48-1.24 1.4-2.78 3.13-4.48 3.92q-7.59 3.55-10.01 5.61a2 2 0 0 1-1.5.48c-2-.17-4.35-2.9-9.48-9.03-2.23-2.67-4.76-5.7-7.73-9a1 1 0 0 1-.03-1.28m71.68-41.56q.15-.2.39-.3a1 1 0 0 1 1.27.54c1.5 3.67 4.23 9.84 5.12 10.76 1.44 1.49 3.39 6.45 3.6 7.01a.98.98 0 1 1-1.82.71c-.76-1.98-2.3-5.45-3.19-6.36-1.41-1.46-4.84-9.73-5.52-11.38a1 1 0 0 1 .15-.98"/><path d="M446.94 172.9c-2.35.37-3.04.04-3.16-.03q-.39-.25-1.09-.98a1 1 0 0 0 .85-.9c0-.02.06-.93.29-3.8 1.05.8 2.8 2.73 3.55 4.99a.6.6 0 0 1-.1.53.6.6 0 0 1-.34.2m-10.14-4.88c.73.92 4.44 5.58 5.95 6.5.88.55 2.34.66 4.49.32a2.5 2.5 0 0 0 2-3.28c-1.1-3.28-4.45-6.92-6.19-6.7-.6.06-1.04.53-1.09 1.15l-.37 4.7a91 91 0 0 1-3.25-3.9.98.98 0 1 0-1.54 1.2"/><path d="M447.79 174.11c.03.2.08 1.16-.95 5.17l-.07.25a.98.98 0 0 0 1.9.46l.06-.22c1.28-4.97 1.1-5.96.82-6.5a.98.98 0 0 0-1.76.84m-28.9 30.75q.21-.27.59-.34l2.52-.45a.98.98 0 1 1 .34 1.93l-2.52.44a.98.98 0 0 1-.93-1.58m31.8-36.62a1 1 0 0 1 1.31-.19c.08.06 8.07 5.5 12.62 7.88 1.5.8 2.86 1.63 4.17 2.45 2.8 1.74 5.24 3.25 8.19 3.72a.98.98 0 0 1-.3 1.93c-3.35-.53-6.06-2.21-8.92-4q-1.9-1.2-4.04-2.36c-4.66-2.45-12.5-7.78-12.82-8a1 1 0 0 1-.26-1.36zm39.59 31.9c1.5-1.85 12.7-12.47 15.1-13.72a.98.98 0 0 1 .9 1.74c-2.03 1.06-13.44 11.78-14.5 13.24a1 1 0 0 1-1.37.22 1 1 0 0 1-.21-1.37z"/><path d="M472.45 179.82a1 1 0 0 0 .47 1.3c1.55.72 12.36-1.6 15.03-3.23a37 37 0 0 0 2.85-1.99c1.56-1.16 3.03-2.26 4.34-2.47a.98.98 0 1 0-.31-1.93c-1.79.29-3.44 1.53-5.2 2.83-.87.65-1.76 1.32-2.7 1.89-2.52 1.53-11.87 3.32-13.26 3.1a1 1 0 0 0-1.22.5"/><path d="M491.58 170.57a1 1 0 0 1 1.14-.28 23.8 23.8 0 0 1 14.47 17.34.98.98 0 1 1-1.9.42 21.9 21.9 0 0 0-13.32-15.96.98.98 0 0 1-.39-1.52"/><path fill="#ffddc0" d="M533.47 153.95q0 .51-.15 1.01c1.6.06 3.02.1 4.1-.07 1.91-.3 3.86-1.39 5.68-2.47l-1.16-.01-.33.29c-.8.6-1.88 1.26-2.9 1.42-1.1.17-1.64-.1-1.82-.63l-.35.69c-1.39.82-2.53.53-3.07-.23m-.3-1.62.07-.5-.12.36zm-20.46 20.38c-.64-1.02-1-2.2-1.63-3.24-1.05-1.75-2.73-3-4.37-4.2 1.98-2.44 6.12-1.32 8.7-3.12.93-.65 1.57-1.63 2.23-2.56a37 37 0 0 1 3.76-4.47l-1.98 1.36c2.97-3.27 6.23-6.5 9.99-6.86l-.69.47q.74-.15 1.46-.08c.58-2.3 1-4.85 5.08-4.1l-.68 1.97q.56-1 1.3-1.67c1.57-1.38 4.57-.58 4.6.29l-.18.35q.62-.54 1.34-.84c2.04-.8 4.24-.23 6.42.83l-.02.02c1.3.04 3.14.6 4.05 1.21 1.4.93 1.23 2.17.96 4.46l-1.83-.02c-.64 1.22-2.54 2.25-3.29 3.02-1.5 1.55-2.71 2.88-4.33 4.1l1.12.49c1.3.58 2.7 1.22 4.1.96l.36-.19c-.5 1.03-1.2.96-2.63 1.37l.35-.18c-1.62.48-3.45.52-5.1.99-1.84.52-3.49 1.6-5.31 2.17-1.62.5-9.63 3.62-12 5.82-1.16 1.07-3.53 2.22-4.55 3.42-.59.7-2.63 2.59-3.52 2.77-1.32.26-3.05-3.49-3.7-4.54"/><path fill="#a0a0a0" d="m544.19 159.33 21.2 5.87q.8.22 1.38.8c.35.36.68.68.9.87.73.6 2.15 2.4 3.45 3.93 1.55 1.84 3.13 2.8 6.86 2.94 2.99.11 6.5-2.82 7.78-3.98a.3.3 0 0 0-.18-.51l-7.33-.49a7.05 7.05 0 0 1-.78-8.6l.62-.97q.1-.16.28-.16l6.95-.07c.28 0 .4-.35.18-.52a25 25 0 0 0-6.59-3.76c-3.87-1.37-6.06.27-7.88 1.45-.33.21-.8.47-1.23.68-.65.33-1.4.4-2.1.21l-16.38-4.54c-2.15 2.5-4.97 4.36-7.13 6.85m-35.92-3.17c4.39 1.55 6.87-.31 8.93-1.65.85-.56 2.11-1.05 2.93-1.34q.8-.28 1.61-.06l7.02 1.95c.71-.32 1.46-.56 2.16-.9-.29-.67-.76-1.25-1-1.95a4.4 4.4 0 0 1-.07-2.31 14 14 0 0 1 1.04-3.07l-6.85-1.9q-.62-.17-1.05-.63a29 29 0 0 0-1.99-1.96c-.82-.68-2.42-2.72-3.9-4.46-1.76-2.1-3.55-3.17-7.78-3.33-3.39-.13-7.37 3.2-8.81 4.51-.22.2-.09.56.2.58l8.31.55a8 8 0 0 1 .88 9.76l-.7 1.1a.4.4 0 0 1-.32.17l-7.88.07c-.31 0-.45.4-.2.6a29 29 0 0 0 7.47 4.27"/><path fill="#1d1d1b" d="M544.72 159.07a1 1 0 0 1 1.03-.33l19.9 5.52q1.04.29 1.81 1.06a26 26 0 0 1 3.44 3.7l.96 1.15c1.37 1.62 2.69 2.46 6.16 2.6 1.95.07 4.3-1.47 5.8-2.66l-5.64-.37a1 1 0 0 1-.65-.31 8 8 0 0 1-.88-9.8l.62-.97c.24-.37.64-.6 1.09-.6l4.87-.05c-1.24-.82-2.9-1.8-4.64-2.41-3.23-1.14-5.02.03-6.76 1.17l-.26.18q-.47.3-1.33.74a4 4 0 0 1-2.8.27L552 153.7a.98.98 0 1 1 .52-1.89l15.43 4.28q.72.2 1.4-.14.76-.38 1.14-.63l.26-.17c1.83-1.2 4.33-2.85 8.48-1.38a26 26 0 0 1 6.86 3.9 1.27 1.27 0 0 1-.77 2.28l-6.6.07-.44.67a6.1 6.1 0 0 0 .42 7.13l6.93.46a1.27 1.27 0 0 1 .78 2.21c-1.44 1.32-5.15 4.36-8.48 4.24-4.15-.16-5.92-1.32-7.57-3.29l-.98-1.16a26 26 0 0 0-2.34-2.65q-.33-.28-.98-.92a2 2 0 0 0-.95-.56l-19.9-5.51a.98.98 0 0 1-.5-1.56m-45.22-19.36c.17.5.62.84 1.15.88l7.9.53a7 7 0 0 1 .53 8.28l-.53.82-7.55.07a1.31 1.31 0 0 0-.8 2.35 29 29 0 0 0 7.74 4.41c4.64 1.64 7.45-.2 9.5-1.55l.3-.2a14 14 0 0 1 2.72-1.23 1.7 1.7 0 0 1 1.02-.04l6.65 1.84a.98.98 0 1 0 .53-1.88l-6.66-1.85a3.6 3.6 0 0 0-2.2.08c-.92.33-2.21.85-3.14 1.45l-.3.2c-1.99 1.3-4.04 2.65-7.76 1.34-2.17-.77-4.2-2-5.64-2.98l5.93-.06c.46 0 .89-.24 1.13-.62l.7-1.1a9 9 0 0 0-.98-10.95 1 1 0 0 0-.65-.31l-6.73-.45c1.7-1.38 4.56-3.33 6.93-3.24 3.98.15 5.5 1.12 7.07 2.98l1.09 1.31a30 30 0 0 0 2.93 3.28c.2.16.7.6 1.9 1.88q.63.65 1.5.9l6.27 1.73a.98.98 0 1 0 .52-1.88l-6.26-1.74a1.3 1.3 0 0 1-.61-.36 29 29 0 0 0-2.07-2.04 32 32 0 0 1-2.69-3.03l-1.08-1.3c-1.85-2.2-3.84-3.5-8.5-3.69-3.72-.14-7.89 3.3-9.5 4.77l-.14.15a1.3 1.3 0 0 0-.22 1.25"/><path d="M522.69 155.4a1 1 0 0 1 .4-.3c3.36-1.36 7.18-1.23 10.25-1.12 1.57.06 2.94.1 3.93-.05 1.97-.32 4.13-1.62 6.04-2.77q1.33-.81 2.53-1.45c1.12-.56 3.5-1.04 5.08-.3q1.15.54 1.45 1.74c.44 1.88-1.4 3.26-2.74 4.26-.4.3-.78.59-.99.8l-.61.64c-1.62 1.68-3 3.13-5.2 4.5-1.86 1.19-4.83 1.92-7.7 2.62-2.3.57-4.68 1.15-6.14 1.91a.98.98 0 0 1-.9-1.73c1.66-.87 4.05-1.46 6.58-2.08 2.71-.67 5.52-1.36 7.13-2.37a25 25 0 0 0 4.82-4.2l.62-.65c.31-.33.75-.65 1.22-1 .8-.6 2.15-1.62 2-2.25-.03-.15-.1-.3-.37-.43-.84-.39-2.6-.1-3.37.3-.74.36-1.55.85-2.4 1.37-2.06 1.24-4.4 2.64-6.74 3.02-1.18.19-2.63.14-4.31.08-2.89-.1-6.47-.23-9.45.98a.98.98 0 0 1-1.13-1.52m-6.23 21.45c.32-.38 7.7-9.17 16.6-11.42 3.57-.95 8.2-2.23 12.22-3.77.77-.3 1.38-.44 1.87-.56.88-.2.97-.26 1.14-.62a.98.98 0 0 1 1.77.85c-.6 1.23-1.5 1.45-2.46 1.67-.46.11-.97.24-1.62.49-4.12 1.57-8.8 2.87-12.43 3.83-8.29 2.1-15.5 10.68-15.58 10.77a.98.98 0 0 1-1.51-1.24"/><path d="M541.7 149.58c.62-.75 1.4-1.4 2-1.84a10 10 0 0 1 3.33-1.77c1.5-.35 4.3.42 5.6 1.3 1.9 1.25 1.69 2.96 1.4 5.33a1 1 0 0 1-1.09.88.95.95 0 0 1-.86-1.06v-.05c.3-2.37.28-2.94-.53-3.47-.98-.66-3.23-1.22-4.06-1.02a8 8 0 0 0-2.63 1.44c-1.34.98-2.13 2-2.17 2.47.32.4.3.96-.06 1.32a.97.97 0 0 1-1.38 0 1.7 1.7 0 0 1-.48-.87c-.17-.92.28-1.85.94-2.66"/><path d="M538.5 147.3a7 7 0 0 1 2.77-2.2c2.05-.81 4.34-.54 7.2.86a.98.98 0 1 1-.85 1.76c-2.34-1.14-4.13-1.4-5.62-.8-1.69.67-3.22 3.13-4 5.27-.24.66-.2.93-.19.99.02-.01.23.05.75-.03q.98-.16 2.46-1.24a.98.98 0 1 1 1.16 1.57 8 8 0 0 1-3.32 1.6q-1.8.28-2.57-.67c-.82-1-.3-2.42-.13-2.9.2-.54.98-2.54 2.34-4.22"/><path d="M532.16 152.53a2.8 2.8 0 0 0 1.25 2.7c1 .64 2.33.56 3.63-.2a.98.98 0 1 0-1-1.69c-.63.37-1.22.46-1.58.23-.26-.16-.39-.48-.35-.86.19-1.97 1-4.52 2.42-5.76.88-.78 2.56-.49 3-.18a.98.98 0 0 0 1.93-.3c-.02-.38-.2-1.1-1.34-1.59-1.4-.6-3.53-.6-4.89.6q-.38.35-.74.78c-1.44 1.77-2.15 4.38-2.33 6.26"/><path d="M530.65 146.22c.85-1.06 2.27-1.73 4.78-1.27.53.1.88.6.78 1.14s-.6.88-1.14.78c-2.97-.54-3.3.81-3.86 3.05l-.23.87c-.15.56-.02 1.17.34 1.52q.42.42 1.07.21a.98.98 0 0 1 .58 1.87c-1.12.35-2.21.1-3.01-.67a3.5 3.5 0 0 1-.86-3.45l.2-.82c.26-1.01.58-2.28 1.35-3.23m-24.92 18.53q.15-.19.38-.28c.06-.03 6.2-2.7 7.96-3.7a54 54 0 0 0 3.5-3.7c1.3-1.45 2.63-2.94 4.06-4.28a.98.98 0 1 1 1.34 1.43 62 62 0 0 0-3.94 4.16 54 54 0 0 1-3.72 3.9l-.16.12c-1.74 1.03-8 3.75-8.27 3.87a.98.98 0 0 1-1.15-1.52M298.4.66a.98.98 0 0 1 1.6.12c.03.04 2.73 4.6 6.96 10.23 3.52 4.69 11.72 20.19 20.4 36.6 2.08 3.96 4.2 7.97 6.29 11.89 14.37 27.01 21.68 35.23 21.75 35.3a.98.98 0 0 1-1.45 1.31c-.3-.32-7.5-8.4-22.03-35.7-2.09-3.91-4.2-7.92-6.3-11.88-8.64-16.35-16.8-31.78-20.22-36.34a124 124 0 0 1-7.09-10.42 1 1 0 0 1 .09-1.11m23.64-29.2.04-.05a1 1 0 0 1 1.39-.05c.07.06 7.24 6.7 15.11 14.26 9.1 8.73 29.97 27.78 36.78 33.82a60 60 0 0 0 12.21 8.48.98.98 0 0 1-.85 1.77 61 61 0 0 1-12.66-8.79 1949 1949 0 0 1-36.83-33.87 1353 1353 0 0 0-15.1-14.24 1 1 0 0 1-.09-1.33M422.9-12.5a1 1 0 0 1 1.19-.28c.74.34.85.4-.02 6.4-.93 6.38-2.8 17.44-5.54 32.86-3.9 21.8-6.58 38.44-6.61 38.6a.98.98 0 0 1-1.93-.3 2570 2570 0 0 1 6.61-38.64c5.67-31.77 6.12-36.92 6.13-37.75a1 1 0 0 1 .18-.9"/><path d="M390.7-38.6a.98.98 0 0 1 1.69.93c-.02.03-.8 2.37-4.77 15.35-4.06 13.27-13.4 35.11-14.28 37.04a.98.98 0 0 1-1.78-.81c.87-1.92 10.16-23.63 14.19-36.8 3.99-13.05 4.75-15.31 4.77-15.4a1 1 0 0 1 .17-.3m21.91 215.17.19-.18a1 1 0 0 1 1.36.22c3.24 4.49 5.17 10 5.43 15.53a.98.98 0 1 1-1.96.1 27 27 0 0 0-5.05-14.48 1 1 0 0 1 .03-1.19"/><path fill="#fff" fill-rule="evenodd" d="M456.4 191.88c-2.12 2.47-3.72 5.42-3.72 5.42s-4.25-5.56-1.47-9.37c3.14-4.19 9.75-.33 9.75-.33s-2.35 1.9-4.56 4.28"/><path d="M455.67 191.2q0 .03-.03.04a35 35 0 0 0-3 4.2c-.97-1.7-2.24-4.75-.65-6.92 1.8-2.43 5.3-1.47 7.18-.7-.9.8-2.21 2.01-3.5 3.39m-5.26-3.85c-3.17 4.35 1.3 10.3 1.49 10.55a.98.98 0 0 0 1.64-.13 34 34 0 0 1 3.58-5.24 50 50 0 0 1 4.45-4.17.98.98 0 0 0-.12-1.6c-.3-.18-7.22-4.14-10.88.4zm40.46-16.32q.31-.37.66-.7.3-.28.64-.66c.9-1 1.99-1.66 3.14-2.36.99-.6 2.01-1.22 3.03-2.13q.29-.26.58-.62c.27-.32.57-.69.96-1 2.16-1.68 5.14-.57 7.21 1.03 3.96 3.05 6.74 7.44 9.19 11.31l.26.42c.73 1.12 1.26 1.94.93 3.76-.31 1.7-1.98 3.14-3.2 4.2l-.23.2a49 49 0 0 0-3.83 3.73c-.7.74-1.55 1.63-2.73 2.82-.93.95-2.84 2.22-5.09.02l-.09-.09a1 1 0 0 1-.11-1.37.97.97 0 0 1 1.34-.15q.1.07.23.21c.68.66 1.27 1.08 2.33 0 1.16-1.17 2-2.06 2.7-2.8a52 52 0 0 1 3.96-3.85l.25-.2c.94-.82 2.36-2.05 2.54-3.07.2-1.06.02-1.33-.64-2.35l-.27-.43c-2.48-3.92-5.05-7.97-8.73-10.81-1.42-1.1-3.54-2.03-4.81-1.03a5 5 0 0 0-.67.7q-.35.43-.78.84a22 22 0 0 1-3.31 2.33c-1.07.66-2 1.22-2.71 2q-.38.42-.71.74c-.78.77-.78.77-.4 1.3a.98.98 0 0 1-1.57 1.16c-1.05-1.42-.68-2.38-.07-3.15m-71.84 86.31q.21-.27.58-.34a1 1 0 0 1 1.14.77l1.55 8.06a.98.98 0 1 1-1.92.37l-1.55-8.06a1 1 0 0 1 .2-.8m-6.27.35a.98.98 0 0 1 1.73.66l-.53 9.15a.98.98 0 0 1-1.95-.1l.53-9.16q.03-.32.22-.56m-6.03-.85a.98.98 0 0 1 1.71.86l-1.92 7.57a.98.98 0 0 1-1.9-.49l1.93-7.57a1 1 0 0 1 .18-.37"/></g><g transform="translate(159.22 117.6)"><g id="right-gear" stroke-width=".58"><path id="right-gear-fill" fill="#76bdb1" d="M485.03 308.9c-7.4-1.5-20.27-5.65-26.17-8.43-4.91-2.3-5.56-3.78-5.49-12.4a80 80 0 0 1 1.46-14c1.94-10.26 2-10.72 1.66-11.62-.17-.43-2.03-1.67-4.14-2.74-4.28-2.17-12.65-7.98-19.45-13.5-2.46-1.99-4.82-3.62-5.24-3.62-.43 0-4.4 1.4-8.8 3.13-8.49 3.3-13.67 4.99-15.34 4.99-4.96 0-19.15-25-23.7-41.73-1.63-6.03-1.55-9.33.28-11.5 1.86-2.21 9.09-5.94 15.36-7.92 12.17-3.84 11.8-3.38 9.99-12.68-.8-4.09-1.4-9.98-1.63-16.03-.3-7.69-.55-9.78-1.32-10.64-.52-.6-5.45-4.2-10.96-8.01-10.01-6.94-11.73-8.66-11.73-11.7 0-1.91 4.74-20.73 7.59-30.12 2.86-9.45 4-10.84 8.98-10.84 5.17 0 11.14 1.15 17.23 3.31 6.02 2.14 8.02 2.18 9.09.2 1.87-3.51 10.8-14.24 18.39-22.13 3.23-3.36 4.8-5.44 4.8-6.35 0-.75-1.8-5.15-4-9.79-5.47-11.5-7-15.76-7-19.46 0-2.86.14-3.19 2.17-4.76 5.31-4.13 19.1-11.56 31.99-17.24 9.13-4.03 12.86-4.99 14.97-3.85 1.11.59 7.68 12.8 7.68 14.28 0 .37 1.98 2.8 4.4 5.4 4.9 5.29 4.17 5.08 12.12 3.5 1.6-.31 7.1-.56 12.25-.54 6.8.03 9.5-.16 9.92-.69.32-.4 2.79-5.03 5.49-10.3 5.95-11.6 7.52-14.14 9.56-15.48 2.99-1.95 5.95-1.44 34.01 5.91 6 1.57 10.8 3.58 13.34 5.58 2.26 1.77 5.43 6.87 6.1 9.81.88 3.76.73 12.05-.25 14.77a29 29 0 0 0-1.18 4.93l-.34 2.61 5.91 4.92a167 167 0 0 1 12.3 11.74c5.22 5.57 6.68 6.82 8.01 6.82.9 0 4.58-1.08 8.18-2.39l10.33-3.75c6.53-2.37 11.04-1.7 13.79 2.03 5.4 7.34 18.88 32.02 19.39 35.52.47 3.2-.56 5.37-4.23 8.95-11.08 10.8-16.49 16.67-16.43 17.83.04.68.4 3.71.8 6.74.7 5.33.55 16.15-.35 24.77-.36 3.47-.31 3.66 1.35 5.22.95.89 4.31 3.02 7.47 4.74 13.55 7.37 15.96 9.6 16.34 15.04.33 4.61-4.45 28.18-6.9 34.1-1.77 4.23-1.95 4.44-5.04 5.85-4.39 2.01-10 1.97-21.3-.15-4.8-.9-9.37-1.46-10.15-1.26-1.02.28-2.75 2.52-6.24 8.09a103 103 0 0 1-12.1 15.69c-8.43 9.25-8.04 7.65-4.5 18.93 3.27 10.35 3.57 11.98 2.55 13.8-1.53 2.73-5.99 5.46-22.84 14-15.15 7.67-16.84 8.4-20.17 8.6-3.3.2-3.84.06-6.04-1.54-2.01-1.47-3.07-3.08-6.2-9.48-2.07-4.23-4.24-8.28-4.82-8.98-1.72-2.09-4.08-3.02-6.17-2.45-4.73 1.28-12.97 2.32-20.93 2.63-6.14.24-9 .57-9.62 1.13-.49.43-2.58 3.98-4.64 7.87-4.48 8.46-9.76 14.5-13.6 15.53-3.53.94-8.56.67-16.24-.9zm61.23-66.58c11.48-2.02 25.42-7.95 34.46-14.65 16.48-12.22 27.87-30.36 32.51-51.75 1.49-6.86 1.5-23.7.01-30.72-3.49-16.56-10.73-30.38-22.12-42.24-12.1-12.6-25.24-20.22-41.56-24.13-7.26-1.74-17.83-2.79-23.35-2.32-22.53 1.9-40.25 9.83-55.3 24.76-24.37 24.17-31.37 60.48-17.83 92.55 5.2 12.33 15.13 25.07 25.86 33.18 6.58 4.97 23.7 11.97 34.6 14.15 10.57 2.12 24.5 2.61 32.72 1.17"/><path id="right-gear-outline" d="M486.6 314.81c-8.43-1.55-21.4-5.09-25.12-6.85a21.6 21.6 0 0 1-9.67-9.7c-1.38-2.83-1.56-4.04-2.06-13.75-.3-5.85-.38-12.73-.19-15.28l.35-4.64-4.26-2.74c-4.47-2.86-7.6-5.27-12.83-9.85l-3.14-2.75-5.16 1.69c-9.26 3.01-17.98 5.25-20.5 5.25-4.98 0-7.92-2.54-13.3-11.48a108 108 0 0 1-5.27-10.36c-1.37-3.13-4.4-9.94-6.76-15.13-6.45-14.2-6.46-17.73-.07-23.64 2.72-2.53 5.7-4.35 12.86-7.9 5.13-2.54 9.32-4.93 9.31-5.3s-.36-3.4-.8-6.73c-.5-3.86-.69-8.85-.5-13.76l.3-7.71-9.48-6.15c-5.2-3.39-10.36-7.14-11.45-8.34-3.84-4.26-4.37-9.12-2.16-20.03 3.15-15.53 5.4-23.26 7.76-26.79 4.55-6.76 10.2-7.71 29.03-4.87l6.9 1.04 1.8-2.62c3.26-4.73 8.55-11.1 13.35-16.11l4.74-4.93-1.97-4.45c-4.68-10.6-8.9-21.81-9.21-24.47-.69-5.76 2.37-10.07 10.6-14.96 3.7-2.2 14.27-7.27 30.38-14.59 14.51-6.58 17.57-5.18 26.7 12.25 5.72 10.91 4.36 10.1 14.13 8.35 3.92-.71 7.34-.95 10.74-.76l5 .29 3.1-5.4a161 161 0 0 0 5.28-10c2.82-5.99 4.34-8 7.5-9.85C544.73.5 545.96.24 550.7.05c7.32-.3 13.17.86 26.3 5.2 17.4 5.76 23.12 9.1 26.12 15.22 1.31 2.68 1.52 3.84 1.5 8.51 0 5.27-.4 11.76-.95 15.35-.25 1.66.14 2.1 6.1 6.88 3.5 2.82 8.24 7.24 10.53 9.83s4.39 4.8 4.66 4.9 4.99-1.28 10.47-3.1c8.24-2.73 10.48-3.26 12.92-3.06 8.6.72 15.23 7.68 23.91 25.1 1.6 3.19 3.88 8.4 5.1 11.6 1.9 4.99 2.2 6.48 2.24 10.73.07 7.76-.91 9.24-11.4 17.1-5.34 3.99-8.42 6.66-8.24 7.15 1.58 4.45 2.26 24.02 1 28.96l-.62 2.5 2.98 2.37a190 190 0 0 0 10 6.97c4.9 3.22 7.45 5.3 8.52 6.95 4.21 6.5 3.25 17.16-3.18 35.24-4.9 13.75-8.3 18.15-15.02 19.42-1.12.2-6.28-.16-11.46-.83-12.96-1.65-14.07-1.62-15.3.48-2.15 3.64-9.64 12.81-14.84 18.19l-5.49 5.66 1.01 4.77c.56 2.63 1.65 6.98 2.42 9.68 3.24 11.29 1.42 16.12-8.6 22.77-11.17 7.43-31.45 15.6-38.75 15.62-6.86.02-12.72-5.34-18.42-16.81-2.63-5.3-2.72-5.4-4.42-5.06a68 68 0 0 1-17.72 1.25l-7.28-.35-3.67 5.94-6.26 10.15c-2.97 4.82-6.6 8.28-9.81 9.34-3.8 1.26-12.05 1.32-18.45.14m17.32-7.8c1.57-1.03 3.46-3.76 10.71-15.5 6.3-10.2 4.98-9.52 18.54-9.52 9.17 0 12.39-.22 16.43-1.13 4.31-.96 5.16-1 6-.32.53.45 2.54 3.95 4.46 7.8 4.35 8.67 6.44 11.63 9.52 13.43 2.11 1.24 2.7 1.34 4.94.84 12.1-2.7 34.2-13.4 38.18-18.45 1.52-1.93 1.5-5.84-.04-10.83-1.82-5.88-3.42-13.65-3.43-16.63-.02-2.64.07-2.76 6.54-9.27 6.6-6.64 13.75-15.6 15.94-19.98 1.73-3.44 2.55-3.94 5.77-3.5 1.51.2 5.23.6 8.25.9 3.03.28 7.93.84 10.88 1.25 4.71.64 5.6.62 7.29-.18 2.52-1.2 5.2-6.34 8.71-16.69 4.26-12.56 5.42-22.16 3.1-25.7-.52-.78-4.67-3.93-9.22-7-12.54-8.43-13.48-9.19-13.7-11.05-.1-.9.26-3.87.8-6.62 1.17-5.88.88-18.35-.57-24.12a32 32 0 0 1-.89-4.78c-.03-1.97 3.32-5.28 11.51-11.4 4.08-3.05 7.71-6.21 8.08-7.03 1.12-2.44.79-5.87-1.1-11.49-2.9-8.68-10.84-23.93-14.65-28.14-2.03-2.25-6.27-4.7-8.14-4.7-.95 0-6.48 1.56-12.29 3.48-5.8 1.91-11.2 3.48-12 3.48-.98 0-1.95-.69-3.07-2.18-3.15-4.2-10.45-11.32-16.19-15.78a96 96 0 0 1-7.16-5.99l-1.37-1.48.98-10.17c.54-5.6.8-11.03.58-12.07-1.1-5.19-4.16-7.57-14.89-11.56-14.82-5.52-27.54-8.53-32.75-7.75-3.81.58-5.46 2.44-9.65 10.88-2.1 4.23-5 9.73-6.47 12.22l-2.67 4.53-7.36-.4c-7.42-.39-14.94.47-20.4 2.34a6.7 6.7 0 0 1-3.96.18c-1.72-.46-2.21-1.1-4.47-5.85-3.01-6.32-8.14-15.67-9.99-18.23-.73-1-1.82-1.97-2.42-2.17-1.41-.44-6.37 1.56-22.35 9.02-19.33 9.04-23.48 11.76-23.48 15.4 0 1.7 3.03 9.63 9.72 25.43.8 1.91 1.59 4.54 1.74 5.84.26 2.28.14 2.47-3.04 5.2-4.48 3.82-13.09 13.88-16.94 19.79-3.69 5.66-4.7 6.38-7.67 5.48-3.35-1-17.72-2.97-21.67-2.97-4.5 0-7.2 1.3-8.65 4.15-2.36 4.61-7.95 30.67-7.22 33.6.68 2.7 2.68 4.46 11.27 9.9 4.68 2.96 9.6 6.43 10.93 7.71l2.42 2.32-.3 10.46c-.28 9.26-.16 11.2.98 16.92.7 3.56 1.13 6.96.94 7.56-.23.7-4.15 2.92-11.39 6.42-12.67 6.13-16.2 8.76-16.2 12.1 0 1.27 2.03 6.6 5.54 14.56 6.81 15.46 9.5 20.83 12.65 25.31 2.02 2.88 2.77 3.51 4.32 3.67 1.96.19 8.06-1.4 19.1-4.94 8.19-2.63 8.95-2.46 15.8 3.66a103 103 0 0 0 10.14 7.8c8.72 5.7 8.55 5.52 8.2 8.6-.96 8.34.04 28.83 1.55 31.74 1.82 3.52 5.2 5.84 11.24 7.7 5.2 1.61 15.95 4.2 20.17 4.87 4.02.63 12.28.06 13.83-.96m-7.37-3.18a4.2 4.2 0 0 1-.96-2.43c0-1.48 7.54-15.7 9.46-17.82 2.22-2.47 6.19-1.06 6.19 2.2 0 1.53-7.53 15.71-9.44 17.8-1.45 1.58-3.94 1.7-5.26.25m108.36-20.47c-1.8-1.41-1.94-3.54-.34-5.14 2.25-2.25 5.81-.8 5.8 2.36-.02 1.88-.59 2.67-2.43 3.37-1.26.48-1.83.37-3.04-.59m-3.64-9.34c-1.65-1.82-4.35-10.31-4.12-13 .14-1.67.55-2.4 1.75-3.06 2.5-1.4 4.36.4 6.26 6.09 2.45 7.3 2.53 8.21.88 9.85-1.76 1.77-3.23 1.8-4.77.12m-71.35-14.67c-1.5-1.06-1.78-4.35-.46-5.45.46-.38 2.6-.93 4.78-1.24 4.87-.68 7.14-1.4 11.09-3.48 4.06-2.15 6.49-1.39 6.49 2.05 0 3.16-4.13 5.87-12.02 7.9-5.32 1.35-8.17 1.42-9.88.22m-40.33-9.44c-1.43-1.58-1.22-3.96.46-5.06 1.71-1.12 3.49-.68 4.7 1.16 2.14 3.27-2.53 6.8-5.16 3.9m31.5-5.4c-13.04-1.33-27.09-6.51-38.82-14.33-6.18-4.1-15.8-13.32-20.68-19.77-3.96-5.25-10.37-17.53-12.42-23.79-3.14-9.57-4.92-22.84-4.3-31.88 2.79-39.76 30.74-71.44 69.85-79.14 7.56-1.49 22.3-1.8 28.6-.62 9.5 1.8 22.16 7.24 32.75 14.07 5.79 3.73 16.06 12.17 19.74 16.22 8.44 9.29 15.47 24.3 18.43 39.32 1.54 7.8 1.39 24.12-.28 31.75-6.71 30.56-27.93 54.57-56.67 64.13a85.5 85.5 0 0 1-36.2 4.05m17.1-7.46c18.12-2.01 34.4-9.74 46.9-22.28q16.21-16.22 21.31-39.2c1.78-8.01 1.93-23.7.3-31.13-1.88-8.6-5.1-17.09-9.02-23.8-10.5-17.95-37.16-35.75-57.4-38.33-36.59-4.65-71.28 16.61-83.46 51.16-3.15 8.9-4.3 15.8-4.34 25.9-.07 16.5 4.12 30.42 13.25 44.03 3.4 5.08 11.14 13.38 16.16 17.35 15.75 12.45 36.6 18.49 56.3 16.3m37.56 7.53c-3.06-1.22-1.8-6.36 1.56-6.36 1.76 0 3.5 1.73 3.5 3.5 0 2.24-2.73 3.78-5.06 2.86m-171.94-2.9c-1.78-1.4-1.96-2.64-.63-4.52 1.34-1.92 4.78-1.58 6 .6.8 1.44.78 1.69-.33 3.19-1.54 2.06-3.07 2.28-5.04.73m9.5-3.83c-2.44-3.1-1.08-4.7 6.22-7.39 6.57-2.41 7.8-2.54 9.39-.94 1.46 1.46 1.48 3.58.05 4.88-1.33 1.2-11.28 4.98-13.13 4.98-.75 0-1.86-.67-2.53-1.53m48.88-9.25c-4.9-3.28-10.37-9.67-11.01-12.87-.27-1.3-.05-2.04.87-2.96 2.2-2.2 3.75-1.61 7.24 2.76a40 40 0 0 0 6.06 6.1c3 2.2 3.57 3.04 3.57 5.3 0 1.44-1.92 3.17-3.53 3.17-.52 0-1.96-.68-3.2-1.5m132.86-2.89c-1.65-1.64-1.1-3.95 1.78-7.45 1.49-1.8 3.9-5 5.37-7.11 2.9-4.2 4.35-5.09 6.5-4.03 2.35 1.17 2.2 4.46-.4 8.4-2.49 3.77-6.3 8.61-7.94 10.09-1.4 1.26-4.1 1.31-5.31.1m-156.66-26.7c-.9-1.35-.9-1.67-.14-3.03 1.64-2.95 6.32-1.97 6.32 1.32 0 3.16-4.43 4.4-6.18 1.72m230.49-7.03-6.09-4.1c-2.52-1.7-6.23-4.02-8.24-5.14-4.39-2.46-5.76-4.23-4.98-6.44a3.8 3.8 0 0 1 2.17-2.11c1.9-.67 4.47.51 12.95 6 9.55 6.17 11.63 8.9 8.88 11.65-1.43 1.42-2.73 1.46-4.7.14m-52.32-2.94c-1.26-1.39-1.22-3.16.1-4.36 2.18-1.97 5.9-.5 5.9 2.33 0 2.71-4.13 4.1-6 2.03m-180.53-9.69c-1.9-1.33-3.61-7.62-4.01-14.74-.5-8.87.69-12.34 4.2-12.34 2.83 0 3.18 1.02 3.37 9.77.12 5.63.46 8.84 1.12 10.67 1.24 3.4 1.21 5.4-.1 6.58-1.32 1.2-2.94 1.22-4.58.06m185.48-16.83c-1.27-.89-1.3-1.17-1.11-8.7.17-6.89.32-7.87 1.32-8.63 1.65-1.25 3.02-1.08 4.69.6 1.45 1.45 1.48 1.63 1.28 8.34-.17 5.75-.39 7.06-1.31 8.08-1.32 1.45-3.08 1.56-4.87.3m-220.25-22.53c-6.3-3.02-15.07-8.32-15.46-9.35-1.06-2.75.47-5.47 3.06-5.47.71 0 3.5 1.3 6.21 2.9s6.48 3.7 8.39 4.66c1.9.96 3.98 2.27 4.6 2.9a3.56 3.56 0 0 1-1.48 6c-.73.22-2.74-.4-5.32-1.64m36.3-8.07c-1.73-.86-2.19-3.84-.8-5.23 2.1-2.1 5.5-.54 5.5 2.51 0 2.52-2.36 3.88-4.7 2.72m173.77-12c-1.84-1.45-1.99-3.57-.37-5.18 1.62-1.62 3.73-1.47 5.17.36 1.56 1.98 1.52 2.85-.22 4.6-1.73 1.73-2.6 1.77-4.58.21m-160.82-8.4c-2.97-2.08-.76-6.86 7.12-15.42 7.48-8.13 10.93-10.1 13.24-7.55 1.93 2.13 1.22 3.5-5.3 10.2-3.45 3.53-7.14 7.72-8.2 9.32-3.04 4.55-4.35 5.2-6.86 3.44M593.7 96.67a47 47 0 0 0-10.7-9.58c-3.39-2.24-4.26-3.12-4.41-4.43-.24-2.04 1.3-3.87 3.24-3.87 4.04 0 16.1 9.6 18.07 14.39.71 1.73.67 2.07-.37 3.48-1.74 2.34-3.92 2.34-5.84 0m32.38-11.87c-2.25-2.86-1.2-4.39 4.95-7.23 5.6-2.59 7.32-2.78 8.6-.97 2.16 3.1.6 5.16-5.98 7.93-5.19 2.2-6.04 2.22-7.57.27M481.97 79c-1.45-1.45-.91-4.34 1.01-5.42 1.43-.8 1.76-.8 3.19 0a3.37 3.37 0 0 1-1.64 6.36c-.89 0-2.04-.42-2.55-.94m161.83-1.28a3.51 3.51 0 0 1 2.62-5.9c2.96 0 4.51 4.01 2.31 6-1.4 1.27-3.74 1.22-4.93-.1m-88.37-4.48c-2.52-1.76-1.17-6.05 1.9-6.05s4.41 4.3 1.9 6.05c-.71.5-1.57.9-1.9.9-.34 0-1.2-.4-1.9-.9m-48.09-1.42c-1.44-.59-2.2-2.77-1.68-4.85 1.02-4.07 17.87-6.15 20.2-2.5.78 1.23.48 3.68-.56 4.59-.7.61-2.72.97-6.53 1.16-3.51.17-6.18.62-7.36 1.23-2.08 1.07-2.27 1.09-4.07.37m-52.91-7.68c-1.77-.87-7.44-11.98-7.5-14.69-.07-3.22 3.83-5 5.9-2.7.5.56 2.25 3.92 3.88 7.48 2.46 5.38 2.86 6.7 2.4 7.93a4.5 4.5 0 0 1-1.72 2.1c-1.4.74-1.2.75-2.96-.12m-11.27-22.21a3.4 3.4 0 0 1 .03-4.59c1.43-1.42 4.35-.92 5.38.94.77 1.37.75 1.69-.14 3.04-1.15 1.76-3.81 2.07-5.27.61m96.23-6.17a5 5 0 0 1-.9-2.04c0-1.18 8.68-18.27 10.01-19.72a4 4 0 0 1 2.5-1.3c1.33 0 3.72 2.43 3.72 3.78 0 1.22-8.57 18.12-9.83 19.38-1.6 1.6-4.35 1.55-5.5-.1"/></g><g id="left-gear"><path id="left-gear-fill" fill="#8275bd" d="M442.62 344.73c-1.48 3.4-6.07 6.79-11.7 8.63-3.54 1.16-7.35 3.07-12.07 6.04-6.7 4.23-6.96 4.33-9.13 3.75-3.55-.95-3.66-.57-3.76 13.21-.08 11.38-.98 20.7-2.56 26.68-.3 1.16-.55 3.4-.55 4.98v2.89l4.56 3.85c2.51 2.12 6.18 5.04 8.16 6.5 6.88 5.06 15.69 15.22 15.69 18.1 0 .46.68 1.38 1.53 2.04 1.5 1.19 1.52 1.29 1.16 6.37-.2 2.84-.74 5.86-1.2 6.7-.45.86-1.52 3.9-2.38 6.75-1.65 5.55-5.9 14.13-13.44 27.19-5.9 10.2-8.64 14.01-11.18 15.56-1.12.68-2.6 1.9-3.28 2.73-1.21 1.45-1.46 1.5-7.54 1.43-9.29-.1-23.5-3.76-29.82-7.69a32 32 0 0 0-5.65-2.65c-1.64-.54-3.5-1.65-4.13-2.46-.64-.8-1.51-1.33-1.95-1.16-.44.16-1.9 1.95-3.26 3.97-2.87 4.28-13.77 15.52-20.95 21.64-8.16 6.93-9.97 8.88-9.58 10.33 1.95 7.27 5.58 28.28 5.58 32.29 0 5.11-2.05 6.84-13.92 11.73-16.53 6.8-32.45 11.25-46.37 12.96-12.9 1.57-19.03.35-21.39-4.27-2.9-5.67-6-18.65-6.75-28.25-.83-10.57-1.43-10.99-15.56-10.82-5.78.08-12.07-.15-13.99-.5-1.91-.35-6.6-1.03-10.43-1.5-3.83-.48-7.87-1-9-1.17-2.7-.4-4.06.73-17.75 14.79-6.02 6.19-11.77 11.6-12.8 12.03-3.96 1.69-8.37.77-16.87-3.5a161 161 0 0 0-8.86-4c-8.44-3.49-29.63-14.22-31.36-15.88-2.31-2.2-3.1-5.5-2.22-9.16 1.73-7.13 4.34-14.78 6.15-18.06a87 87 0 0 0 4.3-10.08l2.34-6.5-3.8-3.7c-2.1-2.03-4.13-3.69-4.53-3.69-1.59 0-20.1-21.4-20.1-23.22 0-1.8-4.63-9.27-6.18-9.97-1.04-.48-2.38-.33-5.85.65-2.47.7-6.87 1.9-9.78 2.68-2.9.77-7.08 2.09-9.27 2.92-5.61 2.12-15.74 4.91-17.83 4.91-1.36 0-2.43-.7-4.82-3.18-1.7-1.74-3.08-3.55-3.08-4.02s-1-2-2.23-3.42a28 28 0 0 1-3.82-6.56c-.87-2.19-1.93-4.37-2.36-4.85-1.72-1.94-7.29-19.78-9.81-31.46-1.3-6.01-1.44-7.78-1.2-15 .29-9.08.55-9.76 4.34-11.36 1.1-.47 3.34-2.07 4.97-3.55 5.42-4.94 18.32-10.16 25.21-10.2l3.8-.02.14-6.38c.21-9.52 1.97-19.66 5.87-33.86.7-2.5.34-3.1-3.55-6.05-29.14-22.14-30.06-23-30.06-28.52 0-3.85 3.88-13.8 12.27-31.47a131 131 0 0 0 3.39-7.48c0-1.47 7.03-14.06 9.78-17.51 6.17-7.74 8.8-8.28 24.13-4.96 2.55.56 5.94 1.2 7.54 1.45 1.6.24 5.92.9 9.61 1.48l6.72 1.05 8.64-7.2a232 232 0 0 1 27.35-19.33c2-1.2 3.91-2.72 4.26-3.37.7-1.3-.75-11.89-3.11-22.79a58 58 0 0 1-1.28-11.88c-.02-7.95.78-9.7 5.7-12.43 7.16-3.96 41.47-16.38 50.68-18.33 2.89-.61 5.8-.52 11.6.36 2.76.42 5.58 2.8 6.82 5.75.4.96 1.69 3.32 2.85 5.23q2.12 3.49 1.9 5.03c-.16 1.1 1.15 4.15 4.46 10.44 4.54 8.6 4.75 8.87 6.42 8.74.95-.08 5.68-.15 10.5-.16 9.73-.01 15.52.79 25.43 3.52 12.84 3.54 15.1 4.06 16.4 3.74 2.15-.53 5.73-4.15 12.63-12.76 12.36-15.44 16.97-18.63 24.66-17.07 6.24 1.26 35.7 12.91 42.68 16.87 8.18 4.65 9.7 7.25 9.6 16.43-.06 5.9-1.18 10.5-4.79 19.73-2.03 5.22-2.33 6.58-2.33 10.62 0 4.19-.16 4.82-1.56 6.5l-1.56 1.85 2.87 2.68c1.58 1.48 5.58 5.16 8.89 8.2 6.6 6.02 18.93 20.52 23.3 27.38 1.57 2.44 1.9 2.5 6.42 1.33 1.79-.46 6.47-1.26 10.41-1.76 3.95-.51 7.62-1.17 8.18-1.48.55-.3 2.71-.55 4.8-.55 3.39 0 3.98.18 5.66 1.71 1.02.94 2.76 2.44 3.84 3.32 3.02 2.45 4.48 6.1 11.36 28.3a367 367 0 0 0 3.86 11.89c.64 1.75 2.19 7.2 3.43 12.1 2.4 9.37 2.8 14.13 1.46 17.2zm-94.78.52a124 124 0 0 0-11.72-34.45c-7.06-13.93-17.33-26.98-26.73-33.98-6.04-4.5-18.2-11.97-25.24-15.52-4.93-2.48-14.93-5.98-24.93-8.72-9.85-2.7-15.6-3.66-29.67-4.96-7.2-.66-17.49.35-22.65 2.21a331 331 0 0 1-15.36 4.46c-14.8 4.01-17.52 5.33-33.55 16.3-1 .67-3.78 3.03-6.18 5.23-17.38 15.92-28.28 32.57-35.04 53.53-4.22 13.08-5.76 24.5-5.32 39.42.7 23.27 7.15 43.54 19.93 62.61a96 96 0 0 0 9.9 12.94c15.83 18.13 38.39 31.56 62.43 37.18 6.17 1.45 6.06 1.43 14.9 2.3a117.6 117.6 0 0 0 54.28-7.27c28.4-10.8 50.13-31.28 65.52-61.73 4.67-9.25 7.33-17.44 9.67-29.8 1.24-6.56 1.35-8.48 1.17-20.29-.16-10.05-.49-14.51-1.41-19.46"/><path id="left-gear-outline" stroke-width="5" d="M445.53 344.26a28 28 0 0 1-5.73 7.25c-3.7 3.47-6.28 5.07-24.02 14.99l-4.49 2.51v7c0 9.48-.96 19.16-2.59 26.07l-1.34 5.74 1.82 1.48c3.86 3.12 18.03 17.4 21.39 21.54 7.2 8.89 8.8 15.83 6.3 27.39-1.63 7.47-8.63 22.05-17.2 35.8-9.16 14.7-11.29 16.7-19.31 18.07-5.38.92-12.44-.26-26.46-4.43l-14.3-4.24-3.88-1.13-2.5 3.46c-2.47 3.41-15.67 15.86-24.4 23.01-2.46 2.03-4.49 3.98-4.49 4.34 0 .37.9 3.79 2 7.6a111 111 0 0 1 4.14 21.35l.39 4.56-3.73 3.56c-4.48 4.27-10.72 7.88-21.64 12.52-14.82 6.3-31.33 10.12-51.95 12.02-7.09.66-13.12-2.82-14.58-8.4-.39-1.5-3.19-10.12-6.22-19.16l-5.51-16.44-8.12-.24c-12.02-.36-23.35-1.82-31.32-4.02-.95-.26-2.43 1.07-7.54 6.79-15.99 17.9-16.42 18.33-19.7 19.94-7.26 3.55-14.8 1.37-41.73-12.05-24.36-12.14-26.77-13.96-27.37-20.65a31 31 0 0 1 .37-7.17c1.22-6.43 5.25-18.97 8.25-25.7l2.91-6.54-11.27-11.2c-8.43-8.39-12.31-12.73-15.39-17.2a97 97 0 0 1-4.32-6.65c-.14-.41-2.24.13-5.9 1.53-3.11 1.2-10.53 3.36-16.47 4.82-9.37 2.3-11.35 2.6-14.87 2.33-9.78-.78-13.8-4.08-19.63-16.12-5.5-11.36-10.06-24.6-13.77-39.93C.33 414.41.02 411.43 0 405.62c-.02-7.08.07-7.74 1.57-10.79 3.45-7.02 10.27-11.4 26.52-17.05 11.45-3.98 10.74-3.4 10.54-8.48-.27-7.19 2.52-24.09 5.1-30.88.53-1.4-.04-1.93-12.61-11.98-7.25-5.78-13.9-11.33-14.8-12.34-2.82-3.14-5.17-8.74-5.48-13.06-.34-4.81.82-8.28 8.79-26.15 7.68-17.25 9.2-20.33 13.28-26.88 4.57-7.34 7.07-10.14 10.92-12.25 2.74-1.5 3.69-1.7 8.03-1.71 5.2-.01 26.3 2.6 32.11 3.97l3.42.81 6.55-5.93c7.02-6.35 18.07-14.52 25.21-18.65l4.4-2.53-1.33-7.98c-1.58-9.5-2.78-23.84-2.24-26.77 2.01-10.96 11.94-17.98 37.1-26.24 18.26-6 24.45-7.54 30.44-7.6 11.02-.1 15.05 3.71 25.83 24.51l5.27 10.15 9.52.37c13.4.54 22.92 2.23 33.13 5.9l5.63 2.01 5.18-5.88c9.35-10.63 19.86-20.89 23.27-22.72 2.9-1.56 3.68-1.71 8.7-1.7 6.2.02 5.77-.13 32.75 12.01 19.16 8.63 21.7 10.4 24.14 16.86 2.26 5.94 1.63 15.6-1.92 29.67-.65 2.55-1.77 7.7-2.48 11.43l-1.31 6.8 3.54 2.75c9.32 7.27 20.76 20.53 28.99 33.6.03.05 2-.27 4.4-.71 22.53-4.15 30.1-3.32 34.87 3.83 2.13 3.21 6.81 15.42 9.76 25.49.89 3.03 3.5 11.38 5.8 18.55 3.73 11.66 4.2 13.66 4.46 18.84.28 5.61.23 5.91-1.52 9.37m-6.07-12.27c-.17-1.27-1.53-6.1-3-10.72-1.5-4.63-4.09-12.84-5.78-18.26-7.29-23.38-9.31-28.1-12.5-29.22-2.86-1-10.74-.76-18.28.56-13.72 2.38-13.65 2.37-15.38 1.66-1.01-.42-2.45-2.01-3.76-4.17-2.6-4.27-9.78-14-13.77-18.64-1.62-1.88-6.2-6.28-10.2-9.77-7.7-6.75-8.64-7.93-8.75-10.96-.08-2.21 1.71-11.94 3.45-18.74 1.77-6.9 3.57-17.49 3.54-20.83-.03-3.35-1.1-6.82-2.66-8.53-1.63-1.8-7.26-4.75-18.12-9.49a393 393 0 0 1-13.53-6.14c-10.4-5.25-17.4-6.83-21.56-4.85-1.91.9-14.59 13.53-23.69 23.59-6.46 7.13-6.69 7.2-15.39 4-10.62-3.92-18.7-5.32-32.56-5.68-8.85-.23-12.22-.52-13.2-1.13-1.84-1.17-3.47-3.95-7.92-13.55-4.68-10.1-9.36-17.37-12.37-19.23-3.06-1.89-9.01-1.79-16.37.27-10.32 2.88-28.1 8.94-34.4 11.72-8.52 3.76-12.55 6.8-14.61 11.01l-1.62 3.3.62 8.2c.34 4.52 1.35 12.81 2.23 18.44 1.52 9.61 1.56 10.31.66 11.69a5 5 0 0 1-2.64 1.83c-4.8 1.05-23.24 14.25-31.64 22.65-3.83 3.83-5.9 5.48-6.85 5.48-.75 0-3.7-.5-6.56-1.12a173 173 0 0 0-13.02-2.06c-4.3-.5-9.41-1.17-11.35-1.48-8.02-1.26-11.93-.25-15.13 3.92-4.9 6.38-8.54 13.2-15.6 29.26-2.44 5.52-5.48 12.38-6.77 15.25-3.11 6.9-3.5 11.04-1.4 15.12 2.08 4.08 2.52 4.47 25.48 22.73 3.44 2.73 6.4 5.53 6.56 6.22.18.69-.71 5.4-1.97 10.48-2.87 11.56-3.86 19.52-3.37 27.16.5 7.9.16 8.31-9.03 11-19.47 5.69-27.4 10.08-29.45 16.29-1.14 3.44-.41 12.74 1.64 21.15 3.68 15.07 11.95 36.35 16.32 42.02 2.6 3.38 6.5 5.52 10.05 5.52 4.15 0 18.09-3.69 27.35-7.23 10.52-4.02 12.46-3.83 15.75 1.58 4.94 8.15 12.4 17.1 22.45 26.98 8.1 7.96 10.21 10.34 10.21 11.55 0 .84-1.02 3.63-2.26 6.2-7.75 16.01-11.97 30.7-9.92 34.52.92 1.74 6.93 5.14 23.45 13.31 23.65 11.7 31.12 14.13 35.15 11.47.82-.54 3.95-3.8 6.95-7.22 14.74-16.84 18.15-19.99 21.64-19.95 1 0 4.41.53 7.6 1.17 10.74 2.14 15.03 2.57 26.77 2.67 8.91.08 11.93.29 12.65.9 1.43 1.17 2.99 4.53 4.06 8.72a156 156 0 0 0 4.03 11.85 913 913 0 0 1 4.62 12.47 62 62 0 0 0 3.13 7.24l1.57 2.9 3.76-.18c6.8-.33 19.84-2.41 28.4-4.52 16.4-4.04 38.31-14.37 39.69-18.7.6-1.89-1.32-12.74-3.75-21.25-1.27-4.45-2.48-9.32-2.67-10.81l-.37-2.73 2.79-1.92c8.5-5.87 24-20.81 28.53-27.52 2.98-4.4 4.94-6 7.4-6 1.03 0 4.55 1.06 7.8 2.36 7.66 3.03 19.1 6.73 24.15 7.8 9.94 2.12 14.97 1.68 18.49-1.64 5.47-5.16 21.78-34.93 24.18-44.13 2.51-9.63 1.35-14.78-5.18-22.94-3.8-4.73-14.41-15.34-20.6-20.57-4.21-3.56-4.85-4.65-3.99-6.75.31-.75 1.25-4.34 2.1-7.96 1.3-5.65 1.57-8.48 1.9-20.02.34-11.15.57-13.7 1.38-14.93.59-.9 4.57-3.42 10.14-6.42 13.17-7.08 16.36-9.04 19.51-12 3.8-3.53 5.77-7.58 5.28-10.77zm-7.4 8.64c-2.28 1.6-4.37 1.15-5.6-1.2-1.58-2.99 1.87-6.2 5.03-4.69 2.15 1.03 2.5 4.55.57 5.9m-11.44 7.42c-3.54 3.03-12.26 8-14.03 8-2.2 0-3.52-1.48-3.3-3.7.14-1.42.74-2.16 2.9-3.54 10-6.4 12.44-7.83 13.35-7.83 1.48 0 3.35 2.08 3.35 3.72 0 .92-.8 2.08-2.27 3.35m-24.16 150.42c-2.1 2.1-3.85 1.74-16.87-3.48-14.77-5.91-17.46-7.2-18.58-8.91-.84-1.3-.86-1.63-.12-2.94.46-.8 1.3-1.75 1.85-2.1 1.17-.73.92-.81 16.65 5.7a230 230 0 0 0 13.76 5.31c2.93.86 4.8 2.48 4.8 4.16 0 .42-.66 1.44-1.49 2.26m-32.8-116.04c-.69 5.43-2.71 12.8-3.92 14.3-1.34 1.65-4.02 1.58-5.42-.15-1.23-1.52-1.18-2.1.76-8.93 1.12-3.97 1.32-6.1 1.37-14.69.05-9.24.15-10.11 1.18-10.87 1.55-1.13 2.34-1.04 4.07.48 2.33 2.04 3.16 10.5 1.97 19.86m-2.43-51.18a4.1 4.1 0 0 1-5.16 1.24c-.87-.45-1.61-1-1.63-1.24-.03-.23-.16-1.02-.3-1.75-.29-1.58 2.02-4.17 3.73-4.17 2.67 0 4.9 3.93 3.36 5.92m-11.45 43.47c-2.96 38.45-25.84 74.48-59.65 93.92-57.24 32.9-130.27 13.74-163.83-42.99-20.18-34.1-21.72-76.88-4.06-112.79 6.54-13.29 13.65-22.9 25.08-33.91 18.7-18.02 42.32-29.18 68.59-32.44 7.1-.88 22.67-.74 30.27.26 35.87 4.73 68 25.66 86.84 56.56 9.42 15.44 15.36 34.2 16.78 53.01.67 8.9.67 9.36-.02 18.38m-8.58-28.08c-4.1-23.44-14.8-44.14-31.38-60.72-33.4-33.41-84.83-42.3-127.4-22.02-12.65 6.03-21.72 12.27-31.05 21.37-17.17 16.76-27.96 37-32.31 60.62-1.52 8.23-2.05 22.4-1.16 30.74a114 114 0 0 0 20.76 54.4c4.64 6.51 16.15 18.24 22.9 23.33 26.4 19.9 58.76 27.14 91.6 20.5 11.84-2.4 27.07-8.6 37.55-15.31 26.83-17.17 45.27-44.9 50.37-75.74 1.66-10.08 1.71-10.73 1.5-21.1-.13-5.91-.63-11.73-1.39-16.07zm7.4-149.72c-.62 1.91-2.03 7.52-3.13 12.46s-2.27 9.94-2.59 11.1c-1.24 4.47-6.95 4.15-6.95-.4 0-4.1 5.16-25.73 7-29.33 1.37-2.7 3.7-3.18 5.9-1.23 1.26 1.14 1.2 2.96-.23 7.4m-1.4 235.53c-1.84 2.63-6.05 1.14-6.05-2.14 0-3.1 3.95-4.73 6-2.47 1.2 1.33 1.21 2.95.05 4.61m-.58-133.34c-.91 1.3-3.32 1.72-4.74.81-.4-.25-1.48-2.02-2.4-3.93-3.77-7.77-12.85-17.83-20.63-22.86-2.15-1.4-4.12-3.07-4.36-3.72-.67-1.81.47-4.33 2.15-4.75 5.51-1.38 23.82 15.94 29.5 27.91 1.6 3.4 1.71 4.78.48 6.54m-27.07 169.94c-3.58 3.65-11.49 9.3-16.8 12-3.59 1.82-5.94 1.81-7.15-.03-1.6-2.46-.2-4.16 6.96-8.43a71 71 0 0 0 11.14-8.27c5.06-4.74 6.73-5.41 8.51-3.43 1.92 2.1 1.24 4.19-2.66 8.16m-24.53-219.79c-1.72 2.46-6.05 1.04-6.05-1.98 0-3.14 3.9-4.43 5.9-1.96 1.3 1.59 1.32 2.28.15 3.94M268.2 491.91c-1.2 1.1-3.13 1.24-4.78.36-1.63-.87-1.52-4.27.17-5.45 1.73-1.21 2.88-1.14 4.4.27 1.55 1.45 1.64 3.53.21 4.82m-9.12 86.63c-1.5 2.15-4.97 1.62-6.3-.96-1.74-3.35-7.29-19.9-7.29-21.72 0-3.39 3.2-5 5.68-2.84.64.55 2 3.62 3.04 6.8a289 289 0 0 0 3.83 10.93c2.23 5.88 2.25 6.06 1.04 7.8m-2.56-338.73c-1.3 1.18-2.2 1.1-11.32-.95-4.89-1.1-7.53-1.3-16.81-1.32-6.43-.01-13.14.3-16.12.76-4.7.72-5.19.7-6.23-.24-1.13-1.03-1.49-3.47-.69-4.67 1.46-2.19 9.29-3.32 23.04-3.33 12.87-.01 25.33 2.02 28.17 4.6a3.6 3.6 0 0 1-.04 5.15m-10.24 309.83c-.84.66-1.85 1.2-2.24 1.2-1.4 0-3.77-2.4-3.77-3.8 0-1.8 1.92-3.74 3.67-3.74 1.65 0 3.87 2.25 3.87 3.91 0 .68-.69 1.77-1.53 2.43m-16.5-51.79c-1.1 1-2.19 1.1-10.58 1.1-6.86-.01-10.52-.29-13.7-1.03-7.94-1.86-11.26-4.86-9.08-8.2 1.16-1.75 3.54-1.98 6.24-.58 3.06 1.58 10.15 2.57 18.44 2.57 7 0 8.1.13 8.94 1.06a3.6 3.6 0 0 1-.26 5.08m-23.76-310.28c-1.28 1.63-3.23 1.96-4.7.8-1.36-1.1-10.9-18.2-10.9-19.55 0-1.59 2-3.5 3.67-3.5 1.89 0 3.12 1.56 8.05 10.2 5.19 9.07 5.49 10 3.88 12.05m-13.86-25.15c-2 2-5.37 1.2-6.4-1.52a4 4 0 0 1 1.41-4.41c1.4-.94 3.76-.42 4.94 1.08 1.52 1.92 1.53 3.37.05 4.85m-3.69 84.7a3.6 3.6 0 0 1-5.29 1.45c-2.14-1.4-1.9-4.83.43-6.13 1.42-.79 1.76-.79 3.12-.01 1.96 1.1 2.63 2.9 1.74 4.68m-30.13 14.6c-.74.71-3.07 2.53-5.18 4.05s-6.77 5.9-10.36 9.71c-5.15 5.48-6.85 6.95-8.06 6.95a3.55 3.55 0 0 1-3.45-3.66c0-2.43 9.53-13 16.8-18.63 5.92-4.58 9.03-5.48 10.7-3.1 1.26 1.8 1.13 3.2-.45 4.69M139.5 460.6c-2.98 2.7-9.04-.97-19.36-11.72-9.42-9.82-11.7-14.4-8.28-16.65 2.25-1.48 4.05-.65 6.32 2.89 2.98 4.66 12.7 14.49 17.39 17.58 2.27 1.49 4.31 2.99 4.55 3.32.79 1.13.45 3.61-.62 4.58m-18.05 55.6a145 145 0 0 0-6.4 15.36c-1.34 4.07-2.72 7.73-3.05 8.14-.36.44-1.5.69-2.69.58-4.29-.36-4.23-3.82.23-15.53 2.54-6.65 7.88-17.84 9.37-19.64a3.54 3.54 0 0 1 5.53-.08c.58.71 1.03 1.72 1 2.25-.02.52-1.82 4.53-3.99 8.92m-6.44-204.58c-2.78 3.54-7.97-.24-5.5-4.01 1.25-1.91 4.5-1.99 5.8-.13 1.19 1.69 1.14 2.3-.3 4.14m-8.33 101.56c-3.14 2.06-6.58-2.21-4.04-5.01 1.11-1.24 2.65-1.42 4.34-.51 1.7.91 1.52 4.32-.3 5.52m-3.33-66.7c-1.5 5.48-1.95 17.5-.91 24.17.43 2.77.59 5.56.35 6.2-.96 2.59-5.08 2.9-6.38.47-.98-1.84-2.22-11.14-2.22-16.74-.01-9.52 2.35-20.7 4.61-21.92 1.84-.98 3.95-.68 4.92.7 1.08 1.54 1.06 1.9-.37 7.12m-19.43-87.25c-.49 1.39-2 2.32-3.78 2.32-2.68 0-31.35-6.36-32.73-7.26-1.6-1.06-2.16-2.8-1.36-4.3 1.41-2.65 2.12-2.62 18.17.81l16.34 3.5c2.46.52 4.08 2.88 3.36 4.93M45.78 393.55c-.5.71-2.53 1.79-4.79 2.53-2.15.72-5.99 2.17-8.53 3.24s-5.17 1.94-5.85 1.94c-2.58 0-4.1-3.74-2.43-5.95 1.05-1.39 16.48-7.38 19-7.38 1.43 0 3.47 1.97 3.47 3.35 0 .56-.4 1.59-.87 2.27m-25.59 9.99c-1.82 1.43-3.54 1.53-5.3.3-2.77-1.95-.81-6.64 2.77-6.64 3.71 0 5.36 4.12 2.53 6.34"/></g><g id="left-node" transform="translate(-12.936 -2.48)"><path id="left-node-fill" fill="#b7c03f" stroke-width=".58" d="M252.75 284.19c38.46 4.6 68.45 33.94 73.95 72.35 1 6.9.38 23.22-1.11 29.7-4.38 18.96-13.6 34.32-28.2 46.99-16.5 14.31-38.91 21.43-61.64 19.58a84.4 84.4 0 0 1-68.67-46.63c-4.89-9.8-7.57-19.64-8.5-31.18-3.46-43.02 25.23-81.04 67.65-89.67 6.95-1.4 19.67-1.96 26.52-1.14m-22.9 25.82a57 57 0 0 0-26.71 15.25c-22.58 22.58-22.71 58.16-.3 80.76 19.66 19.84 50.03 22.85 73.03 7.26C286.89 405.8 296 393 299.5 380.09c1.9-6.98 1.9-21.21.02-28.11-8.5-31.23-39.1-49.66-69.67-41.97"/><path id="left-node-outline" stroke="#000" stroke-width="8" d="M251.78 277.71c26.11 3.22 48.63 16.05 63.93 36.45 4.42 5.9 11.24 19.08 13.46 26.05 3.27 10.2 4 15.37 4.03 28.15.03 10.36-.15 12.7-1.34 18.26a92 92 0 0 1-7.25 21.02c-1.16 2.3-2.1 4.41-2.1 4.7s1.5 1.43 3.33 2.53 12.72 7.83 24.2 14.94 26.1 16.1 32.47 20l11.6 7.06 72.3-1.14c67.28-1.06 72.41-1.07 73.77-.18 2.62 1.72 1.6 5.72-1.62 6.42-2.69.58-143.35 2.37-145.86 1.86-1.41-.3-4.28-1.58-6.38-2.86s-18.08-11.16-35.52-21.96-31.96-19.63-32.27-19.63c-.3 0-1.34 1.06-2.3 2.36-3.5 4.77-11.95 13.43-16.76 17.19-13.8 10.77-29.64 17.4-46.22 19.35-7.78.91-21.6.34-28.8-1.19-37.07-7.88-64.98-36.82-71.32-73.94-1.56-9.13-1.25-25.44.64-33.63 4.16-18 12.28-32.9 24.65-45.22 7.42-7.38 14.05-12.24 22.8-16.71 13.09-6.69 25-9.69 39.55-9.96 4.94-.1 9.9-.06 11.01.08zm-27.25 9.1c-16.5 3.92-29.21 10.96-40.89 22.67-12.05 12.1-19.24 25.44-22.96 42.65-1.86 8.62-1.87 24.24-.02 32.86a85 85 0 0 0 7.95 22.1c11.71 22.56 32.44 38.22 57.84 43.7 7.93 1.71 23.6 1.85 31.4.28a89 89 0 0 0 29.38-11.42c4.86-3.01 5.69-3.7 13.98-11.57 4.2-3.98 10.86-11.95 10.86-12.98 0-.23 1.07-2 2.38-3.92 4.58-6.75 8.83-18 10.72-28.36 1.35-7.39 1.37-21.58.06-28.79-6.26-34.25-32.44-61-66.2-67.61-7.29-1.43-7.55-1.45-18.26-1.24-8.32.16-11.25.45-16.24 1.64zm30.73 21.81c22.04 4.69 39.23 21.2 45 43.22 1.92 7.36 2.17 18.75.57 26.09-4.63 21.2-20.92 38.57-41.51 44.27a57.6 57.6 0 0 1-40.43-3.4 59 59 0 0 1-32.11-38.69c-1.54-5.82-2.07-16.61-1.1-22.62 4.7-29.34 29.06-50.15 58.48-49.96 3.59.03 8.23.48 11.1 1.1zm-25.13 8.11c-5.05 1.38-12.76 5.03-16.32 7.74a53 53 0 0 0-16.53 20.35c-3.5 7.54-4.32 11.57-4.33 21.22 0 7.05.21 9.16 1.33 13.05 5.37 18.72 19.24 32.03 38.16 36.6 5.23 1.26 16.47 1.3 22.02.06 14.42-3.2 27.77-13.5 34.42-26.54a51.03 51.03 0 0 0-21.55-68.32c-4.57-2.43-8.04-3.68-13.88-5-5.35-1.22-17.37-.78-23.32.84zm28.67 19.37c6.13 2.85 16.84 15.21 16.86 19.45a3.4 3.4 0 0 1-3.83 3.32c-1.27-.15-2.22-1.09-4.47-4.4-3.5-5.17-10.2-11.5-12.98-12.27-2.75-.76-4.22-2.2-4.22-4.16 0-1.87 1.83-3.42 4.04-3.41.8 0 2.88.66 4.6 1.47z"/></g><g id="right-node" transform="translate(-12.936 -2.48)"><path id="right-node-fill" fill="#bf4056" stroke-width=".58" d="M571.46 214.93a59 59 0 0 1-21.74 6.36c-18.66 1.93-37.14-5.46-49.97-20-12.46-14.1-17.44-34.69-12.86-53.18 2.43-9.82 6.04-16.8 12.9-24.91 3.28-3.89 4.12-4.56 12.51-10 8.4-5.46 9.34-5.95 14.18-7.34 11.14-3.2 20.74-3.51 31.36-1.02 37.07 8.68 56.5 50.3 39.32 84.26a62 62 0 0 1-9.82 13.85c-3.06 3.28-12.15 10.13-15.88 11.98m12.93-38c2.14-4.78 3.17-11.63 2.81-18.68-.35-6.89-1.1-9.7-2.68-10.2-.64-.2-1.64.07-2.3.6-.96.8-1.06 1.91-.58 6.35.96 9.01-.13 17.05-3 22.02-1.47 2.55-1.4 3.94.22 4.84 1.74.96 3.66-.76 5.53-4.93"/><path id="right-node-outline" stroke="#000" stroke-width="8" d="M544.79 364.11c-.2-7.55-.48-41.62-.86-75.71-.38-34.1-.77-62.3-.87-62.68-.1-.4-2.14-.83-4.55-.98-10.25-.64-23.1-5.44-31.74-11.87a63.7 63.7 0 0 1-25.39-44.21c-3.18-28.86 14.69-56.82 42.21-66.04 11.88-3.98 20.53-4.51 32.6-2.03 9.44 1.95 15.65 4.43 22.37 8.9a58 58 0 0 1 16.26 15.84c8.4 11.74 12.14 23.55 11.98 37.8-.17 15.1-6.28 30.36-16.68 41.64-9.12 9.9-22.97 17.43-35.62 19.34l-3.95.6.1 7.62c.24 20.01 1.94 94.43 1.74 130.9-.13 22.82-7.08 20.19-7.6.88zm-40.58-160.3a58.6 58.6 0 0 0 35.65 15.79c1.66.12 3.17.13 3.36 0 .19-.11 1.2-.18 2.27-.13 8.68.37 21.21-3.36 29.64-8.83a58 58 0 0 0 25.33-37.78c1.86-9.9 1.39-18.2-1.6-28.45a51 51 0 0 0-5.94-12.78c-2.5-4.03-6.3-8.7-8.9-11.1-7.9-7.3-16.45-11.92-26.44-14.3-11.64-2.77-21.24-2.33-33.4 1.55-5.6 1.79-18.12 10.08-22.31 14.8-15.62 17.54-19.76 40.83-11.06 62.18 2.15 5.28 8.82 14.75 13.4 19.05z"/></g><g id="text" transform="translate(-12.936 -2.48)"><path id="s-systems" stroke-width="0" d="M508.25 450.87a12.16 14.6 0 0 0-12.16 14.6v51.1h-1.53a12.16 14.6 0 0 0-12.16 14.6v2.6a12.16 14.6 0 0 0-1.53-.77h-41.06a12.16 14.6 0 0 0-12.17 14.6v16.42a12.16 14.6 0 0 0 12.17 14.6h41.06a12.16 14.6 0 0 0 12.17-14.6v-2.58a12.16 14.6 0 0 0 1.52.75h27.38a12.16 14.6 0 0 0 12.16-14.6v-51.1h1.53a12.16 14.6 0 0 0 1.52-.76v19.02a12.16 14.6 0 0 0 12.17 14.6h1.52v18.25A12.16 14.6 0 0 0 563 562.2h13.7a12.16 14.6 0 0 0 6.84-3.4 12.16 14.6 0 0 0 6.84 3.4h27.38a12.16 14.6 0 0 0 12.16-14.6v-51.12h1.53a12.16 14.6 0 0 0 6.85-3.4 12.16 14.6 0 0 0 6.84 3.4h1.53v51.12a12.16 14.6 0 0 0 12.16 14.6h13.69a12.16 14.6 0 0 0 12.16-14.6v-51.12h1.52a12.16 14.6 0 0 0 1.53-.75v51.87a12.16 14.6 0 0 0 12.16 14.6h41.07a12.16 14.6 0 0 0 6.84-3.4 12.16 14.6 0 0 0 6.85 3.4h13.69a12.16 14.6 0 0 0 12.16-14.6V545a12.16 14.6 0 0 0 1.53.77h13.68a12.16 14.6 0 0 0 1.53-.76v2.59a12.16 14.6 0 0 0 12.16 14.6h13.7a12.16 14.6 0 0 0 6.84-3.4 12.16 14.6 0 0 0 6.84 3.4h27.38a12.16 14.6 0 0 0 12.16-14.6v-51.12h1.53a12.16 14.6 0 0 0 12.16-14.59v-16.43a12.16 14.6 0 0 0-12.16-14.59h-27.38a12.16 14.6 0 0 0-12.16 14.6v51.1h-1.53a12.16 14.6 0 0 0-1.53.76v-51.87a12.16 14.6 0 0 0-12.16-14.59h-68.44a12.16 14.6 0 0 0-6.85 3.4 12.16 14.6 0 0 0-6.84-3.4h-41.07a12.16 14.6 0 0 0-6.84 3.4 12.16 14.6 0 0 0-6.84-3.4h-41.07a12.16 14.6 0 0 0-6.84 3.4 12.16 14.6 0 0 0-6.85-3.4h-27.38a12.16 14.6 0 0 0-6.84 3.4 12.16 14.6 0 0 0-6.85-3.4H576.7a12.16 14.6 0 0 0-6.84 3.4 12.16 14.6 0 0 0-6.84-3.4h-13.7a12.16 14.6 0 0 0-6.84 3.4 12.16 14.6 0 0 0-6.84-3.4h-13.7zm234.24 44.86v21.6a12.16 14.6 0 0 0-1.53-.75h-2.16a12.16 14.6 0 0 0 .63-1.83v-16.43a12.16 14.6 0 0 0-.63-1.84h2.16a12.16 14.6 0 0 0 1.53-.75"/><path id="systems" fill="#b7c03f" d="M706.46 423.95v15h15v59.98h14.99v-59.98h15v-15h-22.5zm59.98 0v74.98h44.99v-15h-30v-15h15v-14.99h-15v-15h30v-14.99h-22.5zm59.98 0v74.98h15v-59.98h15v44.98h14.99v-44.98h15v59.98h14.99v-74.98h-37.49zm104.97 0v59.98h-15v15h30v-59.98h15v-15h-15zm-375.59 1.1v59.98h-15v15h30v-59.98h15v-15h-15zm44.99 0v44.99h15v29.99h14.99v-30h15v-44.98h-15v30h-15v-30h-7.5zm59.98 0v59.98h-15v15h30v-59.98h14.99v-15h-15zm-180.06 74.37v14.99h44.99v-15h-22.5z" style="font-variant-caps:normal;font-variant-east-asian:normal;font-variant-ligatures:normal;font-variant-numeric:normal" transform="scale(.91287 1.0954)"/><path id="s-svendsen" stroke-width="0" d="M471.64 338.06a12.18 14.61 0 0 0-12.18 14.61v51.1h-1.5a12.18 14.61 0 0 0-12.18 14.61v16.43a12.18 14.61 0 0 0 12.17 14.61h27.38a12.18 14.61 0 0 0 12.18-14.61v-51.1h1.5a12.18 14.61 0 0 0 1.52-.75v35.42A12.18 14.61 0 0 0 512.71 433h1.5v1.8a12.18 14.61 0 0 0 12.18 14.62h13.7a12.18 14.61 0 0 0 12.17-14.61V433h1.51a12.18 14.61 0 0 0 1.51-.76v2.57a12.18 14.61 0 0 0 12.18 14.61h41.07a12.18 14.61 0 0 0 6.84-3.4 12.18 14.61 0 0 0 6.85 3.4h13.69a12.18 14.61 0 0 0 6.84-3.4 12.18 14.61 0 0 0 6.84 3.4h13.7a12.18 14.61 0 0 0 6.84-3.4 12.18 14.61 0 0 0 6.84 3.4h27.38a12.18 14.61 0 0 0 12.18-14.61V433h1.5a12.18 14.61 0 0 0 1.52-.76v2.57a12.18 14.61 0 0 0 12.18 14.61h27.38a12.18 14.61 0 0 0 12.17-14.61v-51.1h1.51a12.18 14.61 0 0 0 1.52-.75v51.85a12.18 14.61 0 0 0 12.17 14.61h41.07a12.18 14.61 0 0 0 6.84-3.4 12.18 14.61 0 0 0 6.85 3.4h13.69a12.18 14.61 0 0 0 6.84-3.4 12.18 14.61 0 0 0 6.85 3.4h13.69a12.18 14.61 0 0 0 12.17-14.61v-82.14a12.18 14.61 0 0 0-12.17-14.6h-41.07a12.18 14.61 0 0 0-6.85 3.4 12.18 14.61 0 0 0-6.84-3.4h-41.07a12.18 14.61 0 0 0-6.84 3.4 12.18 14.61 0 0 0-6.85-3.4h-27.37a12.18 14.61 0 0 0-12.18 14.6v51.1h-1.51a12.18 14.61 0 0 0-1.51.75V369.1a12.18 14.61 0 0 0-12.18-14.61h-1.51v-1.82a12.18 14.61 0 0 0-12.18-14.6h-27.38a12.18 14.61 0 0 0-6.84 3.4 12.18 14.61 0 0 0-6.84-3.4h-41.07a12.18 14.61 0 0 0-6.84 3.4 12.18 14.61 0 0 0-6.85-3.4h-41.07a12.18 14.61 0 0 0-6.84 3.4 12.18 14.61 0 0 0-6.85-3.4H540.1a12.18 14.61 0 0 0-6.85 3.4 12.18 14.61 0 0 0-6.84-3.4h-13.7a12.18 14.61 0 0 0-6.84 3.4 12.18 14.61 0 0 0-6.84-3.4h-13.69zm138.4 44.9v21.56a12.18 14.61 0 0 0-1.51-.75h-2.14a12.18 14.61 0 0 0 .63-1.82v-16.42a12.18 14.61 0 0 0-.63-1.82h2.14a12.18 14.61 0 0 0 1.51-.75m219.02 0v21.56a12.18 14.61 0 0 0-1.51-.75h-2.14a12.18 14.61 0 0 0 .63-1.82v-16.42a12.18 14.61 0 0 0-.63-1.82h2.14a12.18 14.61 0 0 0 1.51-.75"/><path id="svendsen" fill="url(#linearGradient18)" stroke-width="0" d="M816.51 319.22v59.98h-15v15h30v-59.98h14.99v-15h-15zm44.99 0v74.98h44.98v-15H876.5v-15h15v-14.99h-15v-15h30v-14.99H884zm59.98 0v74.98h15v-59.98h14.99v59.98h15v-74.98h-22.5zm-406.05 1.23v59.99h-15v15h30v-59.99h14.99v-15h-15zm44.98 0v59.99h15v15h15v-15h14.99v-59.99h-15v45h-14.99v-45h-7.5zm59.99 0v74.98h44.98v-15H635.4v-14.99h15v-15h-15v-14.99h30v-15h-22.5zm59.98 0v74.98h15v-59.98h14.99v59.98h15v-74.98h-22.5zm59.98 0v74.98h29.99v-15h-15v-44.98h15v-15h-15zm29.99 15v44.99h15v-44.99h-7.5z" style="font-variant-caps:normal;font-variant-east-asian:normal;font-variant-ligatures:normal;font-variant-numeric:normal" transform="scale(.91287 1.0954)"/></g></g></svg>