<svg xmlns="http://www.w3.org/2000/svg" xmlns:xlink="http://www.w3.org/1999/xlink" xml:space="preserve" id="svg2" viewBox="0 0 1400 1200"><defs id="defs6"><linearGradient id="swatch84"><stop id="stop84" offset="0" style="stop-color:#6ac9bb;stop-opacity:1"/></linearGradient><linearGradient id="swatch4"><stop id="stop4" offset="0" style="stop-color:#bf4056;stop-opacity:1"/></linearGradient><linearGradient id="swatch2"><stop id="stop2" offset="0" style="stop-color:#b7c03f;stop-opacity:1"/></linearGradient><linearGradient xlink:href="#swatch2" id="linearGradient2" x1="158.3" x2="327.18" y1="368.46" y2="368.46" gradientUnits="userSpaceOnUse"/><linearGradient xlink:href="#swatch4" id="linearGradient4" x1="485.22" x2="603.48" y1="162.39" y2="162.39" gradientUnits="userSpaceOnUse"/><linearGradient xlink:href="#swatch84" id="linearGradient84" x1="391.08" x2="692.42" y1="160.49" y2="160.49" gradientUnits="userSpaceOnUse"/></defs><g id="layer2" transform="translate(345.123 299.861)"><path id="right-gear-fill" d="M497.45 311.89c-7.4-1.5-20.27-5.65-26.17-8.43-4.9-2.31-5.56-3.78-5.49-12.41.04-4.3.54-9.12 1.46-14 1.94-10.25 2-10.72 1.66-11.61-.16-.44-2.03-1.67-4.14-2.74-4.27-2.18-12.65-7.99-19.45-13.5-2.45-2-4.81-3.62-5.24-3.62s-4.39 1.4-8.8 3.12c-8.49 3.3-13.67 5-15.34 5-4.96 0-19.15-25-23.69-41.74-1.63-6.02-1.56-9.32.27-11.49 1.86-2.21 9.1-5.94 15.37-7.92 12.16-3.84 11.8-3.38 9.98-12.68-.8-4.1-1.4-9.98-1.63-16.03-.29-7.69-.55-9.78-1.31-10.65-.53-.59-5.46-4.2-10.96-8-10.02-6.95-11.74-8.66-11.74-11.7 0-1.92 4.74-20.73 7.59-30.13 2.86-9.44 4.01-10.83 8.98-10.83 5.18 0 11.15 1.15 17.23 3.3 6.02 2.15 8.03 2.19 9.1.2C437 92.53 445.9 81.8 453.5 73.9c3.24-3.36 4.81-5.44 4.81-6.36 0-.74-1.8-5.15-4-9.78-5.48-11.5-7.01-15.77-7.01-19.46 0-2.87.15-3.19 2.17-4.76 5.31-4.13 19.1-11.56 32-17.24 9.12-4.03 12.85-4.99 14.96-3.86 1.12.6 7.68 12.82 7.68 14.29 0 .37 1.98 2.8 4.4 5.4 4.9 5.29 4.18 5.08 12.12 3.5 1.6-.32 7.11-.56 12.25-.54 6.81.02 9.5-.16 9.93-.69.31-.4 2.78-5.03 5.48-10.3 5.95-11.6 7.52-14.14 9.57-15.48 2.98-1.95 5.95-1.44 34 5.91 6 1.57 10.8 3.58 13.34 5.57 2.26 1.78 5.44 6.88 6.11 9.82.87 3.76.72 12.05-.26 14.77a29 29 0 0 0-1.17 4.93l-.35 2.6 5.92 4.93c3.25 2.7 8.78 7.98 12.3 11.74 5.21 5.57 6.67 6.82 8 6.82.9 0 4.58-1.08 8.19-2.4l10.32-3.74c6.53-2.37 11.04-1.7 13.79 2.03 5.4 7.34 18.88 32.02 19.4 35.52.46 3.2-.57 5.37-4.23 8.95-11.08 10.8-16.5 16.67-16.43 17.83.03.68.39 3.7.8 6.74.7 5.33.55 16.14-.36 24.76-.36 3.47-.3 3.67 1.35 5.23.96.88 4.32 3.02 7.48 4.74 13.54 7.37 15.95 9.59 16.34 15.04.33 4.61-4.45 28.18-6.91 34.1-1.76 4.23-1.95 4.44-5.03 5.85-4.4 2.01-10 1.97-21.3-.15-4.81-.9-9.38-1.47-10.15-1.26-1.03.28-2.76 2.52-6.25 8.09a103 103 0 0 1-12.1 15.69c-8.42 9.25-8.04 7.65-4.49 18.93 3.26 10.35 3.56 11.98 2.55 13.8-1.54 2.73-6 5.46-22.84 14-15.16 7.67-16.85 8.4-20.17 8.6-3.3.2-3.84.06-6.05-1.54-2-1.47-3.06-3.08-6.2-9.48-2.07-4.23-4.24-8.28-4.82-8.98-1.72-2.09-4.07-3.02-6.17-2.45-4.73 1.28-12.97 2.32-20.93 2.63-6.14.24-9 .57-9.62 1.13-.49.43-2.57 3.97-4.64 7.87-4.47 8.46-9.76 14.5-13.6 15.53-3.53.94-8.56.67-16.24-.9m61.23-66.59c11.49-2.02 25.43-7.94 34.46-14.64 16.48-12.22 27.88-30.36 32.51-51.75 1.5-6.86 1.5-23.7.02-30.73-3.5-16.55-10.73-30.37-22.13-42.23-12.1-12.6-25.24-20.22-41.55-24.13-7.27-1.74-17.83-2.8-23.36-2.33-22.52 1.9-40.24 9.84-55.3 24.76-24.37 24.17-31.37 60.48-17.83 92.56 5.2 12.33 15.13 25.06 25.87 33.17 6.58 4.97 23.7 11.98 34.6 14.16 10.57 2.11 24.5 2.6 32.71 1.16" style="display:inline;fill:url(#linearGradient84);fill-opacity:1;stroke-width:0.579725"/><path id="right-gear-outline" d="M499.02 317.8c-8.43-1.56-21.4-5.1-25.12-6.85a21.6 21.6 0 0 1-9.66-9.7c-1.39-2.83-1.57-4.04-2.06-13.75-.3-5.85-.39-12.73-.2-15.28l.36-4.64-4.27-2.74c-4.46-2.86-7.6-5.27-12.83-9.86l-3.13-2.74-5.17 1.68c-9.26 3.02-17.98 5.26-20.5 5.26-4.98 0-7.92-2.55-13.3-11.49a108 108 0 0 1-5.27-10.35c-1.36-3.14-4.4-9.94-6.76-15.13-6.45-14.2-6.46-17.73-.07-23.65 2.72-2.52 5.7-4.34 12.86-7.9 5.13-2.53 9.32-4.92 9.32-5.3s-.37-3.4-.8-6.73c-.51-3.85-.7-8.84-.5-13.75l.29-7.72-9.48-6.15c-5.2-3.38-10.36-7.13-11.45-8.34-3.84-4.25-4.36-9.12-2.15-20.02 3.15-15.54 5.38-23.26 7.76-26.79 4.54-6.76 10.2-7.71 29.02-4.88l6.9 1.04 1.8-2.6a143 143 0 0 1 13.36-16.12l4.73-4.93-1.97-4.45c-4.67-10.6-8.9-21.81-9.21-24.48-.68-5.75 2.37-10.07 10.6-14.95 3.7-2.2 14.27-7.28 30.38-14.59 14.51-6.59 17.58-5.18 26.71 12.25 5.72 10.91 4.35 10.1 14.12 8.34 3.92-.7 7.35-.94 10.75-.75l4.99.29 3.1-5.4c1.72-2.96 4.09-7.46 5.28-10 2.82-6 4.34-8 7.5-9.85 2.2-1.3 3.43-1.56 8.17-1.75 7.33-.29 13.18.87 26.3 5.21 17.4 5.75 23.13 9.09 26.12 15.22 1.31 2.67 1.52 3.84 1.51 8.51a122 122 0 0 1-.95 15.35c-.25 1.65.14 2.1 6.1 6.88 3.5 2.81 8.23 7.23 10.52 9.83s4.39 4.8 4.67 4.9c.27.11 4.98-1.29 10.46-3.1 8.25-2.73 10.48-3.26 12.92-3.06 8.6.71 15.24 7.68 23.92 25.1a155 155 0 0 1 5.09 11.6c1.9 4.98 2.21 6.48 2.25 10.73.07 7.76-.92 9.24-11.4 17.09-5.35 4-8.42 6.67-8.25 7.16 1.58 4.45 2.27 24.01 1.01 28.96l-.63 2.5 2.99 2.37c1.64 1.3 6.14 4.44 9.99 6.97 4.9 3.22 7.45 5.3 8.52 6.94 4.22 6.5 3.26 17.17-3.18 35.25-4.89 13.75-8.3 18.15-15.02 19.41-1.12.21-6.27-.16-11.45-.82-12.96-1.65-14.07-1.62-15.3.48-2.16 3.63-9.64 12.8-14.85 18.18l-5.48 5.67 1 4.77a177 177 0 0 0 2.42 9.67c3.24 11.3 1.42 16.12-8.59 22.78-11.18 7.43-31.46 15.6-38.76 15.62-6.86.02-12.72-5.34-18.41-16.82-2.63-5.29-2.72-5.4-4.43-5.05a68 68 0 0 1-17.72 1.25l-7.28-.35-3.67 5.94-6.26 10.15c-2.97 4.82-6.6 8.28-9.8 9.34-3.8 1.25-12.06 1.32-18.46.14m17.32-7.8c1.58-1.03 3.47-3.76 10.72-15.5 6.3-10.2 4.97-9.53 18.53-9.53 9.17 0 12.4-.22 16.43-1.12 4.31-.96 5.17-1 6-.32.53.44 2.54 3.95 4.46 7.8 4.35 8.67 6.45 11.63 9.52 13.43 2.12 1.24 2.7 1.34 4.94.84 12.1-2.71 34.2-13.4 38.18-18.45 1.52-1.93 1.5-5.84-.04-10.83-1.81-5.88-3.42-13.65-3.43-16.63-.02-2.64.07-2.77 6.55-9.28 6.6-6.63 13.74-15.59 15.94-19.97 1.72-3.44 2.55-3.94 5.76-3.5 1.51.2 5.23.6 8.26.89 3.03.28 7.92.85 10.87 1.25 4.71.65 5.6.63 7.3-.18 2.51-1.2 5.2-6.34 8.7-16.68 4.27-12.56 5.42-22.16 3.1-25.7-.51-.79-4.66-3.93-9.22-7-12.54-8.43-13.48-9.19-13.7-11.05-.1-.9.26-3.88.8-6.62 1.18-5.88.88-18.36-.56-24.13a32 32 0 0 1-.9-4.78c-.02-1.96 3.32-5.28 11.52-11.4 4.07-3.04 7.7-6.2 8.08-7.02 1.11-2.44.78-5.88-1.1-11.5-2.9-8.67-10.85-23.92-14.65-28.13-2.04-2.25-6.28-4.7-8.14-4.7-.96 0-6.49 1.56-12.3 3.47-5.8 1.92-11.2 3.48-12 3.48-.98 0-1.94-.68-3.06-2.17-3.16-4.2-10.46-11.32-16.2-15.78a96 96 0 0 1-7.16-6l-1.36-1.47.98-10.17c.54-5.6.8-11.03.58-12.07-1.1-5.19-4.17-7.57-14.9-11.56-14.81-5.52-27.53-8.53-32.74-7.75-3.82.57-5.47 2.43-9.65 10.88-2.1 4.23-5.01 9.72-6.48 12.22l-2.67 4.52-7.35-.39c-7.42-.4-14.94.47-20.4 2.34a6.7 6.7 0 0 1-3.96.18c-1.72-.46-2.21-1.1-4.47-5.85-3.02-6.32-8.14-15.67-10-18.23-.72-1-1.81-1.98-2.42-2.17-1.4-.45-6.36 1.56-22.34 9.02-19.34 9.04-23.48 11.75-23.48 15.4 0 1.7 3.02 9.63 9.71 25.43a26 26 0 0 1 1.74 5.84c.26 2.28.15 2.47-3.04 5.2-4.47 3.82-13.08 13.88-16.93 19.78-3.7 5.67-4.7 6.39-7.68 5.5-3.35-1.01-17.72-2.99-21.66-2.98-4.5 0-7.2 1.3-8.66 4.15-2.35 4.6-7.95 30.67-7.21 33.6.68 2.7 2.67 4.45 11.26 9.9 4.68 2.96 9.6 6.43 10.94 7.7l2.42 2.33-.31 10.45c-.27 9.26-.16 11.2.98 16.93.71 3.56 1.13 6.96.94 7.55-.22.72-4.15 2.93-11.38 6.43-12.68 6.13-16.2 8.76-16.2 12.1 0 1.27 2.03 6.6 5.54 14.56 6.8 15.45 9.5 20.83 12.64 25.31 2.02 2.88 2.77 3.51 4.32 3.66 1.96.2 8.06-1.38 19.1-4.93 8.2-2.64 8.95-2.46 15.8 3.65a100 100 0 0 0 10.14 7.81c8.73 5.7 8.56 5.52 8.2 8.6-.95 8.34.05 28.83 1.55 31.74 1.82 3.52 5.2 5.83 11.24 7.7 5.2 1.61 15.95 4.2 20.17 4.87 4.03.63 12.28.06 13.84-.96zm-7.37-3.19a4.2 4.2 0 0 1-.96-2.42c0-1.49 7.55-15.7 9.46-17.82 2.23-2.47 6.2-1.06 6.2 2.2 0 1.53-7.53 15.71-9.45 17.8-1.45 1.58-3.94 1.7-5.25.24m108.36-20.46c-1.8-1.41-1.94-3.54-.33-5.14 2.24-2.25 5.8-.8 5.79 2.36-.02 1.88-.59 2.67-2.43 3.37-1.25.47-1.82.36-3.03-.59m-3.64-9.35c-1.65-1.81-4.34-10.3-4.12-12.99.14-1.67.55-2.4 1.75-3.06 2.5-1.4 4.36.4 6.26 6.08 2.45 7.31 2.53 8.22.89 9.86-1.77 1.77-3.24 1.8-4.78.11m-71.35-14.67c-1.5-1.05-1.78-4.34-.46-5.44.46-.38 2.61-.94 4.79-1.24 4.87-.68 7.13-1.4 11.08-3.48 4.06-2.16 6.5-1.39 6.5 2.05 0 3.16-4.14 5.87-12.03 7.9-5.32 1.35-8.16 1.41-9.88.21m-40.33-9.43c-1.43-1.58-1.21-3.96.46-5.06 1.72-1.12 3.5-.69 4.7 1.16 2.14 3.27-2.53 6.8-5.16 3.9m31.5-5.4c-13.04-1.33-27.08-6.52-38.82-14.33-6.17-4.1-15.8-13.32-20.67-19.78-3.96-5.25-10.37-17.52-12.43-23.78-3.13-9.57-4.92-22.85-4.29-31.89 2.78-39.76 30.74-71.43 69.84-79.13 7.57-1.49 22.3-1.8 28.6-.62 9.5 1.8 22.16 7.23 32.75 14.06 5.8 3.74 16.06 12.18 19.74 16.23 8.44 9.28 15.48 24.3 18.43 39.32 1.54 7.8 1.4 24.12-.28 31.75-6.7 30.56-27.92 54.57-56.67 64.13a85.5 85.5 0 0 1-36.2 4.04m17.1-7.46c18.12-2.02 34.4-9.75 46.91-22.28q16.2-16.21 21.3-39.21c1.78-8 1.93-23.7.3-31.13-1.88-8.6-5.1-17.08-9.02-23.79-10.5-17.96-37.15-35.76-57.4-38.33-36.59-4.65-71.27 16.6-83.46 51.16-3.14 8.9-4.3 15.8-4.34 25.9-.07 16.49 4.13 30.42 13.26 44.03 3.4 5.07 11.14 13.38 16.16 17.35 15.74 12.45 36.59 18.49 56.3 16.3m37.56 7.53c-3.06-1.22-1.8-6.36 1.56-6.36 1.76 0 3.5 1.73 3.5 3.5 0 2.24-2.73 3.78-5.06 2.86m-171.94-2.9c-1.78-1.4-1.95-2.64-.63-4.53 1.34-1.91 4.79-1.57 6 .6.8 1.45.78 1.7-.33 3.2-1.53 2.05-3.07 2.28-5.04.73m9.5-3.83c-2.43-3.1-1.07-4.71 6.22-7.4 6.58-2.4 7.8-2.53 9.4-.93 1.45 1.46 1.48 3.58.05 4.88-1.34 1.2-11.28 4.97-13.14 4.97-.74 0-1.86-.67-2.53-1.52m48.88-9.26c-4.9-3.27-10.37-9.66-11.01-12.86-.26-1.31-.05-2.04.87-2.96 2.2-2.2 3.75-1.62 7.25 2.76a40 40 0 0 0 6.05 6.1c3 2.2 3.57 3.04 3.57 5.3 0 1.44-1.92 3.17-3.52 3.17-.53 0-1.97-.68-3.2-1.5m132.86-2.88c-1.64-1.65-1.1-3.95 1.79-7.45a127 127 0 0 0 5.36-7.12c2.9-4.19 4.36-5.08 6.5-4.02 2.36 1.17 2.2 4.45-.4 8.4-2.48 3.77-6.3 8.61-7.94 10.09-1.4 1.26-4.1 1.31-5.3.1M450.81 202c-.9-1.35-.9-1.67-.14-3.04 1.64-2.94 6.32-1.96 6.32 1.33 0 3.16-4.43 4.4-6.18 1.72m230.48-7.03-6.08-4.1c-2.52-1.7-6.23-4.02-8.24-5.14-4.39-2.46-5.76-4.24-4.98-6.45a3.8 3.8 0 0 1 2.16-2.1c1.91-.68 4.48.51 12.95 6 9.55 6.17 11.63 8.9 8.88 11.65-1.42 1.42-2.72 1.46-4.69.14m-52.32-2.94c-1.26-1.4-1.22-3.17.1-4.36 2.18-1.97 5.9-.5 5.9 2.33 0 2.71-4.12 4.1-6 2.03m-180.53-9.69c-1.9-1.33-3.6-7.62-4-14.74-.5-8.87.68-12.34 4.2-12.34 2.83 0 3.18 1.02 3.37 9.76.12 5.64.46 8.85 1.12 10.68 1.24 3.4 1.21 5.4-.1 6.57-1.32 1.2-2.94 1.23-4.59.07m185.48-16.84c-1.27-.88-1.3-1.17-1.11-8.69.17-6.89.33-7.88 1.32-8.63 1.65-1.25 3.02-1.08 4.7.6 1.44 1.44 1.47 1.62 1.27 8.34-.17 5.75-.38 7.06-1.3 8.08-1.32 1.45-3.09 1.56-4.88.3m-220.25-22.52c-6.3-3.02-15.06-8.32-15.46-9.36-1.05-2.74.47-5.46 3.07-5.46.71 0 3.5 1.3 6.21 2.9s6.48 3.7 8.38 4.66 3.99 2.26 4.62 2.9a3.56 3.56 0 0 1-1.49 6c-.73.22-2.75-.4-5.33-1.64m36.3-8.07c-1.72-.86-2.18-3.85-.8-5.23 2.1-2.1 5.5-.54 5.5 2.5 0 2.52-2.35 3.89-4.7 2.73m173.77-12.01c-1.83-1.44-1.98-3.56-.37-5.18 1.62-1.61 3.74-1.46 5.18.37 1.56 1.98 1.51 2.85-.22 4.59-1.74 1.73-2.6 1.78-4.59.22m-160.82-8.4c-2.96-2.07-.76-6.85 7.12-15.42 7.48-8.12 10.93-10.1 13.24-7.54 1.93 2.13 1.22 3.5-5.3 10.2-3.45 3.53-7.13 7.72-8.2 9.32-3.04 4.55-4.34 5.2-6.86 3.44M606.1 99.65a47 47 0 0 0-10.68-9.58c-3.4-2.23-4.27-3.1-4.42-4.43-.23-2.03 1.3-3.86 3.24-3.86 4.05 0 16.11 9.6 18.07 14.39.71 1.73.68 2.07-.37 3.47-1.74 2.35-3.92 2.35-5.84.02m32.38-11.86c-2.25-2.86-1.2-4.39 4.95-7.23 5.6-2.6 7.33-2.79 8.6-.97 2.16 3.09.6 5.15-5.97 7.93-5.2 2.19-6.05 2.22-7.58.27M494.38 82c-1.45-1.45-.91-4.34 1.01-5.4 1.43-.8 1.76-.8 3.19 0a3.37 3.37 0 0 1-1.64 6.35c-.89 0-2.04-.42-2.55-.94m161.83-1.27a3.51 3.51 0 0 1 2.62-5.9c2.97 0 4.52 4.01 2.32 6-1.4 1.27-3.75 1.22-4.94-.1m-88.37-4.48c-2.52-1.76-1.17-6.05 1.9-6.05s4.42 4.29 1.9 6.05c-.7.5-1.56.9-1.9.9s-1.2-.4-1.9-.9m-48.08-1.43c-1.45-.58-2.2-2.77-1.68-4.84 1.02-4.07 17.87-6.15 20.19-2.5.78 1.23.48 3.67-.56 4.59-.7.6-2.72.97-6.53 1.16-3.5.17-6.18.62-7.36 1.23-2.08 1.07-2.26 1.09-4.06.36m-52.92-7.68c-1.76-.87-7.43-11.97-7.5-14.68-.07-3.22 3.84-5.01 5.91-2.7.5.56 2.24 3.92 3.87 7.47 2.47 5.4 2.86 6.7 2.4 7.94a4.5 4.5 0 0 1-1.72 2.1c-1.4.74-1.2.75-2.96-.13m-11.26-22.2a3.4 3.4 0 0 1 .02-4.59c1.43-1.43 4.35-.92 5.39.94.76 1.37.75 1.68-.14 3.04-1.16 1.76-3.82 2.07-5.28.6zm96.22-6.18a5 5 0 0 1-.9-2.03c0-1.18 8.68-18.27 10.01-19.72.67-.72 1.8-1.3 2.51-1.3 1.32 0 3.71 2.43 3.71 3.77 0 1.23-8.57 18.12-9.83 19.39-1.6 1.6-4.34 1.54-5.5-.1" style="display:inline;fill:#000000;fill-opacity:1;stroke-width:0.579725"/></g><g id="layer3" style="display:inline" transform="translate(345.123 299.861)"><path id="left-gear-fill" d="M455.56 347.2c-1.48 3.4-6.08 6.8-11.7 8.64-3.54 1.15-7.35 3.06-12.07 6.04-6.71 4.22-6.96 4.33-9.13 3.75-3.56-.95-3.66-.57-3.76 13.2-.08 11.38-.98 20.7-2.56 26.69a24 24 0 0 0-.55 4.98v2.88l4.56 3.86c2.51 2.11 6.18 5.04 8.15 6.49 6.89 5.07 15.7 15.23 15.7 18.1 0 .47.68 1.39 1.52 2.05 1.5 1.18 1.53 1.28 1.17 6.36-.2 2.84-.74 5.86-1.2 6.71s-1.53 3.89-2.38 6.75c-1.66 5.54-5.9 14.13-13.44 27.18-5.9 10.21-8.64 14.02-11.18 15.57-1.12.67-2.6 1.9-3.29 2.72-1.2 1.45-1.45 1.5-7.53 1.44-9.3-.1-23.5-3.76-29.82-7.7a32 32 0 0 0-5.66-2.65c-1.63-.54-3.49-1.65-4.12-2.45-.64-.81-1.52-1.34-1.95-1.17-.44.17-1.9 1.96-3.26 3.98-2.88 4.27-13.77 15.52-20.96 21.63-8.15 6.94-9.96 8.89-9.57 10.34 1.95 7.26 5.57 28.28 5.57 32.29 0 5.11-2.05 6.84-13.9 11.72-16.54 6.81-32.47 11.26-46.39 12.96-12.9 1.58-19.02.36-21.38-4.26-2.9-5.68-6-18.66-6.75-28.25-.83-10.57-1.43-11-15.56-10.82-5.78.07-12.08-.16-13.99-.5-1.91-.36-6.6-1.03-10.43-1.5-3.83-.48-7.88-1.01-9-1.18-2.7-.4-4.06.74-17.75 14.8-6.02 6.18-11.78 11.59-12.8 12.03-3.96 1.68-8.38.77-16.87-3.5a161 161 0 0 0-8.87-4c-8.43-3.5-29.62-14.22-31.36-15.88-2.3-2.2-3.1-5.5-2.2-9.16 1.72-7.13 4.32-14.78 6.14-18.06a87 87 0 0 0 4.3-10.08l2.34-6.51-3.8-3.7c-2.1-2.02-4.13-3.68-4.53-3.68-1.59 0-20.1-21.4-20.1-23.23 0-1.8-4.63-9.26-6.19-9.97-1.04-.47-2.37-.32-5.84.66-2.47.7-6.87 1.9-9.78 2.67-2.91.78-7.08 2.1-9.28 2.92-5.6 2.12-15.74 4.92-17.82 4.92-1.36 0-2.44-.71-4.83-3.18-1.69-1.75-3.07-3.56-3.07-4.02 0-.47-1-2-2.23-3.43a28 28 0 0 1-3.82-6.55c-.88-2.2-1.94-4.37-2.36-4.85-1.73-1.95-7.29-19.78-9.81-31.46-1.3-6.02-1.45-7.79-1.21-15.01.3-9.08.56-9.76 4.34-11.36 1.11-.47 3.35-2.06 4.97-3.54 5.43-4.94 18.33-10.16 25.22-10.2l3.8-.03.14-6.37c.2-9.53 1.97-19.66 5.87-33.87.69-2.5.34-3.09-3.55-6.05-29.14-22.13-30.06-23-30.06-28.51 0-3.85 3.88-13.8 12.26-31.47 1.87-3.93 3.4-7.3 3.4-7.48 0-1.48 7.03-14.07 9.78-17.51 6.17-7.75 8.8-8.29 24.13-4.96 2.55.55 5.94 1.2 7.53 1.44l9.62 1.49 6.71 1.04 8.65-7.2a232 232 0 0 1 27.35-19.32c2-1.2 3.9-2.72 4.26-3.37.7-1.3-.75-11.9-3.11-22.79a58 58 0 0 1-1.28-11.88c-.03-7.95.77-9.7 5.7-12.43 7.16-3.97 41.46-16.38 50.68-18.33 2.88-.62 5.8-.52 11.59.36 2.76.42 5.6 2.8 6.83 5.74.4.97 1.69 3.32 2.85 5.24q2.11 3.48 1.9 5.03c-.16 1.1 1.14 4.15 4.46 10.43 4.54 8.6 4.74 8.88 6.42 8.74.95-.08 5.67-.15 10.5-.15 9.73-.02 15.52.78 25.43 3.52 12.83 3.54 15.1 4.05 16.4 3.74 2.14-.53 5.73-4.15 12.62-12.76 12.37-15.44 16.97-18.63 24.67-17.07 6.23 1.26 35.7 12.9 42.67 16.87 8.19 4.65 9.71 7.25 9.61 16.43-.06 5.9-1.18 10.5-4.79 19.73-2.04 5.21-2.34 6.58-2.34 10.62 0 4.18-.15 4.81-1.56 6.49l-1.56 1.85 2.87 2.69c1.58 1.47 5.58 5.16 8.9 8.19 6.59 6.03 18.93 20.52 23.3 27.38 1.56 2.44 1.9 2.51 6.42 1.34 1.78-.47 6.47-1.26 10.41-1.77 3.94-.5 7.62-1.17 8.17-1.47.56-.3 2.72-.56 4.8-.56 3.4 0 3.99.19 5.66 1.72 1.03.94 2.76 2.43 3.85 3.32 3.01 2.45 4.48 6.1 11.35 28.3a367 367 0 0 0 3.86 11.88c.65 1.76 2.2 7.2 3.44 12.1 2.39 9.38 2.8 14.13 1.46 17.2zm-94.78.53c-2.3-12.32-6-23.18-11.72-34.46-7.06-13.93-17.33-26.98-26.73-33.98a220 220 0 0 0-25.24-15.51c-4.93-2.48-14.93-5.98-24.93-8.72-9.85-2.7-15.6-3.66-29.67-4.96-7.2-.66-17.49.34-22.65 2.21-1.75.63-8.67 2.64-15.36 4.45-14.8 4.02-17.53 5.34-33.56 16.3a84 84 0 0 0-6.17 5.24c-17.38 15.92-28.28 32.57-35.04 53.52-4.22 13.1-5.76 24.5-5.32 39.43.7 23.27 7.14 43.54 19.93 62.6a96 96 0 0 0 9.9 12.95c15.83 18.13 38.39 31.56 62.43 37.18 6.17 1.44 6.06 1.43 14.9 2.3a117.6 117.6 0 0 0 54.28-7.28c28.4-10.8 50.13-31.27 65.52-61.72 4.67-9.25 7.33-17.45 9.67-29.8 1.24-6.56 1.35-8.48 1.17-20.3-.16-10.04-.49-14.5-1.41-19.45" style="display:inline;fill:#716ac9;fill-opacity:1;stroke:none;stroke-width:0.579725;stroke-opacity:1"/><path id="left-gear-outline" d="M458.47 346.74a28 28 0 0 1-5.74 7.25c-3.7 3.47-6.27 5.07-24 15l-4.5 2.5v7c0 9.48-.97 19.16-2.59 26.08l-1.35 5.74 1.83 1.47c3.86 3.12 18.03 17.4 21.38 21.54 7.2 8.9 8.8 15.83 6.3 27.39-1.62 7.47-8.62 22.05-17.19 35.8-9.16 14.71-11.3 16.7-19.32 18.08-5.37.92-12.43-.27-26.45-4.44l-14.3-4.23-3.88-1.13-2.5 3.45c-2.48 3.41-15.67 15.86-24.4 23.01-2.47 2.03-4.49 3.98-4.49 4.35s.9 3.78 2 7.6a111 111 0 0 1 4.13 21.34l.4 4.56-3.74 3.56c-4.47 4.27-10.72 7.89-21.63 12.52-14.82 6.3-31.34 10.12-51.95 12.03-7.09.65-13.13-2.83-14.58-8.4-.39-1.5-3.19-10.13-6.22-19.17l-5.51-16.43-8.12-.25c-12.02-.36-23.35-1.82-31.32-4.02-.95-.26-2.43 1.07-7.54 6.8-16 17.9-16.42 18.33-19.7 19.93-7.26 3.55-14.8 1.37-41.73-12.05-24.36-12.14-26.77-13.96-27.38-20.65-.17-1.94 0-5.16.38-7.17 1.22-6.43 5.24-18.96 8.24-25.7l2.92-6.54-11.28-11.2c-8.43-8.39-12.3-12.73-15.38-17.2a97 97 0 0 1-4.32-6.64c-.14-.42-2.24.12-5.9 1.52-3.12 1.2-10.53 3.37-16.48 4.82-9.36 2.3-11.35 2.61-14.86 2.33-9.78-.77-13.8-4.08-19.63-16.12-5.5-11.36-10.06-24.59-13.77-39.93-1.03-4.25-1.34-7.22-1.36-13.04-.03-7.08.07-7.73 1.57-10.79 3.45-7.02 10.27-11.4 26.52-17.05 11.45-3.98 10.73-3.4 10.54-8.48-.28-7.18 2.51-24.09 5.1-30.88.52-1.4-.04-1.93-12.62-11.97-7.24-5.79-13.9-11.34-14.8-12.34-2.82-3.15-5.16-8.75-5.47-13.07-.35-4.8.82-8.28 8.78-26.15 7.69-17.24 9.21-20.33 13.3-26.88 4.56-7.34 7.06-10.14 10.9-12.25 2.75-1.5 3.7-1.7 8.04-1.71 5.19-.01 26.3 2.6 32.11 3.98l3.41.8 6.56-5.93c7.01-6.34 18.06-14.52 25.2-18.65l4.4-2.53-1.33-7.98c-1.57-9.5-2.77-23.84-2.24-26.76 2.02-10.96 11.95-17.99 37.1-26.25 18.27-5.99 24.46-7.54 30.44-7.6 11.03-.1 15.06 3.72 25.84 24.51l5.26 10.15 9.53.38c13.4.53 22.92 2.22 33.13 5.89l5.63 2.02 5.18-5.89c9.35-10.62 19.86-20.89 23.26-22.72 2.9-1.56 3.69-1.71 8.7-1.7 6.2.02 5.78-.13 32.75 12.01 19.17 8.63 21.7 10.4 24.15 16.86 2.26 5.94 1.63 15.6-1.93 29.67a264 264 0 0 0-2.48 11.43l-1.3 6.8 3.53 2.75c9.33 7.27 20.77 20.53 29 33.6.02.05 2-.27 4.4-.71 22.52-4.15 30.1-3.31 34.86 3.84 2.14 3.2 6.82 15.41 9.77 25.48.88 3.03 3.5 11.38 5.8 18.55 3.73 11.66 4.2 13.66 4.46 18.84.28 5.62.23 5.91-1.52 9.37m-6.07-12.26c-.18-1.28-1.53-6.1-3.01-10.73-1.48-4.62-4.08-12.84-5.77-18.26-7.3-23.38-9.31-28.1-12.51-29.22-2.86-1-10.73-.75-18.27.56-13.72 2.38-13.65 2.38-15.38 1.66-1.01-.42-2.45-2.01-3.76-4.17-2.6-4.27-9.78-14-13.77-18.64-1.62-1.88-6.2-6.28-10.2-9.77-7.7-6.74-8.64-7.92-8.76-10.96-.08-2.21 1.72-11.94 3.46-18.74 1.77-6.9 3.57-17.49 3.54-20.83s-1.11-6.82-2.66-8.53c-1.63-1.8-7.26-4.75-18.12-9.49a392 392 0 0 1-13.53-6.14c-10.4-5.25-17.4-6.82-21.56-4.85-1.92.91-14.59 13.53-23.7 23.59-6.45 7.14-6.68 7.2-15.38 4-10.62-3.92-18.7-5.32-32.56-5.68-8.85-.23-12.22-.52-13.2-1.13-1.84-1.17-3.47-3.95-7.92-13.55-4.68-10.1-9.36-17.36-12.37-19.22-3.06-1.9-9.02-1.8-16.37.26-10.32 2.89-28.1 8.95-34.4 11.72-8.52 3.76-12.55 6.8-14.61 11.01l-1.62 3.3.62 8.2c.34 4.52 1.34 12.81 2.23 18.44 1.52 9.62 1.56 10.32.66 11.69a5 5 0 0 1-2.64 1.83c-4.8 1.05-23.24 14.25-31.64 22.65-3.83 3.83-5.9 5.49-6.85 5.49-.76 0-3.7-.51-6.56-1.13a173 173 0 0 0-13.02-2.05c-4.3-.52-9.41-1.18-11.35-1.49-8.02-1.26-11.93-.25-15.13 3.92-4.9 6.38-8.55 13.2-15.6 29.26-2.44 5.52-5.48 12.39-6.78 15.25-3.1 6.9-3.48 11.04-1.4 15.12s2.53 4.47 25.5 22.73c3.43 2.73 6.38 5.53 6.55 6.22.18.7-.71 5.4-1.97 10.48-2.87 11.56-3.86 19.53-3.37 27.16.5 7.9.16 8.32-9.03 11-19.47 5.69-27.4 10.08-29.45 16.29-1.14 3.44-.41 12.74 1.64 21.15 3.68 15.07 11.95 36.35 16.32 42.02 2.6 3.38 6.5 5.52 10.05 5.52 4.15 0 18.09-3.68 27.35-7.23 10.52-4.02 12.46-3.83 15.75 1.59 4.94 8.14 12.39 17.1 22.45 26.97 8.1 7.96 10.21 10.34 10.21 11.55 0 .84-1.02 3.64-2.26 6.21-7.75 16-11.97 30.7-9.92 34.51.92 1.74 6.92 5.15 23.45 13.32 23.65 11.69 31.12 14.13 35.15 11.46.82-.54 3.95-3.79 6.95-7.22 14.74-16.84 18.15-19.99 21.64-19.95 1 .01 4.41.54 7.6 1.17 10.74 2.14 15.03 2.57 26.77 2.67 8.91.08 11.93.3 12.65.9 1.43 1.18 2.99 4.53 4.06 8.73.52 2.05 2.34 7.38 4.03 11.84a911 911 0 0 1 4.62 12.47 63 63 0 0 0 3.13 7.25l1.57 2.9 3.76-.19c6.8-.33 19.84-2.4 28.4-4.52 16.4-4.04 38.31-14.37 39.69-18.7.6-1.88-1.32-12.74-3.75-21.25-1.27-4.45-2.48-9.31-2.67-10.81l-.37-2.72 2.79-1.93c8.5-5.87 24-20.8 28.54-27.52 2.97-4.4 4.93-6 7.38-6 1.04 0 4.56 1.07 7.82 2.36 7.65 3.03 19.09 6.73 24.14 7.8 9.94 2.12 14.97 1.68 18.49-1.64 5.47-5.15 21.78-34.93 24.18-44.13 2.51-9.62 1.35-14.77-5.18-22.93-3.8-4.74-14.41-15.35-20.6-20.58-4.21-3.56-4.85-4.65-3.99-6.75a99 99 0 0 0 2.1-7.96c1.3-5.65 1.57-8.48 1.9-20.02.34-11.15.57-13.7 1.38-14.93.59-.9 4.57-3.42 10.14-6.42 13.18-7.08 16.36-9.04 19.51-12 3.8-3.53 5.77-7.58 5.28-10.77zm-7.4 8.64c-2.28 1.6-4.37 1.14-5.61-1.22-1.57-2.98 1.88-6.18 5.04-4.67 2.15 1.02 2.5 4.54.57 5.89m-11.45 7.41c-3.53 3.03-12.25 8-14.02 8-2.2 0-3.52-1.48-3.3-3.69.14-1.43.74-2.17 2.9-3.55 10-6.4 12.44-7.83 13.35-7.83 1.47 0 3.34 2.08 3.34 3.72 0 .92-.79 2.08-2.27 3.35M409.4 500.95c-2.1 2.1-3.85 1.74-16.87-3.47-14.77-5.92-17.46-7.2-18.58-8.92-.85-1.3-.86-1.63-.12-2.93a7 7 0 0 1 1.85-2.1c1.16-.73.91-.82 16.64 5.69 5.89 2.44 12.08 4.83 13.77 5.32 2.92.85 4.8 2.48 4.8 4.15 0 .42-.67 1.44-1.49 2.26m-32.8-116.04c-.69 5.43-2.71 12.8-3.93 14.3-1.34 1.65-4.01 1.58-5.41-.15-1.23-1.52-1.18-2.1.76-8.93 1.12-3.96 1.32-6.1 1.37-14.69.05-9.24.15-10.1 1.18-10.87 1.55-1.13 2.33-1.03 4.07.49 2.32 2.03 3.16 10.49 1.97 19.85m-2.43-51.18a4.1 4.1 0 0 1-5.16 1.24c-.88-.45-1.61-1-1.64-1.23-.02-.24-.15-1.02-.29-1.75-.3-1.59 2.02-4.18 3.72-4.18 2.68 0 4.92 3.93 3.37 5.92m-11.45 43.47c-2.96 38.45-25.85 74.48-59.65 93.92-57.24 32.9-130.27 13.74-163.83-42.98-20.18-34.11-21.72-76.89-4.06-112.8 6.54-13.29 13.65-22.9 25.08-33.91 18.7-18.02 42.32-29.18 68.59-32.44 7.1-.87 22.67-.74 30.27.26 35.87 4.74 68 25.66 86.84 56.56 9.42 15.44 15.36 34.2 16.78 53.01.67 8.9.67 9.36-.03 18.38zm-8.59-28.08c-4.09-23.43-14.78-44.13-31.37-60.72-33.41-33.41-84.83-42.3-127.4-22.02-12.65 6.03-21.72 12.27-31.04 21.37-17.18 16.76-27.97 37-32.32 60.62-1.52 8.23-2.05 22.4-1.16 30.74 2.1 19.6 9.15 38.09 20.76 54.4 4.64 6.52 16.15 18.24 22.91 23.34 26.4 19.9 58.75 27.13 91.6 20.49 11.84-2.4 27.06-8.6 37.54-15.3 26.83-17.18 45.27-44.9 50.37-75.75 1.66-10.08 1.71-10.72 1.5-21.09-.13-5.92-.63-11.74-1.39-16.08m7.4-149.72a197 197 0 0 0-3.12 12.46c-1.1 4.95-2.27 9.94-2.59 11.1-1.24 4.47-6.96 4.15-6.96-.4 0-4.1 5.17-25.73 7-29.33 1.38-2.7 3.71-3.19 5.9-1.23 1.27 1.14 1.21 2.96-.22 7.4m-1.4 235.53c-1.84 2.63-6.05 1.14-6.05-2.14 0-3.1 3.95-4.73 6-2.47 1.2 1.33 1.22 2.94.06 4.6m-.57-133.34c-.92 1.3-3.32 1.72-4.75.82-.4-.26-1.47-2.03-2.4-3.94-3.76-7.77-12.84-17.83-20.62-22.86-2.16-1.4-4.12-3.07-4.36-3.72-.67-1.81.47-4.33 2.14-4.75 5.52-1.38 23.82 15.94 29.5 27.91 1.62 3.4 1.72 4.78.49 6.54m-27.07 169.94c-3.58 3.65-11.5 9.3-16.8 12-3.59 1.82-5.94 1.81-7.15-.04-1.6-2.45-.2-4.15 6.95-8.42a71 71 0 0 0 11.14-8.27c5.06-4.74 6.73-5.41 8.52-3.44 1.91 2.12 1.24 4.2-2.66 8.17m-24.53-219.8c-1.72 2.46-6.05 1.05-6.05-1.97 0-3.14 3.9-4.44 5.9-1.96 1.29 1.58 1.31 2.28.15 3.94M281.14 494.4c-1.21 1.1-3.14 1.24-4.78.36-1.63-.87-1.53-4.27.17-5.46 1.73-1.2 2.88-1.13 4.4.28 1.54 1.44 1.63 3.53.2 4.82m-9.12 86.63c-1.5 2.15-4.97 1.62-6.3-.96-1.74-3.35-7.3-19.9-7.3-21.72 0-3.4 3.21-5 5.68-2.84.64.55 2.02 3.62 3.05 6.8 1.04 3.2 2.76 8.1 3.83 10.93 2.23 5.87 2.25 6.06 1.04 7.79m-2.56-338.73c-1.31 1.18-2.21 1.1-11.32-.95-4.89-1.1-7.53-1.31-16.81-1.33-6.43 0-13.14.31-16.12.77-4.71.72-5.19.7-6.23-.25-1.13-1.02-1.5-3.46-.69-4.67 1.46-2.18 9.29-3.31 23.04-3.33 12.86 0 25.32 2.03 28.17 4.6a3.6 3.6 0 0 1-.04 5.16m-10.24 309.83c-.84.66-1.85 1.2-2.24 1.2-1.4 0-3.77-2.4-3.77-3.8 0-1.8 1.91-3.74 3.67-3.74 1.65 0 3.87 2.25 3.87 3.91 0 .68-.7 1.77-1.53 2.43m-16.5-51.79c-1.1 1-2.19 1.1-10.59 1.1-6.86-.01-10.52-.29-13.7-1.03-7.93-1.86-11.26-4.86-9.07-8.2 1.15-1.75 3.54-1.98 6.24-.58 3.06 1.58 10.15 2.57 18.44 2.57 7 0 8.1.13 8.94 1.06a3.6 3.6 0 0 1-.27 5.08m-23.76-310.28c-1.29 1.64-3.24 1.97-4.7.8-1.36-1.1-10.9-18.2-10.9-19.55 0-1.58 2-3.5 3.66-3.5 1.9 0 3.13 1.56 8.06 10.2 5.18 9.07 5.49 10.01 3.88 12.05m-13.87-25.14c-2 2-5.37 1.2-6.4-1.53a4 4 0 0 1 1.42-4.4c1.4-.95 3.75-.43 4.94 1.08 1.51 1.92 1.52 3.36.04 4.85m-3.68 84.69a3.6 3.6 0 0 1-5.3 1.46c-2.13-1.4-1.9-4.84.43-6.13 1.42-.8 1.76-.8 3.13-.02 1.96 1.1 2.62 2.9 1.74 4.69m-30.13 14.61c-.74.7-3.08 2.52-5.19 4.04-2.1 1.52-6.77 5.9-10.36 9.71-5.15 5.48-6.84 6.95-8.05 6.95a3.55 3.55 0 0 1-3.46-3.66c0-2.43 9.53-13 16.81-18.63 5.91-4.58 9.03-5.48 10.7-3.09 1.26 1.8 1.12 3.19-.45 4.68m-18.84 198.87c-2.99 2.7-9.05-.96-19.36-11.7-9.42-9.83-11.7-14.42-8.28-16.66 2.25-1.48 4.05-.66 6.32 2.89 2.98 4.66 12.7 14.49 17.38 17.57 2.27 1.5 4.32 3 4.55 3.33.8 1.12.46 3.6-.61 4.57m-18.05 55.6a145 145 0 0 0-6.4 15.37c-1.34 4.06-2.72 7.73-3.06 8.14-.35.44-1.49.68-2.68.58-4.29-.36-4.24-3.82.23-15.53 2.54-6.66 7.87-17.84 9.37-19.64a3.54 3.54 0 0 1 5.52-.09c.58.72 1.03 1.73 1.01 2.25s-1.82 4.54-4 8.93m-6.44-204.57c-2.79 3.54-7.97-.24-5.5-4.01 1.25-1.91 4.5-1.99 5.8-.13 1.18 1.69 1.14 2.3-.3 4.14m-8.34 101.56c-3.13 2.06-6.58-2.2-4.04-5.01 1.12-1.24 2.65-1.42 4.34-.51 1.71.92 1.53 4.32-.3 5.52m-3.32-66.7c-1.5 5.48-1.95 17.5-.92 24.17.43 2.77.6 5.56.36 6.2-.96 2.59-5.08 2.9-6.38.47-.99-1.84-2.22-11.14-2.23-16.74 0-9.52 2.35-20.7 4.62-21.92 1.84-.98 3.94-.68 4.91.7 1.08 1.54 1.06 1.9-.36 7.12m-19.43-87.25c-.5 1.39-2 2.32-3.79 2.32-2.67 0-31.35-6.36-32.72-7.26-1.6-1.05-2.17-2.8-1.37-4.3 1.42-2.65 2.12-2.62 18.17.82l16.35 3.49c2.46.52 4.07 2.89 3.36 4.93M58.7 396.04c-.5.71-2.53 1.8-4.78 2.54-2.15.7-6 2.16-8.53 3.23-2.54 1.07-5.18 1.94-5.86 1.94-2.57 0-4.1-3.74-2.42-5.95 1.04-1.39 16.48-7.38 19-7.38 1.42 0 3.46 1.97 3.46 3.35a5 5 0 0 1-.87 2.27m-25.58 9.99c-1.82 1.43-3.55 1.53-5.3.3-2.78-1.95-.82-6.64 2.77-6.64 3.71 0 5.35 4.12 2.53 6.34" style="display:inline;fill:#000000;fill-opacity:1;stroke-width:5"/></g><g id="layer5" style="display:inline" transform="translate(345.123 299.861)"><path id="left-node-fill" d="M252.75 284.2c38.46 4.6 68.44 33.93 73.95 72.34 1 6.9.38 23.23-1.12 29.7-4.37 18.96-13.59 34.32-28.2 47-16.49 14.3-38.9 21.42-61.64 19.57a84.4 84.4 0 0 1-68.66-46.63c-4.9-9.8-7.57-19.63-8.5-31.18-3.46-43.01 25.23-81.04 67.64-89.66 6.96-1.42 19.68-1.96 26.53-1.15M229.85 310a57 57 0 0 0-26.71 15.26c-22.58 22.57-22.71 58.15-.3 80.75 19.66 19.84 50.03 22.86 73.03 7.26C286.89 405.8 296 393 299.5 380.1c1.89-6.98 1.9-21.22.02-28.12-8.5-31.23-39.1-49.66-69.67-41.97z" style="display:inline;fill:url(#linearGradient2);stroke-width:0.579725"/><path id="left-node-outline" d="M251.78 277.71c26.11 3.22 48.63 16.06 63.93 36.45 4.41 5.9 11.23 19.09 13.46 26.05 3.27 10.2 4 15.37 4.03 28.16.03 10.36-.15 12.7-1.34 18.26-1.44 6.72-5.65 22.32-15.63 35.11-3.81 4.35-11.95 13.43-16.77 17.2-13.8 10.77-29.63 17.4-46.21 19.34-7.79.92-21.6.35-28.81-1.19-37.07-7.88-64.97-36.82-71.32-73.94-1.56-9.12-1.24-25.44.65-33.62 4.16-18.01 12.28-32.92 24.64-45.22 7.43-7.39 14.05-12.25 22.8-16.72 13.1-6.69 25-9.68 39.55-9.96 4.95-.1 9.9-.05 11.02.08zm-27.25 9.1c-16.5 3.92-29.21 10.96-40.89 22.67-12.05 12.1-19.24 25.45-22.96 42.65-1.86 8.63-1.87 24.24-.02 32.87a85 85 0 0 0 7.95 22.1c11.7 22.55 32.44 38.21 57.84 43.7 7.93 1.7 23.6 1.84 31.4.27a89 89 0 0 0 29.38-11.41c4.86-3.02 5.69-3.7 13.98-11.58 4.19-3.98 10.86-11.95 10.86-12.97 0-.24 1.07-2 2.38-3.93 4.58-6.74 8.83-17.99 10.72-28.36 1.34-7.38 1.37-21.58.06-28.79-6.26-34.25-32.44-61-66.2-67.61-7.29-1.43-7.55-1.45-18.27-1.24-8.31.16-11.24.46-16.23 1.64zm30.73 21.81c22.04 4.69 39.23 21.2 45 43.22 1.92 7.36 2.17 18.75.57 26.1-4.63 21.2-20.92 38.56-41.51 44.26a57.6 57.6 0 0 1-40.43-3.4 59 59 0 0 1-32.11-38.69c-1.54-5.82-2.07-16.61-1.1-22.61 4.7-29.35 29.06-50.16 58.48-49.96 3.59.02 8.23.48 11.1 1.08zm-25.14 8.12c-5.04 1.37-12.75 5.03-16.31 7.74a53 53 0 0 0-16.53 20.34c-3.5 7.54-4.32 11.57-4.33 21.23 0 7.04.21 9.16 1.33 13.04 5.37 18.72 19.24 32.03 38.16 36.6 5.23 1.27 16.47 1.3 22.02.06 14.42-3.2 27.77-13.5 34.42-26.54a51.03 51.03 0 0 0-21.55-68.32c-4.57-2.43-8.04-3.68-13.88-5-5.35-1.21-17.37-.78-23.33.85zm28.68 19.36c6.13 2.85 16.84 15.22 16.86 19.45a3.4 3.4 0 0 1-3.83 3.32c-1.27-.15-2.22-1.08-4.47-4.4-3.5-5.17-10.2-11.5-12.98-12.27-2.75-.76-4.22-2.2-4.22-4.15 0-1.88 1.83-3.43 4.04-3.42.8 0 2.88.66 4.6 1.47z" style="display:inline;fill:#000000;fill-opacity:1;stroke:#000000;stroke-width:8;stroke-opacity:1"/></g><g id="layer4" style="display:inline" transform="rotate(-30 1276.406 -327.922)"><path id="right-node-fill" d="M571.46 214.93a59 59 0 0 1-21.74 6.36c-18.66 1.94-37.13-5.46-49.97-20-12.46-14.1-17.43-34.68-12.86-53.18 2.44-9.82 6.05-16.8 12.9-24.91 3.28-3.88 4.13-4.56 12.52-10 8.4-5.46 9.33-5.95 14.18-7.34 11.13-3.2 20.73-3.5 31.35-1.02 37.07 8.69 56.5 50.3 39.33 84.26a62 62 0 0 1-9.82 13.85c-3.07 3.28-12.16 10.14-15.89 11.98m12.93-38c2.15-4.78 3.18-11.63 2.82-18.68-.36-6.88-1.1-9.7-2.68-10.2-.65-.2-1.65.07-2.3.61-.96.8-1.07 1.9-.59 6.34.97 9.01-.13 17.05-3 22.02-1.46 2.55-1.4 3.94.23 4.84 1.74.96 3.66-.75 5.53-4.93" style="fill:url(#linearGradient4);stroke-width:0.579725"/><path id="right-node-outline" d="M538.51 224.74c-10.25-.64-23.1-5.44-31.74-11.87a63.7 63.7 0 0 1-25.39-44.2c-3.19-28.86 14.69-56.83 42.21-66.04 11.88-3.98 20.53-4.52 32.59-2.03 9.45 1.95 15.66 4.42 22.38 8.9a58 58 0 0 1 16.26 15.84c8.4 11.74 12.14 23.54 11.98 37.8-.17 15.1-6.28 30.35-16.68 41.64-9.12 9.9-22.99 17.34-35.62 19.34a61 61 0 0 1-15.99.62zm-34.3-20.92a58.6 58.6 0 0 0 35.65 15.78c1.66.13 3.17.14 3.36.01.19-.12 1.2-.18 2.27-.14 8.68.38 21.2-3.36 29.64-8.83a58 58 0 0 0 25.33-37.77c1.86-9.9 1.39-18.2-1.6-28.45a51 51 0 0 0-5.94-12.78c-2.5-4.03-6.3-8.7-8.9-11.1-7.9-7.3-16.45-11.93-26.45-14.3-11.63-2.78-21.23-2.33-33.4 1.55-5.6 1.79-18.1 10.08-22.3 14.8-15.62 17.53-19.76 40.82-11.06 62.17 2.15 5.28 8.81 14.76 13.4 19.06z" style="fill:#000000;fill-opacity:1;stroke:#000000;stroke-width:8;stroke-opacity:1"/></g><path id="text1" d="M1091.42-112.02v-14.35l80.44-34.4-80.44-34.32v-14.43l93.28 39.18v19.22z" aria-label="&gt;" style="font-size:192px;font-family:'Liberation Mono';-inkscape-font-specification:'Liberation Mono, Normal';stroke-width:5.49;stroke-linejoin:bevel;stroke-dasharray:0.25,0.25" transform="rotate(47)"/><path id="text1-3" d="M1289.19-164.48q0 26.25-7.78 46.97-7.69 20.63-25.69 42.75h-18q18.38-22.6 26.25-43.4 7.88-20.91 7.88-46.13 0-25.12-7.88-45.94-7.87-20.9-26.25-43.5h18q18.28 22.5 25.88 42.94t7.59 46.31" aria-label=")" style="font-size:192px;font-family:'Liberation Mono';-inkscape-font-specification:'Liberation Mono, Normal';stroke-width:5.49;stroke-linejoin:bevel;stroke-dasharray:0.25,0.25" transform="rotate(47)"/></svg>