<svg xmlns="http://www.w3.org/2000/svg" data-name="&amp;lt;Layer&amp;gt;" viewBox="0 0 1293 1796"><defs><clipPath id="uuid-d9502764-5d51-403c-a8ce-a028c2960c28"><path d="M207.95 1087.1c60.01 588.06 485.6 821.91 1084.6 821.91s1039.6-302.86 1084.6-821.91C2422 569.87 2098.12 29.9 1292.55 28.9c-789.28-.94-1137.3 541.68-1084.6 1058.2" class="uuid-808928b8-5ef0-40ca-9901-1632c0e00777"/></clipPath><style>.uuid-d46f235a-7791-492d-9dfe-d5b24bebe96e {
        fill: #fff;
      }

      .qa-woman-shirt, .qa-woman-skin, .uuid-d46f235a-7791-492d-9dfe-d5b24bebe96e, .uuid-91f776ce-4ba3-4e81-9076-a892714b3f5b, .uuid-a5848d6c-d0be-4ceb-b24f-3afe5adb0838, .uuid-c2e8df05-7fe9-4828-a84e-1ec6bdf35987, .uuid-80d6a7a9-857a-4cb5-88ef-c457786593b0, .uuid-7d5ad68c-4da4-454f-b495-075581279ac1, .uuid-85a3c34d-9e4b-4664-94a0-3c52057b5652, .uuid-777c7156-ee5c-48fb-a02c-677ca7571ad7, .uuid-808928b8-5ef0-40ca-9901-1632c0e00777, .uuid-3cd7c373-ad42-4381-94b5-1cdd85afe6c1, .uuid-e15eed3d-e201-4920-a887-37615d7f4f66, .uuid-d4649476-40c7-405c-9e52-dea5c210e45e, .uuid-d629d475-1fd0-4f5f-9b8c-06564133f9b5, .uuid-5f82934f-bfa6-46bd-9936-858b1b85a36e {
        stroke-width: 0px;
      }

      .qa-woman-shirt, .qa-woman-skin, .uuid-d46f235a-7791-492d-9dfe-d5b24bebe96e, .uuid-91f776ce-4ba3-4e81-9076-a892714b3f5b, .uuid-c2e8df05-7fe9-4828-a84e-1ec6bdf35987, .uuid-80d6a7a9-857a-4cb5-88ef-c457786593b0, .uuid-7d5ad68c-4da4-454f-b495-075581279ac1, .uuid-85a3c34d-9e4b-4664-94a0-3c52057b5652, .uuid-777c7156-ee5c-48fb-a02c-677ca7571ad7, .uuid-3cd7c373-ad42-4381-94b5-1cdd85afe6c1, .uuid-e15eed3d-e201-4920-a887-37615d7f4f66, .uuid-d4649476-40c7-405c-9e52-dea5c210e45e, .uuid-5f82934f-bfa6-46bd-9936-858b1b85a36e {
        fill-rule: evenodd;
      }

      .qa-woman-shirt {
        fill: var(--color-character-clothing-1, #8275bd);
      }

      .qa-woman-skin {
        fill: var(--color-character-woman-skin, #ecded3);
      }

      .uuid-91f776ce-4ba3-4e81-9076-a892714b3f5b {
        fill: #ff9797;
      }

      .uuid-a5848d6c-d0be-4ceb-b24f-3afe5adb0838, .uuid-e15eed3d-e201-4920-a887-37615d7f4f66 {
        fill: #000;
      }

      .uuid-c2e8df05-7fe9-4828-a84e-1ec6bdf35987 {
        fill: var(--color-character-woman-hair, #130d0c);
      }

      .uuid-80d6a7a9-857a-4cb5-88ef-c457786593b0 {
        fill: var(--color-character-clothing-2, #76bdb1);
      }

      .uuid-7d5ad68c-4da4-454f-b495-075581279ac1 {
        fill: #798698;
      }

      .uuid-85a3c34d-9e4b-4664-94a0-3c52057b5652 {
        fill: #f7eee7;
      }

      .uuid-777c7156-ee5c-48fb-a02c-677ca7571ad7 {
        fill: #92b3a3;
      }

      .uuid-808928b8-5ef0-40ca-9901-1632c0e00777 {
        clip-rule: evenodd;
        fill: none;
      }

      .uuid-3cd7c373-ad42-4381-94b5-1cdd85afe6c1 {
        fill: #c9b3a6;
      }

      .uuid-d4649476-40c7-405c-9e52-dea5c210e45e {
        fill: var(--color-character-man-hair, #393127);
      }

      .uuid-d629d475-1fd0-4f5f-9b8c-06564133f9b5 {
        fill: #c8b2a4;
      }

      .uuid-3707ed92-f550-4a58-ba63-54419737dda1 {
        clip-path: url(#uuid-d9502764-5d51-403c-a8ce-a028c2960c28);
      }

      .uuid-5f82934f-bfa6-46bd-9936-858b1b85a36e {
        fill: var(--color-character-man-skin, #ffddc0);
      }</style></defs><g class="uuid-3707ed92-f550-4a58-ba63-54419737dda1" clip-path="url(#uuid-d9502764-5d51-403c-a8ce-a028c2960c28)" transform="translate(-647.29 -113.01)"><g data-name="Ñëîé 2"><path d="m1132.9 1415.7-275.04 18.64-119.06 35.3s-31.1 87.72-24.23 145.83c6.23 52.69 47.62 54.98 47.62 54.98s-2.37 45.51.62 110.23 11.34 148.64 11.34 148.64H900.8s3.3-75.4 10.55-140.6 18.45-120.19 18.45-120.19l33.46.85s12.27 75.16 19.37 140.5 8.55 119.44 8.55 119.44h125.96s8.32-69.8 11.42-135c3.09-65.19.95-125.76.95-125.76s47.64-6.43 49.16-69.64c1.84-76.27-45.77-183.24-45.77-183.24z" class="uuid-777c7156-ee5c-48fb-a02c-677ca7571ad7"/><path d="M1830.4 992.33c-5.94-5.78-18.12-17.84-35.18-26.42-46.57-23.4-118.87-47.21-118.87-47.21l-18.71-19.79-132.6-3.55-19.82 23.91s-78.17 22.11-121.46 43.15-51.68 41-51.68 41-17.46 33.56-28.97 92.19c-18.25 92.96-33.36 235.36-29.78 303.9 2.8 53.58 97.34 71.44 97.34 71.44l26.25 32.27-3.99 32.41s42.55 1 82.61 2.18c40.06 1.17 77.62 2.52 77.62 2.52l-.93 39.6s50.04-7.28 107.02-10.42 120.9-2.14 120.9-2.14l-3.58-55.68 32.44-43.28s22.44-1.19 46.61-14.11c20.65-11.04 43.2-31.7 47.17-55.89 4.06-24.72-1.13-76.01-7.09-135.93-10.61-106.76-31.77-237.53-65.3-270.13z" class="uuid-80d6a7a9-857a-4cb5-88ef-c457786593b0"/><path d="m1321.4 413.33-19.47-23.39-59.18-23.47-15.3 2.39s-3.47 75.05-55.23 200.72c-33.57 81.51-85.74 190.91-123.23 260.84-23.83 44.45-41.58 70.29-41.58 70.29l.04-17.33-13.07-18.51-127.46 13.15-14.25 24.49s-22.58 15.41-54.09 25.55c-33.63 10.82-75.87 19.61-90.54 61.55-18.64 53.32-35.46 126.33-46.21 207.52-6.12 46.26-15.4 98.01-9.07 143.19 7.91 56.36 73.16 117.59 101.98 140.93 8.39 6.8 13.22 7.51 13.22 7.51l122.95-45.81s46.93 6.61 107.15-.55c31.5-3.75 68.68-14.9 95.03-21.21 24.03-5.76 38.72-6.9 38.72-6.9s-14-59.42-13.62-143.4c.23-49.77 8.56-112.95 18.46-177.02 7.27-47.05 13.91-92.43 26.27-144.25 13.61-57.06 51.76-140.06 68.31-198.5 53.46-188.77 90.17-337.79 90.17-337.79" class="qa-woman-shirt"/><path d="m1792.8 1506.6-398.26 7.83s-119.31 16.83-131.37 73.2c-11.32 52.88 8.65 136.25 21.61 209.4a1660 1660 0 0 1 17.71 131.57h143.61s-4.37-106.44-9.29-171.1c-5.04-66.23 2.71-88.21 2.71-88.21s98.87-26.33 162.66-26.7c.75 0 35.83 2.84 70.15 9.1 40.75 7.44 81.76 18.51 81.76 18.51s5.63 16.43 1.52 83.34c-3.97 64.49-7.12 175.06-7.12 175.06h141.06s5.55-48.5 14.88-102.46c9.26-53.52 22.29-112.35 27.45-155.25 8.85-73.49 1.07-86.69 1.07-86.69s-1.43-23.18-36.46-42.58-103.69-35.01-103.69-35.01z" class="uuid-7d5ad68c-4da4-454f-b495-075581279ac1"/><path d="M1824.8 1239s-71.94 3.34-127.28.63c-55.35-2.72-94.1-11.5-94.1-11.5l-4.62-38.25s-49.76 13.08-112.35 17.64-137.98.61-137.98.61l37.33 146.31 8.54 148.44-1.05 31.97s61.3.58 101.2 2.01c39.89 1.44 58.37 3.73 58.37 3.73l-.86 39.05s56.58-7.38 113.46-10.9 114.04-3.19 114.04-3.19l-2.78-53.95 16.96-151.1s5.11-25.79 12.89-56.17 18.23-65.34 18.23-65.34z" class="uuid-d46f235a-7791-492d-9dfe-d5b24bebe96e"/><path d="M1690 660.85c-14.1-18.47-39.46-35.95-63.12-42.91-29.08-8.56-55.63-4.33-55.63-4.33s-32.3-.82-45.69 11.87c-3.46 3.28-8.92 13.75-12.8 17.99-3.73 4.08-14.48 9.03-17.75 14-4.12 6.26-8.75 19.04-11.3 26.14-14.84 41.17 3.69 94.91 3.69 94.91l209.55-.22s24.49-76.28-6.93-117.45z" class="uuid-d4649476-40c7-405c-9e52-dea5c210e45e"/><path d="M1593.8 697.78c-18.16-.18-40.32 2.41-56.49 12.52-14.15 8.85-15.93 43.86-25.25 56.36-7.05 9.45-14.05 9.95-20.59 12.26-5.35 1.89-10.92 5.73-11.51 10.51-4.15 33.53 26.86 42.61 26.86 42.61l8.6 29.25 17.02 26.72-.53 28.12 38.46 49.08 19.66 74.89s4.56-.1 9.4-18.54c4.83-18.44 9.94-55.21 9.94-55.21l33.86-38.04 9.74-41.88 14.38-20.91 9.3-34.96s32.61-8.71 27.02-38.88c-.68-3.66-4.47-8.8-8.36-10.73-7.18-3.57-16.99-3.51-24.31-14.62-8.82-13.39-7.63-46.21-22.35-55.66-14.7-9.43-37.79-12.7-54.83-12.87zm201.1 661.62s-6 13.48-13.36 24.19c-8.71 12.7-19.09 23.57-20.34 32.75-2.91 21.35 16.85 9.3 16.85 9.3s-17.49 15.98-20.19 25.42 9.38 12.34 9.38 12.34-15.34 10.61-11.12 19.18c2.52 5.14 18.59 2.47 18.59 2.47s-23.97 20.34-12.35 27.6c6.87 4.3 39.2-14.48 42.28-18.01 10.9-12.49 1.16-23.68 1.16-23.68s12.4-10.19 14.09-19.04-7.32-16.34-7.32-16.34 10.29-13.58 8.77-22.88-14.84-14.31-14.84-14.31 9.55-16.68 7.58-26.66c-2.76-13.95-19.18-12.35-19.18-12.35zm-410.8-5.8s6 13.48 13.36 24.2c8.71 12.69 19.09 23.57 20.34 32.75 2.91 21.36-16.85 9.3-16.85 9.3s17.49 15.98 20.19 25.42-9.38 12.35-9.38 12.35 15.34 10.6 11.12 19.18c-2.53 5.14-18.59 2.47-18.59 2.47s23.97 20.34 12.36 27.6c-6.87 4.3-39.2-14.48-42.28-18.01-10.9-12.49-1.16-23.68-1.16-23.68s-12.4-10.19-14.09-19.03c-1.7-8.84 7.32-16.35 7.32-16.35s-10.29-13.58-8.77-22.88 14.84-14.3 14.84-14.3-9.56-16.68-7.58-26.66c2.76-13.95 19.18-12.35 19.18-12.35z" class="uuid-5f82934f-bfa6-46bd-9936-858b1b85a36e"/><path d="M1026.9 651.05c-14.03-37.51-48.65-54.72-48.65-54.72s5.2-27.67-6.37-41.92c-16.58-20.43-39.43-17.33-39.43-17.33s-7.12-6.37-14.95-6.42-16.37 6.24-16.37 6.24-15.48-2.49-26.34 5.43-17.11 26.26-17.11 26.26-8.29 6.2-8.75 15.65 6.91 22.13 6.91 22.13-23.98 3.45-33.11 40.66c-4.63 18.84-16.24 48.53-15.93 71.09.31 21.99 12.5 37.08 12.5 37.08l213.73-9.72s11.39-14.18 11.77-31.57c.42-19.38-10.51-43.11-17.91-62.89z" class="uuid-c2e8df05-7fe9-4828-a84e-1ec6bdf35987"/><path d="M923.11 658.96c-10.71.34-23.92 2.01-33.56 7.03-10.3 5.36-12.2 24.21-15.37 39.53-2.56 12.37-6.54 21.12-11.87 28.85-13.05 18.92-40.64 13.83-44.07 24.32-11.09 33.89 26.16 41.06 26.16 41.06l9.87 23.9 19.31 27.55-1.14 36.7 38.83 38.53s3.24 27.63 9.32 46.68c6.08 19.04 15.01 29.49 15.01 29.49l13.88-78.38 34.43-44.12 3.08-32.94s7.88-13.19 13.33-27.18 8.47-28.78 8.47-28.78 31.92-9.31 25.3-39.26c-1.07-4.84-5.18-8.86-13.93-10.08-11.05-1.54-28-.47-38.92-11.78-16.91-17.52-22.4-58.72-34.19-68.83-3.61-3.09-19.02-2.44-23.93-2.28zm366.69-433.67s-5.72 2.22-6.06-17.17c-.43-25.08 3.52-73.56-7.65-77.12-5.02-1.6-8.98.35-10.48 25.72-1.11 18.74.92 62.3-4.39 64.3-7.24 2.73-5.79-96.21-14.56-100.67-5.11-2.6-13.5-8.58-14.16 10.02-.92 25.86 6.47 80.18-.67 87.61-2.05 2.14-3.58-8.51-6.19-17.76-5.63-19.94-13.2-51.26-20.04-60.07-2.91-3.74-11.67-6.92-11.77 1.15-.14 10.73 2.88 27.55 6.5 45.39 4.29 21.11 9.3 42.63 9.3 42.63s-37.63-29.65-44.12-12.67c-2.06 5.39 10.59 13.8 18.69 24.86 7.62 10.4 16.97 25.52 26.29 38.06 13.04 17.54 26.18 32.81 35.64 47.43 7.27 11.23-6.83 53.68-6.83 53.68s11.94 13.29 26.06 22.34 32.02 13.32 32.02 13.32.93-28.86 19.69-90.69c6.21-20.48-1.26-55.89-3.57-95.38-1.66-28.31 3.49-64.57-1.05-71.79-1.96-3.12-7.44-3.67-9.83 1.42-4.91 10.47-6.43 37.04-8.59 52.87-1.2 8.8-4.24 12.52-4.24 12.52zM881.78 1432.6c-5.83-3.6-20.7 7.35-20.7 7.35s-5.58-9.67-14.02-10.35-19.75 7.63-19.75 7.63-8.51-6.55-16.48-3.41c-7.96 3.14-15.38 15.97-15.38 15.97s-13.62-5.35-23.56 20.53c-5.44 14.14-.54 35.09-.54 35.09l23.33-21.76s17.66 11.69 26.09 11.32 7.63-12.8 7.63-12.8 12.78 10.56 18.65 9.8 4.83-12.85 4.83-12.85 11.77 10.96 18.86 10.8 7.22-13.89 7.22-13.89 13.61 17.97 19.47 13.07c7.48-6.26-1.21-47.58-15.66-56.51z" class="qa-woman-skin"/><path d="M1240.1 384.23c1.71 0 3.3-1.1 3.85-2.82 1.2-3.78 11.63-37.37 7.6-51.26-3.01-10.39-15.1-24.47-25.77-36.9-3.75-4.37-7.29-8.49-9.96-11.92-7.62-9.81-17.19-25.3-22.33-33.63l-1.49-2.41c-5.7-9.2-11.89-15.2-16.41-19.58-5.78-5.61-6.05-6.37-5.35-7.29 1.02-1.34 2.83-1.8 4.18-1.95 4.58-.5 12.64 1.58 21.46 9 4.66 3.93 8.15 8.49 11.53 12.9 4.32 5.64 8.78 11.47 15.52 15.71 3.43 2.16 7.58 3.92 11.97 5.78 10.82 4.59 24.29 10.3 36.4 25.59a4.04 4.04 0 0 0 6.33-5.01c-13.39-16.91-28.53-23.32-39.58-28.01-4.26-1.81-7.95-3.37-10.82-5.18-5.51-3.47-9.35-8.48-13.41-13.79-3.64-4.76-7.41-9.68-12.74-14.17-9.14-7.69-19.42-11.75-27.55-10.85-4.18.46-7.54 2.23-9.71 5.09-5.26 6.91.55 12.54 6.16 17.98 4.45 4.32 10 9.69 15.17 18.04l1.49 2.4c5.59 9.05 14.94 24.19 22.83 34.34 2.79 3.58 6.39 7.78 10.2 12.22 9.63 11.22 21.62 25.18 24.14 33.89 2.84 9.78-4.48 36.93-7.54 46.57a4.04 4.04 0 0 0 3.84 5.26z" class="uuid-a5848d6c-d0be-4ceb-b24f-3afe5adb0838"/><path d="M1297.4 419.16a4.05 4.05 0 0 0 4.01-3.57c3.99-34.52 9.8-54.49 14.46-70.54 4.73-16.29 8.47-29.15 7.4-48.65-.55-10.07-1.93-21.8-3.26-33.14-1.43-12.15-2.77-23.63-3.12-32.79-.66-17.41-.22-31.44.14-42.72.7-22.16 1.09-34.36-10.2-35.49-10.51-1.07-12.44 17.89-14.87 41.87a960 960 0 0 1-1 9.53c-.55 4.89-1.46 12.93-2.58 17.24-.26-.91-.49-2.21-.6-4.06-.4-7.19-.42-16.89-.44-27.16-.09-42.72-1.11-61.62-10.48-63.29-3.92-.7-6.95-.16-9.29 1.63-4.48 3.44-5.38 10.67-6.34 22.17-.91 10.91-1.03 23.91-1.15 36.49-.05 5.26-.1 11-.24 16.27-.57-6.87-1.04-14.74-1.47-21.84-2.58-42.65-4.69-63.13-12.93-66.68-4.45-1.92-8.18-1.89-11.1.08-5.38 3.64-6.21 12.51-5.85 27.6.13 5.31.41 11.85.7 18.62.43 9.88.86 20.1.89 27.84.02 5.46.04 10.7.03 15.42-11-46.61-19.33-71.72-31.19-71.55-3.83.07-6.01 1.85-7.16 3.32-4.34 5.54-2.2 16.01 2.64 37.29 5.23 22.99 11.8 61.92 11.87 62.31a4.03 4.03 0 1 0 7.96-1.34c-.07-.39-6.67-39.55-11.96-62.76-2.96-13.01-6.32-27.76-4.16-30.52.15-.19.72-.22.96-.22 0 0 4.49.56 11.86 22.91 4.74 14.37 8.9 32.11 11.93 45.06 2.51 10.74 3.77 16 4.78 18.2q2.23 4.77 5.92 3.98c4.73-1.05 4.72-3.37 4.58-42.11-.03-7.9-.47-18.2-.9-28.16-.29-6.72-.56-13.21-.69-18.48-.3-12.52.47-19.49 2.29-20.72.27-.18 1.29-.25 3.38.65 4.68 3.64 6.88 40.14 8.07 59.75 1.85 30.6 2.84 41.61 6.69 44.98a5 5 0 0 0 3.73 1.28c6.74-.5 7.13-9.6 7.43-41.1.12-12.43.24-25.28 1.12-35.89.43-5.21 1.24-14.92 3.22-16.44.38-.29 1.28-.34 2.56-.15 4.11 4.56 4.18 37.58 4.22 55.42.02 10.38.04 20.18.46 27.59.59 10.53 5.13 13.21 8.83 13.6 7.34.78 8.65-10.54 10.42-26.2q.53-4.8 1.02-9.74c1.12-11.03 3.18-31.33 6.41-34.57 3.37 1.09 3.03 12.09 2.55 27.12-.36 11.4-.81 25.6-.14 43.29.36 9.47 1.73 21.1 3.17 33.42 1.32 11.22 2.68 22.81 3.22 32.64.99 18.12-2.4 29.8-7.09 45.96-4.75 16.34-10.65 36.67-14.72 71.86a4.03 4.03 0 0 0 4.02 4.5zM1017 897.31c1.5 0 2.94-.84 3.64-2.28 7.77-16.05 18.22-36.49 30.32-60.15 34.03-66.57 80.65-157.75 122.73-258.1 42.27-100.8 55.33-187 57.56-203.56l12.38-2.82a4.03 4.03 0 1 0-1.79-7.87l-15.13 3.45a4 4 0 0 0-3.11 3.48c-.1.92-10.98 93.63-57.34 204.2-41.96 100.06-88.5 191.08-122.47 257.54-12.12 23.71-22.59 44.19-30.39 60.31a4.04 4.04 0 0 0 3.63 5.8z" class="uuid-a5848d6c-d0be-4ceb-b24f-3afe5adb0838"/><path d="M1153.1 997.29a4.05 4.05 0 0 0 3.95-3.21c10.99-52.56 26.18-94.62 43.78-143.32 17.49-48.4 37.31-103.26 57.02-180.24 38.82-151.66 67.19-254.61 67.47-255.63a4 4 0 0 0-.78-3.65l-19.02-23.04a4.03 4.03 0 1 0-6.22 5.14l17.69 21.42c-4.16 15.15-31.1 113.7-66.95 253.75-19.61 76.6-39.36 131.27-56.79 179.5-17.7 48.98-32.98 91.29-44.09 144.41a4.04 4.04 0 0 0 3.96 4.87z" class="uuid-a5848d6c-d0be-4ceb-b24f-3afe5adb0838"/><path d="M1309 421.18c7.06 0 11.18-1.36 11.69-1.53a4.02 4.02 0 1 0-2.64-7.62c-.55.18-36.2 11.05-85.92-44a4.03 4.03 0 0 0-5.7-.29 4.03 4.03 0 0 0-.29 5.7c37.09 41.07 67.2 47.75 82.87 47.75zm-177 997.02q.27 0 .55-.04a4 4 0 0 0 3.45-4.54c-1.34-9.83-2.89-17.5-4.53-25.62-4.18-20.74-8.51-42.18-9.49-102.54-1.22-75.15 6.06-118.17 15.28-172.63 4.14-24.46 8.83-52.17 13.26-86.04a4.04 4.04 0 0 0-8.01-1.05c-4.41 33.72-9.09 61.35-13.21 85.73-9.29 54.88-16.63 98.22-15.39 174.11.99 61.1 5.39 82.91 9.65 104 1.61 8 3.14 15.55 4.44 25.12a4.04 4.04 0 0 0 3.99 3.49zm-368.54-55.8a4.04 4.04 0 0 0 4.02-3.67c.52-5.73 1.21-11.76 1.94-18.14 2.48-21.59 5.57-48.47 4.62-87.37-.7-28.82-4.35-49.02-7.57-66.84-2.94-16.24-5.47-30.26-5.38-47.61.04-7.41.12-13.94.18-19.95.27-24.06.45-39.95-1.85-71.63a4.03 4.03 0 1 0-8.05.59c2.27 31.34 2.1 47.1 1.83 70.95-.07 6.02-.14 12.56-.18 20-.1 18.1 2.62 33.16 5.5 49.1 3.17 17.53 6.76 37.4 7.45 65.6.94 38.34-2.12 64.91-4.57 86.25-.74 6.43-1.44 12.51-1.96 18.34a4.04 4.04 0 0 0 3.66 4.38l.37.02zm226.97 568.2h.14a4.03 4.03 0 0 0 3.9-4.17c-2.86-86.74-13.71-162.97-23.29-230.23-11.69-82.12-20.92-146.98-7.22-184.83 8.71-24.07 46.56-42.74 73.32-42.74s47.66 7.93 66.01 26.53c22.61 22.92 39.81 54.63 39.98 54.95a4.04 4.04 0 1 0 7.11-3.83c-.72-1.34-17.9-33.03-41.35-56.79-20.01-20.28-41.47-28.93-71.75-28.93s-70.96 20.56-80.91 48.07c-14.38 39.74-5.02 105.48 6.82 188.72 9.54 67.05 20.36 143.05 23.21 229.35a4.04 4.04 0 0 0 4.03 3.91z" class="uuid-a5848d6c-d0be-4ceb-b24f-3afe5adb0838"/><path d="M1116.6 1931.4a4.04 4.04 0 0 0 4.01-3.62c9.12-87.3 14.24-164.91 14.06-212.93-.09-21.77-.92-39.9-1.66-55.89-1.44-31.36-2.49-54.02 3.37-78.76a4.04 4.04 0 0 0-7.86-1.86c-6.11 25.84-5.05 48.98-3.57 81 .73 15.91 1.56 33.95 1.65 55.55.18 47.75-4.92 125.04-14.01 212.06a4.03 4.03 0 0 0 4.03 4.45z" class="uuid-a5848d6c-d0be-4ceb-b24f-3afe5adb0838"/><path d="M1132.2 1672.1q.45 0 .91-.1c21.75-5.02 37.73-19.34 43.84-39.3 19.89-64.97-19.57-170.7-36.46-205.96a4.04 4.04 0 0 0-7.28 3.48c16.51 34.47 55.16 137.61 36.02 200.11-5.25 17.12-19.07 29.44-37.94 33.79a4.03 4.03 0 0 0 .91 7.97zm-231.59 258.2a4.03 4.03 0 0 0 4.03-3.9c2.85-86.31 13.66-162.3 23.21-229.36 11.85-83.23 21.21-148.97 6.83-188.71-4.51-12.46-15.66-24.36-31.39-33.53a4.04 4.04 0 0 0-4.06 6.98c14.09 8.21 23.99 18.62 27.86 29.3 13.7 37.84 4.47 102.71-7.22 184.82-9.57 67.26-20.42 143.49-23.29 230.23a4.04 4.04 0 0 0 3.9 4.17h.14zM744.22 1552c1.44 0 2.83-.77 3.56-2.12.17-.32 17.37-32.03 39.98-54.95q4.16-4.22 8.39-7.67a4.04 4.04 0 0 0-5.11-6.25 118 118 0 0 0-9.02 8.25c-23.44 23.76-40.62 55.45-41.34 56.79a4.04 4.04 0 0 0 3.55 5.95zm30.26 379 .43-.02a4.04 4.04 0 0 0 3.6-4.43c-9.09-87.05-14.2-164.34-14.01-212.06.08-21.6.92-39.63 1.65-55.54 1.47-32.03 2.54-55.16-3.57-81.01a4.05 4.05 0 0 0-7.86 1.86c5.85 24.74 4.81 47.41 3.37 78.78-.74 15.99-1.57 34.11-1.65 55.88-.19 48 4.94 125.61 14.06 212.93a4.04 4.04 0 0 0 4.01 3.62z" class="uuid-a5848d6c-d0be-4ceb-b24f-3afe5adb0838"/><path d="M759.82 1672.4a4.03 4.03 0 0 0 .31-8.06c-15.42-1.21-25.8-7.73-32.65-20.53-24.24-45.32-.97-128.26 15.07-173.66a4.04 4.04 0 0 0-7.61-2.69c-16.48 46.66-40.28 132.1-14.57 180.16 8.16 15.25 20.97 23.35 39.14 24.77z" class="uuid-a5848d6c-d0be-4ceb-b24f-3afe5adb0838"/><path d="M753.24 1485.2a4.03 4.03 0 0 0 2.69-7.05c-.99-.88-99.06-89.03-100.38-148.7-1.16-52.2 3.12-80.06 9.59-122.24 1.84-12 3.93-25.6 6.12-41.2 9.46-67.49 30.16-145.18 41.16-176.44 10.95-31.09 40.96-40.92 72.75-51.34 20.77-6.81 42.25-13.85 58.26-27.36a4.04 4.04 0 0 0-5.21-6.17c-14.81 12.5-35.52 19.29-55.56 25.86-32.24 10.57-65.58 21.49-77.85 56.33-11.12 31.56-32 109.96-41.54 178a3028 3028 0 0 1-6.1 41.1c-6.54 42.6-10.86 70.74-9.69 123.64 1.4 63.17 98.93 150.84 103.08 154.54a4 4 0 0 0 2.68 1.03" class="uuid-a5848d6c-d0be-4ceb-b24f-3afe5adb0838"/><path d="M746.23 1317.5a4.04 4.04 0 0 0 3.98-3.42l17.45-112.9a4.05 4.05 0 0 0-7.99-1.23l-17.45 112.91a4.03 4.03 0 0 0 4 4.65zm85.02 117.9a4.05 4.05 0 0 0 1.95-7.58c-30.31-16.59-65.91-64.46-81.51-99.3a4.04 4.04 0 0 0-7.36 3.29c16.5 36.83 52.8 85.47 85 103.09a4 4 0 0 0 1.94.5zm113.66 13.3c52.45 0 90.71-9.47 125.46-18.06 21.21-5.25 41.25-10.2 61.65-12a4.05 4.05 0 0 0-.7-8.05c-21.03 1.85-41.36 6.88-62.89 12.21-45.12 11.16-96.28 23.82-177.21 14.68a4.04 4.04 0 1 0-.91 8.03 486 486 0 0 0 54.6 3.2z" class="uuid-a5848d6c-d0be-4ceb-b24f-3afe5adb0838"/><path d="M869.02 1437.8a4.03 4.03 0 0 0 .9-7.97c-9.83-2.27-18.75-4.89-27.38-7.42-9.12-2.68-17.74-5.21-26.59-7.08a4.05 4.05 0 0 0-1.68 7.9c8.55 1.82 17.02 4.3 25.99 6.94 8.74 2.56 17.78 5.22 27.84 7.54q.46.1.91.1zm261.58 278.7h44.29c6.2 0 11.25-5.04 11.25-11.24v-28.69c0-6.2-5.04-11.25-11.25-11.25h-44.75a4.04 4.04 0 0 0 0 8.08h44.75a3.17 3.17 0 0 1 3.17 3.17v28.69a3.17 3.17 0 0 1-3.17 3.17h-44.29a4.04 4.04 0 0 0 0 8.08zm-208.13 0h46.3a4.04 4.04 0 0 0 0-8.08h-46.3a4.04 4.04 0 0 0 0 8.08m-210.65 0h47.57a4.04 4.04 0 0 0 0-8.08h-47.57a3.17 3.17 0 0 1-3.17-3.17v-28.69a3.17 3.17 0 0 1 3.17-3.17h48.81a4.04 4.04 0 0 0 0-8.08h-48.81c-6.2 0-11.24 5.04-11.24 11.25v28.69c0 6.2 5.04 11.24 11.24 11.24zm217.37-43.1h33.67a4.04 4.04 0 0 0 0-8.08h-33.67a4.04 4.04 0 0 0 0 8.08" class="uuid-a5848d6c-d0be-4ceb-b24f-3afe5adb0838"/><path d="M1151.8 1929.9a4.04 4.04 0 0 0 4.04-4.04v-211.65a4.04 4.04 0 0 0-8.08 0v211.65a4.04 4.04 0 0 0 4.04 4.04m-418.08 1.5a4.04 4.04 0 0 0 4.04-4.04v-211.65a4.04 4.04 0 0 0-8.08 0v211.65a4.04 4.04 0 0 0 4.04 4.04m86.89-432.4c4.6 0 7.21-1.92 8.65-3.72 2.72-3.39 2.96-8.52.68-14.06-3.07-7.44-20.28-28.24-33.83-35.75-3.71-2.05-8.21-1.66-12.67 1.12-10.01 6.24-19.55 24.32-18.42 46.83a4.04 4.04 0 0 0 8.06-.4c-1.08-21.51 8.4-35.69 14.63-39.57 1.08-.67 3.08-1.69 4.48-.91 12.16 6.74 28.08 26.45 30.28 31.76 1.17 2.83 1.12 5.13.48 5.94-.54.67-2.19.86-4.3.5-6.59-1.12-18.65-9.03-25.85-13.76a85 85 0 0 0-6.92-4.31 4.03 4.03 0 1 0-3.61 7.23c1.02.51 3.49 2.13 6.1 3.84 8.23 5.4 20.67 13.56 28.92 14.97q1.81.3 3.31.3z" class="uuid-a5848d6c-d0be-4ceb-b24f-3afe5adb0838"/><path d="M845.12 1495.9a9.6 9.6 0 0 0 6.19-2.13c3.55-2.9 4.88-8.3 3.65-14.82-1.6-8.55-14.56-34.22-26.42-45.01a16.7 16.7 0 0 0-12.54-4.44c-7.29.5-15.35 5.6-22.69 14.36a4.04 4.04 0 0 0 6.19 5.19c5.83-6.96 12.04-11.15 17.04-11.49a8.5 8.5 0 0 1 6.57 2.36c10.74 9.77 22.75 34.33 23.92 40.53.68 3.65.11 6.32-.82 7.08-.63.51-2.12.37-4-.4-3.53-1.44-9.05-5.94-16.4-13.38a4.04 4.04 0 0 0-5.74 5.68c8.35 8.45 14.42 13.28 19.1 15.18 2.3.94 4.28 1.31 5.97 1.31z" class="uuid-a5848d6c-d0be-4ceb-b24f-3afe5adb0838"/><path d="M870.13 1494c2.4 0 4.21-.79 5.49-1.69 3.75-2.62 5.48-7.91 4.75-14.51-.96-8.64-11.96-35.21-22.98-46.86-7.91-8.34-19.93-6.95-32.17 3.74a4.04 4.04 0 1 0 5.32 6.08c4.12-3.6 14.42-11.22 21-4.27 9.97 10.54 20.12 35.93 20.82 42.2.41 3.69-.37 6.31-1.35 7-.66.46-2.15.2-3.96-.7-3.16-1.57-7.79-5.85-13.76-12.71a4.04 4.04 0 1 0-6.1 5.3c6.86 7.88 12.02 12.53 16.25 14.64a15 15 0 0 0 6.7 1.78z" class="uuid-a5848d6c-d0be-4ceb-b24f-3afe5adb0838"/><path d="M894.69 1494.2c1.64 0 2.92-.47 3.76-.91 3.77-1.98 5.91-6.88 5.87-13.45-.04-8.01-6.69-33.27-14.62-44.82-2.5-3.65-5.99-5.79-10.08-6.2-6.33-.61-13.54 2.85-20.96 10.05a4.03 4.03 0 1 0 5.63 5.79c5.49-5.33 10.77-8.18 14.53-7.8 1.72.17 3.06 1.04 4.22 2.74 7.14 10.4 13.17 34.48 13.2 40.29.02 4.1-1.15 6.05-1.56 6.26-.13 0-.8-.1-1.97-.91-4.49-3.12-11.41-14.97-15.13-21.34-1.77-3.02-3.04-5.21-3.92-6.38a4.03 4.03 0 1 0-6.45 4.85c.6.8 1.96 3.13 3.41 5.6 6.08 10.41 11.99 20.07 17.49 23.9 2.55 1.77 4.78 2.34 6.57 2.34zm937.61-26.6q.51 0 1.04-.14c3.03-.8 74.11-20.32 73.27-77.49-2.03-139.64-29.54-315.1-60.08-383.15-16.58-36.94-70.64-55.83-114.08-71-14.96-5.23-29.1-10.16-39.31-15.08a4.03 4.03 0 1 0-3.51 7.27c10.62 5.12 24.96 10.13 40.15 15.43 41.98 14.66 94.22 32.91 109.38 66.68 30.17 67.22 57.35 241.22 59.37 379.96.74 50.93-66.59 69.38-67.27 69.56a4.04 4.04 0 0 0 1.03 7.94z" class="uuid-a5848d6c-d0be-4ceb-b24f-3afe5adb0838"/><path d="M1759.4 1427.8c-6.87-10.72 2-22.94 11.38-35.86q2.5-3.4 5-6.98c8.13-11.69 11.28-18.39 13.15-22.4 1.9-4.05 3.4-7.25 8.41-7.25 7.37 0 13.85 3.02 17.79 8.3 3 4.02 5.88 11.15 2.57 22.35-4.49 15.16-32.57 43.75-48.12 45.96q-1.07.15-2.01.14a9.3 9.3 0 0 1-8.19-4.26zm36.86-61.81c-1.86 3.96-5.31 11.33-13.84 23.58q-2.57 3.65-5.1 7.12c-8.06 11.09-15.02 20.68-11.12 26.76.15.24.47.75 2.26.48 11.26-1.6 37.64-27.18 41.51-40.25 1.87-6.33 1.43-11.59-1.29-15.23-2.33-3.12-6.29-4.95-11.15-5.04-.33.58-.83 1.63-1.27 2.59z" class="uuid-a5848d6c-d0be-4ceb-b24f-3afe5adb0838"/><path d="m1765.4 1465.4.8-.02c16.91-.74 50.1-25.35 56.54-39.29 4.43-9.59 2.8-16.42.65-20.46-3.04-5.72-9.16-9.72-16.8-10.96a4.04 4.04 0 0 0-1.29 7.97c5.12.83 9.12 3.3 10.97 6.78s1.56 8.08-.85 13.29c-5.27 11.4-35.78 34-49.56 34.61-.9.04-2.48 0-2.92-.77-3.14-5.48 3.54-12.73 14.92-24.02 2.06-2.05 4.19-4.15 6.28-6.32l1.65-1.71a4.04 4.04 0 0 0-5.86-5.56l-1.59 1.66q-3.1 3.2-6.17 6.2c-11.67 11.58-22.69 22.52-16.24 33.77 1.28 2.24 3.96 4.84 9.48 4.84z" class="uuid-a5848d6c-d0be-4ceb-b24f-3afe5adb0838"/><path d="M1764 1489.7c16.51 0 47.87-16.57 55.47-27.81 5.02-7.43 4.97-13.49 4.05-17.27-1.23-5.02-4.78-9.34-9.99-12.16a4.04 4.04 0 0 0-3.84 7.1c3.18 1.72 5.31 4.2 5.99 6.98.77 3.14-.23 6.89-2.89 10.83-6.3 9.32-37.87 25.59-50.21 24.19-.48-.06-2.07-.28-2.31-.92-1.74-4.51 3.48-9.43 13.08-16.42a4.04 4.04 0 0 0-4.75-6.53c-8.51 6.19-20.17 14.66-15.87 25.84.92 2.4 3.22 5.39 8.93 6.04q1.12.13 2.35.13z" class="uuid-a5848d6c-d0be-4ceb-b24f-3afe5adb0838"/><path d="M1764.9 1517.6c12.73 0 37.62-13.78 44.01-24.61 5.33-9.05 4.62-18.09-1.91-24.17a4.04 4.04 0 0 0-5.51 5.91c3.67 3.42 3.83 8.45.46 14.17-4.24 7.18-23.09 18.41-34.19 20.36-3.19.55-4.58.13-4.82-.07-2.5-5.86 6.52-13.44 15.25-20.77l3.17-2.67a4.03 4.03 0 1 0-5.24-6.14l-3.12 2.64c-10.99 9.23-22.34 18.77-17.43 30.2.76 1.77 2.85 4.79 8.31 5.13q.5.03 1.01.03zm-355.7-91c-15.55-2.21-43.63-30.8-48.11-45.96-3.31-11.19-.43-18.33 2.57-22.35 3.94-5.28 10.42-8.3 17.79-8.3 5.02 0 6.51 3.2 8.41 7.25 1.88 4 5.02 10.71 13.16 22.4q2.5 3.58 5 6.98c9.39 12.93 18.26 25.14 11.38 35.87-1.08 1.68-3.5 4.26-8.19 4.26q-.94 0-2.01-.15m-39.07-63.47c-2.72 3.64-3.16 8.9-1.29 15.23 3.87 13.07 30.25 38.66 41.51 40.25 1.79.24 2.11-.24 2.26-.48 3.9-6.08-3.06-15.67-11.12-26.76-1.67-2.31-3.4-4.67-5.09-7.11-8.53-12.25-11.99-19.63-13.84-23.58-.45-.96-.95-2.02-1.28-2.6-4.72.05-8.77 1.88-11.14 5.06z" class="uuid-a5848d6c-d0be-4ceb-b24f-3afe5adb0838"/><path d="M1413.4 1460.2c5.51 0 8.19-2.6 9.48-4.84 6.45-11.25-4.57-22.19-16.24-33.77a453 453 0 0 1-6.17-6.2l-1.57-1.65a4.04 4.04 0 0 0-5.88 5.54l1.65 1.73q3.17 3.25 6.29 6.32c11.38 11.29 18.07 18.54 14.92 24.02-.44.77-2.03.82-2.92.77-13.78-.6-44.3-23.21-49.57-34.61-2.41-5.21-2.7-9.8-.85-13.29 1.85-3.47 5.85-5.94 10.97-6.78a4.04 4.04 0 0 0-1.29-7.97c-7.64 1.24-13.77 5.24-16.81 10.96-2.15 4.04-3.78 10.88.65 20.46 6.44 13.94 39.63 38.55 56.55 39.29z" class="uuid-a5848d6c-d0be-4ceb-b24f-3afe5adb0838"/><path d="M1414.8 1484.5q1.23 0 2.35-.13c5.72-.65 8.01-3.65 8.94-6.05 4.3-11.18-7.36-19.65-15.87-25.84a4.03 4.03 0 1 0-4.75 6.53c9.6 6.98 14.82 11.9 13.08 16.41-.25.64-1.83.87-2.31.92-12.33 1.41-43.92-14.87-50.21-24.18-2.66-3.94-3.67-7.69-2.89-10.83.68-2.78 2.81-5.26 5.99-6.98a4.04 4.04 0 0 0-3.84-7.1c-5.21 2.82-8.76 7.14-9.99 12.16-.93 3.78-.97 9.84 4.04 17.27 7.59 11.25 38.96 27.81 55.47 27.81z" class="uuid-a5848d6c-d0be-4ceb-b24f-3afe5adb0838"/><path d="M1413.8 1512.3q.52 0 1.01-.03c5.46-.35 7.55-3.37 8.31-5.14 4.92-11.43-6.44-20.97-17.42-30.2l-3.12-2.64a4.04 4.04 0 0 0-5.24 6.14l3.17 2.67c8.73 7.33 17.75 14.91 15.2 20.82-.19.14-1.58.57-4.76.01-11.1-1.95-29.95-13.17-34.19-20.36-3.37-5.72-3.21-10.75.45-14.17a4.04 4.04 0 0 0-5.51-5.91c-6.53 6.09-7.24 15.12-1.9 24.17 6.39 10.83 31.27 24.6 44 24.6zm-60.2-41.8a4.03 4.03 0 0 0 .9-7.97c-.78-.18-78.01-18.58-77.27-69.33 1.86-127.93 23.93-310.74 56.36-383 15.04-33.52 70.56-52.49 115.18-67.74 17-5.81 31.67-10.83 42.5-16.04a4.03 4.03 0 1 0-3.51-7.27c-10.4 5.01-24.86 9.95-41.61 15.68-46.09 15.75-103.46 35.36-119.94 72.08-32.85 73.21-55.2 257.46-57.06 386.19-.83 57.28 80.09 76.53 83.54 77.32q.45.1.91.1z" class="uuid-a5848d6c-d0be-4ceb-b24f-3afe5adb0838"/><path d="M1620.9 1552.6a4.03 4.03 0 0 0 4.03-4.11c-.02-.89-1.67-89.61-6.97-178.28s-14.38-179.6-14.47-180.5a4.03 4.03 0 0 0-4.96-3.52c-.72.17-72.82 17.47-131.92 18.94-59.4 1.49-116.91-1.63-117.49-1.66a4.1 4.1 0 0 0-3.4 1.54 4 4 0 0 0-.69 3.67c.23.75 22.96 75.82 36.1 147.99a4.04 4.04 0 0 0 7.95-1.44c-11.17-61.34-29.21-124.72-34.69-143.41 16.06.74 63.61 2.61 112.42 1.39 51.37-1.28 112.24-14.3 129.1-18.12 1.9 19.53 9.39 98.43 14 175.61 4.58 76.71 6.43 153.47 6.85 173.13a1085 1085 0 0 0-96.08-9.97c-48.15-2.82-106.57-2.79-123.17-2.7.55-5.03 1.39-14 2-26.2a4.03 4.03 0 1 0-8.07-.4c-.94 18.77-2.46 30.01-2.48 30.12-.16 1.16.19 2.34.97 3.22s1.86 1.44 3.07 1.37c.71-.02 71.02-.63 127.21 2.66 56.08 3.28 99.58 10.56 100.02 10.63q.34.06.67.06z" class="uuid-a5848d6c-d0be-4ceb-b24f-3afe5adb0838"/><path d="M1792.4 1369a4.04 4.04 0 0 0 3.95-3.23c13.24-64.6 31.66-125.43 31.84-126.04a4.04 4.04 0 0 0-4.09-5.21c-.57.03-58.11 3.14-117.48 1.66-34.89-.87-74.05-7.18-100.76-12.33a4.04 4.04 0 1 0-1.53 7.93c27.01 5.2 66.64 11.59 102.08 12.47 48.8 1.21 96.35-.65 112.42-1.39-4.83 16.46-19.39 67.56-30.4 121.28a4.04 4.04 0 0 0 3.97 4.85zm-240 214.7q.34 0 .67-.06c.43-.07 43.93-7.35 100.02-10.63 56.2-3.29 126.5-2.67 127.21-2.67a4.2 4.2 0 0 0 3.07-1.37 4 4 0 0 0 .97-3.22c-.03-.2-2.71-20.04-3.15-51.34a4.04 4.04 0 0 0-4.04-3.98h-.06a4.03 4.03 0 0 0-3.98 4.09 521 521 0 0 0 2.67 47.71c-16.59-.08-75.01-.12-123.17 2.71a1081 1081 0 0 0-96.08 9.97c.13-5.99.39-17.3.82-32.31a4.03 4.03 0 0 0-3.92-4.15 3.97 3.97 0 0 0-4.15 3.92c-.65 22.92-.92 37.21-.92 37.21a4.03 4.03 0 0 0 4.03 4.11zm-248.8 348.2q.22 0 .44-.03a4.04 4.04 0 0 0 3.58-4.45c-5.51-50.72-14.43-101.74-23.06-151.07-15.04-86.03-28.03-160.33-15.5-194.94 8.34-23.05 49.89-46.17 111.14-61.86a4.04 4.04 0 0 0-2-7.82c-64.8 16.6-107.35 40.99-116.73 66.93-13.26 36.63-.1 111.91 15.14 199.08 8.6 49.21 17.5 100.09 22.99 150.55a4.04 4.04 0 0 0 4.01 3.6zm141.6-.2h.08c2.23-.05 4-1.89 3.95-4.12-.01-.7-1.48-71.04-5.99-134.04-4.61-64.5-6.67-106.01 3.69-138.44a4.04 4.04 0 0 0-7.7-2.45c-10.79 33.81-8.73 76-4.05 141.47 4.49 62.79 5.95 132.93 5.97 133.63a4.04 4.04 0 0 0 4.03 3.96zm443.7.6a4.04 4.04 0 0 0 4.01-3.6c5.91-54.32 16.55-110.86 25.93-160.75 15.29-81.23 28.49-151.39 17.32-186.94-14.05-44.71-71.64-59.45-127.33-73.72a4.03 4.03 0 1 0-2 7.82c53.55 13.71 108.93 27.9 121.63 68.32 10.56 33.62-2.46 102.85-17.55 183.02-9.41 50.03-20.08 106.74-26.02 161.37a4.04 4.04 0 0 0 4.02 4.48zm-141.1-1a4.04 4.04 0 0 0 4.04-4.04c0-.67.05-68.35 4.54-131.1q.96-13.38 1.9-25.37c3.89-50.88 6.46-84.5-2.82-113.54a4.04 4.04 0 0 0-7.69 2.45c8.79 27.55 6.27 60.54 2.46 110.48q-.93 12.01-1.9 25.41c-4.51 63.04-4.56 130.99-4.56 131.67a4.04 4.04 0 0 0 4.04 4.04z" class="uuid-a5848d6c-d0be-4ceb-b24f-3afe5adb0838"/><path d="M1750.6 1673.5a4.04 4.04 0 0 0 1.05-7.94c-4.24-1.14-104.53-27.97-157.09-26.42-40.87 1.2-148.4 24.67-152.96 25.67a4.04 4.04 0 1 0 1.73 7.89c1.11-.24 111.35-24.31 151.47-25.49 51.34-1.41 153.73 25.87 154.76 26.15q.52.14 1.05.14zm-314.4 42.5h321.39a4.04 4.04 0 0 0 0-8.08H1436.2a4.04 4.04 0 0 0 0 8.08" class="uuid-a5848d6c-d0be-4ceb-b24f-3afe5adb0838"/><path d="M1441.1 1673.5h311.58a4.04 4.04 0 0 0 0-8.08H1441.1a4.04 4.04 0 0 0 0 8.08m355.8 23.8q.63 0 1.28-.21a4.03 4.03 0 0 0 2.55-5.11c-2.37-7.1-6.72-22.85-14.03-57.56a4.04 4.04 0 0 0-7.9 1.67c5.93 28.17 10.73 47.83 14.27 58.45a4 4 0 0 0 3.83 2.76m-407.2-8.3a4 4 0 0 0 3.83-2.76c3.54-10.61 8.34-30.28 14.27-58.45a4.05 4.05 0 0 0-3.12-4.79 4.06 4.06 0 0 0-4.78 3.12c-7.31 34.72-11.66 50.46-14.03 57.56a4.05 4.05 0 0 0 3.83 5.32m389.6-447.1c2 0 3.73-1.48 4-3.51 6.73-50.8 12.61-163.06 12.67-164.19a4.03 4.03 0 1 0-8.06-.42c-.06 1.12-5.92 113.07-12.61 163.54a4.03 4.03 0 0 0 4.01 4.57zm66.3 104a4.03 4.03 0 0 0 2.85-6.89c-.77-.77-19.16-18.76-47.5-12.82a4.04 4.04 0 0 0 1.66 7.91c24.11-5.04 39.98 10.47 40.13 10.63a4 4 0 0 0 2.85 1.18zm-513.4-8.1c1.03 0 2.06-.39 2.85-1.18.71-.7 16.21-15.64 40.14-10.63a4.05 4.05 0 0 0 1.65-7.91c-28.33-5.92-46.73 12.06-47.5 12.82a4.03 4.03 0 0 0 2.86 6.89zm56.3-138q.2 0 .38-.02a4.04 4.04 0 0 0 3.64-4.4c-4.89-51.73-7.84-113.76-7.87-114.38a4.03 4.03 0 0 0-8.06.38c.03.62 2.99 62.85 7.89 114.76a4.05 4.05 0 0 0 4.02 3.66M930.79 880.29l.33-.01c.77-.06 19.11-1.76 44.34-20.1 17.45-12.68 23.28-25.75 26.75-33.55 5.45-12.23 8.73-27.61 11.22-41.06a4.03 4.03 0 0 0-7.95-1.47c-2.26 12.21-5.52 27.72-10.66 39.24-3.36 7.52-8.43 18.9-24.13 30.31-23.22 16.88-40.1 18.57-40.27 18.59a4.03 4.03 0 0 0 .34 8.06z" class="uuid-a5848d6c-d0be-4ceb-b24f-3afe5adb0838"/><path d="m929.82 880.32.67-.01a4.04 4.04 0 0 0-.44-8.07c-.32.03-14.75.38-39-14.26-16.93-10.22-24.95-22.59-29.26-29.23-9.56-14.74-14.14-37.87-14.18-38.1a4.04 4.04 0 0 0-7.93 1.54c.2 1.01 4.91 24.89 15.34 40.96 4.33 6.68 13.34 20.57 31.86 31.75 24.09 14.55 39.57 15.42 42.94 15.42m55.81.14h.08c2.23-.04 4-1.89 3.96-4.12-.26-13.08.58-29.3.59-29.47a4 4 0 0 0-3.82-4.24 4 4 0 0 0-4.24 3.82c0 .17-.86 16.68-.6 30.05a4.04 4.04 0 0 0 4.04 3.96zm24.27-84.78q.36 0 .72-.06 1.35-.24 2.83-.7a4.04 4.04 0 1 0-2.44-7.7q-.96.3-1.82.45a4.03 4.03 0 0 0 .71 8.01m-83.64-4.39a4.03 4.03 0 0 0 2.84-6.91c-4.41-4.36-4.49-6.04-4.48-6.21.02-.57 1.54-1.89 2.65-2.85 2.57-2.22 6.08-5.27 7.21-10.54 2.19-10.29-4.36-24.96-5.11-26.59a4.03 4.03 0 1 0-7.33 3.37c1.74 3.78 5.94 15.03 4.55 21.54-.56 2.63-2.43 4.25-4.6 6.12-2.36 2.04-5.3 4.59-5.43 8.69-.12 3.64 2 7.4 6.87 12.22a4 4 0 0 0 2.84 1.17z" class="uuid-a5848d6c-d0be-4ceb-b24f-3afe5adb0838"/><path d="M928.43 806.14c14.89-.6 29.46-3.71 29.46-3.71s-5.71 27.72-28.63 29.83c-21.79 2.01-30.93-27.43-30.93-27.43s15.2 1.91 30.09 1.31z" class="uuid-91f776ce-4ba3-4e81-9076-a892714b3f5b"/><path d="M894.48 806.03a4.03 4.03 0 0 1 4.36-5.2c.15.02 15.03 1.86 29.43 1.28a196 196 0 0 0 28.79-3.63 4.04 4.04 0 0 1 4.8 4.77c-.26 1.25-6.61 30.67-32.22 33.03q-1.3.12-2.56.12c-22.89 0-32.19-29.09-32.59-30.37zm34.11 4.15c-9.05.37-18.07-.16-24-.66 3.65 7.65 11.5 19.89 24.3 18.72 13.42-1.24 20.18-13.15 23.13-20.61a195 195 0 0 1-23.43 2.55M978 713.79a4.02 4.02 0 0 0 2.3-7.35c-.53-.36-13.18-8.82-29.73-.78a4.03 4.03 0 1 0 3.54 7.26c12.18-5.92 21.27-.06 21.65.19.69.46 1.47.68 2.24.68m-103.77 3.76a4 4 0 0 0 2.45-.83c.41-.31 9.11-6.67 21.6-1.5a4.04 4.04 0 0 0 3.08-7.46c-16.98-7.02-29.12 2.18-29.62 2.57a4.03 4.03 0 0 0 2.48 7.22z" class="uuid-a5848d6c-d0be-4ceb-b24f-3afe5adb0838"/><path d="M984.68 850.55s-29.02 26.97-57.14 27.63c-21.32.5-51.42-24.08-51.42-24.08s30.94 36.66 58.89 41.21c24.25 3.95 50.23-19.38 50.23-19.38l-.55-25.38z" class="uuid-e15eed3d-e201-4920-a887-37615d7f4f66"/><path d="M873.73 889.75c2.12 0 3.9-1.65 4.03-3.8.91-15.56-.24-34.02-.29-34.79a4 4 0 0 0-4.28-3.77 4.03 4.03 0 0 0-3.77 4.29c0 .19 1.17 18.76.28 33.81a4.04 4.04 0 0 0 3.79 4.27zm-19.76-144.23q1.02 0 1.97-.52c.95-.52 15.27-8.77 20.24-27.82a228 228 0 0 0 3.67-17.78c3.56-19.89 6.21-31.21 19.3-32.59a4.03 4.03 0 1 0-.85-8.03c-19.76 2.09-22.98 20.12-26.4 39.2-1.01 5.63-2.05 11.45-3.54 17.16-4.11 15.76-16.26 22.75-16.38 22.81a4.05 4.05 0 0 0 1.98 7.56zm141.19-6.86c3.04 0 4.99-.58 5.16-.63a4.04 4.04 0 0 0-2.36-7.72c-.17.05-5.48 1.47-12.01-2.34-6.04-3.52-14.4-12.4-19.92-34.68-6.77-27.34-14.48-41.32-25.03-45.34-9.52-3.62-19.2 1.7-26.57 6.74a4.03 4.03 0 1 0 4.56 6.66c8.54-5.84 14.44-7.65 19.13-5.86 7.6 2.9 14.16 15.89 20.06 39.73 5.02 20.29 13.1 33.72 24.01 39.9a26 26 0 0 0 12.97 3.53zm-175.59 21.09a4.04 4.04 0 0 0 3.24-6.44c-14.49-19.56-15.7-42.83-4.19-80.29q1.84-6 3.45-11.48c9.84-33.08 14.79-49.69 42.98-52.62a4.03 4.03 0 1 0-.83-8.03c-33.56 3.49-40.06 25.31-49.89 58.35q-1.61 5.45-3.43 11.41c-12.36 40.24-10.79 65.58 5.42 87.47a4 4 0 0 0 3.25 1.64z" class="uuid-a5848d6c-d0be-4ceb-b24f-3afe5adb0838"/><path d="M1032.5 750.43c1.21 0 2.4-.54 3.2-1.57 17.61-22.79 17.04-46.66-2.26-94.6-18.56-46.13-50.08-61.97-72.17-69.87-21.35-7.63-56.65-8.44-75.17 2.54-7.58 4.49-12.03 10.56-13.21 18.01a4.04 4.04 0 1 0 7.98 1.26c.79-4.97 3.94-9.12 9.35-12.33 16.32-9.67 49.11-8.76 68.34-1.88 22.37 8 50.25 22.64 67.4 65.27 18.23 45.29 19.05 66.35 3.36 86.65a4.03 4.03 0 0 0 3.2 6.5zM857.11 609.62a4.03 4.03 0 0 0 2.93-6.82c-5.54-5.84-8.15-13.91-6.65-20.56a13.2 13.2 0 0 1 8.46-9.74 4.03 4.03 0 1 0-2.91-7.53 21.2 21.2 0 0 0-13.42 15.49c-2.11 9.35 1.21 20.04 8.66 27.9a4 4 0 0 0 2.93 1.26" class="uuid-a5848d6c-d0be-4ceb-b24f-3afe5adb0838"/><path d="M880.01 598.29a4.03 4.03 0 0 0 1.04-7.94c-9.21-2.45-16.79-13.1-16.67-18.49.08-3.42 2.1-6.67 4.25-10.1q.8-1.26 1.55-2.52a4.03 4.03 0 1 0-6.95-4.11q-.7 1.18-1.44 2.36c-2.51 4.01-5.35 8.55-5.48 14.19-.2 9.21 9.86 23.07 22.67 26.48q.53.14 1.04.14zm25.22-20.95c20.82 0 49.55-13.47 57.2-32.02a4.04 4.04 0 0 0-7.46-3.08c-6.31 15.3-35.38 29.53-54.56 26.69-7.16-1.06-12.26-3.29-14.37-6.31-1.13-1.62-1.44-3.57-.95-5.97a4.04 4.04 0 0 0-7.91-1.63c-.95 4.63-.19 8.75 2.25 12.23 4.35 6.22 13.18 8.69 19.81 9.66q2.86.42 6 .42z" class="uuid-a5848d6c-d0be-4ceb-b24f-3afe5adb0838"/><path d="M917.74 575.63c.89 0 1.78-.29 2.52-.89 6.14-4.93 9.26-11.36 8.79-18.11-.51-7.35-5.14-14.15-12.69-18.66-13.53-8.07-33.08-6.99-44.53 2.46a4.03 4.03 0 1 0 5.13 6.23c8.7-7.17 24.84-7.97 35.26-1.75 5.18 3.08 8.46 7.68 8.78 12.28.28 4.09-1.72 7.98-5.79 11.25a4.04 4.04 0 0 0 2.53 7.19m59.91 23.69c1.51 0 2.96-.85 3.65-2.3 7.38-15.46-.67-34.01-1.02-34.79-8.54-19.27-26.43-30.47-47.74-29.83a4.04 4.04 0 0 0 .22 8.07c18.28-.51 32.86 8.62 40.14 25.03 2.41 5.45 5.75 18.33 1.11 28.05a4.03 4.03 0 0 0 3.64 5.77" class="uuid-a5848d6c-d0be-4ceb-b24f-3afe5adb0838"/><path d="M936.63 568.76c.93 0 1.87-.32 2.64-.98 4.49-3.88 5.1-13.33 4.6-16.61-1.21-7.86-7.07-18.23-17.08-22.47-5.84-2.47-15.23-3.68-26.81 4.57a4.04 4.04 0 1 0 4.68 6.58c6.86-4.89 13.25-6.13 18.99-3.71 6.77 2.86 11.37 10.51 12.25 16.25.41 2.71-.72 8.26-1.9 9.28a4.05 4.05 0 0 0 2.64 7.1zm-37.28 78.05q.68 0 1.35-.23a4.04 4.04 0 0 0 2.45-5.16c-5.52-15.55-20.37-21.38-21-21.63a4.04 4.04 0 0 0-2.89 7.54c.18.07 12.05 4.86 16.29 16.79a4 4 0 0 0 3.8 2.69m-54.88 156.98a4.04 4.04 0 0 0 .74-8.01c-12.57-2.35-20.01-8.68-23.41-19.91-2.39-7.9-1.06-15.39 3.49-19.54 4.36-3.99 11.17-4.41 19.17-1.17a4.04 4.04 0 0 0 3.03-7.49c-10.89-4.39-20.97-3.41-27.64 2.7-6.86 6.27-9.07 16.94-5.77 27.84 4.31 14.24 14.01 22.58 29.66 25.51q.38.07.74.07z" class="uuid-a5848d6c-d0be-4ceb-b24f-3afe5adb0838"/><path d="M837.92 780.4a4.04 4.04 0 0 0 3.4-6.2 29 29 0 0 0-7.82-7.87 4.05 4.05 0 0 0-4.41 6.77c3.24 2.11 5.4 5.42 5.43 5.45a4 4 0 0 0 3.4 1.85" class="uuid-a5848d6c-d0be-4ceb-b24f-3afe5adb0838"/><path d="M972.52 746.72c-.22-5.29-3.79-9.45-7.96-9.27s-7.37 4.62-7.14 9.91c.22 5.29 3.79 9.44 7.96 9.26s7.37-4.61 7.14-9.91zm-76.79 3.27c-.23-5.3-3.79-9.44-7.96-9.27-4.17.18-7.37 4.61-7.14 9.91.22 5.29 3.79 9.44 7.96 9.27 4.17-.18 7.37-4.62 7.14-9.91" class="uuid-e15eed3d-e201-4920-a887-37615d7f4f66"/><path d="M1010.1 795.64q.54 0 1.08-.15c15.34-4.24 24.29-13.38 27.38-27.93 2.36-11.14-.75-21.59-8.12-27.25-7.18-5.52-17.29-5.64-27.77-.34a4.04 4.04 0 1 0 3.65 7.21c7.7-3.9 14.52-4.06 19.2-.47 4.88 3.76 6.85 11.1 5.14 19.18-2.44 11.48-9.31 18.42-21.63 21.83a4.04 4.04 0 0 0 1.07 7.93z" class="uuid-a5848d6c-d0be-4ceb-b24f-3afe5adb0838"/><path d="M1014.6 771.79c1.45 0 2.86-.79 3.58-2.16.01-.02 1.89-3.51 4.94-5.89a4.04 4.04 0 0 0-4.97-6.37 29 29 0 0 0-7.13 8.51 4.04 4.04 0 0 0 3.57 5.91zm-91.85 219.38c-9.28-20.86-12.61-41.87-14.6-54.43-.56-3.51-1.18-7.45-1.62-8.88-8.59-7.33-36.88-36.19-41.96-46.82a4.03 4.03 0 1 1 7.29-3.48c4.26 8.92 32.49 38.05 40.38 44.54 2.03 1.68 2.5 4.62 3.89 13.37 1.93 12.16 5.16 32.52 14.01 52.41a4.03 4.03 0 1 1-7.38 3.28zm11.78 412.63c-11.79-217.19-2.17-394.35.16-407.63 2.42-13.81 4.31-30.77 5.83-44.4 2.6-23.38 3.35-28.61 5.33-30.83 15.42-17.34 38.73-43.55 41.91-58.3a4.04 4.04 0 1 1 7.89 1.71c-3.34 15.47-22.44 37.96-43.48 61.62-.97 2.74-2.38 15.45-3.63 26.7-1.53 13.74-3.43 30.85-5.9 44.91-2.31 13.16-11.8 189.25-.05 405.8a4.04 4.04 0 0 1-3.81 4.25h-.22a4.04 4.04 0 0 1-4.03-3.82zm17.32-477.51h.03z" class="uuid-a5848d6c-d0be-4ceb-b24f-3afe5adb0838"/><path d="M867.74 964.72q.47 0 .95-.1c2.93-.62 4.19-3.39 6.71-8.91 5.18-11.36 11.48-23.32 21.34-21.61a4.03 4.03 0 1 0 1.39-7.95c-16.6-2.92-25.27 15.66-29.95 25.92-4.09-12.92-10.98-41.98-10.74-46.91.19-4.12 7.05-17.01 12.03-25.18l6.2-5.55a4.04 4.04 0 0 0-5.38-6.02l-6.64 5.94q-.43.4-.75.89c-2.2 3.57-13.16 21.75-13.53 29.53-.27 5.72 10.38 54.37 15.33 58.77a4.5 4.5 0 0 0 3.04 1.17zm130.19-7.09c1.15 0 2.24-.41 3.12-1.19 5.68-5.05 9.82-69.25 9.79-69.83-.37-8.04-11.28-21.99-13.46-24.7q-.45-.56-1.07-.93l-8.74-5.24a4.03 4.03 0 1 0-4.16 6.92l8.11 4.87c4.71 5.96 11.07 15.58 11.25 19.47.29 6.14-3.64 44.88-6.39 59.21l-.89-1.21c-6.81-9.26-18.23-24.76-34.11-21.97a4.04 4.04 0 0 0 1.39 7.95c10.96-1.9 20.51 11.05 26.21 18.8 3.69 5.02 5.54 7.54 8.44 7.84l.51.03zm654.57-43.73a4.03 4.03 0 0 0 4.02-4.05c-.04-10.86.75-20.39.76-20.49a4.04 4.04 0 1 0-8.05-.67c-.03.4-.83 9.96-.79 21.19a4 4 0 0 0 4.04 4.02zm-120.8 3.6a4.05 4.05 0 0 0 4.04-3.91c.39-12.75-.2-24.33-.23-24.82a4.04 4.04 0 0 0-8.06.42c0 .12.6 11.75.22 24.15a4.03 4.03 0 0 0 3.91 4.16z" class="uuid-a5848d6c-d0be-4ceb-b24f-3afe5adb0838"/><path d="M1591.7 925h.17c.8-.03 19.94-1.04 46.97-20.01 18.65-13.09 25.25-27.11 29.19-35.5 6.48-13.76 10.78-31.8 14.46-49.25a4.04 4.04 0 0 0-7.9-1.67c-3.58 16.97-7.74 34.46-13.87 47.48-3.83 8.15-9.62 20.47-26.52 32.32-24.89 17.47-42.51 18.54-42.69 18.55a4.03 4.03 0 0 0 .18 8.07z" class="uuid-a5848d6c-d0be-4ceb-b24f-3afe5adb0838"/><path d="M1591.1 925h.09a4.03 4.03 0 0 0-.07-8.07h-.04c-.27 0-15.33-.26-39.91-17.51-17.38-12.19-25.67-26.13-29.08-33.36-6.12-13.01-10.28-30.51-13.87-47.48a4.05 4.05 0 0 0-7.91 1.68c3.69 17.45 8 35.49 14.46 49.25 3.74 7.95 12.84 23.27 31.75 36.53 26.4 18.52 43.04 18.97 44.56 18.97zm86.6-89.96q.27 0 .53-.03c8.92-1.18 24-9.82 28.97-28.81 2.82-10.74.57-21.28-5.87-27.5-5.49-5.31-13.19-6.85-21.69-4.31a4.04 4.04 0 0 0 2.3 7.74c5.66-1.68 10.42-.87 13.77 2.38 4.34 4.2 5.75 11.73 3.67 19.65-3.94 15.03-15.71 21.99-22.21 22.85a4.04 4.04 0 0 0 .52 8.04z" class="uuid-a5848d6c-d0be-4ceb-b24f-3afe5adb0838"/><path d="M1684.2 809.91c1.32 0 2.61-.64 3.39-1.83a80 80 0 0 1 4.66-6.52 4.04 4.04 0 1 0-6.05-5.35c-1.88 2.13-5.02 6.92-5.37 7.46a4.04 4.04 0 0 0 3.38 6.24zm-178.4 25.35a4.04 4.04 0 0 0 .52-8.04c-6.5-.86-18.27-7.82-22.21-22.85-2.08-7.93-.67-15.46 3.67-19.66 3.35-3.24 8.11-4.06 13.77-2.38a4.04 4.04 0 1 0 2.3-7.74c-8.5-2.53-16.2-1-21.69 4.31-6.43 6.22-8.68 16.76-5.87 27.51 4.97 18.99 20.05 27.63 28.97 28.81q.27.04.53.04z" class="uuid-a5848d6c-d0be-4ceb-b24f-3afe5adb0838"/><path d="M1499.3 810.12a4.03 4.03 0 0 0 3.38-6.24c-.35-.54-3.49-5.33-5.37-7.46a4.04 4.04 0 1 0-6.05 5.35 80 80 0 0 1 4.66 6.52 4 4 0 0 0 3.39 1.83zm89.7 38.84a4.04 4.04 0 0 0 3.04-6.68c-4.23-4.87-4.57-6.94-4.52-7.6.07-.9 1.45-2.07 3.04-3.43 2.72-2.31 6.46-5.49 7.81-11.12 2.75-11.41-3.84-26.86-4.12-27.51a4.03 4.03 0 1 0-7.41 3.21c1.62 3.76 5.44 15.13 3.68 22.41-.74 3.07-2.9 4.91-5.19 6.86-2.6 2.21-5.54 4.71-5.87 8.97-.29 3.85 1.7 8.01 6.47 13.5.8.92 1.92 1.39 3.05 1.39zm2.4 29.15c12.1 0 23.91-3.58 30.75-9.73a4.03 4.03 0 1 0-5.4-6c-10.46 9.41-37.32 11.04-50.45-.2a4.04 4.04 0 0 0-5.25 6.13c7.93 6.79 19.26 9.8 30.34 9.8zm53.8-109.2a4.02 4.02 0 0 0 2.43-7.25c-.53-.4-13.25-9.69-30.7-2.1a4.04 4.04 0 0 0 3.22 7.4c13.01-5.66 22.27.89 22.66 1.17.72.52 1.56.78 2.38.78zm-104.6-.69c.8 0 1.61-.24 2.32-.73.44-.3 9.83-6.57 22.68-.62a4.03 4.03 0 1 0 3.4-7.32c-17.26-8.01-30.2.96-30.74 1.35a4.04 4.04 0 0 0 2.34 7.33z" class="uuid-a5848d6c-d0be-4ceb-b24f-3afe5adb0838"/><path d="M1653.4 890.83s-32.82 28.86-62.39 29.6c-22.42.56-54.07-26.78-54.07-26.78s32.53 40.76 61.92 45.82c25.5 4.4 52.82-21.55 52.82-21.55z" class="uuid-e15eed3d-e201-4920-a887-37615d7f4f66"/><path d="M1474.6 698.04q.89 0 1.75-.4c8.58-4.14 11.9-13.41 15.11-22.38 3.99-11.14 7.44-20.76 19.44-22.11a4.03 4.03 0 1 0-.9-8.02c-17 1.91-22.07 16.05-26.14 27.41-2.79 7.78-5.42 15.13-11.02 17.83a4.03 4.03 0 0 0 1.76 7.68zm11.8 83.77q.49 0 .97-.12a4.03 4.03 0 0 0 2.95-4.89q-.91-3.63-1.94-7.51c-4.36-16.47-9.3-35.13-5.81-61.31a4.05 4.05 0 0 0-8.01-1.07c-3.7 27.77 1.69 48.11 6.01 64.45q1.01 3.8 1.91 7.38a4 4 0 0 0 3.92 3.07m210.5-120.35a4.04 4.04 0 0 0 1.09-7.93 66 66 0 0 1-22.99-12.87c-10.29-9.16-41.6-37.01-81.9-28.84a4.03 4.03 0 1 0 1.61 7.91c36.36-7.38 65.38 18.47 74.92 26.96 11.82 10.53 25.6 14.45 26.18 14.62q.54.15 1.09.15m-177.3-16.97a4.03 4.03 0 0 0 4-3.55c.07-.57 1.93-14 16.5-18.86 6.64-2.21 12.82-2.65 18.79-3.08 8.91-.64 18.12-1.3 27.25-8.1a4.04 4.04 0 0 0-4.82-6.48c-7.24 5.39-14.54 5.91-23 6.52-6.17.44-13.16.94-20.76 3.47-19.56 6.52-21.88 24.8-21.97 25.57a4.02 4.02 0 0 0 4.02 4.5zm178 136.54c1.86 0 3.54-1.3 3.94-3.2.36-1.69.93-3.87 1.59-6.47 5.12-19.89 17.1-66.48-7.03-104.85a4.05 4.05 0 0 0-6.84 4.3c22.28 35.42 11.32 78.05 6.05 98.54-.7 2.73-1.29 5.02-1.67 6.79a4.03 4.03 0 0 0 3.95 4.88zm-134.3-78.94a4.04 4.04 0 0 0 3.54-5.98c-3.33-6.06-11.38-10.62-18.7-10.62a4.04 4.04 0 0 0 0 8.08c4.38 0 9.71 2.95 11.63 6.44a4 4 0 0 0 3.54 2.09zm43.6-.8c.97 0 1.94-.35 2.71-1.05 4.55-4.13 7.71-11.78 7.86-19.05.14-6.52-1.98-12.14-6.13-16.25a4.03 4.03 0 1 0-5.68 5.74c3.21 3.18 3.81 7.38 3.74 10.34-.12 5.7-2.72 10.98-5.22 13.25a4.03 4.03 0 0 0 2.72 7.02m21.1 4.12q.3 0 .61-.05c8.57-1.3 14.17-12.87 13.25-21.97a4.04 4.04 0 0 0-8.04.81c.64 6.4-3.55 12.74-6.43 13.18a4.04 4.04 0 0 0 .6 8.03zm-118.2 60.97a4 4 0 0 0 2.02-.54c11.17-6.44 14.39-19.43 17.23-30.88 3.11-12.54 5.8-23.37 16.9-25.9a4.03 4.03 0 1 0-1.79-7.87c-15.95 3.64-19.66 18.62-22.94 31.83-2.69 10.85-5.24 21.11-13.43 25.83a4.05 4.05 0 0 0 2.02 7.54zm161.8 1.07a4.04 4.04 0 0 0 2.82-6.92c-5.6-5.48-7.01-13.92-8.5-22.86-2.16-12.9-4.6-27.52-21.01-34.16a4.04 4.04 0 1 0-3.03 7.49c12.21 4.94 14 15.63 16.07 28.01 1.64 9.82 3.34 19.97 10.82 27.29a4 4 0 0 0 2.83 1.15" class="uuid-a5848d6c-d0be-4ceb-b24f-3afe5adb0838"/><path d="M1641 803.79c0-5.52-3.52-9.99-7.87-9.99s-7.86 4.47-7.86 9.99 3.52 9.98 7.86 9.98 7.87-4.47 7.87-9.98m-81.9.23c0-5.51-3.52-9.98-7.86-9.98s-7.87 4.47-7.87 9.98 3.52 9.98 7.87 9.98 7.86-4.47 7.86-9.98" class="uuid-e15eed3d-e201-4920-a887-37615d7f4f66"/><path d="M1598.8 1025.5c1.87 0 3.54-1.3 3.95-3.2 1.12-5.3 2.27-12.67 3.5-20.48 1.93-12.34 5.16-32.99 7.65-35.98 19.71-19.24 43.04-43.85 48.06-63.21a4.04 4.04 0 1 0-7.82-2.02c-4.57 17.61-28.4 42.4-45.93 59.5-3.84 3.74-6.08 15.78-9.94 40.46-1.2 7.7-2.34 14.97-3.42 20.05a4.04 4.04 0 0 0 3.96 4.88zm-8.7 154.5a4.04 4.04 0 0 0 4.04-3.96c.1-4.71 2.32-115.73-2.75-144.03-2.17-12.15-8.56-36.3-12.79-52.28a565 565 0 0 1-3.52-13.62c-.91-4.09-5.19-8.92-12.28-16.92-9.94-11.21-23.55-26.56-32.2-45.67a4.04 4.04 0 0 0-7.35 3.33c9.16 20.21 23.24 36.1 33.52 47.69 4.68 5.28 9.98 11.26 10.43 13.31.44 1.97 1.76 6.99 3.6 13.94 4.19 15.85 10.53 39.81 12.65 51.63 4.93 27.52 2.65 141.3 2.62 142.44a4.03 4.03 0 0 0 3.95 4.12h.08z" class="uuid-a5848d6c-d0be-4ceb-b24f-3afe5adb0838"/><path d="M1659.4 1003.5h.14a5.5 5.5 0 0 0 4.49-2.59c5.19-7.94 24.9-72.06 15.12-84.02-3.01-3.68-21.77-26.79-21.77-26.79l-6.27 5.09s18.77 23.13 21.79 26.81c4.8 5.86-7.58 57.49-14.3 72.01-1.69-1.94-4.03-5.19-5.89-7.76-7.71-10.71-17.32-24.03-28.12-22.56a4.04 4.04 0 0 0 1.08 8c6.03-.78 15.07 11.77 20.48 19.28 5.8 8.05 9.03 12.53 13.25 12.53m-137.4-2.3c4.24 0 7.2-4.56 12.58-12.83 5.08-7.81 13.51-20.8 19.53-20.09a4.04 4.04 0 0 0 1.09-8c-11.01-1.52-20.1 12.46-27.39 23.68a135 135 0 0 1-5.07 7.46c-6.68-14.72-18.23-63.79-13.33-69.78 2.95-3.61 23.42-27.5 23.62-27.74a4.04 4.04 0 0 0-6.13-5.25c-.85.99-20.73 24.2-23.74 27.88-9.68 11.83 9.25 74.38 14.29 82.1a5.4 5.4 0 0 0 4.55 2.57m212.9 930.9a4.04 4.04 0 0 0 4.04-4.04v-213.67a4.04 4.04 0 0 0-8.08 0v213.67a4.04 4.04 0 0 0 4.04 4.04m-274.6-.9a4.04 4.04 0 0 0 4.04-4.04v-212.78a4.04 4.04 0 0 0-8.08 0v212.78a4.04 4.04 0 0 0 4.04 4.04M1055.7 568.62q.4 0 .79-.08l21.98-4.39a4.03 4.03 0 1 0-1.58-7.92l-21.98 4.39a4.03 4.03 0 0 0 .79 8m-41.7-59.99c1.12 0 2.24-.46 3.04-1.37l19.35-22a4.04 4.04 0 0 0-6.07-5.34l-19.35 22a4.04 4.04 0 0 0 3.03 6.71m-73.02-27.69c1.91 0 3.6-1.35 3.96-3.29l4.67-24.88a4.03 4.03 0 0 0-7.93-1.49l-4.67 24.88a4.03 4.03 0 0 0 3.97 4.78m-78.95 4.52a4.04 4.04 0 0 0 3.79-5.43l-8.91-24.32a4.04 4.04 0 0 0-7.58 2.78l8.91 24.32a4 4 0 0 0 3.79 2.65m-59.47 31.57a4.05 4.05 0 0 0 2.32-7.35l-21.84-15.24a4.03 4.03 0 1 0-4.62 6.62l21.84 15.24c.71.49 1.51.73 2.31.73zm-17.45 60.22a4.03 4.03 0 0 0 .73-8.01l-27.75-5.18a4.04 4.04 0 1 0-1.48 7.94l27.75 5.18q.38.07.74.07z" class="uuid-a5848d6c-d0be-4ceb-b24f-3afe5adb0838"/></g></g></svg>