<svg xmlns="http://www.w3.org/2000/svg" xml:space="preserve" viewBox="0 0 1002.3 588.02"><path fill="#fff5d5" d="M675.32 77.66c-11.9 1.57-22.86 2.9-33.62 8.58-2.95 1.56-9 3.28-9.01 7.41-.05 7.93 12.72 12.95 18.28 16.15 7.81 4.48 14.86 10.2 22.61 14.8 11.24 6.7 22.9 12.14 33.63 19.73 10.39 7.35 22.02 12.45 32.46 19.52 3.23 2.19 9.65 8.44 13.91 7.67 5.03-.92 3.27-7.77 2.95-11.2-1.08-11.54-1.87-21.63-6.5-32.46-9.3-21.72-31.1-40.92-53.84-47.38-6.58-1.86-14-3.72-20.87-2.82m253.34 205.56h-.58c-4.87-3.66-15.17 6.94-19.13 9.77-18.06 12.94-36.66 25.35-55.07 37.77 5.22-.17 13-7.38 17.4-10.24 13.83-9 27.77-17.88 41.73-26.68 4.66-2.94 16.13-12.69 22-10.33 2.9 1.17 2.43 4.44.48 6.23-4.32 3.94-10.09 6.68-14.94 9.9-20.25 13.48-40.64 26.71-60.87 40.2-69.25 46.16-139.23 91.2-208.7 137.01a2319 2319 0 0 1-34.21 22.06c-4.49 2.84-12.04 5.82-15.3 10.01-2.05 2.62-1.3 6.67-.86 9.67 1.31 8.65 6.87 18.83 14.42 23.5 8.73 5.39 20.6-1.9 28.4-6.73 22.34-13.78 45.3-26.76 66.68-42.03 32.31-23.1 67.32-42.5 100.29-64.51 4.53-3.03 8.17-7.28 12.75-10.32 37.33-24.77 75.76-48.27 113.63-71.84 10.66-6.64 20.9-13.54 31.3-20.5 4.17-2.8 9.62-3.13 13.82-6.66 11.46-9.64 20.57-29.33 16.97-44.4-5.65-23.63-27.92-34.17-47.02-45.13-34.89-20.02-69.27-41.35-103.19-62.95-11.4-7.26-22.35-15.63-33.62-23.13-4.4-2.93-9.9-8.13-15.64-6.43-2.47.73-3.79 2.97-3.87 5.47-.2 6.72 1.54 13.53 1.54 20.29 0 3.29-1.84 7.34-1.3 10.42.51 2.98 3.72 2.83 5.93 3.89 4.58 2.17 13.35 5.61 16.48 9.58a20 20 0 0 1 4.3 14.37c-.33 3.37-2.82 8.87-.57 11.87 4.46 5.93 16.83 9.87 23.27 13.55 14.82 8.46 27.63 19.71 42.32 28.25 10.82 6.28 21.53 12.14 31.89 19.17 3.21 2.19 9.93 4.32 9.27 8.9m21.43-9.9c4 .35 3.33 6.74-.56 6.74-4.57 0-3.95-7.14.56-6.74m-97.37 58.02-.58 1.16zm-1.74 1.16-.58 1.16zm-1.74 1.16.58.57zm-1.74 1.15.58.58zm-1.74 1.16.58.58zm-1.74 1.16.58.58z"/><path fill="#152636" d="M616.19 555.07c-10.92-2.65-20.96-11.16-26.48-22.45-3.65-7.48-4.84-12.35-4.94-20.22-.08-6.92.65-8.61 3.74-8.61 2.75 0 3.43 1.28 3.43 6.44 0 6.68 1.4 12.75 4.4 19.01 2.14 4.5 3.38 6.22 7.07 9.87 5.16 5.09 8.67 7.14 14.95 8.75 2.46.63 4.83 1.44 5.26 1.8 1.29 1.06.98 4.37-.5 5.4-1.53 1.07-2.55 1.07-6.93.01m11.17-5.42c-1.58-1.59-1.54-3.62.1-5.1.7-.66 21.77-14.44 46.8-30.63a952254 952254 0 0 0 290.38-187.93c10.59-6.85 18.77-11.77 19.57-11.77 1.7 0 3.69 1.9 3.69 3.53 0 .67-.76 1.91-1.68 2.76s-18.46 12.39-38.99 25.65c-20.52 13.26-99.92 64.64-176.44 114.17s-139.83 90.16-140.67 90.3a3.1 3.1 0 0 1-2.76-.99zm-8.31-5.31c-2.38-.67-8.82-6.02-12.1-10.05-3.23-4-6.31-9.71-6.31-11.75 0-2.59 3.48-4.6 5.58-3.23.35.23 1.36 1.86 2.23 3.61a37 37 0 0 0 9.48 11.87c5.15 4.16 5.9 4.97 5.9 6.36 0 1.18-1.08 2.56-2.61 3.34-.32.16-1.3.1-2.17-.15m-18.81-28.96a6 6 0 0 1-2.24-1.98c-.78-1.2-.84-1.81-.32-3.3 1.25-3.59 4.37-4.45 6.76-1.88 1.88 2.04 1.8 3.98-.28 6.05-1.83 1.83-2 1.88-3.92 1.1m-6.58-12.49c-1-1.2-.95-4.18.07-5.14.45-.42 74.59-48.7 164.74-107.27 90.16-58.58 163.9-106.68 163.9-106.9-.02-.2-10.88-7.16-24.15-15.45-61.92-38.7-82.83-51.9-83.33-52.67q-.53-.83.79-4.8a40 40 0 0 0 1.63-7.62c.48-5.68-.43-7.1-8.34-12.9-18.6-13.66-17.51-12.55-16.42-16.7 1.07-4.07 1.22-18.58.26-25.02-1.24-8.35-1.35-7.93 3.03-12.02 6.1-5.68 2.73-6.92 34.95 12.86l66.67 40.9c32.37 19.85 64.15 39.35 70.63 43.34 12.39 7.63 13.45 8.63 12.16 11.46-.8 1.75-2.92 2.4-4.89 1.5-.79-.35-14.66-8.77-30.83-18.7l-48.52-29.78a82504 82504 0 0 1-85.12-52.25c-5.36-3.3-10.08-6-10.48-6s-1.29.6-1.98 1.33c-1.26 1.34-1.26 1.35-.33 7.97.9 6.36.85 20.76-.08 24.9-.29 1.27.2 1.83 4.1 4.63 17.5 12.58 18.84 13.83 19.98 18.58.68 2.84.53 8.87-.32 12.73-.35 1.57-2.55.15 81.48 52.63 14.5 9.06 26.96 17.12 27.68 17.9 2.12 2.31 1.7 4.1-1.74 7.43a35 35 0 0 1-5.65 4.42c-2 1.12-297.88 193.28-320.97 208.44-4.94 3.25-7.53 3.88-8.92 2.2m183.22-108.34c0-.16.52-.57 1.16-.9.63-.35 1.16-.5 1.16-.34s-.53.57-1.16.91c-.64.34-1.16.5-1.16.33m215.08-83.79c-1.98-.5-2.8-2.95-1.8-5.4 4.12-10.17 5.27-17.42 4.17-26.36-.82-6.62-2.64-11.82-7.18-20.44-3.76-7.15-4.04-9.1-1.51-10.46 1.88-1 3.86-.16 5.43 2.32 2.68 4.25 7.72 14.8 8.87 18.58 3 9.8 3.08 20.37.23 30.82-2.44 8.97-4.6 11.84-8.21 10.94m-238.6-133.3c-.3-.3-11.89-7.64-25.76-16.33l-43.19-27.08c-9.89-6.21-26.97-16.9-37.97-23.77s-20.46-12.88-21.02-13.35c-1.44-1.24-1.26-2.94.39-3.57.77-.3 1.56-1 1.75-1.58.5-1.44 7.1-6.37 13.3-9.92 7.98-4.58 18.13-7.91 28.7-9.43 6.72-.96 21.38-.37 28.3 1.15 16.84 3.68 31.35 11.5 43.11 23.22 19.67 19.6 27.05 45.97 19.74 70.53-1.38 4.61-3.07 7.18-4.75 7.18-.85 0-1.11.4-1.11 1.74q0 2.64-1.48 1.2zm.5-13.23c8.09-29.49-7.7-61.35-37.86-76.41a81 81 0 0 0-17.94-6.54c-5.67-1.43-6.98-1.54-18-1.51-11.38.03-12.17.1-18.64 1.82a74 74 0 0 0-21.5 9.53 55 55 0 0 0-4.5 3.12c0 .28 15.27 9.96 50.44 31.99 18.33 11.48 40.77 25.56 49.86 31.3 9.08 5.72 16.68 10.33 16.87 10.23s.77-1.69 1.27-3.53"/><path fill="#fff5d5" d="m396.62 13.79.58 1.74 1.74-1.16zm8.11 3.48 1.74 1.16zM149.07 384.82c5.48-.05 9.46-2.56 14.5-4.2 6.36-2.1 13.22-3.53 19.7-5.23 3.45-.91 8.95-.62 11.1-3.97 2.53-3.96-2.38-5.47-3.3-8.66-.76-2.6.46-5.65-1.26-8-1.56-2.13-4.47-1.57-6.58-2.84-6.5-3.92-12.78-8.31-19.08-12.52a5946 5946 0 0 0-67.25-44.04c-5.47-3.54-12.3-10.06-18.55-11.8-2.76-.77-5.43 1.16-8.1.72a3.2 3.2 0 0 1-2.63-3.81c1.11-5.94 12.01-9.8 16.52-12.76 16.98-11.17 34.38-21.7 51.6-32.5 68.28-42.82 135.61-87.18 204.06-129.71a2687 2687 0 0 0 49.28-31.42c6.73-4.38 16.37-8.42 21.59-14.6 5.28-6.25 3.87-15.73.25-22.5-3.72-6.96-12.05-15.62-20.68-15.02-5.37.38-11.18 3.58-16.23 5.37-8.73 3.08-16.69 9.57-24.35 14.68-13.12 8.74-26.33 17.52-40 25.36-26.3 15.08-54.02 27.33-80 43-9.27 5.6-18.76 11.29-27.25 18.02-2.97 2.35-4.44 5.96-7.55 8.05-11.84 7.98-25.42 13.46-37.67 20.8-5.56 3.34-10.3 7.58-15.65 11.09-17.3 11.33-35.6 21.38-53.34 32.02l-39.42 23.62c-8.53 5.12-16.76 9.53-23.46 16.47-2.43 2.52-5.9 3.92-8.4 6.43-4.85 4.85-6.58 10.9-8.2 17.37-2.06 8.19-3.88 16.47-2.66 24.92 3.21 22.3 26.08 34.02 42.72 45.33a7101 7101 0 0 0 53.92 36.42c10.08 6.72 20.06 13.57 30.14 20.29 3.5 2.32 8.51 7.32 12.76 7.82 6.61.77 3.48-10.49 3.48-14.2m268.4-354.8c-1.43 4.98 5.18 11 6.39 16.24h.58a26.3 26.3 0 0 0-6.96-16.23m7.15 17.77.2.39zM55.75 289.55c5.12-.12 5.72 7.13.58 7.62-5.44.51-5.86-7.48-.58-7.62M266.2 408.6c.1 12.84 7.4 24.7 15.42 34.2 18.12 21.48 46.38 35.5 73.28 42.25 9.76 2.45 20.04 4.7 30.15 4.71 3.18 0 7.7.86 10-1.87 3.9-4.63.4-8.03-3.05-11.46-6.86-6.85-15.54-10.53-23.76-15.4-22.83-13.5-45.03-28.27-67.25-42.77q-9.83-6.4-19.71-12.74c-2.68-1.72-6.05-4.72-9.28-5.12-2.01-.25-6.31-.18-7.95 1.1-3.06 2.38-.77 6.23 2.15 7.1"/><path fill="#152636" d="M358.54 493.76c-13.01-1.59-29.93-7.8-44.32-16.26-20.93-12.32-41.16-34.03-50.94-54.67-3.85-8.11-4.63-10.82-5.5-19.03-.62-5.75-.6-6.87.17-8.4a6 6 0 0 0 .58-3.31l-.3-1.55 4 2.45c3.89 2.39 23.5 14.35 93.26 56.93l44.76 27.3c5.8 3.55 10.37 6.6 10.14 6.8s-1.63.66-3.13 1.02c-1.5.37-3.66 1.3-4.79 2.06-2.56 1.74-10.37 4.59-16.02 5.85-5.15 1.15-21.33 1.62-27.91.81m25.85-8.1c3.23-.66 6.88-1.64 8.1-2.17l2.22-.98-30.04-18.32-64.38-39.28c-18.88-11.52-34.47-20.95-34.64-20.95-.56 0-.31 2.62.6 6.1 3.5 13.54 18.67 34.95 34.17 48.26 15.3 13.14 34.82 23.13 52.27 26.75 7.6 1.57 7.9 1.6 17.5 1.7 6.39.07 9.67-.19 14.2-1.11m-232.93-77.4a5 5 0 0 0-2.45-.82c-.79 0-1.72-.62-2.32-1.53-.57-.86-28.9-20.11-65.38-44.42-35.4-23.6-64.97-43.43-65.68-44.09-2.42-2.2-1.08-6.2 2.07-6.2.7 0 29.23 18.65 64.6 42.24l63.33 42.24.34-5.17c.27-4.04.58-5.4 1.45-6.23 1.38-1.33 19.75-8.09 29.32-10.8 12.76-3.6 12.82-3.64 12.47-5.4-.17-.85-.5-3.82-.72-6.6l-.41-5.05-29.63-18.08c-86.98-53.09-83.87-51.14-85.03-53.29-1.18-2.2-.03-3.85 4.87-6.97 13.2-8.39 65.02-41.24 77.2-48.92 7.64-4.83 35.04-22.18 60.86-38.55a57718 57718 0 0 1 80.59-51.02C406.95 69.9 415.08 64.8 416.6 64.8c3.27 0 4.7 3.97 2.21 6.18-.71.64-25.17 16.26-54.35 34.7l-93.91 59.43-109.86 69.54-73.24 46.38-4.24 2.72 20.77 12.67 54.35 33.17c18.46 11.28 34.4 20.85 35.42 21.28 2.14.9 2.55 2.42 2.63 9.88.03 2.55.23 5.95.44 7.54.65 4.82.3 5.96-2.2 7.24-1.24.63-6.86 2.48-12.5 4.1-10.17 2.94-27.36 8.89-28.28 9.79-.27.25-.6 4.72-.73 9.91-.14 5.2-.31 9.51-.4 9.6-.07.07-.64-.23-1.26-.69zM9.7 307.17c-1.93-.47-5.25-5.53-7.2-10.97-4.37-12.22-2.91-29.56 3.53-41.9 2.87-5.5 5.66-8.6 7.73-8.6 3.66 0 4.48 3.24 1.81 7.13-9.34 13.64-10.88 35.63-3.26 46.7 2.12 3.1 2.51 5.05 1.3 6.55-.96 1.2-2.15 1.53-3.91 1.1m64.45-37.31c-1.79-1.9-1.67-4.64.27-6.16 2.06-1.62 3.17-1.51 5.12.53 1.97 2.05 2.24 4.97.58 6.18a4.84 4.84 0 0 1-5.97-.55m15.81-8.78c-1.76-1.76-1.78-2.74-.12-4.61 1.03-1.15 103.33-65.7 263.87-166.52 4.75-2.98 9.27-5.43 10.04-5.43 2.47 0 3.64 1.03 3.64 3.18 0 1.56-.4 2.29-1.89 3.4-1.03.78-12.58 8.14-25.65 16.35l-74.5 46.83a123775 123775 0 0 1-94.2 59.23c-6.7 4.2-26 16.34-42.9 26.97-33.58 21.13-35.01 22-36.11 22.01-.42 0-1.4-.63-2.18-1.41M20.7 241.63c-1.51-1.51-1.47-3.08.15-4.82.71-.77 12.13-8 25.36-16.07s42.45-25.93 64.93-39.7l106.96-65.49a117080 117080 0 0 0 136.36-83.54 6911 6911 0 0 0 21.45-13.19c8.66-5.38 11.62-6.07 13.01-3.02 1.15 2.51.2 4.16-3.62 6.23a663 663 0 0 0-17.24 10.39c-13.47 8.31-48.3 29.65-144.16 88.33l-67.25 41.17c-10.52 6.46-28.52 17.47-40 24.5-11.48 7-36.9 22.57-56.5 34.56S23.92 242.8 23.19 242.8s-1.85-.52-2.49-1.15zM422.96 63.02c-.92-.93-1.13-1.66-.88-3.05 2.44-13.07-.67-23.48-9.75-32.57-5-5.01-10.36-8.28-15.7-9.58-3.67-.9-4.92-1.99-4.92-4.29 0-2.43.92-3.21 3.77-3.21 7.04 0 17.7 6.2 24.81 14.46 3.02 3.5 8.02 13.2 9.03 17.5 1.82 7.72 1.21 18.06-1.21 20.64-1.55 1.64-3.57 1.68-5.15.1m-14.15-1.22c-1.66-.94-2-1.64-2.02-4.09-.01-4.07 3.4-5.78 6.1-3.07 2 2 1.96 5.04-.1 6.65-1.73 1.37-2.33 1.44-3.98.51m-.47-14.84a13 13 0 0 1-1.8-3.45c-1.97-5.59-6.5-11.06-12.22-14.8-3.26-2.11-4.05-4.3-2.27-6.27 3.63-4.01 14.4 4.25 19.97 15.34 2.52 4.99 2.89 7.77 1.24 9.26-1.4 1.26-3.74 1.22-4.92-.08"/><g stroke-width=".16"><path fill="#a00" d="M629.09 308.9c-7.4-1.5-20.27-5.65-26.17-8.42-4.91-2.31-5.56-3.78-5.5-12.41.04-4.31.55-9.12 1.47-14 1.94-10.25 2-10.72 1.66-11.61-.17-.44-2.03-1.67-4.14-2.75-4.28-2.17-12.65-7.98-19.45-13.5-2.46-1.99-4.82-3.62-5.24-3.62-.43 0-4.4 1.41-8.8 3.13-8.49 3.3-13.67 4.99-15.34 4.99-4.97 0-19.15-24.99-23.7-41.73-1.63-6.03-1.55-9.32.27-11.5 1.87-2.2 9.1-5.93 15.37-7.91 12.17-3.85 11.8-3.38 9.99-12.69-.8-4.09-1.4-9.98-1.63-16.03-.3-7.68-.55-9.78-1.32-10.64-.52-.6-5.45-4.2-10.96-8.01-10.01-6.94-11.73-8.65-11.73-11.69 0-1.92 4.73-20.73 7.58-30.13 2.87-9.45 4.02-10.83 8.98-10.83 5.18 0 11.15 1.14 17.24 3.3 6.02 2.14 8.02 2.18 9.09.2 1.87-3.5 10.79-14.23 18.39-22.13 3.23-3.36 4.8-5.44 4.8-6.35 0-.75-1.8-5.15-4-9.79-5.47-11.5-7-15.76-7-19.46 0-2.86.14-3.19 2.17-4.76 5.31-4.13 19.1-11.55 31.99-17.24 9.13-4.02 12.86-4.98 14.97-3.85 1.11.6 7.68 12.81 7.68 14.28 0 .37 1.98 2.8 4.4 5.4 4.9 5.3 4.17 5.08 12.12 3.5 1.6-.31 7.1-.55 12.25-.53 6.8.02 9.5-.17 9.92-.7.32-.4 2.79-5.03 5.49-10.3 5.95-11.6 7.52-14.14 9.56-15.48 2.99-1.95 5.95-1.43 34.01 5.91 6 1.58 10.8 3.58 13.34 5.58 2.26 1.77 5.43 6.88 6.1 9.81.88 3.77.73 12.06-.25 14.78a29 29 0 0 0-1.18 4.93l-.34 2.6 5.91 4.92c3.25 2.7 8.79 7.99 12.3 11.74 5.22 5.58 6.68 6.82 8.01 6.82.9 0 4.58-1.07 8.18-2.39l10.33-3.75c6.53-2.36 11.04-1.7 13.79 2.03 5.4 7.35 18.88 32.03 19.39 35.52.47 3.2-.56 5.38-4.23 8.95-11.08 10.8-16.49 16.68-16.43 17.83.04.68.4 3.71.8 6.74.7 5.33.56 16.15-.35 24.77-.36 3.47-.31 3.67 1.35 5.22.95.89 4.31 3.02 7.47 4.74 13.55 7.38 15.96 9.6 16.35 15.04.32 4.62-4.45 28.19-6.92 34.1-1.76 4.23-1.94 4.45-5.03 5.86-4.39 2-10 1.97-21.3-.15-4.8-.9-9.37-1.47-10.15-1.26-1.02.27-2.75 2.51-6.24 8.08a103 103 0 0 1-12.1 15.7c-8.43 9.24-8.04 7.64-4.5 18.92 3.27 10.36 3.57 11.99 2.55 13.8-1.53 2.73-5.99 5.47-22.84 14-15.15 7.68-16.84 8.4-20.17 8.6-3.3.2-3.84.07-6.04-1.54-2.01-1.46-3.07-3.08-6.2-9.47-2.07-4.24-4.24-8.28-4.82-8.98-1.72-2.1-4.08-3.03-6.17-2.46-4.73 1.29-12.97 2.32-20.93 2.63-6.14.24-9 .58-9.62 1.13-.49.43-2.58 3.98-4.64 7.88-4.48 8.46-9.76 14.49-13.6 15.52-3.53.95-8.56.67-16.24-.89m61.23-66.58c11.48-2.02 25.42-7.95 34.46-14.65 16.48-12.21 27.87-30.35 32.51-51.74 1.49-6.87 1.5-23.7.01-30.73-3.48-16.56-10.73-30.38-22.12-42.24-12.1-12.6-25.24-20.22-41.56-24.13-7.26-1.73-17.83-2.79-23.35-2.32-22.53 1.9-40.25 9.84-55.3 24.76-24.37 24.17-31.37 60.48-17.83 92.55 5.2 12.34 15.13 25.07 25.86 33.18 6.58 4.97 23.7 11.97 34.6 14.15 10.57 2.12 24.5 2.62 32.72 1.17"/><path fill="#152636" d="M630.65 314.81c-8.44-1.55-21.4-5.09-25.12-6.85a21.6 21.6 0 0 1-9.67-9.7c-1.39-2.83-1.57-4.04-2.06-13.75-.3-5.85-.38-12.73-.19-15.28l.35-4.64-4.26-2.74c-4.47-2.86-7.6-5.27-12.84-9.86l-3.13-2.74-5.16 1.68c-9.27 3.02-17.98 5.26-20.5 5.26-4.98 0-7.93-2.54-13.3-11.48a108 108 0 0 1-5.28-10.36c-1.36-3.13-4.4-9.94-6.76-15.13-6.44-14.2-6.45-17.73-.07-23.65 2.73-2.52 5.7-4.34 12.87-7.9 5.12-2.53 9.31-4.92 9.31-5.3s-.36-3.4-.8-6.72c-.5-3.86-.7-8.85-.5-13.76l.29-7.71-9.47-6.16c-5.21-3.38-10.37-7.13-11.45-8.33-3.84-4.26-4.37-9.12-2.16-20.03 3.15-15.53 5.39-23.26 7.76-26.79 4.55-6.76 10.2-7.71 29.03-4.87l6.89 1.03 1.8-2.6A144 144 0 0 1 579.6 70.3l4.73-4.93-1.96-4.45c-4.68-10.6-8.9-21.81-9.22-24.47-.68-5.76 2.38-10.08 10.6-14.96 3.7-2.2 14.28-7.28 30.39-14.59 14.5-6.59 17.57-5.18 26.7 12.25 5.72 10.91 4.36 10.1 14.13 8.34 3.92-.7 7.34-.94 10.74-.75l5 .29 3.1-5.4c1.71-2.96 4.08-7.46 5.27-10 2.82-6 4.35-8 7.5-9.85 2.2-1.3 3.44-1.55 8.17-1.74 7.33-.3 13.18.86 26.3 5.2 17.4 5.75 23.13 9.1 26.13 15.22 1.3 2.67 1.51 3.84 1.5 8.51 0 5.27-.4 11.76-.95 15.35-.25 1.65.14 2.1 6.1 6.88 3.5 2.81 8.24 7.24 10.53 9.83s4.38 4.8 4.66 4.9 4.99-1.29 10.47-3.1c8.24-2.73 10.48-3.26 12.92-3.06 8.6.71 15.23 7.68 23.91 25.1 1.6 3.19 3.88 8.4 5.1 11.6 1.9 4.98 2.2 6.48 2.24 10.73.07 7.76-.91 9.24-11.4 17.09-5.34 4-8.42 6.67-8.24 7.16 1.58 4.45 2.26 24.02 1 28.96l-.62 2.5 2.98 2.37a190 190 0 0 0 10 6.97c4.9 3.22 7.45 5.3 8.52 6.94 4.21 6.5 3.25 17.17-3.18 35.25-4.9 13.75-8.3 18.15-15.02 19.41-1.12.21-6.28-.15-11.46-.82-12.96-1.65-14.07-1.62-15.3.48-2.15 3.63-9.64 12.81-14.84 18.18l-5.49 5.67 1.01 4.77c.56 2.62 1.65 6.98 2.42 9.68 3.24 11.29 1.42 16.11-8.6 22.77-11.17 7.43-31.45 15.6-38.75 15.62-6.86.02-12.72-5.34-18.42-16.82-2.63-5.29-2.72-5.4-4.42-5.05a68 68 0 0 1-17.72 1.25l-7.28-.35-3.67 5.94-6.26 10.15c-2.97 4.82-6.6 8.28-9.81 9.34-3.8 1.26-12.05 1.32-18.45.14zm17.31-7.8c1.58-1.03 3.47-3.76 10.72-15.5 6.3-10.2 4.97-9.52 18.54-9.52 9.17 0 12.39-.22 16.43-1.13 4.3-.96 5.16-1 6-.32.53.45 2.54 3.95 4.46 7.8 4.34 8.67 6.44 11.63 9.51 13.43 2.12 1.24 2.7 1.34 4.94.84 12.1-2.7 34.21-13.4 38.19-18.45 1.52-1.93 1.5-5.84-.04-10.83-1.82-5.88-3.42-13.65-3.44-16.63-.01-2.64.08-2.76 6.55-9.27 6.6-6.64 13.75-15.6 15.94-19.98 1.73-3.44 2.55-3.94 5.77-3.5 1.51.2 5.23.6 8.26.9s7.92.84 10.87 1.25c4.71.64 5.6.62 7.29-.18 2.52-1.2 5.2-6.34 8.71-16.69 4.26-12.56 5.42-22.16 3.1-25.7-.52-.79-4.66-3.93-9.22-7-12.54-8.43-13.48-9.19-13.7-11.05-.1-.9.26-3.88.8-6.62 1.17-5.88.88-18.35-.57-24.12a32 32 0 0 1-.89-4.78c-.03-1.97 3.32-5.28 11.51-11.4 4.08-3.05 7.71-6.21 8.09-7.03 1.1-2.44.78-5.88-1.1-11.49-2.91-8.68-10.85-23.93-14.66-28.14-2.03-2.25-6.27-4.7-8.14-4.7-.95 0-6.48 1.56-12.29 3.48-5.8 1.91-11.2 3.48-12 3.48-.98 0-1.95-.69-3.07-2.18-3.15-4.2-10.45-11.32-16.18-15.78a96 96 0 0 1-7.17-5.99l-1.37-1.48.99-10.17c.54-5.6.8-11.03.58-12.07-1.1-5.19-4.17-7.57-14.9-11.56-14.82-5.52-27.54-8.53-32.75-7.75-3.81.58-5.46 2.44-9.65 10.89-2.1 4.22-5 9.72-6.47 12.2l-2.67 4.54-7.36-.4c-7.41-.39-14.94.47-20.4 2.34a6.7 6.7 0 0 1-3.96.18c-1.72-.46-2.2-1.1-4.47-5.85-3.01-6.32-8.13-15.67-9.99-18.23-.72-1-1.82-1.97-2.42-2.17-1.41-.44-6.37 1.56-22.35 9.03-19.33 9.03-23.48 11.75-23.48 15.39 0 1.7 3.03 9.63 9.72 25.43.8 1.92 1.59 4.54 1.74 5.85.26 2.27.14 2.46-3.04 5.19-4.48 3.82-13.09 13.88-16.94 19.79-3.69 5.66-4.7 6.38-7.67 5.49-3.35-1-17.72-2.98-21.66-2.98-4.5 0-7.2 1.3-8.66 4.15-2.36 4.61-7.95 30.67-7.22 33.6.68 2.7 2.68 4.46 11.27 9.9 4.68 2.96 9.6 6.44 10.93 7.71l2.42 2.32-.3 10.46c-.28 9.26-.16 11.2.98 16.92.7 3.56 1.13 6.96.94 7.56-.23.7-4.15 2.92-11.39 6.42-12.67 6.13-16.19 8.76-16.19 12.1 0 1.28 2.02 6.6 5.53 14.57 6.81 15.45 9.5 20.82 12.65 25.3 2.02 2.88 2.77 3.52 4.32 3.67 1.96.19 8.06-1.39 19.1-4.94 8.19-2.63 8.95-2.46 15.8 3.66 2.7 2.42 7.27 5.93 10.14 7.8 8.73 5.7 8.55 5.52 8.2 8.6-.95 8.34.05 28.83 1.55 31.74 1.82 3.52 5.2 5.84 11.24 7.7a208 208 0 0 0 20.17 4.87c4.03.63 12.28.06 13.84-.96zm-7.37-3.18a4.2 4.2 0 0 1-.96-2.43c0-1.48 7.55-15.7 9.46-17.82 2.23-2.47 6.2-1.06 6.2 2.2 0 1.53-7.53 15.71-9.45 17.8-1.44 1.58-3.93 1.7-5.25.25m108.36-20.47c-1.8-1.41-1.93-3.54-.33-5.14 2.25-2.25 5.8-.8 5.79 2.36-.02 1.88-.58 2.67-2.43 3.37-1.25.48-1.82.37-3.03-.59m-3.63-9.34c-1.65-1.82-4.35-10.31-4.13-13 .14-1.67.55-2.4 1.75-3.06 2.51-1.4 4.36.4 6.27 6.09 2.44 7.3 2.52 8.2.88 9.85-1.76 1.77-3.24 1.8-4.77.11m-71.36-14.68c-1.5-1.05-1.78-4.34-.46-5.44.46-.38 2.61-.94 4.79-1.24 4.87-.68 7.13-1.4 11.08-3.48 4.06-2.16 6.5-1.39 6.5 2.05 0 3.16-4.14 5.87-12.03 7.9-5.31 1.35-8.16 1.42-9.88.21m-40.33-9.43c-1.43-1.58-1.21-3.96.46-5.06 1.72-1.12 3.5-.68 4.7 1.16 2.14 3.27-2.53 6.8-5.16 3.9m31.5-5.4c-13.04-1.33-27.08-6.51-38.82-14.33-6.17-4.1-15.8-13.32-20.67-19.78-3.96-5.24-10.37-17.52-12.43-23.78-3.13-9.57-4.92-22.85-4.29-31.88 2.78-39.77 30.74-71.44 69.84-79.14 7.57-1.49 22.3-1.8 28.6-.62 9.5 1.8 22.16 7.24 32.75 14.07 5.8 3.73 16.06 12.17 19.74 16.22 8.44 9.29 15.48 24.3 18.43 39.32 1.54 7.8 1.4 24.12-.28 31.75-6.7 30.56-27.92 54.57-56.67 64.13a85.5 85.5 0 0 1-36.2 4.05zm17.11-7.46c18.11-2.02 34.39-9.74 46.9-22.28q16.2-16.22 21.3-39.21c1.78-8 1.93-23.69.3-31.12-1.87-8.6-5.1-17.09-9.01-23.8-10.5-17.95-37.16-35.75-57.4-38.33-36.6-4.65-71.28 16.61-83.47 51.16-3.14 8.9-4.3 15.8-4.34 25.9-.07 16.5 4.13 30.42 13.26 44.03 3.4 5.08 11.14 13.38 16.16 17.35 15.74 12.45 36.59 18.49 56.3 16.3m37.56 7.53c-3.07-1.22-1.8-6.36 1.55-6.36 1.76 0 3.5 1.73 3.5 3.5 0 2.24-2.73 3.78-5.05 2.86m-171.94-2.9c-1.79-1.4-1.96-2.64-.64-4.52 1.34-1.92 4.79-1.58 6 .6.8 1.44.78 1.69-.33 3.18-1.53 2.07-3.06 2.29-5.04.74m9.5-3.83c-2.44-3.1-1.08-4.71 6.21-7.39 6.58-2.41 7.8-2.54 9.4-.94 1.45 1.46 1.48 3.58.05 4.88-1.34 1.2-11.28 4.98-13.14 4.98-.74 0-1.85-.67-2.53-1.53m48.87-9.25c-4.9-3.28-10.37-9.67-11-12.87-.27-1.3-.06-2.04.86-2.96 2.2-2.2 3.76-1.61 7.25 2.76a40 40 0 0 0 6.05 6.1c3.01 2.2 3.57 3.04 3.57 5.3 0 1.44-1.92 3.17-3.52 3.17-.52 0-1.97-.68-3.2-1.5m132.87-2.89c-1.65-1.65-1.1-3.95 1.78-7.45 1.48-1.8 3.9-5 5.36-7.11 2.91-4.2 4.36-5.1 6.5-4.03 2.36 1.17 2.2 4.46-.4 8.4-2.48 3.77-6.29 8.61-7.93 10.09-1.41 1.26-4.1 1.31-5.31.1M582.42 199c-.89-1.35-.9-1.67-.14-3.03 1.65-2.95 6.33-1.97 6.33 1.32 0 3.16-4.44 4.4-6.19 1.72m230.49-7.03-6.09-4.1a144 144 0 0 0-8.24-5.14c-4.39-2.46-5.76-4.23-4.98-6.44a3.8 3.8 0 0 1 2.17-2.11c1.9-.68 4.47.51 12.95 6 9.55 6.17 11.63 8.9 8.88 11.65-1.43 1.42-2.73 1.46-4.7.14m-52.33-2.94c-1.26-1.4-1.21-3.16.1-4.36 2.19-1.97 5.9-.5 5.9 2.33 0 2.71-4.12 4.1-6 2.03m-180.53-9.69c-1.9-1.33-3.6-7.62-4-14.74-.5-8.87.68-12.34 4.2-12.34 2.83 0 3.18 1.02 3.37 9.76.12 5.64.46 8.85 1.12 10.68 1.24 3.4 1.2 5.4-.1 6.58-1.32 1.2-2.94 1.22-4.59.06m185.48-16.83c-1.27-.89-1.3-1.17-1.11-8.7.17-6.89.33-7.88 1.32-8.63 1.65-1.25 3.02-1.08 4.7.6 1.44 1.45 1.47 1.63 1.27 8.34-.17 5.75-.38 7.06-1.3 8.08-1.32 1.45-3.09 1.56-4.88.3m-220.25-22.53c-6.3-3.02-15.06-8.32-15.46-9.36-1.05-2.74.47-5.46 3.07-5.46.71 0 3.5 1.3 6.2 2.9s6.49 3.7 8.4 4.66c1.9.96 3.98 2.26 4.6 2.9a3.56 3.56 0 0 1-1.48 6c-.73.22-2.75-.4-5.33-1.64m36.3-8.07c-1.72-.86-2.18-3.84-.8-5.23 2.1-2.1 5.5-.54 5.5 2.5 0 2.53-2.35 3.89-4.7 2.73m173.78-12c-1.84-1.45-2-3.57-.37-5.18 1.61-1.62 3.73-1.47 5.17.36 1.56 1.98 1.52 2.85-.22 4.59s-2.6 1.78-4.58.22m-160.83-8.4c-2.96-2.08-.76-6.86 7.13-15.42 7.48-8.13 10.93-10.1 13.23-7.55 1.93 2.13 1.22 3.5-5.3 10.2-3.44 3.53-7.13 7.72-8.2 9.32-3.03 4.55-4.34 5.2-6.86 3.44m143.2-14.85a47 47 0 0 0-10.7-9.59c-3.38-2.23-4.25-3.1-4.4-4.43-.24-2.03 1.3-3.86 3.24-3.86 4.04 0 16.1 9.6 18.07 14.39.7 1.73.67 2.07-.37 3.48-1.74 2.34-3.92 2.34-5.85 0M770.1 84.8c-2.24-2.86-1.2-4.39 4.95-7.23 5.61-2.6 7.33-2.78 8.6-.97 2.16 3.09.6 5.15-5.97 7.93-5.2 2.2-6.04 2.22-7.58.27M626.01 79c-1.45-1.45-.91-4.34 1.01-5.4 1.43-.8 1.76-.8 3.2 0a3.37 3.37 0 0 1-1.65 6.35 4 4 0 0 1-2.55-.94m161.83-1.27a3.51 3.51 0 0 1 2.62-5.9c2.97 0 4.52 4.01 2.32 6-1.4 1.27-3.74 1.22-4.94-.1m-88.37-4.48c-2.51-1.76-1.16-6.05 1.9-6.05 3.07 0 4.42 4.29 1.9 6.05-.7.5-1.56.9-1.9.9s-1.19-.4-1.9-.9m-48.08-1.43c-1.45-.58-2.2-2.76-1.68-4.84 1.02-4.07 17.87-6.15 20.2-2.5.77 1.23.47 3.67-.57 4.59-.7.61-2.72.97-6.52 1.16-3.52.17-6.18.62-7.37 1.23-2.07 1.07-2.26 1.09-4.06.36m-52.92-7.68c-1.76-.87-7.43-11.97-7.5-14.68-.07-3.22 3.84-5.01 5.91-2.7.5.56 2.24 3.92 3.87 7.47 2.47 5.4 2.86 6.7 2.4 7.94a4.5 4.5 0 0 1-1.72 2.1c-1.39.74-1.2.75-2.96-.13m-11.26-22.2a3.4 3.4 0 0 1 .03-4.59c1.42-1.43 4.34-.92 5.38.94.76 1.37.75 1.68-.14 3.04-1.15 1.76-3.82 2.07-5.28.6zm96.22-6.18a5 5 0 0 1-.9-2.03c0-1.18 8.68-18.27 10.02-19.72a4 4 0 0 1 2.5-1.3c1.32 0 3.71 2.43 3.71 3.77 0 1.23-8.56 18.12-9.83 19.39-1.6 1.6-4.34 1.54-5.5-.1"/></g><g stroke-width=".16"><path fill="#a00" d="M395.02 583.48c-3.4-1.48-6.78-6.08-8.63-11.7-1.16-3.54-3.06-7.35-6.04-12.07-4.22-6.71-4.33-6.96-3.75-9.13.95-3.56.57-3.66-13.2-3.76-11.38-.08-20.7-.98-26.69-2.56a24 24 0 0 0-4.98-.55h-2.89l-3.85 4.56a194 194 0 0 0-6.49 8.15c-5.07 6.89-15.23 15.7-18.1 15.7-.47 0-1.39.68-2.05 1.52-1.18 1.5-1.28 1.53-6.36 1.17-2.84-.2-5.86-.74-6.71-1.2a56 56 0 0 0-6.75-2.38c-5.54-1.65-14.13-5.9-27.18-13.44-10.21-5.9-14.02-8.64-15.57-11.18-.67-1.12-1.9-2.6-2.72-3.29-1.45-1.2-1.5-1.45-1.44-7.53.1-9.3 3.76-23.5 7.7-29.82a32 32 0 0 0 2.65-5.66c.54-1.63 1.64-3.49 2.45-4.12s1.34-1.52 1.17-1.95c-.17-.44-1.96-1.9-3.98-3.26-4.27-2.88-15.52-13.77-21.63-20.96-6.94-8.15-8.89-9.96-10.34-9.57-7.26 1.95-28.28 5.57-32.29 5.57-5.11 0-6.84-2.05-11.72-13.91-6.81-16.53-11.26-32.46-12.96-46.38-1.58-12.9-.36-19.02 4.26-21.38 5.68-2.9 18.66-6 28.25-6.75 10.57-.83 11-1.43 10.82-15.56-.07-5.78.16-12.08.5-14 .36-1.9 1.03-6.6 1.5-10.43s1.01-7.87 1.18-8.99c.4-2.7-.74-4.06-14.8-17.75-6.18-6.02-11.59-11.78-12.03-12.8-1.69-3.97-.77-8.38 3.5-16.87 1.07-2.13 2.87-6.12 4-8.87 3.5-8.43 14.22-29.62 15.88-31.36 2.2-2.3 5.5-3.1 9.16-2.21 7.13 1.73 14.78 4.33 18.06 6.15a87 87 0 0 0 10.08 4.3l6.51 2.33 3.7-3.8c2.02-2.09 3.68-4.13 3.68-4.52 0-1.6 21.4-20.1 23.23-20.1 1.8 0 9.26-4.63 9.97-6.19.47-1.04.32-2.37-.66-5.84-.7-2.47-1.9-6.87-2.67-9.78-.78-2.91-2.1-7.09-2.92-9.28-2.12-5.6-4.92-15.74-4.92-17.82 0-1.36.71-2.44 3.18-4.83 1.74-1.7 3.56-3.08 4.02-3.08.47 0 2-1 3.42-2.23 1.42-1.22 4.37-2.94 6.56-3.81s4.37-1.94 4.85-2.36c1.95-1.73 19.78-7.3 31.46-9.82 6.02-1.3 7.79-1.44 15.01-1.2 9.08.3 9.76.55 11.36 4.34.47 1.1 2.06 3.35 3.54 4.97 4.94 5.43 10.16 18.33 10.2 25.21l.03 3.8 6.37.14c9.53.22 19.66 1.97 33.87 5.88 2.5.68 3.09.34 6.05-3.56 22.13-29.14 23-30.05 28.52-30.05 3.84 0 13.79 3.87 31.46 12.26 3.93 1.87 7.3 3.4 7.48 3.4 1.48 0 14.07 7.03 17.52 9.78 7.74 6.17 8.28 8.8 4.95 24.12a151 151 0 0 0-1.44 7.54c-.24 1.6-.9 5.92-1.49 9.62l-1.04 6.71 7.2 8.65a232 232 0 0 1 19.33 27.34c1.2 2 2.71 3.92 3.36 4.27 1.3.7 11.9-.75 22.79-3.12a58 58 0 0 1 11.88-1.27c7.95-.03 9.7.77 12.43 5.7 3.97 7.15 16.38 41.46 18.33 50.68.62 2.88.53 5.8-.36 11.59-.42 2.76-2.8 5.59-5.74 6.83a55 55 0 0 0-5.24 2.85q-3.48 2.11-5.03 1.9c-1.1-.16-4.14 1.14-10.43 4.46-8.6 4.54-8.88 4.74-8.74 6.42.08.95.15 5.67.15 10.5.02 9.72-.78 15.52-3.52 25.43-3.54 12.83-4.05 15.1-3.74 16.39.53 2.15 4.15 5.74 12.76 12.63 15.44 12.37 18.63 16.97 17.07 24.67-1.26 6.23-12.9 35.7-16.87 42.67-4.65 8.19-7.25 9.7-16.43 9.6-5.9-.05-10.5-1.17-19.73-4.78-5.21-2.04-6.58-2.34-10.62-2.34-4.18 0-4.81-.15-6.49-1.56l-1.85-1.56-2.68 2.87c-1.48 1.58-5.17 5.58-8.2 8.9-6.03 6.59-20.52 18.92-27.38 23.3-2.44 1.56-2.51 1.9-1.34 6.42.47 1.78 1.26 6.47 1.77 10.4.5 3.95 1.17 7.63 1.47 8.18s.56 2.71.56 4.8c0 3.4-.19 3.99-1.72 5.66-.94 1.03-2.43 2.76-3.32 3.85-2.45 3.01-6.1 4.48-28.3 11.35a368 368 0 0 0-11.88 3.86c-1.76.64-7.2 2.19-12.1 3.44-9.38 2.39-14.13 2.8-17.2 1.46m-.52-94.78c12.32-2.3 23.18-6 34.46-11.72 13.93-7.06 26.98-17.33 33.98-26.73a220 220 0 0 0 15.51-25.24c2.48-4.93 5.98-14.93 8.72-24.93 2.7-9.85 3.66-15.6 4.96-29.67.66-7.2-.34-17.49-2.21-22.65a332 332 0 0 1-4.45-15.36c-4.01-14.8-5.34-17.53-16.3-33.56a85 85 0 0 0-5.24-6.17c-15.92-17.38-32.57-28.28-53.53-35.04-13.08-4.22-24.49-5.76-39.42-5.32-23.27.7-43.54 7.14-62.6 19.93a96 96 0 0 0-12.95 9.9c-18.13 15.83-31.56 38.39-37.19 62.43-1.44 6.17-1.42 6.06-2.29 14.9a117.6 117.6 0 0 0 7.27 54.28c10.8 28.4 31.27 50.13 61.73 65.52 9.25 4.67 17.44 7.33 29.8 9.67 6.56 1.24 8.48 1.35 20.29 1.17 10.05-.16 14.51-.49 19.46-1.41"/><path fill="#152636" d="M395.5 586.38a28 28 0 0 1-7.25-5.74c-3.47-3.7-5.08-6.27-15-24l-2.5-4.5h-7c-9.48 0-19.16-.97-26.08-2.59l-5.74-1.35-1.48 1.83c-3.12 3.86-17.39 18.03-21.53 21.38-8.9 7.2-15.83 8.8-27.4 6.3-7.47-1.62-22.04-8.62-35.8-17.19-14.7-9.17-16.7-11.3-18.07-19.32-.92-5.37.26-12.43 4.43-26.45 1.71-5.74 3.62-12.18 4.24-14.31l1.13-3.87-3.45-2.5c-3.42-2.48-15.87-15.67-23.02-24.4-2.02-2.47-3.98-4.5-4.34-4.5s-3.78.9-7.6 2a111 111 0 0 1-21.35 4.14l-4.55.4-3.56-3.74c-4.27-4.47-7.89-10.72-12.53-21.63-6.3-14.82-10.12-31.34-12.02-51.95-.66-7.09 2.82-13.13 8.4-14.58a739 739 0 0 0 19.16-6.22l16.44-5.51.24-8.12c.37-12.02 1.82-23.35 4.03-31.32.26-.95-1.08-2.43-6.8-7.54-17.9-16-18.33-16.42-19.94-19.7-3.55-7.26-1.37-14.8 12.05-41.73 12.15-24.36 13.96-26.77 20.66-27.38a31 31 0 0 1 7.16.38c6.44 1.22 18.97 5.24 25.7 8.24l6.55 2.92 11.2-11.28c8.38-8.43 12.72-12.3 17.2-15.38 3.3-2.26 6.28-4.2 6.64-4.32.42-.14-.13-2.24-1.52-5.9-1.2-3.12-3.37-10.53-4.83-16.48-2.3-9.36-2.6-11.35-2.33-14.86.78-9.78 4.08-13.8 16.13-19.63 11.36-5.5 24.58-10.06 39.92-13.77 4.25-1.03 7.23-1.34 13.04-1.36 7.08-.03 7.74.07 10.8 1.57 7.01 3.45 11.4 10.27 17.04 26.52 3.98 11.45 3.4 10.73 8.48 10.54 7.19-.28 24.1 2.51 30.88 5.1 1.4.52 1.94-.04 11.98-12.62 5.78-7.24 11.34-13.9 12.34-14.8 3.14-2.82 8.75-5.16 13.06-5.47 4.81-.35 8.29.82 26.15 8.78 17.25 7.69 20.34 9.21 26.89 13.29 7.33 4.57 10.14 7.07 12.25 10.92 1.5 2.74 1.7 3.68 1.7 8.03.02 5.19-2.6 26.3-3.97 32.11l-.8 3.41 5.92 6.56c6.35 7.01 14.53 18.06 18.65 25.21l2.54 4.39 7.98-1.33c9.49-1.57 23.83-2.77 26.76-2.24 10.96 2.02 17.98 11.95 26.24 37.11 6 18.26 7.54 24.45 7.6 30.44.11 11.02-3.71 15.05-24.5 25.83l-10.15 5.26-.38 9.53c-.53 13.4-2.23 22.92-5.89 33.13l-2.02 5.63 5.88 5.18c10.63 9.35 20.9 19.86 22.72 23.27 1.56 2.9 1.72 3.68 1.7 8.7-.02 6.2.14 5.77-12 32.75-8.63 19.16-10.4 21.7-16.86 24.14-5.95 2.26-15.6 1.63-29.67-1.92a254 254 0 0 0-11.44-2.48l-6.79-1.31-2.76 3.54c-7.27 9.32-20.53 20.76-33.6 28.99-.04.03.28 2 .72 4.4 4.14 22.53 3.3 30.1-3.84 34.87-3.2 2.13-15.42 6.81-25.49 9.76-3.02.89-11.37 3.5-18.55 5.8-11.66 3.73-13.66 4.2-18.84 4.46-5.61.28-5.9.23-9.37-1.52zm12.26-6.07c1.28-.18 6.1-1.53 10.73-3.01 4.62-1.48 12.84-4.08 18.26-5.77 23.38-7.3 28.1-9.31 29.21-12.51 1-2.86.76-10.73-.55-18.27-2.39-13.72-2.38-13.65-1.66-15.38.42-1.01 2.01-2.45 4.17-3.76 4.27-2.6 14-9.78 18.63-13.77 1.89-1.62 6.29-6.21 9.77-10.2 6.75-7.7 7.93-8.65 10.97-8.76 2.21-.08 11.94 1.72 18.74 3.46 6.9 1.77 17.48 3.57 20.82 3.54 3.35-.03 6.83-1.11 8.54-2.66 1.8-1.63 4.75-7.26 9.48-18.12a392 392 0 0 1 6.15-13.53c5.25-10.4 6.82-17.4 4.85-21.56-.91-1.92-13.53-14.6-23.59-23.7-7.14-6.45-7.2-6.68-4-15.38 3.91-10.63 5.32-18.7 5.68-32.57.22-8.84.51-12.21 1.13-13.19 1.16-1.85 3.95-3.47 13.55-7.93 10.1-4.68 17.36-9.35 19.22-12.36 1.9-3.06 1.8-9.02-.26-16.37-2.89-10.33-8.95-28.1-11.72-34.4-3.76-8.53-6.8-12.55-11.02-14.62l-3.3-1.61-8.2.62c-4.51.34-12.8 1.34-18.43 2.23-9.62 1.51-10.32 1.55-11.7.66a5 5 0 0 1-1.82-2.65c-1.06-4.8-14.26-23.24-22.65-31.63-3.83-3.83-5.49-5.9-5.49-6.86 0-.75.5-3.7 1.13-6.56s1.54-8.7 2.05-13.01 1.18-9.42 1.49-11.35c1.26-8.02.24-11.94-3.92-15.14-6.38-4.9-13.2-8.54-29.26-15.6a2528 2528 0 0 1-15.26-6.77c-6.9-3.1-11.03-3.49-15.11-1.4s-4.47 2.53-22.73 25.49c-2.73 3.43-5.53 6.39-6.22 6.56-.7.17-5.41-.71-10.48-1.97-11.57-2.87-19.53-3.86-27.16-3.38-7.9.5-8.32.17-11-9.03-5.7-19.46-10.08-27.4-16.3-29.45-3.43-1.13-12.73-.4-21.15 1.65-15.07 3.68-36.35 11.94-42.01 16.32-3.38 2.6-5.52 6.5-5.52 10.05 0 4.14 3.68 18.08 7.23 27.35 4.02 10.51 3.82 12.46-1.59 15.74-8.14 4.94-17.1 12.4-26.97 22.46-7.96 8.1-10.35 10.2-11.56 10.2-.84 0-3.63-1.01-6.2-2.26-16-7.74-30.7-11.96-34.52-9.92-1.73.93-5.14 6.93-13.3 23.46-11.7 23.64-14.14 31.12-11.48 35.15.55.82 3.8 3.95 7.22 6.95 16.85 14.74 20 18.15 19.96 21.63-.01 1-.54 4.42-1.18 7.61-2.14 10.74-2.56 15.03-2.67 26.77-.07 8.91-.29 11.93-.89 12.65-1.18 1.43-4.54 2.98-8.73 4.06a156 156 0 0 0-11.85 4.02 909 909 0 0 1-12.46 4.63c-2.4.85-5.65 2.26-7.25 3.12l-2.9 1.58.19 3.76c.33 6.8 2.4 19.84 4.51 28.4 4.05 16.4 14.37 38.31 18.7 39.68 1.9.6 12.75-1.31 21.25-3.74 4.45-1.28 9.32-2.48 10.82-2.68l2.72-.36 1.92 2.79c5.87 8.5 20.82 24 27.52 28.53 4.4 2.98 6 4.94 6 7.39 0 1.04-1.06 4.55-2.35 7.81-3.03 7.65-6.73 19.1-7.81 24.15-2.12 9.94-1.67 14.97 1.64 18.48 5.16 5.48 34.93 21.8 44.14 24.2 9.62 2.5 14.77 1.34 22.93-5.2 4.73-3.79 15.35-14.4 20.57-20.6 3.57-4.2 4.65-4.85 6.76-3.98.75.31 4.33 1.25 7.95 2.09 5.66 1.3 8.49 1.58 20.03 1.92 11.14.32 13.7.56 14.92 1.36.9.6 3.43 4.58 6.42 10.15 7.09 13.17 9.05 16.36 12 19.51 3.54 3.79 7.59 5.77 10.77 5.28zm-8.64-7.4c-1.6-2.28-1.15-4.37 1.21-5.61 2.99-1.57 6.19 1.88 4.68 5.04-1.03 2.15-4.54 2.5-5.89.57m-7.41-11.45c-3.03-3.54-8-12.25-8-14.02 0-2.2 1.48-3.52 3.69-3.3 1.43.13 2.16.73 3.55 2.9 6.4 10 7.83 12.44 7.83 13.35 0 1.47-2.08 3.34-3.73 3.34-.91 0-2.08-.79-3.34-2.27m-150.42-24.15c-2.1-2.1-1.74-3.85 3.47-16.87 5.92-14.78 7.2-17.46 8.91-18.58 1.3-.85 1.64-.86 2.94-.12.8.46 1.75 1.29 2.1 1.84.73 1.17.82.92-5.7 16.65a233 233 0 0 0-5.31 13.76c-.85 2.93-2.48 4.81-4.15 4.81-.43 0-1.44-.67-2.27-1.49m116.04-32.8c-5.43-.69-12.8-2.72-14.3-3.93-1.66-1.34-1.58-4.01.15-5.41 1.52-1.23 2.1-1.19 8.93.75 3.96 1.13 6.1 1.33 14.69 1.38 9.24.05 10.1.14 10.87 1.18 1.13 1.54 1.03 2.33-.49 4.07-2.03 2.32-10.49 3.16-19.85 1.96m51.17-2.43a4.1 4.1 0 0 1-1.23-5.16c.45-.88 1-1.61 1.23-1.64s1.02-.15 1.75-.29c1.58-.3 4.18 2.02 4.18 3.72 0 2.68-3.93 4.92-5.93 3.37m-43.46-11.45c-38.46-2.96-74.49-25.85-93.92-59.65-32.91-57.24-13.75-130.27 42.98-163.83 34.11-20.18 76.88-21.72 112.8-4.06 13.28 6.54 22.9 13.65 33.9 25.08 18.03 18.7 29.2 42.32 32.44 68.59.88 7.1.75 22.67-.25 30.27a120.6 120.6 0 0 1-56.56 86.84c-15.45 9.42-34.2 15.36-53.02 16.78-8.89.67-9.36.67-18.38-.02zm28.08-8.59c23.43-4.1 44.13-14.79 60.72-31.37 33.4-33.41 42.3-84.84 22.02-127.4-6.03-12.65-12.27-21.72-21.37-31.05-16.76-17.17-37-27.96-60.63-32.31-8.22-1.52-22.4-2.05-30.74-1.16a114 114 0 0 0-54.4 20.76c-6.5 4.64-18.23 16.15-23.33 22.91-19.9 26.4-27.13 58.75-20.5 91.6 2.4 11.84 8.6 27.06 15.31 37.54 17.18 26.83 44.9 45.27 75.75 50.37 10.07 1.67 10.72 1.71 21.09 1.5 5.92-.13 11.73-.62 16.08-1.38zm149.72 7.4c-1.91-.62-7.52-2.02-12.46-3.13a408 408 0 0 1-11.1-2.58c-4.47-1.24-4.15-6.96.4-6.96 4.1 0 25.73 5.17 29.33 7 2.7 1.38 3.19 3.71 1.23 5.9-1.14 1.27-2.96 1.21-7.4-.23m-235.53-1.4c-2.63-1.84-1.14-6.05 2.14-6.05 3.1 0 4.73 3.95 2.47 6-1.33 1.2-2.94 1.22-4.6.06m133.34-.57c-1.3-.92-1.72-3.33-.81-4.75.25-.4 2.02-1.48 3.93-2.4 7.77-3.77 17.83-12.84 22.86-20.62 1.4-2.16 3.07-4.12 3.72-4.36 1.81-.67 4.33.46 4.75 2.14 1.38 5.52-15.94 23.82-27.91 29.5-3.4 1.61-4.78 1.72-6.54.49M270.71 460.4c-3.65-3.59-9.3-11.5-12-16.8-1.82-3.6-1.81-5.94.04-7.15 2.45-1.6 4.15-.2 8.42 6.95a71 71 0 0 0 8.28 11.14c4.73 5.06 5.4 6.73 3.43 8.52-2.11 1.91-4.2 1.23-8.17-2.66m219.8-24.53c-2.46-1.72-1.04-6.05 1.98-6.05 3.13 0 4.43 3.9 1.95 5.9-1.58 1.29-2.27 1.31-3.93.15m-242.66-26.83c-1.1-1.2-1.24-3.13-.36-4.77.87-1.63 4.27-1.53 5.46.17 1.2 1.72 1.13 2.88-.28 4.4-1.44 1.54-3.53 1.63-4.82.2m-86.63-9.11c-2.15-1.5-1.62-4.98.96-6.31 3.35-1.73 19.9-7.28 21.72-7.28 3.4 0 5 3.2 2.84 5.67-.55.64-3.62 2.01-6.8 3.05a288 288 0 0 0-10.93 3.83c-5.87 2.23-6.06 2.25-7.79 1.04m338.74-2.57c-1.19-1.3-1.11-2.2.94-11.31 1.1-4.9 1.31-7.53 1.33-16.82.01-6.42-.3-13.14-.76-16.11-.72-4.71-.7-5.19.24-6.23 1.02-1.13 3.47-1.5 4.67-.7 2.19 1.47 3.32 9.3 3.33 23.04.01 12.87-2.02 25.33-4.6 28.18a3.6 3.6 0 0 1-5.15-.04zm-309.84-10.23c-.66-.84-1.2-1.85-1.2-2.24 0-1.4 2.4-3.77 3.8-3.77 1.8 0 3.74 1.91 3.74 3.67 0 1.65-2.25 3.86-3.91 3.86-.68 0-1.77-.68-2.43-1.52m51.79-16.5c-1-1.1-1.1-2.2-1.1-10.59.01-6.86.29-10.52 1.03-13.7 1.86-7.93 4.86-11.26 8.2-9.07 1.75 1.15 1.98 3.53.58 6.23-1.58 3.07-2.57 10.16-2.57 18.45 0 6.99-.13 8.1-1.06 8.93a3.6 3.6 0 0 1-5.08-.26m310.28-23.76c-1.64-1.29-1.97-3.24-.8-4.7 1.1-1.36 18.2-10.9 19.55-10.9 1.58 0 3.5 2 3.5 3.66 0 1.9-1.56 3.12-10.2 8.06-9.07 5.18-10.01 5.48-12.05 3.88M577.33 333c-2-2-1.2-5.37 1.53-6.4a4 4 0 0 1 4.4 1.41c.95 1.41.43 3.76-1.08 4.95-1.92 1.5-3.36 1.52-4.85.04m-84.69-3.68a3.6 3.6 0 0 1-1.46-5.3c1.4-2.14 4.84-1.9 6.13.43.8 1.42.8 1.76.02 3.13-1.1 1.95-2.9 2.62-4.69 1.74m-14.61-30.13c-.7-.74-2.52-3.08-4.04-5.19-1.52-2.1-5.9-6.77-9.71-10.36-5.49-5.15-6.95-6.85-6.95-8.06a3.55 3.55 0 0 1 3.66-3.45c2.43 0 13 9.53 18.63 16.81 4.58 5.91 5.48 9.02 3.09 10.7-1.8 1.25-3.19 1.12-4.68-.45m-198.88-18.85c-2.7-2.98.97-9.04 11.72-19.35 9.82-9.43 14.4-11.71 16.65-8.29 1.48 2.26.66 4.06-2.89 6.32-4.66 2.98-14.49 12.7-17.57 17.4-1.5 2.26-3 4.3-3.33 4.54-1.12.79-3.6.45-4.58-.62m-55.6-18.04a145 145 0 0 0-15.36-6.4c-4.06-1.34-7.73-2.72-8.14-3.06-.44-.35-.68-1.49-.58-2.69.36-4.28 3.82-4.23 15.53.24 6.66 2.54 17.84 7.87 19.64 9.36a3.54 3.54 0 0 1 .09 5.53c-.72.58-1.73 1.03-2.25 1-.52-.02-4.54-1.81-8.93-3.98m204.58-6.45c-3.54-2.78.24-7.96 4.01-5.5 1.91 1.26 1.99 4.5.13 5.8-1.69 1.19-2.3 1.14-4.14-.3m-101.56-8.33c-2.06-3.14 2.2-6.58 5.01-4.04 1.23 1.12 1.41 2.65.5 4.34-.9 1.71-4.32 1.53-5.51-.3m66.7-3.32c-5.49-1.5-17.5-1.96-24.17-.92-2.77.43-5.56.6-6.2.36-2.59-.97-2.9-5.09-.48-6.39 1.84-.98 11.14-2.21 16.75-2.22 9.52 0 20.7 2.35 21.92 4.62.98 1.83.68 3.94-.7 4.9-1.54 1.09-1.9 1.07-7.12-.35m87.25-19.44c-1.4-.48-2.32-2-2.32-3.78 0-2.68 6.36-31.35 7.26-32.72 1.05-1.61 2.8-2.17 4.3-1.37 2.65 1.42 2.61 2.12-.82 18.17l-3.49 16.34c-.52 2.47-2.89 4.08-4.93 3.36M346.2 186.62c-.71-.5-1.8-2.53-2.54-4.78-.7-2.15-2.16-6-3.23-8.54s-1.94-5.17-1.94-5.85c0-2.58 3.73-4.1 5.95-2.42 1.39 1.04 7.38 16.48 7.38 19 0 1.42-1.97 3.46-3.35 3.46-.57 0-1.59-.4-2.27-.87m-9.99-25.59c-1.43-1.82-1.53-3.54-.3-5.3 1.94-2.77 6.64-.81 6.64 2.77 0 3.72-4.12 5.36-6.34 2.53"/></g><g stroke-width=".16"><path fill="#152636" d="M668.47 219.48a59 59 0 0 1-21.7-6.5c-16.7-8.55-28.16-24.81-31.01-44-2.77-18.62 4.27-38.58 18.18-51.6 7.4-6.92 14.22-10.8 24.39-13.87 4.87-1.47 5.94-1.58 15.94-1.58 10.02 0 11.07.1 15.89 1.58 11.08 3.38 19.3 8.35 26.85 16.22 26.36 27.47 19.98 72.96-12.91 92.08a62 62 0 0 1-15.78 6.27c-4.36 1.08-15.71 1.88-19.85 1.4m29.96-18.7c4.4-2.85 9-8.03 12.53-14.14 3.45-5.97 4.37-8.73 3.3-10.01-.42-.52-1.41-.85-2.26-.75-1.23.15-1.92 1.02-3.94 5-4.1 8.08-9.4 14.23-14.5 16.84-2.63 1.34-3.33 2.54-2.45 4.18.93 1.75 3.48 1.36 7.32-1.12"/><path fill="#152736" d="M876.52 286.95c-6.67-.32-7.54-.67-17.09-6.86a2424 2424 0 0 0-15.65-9.96l-63.96-40.51c-28.8-18.25-52.67-33.29-53.05-33.41-.38-.13-1.86 1.34-3.3 3.28-6.12 8.25-17.14 16.4-27.24 20.16a63.7 63.7 0 0 1-50.9-2.8c-25.94-13.04-39.66-43.26-32.4-71.36 3.13-12.12 7.4-19.68 16.05-28.43 6.79-6.87 12.24-10.73 19.66-13.92a58 58 0 0 1 22.13-5.02c14.43-.64 26.36 2.65 38.23 10.54 12.57 8.36 22.04 21.8 25.84 36.67 3.34 13.05 2.1 28.76-3.18 40.4l-1.65 3.64 6.44 4.08c16.92 10.7 70.78 44.83 101.23 64.15l33.92 21.52 13.33.36c7.34.2 19.41.4 26.84.44l13.5.07 1.43 1.42c1.81 1.82 1.8 2.9-.08 4.77l-1.5 1.5-21.25-.22c-11.7-.12-24-.35-27.34-.51zm-189.28-70.1a58.6 58.6 0 0 0 32.66-21.3c1.01-1.31 1.84-2.58 1.84-2.8s.5-1.12 1.12-1.98c5.04-7.08 8.73-19.62 8.73-29.67 0-15.72-6.53-31-17.88-41.82-7.3-6.94-14.5-11.07-24.73-14.15a51 51 0 0 0-13.96-1.97 62 62 0 0 0-14.15 1.41c-10.44 2.65-18.96 7.3-26.4 14.39-8.66 8.24-13.52 16.54-16.89 28.85-1.55 5.68-1.41 20.7.26 26.77 6.2 22.65 23.48 38.81 46.12 43.15 5.6 1.07 17.18.64 23.28-.87z"/></g><g stroke-width=".16"><path fill="#152636" d="M364.8 457.53c-38.45-4.6-68.44-33.93-73.95-72.35-.99-6.9-.37-23.22 1.12-29.69 4.38-18.96 13.6-34.33 28.2-47 16.5-14.3 38.9-21.43 61.64-19.58a84.4 84.4 0 0 1 68.67 46.63c4.89 9.8 7.57 19.64 8.5 31.18 3.45 43.02-25.23 81.05-67.65 89.67-6.95 1.41-19.68 1.96-26.52 1.14zm22.9-25.82a57 57 0 0 0 26.72-15.25c22.57-22.58 22.7-58.16.3-80.76-19.67-19.83-50.04-22.85-73.03-7.25-11.03 7.48-20.14 20.27-23.64 33.18-1.89 6.98-1.9 21.21-.02 28.12 8.5 31.22 39.1 49.65 69.68 41.96z"/><path fill="#152736" d="M365.78 463.98c-26.1-3.21-48.62-16.05-63.92-36.45-4.42-5.9-11.24-19.08-13.47-26.05-3.26-10.2-4-15.37-4.03-28.15-.03-10.36.15-12.7 1.34-18.27a92 92 0 0 1 7.26-21.02c1.15-2.29 2.1-4.4 2.1-4.7 0-.28-1.5-1.42-3.34-2.52s-12.72-7.83-24.2-14.94-26.09-16.1-32.46-20l-11.6-7.06-72.3 1.14c-67.29 1.06-72.41 1.07-73.78.18-2.62-1.72-1.6-5.72 1.63-6.42 2.68-.58 143.34-2.37 145.86-1.86 1.41.3 4.28 1.58 6.38 2.86s18.08 11.16 35.52 21.96 31.96 19.63 32.27 19.63c.3 0 1.34-1.06 2.3-2.36 3.5-4.77 11.95-13.43 16.76-17.19 13.8-10.78 29.64-17.4 46.22-19.35 7.78-.92 21.6-.34 28.8 1.19 37.07 7.88 64.98 36.82 71.32 73.94 1.56 9.12 1.25 25.44-.64 33.63-4.16 18-12.28 32.9-24.65 45.22-7.42 7.38-14.05 12.24-22.8 16.71-13.09 6.69-25 9.68-39.55 9.96-4.94.1-9.9.06-11.02-.08m27.25-9.1c16.51-3.92 29.22-10.96 40.89-22.67 12.06-12.1 19.24-25.44 22.96-42.65 1.86-8.62 1.87-24.24.02-32.86a85 85 0 0 0-7.94-22.1c-11.72-22.56-32.45-38.22-57.85-43.7-7.93-1.71-23.6-1.85-31.4-.28a89 89 0 0 0-29.37 11.42c-4.87 3.02-5.7 3.7-13.99 11.58-4.19 3.97-10.86 11.94-10.86 12.97 0 .23-1.07 2-2.37 3.92-4.59 6.75-8.84 18-10.73 28.36-1.34 7.39-1.37 21.58-.05 28.8 6.25 34.24 32.44 60.99 66.2 67.6 7.28 1.43 7.54 1.45 18.26 1.24 8.31-.16 11.24-.45 16.23-1.63m-30.72-21.81c-22.05-4.69-39.23-21.2-45-43.22-1.93-7.35-2.18-18.75-.58-26.09 4.63-21.2 20.92-38.57 41.52-44.27a57.6 57.6 0 0 1 40.42 3.4 59 59 0 0 1 32.12 38.7c1.53 5.81 2.06 16.6 1.1 22.6-4.7 29.35-29.07 50.16-58.5 49.97a64 64 0 0 1-11.09-1.09zm25.13-8.11c5.05-1.38 12.75-5.03 16.32-7.74a53 53 0 0 0 16.53-20.35c3.5-7.54 4.32-11.57 4.32-21.22 0-7.05-.2-9.16-1.32-13.05-5.37-18.72-19.25-32.03-38.17-36.6-5.23-1.26-16.47-1.3-22.02-.06-14.42 3.2-27.77 13.5-34.42 26.54a51.03 51.03 0 0 0 21.55 68.32c4.57 2.43 8.05 3.68 13.88 5 5.36 1.22 17.37.78 23.33-.84m-36.68-11.37c-6.12-2.85-16.84-15.21-16.85-19.45a3.4 3.4 0 0 1 3.82-3.32c1.28.15 2.23 1.09 4.47 4.4 3.5 5.17 10.2 11.5 12.99 12.27 2.75.76 4.22 2.2 4.22 4.16 0 1.87-1.83 3.42-4.04 3.41-.81 0-2.88-.66-4.6-1.47"/></g><path fill="#152736" d="M663.18 541.3c-.66-.84-1.2-1.87-1.2-2.28 0-1.38 2.53-3.5 9.28-7.79a812 812 0 0 0 11.01-7.11c2.63-1.74 5.02-2.9 6.03-2.91 2.9-.04 4.2 3.18 2.36 5.82-.49.7-4.33 3.4-8.55 6.02a529 529 0 0 0-11.42 7.26c-4.36 2.92-5.84 3.11-7.5 1m37.73-35.59c-5.3-1.1-10.15-5.06-10.06-8.21.1-3.45 3.4-4.43 6.4-1.91 2.75 2.32 5.7 3.31 8.43 2.86 11.56-1.92 14.46-14.82 4.3-19.07-2.86-1.2-6.64-1.11-12.63.26-8.5 1.95-13.32 1.24-17.82-2.62-3.43-2.93-5-7.01-4.66-12.14.3-4.64 1.3-6.92 4.26-9.8 3.39-3.3 6.81-4.64 11.84-4.65 4.82-.01 7.1.85 10.3 3.88 2.08 1.98 2.47 4.36.96 5.87-1.25 1.26-3.91 1.14-5.15-.23-2.39-2.64-7.89-2.9-11.67-.57-1.94 1.2-3.71 4.21-3.71 6.3a8.5 8.5 0 0 0 3.58 6.4c2.44 1.5 4.95 1.49 11.64-.03 13.7-3.1 24.5 2 26.45 12.5 2.26 12.08-10.1 23.73-22.46 21.16m50.35-30.22c-.89-.31-3.78-3.62-7.53-8.61-4.96-6.6-6.47-8.24-8.12-8.76-2.82-.9-25.32-13.8-27.34-15.67q-2.9-2.7-.49-5.13c1.61-1.6 3.72-1.45 6.57.5 3.37 2.3 19.82 11.67 20.5 11.67.3 0-.18-4.18-1.09-9.42-.9-5.18-1.7-11.62-1.77-14.3-.14-4.77-.1-4.93 1.4-5.78 1.33-.76 1.76-.77 3.03-.1 1.73.93 2.36 2.69 3.25 9.02.36 2.55 1.31 8.54 2.11 13.3.8 4.75 1.34 9.28 1.2 10.05-.19.97.22 1.98 1.3 3.23a240 240 0 0 1 6.6 8.58c3.68 4.95 5.02 7.21 5.02 8.48 0 2.54-2.04 3.84-4.64 2.94m25.11-23.73c-4.6-1.6-6.1-2.96-5.86-5.34.25-2.6 2.6-3.87 5.22-2.8 6.07 2.44 10.06 2.24 13.94-.7 4.83-3.65 5.5-8.03 1.8-11.73-2.73-2.74-4.88-2.97-13.27-1.43-10 1.84-14.6.9-18.75-3.8-2.76-3.13-3.8-6.63-3.41-11.42.91-11.43 11.88-18.25 21.37-13.29 5.28 2.76 6.55 7.1 2.6 8.9-1.23.57-1.81.4-4.17-1.16-6.3-4.17-12.4-.69-12.4 7.07 0 2.94.21 3.59 1.65 5.03 2.42 2.41 4.84 2.64 12.63 1.17 4.47-.85 7.65-1.15 9.42-.9 13.65 1.92 18.87 16.7 9.08 25.73-5.84 5.38-12.95 7.05-19.85 4.67m49.12-28.2c-.67-.89-3.74-5.39-6.82-10-14.22-21.35-17.1-25.52-17.62-25.52-.31 0-3.06 1.7-6.1 3.79-4.15 2.83-5.87 3.7-6.8 3.42-1.7-.5-2.68-1.9-2.68-3.8 0-1.97 3.2-4.54 14.86-11.97a885 885 0 0 0 11.22-7.26c3.6-2.43 5.28-2.67 6.96-.99 2.5 2.5 1.07 4.76-5.72 8.99-2.56 1.59-4.67 3.18-4.69 3.53-.03.7 8.93 14.5 12.83 19.78 5.1 6.9 10.92 16.56 10.92 18.12 0 3.46-4.2 4.71-6.36 1.9m30.6-19.14a545 545 0 0 1-17.01-26.52c-9.51-15.83-9.65-16.26-6.51-19.25 2.66-2.53 19.6-13.5 20.85-13.5 1.5 0 3.35 2.08 3.35 3.76 0 2-1.31 3.16-10.2 8.94l-7.74 5.03 4.01 6.87c2.2 3.78 4.22 7.07 4.48 7.32.26.24 3.86-2.01 8-5.01 7.86-5.7 9.7-6.4 11.5-4.4 1.44 1.58 1.19 3.73-.63 5.4-.87.8-4.4 3.48-7.82 5.95s-6.34 4.68-6.5 4.92c-.27.45 4.12 7.57 7.6 12.32l1.97 2.7 9.04-6.03c9.42-6.28 11.33-7 13.16-4.98 1.25 1.39 1.23 3.75-.05 4.86-.56.49-5.52 3.92-11.03 7.63-8.56 5.76-10.35 6.74-12.3 6.74-2.06 0-2.45-.25-4.17-2.75m37.87-20.95c-1.6-1.75-2.7-3.5-14.92-23.54-11.74-19.28-12.67-21.49-10.1-24.06 2.35-2.34 4.44-1.63 12.8 4.35 4.23 3.02 7.86 5.5 8.06 5.5s-.1-2.28-.68-5.07a74 74 0 0 1-1.2-11.06c-.12-5.68-.06-6.05 1.24-7.1 1.67-1.37 3.44-1.42 5.23-.17 3.23 2.26 27.44 34.3 29.75 39.37 1.43 3.13-1.42 6.4-4.4 5.04-.76-.35-3.4-3.59-5.88-7.2-5.83-8.5-17.16-23.66-17.69-23.66-.5 0 .16 3.63 2.06 11.38 1.73 7.03 1.76 7.81.38 9.51-1.9 2.34-4.07 1.7-10.68-3.13-3.27-2.38-6.02-4.25-6.13-4.14-.2.2 14.05 23.9 16.8 27.93 2.02 2.96 2.16 5.56.36 6.82-1.89 1.32-3.27 1.11-5-.77m41.9-29.62c-6.25-1.32-9.08-3.83-7.8-6.92.94-2.26 2.67-2.57 6.58-1.2 4.15 1.46 7.53 1.44 10.82-.05 3.36-1.53 4.46-2.56 5.24-4.92 1.44-4.35-2.01-9.94-6.96-11.27-2.04-.55-3.58-.5-7.97.24-9.89 1.67-14.77.89-18.9-3.03-3.05-2.89-4.13-5.7-4.14-10.83-.01-4.06.2-5 1.62-7.42a16 16 0 0 1 9.3-7.08c3.48-1.04 6.44-1.06 11.09-.1 2.78.58 3.64 1.04 4.35 2.3.78 1.4.78 1.74-.02 3.17-.89 1.58-.92 1.59-7.25 1.59-5.59 0-6.6.16-8.46 1.32a7.4 7.4 0 0 0-.94 12.04c1.79 1.5 2.02 1.54 6.8 1.19 14.71-1.1 14.87-1.1 18.06-.04 4.07 1.35 8.62 5.83 9.98 9.8 1.43 4.2 1.27 9.42-.38 12.55-1.57 2.99-5.95 6.52-9.67 7.79-3.31 1.14-8.3 1.52-11.35.87"/><path fill="#152736" d="M623.73 484.78c-7.62-2.1-12.66-7.98-12.61-14.72.01-2.2 1.72-6.6 2.83-7.3.87-.53.23-1.47-1-1.48-3.74-.02-12.14-6.5-14.47-11.15-3.64-7.29-3.99-16.51-.89-23.14 3.27-6.98 7.93-10.63 15.32-12 5-.91 12.38.5 16.42 3.14l1.49.97-1.15-2.53c-1.36-3-1.46-5.07-.37-7.68 1.97-4.7 7.78-6.05 13.4-3.1 2.9 1.53 5.9 3.96 14.7 11.93 2.6 2.35 4.72 4.1 4.72 3.88 0-.64-4.47-15.3-6.36-20.86-2.16-6.38-2.39-11.75-.6-14.68a8.27 8.27 0 0 1 11.17-3.1l2.13 1.08 1.74-3.07c2.88-5.11 13.49-13.36 24.08-18.75 5.77-2.93 10.28-2.75 13.93.55 1.14 1.04 1.16 1.01 1.22-2.32.15-8.33 6.52-12.75 15.01-10.4 1.28.35 4.34 1.63 6.81 2.84s4.5 2.12 4.5 2.03-.8-1.88-1.78-3.97a27 27 0 0 1-2.1-6.92c-.78-7.56 5.45-13.1 11.3-10.04 2.68 1.4 5.48 4.85 14.53 17.86a921 921 0 0 0 13.42 18.84c6.06 8.12 8.23 12.56 8.23 16.9 0 3.8-1.1 6.7-3.41 8.88-2.19 2.07-4.26 2.79-8.08 2.79-3.85 0-6.23-1.12-12.98-6.08-2.71-1.99-5.69-4.1-6.6-4.69l-1.68-1.06 1.87 3.16c3.1 5.24 5.82 11.38 6.4 14.39.95 5.07-1.18 9.08-5.61 10.55-2.18.72-6.29.33-7.54-.72-.56-.45-.76-.42-.76.13 0 1.55-4.95 8.07-6.66 8.78-.96.4-5.08 3.04-9.16 5.87-12.98 9-16.51 10.3-21.62 7.99-3.05-1.39-5.09-3.94-13.01-16.3-7.54-11.74-12.27-18.63-12.59-18.31s1.23 5.66 4.81 16.58c5.95 18.15 7.8 29.07 5.6 33.04-1.72 3.1-4.25 4.3-9.08 4.3-8.7 0-15.06-4.25-34.66-23.22-3.75-3.62-6.92-6.59-7.05-6.59s-.1 1 .06 2.2a9 9 0 0 1-.65 4.44c-.51 1.23-.83 2.35-.7 2.48.14.13 1.83.6 3.76 1.06 7.86 1.83 11.9 4.93 15.31 11.76a23.8 23.8 0 0 1 2.2 15.47c-2.03 11.65-6.57 16.14-19.99 19.73-5.79 1.55-9.63 1.7-13.8.56M634.87 461c.58-.7.58-1.05 0-1.74-.93-1.12-2.03-1.1-5.55.11l-2.85.98 2.6.7c3.61.97 4.96.96 5.8-.05m89.86-57.56c2.96-1.52 4.18-1.86 5.7-1.58 2.25.43 2.4.83-2.17-5.8a512 512 0 0 1-13.01-19.76l-1.66-2.8-.75 2.2c-.84 2.44-.69 2.3-8.55 7.7-3.1 2.15-5.65 4.25-5.65 4.68 0 .95 2.21-.11 7.08-3.4 4.45-3.02 5.73-3.45 8.22-2.76 3.05.84 4.99 2.77 7.86 7.78 2.78 4.87 3.15 7.21 1.52 9.7-.52.79-3.74 3.34-7.16 5.67l-6.4 4.37c-.1.08.14.66.54 1.3.69 1.1.91 1.02 5.69-2.1a115 115 0 0 1 8.74-5.2m57.26-20.46c-1.89-1.93-5.4-6.56-7.8-10.29-2.41-3.72-6.39-9.5-8.84-12.86-6.68-9.13-14.16-19.69-15.9-22.45-1.72-2.74-1.94-5.22-.7-7.63 2.8-5.4 15.32-11.28 27.42-12.89 4.44-.59 5.52-.55 8.56.33a29 29 0 0 1 6.9 3.34c2.42 1.65 3.28 2.02 2.95 1.25-.81-1.89-1-8.5-.34-12.1 1.38-7.54 6.53-14.46 13.22-17.76 3.9-1.92 10.77-1.9 15.08.02 3.38 1.51 7.9 5.96 9.18 9.05.95 2.26 1.1 7.05.3 9.16-.52 1.38-.46 1.42 2.93 1.73q7.18.64 13.14 7.06c2.92 3.13 3.12 3.26 1.87 1.18a1710 1710 0 0 0-17.17-26.66c-4.08-6.1-4.75-10.94-1.98-14.3 1.77-2.15 13.17-10.45 21.79-15.86 5.9-3.7 8.19-4.25 11.3-2.71l2.26 1.11.34-2.1c1.24-7.5 6.18-10.35 13.72-7.9 3.65 1.17 11.13 4.72 15.42 7.29l3.08 1.85-2.13-3.33c-5-7.83-7.02-14.54-5.48-18.25 1.8-4.33 7.4-5.61 12.22-2.79 6.54 3.83 15.13 15.86 27.45 38.43 5 9.16 6.13 12.02 6.12 15.53-.01 3.24-.93 4.9-4.03 7.26-2.45 1.87-2.78 1.96-6.51 1.75-3.3-.2-4.77-.66-9.17-2.94-6.7-3.46-7.39-3.25-5.14 1.56 3.1 6.63 2.68 13.03-1.06 15.97-1.88 1.47-6 1.55-8.39.15-2.05-1.2-9.88-10.18-14.72-16.88-3.43-4.74-3.44-4.74-3.8-2.97a8 8 0 0 1-1.45 3c-.9 1.01-12.27 8.86-15.76 10.87-.9.53-.88.74.29 2.77.7 1.2 1.48 2.15 1.74 2.09s3.72-1.98 7.7-4.26c3.96-2.29 8.05-4.29 9.07-4.45 2.77-.45 5.15 1.28 8.39 6.1 2.94 4.4 3.55 6.98 2.25 9.42-.59 1.1-6.92 5.57-14.48 10.24-2.07 1.28-6.09 3.8-8.93 5.59-6.75 4.27-8.22 4.33-11.93.48a59 59 0 0 1-5.55-7.2c-4.35-6.7-4.45-6.8-2.6-2.97 1.63 3.37 1.72 3.92 1.58 9.85-.12 5.3-.36 6.7-1.5 8.9-3.19 6.1-7.9 10.04-14.87 12.44-8.04 2.76-14.7 2.5-21.27-.82l-3.33-1.68v2.54c0 7.45-9.1 20.54-18.77 26.99-2.83 1.89-3.88 2.27-6.32 2.27-2.8 0-3.05-.13-6.35-3.52m8.4-23.69c2.79-3.94 2.01-7.16-3.43-14.23-4.55-5.91-8.1-7.42-12.78-5.43l-1.85.78 5.78 7.54c3.17 4.15 6.74 8.9 7.94 10.57 1.19 1.67 2.29 3.04 2.45 3.03.16 0 1-1.02 1.88-2.25m17.82-19.2c0-.33.64-1.24 1.42-2.02l1.42-1.42-1.57-.37c-.86-.21-2.53-.86-3.71-1.46a16 16 0 0 0-2.45-1.07c-.16 0 .68 1.55 1.86 3.45 2.06 3.3 3.03 4.22 3.03 2.9m20.29-3.73c0-.68-.79-.87-3.6-.87-4.86 0-3.33 1.49 1.72 1.67 1.31.04 1.88-.2 1.88-.8m33.47-49.65c4.07-2.6 8.1-5.2 8.97-5.8a6 6 0 0 1 2.8-1.08h1.23l-1.3-2.17c-1.89-3.17-2.26-3.48-2.87-2.4-.29.51-4.2 3.49-8.67 6.62s-8.41 6.01-8.75 6.42c-.43.51-.42 1.09.03 1.93.35.66.75 1.2.9 1.2.14 0 3.58-2.13 7.66-4.72"/><path fill="#a00" d="M625.61 478.47c-3.98-1.4-5.85-2.82-7.48-5.64-1.43-2.47-1.32-4.65.3-5.89 1.24-.95 3.59-.92 4.73.07.5.43 1.8 1.08 2.89 1.45 7.67 2.57 17.49-2.6 16.68-8.78-.4-3.07-1.81-4.97-4.64-6.25-3.32-1.5-5.56-1.4-13.34.62-7.5 1.94-11.01 2.15-14.14.85-3.74-1.57-5.8-3.62-7.94-7.89-1.8-3.6-2.07-4.68-2.07-8.31 0-3.5.29-4.76 1.77-7.73 2.99-5.98 7.48-8.84 14.52-9.27 3.9-.23 4.83-.07 7.99 1.35 3.75 1.68 6.76 4.52 7.37 6.95.55 2.2-.22 4.3-1.83 5.04-1.27.57-2.03.37-5.75-1.55-3.74-1.92-4.62-2.16-6.77-1.82-3 .48-5.81 2.15-7.21 4.27-1.5 2.28-1.49 7.48.02 8.59q2.5 1.85 11.81-.7c6.98-1.9 13.96-1.79 17.96.28 3.5 1.82 6.76 5.38 8.93 9.8 3.7 7.52 2.65 14.2-3.1 19.58-5.84 5.46-13.89 7.4-20.7 4.98m48.72-28.19c-5.01-2.86-17-13.02-30.64-25.94-2.6-2.47-5.4-4.74-6.2-5.05-1.84-.7-4.07-4.86-3.6-6.72.85-3.38 4.4-4.17 7.63-1.71 1.05.8 6.81 6.05 12.81 11.66 10.13 9.5 17.43 15.63 17.96 15.1.13-.12-.06-.98-.4-1.9-.36-.92-2.58-8.2-4.95-16.17s-5.1-17.1-6.06-20.27c-1.92-6.3-1.88-8.42.2-9.53 1.67-.9 4.04-.06 5.3 1.86 1.1 1.7 4.62 12.04 8.21 24.17l5.5 18.44c3.25 10.85 3.57 14.3 1.49 16.25q-2.62 2.48-7.25-.19m33-18.4c-.78-.42-2.85-3.34-4.81-6.82-1.9-3.35-7.8-12.56-13.12-20.48s-10.38-15.7-11.25-17.32l-1.58-2.93 1.48-1.76c1.55-1.85 5.14-4.64 15.58-12.14 5.2-3.73 6.63-4.5 7.82-4.2 1.9.48 2.8 1.25 3.87 3.32 1.76 3.42.9 4.56-8.54 11.24-4.75 3.36-8.64 6.35-8.64 6.66 0 .77 8.05 12.68 8.56 12.67.23 0 3.03-1.97 6.22-4.38 8.7-6.56 9.3-6.88 11.26-6.06 1.87.77 3.74 4.29 3.43 6.46-.14 1-2.3 2.96-7.84 7.09l-7.64 5.7 2.62 4.1a77 77 0 0 1 3.51 5.96l.9 1.88 6.73-4.34c3.71-2.39 8.1-5.25 9.76-6.37 3.78-2.53 5.57-2.18 7.6 1.45 2.05 3.7 1.35 4.57-9.76 12.14-5.25 3.59-10.08 6.9-10.71 7.35-1.78 1.28-3.92 1.58-5.44.78zm37.57-22.47c-1.08-.63-1.75-1.6-10.52-15.37a551 551 0 0 0-11.36-17.1c-7.27-10.3-9.25-16.6-6.31-20.02.95-1.11 2.05-1.62 3.91-1.82 3.17-.34 5.93 1.02 13.57 6.7 13.4 9.98 26.49 19.51 27.04 19.7.33.11-2.33-3.8-5.91-8.7-7.69-10.5-16.66-24.03-17.11-25.8-.76-3 2.65-5.22 5.54-3.61.82.46 3.17 3.3 5.21 6.32s7.49 10.67 12.09 16.99c9.21 12.67 11.25 16.43 11.62 21.38.23 3.1.12 3.43-1.6 5.14-1.57 1.59-2.11 1.8-3.91 1.5-3.3-.53-10.66-5.3-25.73-16.62-7.68-5.78-14.4-10.67-14.92-10.87-.89-.34.88 2.4 5.14 7.97 2.96 3.88 17.2 26.54 17.85 28.43 1 2.84.81 4.45-.62 5.46-1.46 1.01-2.64 1.11-3.98.33zm42-28.57c-1.2-.68-9.28-11.26-20.01-26.22a325 325 0 0 0-8.02-10.72c-4.55-5.68-5.5-7.8-4.68-10.54.61-2.05 1.07-2.41 6-4.76 19.18-9.1 26.04-7.08 38.2 11.24 5.5 8.28 8.06 13.74 8.44 18 .28 3.07.1 3.87-1.61 7.36-2.12 4.3-8.54 11.17-13.56 14.5-3.21 2.12-3.07 2.09-4.77 1.13m5.7-15.35c3.85-3.99 5.7-6.8 5.68-8.66-.02-3.26-7.62-15.24-12.81-20.2 0 0-1.58-1.78-3.09-2.32-1.3-.48-1.48-.8-4.56-.7-2.8.1-5.58.88-8.43 2.06a50 50 0 0 0-4.52 2.03c-.14.14 3.73 5.7 8.61 12.36l11.48 15.7c1.43 1.97 2.89 3.6 3.23 3.62.35.01 2.33-1.73 4.4-3.89m32.07-11.19c-3.62-1.06-8.07-4.25-9.47-6.8-1.21-2.2-1.3-2.7-.67-4.22 1.1-2.65 2.97-2.78 7.38-.51 4.62 2.37 7.93 2.53 11.93.6 8.83-4.28 6.79-15.46-2.62-14.35-1.55.18-5.16.9-8.04 1.61-4.71 1.16-5.6 1.22-9.12.58-4.84-.88-7.5-2.6-9.93-6.38a21 21 0 0 1-3.52-12.24c0-12.11 12.21-20.04 21.83-14.16 5.03 3.06 6.66 8.77 3.07 10.7-1.04.55-1.84.35-4.88-1.2-4-2.06-5.38-2.04-8.12.1-3 2.37-4.12 7.5-2.36 10.9.46.9 1.27 1.8 1.78 2 1.78.68 5.6.35 10.32-.89 10.5-2.76 16.75-1.12 21.97 5.78 4.84 6.4 5.65 12.51 2.5 18.94-3.63 7.42-13.99 11.9-22.06 9.54zm40.6-22.72a1138 1138 0 0 1-16.17-25.2 315 315 0 0 0-8.86-13.55c-4.87-6.61-5.61-8.65-4.1-11.37.6-1.07 20.17-14.84 24.03-16.9 1.74-.94 3.95.04 5.36 2.36 2.57 4.22 1.57 5.47-11.2 13.97l-8.5 5.65 4.06 6.07c2.24 3.34 4.32 6.07 4.62 6.07s4.46-2.65 9.24-5.88c8.3-5.61 8.76-5.85 10.36-5.18 1.77.73 3.6 3.8 3.6 6.04 0 .73-.72 2-1.6 2.82-1.64 1.55-14.82 10.67-15.97 11.05-.35.12 1.37 3.28 3.83 7.02q4.48 6.82 5.2 6.38c.39-.23 4.26-2.72 8.6-5.54 9.36-6.09 10.85-6.42 12.68-2.82a11 11 0 0 1 1.17 3.77c0 2.32-1.53 3.55-14.86 11.94-7.9 4.97-9.94 5.55-11.5 3.3zm37.85-23.19c-.49-.4-3.11-4.12-5.83-8.27a253 253 0 0 0-10.39-14.49c-7.78-9.91-10.63-14.04-12.64-18.3-3.36-7.1-1.75-12.13 3.88-12.13 2.66 0 10.17 4 20.06 10.68a650 650 0 0 1 20.65 14.47c1.1.83-.12-1.06-6.49-10.13-11.5-16.36-15.04-21.56-15.91-23.4-1.14-2.39-.67-4.61 1.24-5.86 2.51-1.65 3.95-.25 13.14 12.8 19.34 27.43 21.49 31.48 19.65 37.04-.7 2.12-2.95 3.82-5.07 3.82-1.82 0-5.3-2.2-19.58-12.45-13.52-9.69-21.12-14.8-22.02-14.8-.7 0 1.18 2.65 7.82 11.02 9.73 12.26 17.39 24.25 17.39 27.23 0 2.66-3.81 4.45-5.9 2.77"/></svg>