<svg xmlns="http://www.w3.org/2000/svg" id="uuid-93673507-a919-4eef-822c-0d2f49aef15d" data-name="&amp;lt;Layer&amp;gt;" viewBox="0 0 1455.2 1701.6"><defs><style>.uuid-c3fb550e-7adf-4a10-b685-63c1e46cedae {
        fill-rule: evenodd;
      }

      .uuid-c3fb550e-7adf-4a10-b685-63c1e46cedae, .uuid-6beb1290-e629-43d4-9b4e-87ad84c47e7d, .uuid-bafaafb5-6cab-43f2-98f0-01f2b4a20e8a, .uuid-11176158-d5de-495d-b65c-24d0c961503f, .uuid-44d70b57-ea1b-42dd-8d38-23593b987f03, .uuid-91294eea-edb4-42ee-b96f-f6c31dd96be6, .uuid-f2331e17-aef4-432d-a744-226de52bce46, .uuid-dbc75c93-456e-4635-a628-36d95168d504, .uuid-4c05b5de-1330-4eb4-86f6-11d4f1611bb4, .uuid-2dc1f345-bf36-42b8-ad5e-a1cce947c100, .uuid-52f54652-5b6a-4d8b-b036-191aa01c3aab, .uuid-6d33fe7a-c084-4d44-9018-01d640df01e5 {
        stroke-width: 0px;
      }

      .uuid-c3fb550e-7adf-4a10-b685-63c1e46cedae, .uuid-dbc75c93-456e-4635-a628-36d95168d504 {
        fill: #ffd6ba;
      }

      .uuid-6beb1290-e629-43d4-9b4e-87ad84c47e7d {
        fill: #c48b68;
      }

      .uuid-11176158-d5de-495d-b65c-24d0c961503f {
        fill: #939393;
      }

      .uuid-44d70b57-ea1b-42dd-8d38-23593b987f03 {
        fill: #28638d;
      }

      .uuid-91294eea-edb4-42ee-b96f-f6c31dd96be6 {
        fill: #d7e5ff;
      }

      .uuid-f2331e17-aef4-432d-a744-226de52bce46 {
        fill: #d84141;
      }

      .uuid-4c05b5de-1330-4eb4-86f6-11d4f1611bb4 {
        fill: #fff;
      }

      .uuid-2dc1f345-bf36-42b8-ad5e-a1cce947c100 {
        fill: #123749;
      }

      .uuid-52f54652-5b6a-4d8b-b036-191aa01c3aab {
        fill: #745c5f;
      }

      .uuid-6d33fe7a-c084-4d44-9018-01d640df01e5 {
        fill: #f7c959;
      }</style></defs><path d="m1211.41 1274.9-29.56-64.96c-5.92-13-49.61-94.62-53.03-101.19-1.61-3.1-3.45-6.07-5.29-9.03-15.5-24.95-44.28-74.05-44.63-74.58-14.03-21.04-30.45-40.4-44.7-61.29-4.17-6.12-46.2-53.76-48.76-56.23-10.53-10.15-53.55-60.9-57.86-67.49l-28.3-43.19c-1.98-3.02-3.96-6.05-6.33-8.78-2.1-2.42-27.42-29.08-28.28-30.66-1.03-1.89-1.63-3.98-2.35-6a52 52 0 0 0-12.29-19.4c-1.86-1.84-4.6-3.65-6.89-2.38-1-1.98-1.96-3.5-2.88-5.52-8.54-18.75-23.57-33.66-34.76-50.95-3.15-4.85-5.99-9.9-8.96-14.86-8.44-14.09-17.93-27.52-27.42-40.93l-27.04-38.25c-2.21-3.12-4.44-6.27-7.29-8.82-6.89-6.15-16.52-8.77-25.6-10.43-8.65-15.74-43.15-70.7-67.74-93.57-1.17-1.09-1.85-2.74-3.32-3.38s-3.14-.39-4.71-.12c-12.1 2.13-26.36 7.71-37.68 12.48 14.74 9.76 23.1 17.22 29.7 27.27 13.57 20.67 29.68 43.16 34.25 58.2-14.87 7.9-32.43 8.62-48.24 14.41-27.23 9.97-41.42 13.67-60.15 24.72a2542 2542 0 0 0-66.48-83.52c-1.58-1.9-3.22-3.86-5.39-5.06-2.49-1.38-11.36-4.02-14.2-4.26-11.41-.95-18.29-2.6-29.28 1.17 1.15 2.66 79.25 118.67 79.25 118.67l-.85 1.48.03.3c.02 2-2.13 4.82-3.1 6.78-1.56 4.81-2.3 9.8-2.95 15.05-.16 2.4-.29 4.81-.55 7.2a79 79 0 0 1-4.59 18.91c-3.23 9.81-7.16 15.7-10.76 19.37a43 43 0 0 1-7.27 7.1c.53.2 1.03.48 1.4.96 7.27 9.65 23.03 33.04 39.71 57.8 25.35 37.62 60.08 89.15 65.47 92.45 2.11 1.3 5.43 2.05 8.65 2.78 6.38 1.46 14.31 3.28 14.59 10.8q.01.63-.2 1.2c20.42-6.7 50.87-17.03 50.47-18.36.65 2.2 1.26 10.4 4.66 17.27 4.58 9.24 12.4 17.27 12.4 17.27-4.41 3.62-56.79 20.3-62.29 21.81-2.03.56-4.01 1.43-6.09 1.61l.26.78c2.83 10.7 3.81 17.62 8.63 27.58 2.36 4.87 4.74 13.98 7.32 18.74 6.67 12.3 39.83 73.78 50.62 95.4 2.8 5.6 13.72 24.54 17.26 29.72 6.93 10.14 20.58 32.32 23.53 37.36 4.18 7.13 32.31 44.82 41.38 57.12 17.61 23.9 44.77 53.58 54.63 70.6 9.49 16.38 37.67 60.95 42.39 66.94 12.2 15.5 20.52 34 34.37 48.04 4.89 4.96 21.86 28.21 26.32 34.38 30.9 42.75 83.32 109.38 102.85 143.67 17.31-2.07 32.68-4.48 47.03-14.37 10.51-7.25 18.18-18.1 23.18-29.85 1.2-2.82 2.27-5.76 2.4-8.83.24-5.63-2.7-10.85-5.54-15.72-13.12-22.5-26.07-48.16-39.59-70.42-11.15-18.36-60.34-109.12-62.8-112.78a1682 1682 0 0 1-16.97-25.76l-42.36-65.53c-2.17-3.35-5.54-7.18-9.35-5.99-3.74-23.26-29.56-86.4-38.61-108.16-20.4-49-39.57-91.2-34.68-96.26l48.4 44.2c6.54 5.98 22.65 24.48 24.78 27.15 6.36 7.95 39.51 34.65 48.12 41.6 14.81 11.91 27.98 25.42 44.29 35.2 4.82 12 12.42 22.67 19.94 33.2l33.33 46.66 16.23 22.72c5.66 7.93 11.34 15.88 17.7 23.27 5.1 5.92 10.62 11.48 15.72 17.4a335 335 0 0 1 30.05 40.67c17.3 2.36 36.64 2.67 50.16-8.37 7.57-6.19 12.24-15.14 16.71-23.84.6-1.18 1.22-2.39 1.41-3.7.34-2.3-.65-4.57-1.61-6.68z" class="uuid-44d70b57-ea1b-42dd-8d38-23593b987f03"/><path d="m1331.81 788.05-116.74-66.18-42.63 4.96-24.51 43.21-39.98-24.25c-5.64-3.42-12.27-4.42-18.67-2.8s-11.77 5.62-15.12 11.3l-8.45 14.34c3.36 2.22 6.87 4.56 10.71 7.16q1.43.96 2.9 1.9l8.9-15.1a8.1 8.1 0 0 1 11.26-2.84l40.39 24.5-67.46 118.9-42.06-26.9a8.13 8.13 0 0 1-2.64-11.02l15.06-25.56a73 73 0 0 0-12.7-8.8q-.4-.21-.83-.39l-3.42 5.8a23 23 0 0 1-2.31 3.92l-9.87 16.74a24.4 24.4 0 0 0 7.91 33.06l42.79 27.37-28.37 50 21.6 26.08 17.91 28.26 91.07 52.58a6.64 6.64 0 0 0 9.1-2.29l158.72-274.92a6.64 6.64 0 0 0-2.57-9.02z" class="uuid-f2331e17-aef4-432d-a744-226de52bce46"/><path d="M444.51 521.96a219 219 0 0 1-3.58-6.7c-61.18-46.97-60.41-56.65-96.38-90.73-11.4 3.3-26.63-5.62-12.04-14.85a6.4 6.4 0 0 0-5.1 1.85c-15.43-30.7-61.8-82.83-91.18-122.7-6.78-8.4-37.76-53.96-49.79-61.64-18.36 20.45-31.76 35.68-47.43 61.23 24.21 45.04 65.72 95.44 97.84 136.62 33.7 54.73 120.31 147.62 174.08 189.15 5.58 3.11-.6 2.13 9.98 11.25 3.71 3.2 28.14 39.64 31.22 43.97 6.6 9.32 13.25 18.72 17.78 29.2.88 2.03 1.8 4.25 3.7 5.37 2.94 1.74 6.66.11 9.66-1.53 1.79-.98 5.27-2.4 9.13-6.33 3.6-3.67 7.53-9.56 10.76-19.37.82-2.5 1.61-5.2 2.32-8.24 1.48-6.32 2.11-12.24 2.81-17.86.65-5.25 1.39-10.23 2.95-15.05q1.15-3.6 3.07-7.09.4-.74.85-1.48s-48.66-74.4-70.64-105.07z" class="uuid-6d33fe7a-c084-4d44-9018-01d640df01e5"/><path d="M288.7 38c-1.71-2.2-4.92.14-6.25 2.38-3.47 5.82-7.16 11.96-13.3 15.03-6.72 3.36-15.02 2.38-22.77 1.32-2.08-.28-4.26-.6-6.06-1.76-2.32-1.49-3.59-4.09-4.74-6.54-3.36-7.15-6.8-14.9-5.33-22.34 1.48-7.5 7.59-12.88 11.48-19.36.34-.56.67-1.17.6-1.85-.23-2.2-3.62-2.09-5.61-1.2-10.03 4.43-22.36 9.76-30.24 17.32-7.62 7.31-8.85 17.9-7.51 28.26 1.23 9.56 1.48 17.96-1.56 26.85-1.46 4.3-4.13 8.02-6.76 11.68l-8.43 11.73c-8.47 11.66-16.86 23.36-25.26 35.07 4.07 1.66 8.16 3.3 12.2 5.03 2.25.97 4.55 2 6.24 3.76 1.32 1.38 2.18 3.12 3 4.84a125 125 0 0 1 6.13 14.88l29.35-40.86q5.89-8.25 11.79-16.47c1.79-2.49 3.62-5.03 6.19-6.76 3.97-2.67 9.15-3.07 14.05-3.62 10.82-1.22 21.92-3.82 29.69-10.9 7.5-6.83 10.72-16.57 12.26-26.9.83-5.53 1.17-11.23 1.43-16.75.05-.98.06-2.06-.57-2.86zM157.03 201.4l-.48-8.25c-.19-3.19-.38-6.43-1.37-9.47-.15-.45-.34-.93-.76-1.15-.3-.15-.66-.14-.99-.12l-8.85.45a25 25 0 0 1-7.8 5.16c-.39.16-.82.33-1.05.7-.29.44-.45 1.12-.12 1.54 2.08 2.65 1.52 6.68-3.31 8.98-.64.31-1.38.5-1.83 1.05-.38.46-.48 1.08-.67 1.64-1.05 3.14-5.58 4.43-8.12 2.3-1.52-1.28-4.17-7.66-5.96-12.2l-39.3 54.68c.02.02-5.55 7.87-8.35 11.8-2.63 3.66-5.31 7.37-8.9 10.13-7.45 5.71-15.49 8.17-24.95 10.05-10.25 2.04-19.89 6.6-24.38 16.15-4.64 9.88-5.75 23.27-6.76 34.2-.2 2.16.79 5.41 2.94 4.92.66-.15 1.14-.66 1.56-1.16 4.89-5.76 8.04-13.27 14.68-17.07 6.58-3.76 15.02-2.98 22.87-2.08 2.69.31 5.56.68 7.71 2.4 1.67 1.34 2.66 3.3 3.6 5.18 3.48 7.01 7.05 14.55 6.02 22-.94 6.81-5.58 12.26-9.99 17.41-1.69 1.98-2.89 5.77-.27 6.68.97.34 1.98-.02 2.89-.38a167 167 0 0 0 15.41-6.7c9.3-4.77 17.5-10.94 21.58-20.22 4.22-9.62 3.14-20.97.84-31.6-1.04-4.83-2.32-9.86-1.06-14.48.82-2.98 2.63-5.53 4.42-8.02l11.82-16.46 48.91-68.09z" class="uuid-11176158-d5de-495d-b65c-24d0c961503f"/><path d="M178.39 148.23c-.82-1.72-1.68-3.47-3-4.84-1.69-1.77-3.99-2.79-6.24-3.76-1.85-.8-23.04-9.33-24.75-8.57-1.13.51-1.92 1.57-2.56 2.63-1.35 2.25-2.28 5.11-1.07 7.43-1.77.24-2.07 2.71-3.39 3.91-.6.55-1.4.81-2.15 1.13-5.74 2.46-9.06 9.5-7.33 15.5a15 15 0 0 0-8.24 10.1c-.2.86-.33 1.77-.73 2.58-.91 1.85-3 2.8-4.28 4.42-2.03 2.55-1.69 6.3-.48 9.31.03.08 1.77 4.35 2.99 7.17a134 134 0 0 0 2.77 6.07c.74 1.5 1.38 2.6 1.75 2.92q.57.47 1.27.71c2.56.97 5.96-.34 6.85-3 .19-.57.29-1.19.67-1.65.45-.55 1.19-.74 1.83-1.05 4.83-2.3 5.39-6.33 3.31-8.98-.33-.42-.17-1.1.12-1.55.23-.35.66-.53 1.05-.69 2.9-1.2 5.56-2.97 7.8-5.16l8.13-.42.72-.04c.34-.02 2.52 4.23 2.71 5.75.21 1.65.73 10.5.89 13.24.01.2-1.22 5.06-2.45 5.53-1.1.41-26.18 33.44-26.92 35.38-.74 1.93.23 3.91.92 5.86.74 2.1 13.09 17.8 17.84 20.3l2.88 1.52c.3.16 1.76-.25 2.02-.67 7.64-12.5 17.42-23.56 27.36-34.34 2.13-2.3 5.88-8.07 6.09-8.32 1.51-1.86.22-4.57-.21-6.58a25 25 0 0 1-.54-8.12c.24-2.18 2.26-20.13 2.86-23 1.59-7.65.67-15.4-1.49-22.96-.28-.96-5.25-14.06-7.01-17.75z" class="uuid-dbc75c93-456e-4635-a628-36d95168d504"/><path d="M1095.01 1495.2a958 958 0 0 1 81.41 90.55c5.62 7.12 11.31 14.65 13.09 23.55 2.35 11.74 2.78 26.48-4.52 36.71-6.99 9.81-21.39 11.8-32.58 11.3-12.73-.57-28.6-1.44-39.29-9.02-10.28-7.29-17.32-18.98-23.92-29.47a288 288 0 0 1-19.95-37.64c-2.25-5.14-12.83-21.16-15.68-24.03l-16.92-16.99 32.93-12.23zm115.1-200s13.29 23.7 18.9 31.28c8.64 11.71 17.8 23.15 21.12 37.32 5.61 24.01 7 42.52-12.8 51.78-16.87 7.9-32.16-9.67-38.18-16.75-5.8-6.82-11.63-13.69-15.94-21.54a132 132 0 0 1-4.17-8.53l-21.61-47.08s22.95-5.27 29.89-8.82c6.42-3.28 22.8-17.65 22.8-17.65z" class="uuid-52f54652-5b6a-4d8b-b036-191aa01c3aab"/><path d="M1030.01 747.05c1.03 9.84-7.18 21.26-12.38 29.68-2.66 4.3-19.02 21.13-19.83 22.65-1.92 3.63 4.6 15.2 6.22 18.5 1.43 2.9 11.46 16.58 14.07 23.15.61 1.55 1.25 3.7.58 4.32 1.88-1.75 7.19-9.09 7.19-9.09.75-1.46 1.78-5.76 3.42-5.8.1 0 21.42 16.3 22.32 17.17 3.58 3.43 6.87 9.65 11.78 8.9 7.27-1.12 12.79-9.66 10.28-14.63 7.11.63 12.83-6.74 13.25-13.86.09-1.53.03-3.17.83-4.48 1.36-2.26 4.57-2.57 6.45-4.42 1.6-1.56 2-3.95 2.31-6.16.95-6.68 1.86-13.74-.68-19.99-2.51-6.19-8.13-10.04-13.89-13.69-.86-.54-44.87-28.42-51.91-32.25zm-640.5-347.48a85 85 0 0 0 32.71-26.05 23.2 23.2 0 0 1 .56 14.34c5.77-6.98 11.78-14.49 12.91-23.48.04-.3.07-.63.24-.89.5-.78 1.67-.53 2.54-.22a69 69 0 0 0 32.29 3.7c2.54-.32 5.18-.77 7.62.02 1.82.6 3.35 1.83 4.85 3.02q8.95 7.16 18.39 13.64c1.68 1.15 3.4 2.3 5.35 2.86 5.3 1.53 10.76-1.55 15.25-4.77s9.3-6.87 14.81-6.62c3.93.18 7.46 2.35 10.78 4.47 2.18 1.4 4.43 2.9 5.8 5.1a14 14 0 0 1 1.64 4.46c1.8 8.31.19 17.32-4.39 24.5-.92 1.43-2.02 2.85-3.58 3.54s-3.68.36-4.54-1.12c3.47 5.51 7.67 11.87 10.19 17.87 3.66 8.71 6.3 17.9 10.95 26.11s11.82 15.64 21.02 17.78c-2.22 8.7-4.8 17.52-9.94 24.88-1.52 2.18-3.26 4.23-4.38 6.64-1.09 2.35-1.54 4.94-1.99 7.5l-3.72 21.54-29.64-14.69c-1.82-.9-46.41-15.44-43.01-16.83.64-.26 1.38-.67 1.39-1.36 0-.35-.19-.68-.38-.98l-4.79-7.4a23 23 0 0 1-17.17 5.76c-14.27-1.24-24.66-13.59-34.8-23.7l-8.51-8.48c-2.76-2.75-5.54-5.52-7.84-8.66-9.07-12.39-9.96-29.28-18.73-41.88-1.56-2.24-3.34-4.3-4.88-6.55-2.79-4.07-4.73-8.65-6.39-13.29-.15-.42-.42-.92-.87-.88-.44.04.02.5.27.12z" class="uuid-dbc75c93-456e-4635-a628-36d95168d504"/><path d="M552.91 427.28c1.19-8.5 1.02-17.1.66-25.7-1.74 6.63-5.38 12.8-8.98 18.73l8.31 6.97zm1-59.63c-23.91-7.87-49.03-11.36-74.06-14.1-6.16-.67-12.34-1.3-18.54-1.4-16.3-.24-32.43 3.31-47.66 8.95a211 211 0 0 0-22.38 9.9c-4.68 2.37-14.26 5.34-15.68 11.03-1.65 6.58.95 16.93 4.32 22.57 3.29 5.5 8.67 9.35 13.04 14.04s7.9 11.16 6.1 17.31c3.97-1.09 5.83-5.95 5.16-10.02s-3.15-7.55-5.29-11.07a77 77 0 0 1-7.39-16.07c12.45-6.5 26-14.26 30.31-27.62a21.7 21.7 0 0 1-.14 15.24c5.49-1.5 9.72-6.08 12.18-11.2s3.42-10.84 4.34-16.46c4.65 5.07 11.51 7.72 18.36 8.3s13.73-.75 20.34-2.65a58 58 0 0 0 19.84 16.97c2.97 1.54 6.15 2.84 9.49 3.1 12.44.98 23.42-12.3 35.55-9.37 5.3 1.28 9.14 5.52 11.17 10.65-.1-6.06.07-12.09.93-18.08z" class="uuid-6beb1290-e629-43d4-9b4e-87ad84c47e7d"/><path d="M404.71 366.74c6.04-2.6 12.08-5.2 18.33-7.25 11.77-3.86 24.15-5.7 36.53-6.2 31.8-1.3 63.28 6.16 93.89 14.9a149 149 0 0 0-18.36-43.43c-2.51-4-5.23-7.93-8.61-11.25-3.4-3.33-7.38-5.98-11.35-8.6-8.04-5.35-16.18-10.74-25.23-14.12-16.58-6.19-35.06-5.18-52.32-1.28a95 95 0 0 0-14.67 4.41c-16.31 6.61-29.55 19.7-38.07 35.1-5.58 10.1-9.23 21.16-11.35 32.47-.75 3.97-3.51 12.52-1.39 16.24 2.41 4.21 10.32-1.4 13.57-2.8z" class="uuid-44d70b57-ea1b-42dd-8d38-23593b987f03"/><path d="M635.71 462.73c13.56-7.39 31.35-6.17 43.76 3.01 11.25 8.31 24.21 15.4 34.98 24.31 1.95 1.61 55.14 39.78 60.5 44.25 2.05 1.71 77.41 58.46 78.91 60.24 5.12 6.1 11.27 11.22 16.86 16.9s10.72 12.08 13.1 19.68c7.48 3.02 14.94 5.41 22.41 8.43 1.51.61 111.27 92 117.24 98a58 58 0 0 0 6.46 5.2c.21 12.48-2.74 20.71-9.55 31.18-1.16 1.8-10.04 13.47-12.69 16.05-2.55 2.48-12.98 11.87-16.39 12.62-5.16-4.63-22.76-19.86-27.31-22.06-3.84-1.86-109.6-74.47-121.79-81.84-3.08-1.86-6.24-3.75-8.57-6.5-1.48-1.75-22.89-19.23-24.23-20.5-5.4-5.15-5.94-.86-6.66-1.89l-3.9-5.57c-8.55-12.2-16.5-25.43-24.7-37.87-2.39-3.63-4.81-7.27-6.63-11.22-.87-1.89-19.93-26.4-25.67-35.13-2.05-3.12-4.48-5.94-6.62-9-9.19-13.1-22.6-11.24-26.78-13.85-5.71-3.56-19.12-32.15-23.33-37.4-3.08-3.85-40.55-47.02-49.4-57.05zm-86 139.41c15.9-11.37 34.94-17.29 53.62-23.04l25.89-7.96c9.52-2.93 19.04-5.85 28.4-9.24.61-.22 4.85-1.19 4.75-1.64-2.86-13.17-13.58-25.63-21.19-36.75-6.94-10.15-14.13-20.18-22.39-29.3a86 86 0 0 0-6.06-6.15c-5.13-4.63-10.67-9.98-17.05-12.63a11.3 11.3 0 0 0-8.11-.18 6 6 0 0 0-1.88 1.04c-1.23 1.1-1.6 2.84-1.96 4.45-1.84 8.23-5.16 16.2-10.23 22.93-1.28 1.7-2.67 3.32-3.77 5.14-5.18 8.55-3.13 19.77-7.12 28.94-3.54-2.42-7.87-3.33-11.83-4.96-3.35-1.38-6.46-3.29-9.63-5.06-13.58-7.63-28.33-12.89-43-18.1-1.78-.64-3.6-1.29-5.49-1.36-3.63-.13-6.97 1.83-10.06 3.73 10.29 11.76 19.46 23.9 29.24 36.07 4.27 5.32 29.06 37.2 37.86 54.08z" class="uuid-6d33fe7a-c084-4d44-9018-01d640df01e5"/><path d="M392.71 400.5c.45 8.83 6.3 16.3 11.05 23.75 4.13 6.5 7.59 13.4 10.3 20.6 1.04 2.75 1.96 5.55 3.04 8.28 6.47 16.4 18.29 30.31 32.17 41.17 6.18 4.83 13.24 9.27 21.08 9.54 7.26.25 14.11-3.09 20.6-6.35l1.79 9.44c6.32 4.2 39.18 15.91 44.72 18.44l25.89 11.82a120 120 0 0 0 6.36-24.64c.32-2.2.62-4.49 1.81-6.38.92-1.45 2.3-2.54 3.55-3.7 6.77-6.38 9.98-16.06 9.32-25.33-11.61 2.41-19.7-14.66-24.86-25.63-4.31-9.15-6.15-19.57-12.24-27.65-1.13-1.5-2.46-3.03-2.69-4.9-.37-2.98 2.08-5.46 3.98-7.78 5.55-6.77 7.53-16.57 4.16-24.64s-12.41-13.67-21.04-12.22c-8.68 1.46-15.2 9.04-23.71 11.3-9.22-3.7-17.39-9.04-24.09-16.38-.87-.96-1.75-1.96-2.91-2.54-1.86-.93-4.07-.59-6.14-.37-12.67 1.34-25.21-2.8-37.29-6.89.51 4.14-.13 8.4-.77 12.52-.63 4.12-2.48 8.22-5.79 10.75-3.08 2.35-7.05 3.12-10.86 3.82a32 32 0 0 0 .84-16.78c-3.32 13.8-14.5 27.4-28.29 30.74z" class="uuid-c3fb550e-7adf-4a10-b685-63c1e46cedae"/><path d="M547.71 623.63a6.75 6.75 0 1 1-13.5 0 6.75 6.75 0 0 1 13.5 0m151.3-59.69a6.75 6.75 0 1 1-13.5 0 6.75 6.75 0 0 1 13.5 0" class="uuid-11176158-d5de-495d-b65c-24d0c961503f"/><path d="m1226.61 788.01-10.1 17.63 13.6 7.88 5.3 3.05 15.6 9.01 10.2-17.63-15.8-9.14-5.3-3.05zm-107.7 186.69-10.2 17.6 15.9 9.2 5.3 3 13.3 7.7 10.2-17.6-13.5-7.8-5.3-3.1z" class="uuid-6d33fe7a-c084-4d44-9018-01d640df01e5"/><path d="M481.61 447.25s-9.98 6.76-18.92 11.6c-8.93 4.81-18.67 7.05-18.67 7.05s14.12 18.42 28.27 8.76c14.01-9.57 9.32-27.4 9.32-27.4" class="uuid-4c05b5de-1330-4eb4-86f6-11d4f1611bb4"/><path d="M610.31 870.67a3 3 0 0 1-1.47-2.43c-.1-2.64-3.96-3.72-9.85-5.07-3.69-.85-7.51-1.72-10.46-3.52-6.05-3.69-30.6-39.72-67.35-94.26-16.64-24.69-32.35-48-39.53-57.53a3 3 0 0 1-.57-2.03 25 25 0 0 1-8.83 2.94c1.23 11.54 59.62 86.54 63.89 93.61 4.04 6.68 15.18 22.63 19.29 29.28 8.28 13.41 10.98 16.47 21.19 28.48 2.03 2.4 4.12 4.83 6.83 6.42 1.73 1.02 3.65 1.65 5.4 2.64 2.71 1.53 4.82 3.8 6.59 6.37q.6-.35 1.35-.56c.53-.13 5.96-1.86 13.54-4.34z" class="uuid-44d70b57-ea1b-42dd-8d38-23593b987f03"/><path d="M682.21 885.4s-7.82-8.03-12.4-17.27c-3.4-6.87-4.01-15.08-4.66-17.27.4 1.33-30.05 11.65-50.47 18.36q.22-.56.2-1.2c-.28-7.52-8.21-9.34-14.59-10.8-3.22-.74-6.54-1.5-8.65-2.78-5.39-3.3-40.11-54.84-65.47-92.46-16.68-24.76-32.44-48.14-39.71-57.79a3 3 0 0 0-1.4-.97 3 3 0 0 0-2.88.37 3 3 0 0 0-1.17 2.25c-.04.7.12 1.42.57 2.03 7.18 9.52 22.89 32.84 39.53 57.53 36.75 54.54 61.29 90.57 67.35 94.26 2.96 1.8 6.77 2.68 10.46 3.52 5.89 1.35 9.76 2.43 9.85 5.07a3 3 0 0 0 1.47 2.43 664 664 0 0 1-13.54 4.34q-.76.2-1.35.56c-5.18 3.01-1.62 14.3.43 18.6 2.58 5.44 6.57 10.37 11.89 13.17a12 12 0 0 0 5.56 1.56q.3-.02.58-.07c2.08-.18 4.06-1.06 6.09-1.6 5.5-1.52 57.89-18.2 62.29-21.82zm-2.9-42.2c-7.32 3.51 14.25 39.17 17.26 37.16 8.48-5.65 49.59-23.92 53.82-29.86-3.59-2.9-19.4-29.42-22.04-34.88-4.39 3.43-40.84 23.63-49.04 27.57m145.3-70.18-4.04-3.25c-2.12-1.7-8.02-6.4-9.43-6.42-1.41 0-2.64.9-3.77 1.74-5.19 5.2-12.69 9.18-18.78 13.24-6.05 4.04-3.32.86-8.54 5.92-5.03 4.87-.16 12.15 2.72 17.05 4.08 6.95 7.67 11.65 11.75 18.6.47.81 17.16-7.78 28.3-17.3 2.49-2.13 9.54-6.58 11.62-9.1 2.07-2.54-6.48-17.79-9.81-20.47zm37.2-23.88c-5.18-7.82-8.48-13.79-16-19.4-1.56 3.98-14.82 16.5-16.68 19.83-2.72 4.85-8.37 6.73-4.16 8.9 9.52 4.88 20.18 25.66 20.84 24.91 1.71-1.93 14.6-14.6 17.79-20.03.54-.93 2.43-3.8 2.51-4.89.11-1.48-3.48-8.08-4.3-9.32m-214 10.39c.51.91 1.45 1.5 2.49 1.55l75.82 4.12h.17c.99 0 1.92-.48 2.5-1.3l34.65-49.32c.66-.94.74-2.18.19-3.19l-49.69-93a3.1 3.1 0 0 0-3.62-1.47q-3.98 1.27-8.73 2.76c-12.78 4-28.68 8.98-45.52 15.67-27.43 10.9-55.56 24.43-59.52 26.51a3.04 3.04 0 0 0-1.24 4.19zm76.96-.5-72.46-3.95-42.78-76.15c7.73-3.72 38.02-18.25 52.68-25 4.92-2.28 37.68-15.52 53.13-19.96l42.02 78.65zm-66.45-118c16.63-6.6 32.41-11.54 45.09-15.52l6.34-2 2.65 4.96c-16.42 4.9-47.71 17.58-52.75 19.91a5204 5204 0 0 0-53.12 25.22l-4.35-7.74a890 890 0 0 1 56.13-24.83zm-285.21-260.3c-13.23 8.06-26.18 16.9-38.06 26.9a224 224 0 0 0-5.69 4.94q-1.03.9-2.04 1.83c-1.4 7.91 4.86 10.42 13.69 10.1a57 57 0 0 0 6.84-.72c14.5-2.32 31.94-9.55 35.83-13.48 0 0-7.18-8.22-8.49-11.56-1.66-4.22-2.08-18-2.08-18zm312.6 649.88c-15.52-29.37-27.78-52.57-34.01-62.42-12-18.96-23.92-44.42-21.38-59.03a3.05 3.05 0 1 0-6.01-1.05c-3.47 19.98 14.39 50.95 22.24 63.34 6.1 9.64 18.93 33.91 33.77 62.01 32.71 61.91 77.5 146.7 98.2 166.51a3 3 0 0 0 4.31-.09 3.04 3.04 0 0 0-.09-4.3c-19.98-19.16-64.51-103.44-97.03-164.97" class="uuid-2dc1f345-bf36-42b8-ad5e-a1cce947c100"/><path d="m794.51 827.54-38.4 24.26a4.13 4.13 0 0 1-5.71-1.29l-24.26-38.4a4.14 4.14 0 0 1 1.29-5.7l38.4-24.27a4.14 4.14 0 0 1 5.71 1.3l24.26 38.4a4.14 4.14 0 0 1-1.29 5.7" class="uuid-6d33fe7a-c084-4d44-9018-01d640df01e5"/><path d="M538.41 401.9c.2-2.16 1.13-5.74 2.57-6.95a3.06 3.06 0 0 0-3.93-4.67c-3.92 3.3-4.64 10.28-4.71 11.06a3.04 3.04 0 0 0 2.76 3.3l.28.01a3.06 3.06 0 0 0 3.04-2.77zm-89.6 46.72a3.04 3.04 0 0 0 .98-5.93c-9.14-3.13-10.19-6.03-8.94-9.69 4.22-12.32.48-22.62-11.11-30.6a3.05 3.05 0 1 0-3.46 5.02c9.45 6.5 12.16 13.78 8.8 23.6-4.01 11.7 8.59 16.02 12.73 17.44q.5.17.99.17zm-9.9-61.41c.81 0 1.63-.32 2.23-.97 5.36-5.73 16.68-10.09 23.7-9.16a3.06 3.06 0 0 0 .81-6.05c-9.92-1.32-22.97 4.64-28.96 11.04a3.05 3.05 0 0 0 2.22 5.13zm654.6 735.39c-4.23 2.3-8.22 5.21-12.08 8.04-4.89 3.58-9.51 6.96-14.53 9.14a3.04 3.04 0 1 0 2.43 5.6c5.64-2.46 10.75-6.2 15.7-9.82 3.87-2.83 7.52-5.5 11.38-7.59 4.58-2.48 6.5-2.86 7.21-2.87.04.4.02 1.17-.31 2.57-.75 3.13-2.69 6.75-4.75 10.6-5.11 9.53-11.46 21.4-2.58 32.98a3.05 3.05 0 0 0 4.84-3.72c-6.49-8.46-1.83-17.17 3.11-26.39 2.25-4.2 4.38-8.17 5.31-12.06 1.01-4.23.42-7.23-1.75-8.9-3.45-2.65-8.76-.4-13.98 2.42m-552.6-508.78c-5.4 0-9.8 4.4-9.8 9.8s4.4 9.8 9.8 9.8 9.8-4.4 9.8-9.8-4.4-9.8-9.8-9.8m0 13.5a3.7 3.7 0 1 1 0-7.4 3.7 3.7 0 0 1 0 7.4m151.3-53.58c5.4 0 9.8-4.4 9.8-9.8s-4.4-9.8-9.8-9.8-9.8 4.4-9.8 9.8 4.4 9.8 9.8 9.8m0-13.5a3.7 3.7 0 1 1 0 7.41 3.7 3.7 0 0 1 0-7.4M113.94 371.57a3.05 3.05 0 0 0-5.26 3.1l93.19 158.07a3.06 3.06 0 0 0 4.18 1.08 3.06 3.06 0 0 0 1.08-4.18zm-23.46 54.8a3.05 3.05 0 0 0-5.26 3.1l93.19 158.06a3.06 3.06 0 0 0 4.18 1.08 3.06 3.06 0 0 0 1.08-4.18zM1294.31 1474.6a3.05 3.05 0 0 0-4.95 3.57l160.31 222.1a3.05 3.05 0 1 0 4.95-3.57zm18-47a3.06 3.06 0 0 0-.63 4.27l138.07 185.5a3.06 3.06 0 0 0 4.27.62c1.35-1 1.63-2.92.63-4.27l-138.07-185.49a3.03 3.03 0 0 0-4.26-.62zm-64.8 47a3.04 3.04 0 0 0-4.26-.63 3.06 3.06 0 0 0-.63 4.27l138.07 185.5a3.06 3.06 0 0 0 4.27.62c1.35-1 1.63-2.92.63-4.26zm-28.1-130.2c-6.99 6.62-18.12 8.77-27.08 5.24a3.04 3.04 0 0 0-3.95 1.72 3.04 3.04 0 0 0 1.72 3.95 32.2 32.2 0 0 0 33.51-6.48 3.05 3.05 0 0 0-4.19-4.43zm-738.1-899.32a2.8 2.8 0 0 0-2.5.32c-.09.06-9.29 6.4-17.43 10.82-7.9 4.28-16.74 6.22-16.83 6.24a2.75 2.75 0 0 0-1.62 4.33c3.99 5.34 12.44 13 21.53 13 3.08 0 6.23-.89 9.31-3.03 14.5-10.1 9.47-29.03 9.25-29.83a2.7 2.7 0 0 0-1.71-1.85m-10.68 27.17c-7.74 5.4-16.22-1.26-20.5-5.59a75 75 0 0 0 13.87-5.62 213 213 0 0 0 14.4-8.75c.54 5.22.16 14.44-7.77 19.96m749.88 586.25a3.06 3.06 0 0 0-.6 4.27l92.22 122.2a3.04 3.04 0 0 0 4.28.59 3.06 3.06 0 0 0 .6-4.28l-92.22-122.19a3.05 3.05 0 0 0-4.27-.6zm-760.3-666.62c-3.16 1.12-4.51 5.44-3.02 9.65s5.26 6.72 8.42 5.6 4.51-5.44 3.02-9.65-5.26-6.72-8.42-5.6m-41.6 21.47c-2.95.72-4.32 4.77-3.07 9.04s4.65 7.14 7.6 6.42 4.32-4.77 3.07-9.04-4.65-7.14-7.6-6.42m899.5 719.65a3.06 3.06 0 0 0 2.44-4.87l-73.04-98.56a3.05 3.05 0 1 0-4.9 3.64l73.04 98.56c.6.81 1.52 1.23 2.45 1.23zm-5.8-64.3a3.05 3.05 0 0 0-.62 4.27l74.89 100.3a3.05 3.05 0 0 0 4.89-3.67l-74.89-100.29a3.05 3.05 0 0 0-4.27-.62z" class="uuid-bafaafb5-6cab-43f2-98f0-01f2b4a20e8a"/><path d="M1170.01 1078.3a9.6 9.6 0 0 0 8.32-4.79l158.72-274.92c1.28-2.22 1.62-4.8.96-7.27s-2.25-4.54-4.46-5.82l-63.59-36.7-53.33-30.8c-.12-.07-.26-.08-.39-.13a3 3 0 0 0-.56-.19q-.32-.05-.65-.04c-.12 0-.24-.04-.37-.02l-42.63 6.18a3.1 3.1 0 0 0-2.22 1.51l-22.96 40.47-37.29-22.62c-6.34-3.85-13.8-4.97-21-3.16s-13.24 6.33-17 12.72l-6.6 11.2-30.54-18.59-.15-.06q.2-1 .36-2a3 3 0 0 0-.26-1.62 3 3 0 0 0-1.39-1.96c-8.75-5.26-15.03-10.65-22.31-16.9l-4.26-3.64-31.46-26.68c-17.82-15.12-36.25-30.75-54.89-45.6-10.9-8.69-21.78-16.67-34.72-19.09-.7-4.63-4.13-8.39-6.13-10.58-27.56-30.18-53.7-49.28-86.8-73.46-15.89-11.6-33.91-24.77-54.21-40.79-5.73-4.52-11.67-8.32-18.55-12.72-9.39-6-20.02-12.8-33.31-23.52l-.37-.3c-10.91-8.8-14.58-11.77-29.96-10.96a114 114 0 0 0-19.12 2.66q-.72.18-1.25.65a7 7 0 0 0-2.35.08c-7.78 1.7-18.04 4.74-28.13 8.36q-1.12.4-2.23.73c-2.61.81-5.52 1.78-7.98 4.05-2.98-.45-6.62-.2-8.06.05-1.54.26-3.43.77-4.42 2.33q-.23.38-.38.75a29 29 0 0 1-8.81-8.17c-6.29-9.12-12.29-22-16.11-30.87a22 22 0 0 0 6.37 2.35q.24.04.48.04a3.05 3.05 0 0 0 1.2-5.86c-.11-.04-10.66-4.78-9.91-24.38q.06-1.73.17-3.52a31 31 0 0 0 1-15.4c.21-3.09.58-5.12.94-7.05a34 34 0 0 0 .46-12l-.08-.24-.02-.25c-3.97-14.04-15.89-48.64-40.79-66.76-20.74-15.08-41.52-22.99-81.05-15.79-21.38 3.9-43.17 20.9-54.21 42.31-7.72 14.96-15.34 32.65-13.31 50.36.01.11.07.2.09.3-12.82 7.13-25.81 15.87-36.08 26.13l-.31.31c-1.43-.3-2.88-.38-4.31-.08-6-10.33-27.55-38.72-56.6-76.7-14.9-19.48-28.98-37.89-36.64-48.55-9.32-12.98-20.99-26.92-32.27-40.4-3.88-4.64-7.78-9.3-11.61-13.95a3 3 0 0 0-1.4-.9 3 3 0 0 0-.62-.96c-2.64-8.8-1.47-18.17-.19-28.08 1.2-9.37 2.45-19.06.27-28.52a47 47 0 0 0-1.24-4.3L216.36 124l.21-.33 11.59-16.14c1.61-2.25 3.28-4.57 5.42-6 3.06-2.06 7.22-2.52 11.62-3l1.06-.13c9.1-1.03 22.26-3.36 31.4-11.68 7.06-6.43 11.26-15.55 13.22-28.7a173 173 0 0 0 1.46-17.06c.05-1.1.15-3.14-1.21-4.88a5.1 5.1 0 0 0-4.48-2.04c-2.85.18-5.46 2.51-6.79 4.74-3.27 5.5-6.64 11.16-12.05 13.86-5.66 2.82-12.86 2.13-21 1.03-1.74-.24-3.54-.48-4.82-1.3-1.54-.99-2.51-2.89-3.63-5.27-3.52-7.5-6.33-14.2-5.1-20.45.86-4.35 3.65-8.06 6.62-11.98a73 73 0 0 0 4.48-6.4c.39-.65 1.2-1.99 1.02-3.74a4.8 4.8 0 0 0-2.41-3.7c-2.23-1.29-5.36-.92-7.47.02l-.93.41c-9.87 4.37-22.16 9.81-30.18 17.5-7.33 7.03-10.17 17.41-8.43 30.85 1.2 9.3 1.42 17.17-1.42 25.47-1.33 3.9-3.88 7.45-6.35 10.88l-2.95 4.1-29.92 41.61-7.14-3.05q-.51-.2-1.04-.22a3 3 0 0 0-3.81.15c-4.91 4.45-5.4 8.88-4.93 11.86a9 9 0 0 0-2.72 2.93c-.24.03-.47.02-.7.1-3.78 1.36-8.69 5.06-10.34 9.24-.47 1.18-.4 3.8 0 7.1-4.76 4-6.02 6.44-7.23 8.81l-.41.8c-.55 1.05-1.31 2.48-1.38 4.23l.01.2c-2.44 1.57-5.82 4.26-6 8.53-.1 2.45.96 4.55 1.75 6.08l1.31 2.58-.69.96-38.04 52.92q-.2.3-.34.61l-8.02 11.18c-2.47 3.44-5.02 7-8.28 9.5-6.97 5.34-14.51 7.65-23.69 9.48-13.3 2.65-22.23 8.65-26.54 17.85-4.72 10.06-5.95 23.43-6.94 34.18l-.09 1.02c-.21 2.31.44 5.4 2.37 7.1a4.7 4.7 0 0 0 4.27 1.1 6 6 0 0 0 3.22-2.17c1.71-2 3.19-4.19 4.63-6.29 2.77-4.06 5.39-7.9 9.24-10.1 5.51-3.16 12.77-2.64 21.01-1.7 2.61.3 4.72.62 6.15 1.76 1.18.94 1.99 2.57 2.77 4.15 3.65 7.36 6.6 13.96 5.73 20.22-.83 5.98-5.12 11-9.28 15.84-1.69 1.97-3.06 5.2-2.32 7.95.46 1.72 1.66 3 3.37 3.6q.95.3 1.83.3c1.33 0 2.47-.45 3.18-.73a171 171 0 0 0 15.69-6.83c11.84-6.06 19.14-12.96 22.98-21.7 4.96-11.32 2.97-24.53 1.03-33.48l-.23-1.05c-.95-4.32-1.84-8.4-.87-11.97.68-2.48 2.35-4.8 3.96-7.05l11.59-16.14q.13-.13.25-.3c5.87-8.18 11.06-15.55 15.99-22.59 5.32 8.9 12.51 16.36 19.5 23.6.15.14.34.22.5.33a268 268 0 0 0-9.56 16.75c-.5.95-.46 2.1.11 3.01l4.21 6.86c7.46 12.18 16.75 27.34 23.88 37.68 10.17 14.74 40.82 54.56 65.45 86.56 17.17 22.31 31.99 41.57 34.22 45 34.96 53.65 85.93 97.97 135.23 140.84l2.91 2.53c2.05 1.71 3.97 3.22 5.82 4.62 22.73 22.91 62.76 88.36 63.17 89.02q.1.16.23.28a5.2 5.2 0 0 0-3.11 3.13 5 5 0 0 0 .64 4.6c13.74 19.6 83.07 118.63 99.05 143.98 3.96 6.28 8.6 12.33 15.65 14.06q1.27.3 2.56.47c1.04.16 2.03.31 2.83.61a5.5 5.5 0 0 1 2.19 1.58c-4.11 9 .5 24.7 9.43 32.33 2.79 2.4 5.3 3.92 7.87 4.82l1.77.57c10.07 42.68 60.88 131.68 90.26 180.95l1.27 2.13c20.65 34.74 70.86 98.76 94.98 129.52 7.69 9.81 13.25 16.9 14.38 18.6.97 1.45 2.93 4.84 5.63 9.52 10.7 18.52 32.97 57.07 61.46 93.4 19.46 24.81 93.43 123.2 100.58 134.51 6.55 10.36 13.72 20.47 20.65 30.25 6.89 9.71 14.01 19.76 20.47 29.98a3.1 3.1 0 0 0 3.11 1.37c2.98-.53 6.11-.89 9.14-1.24l.67-.08c.12.55.34 1.08.76 1.5l16.92 16.98c2.56 2.57 12.9 18.2 15.05 23.1a291 291 0 0 0 20.16 38.04l.97 1.55c6.33 10.08 13.5 21.5 23.77 28.8 11.69 8.28 28.58 9.02 40.92 9.56q1.5.07 3.23.07c9.79 0 24.37-1.98 31.97-12.64 8.29-11.62 7.31-27.67 5.03-39.08-1.86-9.3-7.54-17.06-13.69-24.84a967 967 0 0 0-81.13-90.29c1.68-5.27 2.12-10.48.89-15.35a3 3 0 0 0-.3-.76c-1.11-1.96-110.84-196.22-131.53-229.63-7.26-11.73-29.37-47.4-44.86-65.9-5.63-17.7-16.53-43.06-29.21-72.53-16.41-38.15-36.73-85.4-45.1-118.75 12.48 8.92 30.84 27.82 44.71 42.08 5.87 6.04 10.94 11.26 14.71 14.86 7.84 7.48 14.54 14.06 20.65 20.04 25.83 25.31 40.95 40.11 84.46 68.16a3 3 0 0 0-1.44 3.13c1.86 10.5 44.78 66.74 96.44 133.66 17.94 23.24 32.11 41.6 34.79 45.9 1.14 1.82 3.45 2.84 12.41 3.23q0 .62.27 1.22l21.62 47.08c1.31 2.87 2.67 5.83 4.26 8.73 4.48 8.16 10.48 15.22 16.29 22.04 4.58 5.4 16.85 19.83 31.75 19.83 3.24 0 6.61-.68 10.05-2.29 22.79-10.66 19.65-33.13 14.48-55.24-3.18-13.6-11.47-24.76-19.48-35.53l-2.15-2.9c-5.43-7.35-18.56-30.73-18.69-30.96-.06-.1-.16-.17-.22-.26 1.97-4.96 3.04-10.1 4.01-15.13.12-.63.04-1.28-.22-1.86-.61-1.32-61.34-133-105.4-204.39a2258 2258 0 0 0-26.62-42.3l80.94 47.27a9.5 9.5 0 0 0 4.77 1.28zm4.38-348.67 34.93-5.06-152.77 264.61a621 621 0 0 0-11.04-14.73c-1.91-2.47-3.91-4.88-5.86-7.32l25.8-45.48 5.63 3.6a3 3 0 0 0 2.3.41 3 3 0 0 0 1.92-1.33l8.79-13.75a3.04 3.04 0 0 0-.93-4.2l-6.63-4.25 64.48-113.65 7.57 4.6c1.44.86 3.32.4 4.19-1.04l8.46-13.96a3.06 3.06 0 0 0-1.02-4.19l-8.13-4.93zM682.26 844.44l3.2-1.65 2.14-1.1c6.6-3.44 21.56-11.56 39.72-21.99l19 30.08c-13.62 10.04-33.36 19.46-39.34 22.22l-7.63 3.54-2.56 1.18a67 67 0 0 1-1.8-2.9 53 53 0 0 0-3.2-5c-2.52-3.39-10.45-14.94-9.53-24.37zm8.92 34.87-7.2 3.28-6.51-8.75c-5.25-7.07-10.26-14.6-9.27-22.2l7.93-4.03c.7 10.17 7.5 20.46 10.75 24.84a46 46 0 0 1 2.84 4.44q.69 1.2 1.46 2.42m37.53-68.82a1.1 1.1 0 0 1 .34-1.5l38.4-24.26a1 1 0 0 1 .82-.14c.16.04.47.15.68.48l24.26 38.4a1.1 1.1 0 0 1-.34 1.5l-38.4 24.26c-.51.32-1.18.17-1.5-.34zm49.84-21.66a649 649 0 0 0 33.49-22.65c8.46 5.67 16.15 15.27 19.92 24.78a526 526 0 0 1-13.85 10.2 482 482 0 0 0-21.56 16.17zm38.62-26.47q2.68-2.03 5.16-4c8.09 5.78 15.99 15.44 19.81 24.22a166 166 0 0 1-5.22 4.45 63 63 0 0 0-19.75-24.66zm10.04-7.99c7.44-6.27 13.07-11.95 15.91-16.6a13 13 0 0 0 2.22-4.54c3.85 3.25 9.52 10.5 17.6 25.8a130 130 0 0 1-16.08 19.13c-4.28-8.74-11.73-17.74-19.65-23.78zm18.06-28.48c-1.85-7.35-8.2-15.04-13.71-21.7l-2.68-3.26c-3.95-4.88-7.7-10.12-11.35-15.2-1.23-1.72-3.2-4.58-5.69-8.23 2.92 2.34 5.78 4.64 8.48 6.83 9.25 7.5 16.58 13.45 20.86 15.58 5.25 3.54 121.72 82.06 148.73 103.76a3.05 3.05 0 0 0 4.29-.47l.29-.05a40 40 0 0 0 4.49 14.75c2.29 4.26 5.32 8.04 8.25 11.7 4.13 5.17 8.03 10.06 9.67 15.87l-5.84 9.91a27.44 27.44 0 0 0 8.89 37.18l40.35 25.81-24.75 43.64c-13.55-16.64-27.85-32.78-41.81-48.47-21.35-24-43.43-48.82-62.46-75.25-5.7-7.92-11.04-16.06-16.21-23.94-13.62-20.77-26.49-40.39-45.73-56.87-.14-.12-.32-.17-.47-.26-.03-.06-.02-.12-.05-.18-6.03-11.5-14.87-26.88-23.54-31.16zm244.69 101.44c3.38-1.77 6.28-5.35 8.02-8.55 2.36-4.34 3.05-8.44 2.08-11.6 1.58-2.76 2-6.33 1.02-9.79-.99-3.52-3.14-6.49-5.12-8.92a83 83 0 0 0-12.26-12.18l7.16-12.15a5.1 5.1 0 0 1 7.06-1.78l37.86 22.96-64.41 113.53-39.35-25.17a5.1 5.1 0 0 1-1.65-6.9l12.48-21.17c3.62 3.1 6.58 5.76 8.02 7.51 1.89 2.31 4.49 5.46 8.46 6.3q1 .2 1.96.2c4.09 0 7.63-2.57 10.06-4.63 4.83-4.1 6.4-7.79 6.6-10.72 5.19-.97 9.83-4.78 11.5-9.85.76-2.29.9-4.73.5-7.09zm-64.84 36.35a11.17 11.17 0 0 0 3.62 15.14l48.56 31.06-5.51 8.61-48.56-31.06a21.35 21.35 0 0 1-6.92-28.94l13.84-23.49 5.14 4.28 2.82 2.35zm51.69-107.84a21.6 21.6 0 0 1 18.51-10.56c3.87 0 7.68 1.06 11.08 3.12l48.04 29.14-5.3 8.74-48.04-29.14a11 11 0 0 0-8.55-1.29 11.2 11.2 0 0 0-6.93 5.18l-6.83 11.6a179 179 0 0 0-8.53-5.45c-.1-.06 6.55-11.33 6.55-11.33zm-9.61 16.61c2.98 1.82 6.06 3.7 8.91 5.71a76 76 0 0 1 15.12 14.15c1.66 2.04 3.29 4.27 3.98 6.72.62 2.2.27 4.45-.88 5.75l-.09.16a3 3 0 0 0-.31.54q-.14.25-.23.51-.06.3-.07.57-.03.3-.02.58.04.26.14.53.08.32.23.6l.06.17c.68 1.07.52 3.85-1.42 7.43-2.17 4-5.22 6.48-6.8 6.5a3.05 3.05 0 0 0-2.02 5.28 8.7 8.7 0 0 1-.13 4.86 9 9 0 0 1-8.8 5.91 3.06 3.06 0 0 0-3.26 2.83c-.02.27.05.52.1.77.01.23 0 .45.06.68.81 2.74-2.39 5.97-4.37 7.65-2.91 2.47-5.1 3.44-6.84 3.1-1.87-.4-3.59-2.5-4.99-4.2-2.72-3.32-9.06-8.58-16.4-14.66-6.51-5.4-13.9-11.54-19.37-16.87a3.05 3.05 0 0 0-4.26 4.36c3.05 2.98 6.65 6.16 10.35 9.32-1.38 2.04-3.72 5.5-5.02 7.45-2.3-4.8-5.63-8.98-8.89-13.06-2.88-3.6-5.61-7-7.63-10.77a34 34 0 0 1-4.04-14.98c0-.1-.06-.2-.08-.3 15.63-11.1 27.74-28.98 32.69-48.15zM656.33 461.57c13.03-.7 14.98.88 25.8 9.61l.37.3c13.55 10.93 24.34 17.83 33.85 23.91 6.74 4.31 12.56 8.03 18.06 12.37 20.39 16.1 38.45 29.28 54.39 40.93 32.82 23.98 58.74 42.91 85.89 72.64 2.42 2.66 4.98 5.75 4.63 8.72-.03.23.03.44.05.66a127 127 0 0 0-17.14 26.26 3.05 3.05 0 0 0 2.73 4.4c1.13 0 2.22-.64 2.74-1.72 4.41-9.03 9.95-17.5 16.46-25.17.14-.17.21-.37.3-.55 11.47 2.26 21.59 9.63 31.77 17.74 18.57 14.8 36.96 30.4 54.75 45.5l31.46 26.67q2.2 1.86 4.23 3.62c7.06 6.06 13.24 11.33 21.62 16.55-3.68 21.77-17.59 42.66-35.82 53.55l-.22.2c-30.23-23.77-146.65-102.2-147.84-103l-.38-.23c-3.6-1.73-11.14-7.84-19.87-14.92a625 625 0 0 0-22.55-17.7c-.15-.12-.33-.16-.5-.25-4.86-7.2-10.31-15.34-15.9-23.67-40.36-60.14-46.94-69.54-48.6-70.63l-1.22-.8a181 181 0 0 0-7.98-5.07 3 3 0 0 0-.34-1.25 277 277 0 0 1-2.65-5.12c-2.28-4.48-3.65-7.19-8.15-13.04-5.64-7.34-20.95-21.53-30.43-26.14-13.13-17.97-34.6-42.56-43.55-52.67q6.95-1.3 14.04-1.68zm62.25 95.5a28 28 0 0 0-6.9-1.89c-.28-.03-.53.02-.8.06a1124 1124 0 0 0-15.65-25.45c6.54 5.43 13.09 11.94 16.2 16a60 60 0 0 1 7.14 11.27zm-113.84-83.29q1.23-.38 2.48-.8c9.85-3.55 19.83-6.5 27.36-8.15.49-.1 1.03.1 1.4.5 8.28 9.3 36.28 41.1 49.05 60 9.03 13.36 24.71 39.86 29.05 47.22-10.72 10.98-27.45 12.92-32.78 13.26l-39.4-65.59c-9.41-15.66-22.82-30.42-40.97-45.04 1.12-.56 2.41-.96 3.81-1.4M423.5 367.56a3.05 3.05 0 0 0-5.47 1.07c-.03.11-2.72 11.41-12.14 18.64-11.33 8.7-15.7 9.16-16.18 9.18a3.05 3.05 0 1 0-.64 6.07c1.78 7.23 4.48 11.05 7.82 15.72 1.39 1.95 2.89 4.06 4.53 6.67.06.4.14.8.15 1.15-1.21-2.92-3.37-6.33-7.03-10.16-1.53-1.6-3.26-3.04-4.92-4.43a69 69 0 0 1-3.88-3.4c-5.03-4.87-8.97-11.5-7.17-26.35a304 304 0 0 1 30.81-13.67 441 441 0 0 0 7.51-2.95c5.41-2.16 9.69-3.87 12.83-4.38.99-.16 2.3-.4 3.8-.7 1.88 4.52 2.1 8.68.63 12.4-1.59 4.03-4.9 7.05-7.95 9.12.27-1.2.45-2.48.47-3.7.1-5.57-3.02-10.09-3.15-10.28zm-37.79 48.6c1.6 1.34 3.12 2.6 4.42 3.96 8.85 9.26 6.38 14.34 6.39 14.34a3.05 3.05 0 0 0 4.12 4.26 15 15 0 0 0 5.3-5.67c1.78 3.7 3.04 7.54 4.34 11.6 1.08 3.38 2.2 6.88 3.72 10.57 3.69 8.97 11.69 19.91 20.87 28.56q14.96 14.07 26.32 19.65c-10.3-1.42-19.48-1-25.11 1.44-26.27-16.07-56.49-48.86-68-61.35a146 146 0 0 0-4.81-5.1 132 132 0 0 0-5.49-4.79 84 84 0 0 1-7.03-6.42 64 64 0 0 0 10.81-3.7c4.4-1.9 13.77-6.1 21.51-9.6q1.34 1.17 2.65 2.25zm94.85 98.3a560 560 0 0 1 29.6 35.21c.15.3.35.5.57.73 16.14 20.91 30.32 42.01 45.83 65.1l8.41 12.5-.23.98a33 33 0 0 1-12.49 10.6c-6.92 3.35-14.87 4.2-21.9 4.5L439.85 510c7.68-2.44 24.3-1.38 40.73 4.48zm1.54-5.92q-2.52-.89-5.06-1.64 1.19-.18 2.3-.54a42 42 0 0 0 9.46-4.75l1.62 2.91zm9.76 2.06c4.09 2.02 9.1 3.7 13.96 5.33 3.46 1.16 6.72 2.25 9.42 3.4q1.23.5 2.71 1.18l3.78 1.66c-3.81 3.36-6.89 8.51-8.41 12.86-.66 1.9-1.32 4.02-1.95 6.27a559 559 0 0 0-24.08-28.49zm24.33 36.88c.26-1.29.68-3.23.84-3.82.67-2.4 1.35-4.64 2.05-6.62 2.02-5.75 7.08-12.17 10.49-12.32q.48.09.94.13c5.71 1.73 18.22 8.82 25.73 13.08 2.91 1.65 4.69 2.65 5.87 3.28.04.1.03.18.08.27 4.61 9 15.09 21 22.74 29.74 3.14 3.6 6.12 7.01 7.5 8.9-13.79 5.05-27.35 10.81-40.34 17.8-11.82-17.5-23.26-34.02-35.88-50.44zm73.32 19.73c-7.29-8.35-17.19-19.69-21.6-27.98-.13-6.55 1.13-14.4 3.87-24.13.59-2.09 1.77-5.17 2.42-6.05 1.67-2.12 4.71-1.5 9.52-.25l1.88.48c5.26 1.3 10.6 3.43 15.76 5.5 10.32 4.12 21.01 8.4 32.42 6.7.5-.07.93-.29 1.32-.57.52.82 1.08 1.63 1.57 2.46l21.58 35.93-15.22 4.55c-14.81 4.42-29.85 8.94-44.7 14.15-1.11-1.93-3.93-5.19-8.81-10.78zm-2.23-87.9c.04-.38.09-.82.17-1.17 1.75-.42 6.05-.43 7.45.03 15.56 12.27 27.59 24.58 36.62 37.38-9.31.92-18.35-2.64-27.9-6.45-5.36-2.14-10.89-4.35-16.57-5.75l-1.79-.46a45 45 0 0 0-5.54-1.17 55 55 0 0 0 7.56-22.4m-35.31-106.63c.2 2.61.09 4.36-.15 6.04a20 20 0 0 0-9.55-6.64c-6.75-2.1-13.85-.25-19.97 5.22a3.05 3.05 0 1 0 4.07 4.55c5.71-5.1 10.81-4.96 14.09-3.94 4.64 1.45 8.4 5.58 9.6 10.53 1.6 6.62 2.22 19.1-11.57 28.3a3.06 3.06 0 0 0 3.38 5.07q.38-.26.75-.54a42 42 0 0 0 4.7 6.78c.42 1.18 10.08 26.63 20.94 42.38a35.4 35.4 0 0 0 12.56 10.93c-1.55 9.31-5.47 17.67-11.24 23.72-.11.15-.17.2-.22.26-1.82 2.4-3.42 8.04-3.44 8.1-2.24 7.96-3.54 14.8-3.94 20.72q-1.32-.73-2.72-1.54c-8.29-4.7-20.83-11.8-27.15-13.67a8 8 0 0 0-1.87-.3c-2.87-.6-6.8-2.37-9.78-3.7q-1.55-.71-2.84-1.26c-2.91-1.22-6.28-2.35-9.85-3.55-2.7-.9-5.43-1.83-7.99-2.8a36.4 36.4 0 0 0 17.31-15.15c5.99-10.1 7.81-22.32 8.36-29.39q.57-.9 1.09-1.79a68 68 0 0 0 8.71-26.26 3.05 3.05 0 1 0-6.06-.68 62 62 0 0 1-7.92 23.9c-9.55 16.48-30.31 38.2-43.79 42.58-7.5 2.45-21.5-5.29-38.42-21.2-8.6-8.1-16.04-18.23-19.42-26.45-1.42-3.47-2.5-6.85-3.55-10.1-1.5-4.7-2.91-9.12-5.21-13.59a104 104 0 0 0-3.79-6.75 3 3 0 0 0-.58-.93 127 127 0 0 0-4.64-6.84 70 70 0 0 1-3.44-5.1c3.55-5.43 9.73-7.28 14.41-7.84 1.67-.2 2.87-1.72 2.67-3.39s-1.74-2.84-3.39-2.67c-6.87.82-12.55 3.5-16.48 7.62q-.31-1-.6-2.12c3.31-1.37 7.98-4 14.59-9.08a40 40 0 0 0 10.84-13.14 27 27 0 0 1-2.49 7.47 3.05 3.05 0 0 0 3.71 4.3c.56-.2 13.71-4.94 18.12-16.04a20 20 0 0 0 1.24-10c9.87 4.28 18.3 5.87 25.35 5.87 2.87 0 5.48-.28 7.89-.73q.36.29.8.47c6.93 2.37 12.4 6.9 17.22 10.87 5.17 4.27 10.46 8.64 16.46 8.64 2.57 0 5.27-.8 8.15-2.76a3.06 3.06 0 0 0 .81-4.24 3.06 3.06 0 0 0-4.24-.8c-5.56 3.77-9.53.86-17.29-5.55-3.83-3.16-8.04-6.62-13.15-9.33 7.26-3.25 11.13-7.76 11.91-8.74 21.39 2.75 41.2 7.53 55.72 13.7l1.32.58zm-1.08 50.13a39 39 0 0 1-3.48-5.49q1.06-1.03 2.02-2.12.44 4.28 1.46 7.61m-109.05-64.44c6.01-1.17 12.54-2.36 16.13-2.52.09.05.14.14.24.18 8.97 4.35 16.62 5.65 22.53 5.66-7.64 3.45-20.25 5.22-38.89-3.32zm-4.82-65.13c37.54-6.84 56.43.22 76.36 14.72 20.32 14.78 31.55 41.71 36.63 57.31-21.7-8.56-53.22-14.3-84.51-15.4l-.01-.23c-5.7-21.97-13.63-45.6-34.99-54.75a56 56 0 0 1 6.52-1.65m-49.89 39.1a79.3 79.3 0 0 1 34.65-33.96c23.2 5.56 31.34 28.21 37.42 51.33-4.81-.1-14.91 1.94-23.05 3.56-3.06.61-5.71 1.14-7.44 1.42-3.8.62-8.35 2.44-14.11 4.74-2.26.9-4.72 1.9-7.41 2.91a310 310 0 0 0-32.91 14.73c-1-15.4 5.87-31.2 12.85-44.72zm-50.41 78.31c10.01-10 22.79-18.54 35.4-25.5-.71 12 2.35 19.1 6.4 24.1-7.27 3.27-15.42 6.92-19.4 8.65-9.67 4.18-17.06 5.27-23.25 3.45-2-.59-3.37-1.47-3.85-2.48-1.04-2.2 1.88-5.39 4.7-8.2zM232.83 49.72c1.15 2.44 2.72 5.8 5.85 7.81 2.41 1.55 5.12 1.92 7.29 2.21 7.46 1.02 16.74 2.28 24.54-1.62q.38-.2.74-.43a36 36 0 0 1-16.63 9.56c-8.02 2-15.79.68-21.88-3.69-12.65-9.08-14.17-28.69-3.47-43.86a23 23 0 0 0-2.01 5.8c-1.72 8.7 2.49 17.66 5.57 24.21zm-42.65 43.95 2.95-4.1c2.73-3.8 5.55-7.72 7.17-12.47 3.4-9.97 2.83-19.46 1.69-28.23-1.48-11.42.74-20.06 6.6-25.67 5.33-5.1 13.08-9.26 20.56-12.77a46 46 0 0 0-4.65 5.42c-12.88 17.94-10.78 41.57 4.67 52.67a31 31 0 0 0 18.19 5.75q4.3 0 8.72-1.09c9.61-2.39 18.3-8.44 24.49-17.06a46 46 0 0 0 5.33-9.83c-.23 3.53-.54 7.22-1.09 10.86-1.74 11.7-5.33 19.67-11.29 25.1-7.83 7.13-19.71 9.2-27.97 10.12l-1.05.12c-4.71.52-10.05 1.11-14.36 4.01-3.04 2.05-5.12 4.95-6.96 7.51l-11.81 16.46q-.12.15-.2.32l-26.27 36.57-.73-1.75q-.96-2.25-1.82-4.45l29.32-41.4c1.79-2.53 2.49-5.6 1.97-8.67s-2.2-5.73-4.73-7.52-5.62-2.49-8.66-1.97c-3.06.52-5.73 2.2-7.52 4.73l-27.93 39.43-3.74-1.6zM179.8 144.2a8.4 8.4 0 0 0-4.05-3.74l-5.22-2.24 27.17-38.36a5.5 5.5 0 0 1 7.68-1.32 5.5 5.5 0 0 1 1.31 7.68zm-38.82 2.17c2.73 3.81 7.42 7.27 13.84 10.06l.27.5a3 3 0 0 0-3.15-.3 3.04 3.04 0 0 0-1.36 4.1 83 83 0 0 1 4.97 12.3q.21.62.65 1.08-.49 1.94-1.05 3.9l-.23.86c-2.05 1.54-5.42 1.1-6.92-.82-.87-1.1-1.36-2.75-1.84-4.34l-4.68-15.55c-.84-2.79-1.71-5.68-1.46-8.35.16-1.73.54-2.77.96-3.43zm-1.31 43.34q.49-.1.96-.27c1.31-.5 4.1-2.45 6.01-4.85q1.75.9 3.72 1.15l-49.4 69.74a5.5 5.5 0 0 1-9.93-2.26 5.5 5.5 0 0 1 .94-4.1l29.94-42.28c.26.2.48.41.77.57a7.3 7.3 0 0 0 7.69-.4 7.3 7.3 0 0 0 3.02-6.58 11 11 0 0 0 .86-.4c4.07-2.24 5.67-6.39 5.41-10.3zm-9.37-34.75c.5-1.27 1.95-2.8 3.63-4.03.03 3.23.88 6.27 1.7 9l4.68 15.54c.44 1.48.98 3.23 1.91 4.88-.84 1.21-2.9 3.06-3.8 3.41a2.3 2.3 0 0 1-1.6-.07l-.19-.1q-.14-.07-.24-.16c-1.71-3.07-6.7-25.38-6.1-28.47zm-7.92 17.32.45-.87a17 17 0 0 1 2.98-4.37c1.71 8.82 4.45 18.54 5.76 20.1q.76.85 1.74 1.47c.5 1.6.69 4.6-1.98 6.05q-.31.17-.51.25l-.12-.28-8.41-19.02a5 5 0 0 1-.57-1.7c.02-.38.4-1.1.68-1.64zm-4.84 7.71 7.57 17.11c.36.81.96 2.17 2.29 3.11-.01.22-.06.43-.03.66.06.4-.16.91-.48 1.14a1.3 1.3 0 0 1-1.24.07c-.7-.39-1.35-1.66-1.82-2.6l-7.01-13.78c-.53-1.04-1.12-2.2-1.09-3.07.04-.9.81-1.8 1.82-2.64zM59.18 319.87c-.98-1.97-2.2-4.42-4.43-6.2-2.91-2.33-6.59-2.74-9.27-3.05-7.18-.82-17.03-1.94-24.73 2.47a23 23 0 0 0-4.85 3.76c5.33-7.29 12.69-12.4 20.79-14.42 8.02-1.99 15.79-.68 21.88 3.7 11.16 8 13.66 24.21 6.75 38.33q.1-.4.17-.8c1.2-8.65-2.97-17.04-6.31-23.78zm46.72-52.49-.24.3-11.82 16.45c-1.84 2.56-3.92 5.46-4.89 9-1.37 5.01-.22 10.25.79 14.88l.23 1.04c1.76 8.12 3.6 20.05-.65 29.74-3.24 7.4-9.65 13.33-20.18 18.72a128 128 0 0 1-9.94 4.5 46 46 0 0 0 7.61-8.19c12.88-17.94 10.79-41.57-4.67-52.67-7.57-5.43-17.12-7.08-26.91-4.66-9.61 2.4-18.3 8.44-24.49 17.06a46 46 0 0 0-3.65 6.14c.93-8.2 2.39-16.89 5.53-23.57 3.45-7.34 10.92-12.2 22.21-14.46 8.67-1.73 17.84-4.2 26.21-10.62 3.98-3.05 6.8-6.98 9.53-10.78l8.42-11.74q.21-.3.33-.6l36.49-50.77 2.42 4.76c-.26.18-.53.34-.73.61l-30.49 43.05A11.62 11.62 0 0 0 105.96 259l46.48-65.62q-.13 3.96.18 7.88-.16.13-.31.28a2752 2752 0 0 0-23.34 33.11 2780 2780 0 0 1-23.07 32.72zm24.6-24.27 3.47-4.97c6.11-8.76 12.46-17.86 19.72-28.03q.72 4.36 1.58 8.41a3.05 3.05 0 0 0 5.97-1.24 158 158 0 0 1-2.67-20.2c-.05-1.18-.09-7.43.76-10.7.56-2.19 1.05-4.42 1.7-6.75 1.71-6.17 3.48-12.54 1.89-19.15 0-.04-.48-1.94-1.32-4.04.63 0 1.25-.02 1.76 0a3.06 3.06 0 0 0 .14-6.1h-2.38c-1.81.02-4 .04-5.34-.2-6.53-3.12-10.74-6.99-11.35-10.6-.29-1.73.3-3.4 1.74-5.12l27.18 11.64c.62.27 1.1.85 1.32 1.6 1.05 3.57 2.49 7 3.88 10.3.75 1.8 2.36 6.12 2.53 6.44.87 1.96 1.84 6.16 1.84 6.16 1.72 8.2.65 16.7-.51 25.68-1.29 10.03-2.58 20.38.34 30.35a264 264 0 0 0-32.8 40.84c-7.21-7.46-14.56-15.19-19.45-24.32M426.32 627.3a46 46 0 0 0 6.41 2.64q.42.12.85.12c1.32 0 2.53-.86 2.92-2.19a3.06 3.06 0 0 0-2.06-3.79c-.11-.03-11.38-3.48-27.43-16.9l-2.87-2.49c-48.98-42.59-99.63-86.63-134.12-139.57-2.36-3.62-16.54-22.05-34.5-45.38-24.58-31.94-55.18-71.7-65.26-86.3-7.04-10.2-16.28-25.3-23.7-37.42l-3.3-5.38a258 258 0 0 1 43.22-59.16q5.52 6.68 11.1 13.33c11.21 13.4 22.8 27.25 31.99 40.05 7.72 10.74 21.82 29.18 36.75 48.7 22.63 29.58 50.42 65.92 56.26 76.18-5.19 5.24-7.44 10.37-9.42 14.95-1.38 3.2-2.68 6.2-4.87 9.13a3.05 3.05 0 0 0 4.89 3.66c2.62-3.5 4.13-6.99 5.59-10.36 1.82-4.2 3.57-8.23 7.47-12.39a8.6 8.6 0 0 0 .25 6.73q1.92 4.03 7.64 5.72c2.62.77 5.26 1.1 7.86 1.1.52 0 1.02-.05 1.54-.07 3 3.86 6.68 7.03 10.3 10.06 1.78 1.5 3.56 2.98 5.24 4.56.6.57 2.32 2.43 4.5 4.8 11.73 12.74 42.65 46.28 69.77 62.72.02.56.13 1.12.47 1.61l77.85 115.35c-5.01 6.81-5.82 15.15-6.58 23.24-.23 2.38-.45 4.76-.79 7.08-3.23 22.2-9.19 38.67-26.64 46.14-.02-.5-.12-1-.4-1.47-1.37-2.25-28.47-46.53-50.93-74.99zm165.72 239.58c-1.41-.53-2.82-.74-4.06-.93q-1.02-.13-2.02-.37c-5.19-1.27-8.88-6.54-11.94-11.38-15.77-25.02-83.06-121.17-98.45-143.13 24.95-8 31.46-29.98 34.76-52.58.35-2.42.59-4.9.82-7.38.64-6.75 1.25-13.17 4.2-18.35l10.35 15.34q.52.75 1.32 1.07a3 3 0 0 0 2.23 1.02c8.06-.29 17.31-1.13 25.64-5.17a39 39 0 0 0 15.17-13.09q.32-.46.45-1l.68-2.85c.2-.83.04-1.7-.44-2.42l-9.15-13.6-6.11-9.09c28.1-15 59.17-24.34 89.26-33.33l16.72-4.99 15.51 25.82c.55.92 1.54 1.48 2.62 1.48s26.12-.19 40.55-17.05c.84-.99.97-2.4.32-3.52-.06-.1-2.19-3.75-5.39-9.13 5.7 1.96 12.04 6.12 16.95 9.36l1 .66c3.08 3.47 28.5 41.34 47.12 69.1 14.4 21.44 28 41.71 32.45 47.92 3.68 5.13 7.48 10.44 11.54 15.46l2.72 3.31c7.3 8.81 16.38 19.78 11.27 26.18l-.09.17-.13.14c-6.92 11.38-33.12 30.32-62.6 49.11l-1.19-1.89a7.2 7.2 0 0 0-9.92-2.24l-38.4 24.26a7.2 7.2 0 0 0-2.24 9.92l.53.84a1137 1137 0 0 1-39.3 21.68l-2.14 1.11c-28.78 14.94-53.84 27.86-84.85 34.34a11.6 11.6 0 0 0-5.73-4.82zm19.36 38.68c-1.84-.64-3.72-1.82-5.92-3.7-6.94-5.93-10.12-17.34-8.38-23.72 23.92-4.75 44.14-13.2 64.9-23.43.4 8.27 5.36 15.74 10.56 22.75l5.71 7.68c-20.55 9.13-41.08 17.03-64.04 21.31-.94-.29-2.6-.8-2.83-.89m562.67 682.07c5.89 7.45 10.89 14.27 12.49 22.25 1.67 8.38 3.38 23.97-4.01 34.35-6.81 9.56-21.7 10.38-29.96 10.02-11.58-.5-27.43-1.2-37.65-8.45-9.28-6.58-15.81-16.99-22.13-27.06l-.97-1.55a285 285 0 0 1-19.74-37.24c-2.32-5.29-12.99-21.62-16.31-24.96l-15.05-15.1a58 58 0 0 0 11.45-2.82l1.32-.53c7.51-.02 19.52-2.04 20.98-2.27 5.59-.88 10.22-5.44 12.29-10.82 1.52-3.92 3.96-11.37 4.69-17.3a58 58 0 0 0 3.78-6.47 960 960 0 0 1 78.84 87.96zm52.45-259.38 2.16 2.92c7.99 10.75 15.54 20.91 18.44 33.28 5.89 25.21 5.87 40.38-11.12 48.32-13.48 6.32-26.18-6.09-34.57-15.96-5.61-6.59-11.41-13.4-15.59-21.03-1.49-2.7-2.8-5.57-4.07-8.34l-20.93-45.59h.24l1.32.02 1.69.02c7.73 0 14.25-1.3 19.87-3.98 3.24-1.54 17.88-8.85 25.12-18.3 3.77 6.62 12.91 22.51 17.43 28.63zm-120.81-253c41.96 67.97 99.22 191.12 104.64 202.83-.97 4.95-2.03 10.02-4.08 14.56-3.37 7.46-15.53 15.32-24.92 19.77-5.15 2.45-11.31 3.53-18.79 3.37l-1.4-.02c-9.97-.1-13.28-.66-14.37-1.04-3.43-5.25-16.7-22.42-34.82-45.89-33.93-43.95-90.04-116.62-94.95-129.93q3 1.91 6.17 3.9.76.47 1.62.47a3.04 3.04 0 0 0 1.62-5.63c-51.67-32.44-66.88-47.34-94.49-74.39-6.12-6-12.85-12.59-20.71-20.09-3.69-3.52-8.72-8.7-14.54-14.7-16.91-17.4-37.96-39.08-50.89-46.24-2.9-14.03-2.94-24.75 1.32-29.93a3.05 3.05 0 1 0-4.71-3.87c-16.8 20.41 15.88 96.36 44.71 163.38 17.46 40.58 33.95 78.92 32.41 90.02a3.05 3.05 0 1 0 6.04.84c.24-1.72.15-3.89-.2-6.4 14.04 18.96 30.24 45.1 36.24 54.78 20.19 32.61 125.75 219.41 131.19 229.05 3.96 17.46-20.05 42.7-42.78 51.28-5.49 2.08-11.38 2.75-17.62 3.47-2.46.28-4.98.57-7.48.96-6.25-9.76-13.01-19.3-19.56-28.54-6.89-9.72-14.01-19.76-20.47-29.98-7.21-11.4-81.42-110.14-100.93-135.02-28.22-35.99-50.35-74.28-60.98-92.68l-1.4-2.43 19.43 16.35a3.03 3.03 0 0 0 4.3-.38 3.06 3.06 0 0 0-.37-4.3l-36.99-31.12-5.46-6.97c-24.05-30.66-74.09-94.47-94.54-128.87l-1.28-2.14c-28.89-48.43-78.56-135.39-89.2-177.7 30.59-6.04 56.79-18.13 84.44-30.96l7.62-3.53c7.88-3.64 27.04-12.92 40.7-23.08 1.11.66 2.38 1.04 3.67 1.04s2.64-.36 3.83-1.1l38.4-24.27a7.1 7.1 0 0 0 3.25-7.26 447 447 0 0 1 22.28-16.77c9.31-6.69 17.94-12.9 26.15-20.44l.14-.13a135 135 0 0 0 19.14-21.82c17.62 15.61 29.92 34.26 42.87 54a660 660 0 0 0 16.36 24.15c19.21 26.7 41.4 51.63 62.86 75.75 17.35 19.5 35.29 39.67 51.5 60.6q7.03 9.11 13.7 18.43c17.72 24.63 33.95 50.47 51.34 78.64zm-28.95-56.97a868 868 0 0 0-16.32-23.69L1216.2 724.8l48.11 27.78-22.74 40.51-13.39-7.73a3.06 3.06 0 0 0-4.17 1.12l-10.18 17.63a3.04 3.04 0 0 0 1.12 4.16l13.67 7.9-92.54 164.87-15.66-9.04a3.06 3.06 0 0 0-4.16 1.12l-10.18 17.63a3.06 3.06 0 0 0 1.12 4.17l15.94 9.2-17.43 31.06zm180.26-209.22-7.13 12.35-29.25-16.89 7.13-12.35zM1149.26 995.7l-7.13 12.35-29.25-16.89 7.13-12.35zm-20.85 11.47 13.31 7.68a3.04 3.04 0 0 0 4.16-1.1l10.18-17.64a3.06 3.06 0 0 0-1.12-4.16l-13.59-7.85 92.54-164.88 15.58 9a3.04 3.04 0 0 0 4.16-1.12l10.18-17.63a3.06 3.06 0 0 0-1.12-4.17l-15.85-9.15 22.73-40.5 60.88 35.14c.81.46 1.38 1.21 1.62 2.11s.12 1.84-.35 2.64L1173 1070.45a3.5 3.5 0 0 1-4.75 1.28l-57.32-33.48 17.45-31.09z" class="uuid-bafaafb5-6cab-43f2-98f0-01f2b4a20e8a"/></svg>