<svg xmlns="http://www.w3.org/2000/svg" id="uuid-36ac8c6c-a286-4344-a886-6a3481f8be6f" data-name="&amp;lt;Layer&amp;gt;" viewBox="0 0 1888.97 1445.42"><defs id="defs1"><style id="style1">.uuid-8b088091-945f-4c67-8b59-e9e7ffd33f1c {
        fill: var(--color-character-clothing-2, #76bdb1);
      }

      .uuid-8b088091-945f-4c67-8b59-e9e7ffd33f1c, .uuid-107b909f-48e6-4008-94b7-2c9d48ef897d, .uuid-9474372d-c264-4031-a36a-b2c1a90c78a0, .uuid-c9b92a13-76d1-4ae0-b8ef-8379b55cc89d, .uuid-5ac6e0be-c5e2-4a57-a8d8-3280d5af1341, .uuid-15500986-3fc1-4b1b-85c1-70a65a3ad18e, .uuid-6a2d0c67-013f-4b94-af9e-23d90189e9ac, .uuid-ce50706e-ed87-4ece-8f1c-6a562e708d3f, .uuid-9fe6b0d9-77d6-434d-80ea-aeec610da304, .uuid-74e5f61a-59d3-4f84-855d-53178b7670e5, .uuid-683db2d4-9a45-4bbe-8b97-732070673177 {
        stroke-width: 0px;
      }

      .uuid-107b909f-48e6-4008-94b7-2c9d48ef897d {
        fill: #755e60;
      }

      .uuid-9474372d-c264-4031-a36a-b2c1a90c78a0, .uuid-6a2d0c67-013f-4b94-af9e-23d90189e9ac {
        fill: var(--color-character-man-skin, #ffddc0);
      }

      .uuid-c9b92a13-76d1-4ae0-b8ef-8379b55cc89d, .uuid-5ac6e0be-c5e2-4a57-a8d8-3280d5af1341 {
        fill: #571519;
      }

      .uuid-5ac6e0be-c5e2-4a57-a8d8-3280d5af1341, .uuid-15500986-3fc1-4b1b-85c1-70a65a3ad18e, .uuid-6a2d0c67-013f-4b94-af9e-23d90189e9ac {
        fill-rule: evenodd;
      }

      .uuid-15500986-3fc1-4b1b-85c1-70a65a3ad18e {
        fill: color-mix(in srgb, var(--color-character-man-hair, #393127) 8%, #fff);
      }

      .uuid-ce50706e-ed87-4ece-8f1c-6a562e708d3f {
        fill: #d2d3cd;
      }

      .uuid-9fe6b0d9-77d6-434d-80ea-aeec610da304 {
        fill: #90937f;
      }

      .uuid-74e5f61a-59d3-4f84-855d-53178b7670e5 {
        fill: #a7aa9b;
      }

      .uuid-683db2d4-9a45-4bbe-8b97-732070673177 {
        fill: #fdf5ed;
      }</style></defs><g id="g101" transform="translate(-428 -384.588)"><path id="path6" d="M1966.65 1477.72s-115.9 54.34-85.13 117.57c30.76 63.22 95.26-58 95.26-58 20.21-33.57 3.42-61.42-10.13-59.56z" class="uuid-9474372d-c264-4031-a36a-b2c1a90c78a0"/><path id="path7" d="M1598.35 1449.51h-456.92c-34.53-1.76-170.86-4.05-183.06 25.58l35.79 224.28 863.57-38.92-67.25-185.36c-12.21-29.63-157.59-27.34-192.12-25.58z" class="uuid-8b088091-945f-4c67-8b59-e9e7ffd33f1c"/><path id="path8" d="M1560.72 1432.46h-381.67c-27.39 9.18-38.58 2.32-37.56 29.66s18.75 94.43 18.75 94.43h419.29s17.73-67.09 18.75-94.43-10.17-20.48-37.56-29.66" class="uuid-683db2d4-9a45-4bbe-8b97-732070673177"/><path id="path9" d="M974.4 1508.84c-16.43 0-29.75 15.57-29.75 34.78s13.32 34.78 29.75 34.78 29.75-15.58 29.75-34.78-13.32-34.78-29.75-34.78" class="uuid-9474372d-c264-4031-a36a-b2c1a90c78a0"/><g id="g43"><path id="path10" d="M1603.99 984.34c-15.04-23.81-31.33-43.87-71.44-65.18-38.86-20.05-82.72-12.53-104.03-30.08-32.59-26.32-51.39-18.8-86.48-18.8-37.6 0-107.79 33.84-146.64 67.68-33.84 27.58-65.17 77.71-77.71 106.54-10.03 28.83-16.29 48.88-15.04 101.52 2.51 51.39 26.32 146.64 42.62 154.17 57.65 27.57 166.7-72.7 210.56-72.7 36.35 0 105.28 76.46 166.7 91.5 36.35 8.77 82.72-38.86 82.72-38.86s22.56-76.45 28.83-112.8-5.01-120.32-5.01-120.32-10.03-38.85-25.07-62.67z" class="uuid-15500986-3fc1-4b1b-85c1-70a65a3ad18e" style="display:inline"/><path id="path11" d="M1595.22 1268.86s-31.33 33.84-45.12 27.58c-2.51-1.25 8.77-50.13 3.76-73.95-6.27-31.33-28.83-41.36-28.83-55.15 0-2.5-47.63-5.01-73.95-26.32-25.07-21.31-27.58-60.16-62.67-72.7-23.81-8.77-63.92-1.25-81.47 1.25-41.36 5.01-51.39 37.6-66.43 61.41-10.03 16.29-28.83 38.85-28.83 38.85l-25.07 45.12s-10.03 26.32-10.03 43.87 7.52 33.84 7.52 33.84l-38.85-22.56s-46.37 7.52-31.33 63.92c12.53 51.39 61.41 57.66 61.41 57.66s11.28 47.63 25.07 81.47c13.79 32.59 30.08 55.15 30.08 55.15s8.77 100.27-15.04 124.08c-21.31 22.56 315.85 20.06 300.8 1.26-18.8-23.81-8.77-116.56-8.77-116.56s23.81-33.84 38.85-70.19 21.31-73.95 21.31-73.95 56.4-26.32 62.67-57.66c12.53-68.93-35.09-66.43-35.09-66.43z" class="uuid-6a2d0c67-013f-4b94-af9e-23d90189e9ac" style="display:inline"/><path id="path12" d="M1373.57 1598.66c-.41-.01-41.78-1.96-100.64-45.21-40.14-29.19-53.25-59.15-61.97-79.09-15.92-34.48-25.96-82.22-32.13-115.13a6.1 6.1 0 1 0-11.99 2.25c6.29 33.55 16.56 82.28 32.99 117.89 8.64 19.76 23.11 52.82 65.9 83.94 62.23 45.72 105.64 47.5 107.46 47.55h.18a6.1 6.1 0 0 0 .2-12.19z" class="uuid-c9b92a13-76d1-4ae0-b8ef-8379b55cc89d" style="display:inline;fill:#000000;fill-opacity:1"/><path id="path13" d="M1356.24 1355.96c5.92-5.23 14.03-12.38 15.65-28.58 1.22-8.54-.36-20.86-5.13-39.94a6.1 6.1 0 1 0-11.84 2.96c4.25 17.01 5.85 28.54 4.86 35.51-1.17 11.69-6.24 16.17-11.61 20.91-4.78 4.22-10.2 9.01-10.96 18.12-1.51 21.11 24.48 36.41 25.59 37.05a6.1 6.1 0 0 0 8.34-2.22 6.1 6.1 0 0 0-2.22-8.33c-.2-.12-20.49-12.25-19.54-25.55.33-3.98 2.46-6.02 6.87-9.91z" class="uuid-c9b92a13-76d1-4ae0-b8ef-8379b55cc89d" style="display:inline;fill:#000000;fill-opacity:1"/><path id="path14" d="M1273.1 1283.9c-10.03 1.25-17.55 12.53-17.55 26.32 1.25 13.79 10.03 17.55 18.8 17.55 10.03-1.25 17.55-5.01 17.55-18.8 0-15.04-8.77-25.07-18.8-25.07" class="uuid-5ac6e0be-c5e2-4a57-a8d8-3280d5af1341" style="display:inline;fill:#000000;fill-opacity:1"/><path id="path15" d="M1179.09 1384.46c-36.35-7.52-53.91-35.83-57.9-57.78-3.34-18.35-2.1-30.6 3.9-38.53 5.13-6.79 13.97-10.7 27.04-11.96a6.1 6.1 0 1 0-1.18-12.14c-16.42 1.59-28.39 7.22-35.59 16.75-10.77 14.25-8.68 34.26-6.17 48.06 6.15 33.83 32.62 60.35 67.43 67.55q.63.12 1.24.12a6.1 6.1 0 0 0 1.23-12.07" class="uuid-c9b92a13-76d1-4ae0-b8ef-8379b55cc89d" style="display:inline;fill:#000000;fill-opacity:1"/><path id="path16" d="M1582.68 1261.63a6.1 6.1 0 1 0 2.52 11.94c15.2-3.19 26.48-1.37 33.53 5.45 8.43 8.14 11.46 24.57 8.09 43.89a72.9 72.9 0 0 1-57.9 57.79 6.1 6.1 0 0 0 2.47 11.95c34.81-7.2 61.28-33.72 67.44-67.6 1.95-11.22 4.72-39.02-11.63-54.81-10.15-9.8-25.13-12.69-44.52-8.6z" class="uuid-c9b92a13-76d1-4ae0-b8ef-8379b55cc89d" style="display:inline;fill:#000000;fill-opacity:1"/><path id="path17" d="M1150.5 1307.26a6.1 6.1 0 1 0-5.45 10.91c4.21 2.11 9.1 8.82 11.18 12.55a6.12 6.12 0 0 0 10.67-5.93c-.74-1.32-7.44-13.06-16.39-17.53z" class="uuid-c9b92a13-76d1-4ae0-b8ef-8379b55cc89d" style="display:inline;fill:#000000;fill-opacity:1"/><path id="path18" d="M1600.01 1303.51c-8.95 4.47-15.65 16.21-16.39 17.53a6.1 6.1 0 0 0 10.66 5.93c2.09-3.74 6.97-10.45 11.18-12.55a6.1 6.1 0 1 0-5.46-10.91z" class="uuid-c9b92a13-76d1-4ae0-b8ef-8379b55cc89d" style="display:inline;fill:#000000;fill-opacity:1"/><path id="path19" d="M1301.11 1289.31c-30.91-11.79-58.37-1.88-59.52-1.46a6.1 6.1 0 1 0 4.24 11.44c.24-.09 24.26-8.76 50.93 1.42a6.1 6.1 0 0 0 7.87-3.53 6.1 6.1 0 0 0-3.52-7.87" class="uuid-c9b92a13-76d1-4ae0-b8ef-8379b55cc89d" style="display:inline;fill:#000000;fill-opacity:1"/><path id="path20" d="M1493.39 1287.85c-1.15-.43-28.61-10.34-59.52 1.46a6.1 6.1 0 0 0 4.35 11.4c26.48-10.1 50.71-1.5 50.95-1.41a6.1 6.1 0 0 0 4.23-11.44z" class="uuid-c9b92a13-76d1-4ae0-b8ef-8379b55cc89d" style="display:inline;fill:#000000;fill-opacity:1"/><path id="path21" d="M1313 1466.76a6.1 6.1 0 0 0 7.56 9.57c2.03-1.59 50.39-38.51 102.04 5.62a6.09 6.09 0 1 0 7.92-9.28c-59.39-50.75-116.95-6.38-117.52-5.92z" class="uuid-c9b92a13-76d1-4ae0-b8ef-8379b55cc89d" style="display:inline;fill:#000000;fill-opacity:1"/><path id="path22" d="M1576.29 1354.35a6.1 6.1 0 0 0-7.12 4.87c-6.17 32.91-16.21 80.65-32.18 115.24-7.65 17.47-26.67 51.29-68.21 81.5-58.36 42.88-93.5 42.68-93.97 42.68a6.1 6.1 0 0 0-.38 12.2h.53c4.98 0 41.87-1.57 101.03-45.04 43.85-31.88 64.05-67.86 72.14-86.35 16.49-35.71 26.76-84.45 33.05-118a6.1 6.1 0 0 0-4.87-7.12z" class="uuid-c9b92a13-76d1-4ae0-b8ef-8379b55cc89d" style="display:inline;fill:#000000;fill-opacity:1"/><path id="path23" d="M1462.36 1283.9c-10.03 0-18.8 10.03-18.8 25.07 0 13.79 7.52 17.55 17.55 18.8 8.78 0 17.55-3.76 18.8-17.55 0-13.79-7.52-25.07-17.55-26.32" class="uuid-5ac6e0be-c5e2-4a57-a8d8-3280d5af1341" style="display:inline;fill:#000000;fill-opacity:1"/><path id="path24" d="M1499.23 1236.19c-28.6-8.72-53.99-.69-72.53 5.17-19.04 6.02-24.58 6.78-27.31.73a6.1 6.1 0 0 0-11.13 5.01c3.84 8.52 10.03 11.36 17.53 11.36s15.82-2.69 24.58-5.46c17.97-5.68 40.33-12.74 65.31-5.14a6.1 6.1 0 0 0 3.55-11.67" class="uuid-c9b92a13-76d1-4ae0-b8ef-8379b55cc89d" style="display:inline;fill:#000000;fill-opacity:1"/><path id="path25" d="M1340.22 1239.03a6.1 6.1 0 0 0-8.07 3.06c-2.73 6.05-8.27 5.29-27.31-.73-18.54-5.86-43.93-13.88-72.53-5.17a6.1 6.1 0 0 0 3.55 11.67c24.98-7.6 47.34-.54 65.31 5.14 8.76 2.77 17.28 5.46 24.58 5.46s13.7-2.84 17.53-11.36a6.1 6.1 0 0 0-3.06-8.07" class="uuid-c9b92a13-76d1-4ae0-b8ef-8379b55cc89d" style="display:inline;fill:#000000;fill-opacity:1"/><path id="path26" d="M1233.78 1519.71a6.1 6.1 0 0 0-5.61 6.55c.05.64 4.86 64.69-2.39 98.52a6.1 6.1 0 1 0 11.93 2.55c7.62-35.55 2.83-99.32 2.62-102.01a6.1 6.1 0 0 0-6.55-5.61" class="uuid-c9b92a13-76d1-4ae0-b8ef-8379b55cc89d" style="display:inline;fill:#000000;fill-opacity:1"/><path id="path27" d="M1514.82 1532.53a6.1 6.1 0 1 0-12.16-.93c-.21 2.7-4.99 66.46 2.62 102.01a6.1 6.1 0 0 0 11.93-2.55c-7.25-33.82-2.44-97.88-2.39-98.52z" class="uuid-c9b92a13-76d1-4ae0-b8ef-8379b55cc89d" style="display:inline;fill:#000000;fill-opacity:1"/><path id="path28" d="M1498.35 908.12a6.1 6.1 0 1 0-1.79 12.06c74.52 10.99 119.75 83.71 130.24 146.66 12.42 72.04-4.15 139.83-17.46 194.29a6.1 6.1 0 1 0 11.85 2.9c13.58-55.56 30.49-124.72 17.64-199.23-11.19-67.13-59.93-144.8-140.49-156.69Z" class="uuid-c9b92a13-76d1-4ae0-b8ef-8379b55cc89d" style="display:inline;fill:#000000;fill-opacity:1"/><path id="path29" d="M1328.68 868c-56.07 7.64-161.22 60.95-208.87 151.1-49.53 93.98 1.19 247.71 3.37 254.2a6.1 6.1 0 0 0 11.56-3.88c-.52-1.54-51.26-155.23-4.15-244.63 45.65-86.36 146.17-137.4 199.65-144.69 68.11-8.37 120.88 8.56 131.3 42.13a6.1 6.1 0 1 0 11.65-3.61c-12.22-39.39-70.26-59.73-144.52-50.61z" class="uuid-c9b92a13-76d1-4ae0-b8ef-8379b55cc89d" style="display:inline;fill:#000000;fill-opacity:1"/><path id="path30" d="M1478.88 1146.84c-26.86-13.43-44.17-31.12-63.87-65.27l-.2-.34c-9-15-27.72-46.2-51.07-46.39h-.21c-11.33 0-21.56 7.23-30.42 21.48a6.1 6.1 0 1 0 10.36 6.44c6.49-10.43 13.24-15.72 20.07-15.72h.1c16.51.13 34.09 29.43 40.8 40.62 17.82 30.89 35.58 53.38 68.99 70.09q1.34.65 2.72.64a6.09 6.09 0 0 0 2.73-11.55" class="uuid-c9b92a13-76d1-4ae0-b8ef-8379b55cc89d" style="display:inline;fill:#000000;fill-opacity:1"/><path id="path31" d="M1590.56 1232.69a6.1 6.1 0 0 0-6.45 5.73c-1.3 22.19-11.35 35.71-19.73 43.23 3.67-21.9 6.03-63.54-17.91-101.29a6.1 6.1 0 1 0-10.3 6.53c30.63 48.29 13.3 105.89 13.12 106.46a6.1 6.1 0 0 0 8.2 7.44c1.47-.62 36.11-15.79 38.8-61.66a6.1 6.1 0 0 0-5.73-6.45z" class="uuid-c9b92a13-76d1-4ae0-b8ef-8379b55cc89d" style="display:inline;fill:#000000;fill-opacity:1"/><path id="path32" d="M1295.56 1062.37c-27.41 6.28-37.76 25.59-48.71 46.04-15.08 28.15-30.67 57.25-94.6 62.87a6.1 6.1 0 0 0 .53 12.18l.54-.02c70.5-6.2 89.23-41.17 104.28-69.26 10.44-19.48 18.68-34.87 40.68-39.91a6.1 6.1 0 1 0-2.73-11.89z" class="uuid-c9b92a13-76d1-4ae0-b8ef-8379b55cc89d" style="display:inline;fill:#000000;fill-opacity:1"/><path id="path33" d="M1203.68 1182.23a6.1 6.1 0 0 0-8.42 1.89c-23.93 37.74-21.58 79.39-17.91 101.29-8.39-7.53-18.43-21.05-19.73-43.23a6.05 6.05 0 0 0-6.45-5.73 6.1 6.1 0 0 0-5.73 6.45c2.7 45.87 37.33 61.04 38.81 61.66q1.16.49 2.37.48a6.08 6.08 0 0 0 5.83-7.91c-.18-.58-17.51-58.18 13.11-106.47a6.1 6.1 0 0 0-1.88-8.42z" class="uuid-c9b92a13-76d1-4ae0-b8ef-8379b55cc89d" style="display:inline;fill:#000000;fill-opacity:1"/><path id="path34" d="M1379.68 1231.41a6.1 6.1 0 0 0-12.07-1.77c-.12.8-1.08 8.1 2.36 18.58a6.1 6.1 0 1 0 11.6-3.81c-2.49-7.59-1.91-12.79-1.88-13.01z" class="uuid-c9b92a13-76d1-4ae0-b8ef-8379b55cc89d" style="display:inline;fill:#000000;fill-opacity:1"/><path id="path35" d="M1414.17 1176.66c-11.67-8.36-20.85-5.33-28.23-2.87-6.75 2.23-12.08 3.99-20.79-.75-11.69-6.36-21.09-4.33-29.4-2.54-5.76 1.24-11.2 2.41-17.59.92a6.1 6.1 0 0 0-2.78 11.88c9.06 2.12 16.43.53 22.94-.87 7.42-1.61 13.29-2.87 20.99 1.33 6.18 3.36 11.53 4.5 16.25 4.5 5.48 0 10.11-1.53 14.2-2.89 6.65-2.2 10.66-3.54 17.28 1.21a6.1 6.1 0 0 0 7.1-9.92z" class="uuid-c9b92a13-76d1-4ae0-b8ef-8379b55cc89d" style="display:inline;fill:#000000;fill-opacity:1"/><path id="path36" d="M1399.42 1149.78c-10.14-6.53-17.19-3.91-22.34-2-3.81 1.42-6.56 2.44-11.38.76-10.62-3.7-19.81-2.67-24.75-2.13l-1.08.12a6.1 6.1 0 0 0-8.26 5.8 6.8 6.8 0 0 0 2.19 4.74c2.42 2.13 5.23 1.82 8.5 1.45 4.26-.47 11.38-1.26 19.39 1.53a26 26 0 0 0 8.67 1.55c4.53 0 8.09-1.32 10.97-2.39 4.45-1.65 6.48-2.41 11.48.82a6.1 6.1 0 1 0 6.6-10.26z" class="uuid-c9b92a13-76d1-4ae0-b8ef-8379b55cc89d" style="display:inline;fill:#000000;fill-opacity:1"/><path id="path37" d="m1535.11 1299.78-18 2.29a6.1 6.1 0 0 0 1.54 12.1l18-2.29a6.1 6.1 0 0 0-1.54-12.1" class="uuid-c9b92a13-76d1-4ae0-b8ef-8379b55cc89d" style="display:inline;fill:#000000;fill-opacity:1"/><path id="path38" d="m1542.68 1320.36-27.32-6.24a6.1 6.1 0 1 0-2.72 11.9l27.32 6.24q.69.15 1.36.15a6.1 6.1 0 0 0 1.35-12.05z" class="uuid-c9b92a13-76d1-4ae0-b8ef-8379b55cc89d" style="display:inline;fill:#000000;fill-opacity:1"/><path id="path39" d="m1224.62 1302.06-18-2.29a6.1 6.1 0 0 0-1.54 12.1l18 2.29q.39.05.78.05a6.1 6.1 0 0 0 .76-12.15" class="uuid-c9b92a13-76d1-4ae0-b8ef-8379b55cc89d" style="display:inline;fill:#000000;fill-opacity:1"/><path id="path40" d="m1226.37 1314.12-27.32 6.24a6.1 6.1 0 0 0 2.71 11.9l27.32-6.24a6.1 6.1 0 0 0-2.71-11.9" class="uuid-c9b92a13-76d1-4ae0-b8ef-8379b55cc89d" style="display:inline;fill:#000000;fill-opacity:1"/><path id="path41" d="M1426.43 1424.29a6.11 6.11 0 0 0-11.01 5.27c7.19 15.01 14.9 23.74 20.53 30.12 8.5 9.61 11.67 13.21 6.9 28.66a6.1 6.1 0 0 0 11.66 3.6c6.79-21.99-.37-30.09-9.42-40.34-5.44-6.16-12.21-13.83-18.68-27.31z" class="uuid-c9b92a13-76d1-4ae0-b8ef-8379b55cc89d" style="display:inline;fill:#000000;fill-opacity:1"/><path id="path42" d="M1317.17 1421.43a6.1 6.1 0 0 0-8.14 2.87c-6.46 13.48-13.23 21.15-18.68 27.31-9.05 10.25-16.2 18.34-9.42 40.34a6.1 6.1 0 0 0 11.66-3.6c-4.77-15.45-1.59-19.05 6.9-28.66 5.63-6.38 13.34-15.1 20.53-30.12a6.1 6.1 0 0 0-2.87-8.14z" class="uuid-c9b92a13-76d1-4ae0-b8ef-8379b55cc89d" style="display:inline;fill:#000000;fill-opacity:1"/><path id="path43" d="M1559.62 1168.73c-53.07-4.28-85.36-51.04-85.68-51.51a6.1 6.1 0 1 0-10.11 6.83c1.43 2.13 35.78 52.08 94.81 56.84q.25.03.5.02a6.1 6.1 0 0 0 .48-12.18" class="uuid-c9b92a13-76d1-4ae0-b8ef-8379b55cc89d" style="display:inline;fill:#000000;fill-opacity:1"/></g><path id="path44" d="M1898.42 1436.94h-40.69c-25.18 3.43-38.92 5.72-49.6 16.02s-23.94 32.83-14.54 54.49c13.63 31.42 36.69 31.39 36.69 31.39H1913s29.72-24.21 43.93-39.72c9.46-10.33 17.56-43.37 6.1-56.46-10.68-12.21-40.37-12.59-64.6-5.72z" class="uuid-9474372d-c264-4031-a36a-b2c1a90c78a0"/><path id="rect44" d="M1857.73 949.37h37.57v633.58h-37.57z" class="uuid-107b909f-48e6-4008-94b7-2c9d48ef897d" style="display:inline"/><path id="path45" d="M1895.3 943.27h-37.57a6.1 6.1 0 0 0-6.1 6.1v633.58a6.1 6.1 0 0 0 6.1 6.1h37.57a6.1 6.1 0 0 0 6.1-6.1V949.37a6.1 6.1 0 0 0-6.1-6.1m-6.1 633.57h-25.37V955.47h25.37z" class="uuid-c9b92a13-76d1-4ae0-b8ef-8379b55cc89d" style="fill:#000000;fill-opacity:1"/><path id="path46" d="M1850.75 1540.31c6.96 40.17 65.86 1.75 75.1-9.28s34.34-36.47 34.34-36.47l-52.64-32.45s-63.76 38.02-56.8 78.19z" class="uuid-9474372d-c264-4031-a36a-b2c1a90c78a0"/><path id="path47" d="M1896.76 1431.07a6.1 6.1 0 0 0 3.32 11.74c24.29-6.88 50.46-5.15 58.35 3.87 8.6 9.83 2.36 39.18-6.01 48.33-13.74 14.99-42.99 38.86-43.28 39.1a6.1 6.1 0 1 0 7.7 9.46c1.23-1 30.23-24.66 44.57-40.32 10.84-11.84 20.36-48.42 6.2-64.6-13.32-15.23-46.07-14.6-70.86-7.57z" class="uuid-c9b92a13-76d1-4ae0-b8ef-8379b55cc89d" style="fill:#000000;fill-opacity:1"/><path id="path48" d="M1908.11 1457.67c-.41.36-1.41 1.11-2.84 2.21-42.73 32.71-62.51 58.72-60.48 79.52a6.1 6.1 0 0 0 6.06 5.51q.3 0 .6-.03a6.1 6.1 0 0 0 5.48-6.66c-1.08-11.02 7.73-31.87 55.76-68.65a46 46 0 0 0 3.91-3.13 6.2 6.2 0 0 0 .07-8.69 6 6 0 0 0-8.56-.07z" class="uuid-c9b92a13-76d1-4ae0-b8ef-8379b55cc89d" style="fill:#000000;fill-opacity:1"/><path id="path49" d="M1965.81 1471.67a6.1 6.1 0 1 0 1.67 12.08c2.36-.33 5.57 1.92 7.99 5.58 5.56 8.43 7.87 25.22-3.92 44.79a6.1 6.1 0 0 0 10.45 6.29c14.69-24.41 11.52-45.86 3.65-57.8-5.17-7.85-12.57-11.94-19.83-10.95z" class="uuid-c9b92a13-76d1-4ae0-b8ef-8379b55cc89d" style="fill:#000000;fill-opacity:1"/><path id="path50" d="M1856.9 1430.9c-25.8 3.52-40.98 6.07-53.01 17.67-11.13 10.73-27 35.73-15.91 61.31 15.03 34.64 41.1 35.07 42.29 35.07 3.34 0 6.02-2.7 6.05-6.04a6.13 6.13 0 0 0-6-6.16c-.79-.01-19.44-.72-31.15-27.72-8.46-19.5 4.93-39.71 13.18-47.67 9.31-8.98 22.24-11.1 46.19-14.37a6.1 6.1 0 0 0-1.65-12.09z" class="uuid-c9b92a13-76d1-4ae0-b8ef-8379b55cc89d" style="fill:#000000;fill-opacity:1"/><path id="path51" d="M1847.24 1479.29a6.11 6.11 0 0 0-10.31 6.53c.11.18 11.36 17.94 17.92 29.25a6.1 6.1 0 1 0 10.55-6.13c-6.68-11.51-18.05-29.47-18.16-29.66z" class="uuid-c9b92a13-76d1-4ae0-b8ef-8379b55cc89d" style="fill:#000000;fill-opacity:1"/><g id="g63"><path id="path52" d="M1505.82 495.34q-6.08-9.9-12.08-19.38a6.1 6.1 0 1 0-10.31 6.53q6.1 9.63 12.28 19.7.29.48.67.89c2.15 2.39 216.58 241.03 322.53 396.95a6.1 6.1 0 0 0 8.47 1.62 6.1 6.1 0 0 0 1.62-8.47c-104.31-153.51-312.93-386.43-323.17-397.84Z" class="uuid-c9b92a13-76d1-4ae0-b8ef-8379b55cc89d" style="fill:#000000;fill-opacity:1"/><path id="path53" d="M1571.77 469.9a4079 4079 0 0 0-10.22-22.7 6.1 6.1 0 1 0-11.11 5.05q5.22 11.5 10.49 23.31.31.7.77 1.28c94.92 121.06 192.11 289.51 266.19 422.73a6.1 6.1 0 1 0 10.67-5.92c-110.12-198.06-192.43-328.8-266.78-423.73z" class="uuid-c9b92a13-76d1-4ae0-b8ef-8379b55cc89d" style="fill:#000000;fill-opacity:1"/><path id="path54" d="M1639.18 449.93q-4.15-12.94-8.28-25.7a6.09 6.09 0 1 0-11.6 3.75q4.21 13 8.43 26.19.17.52.43 1.02c59.7 111.54 126.02 252.57 208.73 443.81a6.1 6.1 0 0 0 11.2-4.84c-82.72-191.28-149.12-332.46-208.91-444.23" class="uuid-c9b92a13-76d1-4ae0-b8ef-8379b55cc89d" style="fill:#000000;fill-opacity:1"/><path id="path55" d="m1707.59 435.1-6.09-28a6.1 6.1 0 0 0-11.92 2.6q3.1 14.13 6.17 28.35.07.37.21.73c44.54 126.77 93.6 277.1 149.98 459.6a6.1 6.1 0 0 0 11.67-3.6c-56.37-182.48-105.44-332.84-150-459.68z" class="uuid-c9b92a13-76d1-4ae0-b8ef-8379b55cc89d" style="fill:#000000;fill-opacity:1"/><path id="path56" d="m1776.71 425.4-3.73-29.57a6.1 6.1 0 0 0-12.11 1.53l3.76 29.79.07.43c28.76 143.56 58.31 297.33 90.33 470.1a6.1 6.1 0 1 0 12-2.22c-32.02-172.75-61.57-326.5-90.33-470.06z" class="uuid-c9b92a13-76d1-4ae0-b8ef-8379b55cc89d" style="fill:#000000;fill-opacity:1"/><path id="path57" d="M1844.97 390.44a6.04 6.04 0 0 0-6.35-5.84 6.1 6.1 0 0 0-5.84 6.35l1.27 30.65c10.17 155.93 20.32 315.86 30.17 475.36a6.1 6.1 0 0 0 6.08 5.72l.38-.01a6.1 6.1 0 0 0 5.71-6.46c-9.85-159.51-20-319.45-30.16-475.25l-1.27-30.51z" class="uuid-c9b92a13-76d1-4ae0-b8ef-8379b55cc89d" style="fill:#000000;fill-opacity:1"/><path id="path58" d="M1911.27 384.6a6 6 0 0 0-6.35 5.84l-1.26 30.36c-10.15 155.64-20.3 315.59-30.17 475.4a6.1 6.1 0 0 0 5.71 6.46l.38.01a6.1 6.1 0 0 0 6.08-5.72c9.87-159.8 20.03-319.73 30.18-475.5l1.27-30.51a6.1 6.1 0 0 0-5.84-6.35z" class="uuid-c9b92a13-76d1-4ae0-b8ef-8379b55cc89d" style="fill:#000000;fill-opacity:1"/><path id="path59" d="M1983.74 390.54a6.13 6.13 0 0 0-6.82 5.29l-3.73 29.57c-28.76 143.56-58.3 297.32-90.33 470.06a6.1 6.1 0 0 0 12 2.22c32.02-172.77 61.57-326.55 90.34-470.1l.07-.43 3.76-29.79a6.1 6.1 0 0 0-5.29-6.82" class="uuid-c9b92a13-76d1-4ae0-b8ef-8379b55cc89d" style="fill:#000000;fill-opacity:1"/><path id="path60" d="M2055.66 402.44a6.1 6.1 0 0 0-7.26 4.66l-6.09 28c-44.57 126.85-93.63 277.22-150 459.69a6.1 6.1 0 1 0 11.67 3.6c56.37-182.48 105.43-332.82 149.98-459.6q.12-.36.21-.73l6.17-28.35a6.1 6.1 0 0 0-4.66-7.26z" class="uuid-c9b92a13-76d1-4ae0-b8ef-8379b55cc89d" style="fill:#000000;fill-opacity:1"/><path id="path61" d="M2126.67 420.3a6.1 6.1 0 0 0-7.68 3.92q-4.14 12.76-8.28 25.71c-59.79 111.77-126.18 252.95-208.91 444.23A6.1 6.1 0 0 0 1913 899c82.71-191.24 149.03-332.27 208.73-443.81q.26-.5.43-1.02 4.22-13.19 8.43-26.19a6.1 6.1 0 0 0-3.92-7.68" class="uuid-c9b92a13-76d1-4ae0-b8ef-8379b55cc89d" style="fill:#000000;fill-opacity:1"/><path id="path62" d="M2196.43 444.16a6.1 6.1 0 0 0-8.08 3.03q-5.1 11.2-10.23 22.7c-74.36 94.95-156.67 225.69-266.78 423.73a6.1 6.1 0 0 0 5.33 9.06 6.1 6.1 0 0 0 5.34-3.14c110.02-197.88 192.11-328.25 266.19-422.73q.47-.59.77-1.28 5.26-11.8 10.49-23.31a6.1 6.1 0 0 0-3.03-8.08z" class="uuid-c9b92a13-76d1-4ae0-b8ef-8379b55cc89d" style="fill:#000000;fill-opacity:1"/><path id="path63" d="M2264.57 474.08a6.1 6.1 0 0 0-8.42 1.89q-6 9.48-12.08 19.38c-10.24 11.41-218.86 244.32-323.17 397.84a6.1 6.1 0 1 0 10.09 6.85c105.95-155.92 320.37-394.56 322.52-396.95q.37-.41.67-.89 6.18-10.07 12.28-19.7a6.1 6.1 0 0 0-1.89-8.42" class="uuid-c9b92a13-76d1-4ae0-b8ef-8379b55cc89d" style="fill:#000000;fill-opacity:1"/></g><path id="path64" d="M1177.12 1426.68c-6.62 2.22-12.19 3.44-17.1 4.53-16.33 3.59-25.52 6.81-24.62 31.14 1.03 27.7 18.22 93 18.95 95.76a6.09 6.09 0 1 0 11.79-3.12c-.18-.66-17.57-66.75-18.55-93.1-.57-15.34.91-15.67 15.05-18.78a169 169 0 0 0 18.36-4.87 6.1 6.1 0 0 0-3.87-11.57z" class="uuid-c9b92a13-76d1-4ae0-b8ef-8379b55cc89d" style="fill:#000000;fill-opacity:1"/><path id="path65" d="M1141.74 1443.42c-17.73-.91-173.72-7.78-189.02 29.35a6.1 6.1 0 1 0 11.28 4.64c8.5-20.61 110.71-25.2 177.11-21.81a6.1 6.1 0 0 0 .62-12.18z" class="uuid-c9b92a13-76d1-4ae0-b8ef-8379b55cc89d" style="fill:#000000;fill-opacity:1"/><path id="path66" d="M1579.77 1431.2a156 156 0 0 1-17.11-4.53 6.1 6.1 0 0 0-3.88 11.57c7.24 2.42 13.4 3.78 18.36 4.87 14.14 3.11 15.62 3.44 15.04 18.78-.98 26.35-18.37 92.43-18.55 93.1a6.1 6.1 0 0 0 5.9 7.66 6.1 6.1 0 0 0 5.89-4.54c.73-2.76 17.92-68.07 18.95-95.76.91-24.33-8.29-27.55-24.62-31.14z" class="uuid-c9b92a13-76d1-4ae0-b8ef-8379b55cc89d" style="fill:#000000;fill-opacity:1"/><g id="g89"><path id="path67" d="M2158.42 1540.31s-4.94 70.18-15.31 72.26c-5.03 1.01-10.4-16.07-14.58-33.85-4.39-18.79-7.47-38.4-7.47-38.4h-157.47a12 12 0 0 0-5.92 7.99l-8.3 39.71-13.69-40.99a11.8 11.8 0 0 0-5.64-6.71h-814.23c-2.01 4.24-8.14 16.04-13.79 16.04s-15.92-11.8-19.4-16.04h-1.46c-1.13 6.62-6.13 33.03-13.48 32.24-7.32-.82-12.87-25.8-14.18-32.24h-40.57c-8.17 3.17-14.15 11.13-14.79 20.77l-5.82 202.06-3.23-200.45a23.9 23.9 0 0 0-15.59-22.39H695.37a23.9 23.9 0 0 0-15.56 20.77L668.82 1830h1642.07v-289.69z" class="uuid-74e5f61a-59d3-4f84-855d-53178b7670e5"/><path id="path68" d="M664.05 1562.7c0-10.25-6.5-19.03-15.62-22.39H434.11V1830h234.02z" class="uuid-74e5f61a-59d3-4f84-855d-53178b7670e5"/><g id="g83"><path id="path69" d="M650.57 1534.6a30 30 0 0 0-10.44-1.88H434.1a6.1 6.1 0 1 0 0 12.2h206.03q3.2 0 6.19 1.12a17.9 17.9 0 0 1 11.62 16.76l4.08 267.21h12.2l-4.08-267.3c0-12.5-7.88-23.8-19.57-28.1z" class="uuid-9fe6b0d9-77d6-434d-80ea-aeec610da304" style="fill:#000000;fill-opacity:1"/><path id="path70" d="M2310.88 1532.71h-149.39a9.1 9.1 0 0 0-9.11 8.33l-.28 3.37c-3.59 43.61-7.73 58.67-10.12 63.86-2.54-5.11-7.07-20.1-11.62-63.93l-.37-3.5a9.14 9.14 0 0 0-9.09-8.12h-16.03a30.04 30.04 0 0 0-30.01 30.01v195.85a6.1 6.1 0 1 0 12.2 0v-195.85c0-9.82 7.99-17.81 17.81-17.81h13.28l.07.68c6.61 63.65 13.6 76.37 23.44 76.82 10.37.44 17.25-11.98 22.59-77l.04-.49h146.58a6.1 6.1 0 1 0 0-12.2z" class="uuid-9fe6b0d9-77d6-434d-80ea-aeec610da304" style="fill:#000000;fill-opacity:1"/><path id="path71" d="M697.52 1546.02q2.94-1.1 6.15-1.1h261.51q3.23 0 6.21 1.11a17.9 17.9 0 0 1 11.6 16.77l3.23 200.45a6.11 6.11 0 0 0 12.2-.2l-3.23-200.35a30.06 30.06 0 0 0-30.01-29.98H703.67a30.1 30.1 0 0 0-29.95 28.12l-11 269.17h12.21l10.97-268.5a17.8 17.8 0 0 1 11.62-15.49" class="uuid-9fe6b0d9-77d6-434d-80ea-aeec610da304" style="display:inline;fill:#000000;fill-opacity:1"/><path id="path72" d="M1015.17 1545.98q2.71-1.07 5.69-1.07h27.38c7.13 32.39 15.53 33.33 18.79 33.7 3.33.36 11.56 1.24 17.99-26.46 6.76 6.84 12.46 10.3 17 10.3 6.31 0 12.48-5.91 18.33-17.54h149.64q2.97-.01 5.7 1.09c6.57 2.53 10.98 9.25 10.98 16.7v195.87a6.1 6.1 0 1 0 12.2 0V1562.7c0-12.46-7.55-23.74-18.72-28.05a27 27 0 0 0-10.16-1.93h-153.48a6.1 6.1 0 0 0-5.58 3.62q-.03.09-.64 1.35c-3.45 7.27-6.84 11.47-8.42 12.46-2.15-.84-7.68-5.35-14.51-13.68l-1.28-1.57a6.09 6.09 0 0 0-10.7 2.9l-.24 1.48c-2.27 13.34-5.25 22.13-7.29 25.81-2.24-3.59-5.62-12.43-8.41-26.14-.15-.66-.23-1.08-.24-1.14a6.1 6.1 0 0 0-6.02-5.1h-32.33c-3.52 0-6.94.65-10.14 1.91-10.56 4.1-17.89 14.33-18.68 26.28l-7.75 269.09h12.2l7.73-268.51c.47-7.02 4.75-13.1 10.94-15.5z" class="uuid-9fe6b0d9-77d6-434d-80ea-aeec610da304" style="fill:#000000;fill-opacity:1"/><path id="path73" d="M2069.65 1534.67a25 25 0 0 0-9.61-1.92l-75.95-.03a6.1 6.1 0 0 0-5.83 4.32l-1.04 3.35-2.48-4.51a6.1 6.1 0 0 0-5.34-3.16c-3.01 0-6.02.77-8.72 2.24a18 18 0 0 0-8.96 12.1l-3.68 17.64-6.54-19.58a18 18 0 0 0-8.49-10.14 18 18 0 0 0-8.66-2.22h-94.06q-5.01 0-9.65 1.94a27.4 27.4 0 0 0-13.39 12.45l-.09.17q-.65 1.3-.66 2.77a6.1 6.1 0 0 0 11.56 2.71 15 15 0 0 1 7.29-6.85q2.36-.99 4.94-.99h94.06q1.46 0 2.82.74c1.3.7 2.27 1.85 2.74 3.27l13.69 40.99a6.12 6.12 0 0 0 11.76-.68l8.3-39.72a5.8 5.8 0 0 1 2.62-3.74l7.13 12.97a6.1 6.1 0 0 0 11.17-1.11l4.01-12.75 71.46.03c1.68 0 3.35.34 4.92.98 5.93 2.5 9.91 9.24 9.91 16.8v267.27h12.2v-267.3c0-12.57-6.82-23.56-17.41-28.03z" class="uuid-9fe6b0d9-77d6-434d-80ea-aeec610da304" style="fill:#000000;fill-opacity:1"/><path id="path74" d="M1534.21 1532.71h-219.09c-13.73 0-25.18 12.32-26.08 28.34l-1.96 268.95h12.2l1.95-268.56c.53-9.27 6.63-16.53 13.9-16.53h219.09c7.68 0 13.93 7.99 13.93 17.81v267.29h12.2v-267.29c0-16.55-11.72-30.01-26.13-30.01z" class="uuid-9fe6b0d9-77d6-434d-80ea-aeec610da304" style="fill:#000000;fill-opacity:1"/><path id="path75" d="M1795.68 1532.71h-219.09c-13.73 0-25.18 12.32-26.08 28.31l-2.37 197.46a6.1 6.1 0 1 0 12.2.14l2.36-197.19c.52-9.27 6.63-16.53 13.89-16.53h219.09c7.68 0 13.93 7.99 13.93 17.81V1830h12.2v-267.29c0-16.55-11.72-30.01-26.13-30.01z" class="uuid-9fe6b0d9-77d6-434d-80ea-aeec610da304" style="fill:#000000;fill-opacity:1"/><path id="path76" d="M1199.5 1627.84a6.14 6.14 0 0 0-6.42 5.77c-.04.77-4.04 77.28.01 125.47a6.1 6.1 0 0 0 6.07 5.59l.52-.02a6.1 6.1 0 0 0 5.57-6.59c-3.99-47.35-.03-123.03.01-123.79a6.1 6.1 0 0 0-5.77-6.42z" class="uuid-9fe6b0d9-77d6-434d-80ea-aeec610da304" style="fill:#000000;fill-opacity:1"/><path id="path77" d="M1168.84 1683.9a6.1 6.1 0 0 0-7.18 4.78c-.17.87-4.2 21.71-.09 61.84a6.1 6.1 0 0 0 6.06 5.48q.31 0 .63-.03a6.1 6.1 0 0 0 5.45-6.69c-3.89-37.96-.14-57.92-.08-58.21a6.1 6.1 0 0 0-4.79-7.17" class="uuid-9fe6b0d9-77d6-434d-80ea-aeec610da304" style="fill:#000000;fill-opacity:1"/><path id="path78" d="M1671.47 1577.98c-3.66-1.75-9.51-2.38-16.66 4.5a6.1 6.1 0 0 0 8.47 8.79c1.92-1.85 2.98-2.17 2.98-2.26 5.13 2.87 9.8 34.77 5.79 80.5-3.85 43.92 1.42 68.71 1.64 69.75a6.1 6.1 0 0 0 11.91-2.6c-.05-.24-5.08-24.23-1.41-66.08 1.71-19.48 5.84-83.72-12.72-92.6" class="uuid-9fe6b0d9-77d6-434d-80ea-aeec610da304" style="fill:#000000;fill-opacity:1"/><path id="path79" d="M1659.02 1666.82a6.05 6.05 0 0 0-6.27-5.93 6.1 6.1 0 0 0-5.93 6.27c.03 1.14.84 28.25 6.18 61.83a6.1 6.1 0 0 0 12.06-1.92 524 524 0 0 1-6.03-60.25z" class="uuid-9fe6b0d9-77d6-434d-80ea-aeec610da304" style="fill:#000000;fill-opacity:1"/><path id="path80" d="M2020.74 1672.2c2.73-19.86 5.55-40.4-.8-61.4a6.09 6.09 0 1 0-11.67 3.53c5.58 18.45 2.94 37.65.39 56.21-3.26 23.72-6.62 48.25 7.4 70.65a6.11 6.11 0 0 0 10.35-6.47c-11.68-18.66-8.75-39.97-5.65-62.52z" class="uuid-9fe6b0d9-77d6-434d-80ea-aeec610da304" style="fill:#000000;fill-opacity:1"/><path id="path81" d="M2041.82 1692.12a6.1 6.1 0 0 0-11.7-3.48c-.27.91-6.56 22.59 3.65 51.36a6.1 6.1 0 0 0 11.5-4.08c-8.81-24.8-3.51-43.61-3.46-43.79z" class="uuid-9fe6b0d9-77d6-434d-80ea-aeec610da304" style="fill:#000000;fill-opacity:1"/><path id="path82" d="M542.73 1579.04c-2.1-1.76-5.81-3.53-11.53-1.98a6.1 6.1 0 1 0 3.2 11.77q.41-.11.66-.14c1.96 3.75.57 19.31-.54 31.91-1.35 15.17-3.03 34.05-2.38 54.22.64 19.98.21 35.52-.14 48.01-.58 21.04-.93 33.74 4.91 43.45a6.1 6.1 0 1 0 10.45-6.28c-4.01-6.66-3.69-18.01-3.17-36.82.35-12.65.79-28.39.13-48.74-.62-19.43 1.02-37.9 2.34-52.75 2.03-22.84 3.26-36.63-3.93-42.64z" class="uuid-9fe6b0d9-77d6-434d-80ea-aeec610da304" style="fill:#000000;fill-opacity:1"/><path id="path83" d="M578.56 1690.42a6.1 6.1 0 0 0-12.16-1.06c-1.92 22.04-4.54 52.23 6.88 72.23a6.1 6.1 0 0 0 10.59-6.05c-9.54-16.69-7.1-44.68-5.32-65.12z" class="uuid-9fe6b0d9-77d6-434d-80ea-aeec610da304" style="fill:#000000;fill-opacity:1"/></g><path id="path84" d="M2189.47 1607.12a6.1 6.1 0 0 0-8.2 2.69c-4.38 8.65-4.52 11.75-4.27 19.46.13 4.04.3 9.58-.26 19.05a6.1 6.1 0 0 0 5.72 6.45l.37.01a6.1 6.1 0 0 0 6.08-5.74c.6-10.03.41-16.13.28-20.16-.2-6.43-.23-7.25 2.96-13.56a6.1 6.1 0 0 0-2.69-8.2z" class="uuid-9fe6b0d9-77d6-434d-80ea-aeec610da304"/><path id="path85" d="M2208.51 1646.71a6.1 6.1 0 1 0-11.91-2.67c-4.73 21.15-1.14 34.25 3.02 49.42 3.97 14.47 8.47 30.86 6.71 59.52a6.1 6.1 0 0 0 5.71 6.46l.38.01a6.1 6.1 0 0 0 6.08-5.72c1.88-30.69-3.11-48.88-7.12-63.5-3.88-14.15-6.95-25.33-2.88-43.53z" class="uuid-9fe6b0d9-77d6-434d-80ea-aeec610da304"/><path id="path86" d="M1447.82 1740.64c-8.52-1.76-13.23 8.78-17.67 25.14-2.92 10.78-5.73 17.96-7.98 23.74-5.4 13.81-7.5 20.7-2.62 40.48h12.59c-5.11-19.36-3.15-24.44 1.39-36.05 2.36-6.05 5.3-13.57 8.4-24.98 1.3-4.81 2.45-8.3 3.41-10.8 1.52 9.11 2.16 25.74-.23 42.62a464 464 0 0 0-3.09 29.21h12.23c.75-9.39 1.68-18.57 2.94-27.5.08-.58 7.21-58.45-9.37-61.85z" class="uuid-9fe6b0d9-77d6-434d-80ea-aeec610da304"/><path id="path87" d="m1472.69 1715.29-7.61 9.54-.3-.26c.09.09 8.58 9.33 9.03 50.67a6.1 6.1 0 0 0 6.1 6.03h.07a6.1 6.1 0 0 0 6.03-6.17c-.51-47.23-11.19-58.11-13.32-59.81" class="uuid-9fe6b0d9-77d6-434d-80ea-aeec610da304"/><path id="path88" d="M736.93 1684.04a6.1 6.1 0 1 0-11.28-4.64c-8.92 21.65-7.17 60-3.69 136.4l.64 14.2h12.21l-.67-14.76c-3.29-72.25-5.1-112.05 2.78-131.2z" class="uuid-9fe6b0d9-77d6-434d-80ea-aeec610da304"/><path id="path89" d="M751.24 1697.66a6.1 6.1 0 1 0-11.87-2.83c-2.85 11.95-1.98 17.76-.87 25.12 1.15 7.66 2.72 18.15.73 42.7a6.1 6.1 0 0 0 5.59 6.57l.5.02a6.1 6.1 0 0 0 6.07-5.61c2.11-25.95.42-37.25-.82-45.5-1.05-6.98-1.62-10.83.68-20.48z" class="uuid-9fe6b0d9-77d6-434d-80ea-aeec610da304"/></g><path id="path90" d="M1598.04 1443.42a6.1 6.1 0 1 0 .62 12.18c72.75-3.71 177.92 1.8 186.17 21.81a6.1 6.1 0 1 0 11.28-4.64c-15.74-38.21-190.63-29.73-198.07-29.35" class="uuid-c9b92a13-76d1-4ae0-b8ef-8379b55cc89d" style="fill:#000000;fill-opacity:1"/><g id="g98"><g id="g94"><path id="path91" d="M765.13 1568.79c3.55 15.99 10.53 29.39 15.9 35.44 7.29 9.72 22.4 7.32 28.29 4.29a12.6 12.6 0 0 0 6.11-8.61l-20.76-107.7c-7.11-4.07-47.47-4.13-29.54 76.58" class="uuid-9474372d-c264-4031-a36a-b2c1a90c78a0"/><path id="path92" d="M871.92 1464.79c-11.41 2.39-22.06 11.15-25.75 25.78-2.65 13.04-1.47 89.13 7.06 110.21 6.91 17.33 37.26 11.77 40.56 6.26 1.19-1.96 2.35-4.95 3.45-8.86v-.13l12.63-114.47c-1.7-8.9-19.27-21.98-37.96-18.79z" class="uuid-9474372d-c264-4031-a36a-b2c1a90c78a0"/><path id="path93" d="M939.17 1464.26c-11.61.31-23.75 7-30.05 20.62-4.91 12.45-17.66 87.29-13.11 109.55 3.6 18.32 31.42 7.76 35.68 2.97 12.79-14.36 26.95-75.83 36.69-84.05l35.76 21.13c-24.42-55.2-45.71-69.89-64.98-70.23z" class="uuid-9474372d-c264-4031-a36a-b2c1a90c78a0"/><path id="path94" d="M846.1 1474.72c-9.03-12.1-36.39-8.35-45.74 1.68-19.18 27.36 8.97 108.95 8.97 108.95s7.52 23.82 16.81 26.66c9.9 3.28 23.62.96 28.76-8.13l-5.42-121.92c-1.02-3.18-2.1-5.59-3.38-7.24" class="uuid-9474372d-c264-4031-a36a-b2c1a90c78a0"/></g><path id="path95" d="M816.6 1593.92a6.1 6.1 0 0 0-7.15 4.82 6.5 6.5 0 0 1-3.05 4.42c-3.98 1.96-15.54 3.99-20.47-2.59l-.32-.4c-4.65-5.23-11.17-17.69-14.51-32.7-10.22-45.99-.42-61.63 6.33-66.87 6.11-4.75 12.88-3.78 14.23-3.09a6.1 6.1 0 1 0 6.05-10.59c-5.21-2.97-17.08-3.83-27.16 3.59-11.39 8.39-22.6 29.01-11.36 79.6 3.79 17.07 11.3 31.31 17.13 37.98 5.35 6.98 13.22 9.2 20.45 9.2 6.27 0 12.07-1.67 15.35-3.36l.27-.15a18.7 18.7 0 0 0 9.04-12.71 6.1 6.1 0 0 0-4.82-7.15z" class="uuid-c9b92a13-76d1-4ae0-b8ef-8379b55cc89d" style="fill:#000000;fill-opacity:1"/><path id="path96" d="M870.68 1458.82c-14.85 3.11-26.5 14.7-30.48 30.54-2.98 14.67-1.64 91.42 7.37 113.68 3.58 8.97 12.12 14.44 24.05 15.39q1.72.14 3.52.14c9.64 0 20.61-2.92 23.86-8.36 1.49-2.44 2.83-5.83 4.12-10.37q.16-.57.21-1.16v-.13a6.03 6.03 0 0 0-5.58-6.51 6.2 6.2 0 0 0-6.4 4.6c-1.09 3.85-2.01 5.87-2.57 6.89-2.3 1.68-12.01 4.11-20.43 2.08q-7.31-1.77-9.46-7.12c-7.85-19.39-9.21-94.51-6.8-106.43 2.81-11.16 10.69-19.12 20.86-21.25 15.54-2.65 29.91 8.52 30.94 13.92a6.1 6.1 0 1 0 11.98-2.28c-2.28-11.94-22.64-27.47-45.2-23.62zm17.9 145.04-.02.04z" class="uuid-c9b92a13-76d1-4ae0-b8ef-8379b55cc89d" style="fill:#000000;fill-opacity:1"/><path id="path97" d="M939.01 1458.17c-15.15.4-28.72 9.66-35.42 24.16l-.14.32c-4.82 12.21-18.38 88.74-13.42 112.96 1.45 7.37 6.13 12.5 13.19 14.43 2.17.59 4.49.85 6.86.85 10.74 0 22.54-5.35 26.17-9.43 7.4-8.31 14.46-28.52 21.29-48.07 4.79-13.7 11.34-32.47 14.78-35.38a6.11 6.11 0 0 0-7.87-9.33c-5.7 4.81-10.72 18.59-18.43 40.68-6.13 17.57-13.09 37.48-18.84 43.94-2.05 2.03-13.98 7.05-21.02 4.88-2.41-.74-3.61-2.17-4.16-4.97-4.23-20.66 7.97-93.47 12.74-105.93 4.84-10.32 14.02-16.64 24.33-16.92 13 .23 33.31 7.38 59.51 66.6a6.1 6.1 0 0 0 11.16-4.93c-22.09-49.93-44.47-73.41-70.72-73.86z" class="uuid-c9b92a13-76d1-4ae0-b8ef-8379b55cc89d" style="fill:#000000;fill-opacity:1"/><path id="path98" d="M857.91 1598.57a6.1 6.1 0 0 0-8.31 2.3c-3.51 6.2-14.16 7.79-21.67 5.31-3.24-1-9.34-11.8-12.83-22.82-7.5-21.75-23.8-82.4-9.99-103.1 4.42-4.41 14.57-7.44 23.41-6.97 5.9.32 10.53 2.17 12.76 5.16.53.68 1.37 2.17 2.4 5.38a6.09 6.09 0 1 0 11.61-3.73c-1.3-4.04-2.68-6.93-4.3-9.02-4.4-5.9-12.15-9.44-21.81-9.96-12.84-.72-26.52 3.88-33.28 11.13q-.29.32-.53.66c-20.38 29.07 5.21 105.79 8.14 114.29 1.99 6.3 9.38 27.15 20.71 30.62a35 35 0 0 0 11.05 1.73c9.89 0 20.02-3.96 24.94-12.65a6.1 6.1 0 0 0-2.31-8.31z" class="uuid-c9b92a13-76d1-4ae0-b8ef-8379b55cc89d" style="fill:#000000;fill-opacity:1"/></g><path id="path99" d="m1818.05 898.24 36.63 51.13c10.5 5.04 32.65 7.43 43.67 0l36.63-51.13c-39.99-15.14-79.05-16.41-116.93 0" class="uuid-107b909f-48e6-4008-94b7-2c9d48ef897d" style="fill:#000000;fill-opacity:1"/><path id="path100" d="M1937.14 892.54c-42.95-16.25-83.83-16.21-121.51.11a6.08 6.08 0 0 0-2.53 9.15l36.63 51.13c.6.83 1.4 1.5 2.32 1.94 6.37 3.06 16.49 5.36 26.59 5.36 8.48 0 16.94-1.63 23.13-5.8q.91-.62 1.55-1.51l36.63-51.13a6.1 6.1 0 0 0-2.8-9.26zm-43.04 52.3c-8.76 5.04-26.23 3.41-35.42-.37L1827.53 901c30.83-11.49 62.95-11.41 97.78.27z" class="uuid-c9b92a13-76d1-4ae0-b8ef-8379b55cc89d" style="fill:#000000;fill-opacity:1"/><path id="path101" d="M1874.96 716.54c-63.15 0-139.25 9.35-163.48 35.58a6.1 6.1 0 0 0 8.97 8.28c17.49-18.94 79.59-31.66 154.53-31.66s137.02 12.72 154.5 31.66a6.1 6.1 0 0 0 8.62.34 6.1 6.1 0 0 0 .35-8.62c-24.22-26.23-100.33-35.58-163.47-35.58z" class="uuid-c9b92a13-76d1-4ae0-b8ef-8379b55cc89d" style="fill:#000000;fill-opacity:1"/></g></svg>