<svg xmlns="http://www.w3.org/2000/svg" id="svg80" viewBox="0 0 1886.39 1379.76"><defs id="defs1"><style id="style1">.uuid-89274176-ffcf-4a30-ba2b-f76bf5b91907 {
        fill: var(--color-character-man-skin, #ffddc0);
      }

      .uuid-89274176-ffcf-4a30-ba2b-f76bf5b91907, .uuid-b12ea5bd-d1e2-4fa9-8430-9f3c007bae41, .uuid-68d80fab-6900-4214-8690-eacb8b0c30e4, .uuid-2c25cae5-187b-4762-8339-9e0aa8fddef2, .uuid-a1447784-2c80-4ca9-b182-268389e0b2f0, .uuid-236e1931-142e-4660-9086-9a962bba11e4, .uuid-379991a1-5e89-4219-9df3-b521c4b471b3, .uuid-6978c9ac-eb1b-49e2-b6db-b7a97ea44879, .uuid-28b5a7d1-d3eb-4841-8d07-f4b1b78409f3, .uuid-607bfbbe-5e38-47e2-bbac-607383461c4b, .uuid-eaeb15c3-6e2f-4892-a407-c8d0ab821148, .uuid-cd131c69-b313-4722-aa28-bace8a589adc, .uuid-237576b1-79a6-4575-93fd-25fd6ecaf8ac {
        stroke-width: 0px;
      }

      .uuid-b12ea5bd-d1e2-4fa9-8430-9f3c007bae41 {
        fill: var(--color-character-clothing-1, #8275bd);
      }

      .uuid-68d80fab-6900-4214-8690-eacb8b0c30e4 {
        fill: #ffe6b6;
      }

      .uuid-2c25cae5-187b-4762-8339-9e0aa8fddef2 {
        fill: #e1e1e1;
      }

      .uuid-a1447784-2c80-4ca9-b182-268389e0b2f0 {
        fill: #fdaca8;
      }

      .uuid-236e1931-142e-4660-9086-9a962bba11e4 {
        fill: color-mix(in srgb, var(--color-character-man-hair, #393127) 45%, #fff);
      }

      .uuid-379991a1-5e89-4219-9df3-b521c4b471b3 {
        fill: color-mix(in srgb, var(--color-character-man-hair, #393127) 35%, #fff);
      }

      .uuid-6978c9ac-eb1b-49e2-b6db-b7a97ea44879 {
        fill: #aaabab;
      }

      .uuid-28b5a7d1-d3eb-4841-8d07-f4b1b78409f3 {
        fill: #2e2020;
      }

      .uuid-607bfbbe-5e38-47e2-bbac-607383461c4b {
        fill: #fff;
      }

      .uuid-eaeb15c3-6e2f-4892-a407-c8d0ab821148 {
        fill: #c5c5c5;
      }

      .uuid-cd131c69-b313-4722-aa28-bace8a589adc {
        fill: color-mix(in srgb, var(--color-character-man-skin, #ffddc0) 80%, #f09084);
      }

      .uuid-237576b1-79a6-4575-93fd-25fd6ecaf8ac {
        fill: #2c201f;
      }</style></defs><g id="uuid-50c66976-955c-479e-8fba-7ebea788538f" data-name="Ñëîé 2" transform="translate(-397.212 -241.183)"><path id="overlapping-arm" d="m1215.84 1176.31-35.89 146.31s-88.64-15.48-73.97 41.01c14.66 56.49 22.5 92.94 42.94 95.43 31.94 3.88 118.22 7.51 140.74-5.69l7.75-244.1z" class="uuid-b12ea5bd-d1e2-4fa9-8430-9f3c007bae41"/><path id="laptop-face" d="m419.3 1116.7 620.04 2.34c14.77.05 29.43 11.76 32.75 26.15l103.71 448.54c3.32 14.39-5.93 25.38-20.67 24.57l-619.16-34.16c-14.74-.81-29.6-13.08-33.19-27.41l-103.72-414.2c-3.59-14.32 5.47-25.89 20.24-25.83" class="uuid-eaeb15c3-6e2f-4892-a407-c8d0ab821148"/><path id="path3" d="M1423.5 499.15c-3.01-34.6-12.5-102.03 7.81-149.41s66.12-78.67 101.47-89.2 150.86-61.81 240.36 70.57c0 0-11.62 17.01-34.94 23.03-23.31 6.02-57.57 16.93-46.29 37.99s-3.84 38.45-3.84 38.45 30.84 57.16 58.67 39.86 47.38-17.3 48.89 9.03-21.81 61.67-33.85 69.95c-12.03 8.27-23.32 41.37-21.06 60.17 2.25 18.8 10.71 54.33 9.72 61.81s-40.05 27.21-85.36 51.7c-52.64 28.46-114.56 52.9-126.69 60.98-22.56 15.04-36.22 29.24-36.22 29.24s16.72-89.95 6.94-101.98c0 0-29.88-30.1-50.57-52.31-43.23-46.41-32.03-125.27-35.03-159.87z" class="uuid-89274176-ffcf-4a30-ba2b-f76bf5b91907"/><path id="path4" d="M1504.1 707.58c5.11 16.49 16.07 67.33 14.32 80.48s70.56-41.7 114.92-67.13c28.45-16.31 19.55-89.16 19.1-78.5s2.67 12.11-25.88 30.21c-28.56 18.1-39.09 27.53-66.84 35.59s-36.11-.38-55.62-.64z" class="uuid-cd131c69-b313-4722-aa28-bace8a589adc"/><path id="path5" d="M1675.76 396.83c2.99 22.99-.33 24.75 5.43 55.13s33.7 67.87 72.58 33.2c0 0-36.01 14.78-49.41-16.1s-10.6-40.81-15.36-50.68c-4.76-9.88-16.23-44.53-13.23-21.54z" class="uuid-cd131c69-b313-4722-aa28-bace8a589adc"/><path id="path6" d="M1549.83 542.35c0-10.76 13.27-19.48 29.64-19.48s29.64 8.72 29.64 19.48-13.27 19.48-29.64 19.48-29.64-8.72-29.64-19.48" class="uuid-a1447784-2c80-4ca9-b182-268389e0b2f0"/><path id="path7" d="M1421.88 542.38c0-10.76 13.27-19.48 29.64-19.48s29.65 8.72 29.65 19.48-13.28 19.48-29.65 19.48-29.64-8.72-29.64-19.48" class="uuid-a1447784-2c80-4ca9-b182-268389e0b2f0"/><path id="path8" d="M1502.12 510.44c7.52 14.77 10.48 46.74 2.42 61.51 0 0-18.81-13.16-16.93-21.49s11.29-20.15 12.09-24.44-5.11-30.35 2.42-15.58" class="uuid-a1447784-2c80-4ca9-b182-268389e0b2f0"/><path id="path9" d="m1475.87 602.93 86.2-6.72s-7.18 32.48-19.46 42.42-22.62 13.39-36.56 6.78-30.19-42.48-30.19-42.48z" class="uuid-607bfbbe-5e38-47e2-bbac-607383461c4b"/><path id="path10" d="M1674.59 380.17c12.13 23.47 19.79 28.71 16.63 47.72s23.23 79.54 49.97 59.77c18.66-13.79 37.12-16.28 42.93 2.73s.57 52.09-9.47 62.65-25.34 19.01-25.34 19.01l-2.12 18.48s23.77-8.98 43.83-38.02c20.07-29.04 21.63-65.66 21.1-103.68s-27.93-108.43-36.37-121.63c0 0-8.43 13.67-28.02 21.49-20.22 8.07-26.85 13.71-35.35 2.49s-19.38 11.66-21.21 18.62-18.38 9.43-16.59 10.36z" class="uuid-379991a1-5e89-4219-9df3-b521c4b471b3"/><path id="path11" d="M1424.06 503.13c-3.95-24.22-7.43-43.22-7.29-68.81s11.47-81.15 11.47-81.15-8.43-6.11-17.69 15.32c-9.25 21.44-14.81 55.87-8.39 82.72s25.85 76.15 21.89 51.92z" class="uuid-379991a1-5e89-4219-9df3-b521c4b471b3"/><path id="path12" d="M1746.49 391.8c5.45 17.9 15.96 35.41 19.07 27.24 3.12-8.17-24.51-45.14-19.07-27.24" class="uuid-236e1931-142e-4660-9086-9a962bba11e4"/><path id="path13" d="M1729.67 398.25c7.79 23.05 22.82 45.6 27.28 35.08 4.45-10.52-35.08-58.13-27.28-35.08" class="uuid-236e1931-142e-4660-9086-9a962bba11e4"/><path id="path14" d="M1508.13 732.07s-43.78 17.16-46.43 68.64l-34.8 59.27s-4.28 68.59 68.65 70.49c47.19 1.22 148.16-74.59 188.56-103.07s109.04-112.28 109.04-112.28l-13.37-4.55s-9.98 2.43-11.24-12.43-8.34-54.2-25.02-32.31c0 0-28.75 7.83-22.93 18.24l-156.88 70.88s-37.98 24.2-46.37 38.85l-9.21-61.72z" class="uuid-607bfbbe-5e38-47e2-bbac-607383461c4b"/><path id="path15" d="M1468.78 767.27c-10.71 62.86 10.84 95.58 72.24 88.59s123.81-65.48 154.04-91.54 40.26-43.7 40.26-43.7l34.2-24.09s74.72 11.09 133.42 42.82c36.67 19.82 64.09 54.16 72.36 78.96 21.5 64.5 47.79 333.29 47.79 333.29s27.17 246.92-2.73 304.01-26.53 47.33-70.4 61.95-191.05-24.61-256.43-58.73l-410.9-.17s3.21-25.51 1.82-71.67c-2.05-68.2-1.98-156.17 10.9-173.45 0 0 58.16 13.8 71.44 26.61s57.82-107.85 57.82-107.85-78.2-7.72-89.47-30.23-34.89-76.91-34.89-76.91l-55.21-4.14s44.82-30.22 59.76-58.88 50.17-102.11 77.02-138.06c26.85-35.94 88.54-66.01 86.97-56.82z" class="uuid-b12ea5bd-d1e2-4fa9-8430-9f3c007bae41"/><path id="path16" d="M1373.84 1274.94c16.93-20.56 32.99-132.98 57.57-150.13 0 0-16.44-17.27-33.66-17.25-6.47 0-17.42-5.64-23.91.2-10.77 9.7-17.38 36.18-30.62 63.3-21.21 43.47-35.68 69.14-29.2 76.71s58.72 28.49 59.83 27.16z" class="uuid-607bfbbe-5e38-47e2-bbac-607383461c4b"/><path id="path17" d="m1164.67 1535.75 281.83-4.82.54 33.16-278.08 54.55s8.56-21.92 5.34-35.83c-3.21-13.9-9.62-47.06-9.62-47.06z" class="uuid-6978c9ac-eb1b-49e2-b6db-b7a97ea44879"/><path id="path18" d="M701.35 1358.13c0-28.72 23.38-52 52.21-52s52.21 23.28 52.21 52-23.38 51.99-52.21 51.99-52.21-23.28-52.21-51.99" class="uuid-2c25cae5-187b-4762-8339-9e0aa8fddef2"/><path id="path19" d="M1367.85 1103.48c-13.67-11.26-33.21-56.45-41.55-70.23s-22.01-43.29-26.04-66.16c-4.03-22.88 7.98-57.55-3.66-65.3s-36.65 3.23-38.72 28.97-4.5 57.41-7 63.61c-2.48 6.2-10.21 13.55-10.21 13.55s-35.12-6.59-57.59-3.68c-22.46 2.91-34.12 14.84-21.72 38.07 0 0-24.39 31.08-4.52 44.84 0 0-20.58 27.52-1.72 39.52 0 0-9.17 23.35 8.76 36.53s64.24 32.45 85.23 37.49 59.15 17.46 66.57 28.12c0 0 19.98-54.73 32.37-77.12s33.48-36.95 19.81-48.22z" class="uuid-89274176-ffcf-4a30-ba2b-f76bf5b91907" style="display:inline"/><path id="path20" d="M1267.77 1012.89c1.34-10.25-12.92-41.44-12.92-41.44l-18.27 33.42s29.86 18.26 31.19 8.02" class="uuid-cd131c69-b313-4722-aa28-bace8a589adc"/><path id="path21" d="M1360.99 1099.62c-4.53 19.83-61.77 84.44-54.97 121.27l14.17 14.73s-6.24-20.96 6.23-36.83 29.17-53.68 29.17-53.68l19.52-38.19z" class="uuid-cd131c69-b313-4722-aa28-bace8a589adc" style="display:inline"/><path id="path22" d="M1424.78 508.25a3.8 3.8 0 0 1-3.76-3.2c-6.76-41.22-12.36-88.94-2.68-130.38 4.69-20.08 12.52-37.64 23.93-53.69 12.15-17.08 28.05-32.05 48.62-45.76 11.74-7.83 37.51-19.67 71.48-27.26 26.8-5.99 67.23-11.07 107.68-1.24 45.18 10.98 79.81 37.71 102.92 79.44a3.82 3.82 0 0 1-6.68 3.7c-22.04-39.78-55.02-65.26-98.04-75.72-68.33-16.62-146.47 9.67-173.12 27.43-77.66 51.77-83.21 120.69-66.57 222.24a3.8 3.8 0 0 1-3.77 4.43z" class="uuid-28b5a7d1-d3eb-4841-8d07-f4b1b78409f3" style="fill:#000000;fill-opacity:1"/><path id="path23" d="M1501.85 574.32c-.8 0-1.61-.25-2.29-.77-17.67-13.31-17.4-23.59-14.06-29.87q1.22-2.27 2.64-4.71c6.33-10.99 13.51-23.44 1.67-35.9a3.82 3.82 0 0 1 5.54-5.26c15.76 16.59 5.92 33.67-.59 44.97-.91 1.58-1.78 3.08-2.52 4.49-3.71 6.96 5.87 15.63 11.91 20.18a3.8 3.8 0 0 1-2.3 6.86z" class="uuid-28b5a7d1-d3eb-4841-8d07-f4b1b78409f3" style="fill:#000000;fill-opacity:1"/><path id="path24" d="M1735.83 577.28a3.83 3.83 0 0 1-.7-7.57c18.51-3.45 39.45-23.03 47.67-44.58 4.05-10.63 6.72-26.09-3.57-39.4-3.91-5.11-10.4-8.05-16.16-7.34-3.32.41-7.82 2.2-10.47 8.37a3.81 3.81 0 1 1-7.01-3.01c3.18-7.41 9.05-12.01 16.54-12.94 8.49-1.06 17.58 2.97 23.16 10.26 9.71 12.56 11.37 29.17 4.66 46.77-9.22 24.19-32.18 45.41-53.4 49.36q-.36.06-.7.06z" class="uuid-28b5a7d1-d3eb-4841-8d07-f4b1b78409f3" style="fill:#000000;fill-opacity:1"/><path id="path25" d="M1740.33 538.48q-.77 0-1.53-.32a3.8 3.8 0 0 1-1.97-5.03c5.13-11.75 13.51-18.83 27.16-22.95a3.82 3.82 0 1 1 2.21 7.31c-11.46 3.46-18.15 9.05-22.37 18.7a3.8 3.8 0 0 1-3.5 2.29" class="uuid-28b5a7d1-d3eb-4841-8d07-f4b1b78409f3" style="fill:#000000;fill-opacity:1"/><path id="path26" d="M1530.65 715.98c-6.7 0-12.97-.68-18.32-1.95-15.93-3.79-25.55-15.2-37.73-29.64l-3.48-4.11c-33.9-40.18-49.97-79.48-50.57-123.71-.19-5.15-.06-8.93.1-13.3.25-7.11.56-15.95-.55-35.12a3.82 3.82 0 0 1 7.62-.44c1.13 19.53.81 28.57.56 35.83a163 163 0 0 0-.09 12.8v.09c.57 42.38 16.07 80.16 48.77 118.92l3.49 4.12c11.71 13.89 20.18 23.93 33.66 27.14 17.42 4.16 45.6 1.44 63.55-11.76 9.66-7.11 20.43-12.96 30.85-18.62 20.12-10.93 39.11-21.25 42.17-37.31a3.82 3.82 0 0 1 7.5 1.42c-3.73 19.61-24.27 30.77-46.02 42.59-10.19 5.54-20.73 11.26-29.97 18.06-14.25 10.49-34.29 14.99-51.52 14.99z" class="uuid-28b5a7d1-d3eb-4841-8d07-f4b1b78409f3" style="fill:#000000;fill-opacity:1"/><path id="path27" d="M1598.76 463.64c-1.43 0-2.8-.81-3.46-2.19-2.14-4.54-7.07-8.23-13.52-10.12-10.43-3.05-22.42-1.04-32.89 5.52a3.81 3.81 0 1 1-4.05-6.47c12.32-7.72 26.57-10.05 39.09-6.38 8.54 2.5 15.21 7.67 18.28 14.18a3.82 3.82 0 0 1-3.45 5.45z" class="uuid-28b5a7d1-d3eb-4841-8d07-f4b1b78409f3" style="fill:#000000;fill-opacity:1"/><path id="path28" d="M1550.41 507.41a3.81 3.81 0 0 1-2.94-6.25c10.73-12.95 31.25-10.82 44.11-1.42a3.82 3.82 0 0 1-4.5 6.16c-10.07-7.36-25.83-9.41-33.73.12a3.8 3.8 0 0 1-2.94 1.38z" class="uuid-28b5a7d1-d3eb-4841-8d07-f4b1b78409f3" style="fill:#000000;fill-opacity:1"/><path id="path29" d="M1438.61 512.77a3.81 3.81 0 0 1-2.94-6.25c5.4-6.52 13.56-10.01 22.36-9.55 7.65.39 14.32 3.77 17.84 9.04a3.81 3.81 0 0 1-6.34 4.24c-2.15-3.22-6.7-5.39-11.88-5.65-6.38-.33-12.24 2.15-16.08 6.79a3.8 3.8 0 0 1-2.94 1.38z" class="uuid-28b5a7d1-d3eb-4841-8d07-f4b1b78409f3" style="fill:#000000;fill-opacity:1"/><path id="path30" d="M1521.09 650.28c-13.47 0-25.54-7.38-35.11-21.52a90 90 0 0 1-11.07-23.19 3.8 3.8 0 0 1 2.69-4.73c.8-.21 19.9-5.24 40.98-5.46a2210 2210 0 0 0 40.97-1.09 3.83 3.83 0 0 1 3.95 3.96c-.02.49-.5 12.02-5.31 24.12-6.6 16.64-18.15 26.22-33.4 27.72q-1.87.18-3.7.18zm-37.53-43.01c3.86 10.26 16.48 37.59 40.49 35.23 24.24-2.38 30.08-29.86 31.44-40.43-8.14.27-25.87.83-36.83.94-14.58.15-28.5 2.8-35.1 4.25z" class="uuid-28b5a7d1-d3eb-4841-8d07-f4b1b78409f3" style="display:inline;fill:#000000;fill-opacity:1"/><path id="path31" d="M1447.29 513.67c.18-6.81 4.56-11.8 10.54-12.5 5.95.15 10.08 5.37 9.9 12.17s-4.56 11.8-10.54 12.5c-5.1-.13-10.08-5.37-9.9-12.17" class="uuid-28b5a7d1-d3eb-4841-8d07-f4b1b78409f3" style="fill:#000000;fill-opacity:1"/><path id="path32" d="M1561 508.68c.18-6.81 4.57-11.8 10.54-12.5 5.95.15 10.08 5.37 9.9 12.17s-4.56 11.8-10.54 12.5c-5.96-.15-10.08-5.37-9.91-12.17z" class="uuid-28b5a7d1-d3eb-4841-8d07-f4b1b78409f3" style="fill:#000000;fill-opacity:1"/><path id="path33" d="M1746.71 662.67a3.8 3.8 0 0 1-3.61-2.57c-6.42-18.6-7.65-54.85 4.08-93.91a3.82 3.82 0 0 1 7.31 2.19c-11.25 37.42-10.2 71.77-4.18 89.22a3.8 3.8 0 0 1-3.6 5.06z" class="uuid-28b5a7d1-d3eb-4841-8d07-f4b1b78409f3" style="fill:#000000;fill-opacity:1"/><path id="path34" d="M1598.53 620.58q-.73 0-1.44-.28a3.8 3.8 0 0 1-2.09-4.98c7.21-17.66-15.39-34.66-15.62-34.83a3.82 3.82 0 1 1 4.54-6.14c1.13.84 27.58 20.75 18.15 43.85a3.8 3.8 0 0 1-3.54 2.38" class="uuid-28b5a7d1-d3eb-4841-8d07-f4b1b78409f3" style="fill:#000000;fill-opacity:1"/><path id="path35" d="M1458.35 625.99a3.8 3.8 0 0 1-3.62-2.61c-4.92-14.72-.97-30.14 10.06-39.28a3.82 3.82 0 0 1 4.88 5.87c-8.58 7.12-11.6 19.28-7.69 30.99a3.82 3.82 0 0 1-3.62 5.03z" class="uuid-28b5a7d1-d3eb-4841-8d07-f4b1b78409f3" style="fill:#000000;fill-opacity:1"/><path id="path36" d="M1606.83 506.72q-1.79.01-3.64-.28a3.82 3.82 0 0 1 1.2-7.54c6.49 1.03 13.08-2.49 13.14-2.53a3.81 3.81 0 0 1 3.67 6.69c-.31.17-6.74 3.66-14.37 3.66" class="uuid-28b5a7d1-d3eb-4841-8d07-f4b1b78409f3" style="fill:#000000;fill-opacity:1"/><path id="path37" d="M1611.74 519.42c-3.53 0-6.94-.66-9.76-2.19a3.82 3.82 0 0 1 3.63-6.71c4.37 2.37 13.57 1.21 18.93-2.38a3.83 3.83 0 0 1 4.26 6.34c-4.36 2.92-10.89 4.94-17.05 4.94z" class="uuid-28b5a7d1-d3eb-4841-8d07-f4b1b78409f3" style="fill:#000000;fill-opacity:1"/><path id="path38" d="M1499.34 438.92c-11.99 0-26.14-1.56-34.36-6.02a3.82 3.82 0 0 1 3.63-6.71c6.49 3.52 20.66 5.54 35.23 5.01 14.88-.53 26.99-3.57 30.86-7.76a3.81 3.81 0 1 1 5.6 5.18c-7.69 8.32-27.87 9.91-36.2 10.21q-2.3.09-4.77.08z" class="uuid-28b5a7d1-d3eb-4841-8d07-f4b1b78409f3" style="fill:#000000;fill-opacity:1"/><path id="path39" d="M1499.78 420.1q-1.91 0-3.7-.06c-15.08-.49-31.2-4.09-41.06-9.17a3.81 3.81 0 0 1 3.5-6.79c7.32 3.77 21.84 7.8 37.81 8.32 12.42.4 29.76-1.16 41.79-10.91a3.81 3.81 0 1 1 4.81 5.93c-12.65 10.25-29.81 12.67-43.14 12.67z" class="uuid-28b5a7d1-d3eb-4841-8d07-f4b1b78409f3" style="fill:#000000;fill-opacity:1"/><path id="path40" d="M1685.26 452.13a3.83 3.83 0 0 1-3.47-5.43c7.71-16.61 9.74-32.26-5.41-54.69a3.82 3.82 0 0 1 6.32-4.27c7.91 11.71 12.02 22.6 12.55 33.3.46 9.1-1.62 18.27-6.54 28.87a3.8 3.8 0 0 1-3.46 2.21z" class="uuid-28b5a7d1-d3eb-4841-8d07-f4b1b78409f3" style="fill:#000000;fill-opacity:1"/><path id="path41" d="M1735.49 494.63c-7.57 0-15.57-3.05-22.98-8.84-13.71-10.71-23.35-28.76-24.56-45.99a3.81 3.81 0 1 1 7.61-.53c1.04 14.93 9.74 31.21 21.64 40.51 7.24 5.66 14.94 8.12 21.67 6.93a3.8 3.8 0 1 1 1.32 7.51 27 27 0 0 1-4.7.41" class="uuid-28b5a7d1-d3eb-4841-8d07-f4b1b78409f3" style="fill:#000000;fill-opacity:1"/><path id="path42" d="M1718.17 418.09c-.75 0-1.51-.22-2.18-.69-6.67-4.64-9.8-14.75-13.11-25.46-4.96-16.01-8.61-25.54-17.5-22.87a3.8 3.8 0 1 1-2.19-7.31c5.23-1.57 12.71-1.58 18.63 7.29 3.66 5.48 6.05 13.19 8.35 20.64 2.79 9 5.67 18.3 10.18 21.45a3.8 3.8 0 0 1-2.19 6.95z" class="uuid-28b5a7d1-d3eb-4841-8d07-f4b1b78409f3" style="fill:#000000;fill-opacity:1"/><path id="path43" d="M1742.82 395.64q-.93 0-1.8-.46c-9.24-4.97-14.73-14.51-20.03-23.73-5.1-8.86-9.92-17.23-17.17-19.57a3.82 3.82 0 1 1 2.33-7.27c10.06 3.23 15.85 13.29 21.46 23.03 4.77 8.3 9.71 16.88 17.03 20.82a3.81 3.81 0 0 1-1.81 7.18z" class="uuid-28b5a7d1-d3eb-4841-8d07-f4b1b78409f3" style="fill:#000000;fill-opacity:1"/><path id="path44" d="M1721.25 362.63a3.82 3.82 0 0 1-.24-7.63c18.97-1.25 47.28-20.73 49.25-29.24a3.81 3.81 0 1 1 7.44 1.72c-3.11 13.43-35.67 33.79-56.19 35.14z" class="uuid-28b5a7d1-d3eb-4841-8d07-f4b1b78409f3" style="fill:#000000;fill-opacity:1"/><path id="path45" d="M1421.54 496a3.8 3.8 0 0 1-3.26-1.83c-14.92-24.47-17.95-44.08-19.11-78.76-1.11-33.39 11.07-62.91 28.98-70.21a3.8 3.8 0 0 1 4.97 2.1 3.8 3.8 0 0 1-2.09 4.97c-12.77 5.2-25.32 30.14-24.22 62.88 1.11 33.3 3.97 52.03 18 75.04a3.82 3.82 0 0 1-3.25 5.81z" class="uuid-28b5a7d1-d3eb-4841-8d07-f4b1b78409f3" style="fill:#000000;fill-opacity:1"/><path id="path46" d="M1749.14 589.8a3.82 3.82 0 0 1-1.92-7.12c32.68-19.03 52.96-51.44 58.66-93.74 6.05-44.96-4.65-100.34-30.94-160.15a3.82 3.82 0 1 1 6.99-3.07c26.85 61.1 37.75 117.89 31.51 164.24-6.02 44.72-27.59 79.06-62.38 99.32-.6.35-1.27.52-1.92.52" class="uuid-28b5a7d1-d3eb-4841-8d07-f4b1b78409f3" style="fill:#000000;fill-opacity:1"/><path id="path47" d="M1424.46 470.62a3.83 3.83 0 0 1-3.45-5.45c3.08-6.51 9.74-11.68 18.28-14.18 12.52-3.67 26.77-1.34 39.09 6.38a3.81 3.81 0 1 1-4.05 6.47c-10.47-6.56-22.46-8.58-32.89-5.52-6.45 1.89-11.38 5.58-13.53 10.12a3.8 3.8 0 0 1-3.46 2.19z" class="uuid-28b5a7d1-d3eb-4841-8d07-f4b1b78409f3" style="fill:#000000;fill-opacity:1"/><path id="path48" d="M1159.43 1620.94q-.87 0-1.75-.05l-619.16-34.16c-16.54-.91-32.65-14.22-36.68-30.29l-103.72-414.21c-2.03-8.09-.63-15.76 3.94-21.59 4.54-5.8 11.61-8.99 19.9-8.99h.12l620.04 2.35c16.41.06 32.77 13.12 36.46 29.1l103.71 448.55c1.88 8.16.34 15.72-4.36 21.3-4.36 5.19-10.88 7.99-18.49 7.99zm-737.48-501.65c-5.9 0-10.83 2.15-13.89 6.06-3.08 3.93-3.98 9.27-2.54 15.02l103.72 414.21c3.2 12.79 16.52 23.79 29.69 24.52l619.16 34.16c5.91.32 10.87-1.53 13.98-5.23s4.09-8.91 2.76-14.67l-103.71-448.55c-2.94-12.74-15.98-23.13-29.05-23.18l-620.04-2.35z" class="uuid-237576b1-79a6-4575-93fd-25fd6ecaf8ac" style="fill:#000000;fill-opacity:1"/><path id="path49" d="M1177.99 1589.93a3.82 3.82 0 0 1-.65-7.58l266.03-45.74c1.64-.3 2.7-.69 3.31-1-.41-.38-1.1-.9-2.16-1.5l-278.17 3.6a3.82 3.82 0 0 1-.1-7.63l279.14-3.62q.94 0 1.76.4c6.92 3.48 7.93 7.29 7.57 9.88-.37 2.59-2.4 5.97-10.01 7.38l-266.08 45.75q-.33.06-.65.06z" class="uuid-237576b1-79a6-4575-93fd-25fd6ecaf8ac" style="fill:#000000;fill-opacity:1"/><path id="path50" d="M1166.85 1620.87a3.81 3.81 0 0 1-.77-7.55l281.65-58.33 1.32-18.19a3.82 3.82 0 0 1 7.61.55l-1.53 21.06a3.8 3.8 0 0 1-3.03 3.46l-284.47 58.91q-.39.08-.78.08z" class="uuid-237576b1-79a6-4575-93fd-25fd6ecaf8ac" style="fill:#000000;fill-opacity:1"/><path id="path51" d="M1518.76 794.12q-.3 0-.6-.05a3.8 3.8 0 0 1-3.17-4.36c2.18-13.82-2.35-51.83-14.14-77.63a3.82 3.82 0 0 1 6.94-3.18c12.55 27.47 17.12 66.91 14.74 81.99a3.8 3.8 0 0 1-3.77 3.22z" class="uuid-237576b1-79a6-4575-93fd-25fd6ecaf8ac" style="fill:#000000;fill-opacity:1"/><path id="path52" d="M1562.16 757.98a3.82 3.82 0 0 1-1.05-7.49c20.25-5.79 156.57-62.03 183.01-90.54a3.81 3.81 0 1 1 5.59 5.19c-27.88 30.05-165.27 86.62-186.51 92.69q-.52.15-1.05.15z" class="uuid-237576b1-79a6-4575-93fd-25fd6ecaf8ac" style="display:inline;fill:#000000;fill-opacity:1"/><path id="path53" d="M1597.19 812.49q-.84 0-1.63-.37a3.8 3.8 0 0 1-2.17-3.08c-1.32-13.49-13.8-46.89-32.02-50.34a3.82 3.82 0 0 1 1.42-7.5c20.57 3.9 33.44 34.02 37.18 51.02 13.58-9.05 52.61-34.91 83.11-53.56 58.37-35.7 74.64-48.64 78.02-53.21 5.17-7 3.48-23.72-16.46-39.01a3.82 3.82 0 0 1 4.64-6.06c13.33 10.22 18.51 20.47 20.52 27.27 2.49 8.45 1.53 16.8-2.56 22.34-3.56 4.81-15.74 15.77-80.18 55.19-37.22 22.76-87.26 56.34-87.76 56.67-.64.43-1.38.65-2.13.65z" class="uuid-237576b1-79a6-4575-93fd-25fd6ecaf8ac" style="display:inline;fill:#000000;fill-opacity:1"/><path id="path54" d="M1490.28 850.8q-.51 0-1.01-.14a3.8 3.8 0 0 1-2.67-4.69c9.95-36.23 56.4-82.33 72.37-93.75a3.82 3.82 0 1 1 4.44 6.21c-16.69 11.92-60.45 56.77-69.45 89.56a3.8 3.8 0 0 1-3.68 2.81" class="uuid-28b5a7d1-d3eb-4841-8d07-f4b1b78409f3" style="display:inline;fill:#000000;fill-opacity:1"/><path id="path55" d="M1465.86 803.7q-.65 0-1.27-.22a3.8 3.8 0 0 1-2.52-3.99c5.35-51.7 33.08-67.59 48.62-68.84a3.82 3.82 0 0 1 .61 7.61c-2.91.23-13.2 1.89-23.38 13.45-7.5 8.51-12.96 20.35-16.06 34.7 6.31-6.66 15.36-14.12 25.54-16.1 7.23-1.41 14.06.09 20.3 4.44a3.82 3.82 0 1 1-4.37 6.26c-4.54-3.17-9.27-4.22-14.47-3.21-15.87 3.08-29.65 23.95-29.78 24.16a3.8 3.8 0 0 1-3.2 1.73z" class="uuid-28b5a7d1-d3eb-4841-8d07-f4b1b78409f3" style="display:inline;fill:#000000;fill-opacity:1"/><path id="path56" d="M1784.13 1246.88a3.8 3.8 0 0 1-3.6-2.56c-7.06-20.16-17.94-71.34-27.07-127.35-10.05-61.61-14.95-110.77-13.1-131.5a3.81 3.81 0 1 1 7.6.68c-4 45.02 25.32 214.36 39.77 255.65a3.8 3.8 0 0 1-3.6 5.07z" class="uuid-28b5a7d1-d3eb-4841-8d07-f4b1b78409f3" style="display:inline;fill:#000000;fill-opacity:1"/><path id="path57" d="M1921.79 1523.46q-11.09 0-23.51-1.11c-31.45-2.81-69.03-10.88-111.71-23.98-34.59-10.62-124.04-51-208.08-93.93-60.55-30.93-167.37-88.24-202.45-124.44-7.37-7.6-1.82-31.67 19.79-85.85l2.33-5.89c9-22.79 22.61-57.24 34.7-67.09 1-.81 2.33-1.07 3.56-.68 2.71.86 272.63 86.19 395.19 142.91a3.81 3.81 0 1 1-3.21 6.93c-116.41-53.88-366.67-133.79-392.19-141.9-10.31 10.4-23.14 42.87-30.95 62.63l-2.35 5.92c-8.99 22.55-14.85 38.96-18.43 51.63-6.07 21.48-3.53 25.49-2.96 26.08 57.54 59.4 340.63 195.93 407.29 216.39 42.17 12.94 79.23 20.91 110.15 23.67 41.41 3.7 70.86-2.03 87.53-17.04 47.97-43.17 47.61-101.22 47.24-162.67-.05-8.37-.1-17.03-.03-25.62.61-71.7-33.92-374.68-65.39-486.13-21.37-75.66-114.8-100.74-170.63-115.72-14.1-3.78-25.24-6.77-32.32-9.84a3.83 3.83 0 0 1-1.99-5.02 3.83 3.83 0 0 1 5.02-1.99c6.57 2.84 17.47 5.77 31.27 9.47 27.78 7.46 65.82 17.66 99.9 35.9 18.76 10.04 34.44 21.58 46.59 34.31 14.28 14.96 24.21 32.05 29.5 50.81 31.61 111.94 66.3 416.26 65.68 488.27-.07 8.54-.02 17.16.03 25.5.38 63.22.75 122.93-49.77 168.4-14.84 13.36-38.26 20.08-69.8 20.08" class="uuid-237576b1-79a6-4575-93fd-25fd6ecaf8ac" style="display:inline;fill:#000000;fill-opacity:1"/><path id="path58" d="M1376.01 1109.06q-.63 0-1.27-.22c-26.78-9.49-34-29.42-40.98-48.7-3.03-8.37-5.9-16.28-10.31-23.32l-1.36-2.16c-14.24-22.68-20.14-32.07-25.22-61.8-2.37-13.88.31-27.88 2.68-40.23 2.86-14.9 4.31-24.16-1.53-26.74-3.97-1.75-9.92-.36-16.33 3.82-12.8 8.35-25.76 26.91-25.76 46.25 0 31.08-9.16 41.73-18.85 53l-1.72 2a3.8 3.8 0 1 1-5.81-4.95l1.74-2.03c9.12-10.61 17.01-19.77 17.01-48.02 0-23.08 15.15-43.46 29.23-52.64 8.74-5.7 17.11-7.26 23.58-4.41 5.44 2.4 8.32 7.34 8.57 14.68.2 5.79-1.11 12.6-2.62 20.48-2.25 11.71-4.79 24.99-2.65 37.51 4.82 28.24 10.09 36.62 24.16 59.02l1.36 2.16c4.84 7.72 7.99 16.39 11.02 24.77 6.67 18.42 12.97 35.82 36.36 44.1a3.82 3.82 0 0 1-1.28 7.41z" class="uuid-28b5a7d1-d3eb-4841-8d07-f4b1b78409f3" style="display:inline;fill:#000000;fill-opacity:1"/><path id="path59" d="m1204.11 1058.21-.36-.02c-24.32-2.28-40.59-8.61-48.34-18.82-4.48-5.91-6.03-12.93-4.6-20.88 4.19-23.21 55.58-16.75 61.43-15.94l.07.01c.98.15 24.29 3.94 52.63 15.87a3.82 3.82 0 1 1-2.96 7.03c-26.93-11.34-49.78-15.19-50.83-15.36-.79-.11-13.58-1.79-26.54-1.14-9.17.46-24.77 2.47-26.29 10.88-1.05 5.84-.02 10.72 3.16 14.91 6.31 8.32 21.17 13.79 42.97 15.83a3.82 3.82 0 0 1-.36 7.62z" class="uuid-28b5a7d1-d3eb-4841-8d07-f4b1b78409f3" style="display:inline;fill:#000000;fill-opacity:1"/><path id="path60" d="M1188.5 1101.64h-.17c-14.94-.66-31.13-8.35-39.36-18.7-5.27-6.63-7.31-14.16-5.9-21.77 1.96-10.54 5.68-17.46 11.08-20.57a13 13 0 0 1 10.79-1.02 3.83 3.83 0 0 1-2.56 7.2 5.3 5.3 0 0 0-4.42.45c-3.27 1.89-5.9 7.34-7.38 15.35-1.01 5.44.46 10.7 4.37 15.62 6.85 8.61 21.03 15.27 33.72 15.83a3.82 3.82 0 0 1-.16 7.63z" class="uuid-28b5a7d1-d3eb-4841-8d07-f4b1b78409f3" style="display:inline;fill:#000000;fill-opacity:1"/><path id="path61" d="M1184.38 1145.39q-.37 0-.73-.07c-10.52-2.04-40.46-12.08-40.01-30.76.37-15.44 4.13-26.22 10.58-30.36a3.81 3.81 0 1 1 4.12 6.43c-3.19 2.04-6.72 9.45-7.07 24.12-.28 11.61 21.9 20.76 33.84 23.08a3.81 3.81 0 0 1-.72 7.56z" class="uuid-28b5a7d1-d3eb-4841-8d07-f4b1b78409f3" style="display:inline;fill:#000000;fill-opacity:1"/><path id="path62" d="M1313.78 1232.94q-.78 0-1.54-.33c-4.62-2.05-10.43-4.73-16.57-7.57-20.7-9.55-49.04-22.64-64.9-26.6-12.44-3.11-42.02-15.09-59.05-22.61-11.7-5.16-19.63-18.55-22.29-29.53-1.9-7.84-1.17-14.36 2.06-18.35a3.82 3.82 0 0 1 5.94 4.8c-1.63 2.01-1.85 6.52-.58 11.75 2.15 8.86 8.68 20.25 17.95 24.34 16.3 7.2 45.96 19.23 57.82 22.19 16.55 4.13 45.27 17.4 66.25 27.08 6.12 2.82 11.9 5.49 16.46 7.51a3.82 3.82 0 0 1-1.54 7.31z" class="uuid-28b5a7d1-d3eb-4841-8d07-f4b1b78409f3" style="display:inline;fill:#000000;fill-opacity:1"/><path id="path63" d="M1377.29 1280.65q-.5 0-1-.13c-.63-.17-15.64-4.26-31.52-10.74-22.51-9.19-34.61-18.08-36.98-27.19-1.49-5.71 5.5-20.62 20.67-50.95a948 948 0 0 0 9.29-18.89c5.26-11.13 9.67-21.15 13.57-29.99 6.14-13.92 10.99-24.92 15.55-32.03 2.27-3.54 8.3-12.94 17.68-9.81 4.09 1.36 9.25 2.79 14.73 4.31 13.13 3.63 28.01 7.75 36.75 13.25a3.82 3.82 0 0 1-4.06 6.46c-7.79-4.9-22.1-8.86-34.72-12.36a333 333 0 0 1-15.11-4.42c-6.29-2.09-13.65 14.58-23.83 37.67-3.91 8.88-8.35 18.94-13.65 30.17a968 968 0 0 1-9.37 19.04c-7.65 15.3-20.44 40.88-20.09 45.7 3.3 12.04 40.41 26.25 63.08 32.39a3.82 3.82 0 0 1-.99 7.5z" class="uuid-28b5a7d1-d3eb-4841-8d07-f4b1b78409f3" style="display:inline;fill:#000000;fill-opacity:1"/><path id="path64" d="M1284.26 1461.05a3.8 3.8 0 0 1-3.8-3.49l-.1-1.16c-7.1-83.23-4.3-167.69 7.9-237.83a3.82 3.82 0 0 1 7.52 1.3c-12.09 69.51-14.86 153.28-7.81 235.87l.1 1.16a3.8 3.8 0 0 1-3.48 4.12z" class="uuid-28b5a7d1-d3eb-4841-8d07-f4b1b78409f3" style="fill:#000000;fill-opacity:1"/><path id="path65" d="M1325.69 1033.06a3.8 3.8 0 0 1-3.41-5.53c1.91-3.82 4.15-8.49 6.52-13.43 10.44-21.75 24.73-51.54 38.16-66.62a3.81 3.81 0 1 1 5.7 5.08c-12.71 14.27-26.74 43.5-36.98 64.84a938 938 0 0 1-6.58 13.55 3.8 3.8 0 0 1-3.42 2.11z" class="uuid-28b5a7d1-d3eb-4841-8d07-f4b1b78409f3" style="fill:#000000;fill-opacity:1"/><path id="path66" d="M1877.9 1273.48c-.98 0-1.95-.38-2.7-1.12-25.92-25.91-63.37-32.96-87.18-28.55a3.82 3.82 0 0 1-1.39-7.51c25.72-4.77 66.09 2.79 93.97 30.66a3.82 3.82 0 0 1-2.7 6.52" class="uuid-237576b1-79a6-4575-93fd-25fd6ecaf8ac" style="fill:#000000;fill-opacity:1"/><path id="path67" d="M1177.43 1323.54q-.59 0-1.18-.19c-2-.65-3.1-2.81-2.45-4.81 7.98-24.52 23.79-84.63 34.9-128.65a3.82 3.82 0 0 1 7.41 1.87c-11.15 44.14-27.01 104.44-35.05 129.14a3.8 3.8 0 0 1-3.63 2.64" class="uuid-28b5a7d1-d3eb-4841-8d07-f4b1b78409f3" style="fill:#000000;fill-opacity:1"/><path id="path68" d="M1232.4 1349.91c-1.23 0-2.44-.6-3.18-1.7-19.6-29.34-79.19-21.5-101.62-18.56q-4.14.56-6.54.8a3.81 3.81 0 0 1-.73-7.6q2.22-.23 6.28-.77c23.72-3.12 86.72-11.4 108.96 21.88a3.81 3.81 0 0 1-3.17 5.94z" class="uuid-28b5a7d1-d3eb-4841-8d07-f4b1b78409f3" style="fill:#000000;fill-opacity:1"/><path id="path69" d="M1697.52 1462.36h-551.55a3.82 3.82 0 1 1 0-7.64h551.55a3.82 3.82 0 1 1 0 7.64" class="uuid-28b5a7d1-d3eb-4841-8d07-f4b1b78409f3" style="fill:#000000;fill-opacity:1"/><path id="path70" d="M2279.78 1462.36h-257.71a3.82 3.82 0 1 1 0-7.64h257.71a3.82 3.82 0 1 1 0 7.64" class="uuid-28b5a7d1-d3eb-4841-8d07-f4b1b78409f3" style="fill:#000000;fill-opacity:1"/><path id="path71" d="M1301.87 972.16a3.82 3.82 0 0 1-3.46-5.43c14.72-31.63 49.47-97.49 61.95-117.45 7.06-11.29 22.1-33.09 43.52-52.28 22.14-19.84 45.38-32 69.07-36.16a3.82 3.82 0 0 1 1.32 7.52c-55.04 9.66-93.47 62.63-107.44 84.96-12.38 19.79-46.87 85.18-61.5 116.62a3.8 3.8 0 0 1-3.46 2.21z" class="uuid-28b5a7d1-d3eb-4841-8d07-f4b1b78409f3" style="fill:#000000;fill-opacity:1"/><path id="path72" d="M1518.14 864.38q-6.1 0-11.25-1c-33.27-6.54-47.43-30.09-40.96-68.13a3.82 3.82 0 0 1 7.53 1.28c-5.82 34.18 5.59 53.6 34.9 59.36 7.07 1.39 33.95 3.95 82.71-21.41 44.48-23.13 91.85-62.21 136.97-113.02a3.81 3.81 0 1 1 5.71 5.07c-45.74 51.5-93.86 91.17-139.16 114.72-28.65 14.9-56.19 23.12-76.46 23.13z" class="uuid-28b5a7d1-d3eb-4841-8d07-f4b1b78409f3" style="fill:#000000;fill-opacity:1"/><path id="path73" d="M1598.6 540.92h-60.06c-8.12 0-14.73-6.01-14.73-13.4v-27.41c0-7.39 6.61-13.4 14.73-13.4h60.06c8.12 0 14.73 6.01 14.73 13.4v27.41c0 7.39-6.61 13.4-14.73 13.4m-60.06-46.58c-3.91 0-7.09 2.59-7.09 5.77v27.41c0 3.18 3.18 5.77 7.09 5.77h60.06c3.91 0 7.09-2.59 7.09-5.77v-27.41c0-3.18-3.18-5.77-7.09-5.77z" class="uuid-28b5a7d1-d3eb-4841-8d07-f4b1b78409f3" style="fill:#000000;fill-opacity:1"/><path id="path74" d="M1480.23 542.97h-60.06c-8.12 0-14.73-6.01-14.73-13.4v-27.42c0-7.39 6.61-13.4 14.73-13.4h60.06c8.12 0 14.73 6.01 14.73 13.4v27.42c0 7.39-6.61 13.4-14.73 13.4m-60.06-46.58c-3.91 0-7.09 2.59-7.09 5.76v27.42c0 3.18 3.18 5.76 7.09 5.76h60.06c3.91 0 7.09-2.59 7.09-5.76v-27.42c0-3.18-3.18-5.76-7.09-5.76z" class="uuid-28b5a7d1-d3eb-4841-8d07-f4b1b78409f3" style="display:inline;fill:#000000;fill-opacity:1"/><path id="path75" d="M1527.63 506.42a4 4 0 0 1-1.62-.36c-22.45-10.57-31.72-1.48-32.1-1.09a3.8 3.8 0 0 1-5.37.21 3.84 3.84 0 0 1-.21-5.41c.52-.57 13.08-13.73 40.93-.61a3.82 3.82 0 0 1-1.63 7.27z" class="uuid-28b5a7d1-d3eb-4841-8d07-f4b1b78409f3" style="display:inline;fill:#000000;fill-opacity:1"/><path id="path76" d="M1612.43 504.41a3.83 3.83 0 0 1-.61-7.59l139.78-22.64a3.82 3.82 0 0 1 1.22 7.54l-139.78 22.64a4 4 0 0 1-.61.05" class="uuid-28b5a7d1-d3eb-4841-8d07-f4b1b78409f3" style="display:inline;fill:#000000;fill-opacity:1"/><path id="path77" d="m2086.71 1460.17-.31-.01a3.8 3.8 0 0 1-3.49-4.11c.29-3.59 29.22-359.6 29.22-444.69 0-16.71-5.38-30.45-15.99-40.84-17.74-17.37-49.36-25.71-93.94-24.78l-3.13.05c-3.68-.02-4.67-1.9-4.85-3.47-.42-3.56 3.1-4.32 4.6-4.65a3.8 3.8 0 0 1 2.77.45h.46c7.53-.16 25.16-.53 44.29 2.62 24.17 3.98 42.73 12.16 55.15 24.33 12.13 11.88 18.28 27.45 18.28 46.29 0 85.4-28.96 441.72-29.25 445.31a3.8 3.8 0 0 1-3.8 3.51z" class="uuid-28b5a7d1-d3eb-4841-8d07-f4b1b78409f3" style="display:inline;fill:#000000;fill-opacity:1"/><path id="path78" d="M1102.07 1112.59a4.15 4.15 0 0 1-3.95-2.86c-5.59-16.98-21.93-28.68-51.41-36.82-20.57-5.69-28.09-6.75-30.43-6.94h-1.46a4.18 4.18 0 0 1-1.04-8.19q.84-.22 2.39-.15c7.95-.07 51.11-1.12 65.81-15.94 3.07-3.1 4.52-6.5 4.45-10.43a4.16 4.16 0 0 1 4.08-4.24h.08a4.16 4.16 0 0 1 4.16 4.09c.12 6.2-2.19 11.74-6.86 16.45-9.33 9.41-27.12 14.02-42.82 16.27l3.86 1.05c32.42 8.96 50.56 22.38 57.1 42.25a4.17 4.17 0 0 1-3.95 5.47z" class="uuid-237576b1-79a6-4575-93fd-25fd6ecaf8ac" style="display:inline;fill:#000000;fill-opacity:1"/><path id="path79" d="M1106.97 1012.61a4.16 4.16 0 0 1-3.11-6.93c14.79-16.64-14.93-50.33-27.63-61.9a4.16 4.16 0 0 1 5.52-6.23c10.57 9.06 41.43 30.34 57.09 20.03 2.57-1.69 9.65-11.43-7.24-65.57-9.41-30.15-21.63-58.97-21.75-59.26a4.16 4.16 0 0 1 7.45-3.69c12.88 22.6 52.23 82.13 79.24 86.15 5.23.78 9.64-.62 13.51-4.27a4.17 4.17 0 0 1 5.72 6.06c-5.76 5.44-12.64 7.61-20.46 6.45-15.61-2.33-34.76-18.36-56.93-47.67q-3.29-4.35-6.31-8.6a593 593 0 0 1 7.47 22.3c5.64 18.06 9.21 33.11 10.61 44.73 1.95 16.13-.25 26.05-6.73 30.32-11.68 7.69-27.4 3.41-40.7-3.2 11.09 15.58 20.04 35.62 7.36 49.89a4.1 4.1 0 0 1-3.11 1.4z" class="uuid-237576b1-79a6-4575-93fd-25fd6ecaf8ac" style="display:inline;fill:#000000;fill-opacity:1"/><path id="path80" d="M1234.87 891.19a4.16 4.16 0 0 1-1.3-8.12c7.76-2.56 13.3-11.04 17.44-26.66 2.96-11.18 3.55-15.28 3.66-16.49l.02-.8a4.16 4.16 0 0 1 8.23-.81c.07.29.17.76.08 1.99-.15 11.23 1.65 30.11 7.3 35.98 1.33 1.39 2.47 1.56 3.21 1.58a4.16 4.16 0 1 1-.13 8.33 12.7 12.7 0 0 1-9.09-4.13c-3.64-3.79-5.91-9.98-7.33-16.51-4.83 14.23-11.52 22.38-20.78 25.44q-.65.21-1.31.21z" class="uuid-237576b1-79a6-4575-93fd-25fd6ecaf8ac" style="display:inline;fill:#000000;fill-opacity:1"/></g></svg>